M48
;Layer_Color=9474304
;FILE_FORMAT=2:5
INCH,LZ
;TYPE=PLATED
T1F00S00C0.01181
T3F00S00C0.03543
T4F00S00C0.03937
T5F00S00C0.15748
T6F00S00C0.17717
%
T01
X031063Y007126
X0307874Y0037795
X0286614Y0053543
X0287402Y0086221
X0259055Y0104724
X0226378Y0094488
X0204429Y0079331
X0177953Y0084252
X0186713Y0095571
X0194095Y0057087
X0193996Y0041634
X0207677Y0045965
X0230807Y0050984
X0229232Y0035531
X0242815Y0038583
X0249705Y0056201
X0268898Y0034252
X0258268Y0014173
X0222835Y0021555
X0213189Y0019094
X0181595Y0014764
X0167126Y0023917
X0169587Y004252
X0170374Y0052559
X0156693Y0055512
X0153839Y0043406
X0156398Y0009547
X0153051Y0083366
X0137598Y0076772
X0124409Y0084153
X0118602Y0095079
X0100295Y009498
X0094291Y0061614
X0118898Y006309
X0077264Y0070965
X0080512Y0045571
X0088583Y0031299
X0078937Y0012303
X0133465Y0018602
X0033957Y0039272
X0008661Y0038681
X0011417Y0076968
X0006398Y0090256
X0032874Y0081398
X0030709Y0129331
X0011713Y0131595
X0009449Y0170374
X0033957Y0170571
X0056595Y0181398
X0080512Y0192224
X0077756Y0161319
X0076673Y0122441
X0125984Y0172933
X0126969Y0194095
X0173819Y0194488
X0172638Y0175984
X0187205Y0161024
X019813Y015374
X0229528Y0134449
X0209941Y0112303
X024124Y0164567
X0242126Y0194882
X0277165
X0277559Y0163779
X0287008Y0127165
X0305118Y0142126
X0310236Y0108661
T03
X0173622Y0031398
X0183465
X0206693Y0031594
X0216535
X0110236Y0084882
Y0094882
Y0104882
T04
X0277697Y0109744
X0287697
X0297697
T05
X0305118Y0016142
X0015748Y0015748
Y0192913
X030748
T06
X0025591Y005748
X0053937
Y0105905
X0025591
Y015315
X0053937
X0102756Y0152756
Y0181102
X0149606
Y0152756
M30
