G04*
G04 #@! TF.GenerationSoftware,Altium Limited,Altium Designer,20.0.12 (288)*
G04*
G04 Layer_Color=8388736*
%FSLAX25Y25*%
%MOIN*%
G70*
G01*
G75*
%ADD20R,0.08674X0.14580*%
%ADD21R,0.05603X0.05524*%
%ADD22R,0.06312X0.04934*%
%ADD23R,0.04934X0.06312*%
%ADD24R,0.06706X0.10642*%
%ADD25R,0.06706X0.06706*%
%ADD26C,0.06706*%
%ADD27C,0.25997*%
%ADD28R,0.06312X0.10249*%
%ADD29C,0.00800*%
D20*
X125197Y48425D02*
D03*
X140157D02*
D03*
D21*
X142126Y85433D02*
D03*
Y98032D02*
D03*
D22*
X272146Y88583D02*
D03*
Y81299D02*
D03*
X262697Y88583D02*
D03*
Y81299D02*
D03*
X127953Y99311D02*
D03*
Y92028D02*
D03*
D23*
X302559Y85827D02*
D03*
X309842D02*
D03*
X302559Y93307D02*
D03*
X309842D02*
D03*
D24*
X143307Y20472D02*
D03*
X155118D02*
D03*
X105905Y48031D02*
D03*
X94095D02*
D03*
D25*
X277697Y109744D02*
D03*
D26*
X287697D02*
D03*
X297697D02*
D03*
X110236Y84882D02*
D03*
Y94882D02*
D03*
Y104882D02*
D03*
X206693Y31594D02*
D03*
X216535D02*
D03*
X173622Y31398D02*
D03*
X183465D02*
D03*
D27*
X149606Y152756D02*
D03*
Y181102D02*
D03*
X102756Y152756D02*
D03*
Y181102D02*
D03*
X53937Y105905D02*
D03*
X25591D02*
D03*
X53937Y57480D02*
D03*
X25591D02*
D03*
X53937Y153150D02*
D03*
X25591D02*
D03*
D28*
X219685Y71752D02*
D03*
X237795Y71732D02*
D03*
X179921Y71752D02*
D03*
X161614Y71732D02*
D03*
X179823Y115847D02*
D03*
X161713Y115866D02*
D03*
X219587Y115847D02*
D03*
X237894Y115866D02*
D03*
X64173Y20472D02*
D03*
X46063Y20492D02*
D03*
X103937Y20472D02*
D03*
X122244Y20492D02*
D03*
D29*
X15748Y192913D02*
D03*
Y15748D02*
D03*
X305118Y16142D02*
D03*
X307480Y192913D02*
D03*
M02*
