G04*
G04 #@! TF.GenerationSoftware,Altium Limited,Altium Designer,20.0.12 (288)*
G04*
G04 Layer_Color=255*
%FSLAX25Y25*%
%MOIN*%
G70*
G01*
G75*
%ADD15R,0.07874X0.13780*%
%ADD16R,0.04803X0.04724*%
%ADD17R,0.05512X0.04134*%
%ADD18R,0.04134X0.05512*%
%ADD19R,0.05906X0.09843*%
%ADD50R,0.05906X0.05906*%
%ADD51C,0.05906*%
%ADD52C,0.25197*%
%ADD53R,0.05512X0.09449*%
D15*
X125197Y48425D02*
D03*
X140157D02*
D03*
D16*
X142126Y85433D02*
D03*
Y98032D02*
D03*
D17*
X272146Y88583D02*
D03*
Y81299D02*
D03*
X262697Y88583D02*
D03*
Y81299D02*
D03*
X127953Y99311D02*
D03*
Y92028D02*
D03*
D18*
X302559Y85827D02*
D03*
X309842D02*
D03*
X302559Y93307D02*
D03*
X309842D02*
D03*
D19*
X143307Y20472D02*
D03*
X155118D02*
D03*
X105905Y48031D02*
D03*
X94095D02*
D03*
D50*
X277697Y109744D02*
D03*
D51*
X287697D02*
D03*
X297697D02*
D03*
X110236Y84882D02*
D03*
Y94882D02*
D03*
Y104882D02*
D03*
X206693Y31594D02*
D03*
X216535D02*
D03*
X173622Y31398D02*
D03*
X183465D02*
D03*
D52*
X149606Y152756D02*
D03*
Y181102D02*
D03*
X102756Y152756D02*
D03*
Y181102D02*
D03*
X53937Y105905D02*
D03*
X25591D02*
D03*
X53937Y57480D02*
D03*
X25591D02*
D03*
X53937Y153150D02*
D03*
X25591D02*
D03*
D53*
X219685Y71752D02*
D03*
X237795Y71732D02*
D03*
X179921Y71752D02*
D03*
X161614Y71732D02*
D03*
X179823Y115847D02*
D03*
X161713Y115866D02*
D03*
X219587Y115847D02*
D03*
X237894Y115866D02*
D03*
X64173Y20472D02*
D03*
X46063Y20492D02*
D03*
X103937Y20472D02*
D03*
X122244Y20492D02*
D03*
M02*
