G04*
G04 #@! TF.GenerationSoftware,Altium Limited,Altium Designer,20.0.12 (288)*
G04*
G04 Layer_Physical_Order=1*
G04 Layer_Color=255*
%FSLAX25Y25*%
%MOIN*%
G70*
G01*
G75*
%ADD15R,0.07874X0.13780*%
%ADD16R,0.04803X0.04724*%
%ADD17R,0.05512X0.04134*%
%ADD18R,0.04134X0.05512*%
%ADD19R,0.05906X0.09843*%
%ADD30C,0.07874*%
%ADD31C,0.03937*%
%ADD32R,0.19291X0.37008*%
%ADD33R,0.57480X0.06693*%
%ADD34R,0.34646X0.19685*%
%ADD35R,0.07087X0.27165*%
%ADD36R,0.31890X0.18110*%
%ADD37R,0.06299X0.34646*%
%ADD38R,0.07874X0.14961*%
%ADD39R,0.31102X0.07480*%
%ADD40R,0.10236X0.09843*%
%ADD41R,0.27165X0.18110*%
%ADD42R,0.32677X0.11811*%
%ADD43R,0.09449X0.10236*%
%ADD44R,0.10236X0.04724*%
%ADD45R,0.83957X0.27165*%
%ADD46R,0.78347X0.39370*%
%ADD47R,0.27165X0.25197*%
%ADD48R,0.19685X0.22441*%
%ADD49R,0.31496X1.60236*%
%ADD50R,0.05906X0.05906*%
%ADD51C,0.05906*%
%ADD52C,0.25197*%
%ADD53R,0.05512X0.09449*%
%ADD54C,0.02362*%
G36*
X292520Y204724D02*
Y177165D01*
X316929Y177165D01*
Y31496D01*
X288583D01*
Y3937D01*
X31496D01*
Y31496D01*
X3937D01*
Y89113D01*
X4437Y89264D01*
X4823Y88687D01*
Y90256D01*
Y91825D01*
X4437Y91247D01*
X3937Y91399D01*
Y177165D01*
X31496D01*
Y204724D01*
X292520Y204724D01*
D02*
G37*
%LPC*%
G36*
X151181Y194619D02*
Y182677D01*
X163123D01*
X163079Y183236D01*
X162579Y185318D01*
X161760Y187295D01*
X160642Y189120D01*
X159252Y190748D01*
X157624Y192138D01*
X155799Y193256D01*
X153821Y194075D01*
X151740Y194575D01*
X151181Y194619D01*
D02*
G37*
G36*
X104331D02*
Y182677D01*
X116272D01*
X116228Y183236D01*
X115729Y185318D01*
X114910Y187295D01*
X113791Y189120D01*
X112401Y190748D01*
X110774Y192138D01*
X108949Y193256D01*
X106971Y194075D01*
X104890Y194575D01*
X104331Y194619D01*
D02*
G37*
G36*
X101181D02*
X100622Y194575D01*
X98541Y194075D01*
X96563Y193256D01*
X94738Y192138D01*
X93111Y190748D01*
X91720Y189120D01*
X90602Y187295D01*
X89783Y185318D01*
X89283Y183236D01*
X89239Y182677D01*
X101181D01*
Y194619D01*
D02*
G37*
G36*
X148031D02*
X147473Y194575D01*
X145391Y194075D01*
X143414Y193256D01*
X141589Y192138D01*
X139961Y190748D01*
X138571Y189120D01*
X137452Y187295D01*
X136633Y185318D01*
X136134Y183236D01*
X136090Y182677D01*
X148031D01*
Y194619D01*
D02*
G37*
G36*
X71260Y169524D02*
X39764D01*
X39374Y169446D01*
X39043Y169225D01*
X38822Y168894D01*
X38744Y168504D01*
Y158235D01*
X38244Y158135D01*
X37744Y159342D01*
X36626Y161167D01*
X35236Y162795D01*
X33608Y164185D01*
X31783Y165303D01*
X29806Y166122D01*
X27724Y166622D01*
X27165Y166666D01*
Y153150D01*
Y139633D01*
X27724Y139677D01*
X29806Y140177D01*
X31783Y140996D01*
X33608Y142114D01*
X35236Y143504D01*
X36626Y145132D01*
X37744Y146957D01*
X38244Y148164D01*
X38744Y148064D01*
Y110991D01*
X38244Y110891D01*
X37744Y112098D01*
X36626Y113923D01*
X35236Y115551D01*
X33608Y116941D01*
X31783Y118059D01*
X29806Y118878D01*
X27724Y119378D01*
X27165Y119422D01*
Y105905D01*
Y92389D01*
X27724Y92433D01*
X29806Y92933D01*
X31783Y93752D01*
X33608Y94870D01*
X35236Y96260D01*
X36626Y97888D01*
X37744Y99713D01*
X38244Y100920D01*
X38744Y100820D01*
Y62566D01*
X38244Y62466D01*
X37744Y63673D01*
X36626Y65498D01*
X35236Y67126D01*
X33608Y68516D01*
X31783Y69634D01*
X29806Y70453D01*
X27724Y70953D01*
X27165Y70997D01*
Y57480D01*
Y43964D01*
X27724Y44008D01*
X29806Y44508D01*
X31783Y45327D01*
X33608Y46445D01*
X35236Y47835D01*
X36626Y49463D01*
X37744Y51288D01*
X38244Y52495D01*
X38744Y52395D01*
Y8268D01*
X38822Y7878D01*
X39043Y7547D01*
X39374Y7326D01*
X39764Y7248D01*
X71260D01*
X71650Y7326D01*
X71981Y7547D01*
X72202Y7878D01*
X72279Y8268D01*
Y168504D01*
X72202Y168894D01*
X71981Y169225D01*
X71650Y169446D01*
X71260Y169524D01*
D02*
G37*
G36*
X24016Y166666D02*
X23457Y166622D01*
X21375Y166122D01*
X19398Y165303D01*
X17573Y164185D01*
X15945Y162795D01*
X14555Y161167D01*
X13437Y159342D01*
X12618Y157365D01*
X12118Y155283D01*
X12074Y154724D01*
X24016D01*
Y166666D01*
D02*
G37*
G36*
Y151575D02*
X12074D01*
X12118Y151016D01*
X12618Y148934D01*
X13437Y146957D01*
X14555Y145132D01*
X15945Y143504D01*
X17573Y142114D01*
X19398Y140996D01*
X21375Y140177D01*
X23457Y139677D01*
X24016Y139633D01*
Y151575D01*
D02*
G37*
G36*
X289272Y113370D02*
Y111319D01*
X291323D01*
X291150Y111738D01*
X290516Y112563D01*
X289690Y113197D01*
X289272Y113370D01*
D02*
G37*
G36*
X286122Y113370D02*
X285703Y113197D01*
X284878Y112563D01*
X284244Y111738D01*
X284071Y111319D01*
X286122D01*
Y113370D01*
D02*
G37*
G36*
X24016Y119422D02*
X23457Y119378D01*
X21375Y118878D01*
X19398Y118059D01*
X17573Y116941D01*
X15945Y115551D01*
X14555Y113923D01*
X13437Y112098D01*
X12618Y110121D01*
X12118Y108039D01*
X12074Y107480D01*
X24016D01*
Y119422D01*
D02*
G37*
G36*
X286122Y108169D02*
X284071D01*
X284244Y107751D01*
X284878Y106925D01*
X285703Y106291D01*
X286122Y106118D01*
Y108169D01*
D02*
G37*
G36*
X291323D02*
X289272D01*
Y106118D01*
X289690Y106291D01*
X290516Y106925D01*
X291150Y107751D01*
X291323Y108169D01*
D02*
G37*
G36*
X111811Y98508D02*
Y96457D01*
X113862D01*
X113689Y96875D01*
X113055Y97701D01*
X112230Y98335D01*
X111811Y98508D01*
D02*
G37*
G36*
X108661D02*
X108243Y98335D01*
X107417Y97701D01*
X106783Y96875D01*
X106610Y96457D01*
X108661D01*
Y98508D01*
D02*
G37*
G36*
X312909Y97063D02*
X311417D01*
Y94882D01*
X312909D01*
Y97063D01*
D02*
G37*
G36*
X308268D02*
X306776D01*
Y94882D01*
X308268D01*
Y97063D01*
D02*
G37*
G36*
X116272Y179528D02*
X102756D01*
X89239D01*
X89283Y178969D01*
X89783Y176887D01*
X90602Y174910D01*
X91720Y173085D01*
X93111Y171457D01*
X94738Y170067D01*
X96563Y168949D01*
X98541Y168130D01*
X98851Y168055D01*
X98792Y167555D01*
X87008D01*
X86618Y167477D01*
X86287Y167256D01*
X86066Y166926D01*
X85988Y166535D01*
Y127165D01*
X86066Y126775D01*
X86287Y126444D01*
X86618Y126223D01*
X87008Y126146D01*
X103311D01*
Y100394D01*
X103389Y100004D01*
X103610Y99673D01*
X103940Y99452D01*
X104331Y99374D01*
X124197D01*
Y96244D01*
X131709D01*
Y99374D01*
X136382D01*
Y97244D01*
X136460Y96854D01*
X136681Y96523D01*
X137011Y96302D01*
X137402Y96224D01*
X138724D01*
Y94669D01*
X145528D01*
Y96224D01*
X147638D01*
X148028Y96302D01*
X148359Y96523D01*
X148580Y96854D01*
X148657Y97244D01*
Y99374D01*
X188287D01*
X188678Y99452D01*
X189008Y99673D01*
X189229Y100004D01*
X189307Y100394D01*
Y127559D01*
X189229Y127949D01*
X189008Y128280D01*
X188678Y128501D01*
X188287Y128579D01*
X166374D01*
Y166535D01*
X166296Y166926D01*
X166075Y167256D01*
X165744Y167477D01*
X165354Y167555D01*
X153570D01*
X153511Y168055D01*
X153821Y168130D01*
X155799Y168949D01*
X157624Y170067D01*
X159252Y171457D01*
X160642Y173085D01*
X161760Y174910D01*
X162579Y176887D01*
X163079Y178969D01*
X163123Y179528D01*
X149606D01*
X136090D01*
X136134Y178969D01*
X136633Y176887D01*
X137452Y174910D01*
X138571Y173085D01*
X139961Y171457D01*
X141589Y170067D01*
X143414Y168949D01*
X145391Y168130D01*
X145701Y168055D01*
X145642Y167555D01*
X106720D01*
X106661Y168055D01*
X106971Y168130D01*
X108949Y168949D01*
X110774Y170067D01*
X112401Y171457D01*
X113791Y173085D01*
X114910Y174910D01*
X115729Y176887D01*
X116228Y178969D01*
X116272Y179528D01*
D02*
G37*
G36*
X131709Y95095D02*
X129528D01*
Y93602D01*
X131709D01*
Y95095D01*
D02*
G37*
G36*
X126378D02*
X124197D01*
Y93602D01*
X126378D01*
Y95095D01*
D02*
G37*
G36*
X24016Y104331D02*
X12074D01*
X12118Y103772D01*
X12618Y101690D01*
X13437Y99713D01*
X14555Y97888D01*
X15945Y96260D01*
X17573Y94870D01*
X19398Y93752D01*
X21375Y92933D01*
X23457Y92433D01*
X24016Y92389D01*
Y104331D01*
D02*
G37*
G36*
X113862Y93307D02*
X111811D01*
Y91256D01*
X112230Y91429D01*
X113055Y92063D01*
X113689Y92888D01*
X113862Y93307D01*
D02*
G37*
G36*
X108661D02*
X106610D01*
X106783Y92888D01*
X107417Y92063D01*
X108243Y91429D01*
X108661Y91256D01*
Y93307D01*
D02*
G37*
G36*
X131709Y90453D02*
X129528D01*
Y88961D01*
X131709D01*
Y90453D01*
D02*
G37*
G36*
X126378D02*
X124197D01*
Y88961D01*
X126378D01*
Y90453D01*
D02*
G37*
G36*
X312909Y91732D02*
X309842D01*
X306776D01*
Y89551D01*
Y87402D01*
X309842D01*
X312909D01*
Y89551D01*
Y91732D01*
D02*
G37*
G36*
X145528Y88795D02*
X143701D01*
Y87008D01*
X145528D01*
Y88795D01*
D02*
G37*
G36*
X140551D02*
X138724D01*
Y87008D01*
X140551D01*
Y88795D01*
D02*
G37*
G36*
X242224Y126315D02*
X215059D01*
X214669Y126237D01*
X214338Y126016D01*
X214117Y125685D01*
X214039Y125295D01*
Y107185D01*
X214117Y106795D01*
X214338Y106464D01*
X214669Y106243D01*
X215059Y106165D01*
X231264D01*
Y88189D01*
X231342Y87799D01*
X231562Y87468D01*
X231893Y87247D01*
X232283Y87169D01*
X250120D01*
X250299Y87050D01*
X250689Y86972D01*
X258941D01*
Y85516D01*
X266453D01*
Y86972D01*
X268390D01*
Y85516D01*
X275902D01*
Y86972D01*
X281791D01*
X282182Y87050D01*
X282512Y87271D01*
X282733Y87602D01*
X282811Y87992D01*
Y93113D01*
X282906Y93177D01*
X283127Y93507D01*
X283205Y93898D01*
Y108858D01*
X283127Y109248D01*
X283106Y109280D01*
Y114075D01*
X283029Y114465D01*
X282808Y114796D01*
X282477Y115017D01*
X282087Y115094D01*
X271850D01*
X271460Y115017D01*
X271129Y114796D01*
X270908Y114465D01*
X270831Y114075D01*
Y104232D01*
X270908Y103842D01*
X271129Y103511D01*
X271460Y103290D01*
X271850Y103213D01*
X273291D01*
Y96492D01*
X252594D01*
Y125197D01*
X252517Y125587D01*
X252296Y125918D01*
X251965Y126139D01*
X251575Y126216D01*
X242646D01*
X242615Y126237D01*
X242224Y126315D01*
D02*
G37*
G36*
X275902Y84366D02*
X273721D01*
Y82874D01*
X275902D01*
Y84366D01*
D02*
G37*
G36*
X270571D02*
X268390D01*
Y82874D01*
X270571D01*
Y84366D01*
D02*
G37*
G36*
X266453D02*
X264272D01*
Y82874D01*
X266453D01*
Y84366D01*
D02*
G37*
G36*
X261122D02*
X258941D01*
Y82874D01*
X261122D01*
Y84366D01*
D02*
G37*
G36*
X312909Y84252D02*
X311417D01*
Y82071D01*
X312909D01*
Y84252D01*
D02*
G37*
G36*
X308268D02*
X306776D01*
Y82071D01*
X308268D01*
Y84252D01*
D02*
G37*
G36*
X145528Y83858D02*
X143701D01*
Y82071D01*
X145528D01*
Y83858D01*
D02*
G37*
G36*
X140551D02*
X138724D01*
Y82071D01*
X140551D01*
Y83858D01*
D02*
G37*
G36*
X275902Y79724D02*
X273721D01*
Y78232D01*
X275902D01*
Y79724D01*
D02*
G37*
G36*
X270571D02*
X268390D01*
Y78232D01*
X270571D01*
Y79724D01*
D02*
G37*
G36*
X266453D02*
X264272D01*
Y78232D01*
X266453D01*
Y79724D01*
D02*
G37*
G36*
X261122D02*
X258941D01*
Y78232D01*
X261122D01*
Y79724D01*
D02*
G37*
G36*
X303063Y115377D02*
X293614D01*
X293224Y115300D01*
X292893Y115079D01*
X292672Y114748D01*
X292594Y114358D01*
Y104121D01*
X292672Y103731D01*
X292893Y103401D01*
X293224Y103179D01*
X293614Y103102D01*
X293862D01*
Y75823D01*
X247083D01*
Y82284D01*
X247005Y82674D01*
X246784Y83004D01*
X246453Y83225D01*
X246063Y83303D01*
X211417D01*
X211027Y83225D01*
X210696Y83004D01*
X210475Y82674D01*
X210398Y82284D01*
Y62598D01*
X210475Y62208D01*
X210696Y61878D01*
X211027Y61656D01*
X211417Y61579D01*
X246063D01*
X246453Y61656D01*
X246784Y61878D01*
X247005Y62208D01*
X247083Y62598D01*
Y67091D01*
X301181D01*
X301571Y67168D01*
X301902Y67389D01*
X302123Y67720D01*
X302201Y68110D01*
Y74803D01*
Y82071D01*
X305626D01*
Y89551D01*
Y97063D01*
X302201D01*
Y103102D01*
X303063D01*
X303453Y103179D01*
X303784Y103401D01*
X304005Y103731D01*
X304082Y104121D01*
Y114358D01*
X304005Y114748D01*
X303784Y115079D01*
X303453Y115300D01*
X303063Y115377D01*
D02*
G37*
G36*
X24016Y70997D02*
X23457Y70953D01*
X21375Y70453D01*
X19398Y69634D01*
X17573Y68516D01*
X15945Y67126D01*
X14555Y65498D01*
X13437Y63673D01*
X12618Y61695D01*
X12118Y59614D01*
X12074Y59055D01*
X24016D01*
Y70997D01*
D02*
G37*
G36*
X98047Y53953D02*
X95669D01*
Y49606D01*
X98047D01*
Y53953D01*
D02*
G37*
G36*
X92520D02*
X90142D01*
Y49606D01*
X92520D01*
Y53953D01*
D02*
G37*
G36*
X24016Y55905D02*
X12074D01*
X12118Y55347D01*
X12618Y53265D01*
X13437Y51288D01*
X14555Y49463D01*
X15945Y47835D01*
X17573Y46445D01*
X19398Y45327D01*
X21375Y44508D01*
X23457Y44008D01*
X24016Y43964D01*
Y55905D01*
D02*
G37*
G36*
X98047Y46457D02*
X95669D01*
Y42110D01*
X98047D01*
Y46457D01*
D02*
G37*
G36*
X92520D02*
X90142D01*
Y42110D01*
X92520D01*
Y46457D01*
D02*
G37*
G36*
X187008Y81335D02*
X155118D01*
X154728Y81257D01*
X154397Y81036D01*
X154176Y80705D01*
X154098Y80315D01*
Y62205D01*
X154176Y61814D01*
X154397Y61484D01*
X154728Y61263D01*
X155118Y61185D01*
X178114D01*
Y38815D01*
X178051D01*
X177661Y38737D01*
X177330Y38516D01*
X177109Y38185D01*
X177032Y37795D01*
Y34225D01*
X176558Y34064D01*
X176441Y34217D01*
X175616Y34850D01*
X175197Y35024D01*
Y31398D01*
Y27771D01*
X175616Y27945D01*
X176441Y28578D01*
X176558Y28731D01*
X177032Y28570D01*
Y25984D01*
X177109Y25594D01*
X177330Y25263D01*
X177661Y25042D01*
X178051Y24965D01*
X210728D01*
X211119Y25042D01*
X211449Y25263D01*
X211670Y25594D01*
X211748Y25984D01*
Y37795D01*
X211670Y38185D01*
X211449Y38516D01*
X211119Y38737D01*
X210728Y38815D01*
X187240D01*
Y61231D01*
X187398Y61263D01*
X187729Y61484D01*
X187950Y61814D01*
X188028Y62205D01*
Y80315D01*
X187950Y80705D01*
X187729Y81036D01*
X187398Y81257D01*
X187008Y81335D01*
D02*
G37*
G36*
X218110Y35221D02*
Y33169D01*
X220162D01*
X219988Y33588D01*
X219355Y34414D01*
X218529Y35047D01*
X218110Y35221D01*
D02*
G37*
G36*
X214961Y35221D02*
X214542Y35047D01*
X213716Y34414D01*
X213083Y33588D01*
X212909Y33169D01*
X214961D01*
Y35221D01*
D02*
G37*
G36*
X172047Y35024D02*
X171629Y34850D01*
X170803Y34217D01*
X170169Y33391D01*
X169996Y32972D01*
X172047D01*
Y35024D01*
D02*
G37*
G36*
X220162Y30020D02*
X218110D01*
Y27968D01*
X218529Y28142D01*
X219355Y28775D01*
X219988Y29601D01*
X220162Y30020D01*
D02*
G37*
G36*
X214961D02*
X212909D01*
X213083Y29601D01*
X213716Y28775D01*
X214542Y28142D01*
X214961Y27968D01*
Y30020D01*
D02*
G37*
G36*
X172047Y29823D02*
X169996D01*
X170169Y29404D01*
X170803Y28578D01*
X171629Y27945D01*
X172047Y27771D01*
Y29823D01*
D02*
G37*
G36*
X159071Y26394D02*
X156693D01*
Y22047D01*
X159071D01*
Y26394D01*
D02*
G37*
G36*
X153543D02*
X151165D01*
Y22047D01*
X153543D01*
Y26394D01*
D02*
G37*
G36*
X159071Y18898D02*
X156693D01*
Y14551D01*
X159071D01*
Y18898D01*
D02*
G37*
G36*
X153543D02*
X151165D01*
Y14551D01*
X153543D01*
Y18898D01*
D02*
G37*
G36*
X110236Y89862D02*
X108947Y89692D01*
X107746Y89194D01*
X106715Y88403D01*
X105924Y87372D01*
X105426Y86171D01*
X105257Y84882D01*
X105426Y83593D01*
X105924Y82392D01*
X106715Y81361D01*
X135221Y52855D01*
Y40535D01*
X137163D01*
Y25591D01*
X137265Y24816D01*
X137565Y24093D01*
X138040Y23473D01*
X139354Y22159D01*
Y14551D01*
X147260D01*
Y26394D01*
X143589D01*
X143152Y26831D01*
Y40535D01*
X145095D01*
Y51199D01*
X145376Y51565D01*
X145873Y52766D01*
X146043Y54055D01*
X145873Y55344D01*
X145376Y56545D01*
X144584Y57576D01*
X113757Y88403D01*
X112726Y89194D01*
X111525Y89692D01*
X110236Y89862D01*
D02*
G37*
G36*
X125984Y59681D02*
X106299D01*
X105909Y59603D01*
X105578Y59382D01*
X105357Y59052D01*
X105280Y58661D01*
Y53953D01*
X101953D01*
Y42110D01*
X105280D01*
Y38028D01*
X99606D01*
X99216Y37950D01*
X98885Y37729D01*
X98664Y37398D01*
X98587Y37008D01*
Y11811D01*
X98664Y11421D01*
X98885Y11090D01*
X99216Y10869D01*
X99606Y10791D01*
X126772D01*
X127162Y10869D01*
X127493Y11090D01*
X127714Y11421D01*
X127791Y11811D01*
Y37008D01*
X127714Y37398D01*
X127493Y37729D01*
X127162Y37950D01*
X127004Y37981D01*
Y40535D01*
X130134D01*
Y56315D01*
X127004D01*
Y58661D01*
X126926Y59052D01*
X126705Y59382D01*
X126374Y59603D01*
X125984Y59681D01*
D02*
G37*
%LPD*%
D15*
X125197Y48425D02*
D03*
X140157D02*
D03*
D16*
X142126Y85433D02*
D03*
Y98032D02*
D03*
D17*
X272146Y88583D02*
D03*
Y81299D02*
D03*
X262697Y88583D02*
D03*
Y81299D02*
D03*
X127953Y99311D02*
D03*
Y92028D02*
D03*
D18*
X302559Y85827D02*
D03*
X309842D02*
D03*
X302559Y93307D02*
D03*
X309842D02*
D03*
D19*
X143307Y20472D02*
D03*
X155118D02*
D03*
X105905Y48031D02*
D03*
X94095D02*
D03*
D30*
X110236Y84882D02*
X141063Y54055D01*
D31*
X143307Y20472D02*
Y22441D01*
X140157Y25591D02*
X143307Y22441D01*
X140157Y25591D02*
Y48425D01*
D32*
X241929Y106693D02*
D03*
D33*
X272441Y71457D02*
D03*
D34*
X228740Y72441D02*
D03*
D35*
X182677Y49803D02*
D03*
D36*
X171063Y71260D02*
D03*
D37*
X298031Y88189D02*
D03*
D38*
X278248Y101378D02*
D03*
D39*
X266240Y91732D02*
D03*
D40*
X276969Y109153D02*
D03*
D41*
X228642Y116240D02*
D03*
D42*
X194390Y31890D02*
D03*
D43*
X298338Y109239D02*
D03*
D44*
X142520Y99606D02*
D03*
D45*
X146309Y113976D02*
D03*
D46*
X126181Y146850D02*
D03*
D47*
X113189Y24409D02*
D03*
D48*
X116142Y47441D02*
D03*
D49*
X55512Y88386D02*
D03*
D50*
X277697Y109744D02*
D03*
D51*
X287697D02*
D03*
X297697D02*
D03*
X110236Y84882D02*
D03*
Y94882D02*
D03*
Y104882D02*
D03*
X206693Y31594D02*
D03*
X216535D02*
D03*
X173622Y31398D02*
D03*
X183465D02*
D03*
D52*
X149606Y152756D02*
D03*
Y181102D02*
D03*
X102756Y152756D02*
D03*
Y181102D02*
D03*
X53937Y105905D02*
D03*
X25591D02*
D03*
X53937Y57480D02*
D03*
X25591D02*
D03*
X53937Y153150D02*
D03*
X25591D02*
D03*
D53*
X219685Y71752D02*
D03*
X237795Y71732D02*
D03*
X179921Y71752D02*
D03*
X161614Y71732D02*
D03*
X179823Y115847D02*
D03*
X161713Y115866D02*
D03*
X219587Y115847D02*
D03*
X237894Y115866D02*
D03*
X64173Y20472D02*
D03*
X46063Y20492D02*
D03*
X103937Y20472D02*
D03*
X122244Y20492D02*
D03*
D54*
X242126Y194882D02*
D03*
X277165D02*
D03*
X277559Y163779D02*
D03*
X305118Y142126D02*
D03*
X287008Y127165D02*
D03*
X310236Y108661D02*
D03*
X287402Y86221D02*
D03*
X258268Y14173D02*
D03*
X268898Y34252D02*
D03*
X286614Y53543D02*
D03*
X307874Y37795D02*
D03*
X170374Y52559D02*
D03*
X193996Y41634D02*
D03*
X310630Y71260D02*
D03*
X186713Y95571D02*
D03*
X226378Y94488D02*
D03*
X181595Y14764D02*
D03*
X156693Y55512D02*
D03*
X242815Y38583D02*
D03*
X230807Y50984D02*
D03*
X222835Y21555D02*
D03*
X33957Y170571D02*
D03*
X80512Y192224D02*
D03*
X125984Y172933D02*
D03*
X172638Y175984D02*
D03*
X100295Y94980D02*
D03*
X118602Y95079D02*
D03*
X209941Y112303D02*
D03*
X204429Y79331D02*
D03*
X207677Y45965D02*
D03*
X194095Y57087D02*
D03*
X213189Y19094D02*
D03*
X167126Y23917D02*
D03*
X156398Y9547D02*
D03*
X118898Y63090D02*
D03*
X78937Y12303D02*
D03*
X33957Y39272D02*
D03*
X8661Y38681D02*
D03*
X11417Y76968D02*
D03*
X6398Y90256D02*
D03*
X32874Y81398D02*
D03*
X9449Y170374D02*
D03*
X11713Y131595D02*
D03*
X30709Y129331D02*
D03*
X56595Y181398D02*
D03*
X77756Y161319D02*
D03*
X259055Y104724D02*
D03*
X249705Y56201D02*
D03*
X229232Y35531D02*
D03*
X169587Y42520D02*
D03*
X153839Y43406D02*
D03*
X133465Y18602D02*
D03*
X88583Y31299D02*
D03*
X80512Y45571D02*
D03*
X94291Y61614D02*
D03*
X77264Y70965D02*
D03*
X76673Y122441D02*
D03*
X124409Y84153D02*
D03*
X137598Y76772D02*
D03*
X153051Y83366D02*
D03*
X177953Y84252D02*
D03*
X198130Y153740D02*
D03*
X126969Y194095D02*
D03*
X173819Y194488D02*
D03*
X187205Y161024D02*
D03*
X229528Y134449D02*
D03*
X241240Y164567D02*
D03*
M02*
