M48
;Layer_Color=9474304
;FILE_FORMAT=2:5
INCH,LZ
;TYPE=PLATED
T2F00S00C0.02953
%
G90
G05
T02
G00X0161614Y0071043
M15
G01Y0072421
M16
G00X0179921Y0071063
M15
G01Y0072441
M16
G00X0219685Y0071063
M15
G01Y0072441
M16
G00X0237795Y0071043
M15
G01Y0072421
M16
G00X0122244Y0021181
M15
G01Y0019803
M16
G00X0103937Y0021161
M15
G01Y0019783
M16
G00X0064173Y0021161
M15
G01Y0019783
M16
G00X0046063Y0021181
M15
G01Y0019803
M16
G00X0161713Y0116555
M15
G01Y0115177
M16
G00X0179823Y0116535
M15
G01Y0115157
M16
G00X0219587Y0116535
M15
G01Y0115157
M16
G00X0237894Y0116555
M15
G01Y0115177
M16
M30
