G04*
G04 #@! TF.GenerationSoftware,Altium Limited,Altium Designer,20.0.12 (288)*
G04*
G04 Layer_Color=16711935*
%FSLAX25Y25*%
%MOIN*%
G70*
G01*
G75*
%ADD10C,0.03937*%
%ADD11C,0.00394*%
%ADD13C,0.00787*%
D10*
X267461Y105020D02*
D03*
X114370Y76122D02*
D03*
D11*
X287756Y101083D02*
X311949D01*
X311890Y101142D02*
X311949Y101083D01*
X311890Y101142D02*
Y173465D01*
X263189D02*
X311890D01*
X263189Y101142D02*
Y173465D01*
Y101142D02*
X287697D01*
X118110Y77008D02*
Y117854D01*
X84646D02*
X118110D01*
X84646Y72185D02*
Y117854D01*
Y72185D02*
X118110D01*
Y77008D01*
X138189Y94488D02*
X146063D01*
X138189Y81791D02*
X142126D01*
X138189D02*
Y101969D01*
X146063D01*
Y81791D02*
Y101969D01*
X142126Y81791D02*
X146063D01*
X269665Y89173D02*
X274626D01*
X269665Y80709D02*
X274626D01*
Y89173D01*
X269665Y80709D02*
Y89173D01*
X260217D02*
X265177D01*
X260217Y80709D02*
X265177D01*
Y89173D01*
X260217Y80709D02*
Y89173D01*
X301969Y83346D02*
Y88307D01*
X310433Y83346D02*
Y88307D01*
X301969D02*
X310433D01*
X301969Y83346D02*
X310433D01*
X301969Y90827D02*
Y95787D01*
X310433Y90827D02*
Y95787D01*
X301969D02*
X310433D01*
X301969Y90827D02*
X310433D01*
X125472Y99902D02*
X130433D01*
X125472Y91437D02*
X130433D01*
Y99902D01*
X125472Y91437D02*
Y99902D01*
X138976Y26772D02*
X159449D01*
Y14173D02*
Y26772D01*
X138976Y14173D02*
X159449D01*
X138976D02*
Y26772D01*
X89764Y41732D02*
X110236D01*
X89764D02*
Y54331D01*
X110236D01*
Y41732D02*
Y54331D01*
D13*
X118996Y49311D02*
Y57382D01*
X146555D01*
Y39469D02*
Y57382D01*
X118996Y39469D02*
X146555D01*
X118996D02*
Y49311D01*
M02*
