G04*
G04 #@! TF.GenerationSoftware,Altium Limited,Altium Designer,20.0.12 (288)*
G04*
G04 Layer_Physical_Order=2*
G04 Layer_Color=16711680*
%FSLAX25Y25*%
%MOIN*%
G70*
G01*
G75*
%ADD50R,0.05906X0.05906*%
%ADD51C,0.05906*%
%ADD52C,0.25197*%
%ADD53R,0.05512X0.09449*%
%ADD54C,0.02362*%
G36*
X292520Y204724D02*
Y177165D01*
X316929Y177165D01*
Y31496D01*
X288583D01*
Y3937D01*
X31496D01*
Y31496D01*
X3937D01*
Y89113D01*
X4437Y89264D01*
X4823Y88687D01*
Y90256D01*
Y91825D01*
X4437Y91247D01*
X3937Y91399D01*
Y177165D01*
X31496D01*
Y204724D01*
X292520Y204724D01*
D02*
G37*
%LPC*%
G36*
X151181Y194619D02*
Y182677D01*
X163123D01*
X163079Y183236D01*
X162579Y185318D01*
X161760Y187295D01*
X160642Y189120D01*
X159252Y190748D01*
X157624Y192138D01*
X155799Y193256D01*
X153821Y194075D01*
X151740Y194575D01*
X151181Y194619D01*
D02*
G37*
G36*
X104331D02*
Y182677D01*
X116272D01*
X116228Y183236D01*
X115729Y185318D01*
X114910Y187295D01*
X113791Y189120D01*
X112401Y190748D01*
X110774Y192138D01*
X108949Y193256D01*
X106971Y194075D01*
X104890Y194575D01*
X104331Y194619D01*
D02*
G37*
G36*
X101181D02*
X100622Y194575D01*
X98541Y194075D01*
X96563Y193256D01*
X94738Y192138D01*
X93111Y190748D01*
X91720Y189120D01*
X90602Y187295D01*
X89783Y185318D01*
X89283Y183236D01*
X89239Y182677D01*
X101181D01*
Y194619D01*
D02*
G37*
G36*
X148031D02*
X147473Y194575D01*
X145391Y194075D01*
X143414Y193256D01*
X141589Y192138D01*
X139961Y190748D01*
X138571Y189120D01*
X137452Y187295D01*
X136633Y185318D01*
X136134Y183236D01*
X136090Y182677D01*
X148031D01*
Y194619D01*
D02*
G37*
G36*
X101181Y179528D02*
X89239D01*
X89283Y178969D01*
X89783Y176887D01*
X90602Y174910D01*
X91720Y173085D01*
X93111Y171457D01*
X94738Y170067D01*
X96563Y168949D01*
X98541Y168130D01*
X100622Y167630D01*
X101181Y167586D01*
Y179528D01*
D02*
G37*
G36*
X163123D02*
X151181D01*
Y167586D01*
X151740Y167630D01*
X153821Y168130D01*
X155799Y168949D01*
X157624Y170067D01*
X159252Y171457D01*
X160642Y173085D01*
X161760Y174910D01*
X162579Y176887D01*
X163079Y178969D01*
X163123Y179528D01*
D02*
G37*
G36*
X148031D02*
X136090D01*
X136134Y178969D01*
X136633Y176887D01*
X137452Y174910D01*
X138571Y173085D01*
X139961Y171457D01*
X141589Y170067D01*
X143414Y168949D01*
X145391Y168130D01*
X147473Y167630D01*
X148031Y167586D01*
Y179528D01*
D02*
G37*
G36*
X116272D02*
X104331D01*
Y167586D01*
X104890Y167630D01*
X106971Y168130D01*
X108949Y168949D01*
X110774Y170067D01*
X112401Y171457D01*
X113791Y173085D01*
X114910Y174910D01*
X115729Y176887D01*
X116228Y178969D01*
X116272Y179528D01*
D02*
G37*
G36*
X27165Y166666D02*
Y154724D01*
X39107D01*
X39063Y155283D01*
X38563Y157365D01*
X37744Y159342D01*
X36626Y161167D01*
X35236Y162795D01*
X33608Y164185D01*
X31783Y165303D01*
X29806Y166122D01*
X27724Y166622D01*
X27165Y166666D01*
D02*
G37*
G36*
X24016D02*
X23457Y166622D01*
X21375Y166122D01*
X19398Y165303D01*
X17573Y164185D01*
X15945Y162795D01*
X14555Y161167D01*
X13437Y159342D01*
X12618Y157365D01*
X12118Y155283D01*
X12074Y154724D01*
X24016D01*
Y166666D01*
D02*
G37*
G36*
Y151575D02*
X12074D01*
X12118Y151016D01*
X12618Y148934D01*
X13437Y146957D01*
X14555Y145132D01*
X15945Y143504D01*
X17573Y142114D01*
X19398Y140996D01*
X21375Y140177D01*
X23457Y139677D01*
X24016Y139633D01*
Y151575D01*
D02*
G37*
G36*
X39107D02*
X27165D01*
Y139633D01*
X27724Y139677D01*
X29806Y140177D01*
X31783Y140996D01*
X33608Y142114D01*
X35236Y143504D01*
X36626Y145132D01*
X37744Y146957D01*
X38563Y148934D01*
X39063Y151016D01*
X39107Y151575D01*
D02*
G37*
G36*
X53937Y166790D02*
X51803Y166622D01*
X49722Y166122D01*
X47744Y165303D01*
X45919Y164185D01*
X44292Y162795D01*
X42902Y161167D01*
X41783Y159342D01*
X40964Y157365D01*
X40464Y155283D01*
X40297Y153150D01*
X40464Y151016D01*
X40964Y148934D01*
X41783Y146957D01*
X42902Y145132D01*
X44292Y143504D01*
X45919Y142114D01*
X47744Y140996D01*
X49722Y140177D01*
X51803Y139677D01*
X53937Y139509D01*
X56071Y139677D01*
X58152Y140177D01*
X60130Y140996D01*
X61955Y142114D01*
X63582Y143504D01*
X64972Y145132D01*
X66091Y146957D01*
X66910Y148934D01*
X67409Y151016D01*
X67577Y153150D01*
X67409Y155283D01*
X66910Y157365D01*
X66091Y159342D01*
X64972Y161167D01*
X63582Y162795D01*
X61955Y164185D01*
X60130Y165303D01*
X58152Y166122D01*
X56071Y166622D01*
X53937Y166790D01*
D02*
G37*
G36*
X149606Y166396D02*
X147473Y166228D01*
X145391Y165729D01*
X143414Y164910D01*
X141589Y163791D01*
X139961Y162401D01*
X138571Y160774D01*
X137452Y158949D01*
X136633Y156971D01*
X136134Y154890D01*
X135966Y152756D01*
X136134Y150622D01*
X136633Y148541D01*
X137452Y146563D01*
X138571Y144738D01*
X139961Y143111D01*
X141589Y141720D01*
X143414Y140602D01*
X145391Y139783D01*
X147473Y139283D01*
X149606Y139115D01*
X151740Y139283D01*
X153821Y139783D01*
X155799Y140602D01*
X157624Y141720D01*
X159252Y143111D01*
X160642Y144738D01*
X161760Y146563D01*
X162579Y148541D01*
X163079Y150622D01*
X163247Y152756D01*
X163079Y154890D01*
X162579Y156971D01*
X161760Y158949D01*
X160642Y160774D01*
X159252Y162401D01*
X157624Y163791D01*
X155799Y164910D01*
X153821Y165729D01*
X151740Y166228D01*
X149606Y166396D01*
D02*
G37*
G36*
X102756D02*
X100622Y166228D01*
X98541Y165729D01*
X96563Y164910D01*
X94738Y163791D01*
X93111Y162401D01*
X91720Y160774D01*
X90602Y158949D01*
X89783Y156971D01*
X89283Y154890D01*
X89115Y152756D01*
X89283Y150622D01*
X89783Y148541D01*
X90602Y146563D01*
X91720Y144738D01*
X93111Y143111D01*
X94738Y141720D01*
X96563Y140602D01*
X98541Y139783D01*
X100622Y139283D01*
X102756Y139115D01*
X104890Y139283D01*
X106971Y139783D01*
X108949Y140602D01*
X110774Y141720D01*
X112401Y143111D01*
X113791Y144738D01*
X114910Y146563D01*
X115729Y148541D01*
X116228Y150622D01*
X116396Y152756D01*
X116228Y154890D01*
X115729Y156971D01*
X114910Y158949D01*
X113791Y160774D01*
X112401Y162401D01*
X110774Y163791D01*
X108949Y164910D01*
X106971Y165729D01*
X104890Y166228D01*
X102756Y166396D01*
D02*
G37*
G36*
X289272Y113370D02*
Y111319D01*
X291323D01*
X291150Y111738D01*
X290516Y112563D01*
X289690Y113197D01*
X289272Y113370D01*
D02*
G37*
G36*
X286122Y113370D02*
X285703Y113197D01*
X284878Y112563D01*
X284244Y111738D01*
X284071Y111319D01*
X286122D01*
Y113370D01*
D02*
G37*
G36*
X241650Y121591D02*
X234138D01*
Y110142D01*
X241650D01*
Y121591D01*
D02*
G37*
G36*
X165469D02*
X157957D01*
Y110142D01*
X165469D01*
Y121591D01*
D02*
G37*
G36*
X223342Y121571D02*
X215831D01*
Y110122D01*
X223342D01*
Y121571D01*
D02*
G37*
G36*
X183579D02*
X176067D01*
Y110122D01*
X183579D01*
Y121571D01*
D02*
G37*
G36*
X27165Y119422D02*
Y107480D01*
X39107D01*
X39063Y108039D01*
X38563Y110121D01*
X37744Y112098D01*
X36626Y113923D01*
X35236Y115551D01*
X33608Y116941D01*
X31783Y118059D01*
X29806Y118878D01*
X27724Y119378D01*
X27165Y119422D01*
D02*
G37*
G36*
X24016D02*
X23457Y119378D01*
X21375Y118878D01*
X19398Y118059D01*
X17573Y116941D01*
X15945Y115551D01*
X14555Y113923D01*
X13437Y112098D01*
X12618Y110121D01*
X12118Y108039D01*
X12074Y107480D01*
X24016D01*
Y119422D01*
D02*
G37*
G36*
X286122Y108169D02*
X284071D01*
X284244Y107751D01*
X284878Y106925D01*
X285703Y106291D01*
X286122Y106118D01*
Y108169D01*
D02*
G37*
G36*
X291323D02*
X289272D01*
Y106118D01*
X289690Y106291D01*
X290516Y106925D01*
X291150Y107751D01*
X291323Y108169D01*
D02*
G37*
G36*
X281650Y113697D02*
X273744D01*
Y105791D01*
X281650D01*
Y113697D01*
D02*
G37*
G36*
X297697Y113731D02*
X296665Y113595D01*
X295703Y113197D01*
X294878Y112563D01*
X294244Y111738D01*
X293846Y110776D01*
X293710Y109744D01*
X293846Y108712D01*
X294244Y107751D01*
X294878Y106925D01*
X295703Y106291D01*
X296665Y105893D01*
X297697Y105757D01*
X298729Y105893D01*
X299690Y106291D01*
X300516Y106925D01*
X301150Y107751D01*
X301548Y108712D01*
X301684Y109744D01*
X301548Y110776D01*
X301150Y111738D01*
X300516Y112563D01*
X299690Y113197D01*
X298729Y113595D01*
X297697Y113731D01*
D02*
G37*
G36*
X110236Y108869D02*
X109204Y108733D01*
X108243Y108335D01*
X107417Y107701D01*
X106783Y106875D01*
X106385Y105914D01*
X106249Y104882D01*
X106385Y103850D01*
X106783Y102889D01*
X107417Y102063D01*
X108243Y101429D01*
X109204Y101031D01*
X110236Y100895D01*
X111268Y101031D01*
X112230Y101429D01*
X113055Y102063D01*
X113689Y102889D01*
X114087Y103850D01*
X114223Y104882D01*
X114087Y105914D01*
X113689Y106875D01*
X113055Y107701D01*
X112230Y108335D01*
X111268Y108733D01*
X110236Y108869D01*
D02*
G37*
G36*
X111811Y98508D02*
Y96457D01*
X113862D01*
X113689Y96875D01*
X113055Y97701D01*
X112230Y98335D01*
X111811Y98508D01*
D02*
G37*
G36*
X108661D02*
X108243Y98335D01*
X107417Y97701D01*
X106783Y96875D01*
X106610Y96457D01*
X108661D01*
Y98508D01*
D02*
G37*
G36*
X24016Y104331D02*
X12074D01*
X12118Y103772D01*
X12618Y101690D01*
X13437Y99713D01*
X14555Y97888D01*
X15945Y96260D01*
X17573Y94870D01*
X19398Y93752D01*
X21375Y92933D01*
X23457Y92433D01*
X24016Y92389D01*
Y104331D01*
D02*
G37*
G36*
X39107D02*
X27165D01*
Y92389D01*
X27724Y92433D01*
X29806Y92933D01*
X31783Y93752D01*
X33608Y94870D01*
X35236Y96260D01*
X36626Y97888D01*
X37744Y99713D01*
X38563Y101690D01*
X39063Y103772D01*
X39107Y104331D01*
D02*
G37*
G36*
X53937Y119546D02*
X51803Y119378D01*
X49722Y118878D01*
X47744Y118059D01*
X45919Y116941D01*
X44292Y115551D01*
X42902Y113923D01*
X41783Y112098D01*
X40964Y110121D01*
X40464Y108039D01*
X40297Y105905D01*
X40464Y103772D01*
X40964Y101690D01*
X41783Y99713D01*
X42902Y97888D01*
X44292Y96260D01*
X45919Y94870D01*
X47744Y93752D01*
X49722Y92933D01*
X51803Y92433D01*
X53937Y92265D01*
X56071Y92433D01*
X58152Y92933D01*
X60130Y93752D01*
X61955Y94870D01*
X63582Y96260D01*
X64972Y97888D01*
X66091Y99713D01*
X66910Y101690D01*
X67409Y103772D01*
X67577Y105905D01*
X67409Y108039D01*
X66910Y110121D01*
X66091Y112098D01*
X64972Y113923D01*
X63582Y115551D01*
X61955Y116941D01*
X60130Y118059D01*
X58152Y118878D01*
X56071Y119378D01*
X53937Y119546D01*
D02*
G37*
G36*
X113862Y93307D02*
X111811D01*
Y91256D01*
X112230Y91429D01*
X113055Y92063D01*
X113689Y92888D01*
X113862Y93307D01*
D02*
G37*
G36*
X108661D02*
X106610D01*
X106783Y92888D01*
X107417Y92063D01*
X108243Y91429D01*
X108661Y91256D01*
Y93307D01*
D02*
G37*
G36*
X110236Y88869D02*
X109204Y88733D01*
X108243Y88335D01*
X107417Y87701D01*
X106783Y86875D01*
X106385Y85914D01*
X106249Y84882D01*
X106385Y83850D01*
X106783Y82889D01*
X107417Y82063D01*
X108243Y81429D01*
X109204Y81031D01*
X110236Y80895D01*
X111268Y81031D01*
X112230Y81429D01*
X113055Y82063D01*
X113689Y82889D01*
X114087Y83850D01*
X114223Y84882D01*
X114087Y85914D01*
X113689Y86875D01*
X113055Y87701D01*
X112230Y88335D01*
X111268Y88733D01*
X110236Y88869D01*
D02*
G37*
G36*
X223441Y77476D02*
X215929D01*
Y66028D01*
X223441D01*
Y77476D01*
D02*
G37*
G36*
X183677D02*
X176165D01*
Y66028D01*
X183677D01*
Y77476D01*
D02*
G37*
G36*
X241551Y77457D02*
X234039D01*
Y66008D01*
X241551D01*
Y77457D01*
D02*
G37*
G36*
X165370D02*
X157858D01*
Y66008D01*
X165370D01*
Y77457D01*
D02*
G37*
G36*
X27165Y70997D02*
Y59055D01*
X39107D01*
X39063Y59614D01*
X38563Y61695D01*
X37744Y63673D01*
X36626Y65498D01*
X35236Y67126D01*
X33608Y68516D01*
X31783Y69634D01*
X29806Y70453D01*
X27724Y70953D01*
X27165Y70997D01*
D02*
G37*
G36*
X24016D02*
X23457Y70953D01*
X21375Y70453D01*
X19398Y69634D01*
X17573Y68516D01*
X15945Y67126D01*
X14555Y65498D01*
X13437Y63673D01*
X12618Y61695D01*
X12118Y59614D01*
X12074Y59055D01*
X24016D01*
Y70997D01*
D02*
G37*
G36*
Y55905D02*
X12074D01*
X12118Y55347D01*
X12618Y53265D01*
X13437Y51288D01*
X14555Y49463D01*
X15945Y47835D01*
X17573Y46445D01*
X19398Y45327D01*
X21375Y44508D01*
X23457Y44008D01*
X24016Y43964D01*
Y55905D01*
D02*
G37*
G36*
X39107D02*
X27165D01*
Y43964D01*
X27724Y44008D01*
X29806Y44508D01*
X31783Y45327D01*
X33608Y46445D01*
X35236Y47835D01*
X36626Y49463D01*
X37744Y51288D01*
X38563Y53265D01*
X39063Y55347D01*
X39107Y55905D01*
D02*
G37*
G36*
X53937Y71121D02*
X51803Y70953D01*
X49722Y70453D01*
X47744Y69634D01*
X45919Y68516D01*
X44292Y67126D01*
X42902Y65498D01*
X41783Y63673D01*
X40964Y61695D01*
X40464Y59614D01*
X40297Y57480D01*
X40464Y55347D01*
X40964Y53265D01*
X41783Y51288D01*
X42902Y49463D01*
X44292Y47835D01*
X45919Y46445D01*
X47744Y45327D01*
X49722Y44508D01*
X51803Y44008D01*
X53937Y43840D01*
X56071Y44008D01*
X58152Y44508D01*
X60130Y45327D01*
X61955Y46445D01*
X63582Y47835D01*
X64972Y49463D01*
X66091Y51288D01*
X66910Y53265D01*
X67409Y55347D01*
X67577Y57480D01*
X67409Y59614D01*
X66910Y61695D01*
X66091Y63673D01*
X64972Y65498D01*
X63582Y67126D01*
X61955Y68516D01*
X60130Y69634D01*
X58152Y70453D01*
X56071Y70953D01*
X53937Y71121D01*
D02*
G37*
G36*
X218110Y35221D02*
Y33169D01*
X220162D01*
X219988Y33588D01*
X219355Y34414D01*
X218529Y35047D01*
X218110Y35221D01*
D02*
G37*
G36*
X214961Y35221D02*
X214542Y35047D01*
X213716Y34414D01*
X213083Y33588D01*
X212909Y33169D01*
X214961D01*
Y35221D01*
D02*
G37*
G36*
X175197Y35024D02*
Y32972D01*
X177248D01*
X177075Y33391D01*
X176441Y34217D01*
X175616Y34850D01*
X175197Y35024D01*
D02*
G37*
G36*
X172047Y35024D02*
X171629Y34850D01*
X170803Y34217D01*
X170169Y33391D01*
X169996Y32972D01*
X172047D01*
Y35024D01*
D02*
G37*
G36*
X220162Y30020D02*
X218110D01*
Y27968D01*
X218529Y28142D01*
X219355Y28775D01*
X219988Y29601D01*
X220162Y30020D01*
D02*
G37*
G36*
X214961D02*
X212909D01*
X213083Y29601D01*
X213716Y28775D01*
X214542Y28142D01*
X214961Y27968D01*
Y30020D01*
D02*
G37*
G36*
X177248Y29823D02*
X175197D01*
Y27771D01*
X175616Y27945D01*
X176441Y28578D01*
X177075Y29404D01*
X177248Y29823D01*
D02*
G37*
G36*
X172047D02*
X169996D01*
X170169Y29404D01*
X170803Y28578D01*
X171629Y27945D01*
X172047Y27771D01*
Y29823D01*
D02*
G37*
G36*
X206693Y35581D02*
X205661Y35445D01*
X204699Y35047D01*
X203874Y34414D01*
X203240Y33588D01*
X202842Y32626D01*
X202706Y31594D01*
X202842Y30563D01*
X203240Y29601D01*
X203874Y28775D01*
X204699Y28142D01*
X205661Y27744D01*
X206693Y27608D01*
X207725Y27744D01*
X208686Y28142D01*
X209512Y28775D01*
X210146Y29601D01*
X210544Y30563D01*
X210680Y31594D01*
X210544Y32626D01*
X210146Y33588D01*
X209512Y34414D01*
X208686Y35047D01*
X207725Y35445D01*
X206693Y35581D01*
D02*
G37*
G36*
X183465Y35385D02*
X182433Y35249D01*
X181471Y34850D01*
X180645Y34217D01*
X180012Y33391D01*
X179614Y32430D01*
X179478Y31398D01*
X179614Y30366D01*
X180012Y29404D01*
X180645Y28578D01*
X181471Y27945D01*
X182433Y27547D01*
X183465Y27411D01*
X184496Y27547D01*
X185458Y27945D01*
X186284Y28578D01*
X186917Y29404D01*
X187316Y30366D01*
X187451Y31398D01*
X187316Y32430D01*
X186917Y33391D01*
X186284Y34217D01*
X185458Y34850D01*
X184496Y35249D01*
X183465Y35385D01*
D02*
G37*
G36*
X126000Y26217D02*
X118488D01*
Y14768D01*
X126000D01*
Y26217D01*
D02*
G37*
G36*
X49819D02*
X42307D01*
Y14768D01*
X49819D01*
Y26217D01*
D02*
G37*
G36*
X107693Y26197D02*
X100181D01*
Y14748D01*
X107693D01*
Y26197D01*
D02*
G37*
G36*
X67929D02*
X60417D01*
Y14748D01*
X67929D01*
Y26197D01*
D02*
G37*
%LPD*%
D50*
X277697Y109744D02*
D03*
D51*
X287697D02*
D03*
X297697D02*
D03*
X110236Y84882D02*
D03*
Y94882D02*
D03*
Y104882D02*
D03*
X206693Y31594D02*
D03*
X216535D02*
D03*
X173622Y31398D02*
D03*
X183465D02*
D03*
D52*
X149606Y152756D02*
D03*
Y181102D02*
D03*
X102756Y152756D02*
D03*
Y181102D02*
D03*
X53937Y105905D02*
D03*
X25591D02*
D03*
X53937Y57480D02*
D03*
X25591D02*
D03*
X53937Y153150D02*
D03*
X25591D02*
D03*
D53*
X219685Y71752D02*
D03*
X237795Y71732D02*
D03*
X179921Y71752D02*
D03*
X161614Y71732D02*
D03*
X179823Y115847D02*
D03*
X161713Y115866D02*
D03*
X219587Y115847D02*
D03*
X237894Y115866D02*
D03*
X64173Y20472D02*
D03*
X46063Y20492D02*
D03*
X103937Y20472D02*
D03*
X122244Y20492D02*
D03*
D54*
X242126Y194882D02*
D03*
X277165D02*
D03*
X277559Y163779D02*
D03*
X305118Y142126D02*
D03*
X287008Y127165D02*
D03*
X310236Y108661D02*
D03*
X287402Y86221D02*
D03*
X258268Y14173D02*
D03*
X268898Y34252D02*
D03*
X286614Y53543D02*
D03*
X307874Y37795D02*
D03*
X170374Y52559D02*
D03*
X193996Y41634D02*
D03*
X310630Y71260D02*
D03*
X186713Y95571D02*
D03*
X226378Y94488D02*
D03*
X181595Y14764D02*
D03*
X156693Y55512D02*
D03*
X242815Y38583D02*
D03*
X230807Y50984D02*
D03*
X222835Y21555D02*
D03*
X33957Y170571D02*
D03*
X80512Y192224D02*
D03*
X125984Y172933D02*
D03*
X172638Y175984D02*
D03*
X100295Y94980D02*
D03*
X118602Y95079D02*
D03*
X209941Y112303D02*
D03*
X204429Y79331D02*
D03*
X207677Y45965D02*
D03*
X194095Y57087D02*
D03*
X213189Y19094D02*
D03*
X167126Y23917D02*
D03*
X156398Y9547D02*
D03*
X118898Y63090D02*
D03*
X78937Y12303D02*
D03*
X33957Y39272D02*
D03*
X8661Y38681D02*
D03*
X11417Y76968D02*
D03*
X6398Y90256D02*
D03*
X32874Y81398D02*
D03*
X9449Y170374D02*
D03*
X11713Y131595D02*
D03*
X30709Y129331D02*
D03*
X56595Y181398D02*
D03*
X77756Y161319D02*
D03*
X259055Y104724D02*
D03*
X249705Y56201D02*
D03*
X229232Y35531D02*
D03*
X169587Y42520D02*
D03*
X153839Y43406D02*
D03*
X133465Y18602D02*
D03*
X88583Y31299D02*
D03*
X80512Y45571D02*
D03*
X94291Y61614D02*
D03*
X77264Y70965D02*
D03*
X76673Y122441D02*
D03*
X124409Y84153D02*
D03*
X137598Y76772D02*
D03*
X153051Y83366D02*
D03*
X177953Y84252D02*
D03*
X198130Y153740D02*
D03*
X126969Y194095D02*
D03*
X173819Y194488D02*
D03*
X187205Y161024D02*
D03*
X229528Y134449D02*
D03*
X241240Y164567D02*
D03*
M02*
