G04*
G04 #@! TF.GenerationSoftware,Altium Limited,Altium Designer,20.0.12 (288)*
G04*
G04 Layer_Color=32768*
%FSLAX25Y25*%
%MOIN*%
G70*
G01*
G75*
%ADD12C,0.00394*%
%ADD47C,0.00197*%
D12*
X74724Y291020D02*
Y335020D01*
Y291020D02*
X105724D01*
Y335020D01*
X74724D02*
X105724D01*
X122624Y316353D02*
X125408Y313569D01*
X122624D02*
X125408Y316353D01*
X55118Y327165D02*
X59055D01*
X57087Y325197D02*
Y329134D01*
X139469Y257874D02*
Y261811D01*
X137500Y259842D02*
X141437D01*
X141142Y72244D02*
X186417D01*
Y160433D01*
X141142D02*
X186417D01*
X141142Y72244D02*
Y160433D01*
Y164764D02*
X186417D01*
Y252953D01*
X141142D02*
X186417D01*
X141142Y164764D02*
Y252953D01*
X-5315Y289961D02*
X39961D01*
X-5315Y201772D02*
Y289961D01*
Y201772D02*
X39961D01*
Y289961D01*
X108366Y350689D02*
Y354626D01*
X106398Y352658D02*
X110335D01*
X112205Y330709D02*
X116142D01*
X114173Y328740D02*
Y332677D01*
X137500Y269685D02*
X141437D01*
X139469Y267717D02*
Y271654D01*
D47*
X121789Y307722D02*
X131254Y317188D01*
X116778Y312734D02*
X126243Y322199D01*
X131254Y317188D01*
X116778Y312734D02*
X121789Y307722D01*
X60630Y320472D02*
Y333858D01*
X53543Y320472D02*
Y333858D01*
X60630D01*
X53543Y320472D02*
X60630D01*
X132776Y256299D02*
X146161D01*
X132776Y263386D02*
X146161D01*
Y256299D02*
Y263386D01*
X132776Y256299D02*
Y263386D01*
X104626Y359350D02*
X112106D01*
X104626Y345965D02*
X112106D01*
Y359350D01*
X104626Y345965D02*
Y359350D01*
X107480Y326969D02*
Y334449D01*
X120866Y326969D02*
Y334449D01*
X107480D02*
X120866D01*
X107480Y326969D02*
X120866D01*
X132776Y265945D02*
Y273425D01*
X146161Y265945D02*
Y273425D01*
X132776D02*
X146161D01*
X132776Y265945D02*
X146161D01*
M02*
