G04*
G04 #@! TF.GenerationSoftware,Altium Limited,Altium Designer,20.0.12 (288)*
G04*
G04 Layer_Physical_Order=1*
G04 Layer_Color=255*
%FSLAX25Y25*%
%MOIN*%
G70*
G01*
G75*
%ADD15R,0.06102X0.02362*%
G04:AMPARAMS|DCode=16|XSize=51.18mil|YSize=41.34mil|CornerRadius=0mil|HoleSize=0mil|Usage=FLASHONLY|Rotation=135.000|XOffset=0mil|YOffset=0mil|HoleType=Round|Shape=Rectangle|*
%AMROTATEDRECTD16*
4,1,4,0.03271,-0.00348,0.00348,-0.03271,-0.03271,0.00348,-0.00348,0.03271,0.03271,-0.00348,0.0*
%
%ADD16ROTATEDRECTD16*%

%ADD17R,0.05118X0.04134*%
%ADD18R,0.04134X0.05118*%
%ADD19R,0.05512X0.04134*%
%ADD20R,0.04134X0.05512*%
%ADD21C,0.07874*%
%ADD35C,0.01575*%
%ADD36C,0.01181*%
%ADD37C,0.02362*%
%ADD38C,0.03150*%
%ADD39R,0.14173X0.18504*%
%ADD40C,0.05906*%
%ADD41R,0.05906X0.05906*%
%ADD42R,0.05906X0.05906*%
%ADD43C,0.15748*%
%ADD44C,0.02362*%
%ADD45C,0.03150*%
%ADD46C,0.05000*%
G36*
X153839Y387795D02*
Y367323D01*
X174016Y367323D01*
X174016Y26378D01*
X153839Y26378D01*
X153839Y6299D01*
X27953Y6299D01*
X27953Y26378D01*
X5906D01*
X5906Y367323D01*
X26378Y367323D01*
Y387795D01*
X153839Y387795D01*
D02*
G37*
%LPC*%
G36*
X127165Y361500D02*
Y359449D01*
X129217D01*
X129043Y359868D01*
X128410Y360693D01*
X127584Y361327D01*
X127165Y361500D01*
D02*
G37*
G36*
X124016Y361500D02*
X123597Y361327D01*
X122771Y360693D01*
X122138Y359868D01*
X121964Y359449D01*
X124016D01*
Y361500D01*
D02*
G37*
G36*
X112122Y359366D02*
X109941D01*
Y357874D01*
X112122D01*
Y359366D01*
D02*
G37*
G36*
X106791D02*
X104610D01*
Y357874D01*
X106791D01*
Y359366D01*
D02*
G37*
G36*
X129217Y356299D02*
X127165D01*
Y354248D01*
X127584Y354421D01*
X128410Y355055D01*
X129043Y355881D01*
X129217Y356299D01*
D02*
G37*
G36*
X124016D02*
X121964D01*
X122138Y355881D01*
X122771Y355055D01*
X123597Y354421D01*
X124016Y354248D01*
Y356299D01*
D02*
G37*
G36*
X112122Y354724D02*
X109941D01*
Y353232D01*
X112122D01*
Y354724D01*
D02*
G37*
G36*
X106791D02*
X104610D01*
Y353232D01*
X106791D01*
Y354724D01*
D02*
G37*
G36*
X145276Y366957D02*
X131102D01*
X130790Y366895D01*
X130526Y366719D01*
X130349Y366454D01*
X130287Y366142D01*
Y351036D01*
X111922D01*
Y351883D01*
X104810D01*
Y346149D01*
X106543D01*
Y344842D01*
X106174Y344689D01*
X105184Y343930D01*
X104425Y342940D01*
X103948Y341788D01*
X103792Y340605D01*
X103789Y340603D01*
X69685Y340603D01*
X48396D01*
X39110Y349888D01*
X39218Y350709D01*
X39089Y351688D01*
X38711Y352601D01*
X38110Y353385D01*
X37326Y353987D01*
X36413Y354365D01*
X35433Y354494D01*
X34453Y354365D01*
X33540Y353987D01*
X32757Y353385D01*
X32155Y352601D01*
X31777Y351688D01*
X31648Y350709D01*
X31777Y349729D01*
X32155Y348816D01*
X32757Y348032D01*
X33540Y347431D01*
X34453Y347053D01*
X35433Y346923D01*
X36254Y347032D01*
X46131Y337154D01*
X46786Y336717D01*
X47559Y336563D01*
X69685D01*
X104626Y336563D01*
X105399Y336717D01*
X105453Y336752D01*
X105913Y336486D01*
X105968Y335990D01*
X102018Y332040D01*
X100984D01*
X100789Y332001D01*
X97133D01*
Y328039D01*
X100789D01*
X100984Y328000D01*
X102854D01*
X103049Y328039D01*
X104835D01*
Y329144D01*
X107211Y331520D01*
X107665Y331266D01*
Y327153D01*
X113398D01*
Y334265D01*
X110583D01*
Y336261D01*
X110952Y336413D01*
X111524Y336852D01*
X111727Y336717D01*
X112500Y336563D01*
X144833D01*
X152313Y329082D01*
X152234Y328979D01*
X151856Y328066D01*
X151727Y327087D01*
X151856Y326107D01*
X152234Y325194D01*
X152835Y324410D01*
X153619Y323809D01*
X154532Y323430D01*
X155512Y323302D01*
X156491Y323430D01*
X157404Y323809D01*
X158188Y324410D01*
X158790Y325194D01*
X159168Y326107D01*
X159297Y327087D01*
X159168Y328066D01*
X158790Y328979D01*
X158188Y329763D01*
X157404Y330365D01*
X156491Y330743D01*
X156347Y330762D01*
X147098Y340011D01*
X146442Y340449D01*
X145669Y340603D01*
X113337D01*
X113334Y340605D01*
X113178Y341788D01*
X112701Y342940D01*
X111942Y343930D01*
X110952Y344689D01*
X110583Y344842D01*
Y346149D01*
X111922D01*
Y346996D01*
X130623D01*
X130790Y346884D01*
X131102Y346822D01*
X145276D01*
X145588Y346884D01*
X145852Y347061D01*
X146029Y347326D01*
X146091Y347638D01*
Y366142D01*
X146029Y366454D01*
X145852Y366719D01*
X145588Y366895D01*
X145276Y366957D01*
D02*
G37*
G36*
X29186Y354461D02*
X21680D01*
Y346956D01*
X29186D01*
Y354461D01*
D02*
G37*
G36*
X27008Y344335D02*
Y342283D01*
X29059D01*
X28886Y342702D01*
X28252Y343528D01*
X27426Y344161D01*
X27008Y344335D01*
D02*
G37*
G36*
X23858Y344335D02*
X23440Y344161D01*
X22614Y343528D01*
X21980Y342702D01*
X21807Y342283D01*
X23858D01*
Y344335D01*
D02*
G37*
G36*
Y339134D02*
X21807D01*
X21980Y338715D01*
X22614Y337890D01*
X23440Y337256D01*
X23858Y337083D01*
Y339134D01*
D02*
G37*
G36*
X29059D02*
X27008D01*
Y337083D01*
X27426Y337256D01*
X28252Y337890D01*
X28886Y338715D01*
X29059Y339134D01*
D02*
G37*
G36*
X35433Y344494D02*
X34453Y344365D01*
X33540Y343987D01*
X32757Y343385D01*
X32155Y342601D01*
X31777Y341688D01*
X31648Y340709D01*
X31777Y339729D01*
X32155Y338816D01*
X32757Y338032D01*
X33371Y337560D01*
X33202Y337060D01*
X30367D01*
X29824Y336952D01*
X29364Y336645D01*
X26888Y334168D01*
X26413Y334365D01*
X25433Y334494D01*
X24453Y334365D01*
X23540Y333987D01*
X22757Y333385D01*
X22155Y332601D01*
X21777Y331688D01*
X21648Y330709D01*
X21777Y329729D01*
X22155Y328816D01*
X22757Y328032D01*
X23540Y327431D01*
X24453Y327052D01*
X25433Y326923D01*
X26413Y327052D01*
X27326Y327431D01*
X28110Y328032D01*
X28711Y328816D01*
X29089Y329729D01*
X29218Y330709D01*
X29089Y331688D01*
X28893Y332163D01*
X30954Y334225D01*
X33029D01*
X33199Y333725D01*
X32757Y333385D01*
X32155Y332601D01*
X31777Y331688D01*
X31648Y330709D01*
X31777Y329729D01*
X32155Y328816D01*
X32757Y328032D01*
X33540Y327431D01*
X34453Y327052D01*
X35433Y326923D01*
X36413Y327052D01*
X37326Y327431D01*
X38110Y328032D01*
X38711Y328816D01*
X38825Y329090D01*
X42497D01*
X49208Y322379D01*
X49733Y322028D01*
X50352Y321905D01*
X53728D01*
Y320657D01*
X60446D01*
Y323007D01*
X65660D01*
X65752Y322835D01*
X69681D01*
X69773Y323007D01*
X79331D01*
X79487Y323039D01*
X83576D01*
Y327001D01*
X75873D01*
Y326244D01*
X60446D01*
Y326391D01*
X53728D01*
Y325142D01*
X51022D01*
X45778Y330387D01*
X45877Y330693D01*
X46006Y330866D01*
X53728D01*
Y327940D01*
X60446D01*
Y328602D01*
X75873D01*
Y328039D01*
X83576D01*
Y332001D01*
X75873D01*
Y331437D01*
X67881D01*
X67850Y331496D01*
X63646D01*
X63615Y331437D01*
X60446D01*
Y333674D01*
X55747D01*
X55610Y333701D01*
X46521D01*
X43577Y336645D01*
X43117Y336952D01*
X42574Y337060D01*
X37664D01*
X37495Y337560D01*
X38110Y338032D01*
X38711Y338816D01*
X39089Y339729D01*
X39218Y340709D01*
X39089Y341688D01*
X38711Y342601D01*
X38110Y343385D01*
X37326Y343987D01*
X36413Y344365D01*
X35433Y344494D01*
D02*
G37*
G36*
X120882Y334465D02*
X119390D01*
Y332283D01*
X120882D01*
Y334465D01*
D02*
G37*
G36*
X116240D02*
X114748D01*
Y332283D01*
X116240D01*
Y334465D01*
D02*
G37*
G36*
X120882Y329134D02*
X119390D01*
Y326953D01*
X120882D01*
Y329134D01*
D02*
G37*
G36*
X116240D02*
X114748D01*
Y326953D01*
X116240D01*
Y329134D01*
D02*
G37*
G36*
X149265Y330839D02*
X141759D01*
Y323334D01*
X149265D01*
Y330839D01*
D02*
G37*
G36*
X147087Y320713D02*
Y318661D01*
X149138D01*
X148965Y319080D01*
X148331Y319906D01*
X147505Y320539D01*
X147087Y320713D01*
D02*
G37*
G36*
X143937Y320713D02*
X143518Y320539D01*
X142693Y319906D01*
X142059Y319080D01*
X141886Y318661D01*
X143937D01*
Y320713D01*
D02*
G37*
G36*
X35433Y324494D02*
X34453Y324365D01*
X33540Y323987D01*
X32757Y323385D01*
X32155Y322601D01*
X31777Y321688D01*
X31648Y320709D01*
X31777Y319729D01*
X32155Y318816D01*
X32757Y318032D01*
X33540Y317431D01*
X34453Y317053D01*
X35433Y316923D01*
X36413Y317053D01*
X37326Y317431D01*
X38110Y318032D01*
X38711Y318816D01*
X39089Y319729D01*
X39218Y320709D01*
X39089Y321688D01*
X38711Y322601D01*
X38110Y323385D01*
X37326Y323987D01*
X36413Y324365D01*
X35433Y324494D01*
D02*
G37*
G36*
X25433D02*
X24453Y324365D01*
X23540Y323987D01*
X22757Y323385D01*
X22155Y322601D01*
X21777Y321688D01*
X21648Y320709D01*
X21777Y319729D01*
X22155Y318816D01*
X22757Y318032D01*
X23540Y317431D01*
X24453Y317053D01*
X25433Y316923D01*
X26413Y317053D01*
X27326Y317431D01*
X28110Y318032D01*
X28711Y318816D01*
X29089Y319729D01*
X29218Y320709D01*
X29089Y321688D01*
X28711Y322601D01*
X28110Y323385D01*
X27326Y323987D01*
X26413Y324365D01*
X25433Y324494D01*
D02*
G37*
G36*
X149138Y315512D02*
X147087D01*
Y313460D01*
X147505Y313634D01*
X148331Y314267D01*
X148965Y315093D01*
X149138Y315512D01*
D02*
G37*
G36*
X143937D02*
X141886D01*
X142059Y315093D01*
X142693Y314267D01*
X143518Y313634D01*
X143937Y313460D01*
Y315512D01*
D02*
G37*
G36*
X155512Y320872D02*
X154532Y320743D01*
X153619Y320365D01*
X152835Y319763D01*
X152234Y318979D01*
X151856Y318066D01*
X151727Y317087D01*
X151856Y316107D01*
X152234Y315194D01*
X152835Y314410D01*
X153619Y313809D01*
X154532Y313431D01*
X155512Y313301D01*
X156491Y313431D01*
X157404Y313809D01*
X158188Y314410D01*
X158790Y315194D01*
X159168Y316107D01*
X159297Y317087D01*
X159168Y318066D01*
X158790Y318979D01*
X158188Y319763D01*
X157404Y320365D01*
X156491Y320743D01*
X155512Y320872D01*
D02*
G37*
G36*
X99410Y312201D02*
X96933D01*
Y311595D01*
X99410D01*
Y312201D01*
D02*
G37*
G36*
X105035Y308445D02*
X102559D01*
Y307839D01*
X105035D01*
Y308445D01*
D02*
G37*
G36*
X99410D02*
X96933D01*
Y307839D01*
X99410D01*
Y308445D01*
D02*
G37*
G36*
X35433Y314494D02*
X34453Y314365D01*
X33540Y313987D01*
X32757Y313385D01*
X32155Y312601D01*
X31777Y311688D01*
X31648Y310709D01*
X31777Y309729D01*
X32155Y308816D01*
X32757Y308032D01*
X33540Y307431D01*
X34453Y307052D01*
X35433Y306924D01*
X36413Y307052D01*
X37326Y307431D01*
X38110Y308032D01*
X38711Y308816D01*
X39089Y309729D01*
X39218Y310709D01*
X39089Y311688D01*
X38711Y312601D01*
X38110Y313385D01*
X37326Y313987D01*
X36413Y314365D01*
X35433Y314494D01*
D02*
G37*
G36*
X25433D02*
X24453Y314365D01*
X23540Y313987D01*
X22757Y313385D01*
X22155Y312601D01*
X21777Y311688D01*
X21648Y310709D01*
X21777Y309729D01*
X22155Y308816D01*
X22757Y308032D01*
X23540Y307431D01*
X24453Y307052D01*
X25433Y306924D01*
X26413Y307052D01*
X27326Y307431D01*
X28110Y308032D01*
X28711Y308816D01*
X29089Y309729D01*
X29218Y310709D01*
X29089Y311688D01*
X28711Y312601D01*
X28110Y313385D01*
X27326Y313987D01*
X26413Y314365D01*
X25433Y314494D01*
D02*
G37*
G36*
X104835Y327001D02*
X97133D01*
Y323039D01*
X104835D01*
Y323602D01*
X119275D01*
X123591Y319286D01*
X122188Y317884D01*
X126939Y313133D01*
X128341Y314536D01*
X131871Y311005D01*
X136793Y306084D01*
X137253Y305777D01*
X137795Y305669D01*
X142037D01*
X142234Y305194D01*
X142835Y304410D01*
X143450Y303938D01*
X143280Y303438D01*
X131638D01*
X124441Y310635D01*
X125843Y312038D01*
X121093Y316788D01*
X119690Y315386D01*
X114054Y321022D01*
X113594Y321330D01*
X113051Y321438D01*
X104835D01*
Y322001D01*
X97133D01*
Y318039D01*
X104835D01*
Y318602D01*
X112464D01*
X117685Y313381D01*
X117038Y312734D01*
X121789Y307983D01*
X122436Y308630D01*
X130068Y300997D01*
X130528Y300690D01*
X131071Y300582D01*
X131174Y300603D01*
X143108D01*
X143278Y300103D01*
X142835Y299763D01*
X142234Y298979D01*
X141856Y298066D01*
X141727Y297087D01*
X141856Y296107D01*
X142234Y295194D01*
X142835Y294410D01*
X143619Y293809D01*
X144532Y293430D01*
X145512Y293302D01*
X146492Y293430D01*
X147404Y293809D01*
X148188Y294410D01*
X148790Y295194D01*
X149168Y296107D01*
X149297Y297087D01*
X149168Y298066D01*
X148790Y298979D01*
X148188Y299763D01*
X147746Y300103D01*
X147915Y300603D01*
X150322D01*
X150425Y300582D01*
X150968Y300690D01*
X151428Y300997D01*
X154057Y303627D01*
X154532Y303431D01*
X155512Y303302D01*
X156491Y303431D01*
X157404Y303809D01*
X158188Y304410D01*
X158790Y305194D01*
X159168Y306107D01*
X159297Y307087D01*
X159168Y308066D01*
X158790Y308979D01*
X158188Y309763D01*
X157404Y310365D01*
X156491Y310743D01*
X155512Y310872D01*
X154532Y310743D01*
X153619Y310365D01*
X152835Y309763D01*
X152234Y308979D01*
X151856Y308066D01*
X151727Y307087D01*
X151856Y306107D01*
X152052Y305632D01*
X149858Y303438D01*
X147743D01*
X147573Y303938D01*
X148188Y304410D01*
X148790Y305194D01*
X149168Y306107D01*
X149297Y307087D01*
X149168Y308066D01*
X148790Y308979D01*
X148188Y309763D01*
X147404Y310365D01*
X146492Y310743D01*
X145512Y310872D01*
X144532Y310743D01*
X143619Y310365D01*
X142835Y309763D01*
X142234Y308979D01*
X142037Y308504D01*
X138383D01*
X133877Y313010D01*
X130346Y316541D01*
X130993Y317188D01*
X126243Y321938D01*
X125596Y321291D01*
X120865Y326022D01*
X120405Y326330D01*
X119862Y326437D01*
X104835D01*
Y327001D01*
D02*
G37*
G36*
Y307001D02*
X97133D01*
Y303039D01*
X104402D01*
X104803Y303039D01*
X104804Y303038D01*
X104836D01*
Y303289D01*
X104835Y303289D01*
X104835Y303514D01*
X104835Y303514D01*
X104835Y303525D01*
Y307001D01*
D02*
G37*
G36*
Y302001D02*
X97133D01*
Y298039D01*
X104835D01*
Y302001D01*
D02*
G37*
G36*
X83776Y297201D02*
X81299D01*
Y296595D01*
X83776D01*
Y297201D01*
D02*
G37*
G36*
X155512Y300872D02*
X154532Y300743D01*
X153619Y300365D01*
X152835Y299763D01*
X152234Y298979D01*
X151856Y298066D01*
X151727Y297087D01*
X151856Y296107D01*
X152234Y295194D01*
X152835Y294410D01*
X153619Y293809D01*
X154532Y293430D01*
X155512Y293302D01*
X156491Y293430D01*
X157404Y293809D01*
X158188Y294410D01*
X158790Y295194D01*
X159168Y296107D01*
X159297Y297087D01*
X159168Y298066D01*
X158790Y298979D01*
X158188Y299763D01*
X157404Y300365D01*
X156491Y300743D01*
X155512Y300872D01*
D02*
G37*
G36*
X104835Y297001D02*
X97133D01*
Y293039D01*
X104835D01*
Y297001D01*
D02*
G37*
G36*
X83776Y293445D02*
X81299D01*
Y292839D01*
X83776D01*
Y293445D01*
D02*
G37*
G36*
X155512Y290872D02*
X154532Y290743D01*
X153619Y290365D01*
X152835Y289763D01*
X152234Y288979D01*
X151856Y288066D01*
X151727Y287087D01*
X151856Y286107D01*
X152234Y285194D01*
X152835Y284410D01*
X153619Y283809D01*
X154532Y283431D01*
X155512Y283301D01*
X156491Y283431D01*
X157404Y283809D01*
X158188Y284410D01*
X158790Y285194D01*
X159168Y286107D01*
X159297Y287087D01*
X159168Y288066D01*
X158790Y288979D01*
X158188Y289763D01*
X157404Y290365D01*
X156491Y290743D01*
X155512Y290872D01*
D02*
G37*
G36*
X145512D02*
X144532Y290743D01*
X143619Y290365D01*
X142835Y289763D01*
X142234Y288979D01*
X141856Y288066D01*
X141727Y287087D01*
X141856Y286107D01*
X142234Y285194D01*
X142835Y284410D01*
X143619Y283809D01*
X144532Y283431D01*
X145512Y283301D01*
X146492Y283431D01*
X147404Y283809D01*
X148188Y284410D01*
X148790Y285194D01*
X149168Y286107D01*
X149297Y287087D01*
X149168Y288066D01*
X148790Y288979D01*
X148188Y289763D01*
X147404Y290365D01*
X146492Y290743D01*
X145512Y290872D01*
D02*
G37*
G36*
X128347Y285487D02*
X127110Y285324D01*
X125958Y284846D01*
X124968Y284087D01*
X124209Y283098D01*
X123731Y281945D01*
X123569Y280709D01*
X123731Y279472D01*
X124209Y278320D01*
X124968Y277330D01*
X125958Y276571D01*
X126327Y276418D01*
Y274351D01*
X124126Y272150D01*
X123627Y272182D01*
X123444Y272421D01*
X122660Y273022D01*
X121747Y273400D01*
X120768Y273529D01*
X119788Y273400D01*
X118875Y273022D01*
X118091Y272421D01*
X117490Y271637D01*
X117112Y270724D01*
X116983Y269744D01*
X117112Y268764D01*
X117490Y267851D01*
X118091Y267068D01*
X118875Y266466D01*
X119788Y266088D01*
X120768Y265959D01*
X121747Y266088D01*
X122660Y266466D01*
X123444Y267068D01*
X123925Y267695D01*
X124547D01*
X125320Y267848D01*
X125976Y268286D01*
X128297Y270608D01*
X130619Y268286D01*
X131274Y267848D01*
X132047Y267695D01*
X132960D01*
Y266129D01*
X138694D01*
Y273241D01*
X132960D01*
Y272366D01*
X132460Y272159D01*
X130366Y274252D01*
Y276418D01*
X130735Y276571D01*
X131725Y277330D01*
X132484Y278320D01*
X132962Y279472D01*
X133124Y280709D01*
X132962Y281945D01*
X132484Y283098D01*
X131725Y284087D01*
X130735Y284846D01*
X129583Y285324D01*
X128347Y285487D01*
D02*
G37*
G36*
X62343Y273370D02*
Y271319D01*
X64394D01*
X64220Y271738D01*
X63587Y272563D01*
X62761Y273197D01*
X62343Y273370D01*
D02*
G37*
G36*
X146177Y273441D02*
X144685D01*
Y271260D01*
X146177D01*
Y273441D01*
D02*
G37*
G36*
X141535D02*
X140043D01*
Y271260D01*
X141535D01*
Y273441D01*
D02*
G37*
G36*
X64394Y268169D02*
X62343D01*
Y266118D01*
X62761Y266291D01*
X63587Y266925D01*
X64220Y267751D01*
X64394Y268169D01*
D02*
G37*
G36*
X62965Y293123D02*
X55460D01*
Y287856D01*
X55210Y287482D01*
X55087Y286863D01*
Y277695D01*
X54493Y277100D01*
X54142Y276575D01*
X54018Y275956D01*
Y264875D01*
X54142Y264255D01*
X54493Y263730D01*
X57225Y260998D01*
X57112Y260724D01*
X56983Y259744D01*
X57112Y258764D01*
X57490Y257852D01*
X58091Y257068D01*
X58875Y256466D01*
X59788Y256088D01*
X60768Y255959D01*
X61747Y256088D01*
X62660Y256466D01*
X63444Y257068D01*
X64046Y257852D01*
X64424Y258764D01*
X64553Y259744D01*
X64424Y260724D01*
X64046Y261637D01*
X63444Y262421D01*
X62660Y263022D01*
X61747Y263400D01*
X60768Y263529D01*
X59788Y263400D01*
X59514Y263287D01*
X57256Y265545D01*
Y267007D01*
X57756Y267177D01*
X57949Y266925D01*
X58774Y266291D01*
X59193Y266118D01*
Y269744D01*
Y273370D01*
X58774Y273197D01*
X57949Y272563D01*
X57756Y272312D01*
X57256Y272481D01*
Y275286D01*
X57850Y275880D01*
X58201Y276405D01*
X58324Y277025D01*
Y285617D01*
X62965D01*
Y293123D01*
D02*
G37*
G36*
X146177Y268110D02*
X144685D01*
Y265929D01*
X146177D01*
Y268110D01*
D02*
G37*
G36*
X141535D02*
X140043D01*
Y265929D01*
X141535D01*
Y268110D01*
D02*
G37*
G36*
X49213Y293155D02*
X48233Y293026D01*
X47320Y292648D01*
X46536Y292047D01*
X45935Y291263D01*
X45557Y290350D01*
X45428Y289370D01*
X45557Y288390D01*
X45935Y287477D01*
X46536Y286694D01*
X47320Y286092D01*
X48233Y285714D01*
X49213Y285585D01*
X49563Y285278D01*
Y281131D01*
X49550Y281068D01*
Y263738D01*
X49088Y263547D01*
X34068Y278567D01*
Y284068D01*
X26562D01*
Y276562D01*
X32063D01*
X47573Y261052D01*
Y255873D01*
X47111Y255682D01*
X33775Y269018D01*
X33971Y269493D01*
X34100Y270472D01*
X33971Y271452D01*
X33593Y272365D01*
X32991Y273149D01*
X32208Y273750D01*
X31295Y274129D01*
X30315Y274258D01*
X29335Y274129D01*
X28422Y273750D01*
X27639Y273149D01*
X27037Y272365D01*
X26659Y271452D01*
X26530Y270472D01*
X26659Y269493D01*
X27037Y268580D01*
X27639Y267796D01*
X28422Y267194D01*
X29335Y266816D01*
X30315Y266687D01*
X31295Y266816D01*
X31769Y267013D01*
X45592Y253191D01*
Y248295D01*
X45130Y248104D01*
X33858Y259376D01*
X33971Y259650D01*
X34100Y260630D01*
X33971Y261610D01*
X33593Y262523D01*
X32991Y263306D01*
X32208Y263908D01*
X31295Y264286D01*
X30315Y264415D01*
X29335Y264286D01*
X28422Y263908D01*
X27639Y263306D01*
X27037Y262523D01*
X26659Y261610D01*
X26530Y260630D01*
X26659Y259650D01*
X27037Y258737D01*
X27639Y257953D01*
X28422Y257352D01*
X29335Y256974D01*
X30315Y256845D01*
X31295Y256974D01*
X31569Y257087D01*
X43213Y245443D01*
Y240831D01*
X42751Y240640D01*
X33858Y249534D01*
X33971Y249808D01*
X34100Y250787D01*
X33971Y251767D01*
X33593Y252680D01*
X32991Y253464D01*
X32208Y254065D01*
X31295Y254444D01*
X30315Y254573D01*
X29335Y254444D01*
X28422Y254065D01*
X27639Y253464D01*
X27037Y252680D01*
X26659Y251767D01*
X26530Y250787D01*
X26659Y249808D01*
X27037Y248895D01*
X27639Y248111D01*
X28422Y247509D01*
X29335Y247131D01*
X30315Y247002D01*
X31295Y247131D01*
X31569Y247245D01*
X40838Y237975D01*
Y233364D01*
X40376Y233172D01*
X33858Y239691D01*
X33971Y239965D01*
X34100Y240945D01*
X33971Y241925D01*
X33593Y242837D01*
X32991Y243621D01*
X32208Y244223D01*
X31295Y244601D01*
X30315Y244730D01*
X29335Y244601D01*
X28422Y244223D01*
X27639Y243621D01*
X27037Y242837D01*
X26659Y241925D01*
X26530Y240945D01*
X26659Y239965D01*
X27037Y239052D01*
X27639Y238268D01*
X28422Y237667D01*
X29335Y237289D01*
X30315Y237160D01*
X31295Y237289D01*
X31569Y237402D01*
X38463Y230507D01*
Y225896D01*
X38001Y225705D01*
X33858Y229849D01*
X33971Y230123D01*
X34100Y231102D01*
X33971Y232082D01*
X33593Y232995D01*
X32991Y233779D01*
X32208Y234380D01*
X31295Y234758D01*
X30315Y234888D01*
X29335Y234758D01*
X28422Y234380D01*
X27639Y233779D01*
X27037Y232995D01*
X26659Y232082D01*
X26530Y231102D01*
X26659Y230123D01*
X27037Y229210D01*
X27639Y228426D01*
X28422Y227824D01*
X29335Y227446D01*
X30315Y227317D01*
X31295Y227446D01*
X31569Y227560D01*
X35783Y223345D01*
Y213110D01*
X35906Y212491D01*
X36257Y211966D01*
X57225Y190998D01*
X57112Y190724D01*
X56983Y189744D01*
X57112Y188764D01*
X57490Y187852D01*
X58091Y187068D01*
X58706Y186596D01*
X58536Y186096D01*
X58035D01*
X33890Y210241D01*
X33971Y210438D01*
X34100Y211417D01*
X33971Y212397D01*
X33593Y213310D01*
X32991Y214094D01*
X32208Y214695D01*
X31295Y215073D01*
X30315Y215202D01*
X29335Y215073D01*
X28422Y214695D01*
X27639Y214094D01*
X27037Y213310D01*
X26659Y212397D01*
X26530Y211417D01*
X26659Y210438D01*
X27037Y209525D01*
X27639Y208741D01*
X28422Y208139D01*
X29335Y207761D01*
X30315Y207632D01*
X31295Y207761D01*
X32048Y208073D01*
X46881Y193240D01*
X46674Y192740D01*
X45999Y192606D01*
X45281Y192126D01*
X46850D01*
Y190551D01*
X48425D01*
Y188982D01*
X48905Y189700D01*
X49039Y190375D01*
X49539Y190582D01*
X54970Y185151D01*
X54778Y184689D01*
X42099D01*
Y189579D01*
X34594D01*
Y182311D01*
X33868D01*
X31806Y184372D01*
X32003Y184847D01*
X32132Y185827D01*
X32003Y186806D01*
X31624Y187719D01*
X31023Y188503D01*
X30239Y189105D01*
X29326Y189483D01*
X28346Y189612D01*
X27367Y189483D01*
X26454Y189105D01*
X25670Y188503D01*
X25068Y187719D01*
X24690Y186806D01*
X24561Y185827D01*
X24690Y184847D01*
X25068Y183934D01*
X25670Y183150D01*
X26454Y182549D01*
X27367Y182171D01*
X28346Y182042D01*
X29326Y182171D01*
X29801Y182367D01*
X32278Y179890D01*
X32738Y179583D01*
X33280Y179475D01*
X36115D01*
X36285Y178975D01*
X35670Y178503D01*
X35068Y177719D01*
X34690Y176806D01*
X34561Y175827D01*
X34690Y174847D01*
X35068Y173934D01*
X35670Y173150D01*
X36454Y172549D01*
X37367Y172171D01*
X38346Y172042D01*
X39326Y172171D01*
X39863Y172393D01*
X48404Y163852D01*
Y160489D01*
X48528Y159870D01*
X48878Y159344D01*
X57225Y150998D01*
X57112Y150724D01*
X56983Y149744D01*
X57055Y149197D01*
X56581Y148964D01*
X31618Y173926D01*
X31624Y173934D01*
X32003Y174847D01*
X32132Y175827D01*
X32003Y176806D01*
X31624Y177719D01*
X31023Y178503D01*
X30239Y179105D01*
X29326Y179483D01*
X28346Y179612D01*
X27367Y179483D01*
X26454Y179105D01*
X25670Y178503D01*
X25068Y177719D01*
X24690Y176806D01*
X24561Y175827D01*
X24690Y174847D01*
X25068Y173934D01*
X25670Y173150D01*
X26454Y172549D01*
X27367Y172171D01*
X28346Y172042D01*
X28858Y172109D01*
X54973Y145994D01*
Y143920D01*
X55097Y143300D01*
X55448Y142775D01*
X57225Y140998D01*
X57112Y140724D01*
X56983Y139744D01*
X57112Y138764D01*
X57490Y137852D01*
X58091Y137068D01*
X58875Y136466D01*
X59788Y136088D01*
X60768Y135959D01*
X61747Y136088D01*
X62660Y136466D01*
X63444Y137068D01*
X64046Y137852D01*
X64424Y138764D01*
X64553Y139744D01*
X64424Y140724D01*
X64046Y141637D01*
X63444Y142421D01*
X62660Y143022D01*
X61747Y143400D01*
X60768Y143529D01*
X59788Y143400D01*
X59514Y143287D01*
X58210Y144590D01*
Y146346D01*
X58710Y146592D01*
X58875Y146466D01*
X59788Y146088D01*
X60768Y145959D01*
X61747Y146088D01*
X62660Y146466D01*
X63444Y147068D01*
X64046Y147852D01*
X64424Y148764D01*
X64553Y149744D01*
X64424Y150724D01*
X64046Y151637D01*
X63444Y152421D01*
X62660Y153022D01*
X61747Y153400D01*
X60768Y153529D01*
X59788Y153400D01*
X59514Y153287D01*
X51641Y161159D01*
Y164522D01*
X51518Y165142D01*
X51167Y165667D01*
X41998Y174836D01*
X42003Y174847D01*
X42132Y175827D01*
X42003Y176806D01*
X41625Y177719D01*
X41023Y178503D01*
X40408Y178975D01*
X40578Y179475D01*
X44898D01*
X54501Y169871D01*
X54961Y169564D01*
X55504Y169456D01*
X57020D01*
X57112Y168764D01*
X57490Y167851D01*
X58091Y167068D01*
X58875Y166466D01*
X59788Y166088D01*
X60768Y165959D01*
X61747Y166088D01*
X62660Y166466D01*
X63444Y167068D01*
X64046Y167851D01*
X64424Y168764D01*
X64553Y169744D01*
X64424Y170724D01*
X64046Y171637D01*
X63444Y172421D01*
X62660Y173022D01*
X61747Y173400D01*
X60768Y173529D01*
X59788Y173400D01*
X58875Y173022D01*
X58091Y172421D01*
X57992Y172292D01*
X56091D01*
X47393Y180990D01*
X47584Y181452D01*
X55279D01*
X56983Y179748D01*
X56983Y179744D01*
X57112Y178764D01*
X57490Y177851D01*
X58091Y177068D01*
X58875Y176466D01*
X59788Y176088D01*
X60768Y175959D01*
X61747Y176088D01*
X62660Y176466D01*
X63444Y177068D01*
X64046Y177851D01*
X64424Y178764D01*
X64553Y179744D01*
X64424Y180724D01*
X64369Y180857D01*
X64793Y181140D01*
X76299Y169634D01*
X76091Y169134D01*
X72575D01*
X70856Y170853D01*
X70925Y171201D01*
X70741Y172127D01*
X70216Y172913D01*
X69431Y173438D01*
X68504Y173622D01*
X67577Y173438D01*
X66792Y172913D01*
X66267Y172127D01*
X66083Y171201D01*
X66267Y170274D01*
X66792Y169489D01*
X67577Y168964D01*
X68504Y168779D01*
X68851Y168849D01*
X70986Y166714D01*
X71446Y166407D01*
X71988Y166299D01*
X75791D01*
X93348Y148742D01*
X93808Y148434D01*
X94350Y148326D01*
X117293D01*
X117490Y147852D01*
X118091Y147068D01*
X118875Y146466D01*
X119788Y146088D01*
X120768Y145959D01*
X121747Y146088D01*
X122660Y146466D01*
X123444Y147068D01*
X124046Y147852D01*
X124424Y148764D01*
X124553Y149744D01*
X124424Y150724D01*
X124046Y151637D01*
X123444Y152421D01*
X122660Y153022D01*
X121747Y153400D01*
X120768Y153529D01*
X119788Y153400D01*
X118875Y153022D01*
X118091Y152421D01*
X117490Y151637D01*
X117293Y151162D01*
X94938D01*
X88778Y157322D01*
X88985Y157822D01*
X102998D01*
X103047Y157322D01*
X102785Y157269D01*
X102299Y157173D01*
X101581Y156693D01*
X104719D01*
X104001Y157173D01*
X103514Y157269D01*
X103252Y157322D01*
X103301Y157822D01*
X117513D01*
X118091Y157068D01*
X118875Y156466D01*
X119788Y156088D01*
X120768Y155959D01*
X121747Y156088D01*
X122660Y156466D01*
X123444Y157068D01*
X124046Y157852D01*
X124424Y158764D01*
X124553Y159744D01*
X124424Y160724D01*
X124046Y161637D01*
X123444Y162421D01*
X122660Y163022D01*
X121747Y163400D01*
X120768Y163529D01*
X119788Y163400D01*
X118875Y163022D01*
X118091Y162421D01*
X117490Y161637D01*
X117112Y160724D01*
X117103Y160657D01*
X89286D01*
X64262Y185680D01*
X63803Y185988D01*
X63260Y186096D01*
X62999D01*
X62829Y186596D01*
X63444Y187068D01*
X64046Y187852D01*
X64424Y188764D01*
X64553Y189744D01*
X64424Y190724D01*
X64046Y191637D01*
X63444Y192421D01*
X62660Y193022D01*
X61747Y193400D01*
X60768Y193529D01*
X59788Y193400D01*
X59514Y193287D01*
X39020Y213781D01*
Y218549D01*
X39482Y218741D01*
X57225Y200998D01*
X57112Y200724D01*
X56983Y199744D01*
X57112Y198764D01*
X57490Y197852D01*
X58091Y197068D01*
X58875Y196466D01*
X59788Y196088D01*
X60768Y195959D01*
X61747Y196088D01*
X62660Y196466D01*
X63444Y197068D01*
X64046Y197852D01*
X64424Y198764D01*
X64553Y199744D01*
X64424Y200724D01*
X64046Y201637D01*
X63444Y202421D01*
X62660Y203022D01*
X61747Y203400D01*
X60768Y203529D01*
X59788Y203400D01*
X59514Y203287D01*
X41700Y221100D01*
Y225869D01*
X42162Y226061D01*
X57225Y210998D01*
X57112Y210724D01*
X56983Y209744D01*
X57112Y208764D01*
X57490Y207852D01*
X58091Y207068D01*
X58875Y206466D01*
X59788Y206088D01*
X60768Y205959D01*
X61747Y206088D01*
X62660Y206466D01*
X63444Y207068D01*
X64046Y207852D01*
X64424Y208764D01*
X64553Y209744D01*
X64424Y210724D01*
X64046Y211637D01*
X63444Y212421D01*
X62660Y213022D01*
X61747Y213400D01*
X60768Y213529D01*
X59788Y213400D01*
X59514Y213287D01*
X44075Y228726D01*
Y233494D01*
X44537Y233686D01*
X57225Y220998D01*
X57112Y220724D01*
X56983Y219744D01*
X57112Y218764D01*
X57490Y217851D01*
X58091Y217068D01*
X58875Y216466D01*
X59788Y216088D01*
X60768Y215959D01*
X61747Y216088D01*
X62660Y216466D01*
X63444Y217068D01*
X64046Y217851D01*
X64424Y218764D01*
X64553Y219744D01*
X64424Y220724D01*
X64046Y221637D01*
X63444Y222421D01*
X62660Y223022D01*
X61747Y223400D01*
X60768Y223529D01*
X59788Y223400D01*
X59514Y223287D01*
X46450Y236351D01*
Y241404D01*
X46912Y241595D01*
X57308Y231199D01*
X57112Y230724D01*
X56983Y229744D01*
X57112Y228764D01*
X57490Y227852D01*
X58091Y227068D01*
X58875Y226466D01*
X59788Y226088D01*
X60768Y225959D01*
X61747Y226088D01*
X62660Y226466D01*
X63444Y227068D01*
X64046Y227852D01*
X64424Y228764D01*
X64553Y229744D01*
X64424Y230724D01*
X64046Y231637D01*
X63444Y232421D01*
X62660Y233022D01*
X61747Y233400D01*
X60768Y233529D01*
X59788Y233400D01*
X59313Y233204D01*
X48427Y244090D01*
Y249426D01*
X48889Y249618D01*
X57308Y241198D01*
X57112Y240724D01*
X56983Y239744D01*
X57112Y238764D01*
X57490Y237852D01*
X58091Y237068D01*
X58875Y236466D01*
X59788Y236088D01*
X60768Y235959D01*
X61747Y236088D01*
X62660Y236466D01*
X63444Y237068D01*
X64046Y237852D01*
X64424Y238764D01*
X64553Y239744D01*
X64424Y240724D01*
X64046Y241637D01*
X63444Y242421D01*
X62660Y243022D01*
X61747Y243400D01*
X60768Y243529D01*
X59788Y243400D01*
X59313Y243204D01*
X50408Y252109D01*
Y257161D01*
X50870Y257353D01*
X57225Y250998D01*
X57112Y250724D01*
X56983Y249744D01*
X57112Y248764D01*
X57490Y247851D01*
X58091Y247068D01*
X58875Y246466D01*
X59788Y246088D01*
X60768Y245959D01*
X61747Y246088D01*
X62660Y246466D01*
X63444Y247068D01*
X64046Y247851D01*
X64424Y248764D01*
X64553Y249744D01*
X64424Y250724D01*
X64046Y251637D01*
X63444Y252421D01*
X62660Y253022D01*
X61747Y253400D01*
X60768Y253529D01*
X59788Y253400D01*
X59514Y253287D01*
X52787Y260014D01*
Y281017D01*
X52800Y281081D01*
Y287402D01*
X52689Y287957D01*
X52869Y288390D01*
X52998Y289370D01*
X52869Y290350D01*
X52491Y291263D01*
X51889Y292047D01*
X51105Y292648D01*
X50192Y293026D01*
X49213Y293155D01*
D02*
G37*
G36*
X146177Y263402D02*
X144685D01*
Y261417D01*
X146177D01*
Y263402D01*
D02*
G37*
G36*
X141535D02*
X140043D01*
Y261417D01*
X141535D01*
Y263402D01*
D02*
G37*
G36*
X120768Y263529D02*
X119788Y263400D01*
X118875Y263022D01*
X118091Y262421D01*
X117490Y261637D01*
X117112Y260724D01*
X116983Y259744D01*
X117112Y258764D01*
X117490Y257852D01*
X118091Y257068D01*
X118875Y256466D01*
X119788Y256088D01*
X120768Y255959D01*
X121747Y256088D01*
X122660Y256466D01*
X123444Y257068D01*
X124046Y257852D01*
X124159Y258126D01*
X132960D01*
Y256484D01*
X138694D01*
Y263202D01*
X132960D01*
Y261363D01*
X124159D01*
X124046Y261637D01*
X123444Y262421D01*
X122660Y263022D01*
X121747Y263400D01*
X120768Y263529D01*
D02*
G37*
G36*
X146177Y258268D02*
X144685D01*
Y256283D01*
X146177D01*
Y258268D01*
D02*
G37*
G36*
X141535D02*
X140043D01*
Y256283D01*
X141535D01*
Y258268D01*
D02*
G37*
G36*
X120768Y253529D02*
X119788Y253400D01*
X118875Y253022D01*
X118091Y252421D01*
X117490Y251637D01*
X117112Y250724D01*
X116983Y249744D01*
X117112Y248764D01*
X117490Y247851D01*
X118091Y247068D01*
X118875Y246466D01*
X119788Y246088D01*
X120768Y245959D01*
X121747Y246088D01*
X122660Y246466D01*
X123444Y247068D01*
X124046Y247851D01*
X124424Y248764D01*
X124553Y249744D01*
X124424Y250724D01*
X124046Y251637D01*
X123444Y252421D01*
X122660Y253022D01*
X121747Y253400D01*
X120768Y253529D01*
D02*
G37*
G36*
X150787Y247092D02*
X149808Y246963D01*
X148895Y246585D01*
X148111Y245984D01*
X147509Y245200D01*
X147396Y244926D01*
X136221D01*
X135601Y244802D01*
X135076Y244451D01*
X131987Y241363D01*
X124159D01*
X124046Y241637D01*
X123444Y242421D01*
X122660Y243022D01*
X121747Y243400D01*
X120768Y243529D01*
X119788Y243400D01*
X118875Y243022D01*
X118091Y242421D01*
X117490Y241637D01*
X117112Y240724D01*
X116983Y239744D01*
X117112Y238764D01*
X117490Y237852D01*
X118091Y237068D01*
X118875Y236466D01*
X119788Y236088D01*
X120768Y235959D01*
X121747Y236088D01*
X122660Y236466D01*
X123444Y237068D01*
X124046Y237852D01*
X124159Y238126D01*
X132658D01*
X133277Y238249D01*
X133802Y238600D01*
X136891Y241689D01*
X147396D01*
X147509Y241414D01*
X148111Y240631D01*
X148895Y240029D01*
X149808Y239651D01*
X150787Y239522D01*
X151767Y239651D01*
X152680Y240029D01*
X153464Y240631D01*
X154065Y241414D01*
X154444Y242327D01*
X154572Y243307D01*
X154444Y244287D01*
X154065Y245200D01*
X153464Y245984D01*
X152680Y246585D01*
X151767Y246963D01*
X150787Y247092D01*
D02*
G37*
G36*
Y237250D02*
X149808Y237121D01*
X148895Y236743D01*
X148111Y236141D01*
X147601Y235477D01*
X136614D01*
X135995Y235354D01*
X135470Y235003D01*
X131830Y231363D01*
X124159D01*
X124046Y231637D01*
X123444Y232421D01*
X122660Y233022D01*
X121747Y233400D01*
X120768Y233529D01*
X119788Y233400D01*
X118875Y233022D01*
X118091Y232421D01*
X117490Y231637D01*
X117112Y230724D01*
X116983Y229744D01*
X117112Y228764D01*
X117490Y227852D01*
X118091Y227068D01*
X118875Y226466D01*
X119788Y226088D01*
X120768Y225959D01*
X121747Y226088D01*
X122660Y226466D01*
X123444Y227068D01*
X124046Y227852D01*
X124159Y228126D01*
X132500D01*
X133119Y228249D01*
X133644Y228600D01*
X137285Y232240D01*
X147233D01*
X147509Y231572D01*
X148111Y230788D01*
X148895Y230187D01*
X149808Y229808D01*
X150787Y229679D01*
X151767Y229808D01*
X152680Y230187D01*
X153464Y230788D01*
X154065Y231572D01*
X154444Y232485D01*
X154572Y233465D01*
X154444Y234444D01*
X154065Y235357D01*
X153464Y236141D01*
X152680Y236743D01*
X151767Y237121D01*
X150787Y237250D01*
D02*
G37*
G36*
Y227407D02*
X149808Y227278D01*
X148895Y226900D01*
X148111Y226298D01*
X147509Y225515D01*
X147396Y225240D01*
X136614D01*
X135995Y225117D01*
X135470Y224766D01*
X132066Y221363D01*
X124159D01*
X124046Y221637D01*
X123444Y222421D01*
X122660Y223022D01*
X121747Y223400D01*
X120768Y223529D01*
X119788Y223400D01*
X118875Y223022D01*
X118091Y222421D01*
X117490Y221637D01*
X117112Y220724D01*
X116983Y219744D01*
X117112Y218764D01*
X117490Y217851D01*
X118091Y217068D01*
X118875Y216466D01*
X119788Y216088D01*
X120768Y215959D01*
X121747Y216088D01*
X122660Y216466D01*
X123444Y217068D01*
X124046Y217851D01*
X124159Y218126D01*
X132736D01*
X133356Y218249D01*
X133881Y218600D01*
X137285Y222004D01*
X147396D01*
X147509Y221729D01*
X148111Y220946D01*
X148895Y220344D01*
X149808Y219966D01*
X150787Y219837D01*
X151767Y219966D01*
X152680Y220344D01*
X153464Y220946D01*
X154065Y221729D01*
X154444Y222642D01*
X154572Y223622D01*
X154444Y224602D01*
X154065Y225515D01*
X153464Y226298D01*
X152680Y226900D01*
X151767Y227278D01*
X150787Y227407D01*
D02*
G37*
G36*
X30315Y225045D02*
X29335Y224916D01*
X28422Y224538D01*
X27639Y223936D01*
X27037Y223152D01*
X26659Y222239D01*
X26530Y221260D01*
X26659Y220280D01*
X27037Y219367D01*
X27639Y218583D01*
X28422Y217982D01*
X29335Y217604D01*
X30315Y217475D01*
X31295Y217604D01*
X32208Y217982D01*
X32991Y218583D01*
X33593Y219367D01*
X33971Y220280D01*
X34100Y221260D01*
X33971Y222239D01*
X33593Y223152D01*
X32991Y223936D01*
X32208Y224538D01*
X31295Y224916D01*
X30315Y225045D01*
D02*
G37*
G36*
X150787Y217565D02*
X149808Y217436D01*
X148895Y217057D01*
X148111Y216456D01*
X147509Y215672D01*
X147396Y215398D01*
X138189D01*
X137570Y215275D01*
X137045Y214924D01*
X133483Y211363D01*
X124159D01*
X124046Y211637D01*
X123444Y212421D01*
X122660Y213022D01*
X121747Y213400D01*
X120768Y213529D01*
X119788Y213400D01*
X118875Y213022D01*
X118091Y212421D01*
X117490Y211637D01*
X117112Y210724D01*
X116983Y209744D01*
X117112Y208764D01*
X117490Y207852D01*
X118091Y207068D01*
X118875Y206466D01*
X119788Y206088D01*
X120768Y205959D01*
X121747Y206088D01*
X122660Y206466D01*
X123444Y207068D01*
X124046Y207852D01*
X124159Y208126D01*
X134153D01*
X134773Y208249D01*
X135298Y208600D01*
X138859Y212161D01*
X147396D01*
X147509Y211887D01*
X148111Y211103D01*
X148895Y210502D01*
X149808Y210123D01*
X150787Y209994D01*
X151767Y210123D01*
X152680Y210502D01*
X153464Y211103D01*
X154065Y211887D01*
X154444Y212800D01*
X154572Y213779D01*
X154444Y214759D01*
X154065Y215672D01*
X153464Y216456D01*
X152680Y217057D01*
X151767Y217436D01*
X150787Y217565D01*
D02*
G37*
G36*
Y207722D02*
X149808Y207593D01*
X148895Y207215D01*
X148111Y206613D01*
X147509Y205830D01*
X147131Y204917D01*
X147002Y203937D01*
X147131Y202957D01*
X147509Y202045D01*
X148111Y201260D01*
X148895Y200659D01*
X149808Y200281D01*
X150787Y200152D01*
X151767Y200281D01*
X152680Y200659D01*
X153464Y201260D01*
X154065Y202045D01*
X154444Y202957D01*
X154572Y203937D01*
X154444Y204917D01*
X154065Y205830D01*
X153464Y206613D01*
X152680Y207215D01*
X151767Y207593D01*
X150787Y207722D01*
D02*
G37*
G36*
Y197880D02*
X149808Y197751D01*
X148895Y197372D01*
X148111Y196771D01*
X147509Y195987D01*
X147131Y195074D01*
X147002Y194095D01*
X147131Y193115D01*
X147509Y192202D01*
X148111Y191418D01*
X148895Y190816D01*
X149808Y190438D01*
X150787Y190309D01*
X151767Y190438D01*
X152680Y190816D01*
X153464Y191418D01*
X154065Y192202D01*
X154444Y193115D01*
X154572Y194095D01*
X154444Y195074D01*
X154065Y195987D01*
X153464Y196771D01*
X152680Y197372D01*
X151767Y197751D01*
X150787Y197880D01*
D02*
G37*
G36*
X18347Y189612D02*
X17367Y189483D01*
X16454Y189105D01*
X15670Y188503D01*
X15068Y187719D01*
X14690Y186806D01*
X14561Y185827D01*
X14690Y184847D01*
X15068Y183934D01*
X15670Y183150D01*
X16454Y182549D01*
X17367Y182171D01*
X18347Y182042D01*
X19326Y182171D01*
X20239Y182549D01*
X21023Y183150D01*
X21624Y183934D01*
X22003Y184847D01*
X22132Y185827D01*
X22003Y186806D01*
X21624Y187719D01*
X21023Y188503D01*
X20239Y189105D01*
X19326Y189483D01*
X18347Y189612D01*
D02*
G37*
G36*
X120768Y203529D02*
X119788Y203400D01*
X118875Y203022D01*
X118091Y202421D01*
X117490Y201637D01*
X117112Y200724D01*
X116983Y199744D01*
X117112Y198764D01*
X117490Y197852D01*
X118091Y197068D01*
X118875Y196466D01*
X119788Y196088D01*
X120768Y195959D01*
X121747Y196088D01*
X122660Y196466D01*
X123444Y197068D01*
X124046Y197852D01*
X124159Y198126D01*
X134625D01*
X147245Y185506D01*
X147131Y185232D01*
X147002Y184252D01*
X147131Y183272D01*
X147509Y182359D01*
X148111Y181576D01*
X148895Y180974D01*
X149808Y180596D01*
X150787Y180467D01*
X151767Y180596D01*
X152680Y180974D01*
X153464Y181576D01*
X154065Y182359D01*
X154444Y183272D01*
X154572Y184252D01*
X154444Y185232D01*
X154065Y186144D01*
X153464Y186928D01*
X152680Y187530D01*
X151767Y187908D01*
X150787Y188037D01*
X149808Y187908D01*
X149534Y187795D01*
X136440Y200888D01*
X135915Y201239D01*
X135295Y201363D01*
X124159D01*
X124046Y201637D01*
X123444Y202421D01*
X122660Y203022D01*
X121747Y203400D01*
X120768Y203529D01*
D02*
G37*
G36*
X19921Y179453D02*
Y177402D01*
X21973D01*
X21799Y177820D01*
X21166Y178646D01*
X20340Y179279D01*
X19921Y179453D01*
D02*
G37*
G36*
X16772D02*
X16353Y179279D01*
X15527Y178646D01*
X14894Y177820D01*
X14720Y177402D01*
X16772D01*
Y179453D01*
D02*
G37*
G36*
X120768Y183529D02*
X119788Y183400D01*
X118875Y183022D01*
X118091Y182421D01*
X117490Y181637D01*
X117112Y180724D01*
X116983Y179744D01*
X117112Y178764D01*
X117490Y177851D01*
X118091Y177068D01*
X118875Y176466D01*
X119788Y176088D01*
X120768Y175959D01*
X121747Y176088D01*
X122660Y176466D01*
X123444Y177068D01*
X124046Y177851D01*
X124424Y178764D01*
X124553Y179744D01*
X124424Y180724D01*
X124046Y181637D01*
X123444Y182421D01*
X122660Y183022D01*
X121747Y183400D01*
X120768Y183529D01*
D02*
G37*
G36*
X104835Y317001D02*
X97133D01*
Y313039D01*
X101222D01*
X101378Y313007D01*
X104447D01*
X104751Y312633D01*
X104566Y312201D01*
X102559D01*
Y311595D01*
X105035D01*
Y311752D01*
X105535Y311959D01*
X110586Y306908D01*
Y176578D01*
X110493Y176515D01*
X109968Y175730D01*
X109783Y174803D01*
X109968Y173877D01*
X110493Y173091D01*
X111278Y172566D01*
X112205Y172382D01*
X113131Y172566D01*
X113917Y173091D01*
X114442Y173877D01*
X114626Y174803D01*
X114442Y175730D01*
X113917Y176515D01*
X113823Y176578D01*
Y307579D01*
X113700Y308198D01*
X113349Y308723D01*
X106302Y315770D01*
X105777Y316121D01*
X105157Y316245D01*
X104835D01*
Y317001D01*
D02*
G37*
G36*
X21973Y174252D02*
X19921D01*
Y172201D01*
X20340Y172374D01*
X21166Y173008D01*
X21799Y173833D01*
X21973Y174252D01*
D02*
G37*
G36*
X16772D02*
X14720D01*
X14894Y173833D01*
X15527Y173008D01*
X16353Y172374D01*
X16772Y172201D01*
Y174252D01*
D02*
G37*
G36*
X120768Y193529D02*
X119788Y193400D01*
X118875Y193022D01*
X118091Y192421D01*
X117490Y191637D01*
X117112Y190724D01*
X116983Y189744D01*
X117112Y188764D01*
X117490Y187852D01*
X118091Y187068D01*
X118875Y186466D01*
X119788Y186088D01*
X120768Y185959D01*
X121747Y186088D01*
X122660Y186466D01*
X123444Y187068D01*
X124046Y187852D01*
X124159Y188126D01*
X134782D01*
X147035Y175873D01*
Y170657D01*
X154540D01*
Y178162D01*
X149324D01*
X136597Y190889D01*
X136072Y191239D01*
X135453Y191363D01*
X124159D01*
X124046Y191637D01*
X123444Y192421D01*
X122660Y193022D01*
X121747Y193400D01*
X120768Y193529D01*
D02*
G37*
G36*
Y173529D02*
X119788Y173400D01*
X118875Y173022D01*
X118091Y172421D01*
X117490Y171637D01*
X117112Y170724D01*
X116983Y169744D01*
X117112Y168764D01*
X117490Y167851D01*
X118091Y167068D01*
X118875Y166466D01*
X119788Y166088D01*
X120768Y165959D01*
X121747Y166088D01*
X122660Y166466D01*
X123444Y167068D01*
X124046Y167851D01*
X124424Y168764D01*
X124553Y169744D01*
X124424Y170724D01*
X124046Y171637D01*
X123444Y172421D01*
X122660Y173022D01*
X121747Y173400D01*
X120768Y173529D01*
D02*
G37*
G36*
X83576Y322001D02*
X75873D01*
Y318039D01*
X81287D01*
X81862Y317463D01*
X81671Y317001D01*
X75873D01*
Y315328D01*
X73741Y313196D01*
X73391Y312671D01*
X73267Y312051D01*
Y275508D01*
X73391Y274888D01*
X73741Y274363D01*
X97994Y250111D01*
X97972Y250000D01*
X98157Y249073D01*
X98682Y248288D01*
X99467Y247763D01*
X100394Y247579D01*
X101320Y247763D01*
X102106Y248288D01*
X102631Y249073D01*
X102815Y250000D01*
X102631Y250927D01*
X102106Y251712D01*
X101320Y252237D01*
X100394Y252421D01*
X100283Y252399D01*
X76504Y276178D01*
Y292839D01*
X78150D01*
Y295020D01*
Y297201D01*
X76504D01*
Y298039D01*
X83576D01*
Y302001D01*
X76504D01*
Y303039D01*
X83576D01*
Y307001D01*
X76504D01*
Y308039D01*
X83576D01*
Y312001D01*
X77778D01*
X77586Y312463D01*
X78162Y313039D01*
X83576D01*
Y315096D01*
X84038Y315288D01*
X87850Y311475D01*
Y276969D01*
X87973Y276349D01*
X88324Y275824D01*
X105074Y259074D01*
Y169885D01*
X104981Y169822D01*
X104456Y169037D01*
X104272Y168110D01*
X104456Y167184D01*
X104981Y166398D01*
X105766Y165873D01*
X106693Y165689D01*
X107620Y165873D01*
X108405Y166398D01*
X108930Y167184D01*
X109114Y168110D01*
X108930Y169037D01*
X108405Y169822D01*
X108311Y169885D01*
Y259744D01*
X108188Y260364D01*
X107837Y260889D01*
X91087Y277639D01*
Y312146D01*
X90964Y312765D01*
X90613Y313290D01*
X83576Y320327D01*
Y322001D01*
D02*
G37*
G36*
X60768Y163529D02*
X59788Y163400D01*
X58875Y163022D01*
X58091Y162421D01*
X57490Y161637D01*
X57112Y160724D01*
X56983Y159744D01*
X57112Y158764D01*
X57490Y157852D01*
X58091Y157068D01*
X58875Y156466D01*
X59788Y156088D01*
X60768Y155959D01*
X61747Y156088D01*
X62660Y156466D01*
X63444Y157068D01*
X64046Y157852D01*
X64424Y158764D01*
X64553Y159744D01*
X64424Y160724D01*
X64046Y161637D01*
X63444Y162421D01*
X62660Y163022D01*
X61747Y163400D01*
X60768Y163529D01*
D02*
G37*
G36*
X33465Y151658D02*
Y149606D01*
X35516D01*
X35342Y150025D01*
X34709Y150851D01*
X33883Y151484D01*
X33465Y151658D01*
D02*
G37*
G36*
X30315D02*
X29896Y151484D01*
X29071Y150851D01*
X28437Y150025D01*
X28264Y149606D01*
X30315D01*
Y151658D01*
D02*
G37*
G36*
X150787Y154572D02*
X149808Y154444D01*
X148895Y154065D01*
X148111Y153464D01*
X147509Y152680D01*
X147131Y151767D01*
X147002Y150787D01*
X147131Y149808D01*
X147354Y149271D01*
X130326Y132243D01*
X129976Y131718D01*
X129852Y131099D01*
Y121118D01*
X122021Y113287D01*
X121747Y113400D01*
X120768Y113529D01*
X119788Y113400D01*
X118875Y113022D01*
X118091Y112421D01*
X117490Y111637D01*
X117112Y110724D01*
X116983Y109744D01*
X117112Y108764D01*
X117490Y107852D01*
X118091Y107068D01*
X118875Y106466D01*
X119788Y106088D01*
X120768Y105959D01*
X121747Y106088D01*
X122660Y106466D01*
X123444Y107068D01*
X124046Y107852D01*
X124424Y108764D01*
X124553Y109744D01*
X124424Y110724D01*
X124310Y110998D01*
X131765Y118453D01*
X132227Y118261D01*
Y113493D01*
X122021Y103287D01*
X121747Y103400D01*
X120768Y103529D01*
X119788Y103400D01*
X118875Y103022D01*
X118091Y102421D01*
X117490Y101637D01*
X117112Y100724D01*
X116983Y99744D01*
X117112Y98764D01*
X117490Y97852D01*
X118091Y97068D01*
X118875Y96466D01*
X119788Y96088D01*
X120768Y95959D01*
X121747Y96088D01*
X122660Y96466D01*
X123444Y97068D01*
X124046Y97852D01*
X124424Y98764D01*
X124553Y99744D01*
X124424Y100724D01*
X124310Y100998D01*
X134140Y110828D01*
X134602Y110636D01*
Y105867D01*
X122021Y93287D01*
X121747Y93400D01*
X120768Y93529D01*
X119788Y93400D01*
X118875Y93022D01*
X118091Y92421D01*
X117490Y91637D01*
X117112Y90724D01*
X116983Y89744D01*
X117112Y88764D01*
X117490Y87852D01*
X118091Y87068D01*
X118875Y86466D01*
X119788Y86088D01*
X120768Y85959D01*
X121747Y86088D01*
X122660Y86466D01*
X123444Y87068D01*
X124046Y87852D01*
X124424Y88764D01*
X124553Y89744D01*
X124424Y90724D01*
X124310Y90998D01*
X137365Y104052D01*
X137716Y104578D01*
X137839Y105197D01*
Y116075D01*
X149385Y127621D01*
X149808Y127446D01*
X150787Y127317D01*
X151767Y127446D01*
X152680Y127824D01*
X153464Y128426D01*
X154065Y129210D01*
X154444Y130123D01*
X154572Y131102D01*
X154444Y132082D01*
X154065Y132995D01*
X153464Y133779D01*
X152680Y134380D01*
X151767Y134758D01*
X150787Y134888D01*
X149808Y134758D01*
X148895Y134380D01*
X148111Y133779D01*
X147509Y132995D01*
X147131Y132082D01*
X147002Y131102D01*
X147131Y130123D01*
X147183Y129997D01*
X135926Y118740D01*
X135464Y118932D01*
Y123333D01*
X149534Y137402D01*
X149808Y137289D01*
X150787Y137160D01*
X151767Y137289D01*
X152680Y137667D01*
X153464Y138268D01*
X154065Y139052D01*
X154444Y139965D01*
X154572Y140945D01*
X154444Y141925D01*
X154065Y142837D01*
X153464Y143621D01*
X152680Y144223D01*
X151767Y144601D01*
X150787Y144730D01*
X149808Y144601D01*
X148895Y144223D01*
X148111Y143621D01*
X147509Y142837D01*
X147131Y141925D01*
X147002Y140945D01*
X147131Y139965D01*
X147245Y139691D01*
X133551Y125998D01*
X133089Y126189D01*
Y130429D01*
X149797Y147136D01*
X149808Y147131D01*
X150787Y147002D01*
X151767Y147131D01*
X152680Y147509D01*
X153464Y148111D01*
X154065Y148895D01*
X154444Y149808D01*
X154572Y150787D01*
X154444Y151767D01*
X154065Y152680D01*
X153464Y153464D01*
X152680Y154065D01*
X151767Y154444D01*
X150787Y154572D01*
D02*
G37*
G36*
X35516Y146457D02*
X33465D01*
Y144405D01*
X33883Y144579D01*
X34709Y145212D01*
X35342Y146038D01*
X35516Y146457D01*
D02*
G37*
G36*
X30315D02*
X28264D01*
X28437Y146038D01*
X29071Y145212D01*
X29896Y144579D01*
X30315Y144405D01*
Y146457D01*
D02*
G37*
G36*
X120768Y143529D02*
X119788Y143400D01*
X118875Y143022D01*
X118091Y142421D01*
X117490Y141637D01*
X117112Y140724D01*
X116983Y139744D01*
X117112Y138764D01*
X117490Y137852D01*
X118091Y137068D01*
X118875Y136466D01*
X119788Y136088D01*
X120768Y135959D01*
X121747Y136088D01*
X122660Y136466D01*
X123444Y137068D01*
X124046Y137852D01*
X124424Y138764D01*
X124553Y139744D01*
X124424Y140724D01*
X124046Y141637D01*
X123444Y142421D01*
X122660Y143022D01*
X121747Y143400D01*
X120768Y143529D01*
D02*
G37*
G36*
X122343Y133370D02*
Y131319D01*
X124394D01*
X124220Y131737D01*
X123587Y132563D01*
X122761Y133197D01*
X122343Y133370D01*
D02*
G37*
G36*
X119193D02*
X118774Y133197D01*
X117949Y132563D01*
X117315Y131737D01*
X117142Y131319D01*
X119193D01*
Y133370D01*
D02*
G37*
G36*
X124394Y128169D02*
X122343D01*
Y126118D01*
X122761Y126291D01*
X123587Y126925D01*
X124220Y127751D01*
X124394Y128169D01*
D02*
G37*
G36*
X119193D02*
X117142D01*
X117315Y127751D01*
X117949Y126925D01*
X118774Y126291D01*
X119193Y126118D01*
Y128169D01*
D02*
G37*
G36*
X31890Y132132D02*
X30910Y132003D01*
X29997Y131624D01*
X29213Y131023D01*
X28612Y130239D01*
X28234Y129326D01*
X28105Y128347D01*
X28234Y127367D01*
X28612Y126454D01*
X29213Y125670D01*
X29997Y125068D01*
X30910Y124690D01*
X31890Y124561D01*
X32869Y124690D01*
X33782Y125068D01*
X34566Y125670D01*
X35168Y126454D01*
X35546Y127367D01*
X35675Y128347D01*
X35546Y129326D01*
X35168Y130239D01*
X34566Y131023D01*
X33782Y131624D01*
X32869Y132003D01*
X31890Y132132D01*
D02*
G37*
G36*
X152362Y124886D02*
Y122835D01*
X154413D01*
X154240Y123253D01*
X153606Y124079D01*
X152781Y124713D01*
X152362Y124886D01*
D02*
G37*
G36*
X149213Y124886D02*
X148794Y124713D01*
X147968Y124079D01*
X147335Y123253D01*
X147161Y122835D01*
X149213D01*
Y124886D01*
D02*
G37*
G36*
Y119685D02*
X147161D01*
X147335Y119266D01*
X147968Y118441D01*
X148794Y117807D01*
X149213Y117634D01*
Y119685D01*
D02*
G37*
G36*
X154413D02*
X152362D01*
Y117634D01*
X152781Y117807D01*
X153606Y118441D01*
X154240Y119266D01*
X154413Y119685D01*
D02*
G37*
G36*
X120768Y123529D02*
X119788Y123400D01*
X118875Y123022D01*
X118091Y122421D01*
X117490Y121637D01*
X117112Y120724D01*
X116983Y119744D01*
X117112Y118764D01*
X117490Y117851D01*
X118091Y117068D01*
X118875Y116466D01*
X119788Y116088D01*
X120768Y115959D01*
X121747Y116088D01*
X122660Y116466D01*
X123444Y117068D01*
X124046Y117851D01*
X124424Y118764D01*
X124553Y119744D01*
X124424Y120724D01*
X124046Y121637D01*
X123444Y122421D01*
X122660Y123022D01*
X121747Y123400D01*
X120768Y123529D01*
D02*
G37*
G36*
X31890Y141974D02*
X30910Y141845D01*
X29997Y141467D01*
X29213Y140866D01*
X28612Y140082D01*
X28234Y139169D01*
X28105Y138189D01*
X28234Y137209D01*
X28612Y136296D01*
X29213Y135512D01*
X29997Y134911D01*
X30910Y134533D01*
X31890Y134404D01*
X32869Y134533D01*
X33782Y134911D01*
X34566Y135512D01*
X35168Y136296D01*
X35281Y136571D01*
X41652D01*
X57225Y120998D01*
X57112Y120724D01*
X56983Y119744D01*
X57112Y118764D01*
X57490Y117851D01*
X58091Y117068D01*
X58875Y116466D01*
X59788Y116088D01*
X60768Y115959D01*
X61747Y116088D01*
X62660Y116466D01*
X63444Y117068D01*
X64046Y117851D01*
X64424Y118764D01*
X64553Y119744D01*
X64424Y120724D01*
X64046Y121637D01*
X63444Y122421D01*
X62660Y123022D01*
X61747Y123400D01*
X60768Y123529D01*
X59788Y123400D01*
X59514Y123287D01*
X43467Y139333D01*
X42942Y139684D01*
X42323Y139807D01*
X35281D01*
X35168Y140082D01*
X34566Y140866D01*
X33782Y141467D01*
X32869Y141845D01*
X31890Y141974D01*
D02*
G37*
G36*
X150787Y115202D02*
X149808Y115074D01*
X148895Y114695D01*
X148111Y114094D01*
X147509Y113310D01*
X147131Y112397D01*
X147002Y111417D01*
X147131Y110438D01*
X147245Y110164D01*
X127570Y90489D01*
X127220Y89964D01*
X127096Y89345D01*
Y68362D01*
X122021Y63287D01*
X121747Y63400D01*
X120768Y63529D01*
X119788Y63400D01*
X118875Y63022D01*
X118091Y62421D01*
X117490Y61637D01*
X117112Y60724D01*
X116983Y59744D01*
X117112Y58764D01*
X117490Y57851D01*
X118091Y57068D01*
X118875Y56466D01*
X119788Y56088D01*
X120768Y55959D01*
X121747Y56088D01*
X122660Y56466D01*
X123444Y57068D01*
X124046Y57851D01*
X124424Y58764D01*
X124553Y59744D01*
X124424Y60724D01*
X124310Y60998D01*
X129013Y65701D01*
X129475Y65509D01*
Y60457D01*
X122222Y53204D01*
X121747Y53400D01*
X120768Y53529D01*
X119788Y53400D01*
X118875Y53022D01*
X118091Y52421D01*
X117490Y51637D01*
X117112Y50724D01*
X116983Y49744D01*
X117112Y48764D01*
X117490Y47851D01*
X118091Y47068D01*
X118875Y46466D01*
X119788Y46088D01*
X120768Y45959D01*
X121747Y46088D01*
X122660Y46466D01*
X123444Y47068D01*
X124046Y47851D01*
X124424Y48764D01*
X124553Y49744D01*
X124424Y50724D01*
X124227Y51199D01*
X131348Y58319D01*
X131810Y58128D01*
Y52792D01*
X122222Y43204D01*
X121747Y43400D01*
X120768Y43529D01*
X119788Y43400D01*
X118875Y43022D01*
X118091Y42421D01*
X117490Y41637D01*
X117112Y40724D01*
X116983Y39744D01*
X117112Y38764D01*
X117490Y37852D01*
X118091Y37068D01*
X118875Y36466D01*
X119788Y36088D01*
X120768Y35959D01*
X121747Y36088D01*
X122660Y36466D01*
X123444Y37068D01*
X124046Y37852D01*
X124424Y38764D01*
X124553Y39744D01*
X124424Y40724D01*
X124227Y41199D01*
X134230Y51202D01*
X134538Y51662D01*
X134646Y52204D01*
Y73585D01*
X146373Y85312D01*
X146835Y85121D01*
Y83465D01*
X149213D01*
Y85843D01*
X147556D01*
X147365Y86304D01*
X149333Y88273D01*
X149808Y88076D01*
X150787Y87947D01*
X151767Y88076D01*
X152680Y88454D01*
X153464Y89056D01*
X154065Y89840D01*
X154444Y90753D01*
X154572Y91732D01*
X154444Y92712D01*
X154065Y93625D01*
X153464Y94409D01*
X152680Y95010D01*
X151767Y95388D01*
X150787Y95517D01*
X149808Y95388D01*
X148895Y95010D01*
X148111Y94409D01*
X147509Y93625D01*
X147131Y92712D01*
X147002Y91732D01*
X147131Y90753D01*
X147328Y90278D01*
X132773Y75723D01*
X132311Y75914D01*
Y79818D01*
X150341Y97848D01*
X150787Y97790D01*
X151767Y97919D01*
X152680Y98297D01*
X153464Y98898D01*
X154065Y99682D01*
X154444Y100595D01*
X154572Y101575D01*
X154444Y102555D01*
X154065Y103467D01*
X153464Y104251D01*
X152680Y104853D01*
X151767Y105231D01*
X150787Y105360D01*
X149808Y105231D01*
X148895Y104853D01*
X148111Y104251D01*
X147509Y103467D01*
X147131Y102555D01*
X147002Y101575D01*
X147131Y100595D01*
X147509Y99682D01*
X147794Y99312D01*
X130795Y82313D01*
X130333Y82505D01*
Y88674D01*
X149534Y107875D01*
X149808Y107761D01*
X150787Y107632D01*
X151767Y107761D01*
X152680Y108139D01*
X153464Y108741D01*
X154065Y109525D01*
X154444Y110438D01*
X154572Y111417D01*
X154444Y112397D01*
X154065Y113310D01*
X153464Y114094D01*
X152680Y114695D01*
X151767Y115074D01*
X150787Y115202D01*
D02*
G37*
G36*
X60768Y113529D02*
X59788Y113400D01*
X58875Y113022D01*
X58091Y112421D01*
X57490Y111637D01*
X57112Y110724D01*
X56983Y109744D01*
X57112Y108764D01*
X57225Y108490D01*
X44448Y95713D01*
X35675D01*
X35561Y95987D01*
X34960Y96771D01*
X34176Y97373D01*
X33263Y97751D01*
X32283Y97880D01*
X31304Y97751D01*
X30391Y97373D01*
X29607Y96771D01*
X29005Y95987D01*
X28627Y95074D01*
X28498Y94095D01*
X28627Y93115D01*
X29005Y92202D01*
X29607Y91418D01*
X30391Y90816D01*
X31304Y90438D01*
X32283Y90309D01*
X33263Y90438D01*
X34176Y90816D01*
X34960Y91418D01*
X35561Y92202D01*
X35675Y92476D01*
X45118D01*
X45737Y92599D01*
X46263Y92950D01*
X59514Y106202D01*
X59788Y106088D01*
X60768Y105959D01*
X61747Y106088D01*
X62660Y106466D01*
X63444Y107068D01*
X64046Y107852D01*
X64424Y108764D01*
X64553Y109744D01*
X64424Y110724D01*
X64046Y111637D01*
X63444Y112421D01*
X62660Y113022D01*
X61747Y113400D01*
X60768Y113529D01*
D02*
G37*
G36*
X33858Y107563D02*
Y105512D01*
X35910D01*
X35736Y105930D01*
X35103Y106756D01*
X34277Y107390D01*
X33858Y107563D01*
D02*
G37*
G36*
X30709D02*
X30290Y107390D01*
X29464Y106756D01*
X28831Y105930D01*
X28657Y105512D01*
X30709D01*
Y107563D01*
D02*
G37*
G36*
X35910Y102362D02*
X33858D01*
Y100311D01*
X34277Y100484D01*
X35103Y101118D01*
X35736Y101944D01*
X35910Y102362D01*
D02*
G37*
G36*
X30709D02*
X28657D01*
X28831Y101944D01*
X29464Y101118D01*
X30290Y100484D01*
X30709Y100311D01*
Y102362D01*
D02*
G37*
G36*
X60768Y103529D02*
X59788Y103400D01*
X58875Y103022D01*
X58091Y102421D01*
X57490Y101637D01*
X57112Y100724D01*
X56983Y99744D01*
X57112Y98764D01*
X57225Y98490D01*
X44525Y85790D01*
X44174Y85265D01*
X44051Y84646D01*
Y81404D01*
X43701Y81260D01*
Y79528D01*
Y77795D01*
X44051Y77651D01*
Y64844D01*
X33143Y53936D01*
X32869Y54050D01*
X31890Y54179D01*
X30910Y54050D01*
X29997Y53672D01*
X29213Y53070D01*
X28612Y52286D01*
X28234Y51373D01*
X28105Y50394D01*
X28234Y49414D01*
X28612Y48501D01*
X29213Y47717D01*
X29997Y47116D01*
X30910Y46738D01*
X31890Y46609D01*
X32869Y46738D01*
X33782Y47116D01*
X34566Y47717D01*
X35168Y48501D01*
X35546Y49414D01*
X35675Y50394D01*
X35546Y51373D01*
X35432Y51647D01*
X46814Y63029D01*
X47165Y63554D01*
X47288Y64173D01*
Y83975D01*
X50094Y86782D01*
X50549Y86529D01*
X50701Y85763D01*
X51181Y85045D01*
Y86614D01*
X52756D01*
Y88189D01*
X54325D01*
X53607Y88669D01*
X52841Y88821D01*
X52588Y89276D01*
X59514Y96201D01*
X59788Y96088D01*
X60768Y95959D01*
X61747Y96088D01*
X62660Y96466D01*
X63444Y97068D01*
X64046Y97852D01*
X64424Y98764D01*
X64553Y99744D01*
X64424Y100724D01*
X64046Y101637D01*
X63444Y102421D01*
X62660Y103022D01*
X61747Y103400D01*
X60768Y103529D01*
D02*
G37*
G36*
Y133529D02*
X59788Y133400D01*
X58875Y133022D01*
X58091Y132421D01*
X57490Y131637D01*
X57112Y130724D01*
X56983Y129744D01*
X57112Y128764D01*
X57490Y127851D01*
X58091Y127068D01*
X58875Y126466D01*
X59788Y126088D01*
X60768Y125959D01*
X61747Y126088D01*
X62021Y126201D01*
X68067Y120156D01*
Y85387D01*
X67605Y85196D01*
X64310Y88490D01*
X64424Y88764D01*
X64553Y89744D01*
X64424Y90724D01*
X64046Y91637D01*
X63444Y92421D01*
X62660Y93022D01*
X61747Y93400D01*
X60768Y93529D01*
X59788Y93400D01*
X58875Y93022D01*
X58091Y92421D01*
X57490Y91637D01*
X57112Y90724D01*
X56983Y89744D01*
X57112Y88764D01*
X57490Y87852D01*
X58091Y87068D01*
X58875Y86466D01*
X59788Y86088D01*
X60768Y85959D01*
X61747Y86088D01*
X62021Y86202D01*
X65311Y82912D01*
Y78197D01*
X64811Y77990D01*
X64310Y78490D01*
X64424Y78764D01*
X64553Y79744D01*
X64424Y80724D01*
X64046Y81637D01*
X63444Y82421D01*
X62660Y83022D01*
X61747Y83400D01*
X60768Y83529D01*
X59788Y83400D01*
X58875Y83022D01*
X58091Y82421D01*
X57490Y81637D01*
X57112Y80724D01*
X56983Y79744D01*
X57112Y78764D01*
X57490Y77851D01*
X58091Y77068D01*
X58875Y76466D01*
X59788Y76088D01*
X60768Y75959D01*
X61747Y76088D01*
X62021Y76201D01*
X68079Y70144D01*
Y65375D01*
X67617Y65184D01*
X64310Y68490D01*
X64424Y68764D01*
X64553Y69744D01*
X64424Y70724D01*
X64046Y71637D01*
X63444Y72421D01*
X62660Y73022D01*
X61747Y73400D01*
X60768Y73529D01*
X59788Y73400D01*
X58875Y73022D01*
X58091Y72421D01*
X57490Y71637D01*
X57112Y70724D01*
X56983Y69744D01*
X57112Y68764D01*
X57490Y67852D01*
X58091Y67068D01*
X58875Y66466D01*
X59788Y66088D01*
X60768Y65959D01*
X61747Y66088D01*
X62021Y66202D01*
X65704Y62519D01*
Y39714D01*
X64954Y38964D01*
X64481Y39197D01*
X64553Y39744D01*
X64424Y40724D01*
X64046Y41637D01*
X63444Y42421D01*
X62660Y43022D01*
X61747Y43400D01*
X60768Y43529D01*
X59788Y43400D01*
X58875Y43022D01*
X58091Y42421D01*
X57490Y41637D01*
X57112Y40724D01*
X56983Y39744D01*
X57112Y38764D01*
X57490Y37852D01*
X58091Y37068D01*
X58875Y36466D01*
X59788Y36088D01*
X60768Y35959D01*
X61314Y36031D01*
X61548Y35557D01*
X54761Y28770D01*
X54410Y28245D01*
X54287Y27626D01*
Y17171D01*
X54013Y17058D01*
X53229Y16456D01*
X52627Y15672D01*
X52249Y14759D01*
X52120Y13780D01*
X52249Y12800D01*
X52627Y11887D01*
X53229Y11103D01*
X54013Y10502D01*
X54926Y10123D01*
X55905Y9994D01*
X56885Y10123D01*
X57798Y10502D01*
X58582Y11103D01*
X59184Y11887D01*
X59562Y12800D01*
X59691Y13780D01*
X59562Y14759D01*
X59184Y15672D01*
X58582Y16456D01*
X57798Y17058D01*
X57524Y17171D01*
Y26956D01*
X67617Y37049D01*
X68079Y36857D01*
Y18852D01*
X66670Y17443D01*
X65748Y17565D01*
X64768Y17436D01*
X63855Y17058D01*
X63072Y16456D01*
X62470Y15672D01*
X62092Y14759D01*
X61963Y13780D01*
X62092Y12800D01*
X62470Y11887D01*
X63072Y11103D01*
X63855Y10502D01*
X64768Y10123D01*
X65748Y9994D01*
X66728Y10123D01*
X67641Y10502D01*
X68424Y11103D01*
X69026Y11887D01*
X69404Y12800D01*
X69533Y13780D01*
X69404Y14759D01*
X69158Y15353D01*
X70842Y17037D01*
X71193Y17562D01*
X71316Y18182D01*
Y50567D01*
X71778Y50758D01*
X73972Y48564D01*
Y17171D01*
X73698Y17058D01*
X72914Y16456D01*
X72312Y15672D01*
X71934Y14759D01*
X71805Y13780D01*
X71934Y12800D01*
X72312Y11887D01*
X72914Y11103D01*
X73698Y10502D01*
X74611Y10123D01*
X75590Y9994D01*
X76570Y10123D01*
X77483Y10502D01*
X78267Y11103D01*
X78869Y11887D01*
X79247Y12800D01*
X79376Y13780D01*
X79247Y14759D01*
X78869Y15672D01*
X78267Y16456D01*
X77483Y17058D01*
X77209Y17171D01*
Y49234D01*
X77086Y49854D01*
X76735Y50379D01*
X76482Y50632D01*
X76612Y51209D01*
X77160Y51575D01*
X75590D01*
Y53150D01*
X74016D01*
Y55216D01*
X73927Y55263D01*
Y71502D01*
X74427Y71709D01*
X128848Y17288D01*
X128820Y16850D01*
X128218Y16066D01*
X127840Y15153D01*
X127711Y14173D01*
X127840Y13194D01*
X128218Y12281D01*
X128820Y11497D01*
X129604Y10895D01*
X130516Y10517D01*
X131496Y10388D01*
X132476Y10517D01*
X133389Y10895D01*
X134173Y11497D01*
X134774Y12281D01*
X135152Y13194D01*
X135281Y14173D01*
X135152Y15153D01*
X134774Y16066D01*
X134173Y16850D01*
X133389Y17451D01*
X132929Y17642D01*
X132641Y18074D01*
X123155Y27559D01*
X148238Y52642D01*
X149213Y52514D01*
X150192Y52643D01*
X151105Y53021D01*
X151889Y53623D01*
X152491Y54407D01*
X152869Y55319D01*
X152998Y56299D01*
X152869Y57279D01*
X152491Y58192D01*
X151889Y58976D01*
X151105Y59577D01*
X150192Y59955D01*
X149213Y60084D01*
X148233Y59955D01*
X147320Y59577D01*
X146536Y58976D01*
X145935Y58192D01*
X145556Y57279D01*
X145428Y56299D01*
X145556Y55319D01*
X145785Y54767D01*
X120947Y29928D01*
X120786D01*
X71303Y79411D01*
Y120827D01*
X71180Y121446D01*
X70829Y121971D01*
X64310Y128490D01*
X64424Y128764D01*
X64553Y129744D01*
X64424Y130724D01*
X64046Y131637D01*
X63444Y132421D01*
X62660Y133022D01*
X61747Y133400D01*
X60768Y133529D01*
D02*
G37*
G36*
X154740Y85843D02*
X152362D01*
Y83465D01*
X154740D01*
Y85843D01*
D02*
G37*
G36*
X32283Y88037D02*
X31304Y87908D01*
X30391Y87530D01*
X29607Y86928D01*
X29006Y86145D01*
X28627Y85232D01*
X28498Y84252D01*
X28627Y83272D01*
X29006Y82359D01*
X29607Y81576D01*
X30391Y80974D01*
X31304Y80596D01*
X32283Y80467D01*
X33263Y80596D01*
X34176Y80974D01*
X34960Y81576D01*
X35561Y82359D01*
X35940Y83272D01*
X36069Y84252D01*
X35940Y85232D01*
X35561Y86145D01*
X34960Y86928D01*
X34176Y87530D01*
X33263Y87908D01*
X32283Y88037D01*
D02*
G37*
G36*
X154740Y80315D02*
X152362D01*
Y77937D01*
X154740D01*
Y80315D01*
D02*
G37*
G36*
X149213D02*
X146835D01*
Y77937D01*
X149213D01*
Y80315D01*
D02*
G37*
G36*
X112205Y137067D02*
X111278Y136883D01*
X110493Y136358D01*
X109968Y135572D01*
X109783Y134646D01*
X109968Y133719D01*
X110493Y132933D01*
X110586Y132871D01*
Y88307D01*
X110709Y87688D01*
X111060Y87163D01*
X117225Y80998D01*
X117112Y80724D01*
X116983Y79744D01*
X117112Y78764D01*
X117490Y77851D01*
X118091Y77068D01*
X118875Y76466D01*
X119788Y76088D01*
X120768Y75959D01*
X121747Y76088D01*
X122660Y76466D01*
X123444Y77068D01*
X124046Y77851D01*
X124424Y78764D01*
X124553Y79744D01*
X124424Y80724D01*
X124046Y81637D01*
X123444Y82421D01*
X122660Y83022D01*
X121747Y83400D01*
X120768Y83529D01*
X119788Y83400D01*
X119514Y83287D01*
X113823Y88977D01*
Y132871D01*
X113917Y132933D01*
X114442Y133719D01*
X114626Y134646D01*
X114442Y135572D01*
X113917Y136358D01*
X113131Y136883D01*
X112205Y137067D01*
D02*
G37*
G36*
X106693Y141791D02*
X105766Y141607D01*
X104981Y141082D01*
X104456Y140297D01*
X104272Y139370D01*
X104456Y138444D01*
X104981Y137658D01*
X105074Y137595D01*
Y83819D01*
X105198Y83200D01*
X105549Y82674D01*
X117225Y70998D01*
X117112Y70724D01*
X116983Y69744D01*
X117112Y68764D01*
X117490Y67852D01*
X118091Y67068D01*
X118875Y66466D01*
X119788Y66088D01*
X120768Y65959D01*
X121747Y66088D01*
X122660Y66466D01*
X123444Y67068D01*
X124046Y67852D01*
X124424Y68764D01*
X124553Y69744D01*
X124424Y70724D01*
X124046Y71637D01*
X123444Y72421D01*
X122660Y73022D01*
X121747Y73400D01*
X120768Y73529D01*
X119788Y73400D01*
X119514Y73287D01*
X108311Y84489D01*
Y137595D01*
X108405Y137658D01*
X108930Y138444D01*
X109114Y139370D01*
X108930Y140297D01*
X108405Y141082D01*
X107620Y141607D01*
X106693Y141791D01*
D02*
G37*
G36*
X33465Y63862D02*
Y61811D01*
X35516D01*
X35342Y62230D01*
X34709Y63055D01*
X33883Y63689D01*
X33465Y63862D01*
D02*
G37*
G36*
X30315D02*
X29896Y63689D01*
X29071Y63055D01*
X28437Y62230D01*
X28264Y61811D01*
X30315D01*
Y63862D01*
D02*
G37*
G36*
X35516Y58661D02*
X33465D01*
Y56610D01*
X33883Y56783D01*
X34709Y57417D01*
X35342Y58243D01*
X35516Y58661D01*
D02*
G37*
G36*
X30315D02*
X28264D01*
X28437Y58243D01*
X29071Y57417D01*
X29896Y56783D01*
X30315Y56610D01*
Y58661D01*
D02*
G37*
G36*
X60768Y63529D02*
X59788Y63400D01*
X58875Y63022D01*
X58091Y62421D01*
X57490Y61637D01*
X57112Y60724D01*
X56983Y59744D01*
X57112Y58764D01*
X57225Y58490D01*
X44919Y46184D01*
X44568Y45659D01*
X44445Y45039D01*
Y17171D01*
X44170Y17058D01*
X43387Y16456D01*
X42785Y15672D01*
X42407Y14759D01*
X42278Y13780D01*
X42407Y12800D01*
X42785Y11887D01*
X43387Y11103D01*
X44170Y10502D01*
X45083Y10123D01*
X46063Y9994D01*
X47043Y10123D01*
X47956Y10502D01*
X48739Y11103D01*
X49341Y11887D01*
X49719Y12800D01*
X49848Y13780D01*
X49719Y14759D01*
X49341Y15672D01*
X48739Y16456D01*
X47956Y17058D01*
X47681Y17171D01*
Y44369D01*
X59514Y56201D01*
X59788Y56088D01*
X60768Y55959D01*
X61747Y56088D01*
X62660Y56466D01*
X63444Y57068D01*
X64046Y57851D01*
X64424Y58764D01*
X64553Y59744D01*
X64424Y60724D01*
X64046Y61637D01*
X63444Y62421D01*
X62660Y63022D01*
X61747Y63400D01*
X60768Y63529D01*
D02*
G37*
G36*
Y53529D02*
X59788Y53400D01*
X58875Y53022D01*
X58091Y52421D01*
X57490Y51637D01*
X57112Y50724D01*
X56983Y49744D01*
X57112Y48764D01*
X57490Y47851D01*
X58091Y47068D01*
X58875Y46466D01*
X59788Y46088D01*
X60768Y45959D01*
X61747Y46088D01*
X62660Y46466D01*
X63444Y47068D01*
X64046Y47851D01*
X64424Y48764D01*
X64553Y49744D01*
X64424Y50724D01*
X64046Y51637D01*
X63444Y52421D01*
X62660Y53022D01*
X61747Y53400D01*
X60768Y53529D01*
D02*
G37*
G36*
X149213Y50242D02*
X148233Y50113D01*
X147320Y49735D01*
X146536Y49133D01*
X145935Y48349D01*
X145556Y47436D01*
X145428Y46457D01*
X145556Y45477D01*
X145935Y44564D01*
X146536Y43780D01*
X147320Y43179D01*
X148233Y42801D01*
X149213Y42672D01*
X150192Y42801D01*
X151105Y43179D01*
X151889Y43780D01*
X152491Y44564D01*
X152869Y45477D01*
X152998Y46457D01*
X152869Y47436D01*
X152491Y48349D01*
X151889Y49133D01*
X151105Y49735D01*
X150192Y50113D01*
X149213Y50242D01*
D02*
G37*
G36*
X150787Y40240D02*
Y38189D01*
X152839D01*
X152665Y38608D01*
X152032Y39433D01*
X151206Y40067D01*
X150787Y40240D01*
D02*
G37*
G36*
X147638Y40240D02*
X147219Y40067D01*
X146394Y39433D01*
X145760Y38608D01*
X145587Y38189D01*
X147638D01*
Y40240D01*
D02*
G37*
G36*
X31890Y44336D02*
X30910Y44207D01*
X29997Y43829D01*
X29213Y43228D01*
X28612Y42444D01*
X28234Y41531D01*
X28105Y40551D01*
X28234Y39571D01*
X28612Y38659D01*
X29213Y37875D01*
X29997Y37273D01*
X30910Y36895D01*
X31890Y36766D01*
X32869Y36895D01*
X33782Y37273D01*
X34566Y37875D01*
X35168Y38659D01*
X35546Y39571D01*
X35675Y40551D01*
X35546Y41531D01*
X35168Y42444D01*
X34566Y43228D01*
X33782Y43829D01*
X32869Y44207D01*
X31890Y44336D01*
D02*
G37*
G36*
X152839Y35039D02*
X150787D01*
Y32988D01*
X151206Y33161D01*
X152032Y33795D01*
X152665Y34621D01*
X152839Y35039D01*
D02*
G37*
G36*
X147638D02*
X145587D01*
X145760Y34621D01*
X146394Y33795D01*
X147219Y33161D01*
X147638Y32988D01*
Y35039D01*
D02*
G37*
G36*
X113386Y17799D02*
Y15748D01*
X115437D01*
X115264Y16167D01*
X114630Y16992D01*
X113804Y17626D01*
X113386Y17799D01*
D02*
G37*
G36*
X110236Y17799D02*
X109818Y17626D01*
X108992Y16992D01*
X108358Y16167D01*
X108185Y15748D01*
X110236D01*
Y17799D01*
D02*
G37*
G36*
X87008Y17406D02*
Y15354D01*
X89059D01*
X88886Y15773D01*
X88252Y16599D01*
X87427Y17232D01*
X87008Y17406D01*
D02*
G37*
G36*
X83858D02*
X83440Y17232D01*
X82614Y16599D01*
X81980Y15773D01*
X81807Y15354D01*
X83858D01*
Y17406D01*
D02*
G37*
G36*
X115437Y12598D02*
X113386D01*
Y10547D01*
X113804Y10721D01*
X114630Y11354D01*
X115264Y12180D01*
X115437Y12598D01*
D02*
G37*
G36*
X110236D02*
X108185D01*
X108358Y12180D01*
X108992Y11354D01*
X109818Y10721D01*
X110236Y10547D01*
Y12598D01*
D02*
G37*
G36*
X121653Y17958D02*
X120674Y17829D01*
X119761Y17451D01*
X118977Y16850D01*
X118376Y16066D01*
X117997Y15153D01*
X117868Y14173D01*
X117997Y13194D01*
X118376Y12281D01*
X118977Y11497D01*
X119761Y10895D01*
X120674Y10517D01*
X121653Y10388D01*
X122633Y10517D01*
X123546Y10895D01*
X124330Y11497D01*
X124932Y12281D01*
X125310Y13194D01*
X125439Y14173D01*
X125310Y15153D01*
X124932Y16066D01*
X124330Y16850D01*
X123546Y17451D01*
X122633Y17829D01*
X121653Y17958D01*
D02*
G37*
G36*
X89059Y12205D02*
X87008D01*
Y10153D01*
X87427Y10327D01*
X88252Y10960D01*
X88886Y11786D01*
X89059Y12205D01*
D02*
G37*
G36*
X83858D02*
X81807D01*
X81980Y11786D01*
X82614Y10960D01*
X83440Y10327D01*
X83858Y10153D01*
Y12205D01*
D02*
G37*
%LPD*%
D15*
X100984Y295020D02*
D03*
Y300020D02*
D03*
Y305020D02*
D03*
Y310020D02*
D03*
Y315020D02*
D03*
Y320020D02*
D03*
Y325020D02*
D03*
Y330020D02*
D03*
X79724Y295020D02*
D03*
Y300020D02*
D03*
Y305020D02*
D03*
Y310020D02*
D03*
Y315020D02*
D03*
Y320020D02*
D03*
Y325020D02*
D03*
Y330020D02*
D03*
D16*
X126591Y317536D02*
D03*
X121441Y312386D02*
D03*
D17*
X57087Y330807D02*
D03*
Y323524D02*
D03*
D18*
X143110Y259842D02*
D03*
X135827D02*
D03*
D19*
X108366Y356299D02*
D03*
Y349016D02*
D03*
D20*
X110531Y330709D02*
D03*
X117815D02*
D03*
X135827Y269685D02*
D03*
X143110D02*
D03*
D21*
X128347Y280709D02*
D03*
X108563Y340551D02*
D03*
D35*
X121617Y28310D02*
X149606Y56299D01*
X131496Y14173D02*
Y16929D01*
Y13780D02*
Y14173D01*
X69685Y78740D02*
X131496Y16929D01*
X120473Y28310D02*
X121617D01*
X69685Y78740D02*
Y120827D01*
X60768Y129744D02*
X69685Y120827D01*
X60768Y89744D02*
X66929Y83583D01*
Y77559D02*
Y83583D01*
Y77559D02*
X72309Y72179D01*
Y52516D02*
Y72179D01*
Y52516D02*
X75590Y49234D01*
Y13780D02*
Y49234D01*
X65748Y13780D02*
Y14232D01*
X69698Y18182D01*
Y70814D01*
X60768Y79744D02*
X69698Y70814D01*
X67323Y39043D02*
Y63189D01*
X60768Y69744D02*
X67323Y63189D01*
X55905Y27626D02*
X67323Y39043D01*
X55905Y13780D02*
Y27626D01*
X46063Y45039D02*
X60768Y59744D01*
X46063Y13780D02*
Y45039D01*
X45669Y84646D02*
X60768Y99744D01*
X45669Y64173D02*
Y84646D01*
X31890Y50394D02*
X45669Y64173D01*
X45118Y94095D02*
X60768Y109744D01*
X32283Y94095D02*
X45118D01*
X42323Y138189D02*
X60768Y119744D01*
X31890Y138189D02*
X42323D01*
X30315Y231102D02*
X37402Y224016D01*
Y213110D02*
Y224016D01*
Y213110D02*
X60768Y189744D01*
X40082Y220430D02*
Y231178D01*
Y220430D02*
X60768Y199744D01*
X30315Y240945D02*
X40082Y231178D01*
X42457Y228055D02*
Y238646D01*
Y228055D02*
X60768Y209744D01*
X30315Y250787D02*
X42457Y238646D01*
X44831Y235680D02*
Y246113D01*
Y235680D02*
X60768Y219744D01*
X30315Y260630D02*
X44831Y246113D01*
X51169Y259343D02*
Y281068D01*
Y259343D02*
X60768Y249744D01*
X51181Y281081D02*
Y287402D01*
X51169Y281068D02*
X51181Y281081D01*
X49213Y289370D02*
X51181Y287402D01*
X55637Y264875D02*
X60768Y259744D01*
X55637Y264875D02*
Y275956D01*
X56705Y277025D01*
Y286863D01*
X59213Y289370D01*
X56592Y143920D02*
Y146664D01*
X28346Y174909D02*
X56592Y146664D01*
X28346Y174909D02*
Y175827D01*
X56592Y143920D02*
X60768Y139744D01*
X50023Y160489D02*
X60768Y149744D01*
X50023Y160489D02*
Y164522D01*
X38718Y175827D02*
X50023Y164522D01*
X38346Y175827D02*
X38718D01*
X59276Y179744D02*
X60768D01*
X55949Y183071D02*
X59276Y179744D01*
X41102Y183071D02*
X55949D01*
X38346Y185827D02*
X41102Y183071D01*
X131471Y131099D02*
X150787Y150416D01*
X131471Y120447D02*
Y131099D01*
X120768Y109744D02*
X131471Y120447D01*
X136221Y116746D02*
X150577Y131102D01*
X136221Y105197D02*
Y116746D01*
X120768Y89744D02*
X136221Y105197D01*
X128715Y89345D02*
X150787Y111417D01*
X128715Y67691D02*
Y89345D01*
X120768Y59744D02*
X128715Y67691D01*
X150577Y131102D02*
X150787D01*
X120768Y99744D02*
X133846Y112822D01*
Y124003D01*
X150787Y140945D01*
Y150416D02*
Y150787D01*
X134153Y209744D02*
X138189Y213779D01*
X150787D01*
X120768Y209744D02*
X134153D01*
X132736Y219744D02*
X136614Y223622D01*
X150787D01*
X120768Y219744D02*
X132736D01*
X136614Y233858D02*
X150394D01*
X150787Y233465D01*
X132500Y229744D02*
X136614Y233858D01*
X120768Y229744D02*
X132500D01*
X136221Y243307D02*
X150787D01*
X132658Y239744D02*
X136221Y243307D01*
X120768Y239744D02*
X132658D01*
X35433Y330709D02*
X43167D01*
X50352Y323524D01*
X57087D01*
X58189Y324626D01*
X79331D01*
X79724Y325020D01*
X135453Y189744D02*
X150787Y174409D01*
X120768Y189744D02*
X135453D01*
X135295Y199744D02*
X150787Y184252D01*
X120768Y199744D02*
X135295D01*
X112205Y88307D02*
Y134646D01*
Y88307D02*
X120768Y79744D01*
X112205Y174803D02*
Y307579D01*
X105157Y314626D02*
X112205Y307579D01*
X106693Y168110D02*
Y259744D01*
X89468Y276969D02*
X106693Y259744D01*
Y83819D02*
Y139370D01*
Y83819D02*
X120768Y69744D01*
Y179744D02*
X121152Y180128D01*
X74886Y275508D02*
X100394Y250000D01*
X74886Y275508D02*
Y312051D01*
X77854Y315020D01*
X79724D01*
X101378Y314626D02*
X105157D01*
X135728Y259744D02*
X135827Y259842D01*
X120768Y259744D02*
X135728D01*
X89468Y276969D02*
Y312146D01*
X81595Y320020D02*
X89468Y312146D01*
X79724Y320020D02*
X81595D01*
X100984Y315020D02*
X101378Y314626D01*
D36*
X76378Y167717D02*
X94350Y149744D01*
X71988Y167717D02*
X76378D01*
X68504Y171201D02*
X71988Y167717D01*
X47010Y243502D02*
Y253778D01*
Y243502D02*
X60768Y229744D01*
X30315Y270472D02*
X47010Y253778D01*
X48991Y251521D02*
Y261639D01*
Y251521D02*
X60768Y239744D01*
X30315Y280315D02*
X48991Y261639D01*
X30709Y211417D02*
X57448Y184678D01*
X30315Y211417D02*
X30709D01*
X57448Y184678D02*
X63260D01*
X45485Y180893D02*
X55504Y170874D01*
X59638D01*
X60768Y169744D01*
X33280Y180893D02*
X45485D01*
X28346Y185827D02*
X33280Y180893D01*
X133228Y74173D02*
X150787Y91732D01*
X133228Y52204D02*
Y74173D01*
X120768Y39744D02*
X133228Y52204D01*
X150787Y100300D02*
Y101575D01*
X130893Y80406D02*
X150787Y100300D01*
X130893Y59869D02*
Y80406D01*
X120768Y49744D02*
X130893Y59869D01*
X63260Y184678D02*
X88699Y159239D01*
X25433Y330709D02*
X30367Y335643D01*
X42574D01*
X45933Y332283D01*
X55610D01*
X57087Y330807D01*
X57874Y330020D01*
X79724D01*
X88699Y159239D02*
X120263D01*
X94350Y149744D02*
X120768D01*
X120263Y159239D02*
X120768Y159744D01*
X150405Y302021D02*
X150425Y302000D01*
X131091Y302021D02*
X150405D01*
X131071Y302000D02*
X131091Y302021D01*
X132874Y312008D02*
X137795Y307087D01*
X113051Y320020D02*
X131071Y302000D01*
X150425D02*
X155512Y307087D01*
X119862Y325020D02*
X132874Y312008D01*
X137795Y307087D02*
X145512D01*
X100984Y325020D02*
X119862D01*
X100984Y320020D02*
X113051D01*
D37*
X112500Y338583D02*
X145669D01*
X108563Y342520D02*
X112500Y338583D01*
X145669D02*
X155512Y328740D01*
X104626Y338583D02*
X108563Y342520D01*
X47559Y338583D02*
X69685D01*
X35433Y350709D02*
X47559Y338583D01*
X128347Y273514D02*
Y280709D01*
Y273415D02*
Y273514D01*
X124547Y269715D02*
X128347Y273514D01*
Y273415D02*
X132047Y269715D01*
X155512Y327087D02*
Y328740D01*
X134449Y349016D02*
X138189Y352756D01*
X108366Y349016D02*
X134449D01*
X108563Y342520D02*
Y348031D01*
X69685Y338583D02*
X104626Y338583D01*
X108563Y340551D02*
Y342520D01*
Y335728D02*
Y340551D01*
X132047Y269715D02*
X135797D01*
X120797D02*
X124547D01*
X108563Y333366D02*
Y335728D01*
X102854Y330020D02*
X108563Y335728D01*
X100984Y330020D02*
X102854D01*
X110531Y330709D02*
Y331398D01*
X108563Y333366D02*
X110531Y331398D01*
D38*
X135797Y269715D02*
X135827Y269685D01*
X120768Y269744D02*
X120797Y269715D01*
D39*
X138189Y356890D02*
D03*
D40*
X60768Y269744D02*
D03*
Y259744D02*
D03*
Y249744D02*
D03*
Y239744D02*
D03*
Y229744D02*
D03*
Y219744D02*
D03*
Y209744D02*
D03*
Y199744D02*
D03*
Y189744D02*
D03*
Y179744D02*
D03*
Y169744D02*
D03*
Y159744D02*
D03*
Y149744D02*
D03*
Y139744D02*
D03*
X120768D02*
D03*
Y149744D02*
D03*
Y159744D02*
D03*
Y169744D02*
D03*
Y179744D02*
D03*
Y189744D02*
D03*
Y199744D02*
D03*
Y209744D02*
D03*
Y219744D02*
D03*
Y229744D02*
D03*
Y239744D02*
D03*
X60768Y119744D02*
D03*
Y109744D02*
D03*
Y99744D02*
D03*
Y89744D02*
D03*
Y79744D02*
D03*
Y69744D02*
D03*
Y59744D02*
D03*
Y49744D02*
D03*
Y39744D02*
D03*
X120768D02*
D03*
Y49744D02*
D03*
Y59744D02*
D03*
Y69744D02*
D03*
Y79744D02*
D03*
Y89744D02*
D03*
Y99744D02*
D03*
X60768Y129744D02*
D03*
X120768Y249744D02*
D03*
Y259744D02*
D03*
Y269744D02*
D03*
Y129744D02*
D03*
Y119744D02*
D03*
Y109744D02*
D03*
X49213Y289370D02*
D03*
X31890Y148031D02*
D03*
Y138189D02*
D03*
X31890Y128347D02*
D03*
X85433Y13780D02*
D03*
X75590D02*
D03*
X65748D02*
D03*
X55905D02*
D03*
X46063D02*
D03*
X155512Y287087D02*
D03*
Y297087D02*
D03*
Y307087D02*
D03*
X145512Y287087D02*
D03*
Y297087D02*
D03*
Y307087D02*
D03*
Y317087D02*
D03*
X155512D02*
D03*
Y327087D02*
D03*
X35433Y310709D02*
D03*
Y320709D02*
D03*
Y330709D02*
D03*
X25433Y310709D02*
D03*
Y320709D02*
D03*
Y330709D02*
D03*
Y340709D02*
D03*
X35433D02*
D03*
Y350709D02*
D03*
X32283Y103937D02*
D03*
Y94095D02*
D03*
X32283Y84252D02*
D03*
X31890Y60236D02*
D03*
Y50394D02*
D03*
X31890Y40551D02*
D03*
X150787Y91732D02*
D03*
Y101575D02*
D03*
Y111417D02*
D03*
Y121260D02*
D03*
Y131102D02*
D03*
Y140945D02*
D03*
Y150787D02*
D03*
X18347Y175827D02*
D03*
X28346D02*
D03*
X38346D02*
D03*
X18347Y185827D02*
D03*
X28346D02*
D03*
X150787Y184252D02*
D03*
Y194095D02*
D03*
Y203937D02*
D03*
Y213779D02*
D03*
Y223622D02*
D03*
Y233465D02*
D03*
Y243307D02*
D03*
X30315Y270472D02*
D03*
Y260630D02*
D03*
Y250787D02*
D03*
Y240945D02*
D03*
Y231102D02*
D03*
Y221260D02*
D03*
Y211417D02*
D03*
X111811Y14173D02*
D03*
X121653D02*
D03*
X131496Y14173D02*
D03*
X135433Y357874D02*
D03*
X125591D02*
D03*
X149213Y36614D02*
D03*
Y46457D02*
D03*
X149213Y56299D02*
D03*
D41*
X59213Y289370D02*
D03*
X38346Y185827D02*
D03*
D42*
X145512Y327087D02*
D03*
X25433Y350709D02*
D03*
X150787Y81890D02*
D03*
Y174409D02*
D03*
X30315Y280315D02*
D03*
D43*
X166142Y379921D02*
D03*
X14173Y379528D02*
D03*
X14961Y14567D02*
D03*
X166929Y14173D02*
D03*
D44*
X64567Y280315D02*
D03*
X116929Y354724D02*
D03*
X44882Y368110D02*
D03*
X95276Y262992D02*
D03*
X160630Y218898D02*
D03*
X103150Y155118D02*
D03*
X93307Y44488D02*
D03*
X31890Y23622D02*
D03*
X144882Y14173D02*
D03*
X165354Y45276D02*
D03*
X97638Y110630D02*
D03*
X37008Y299213D02*
D03*
X64173Y346457D02*
D03*
X122047Y343701D02*
D03*
X125197Y370866D02*
D03*
X110630Y365748D02*
D03*
X62992Y24409D02*
D03*
X102756Y14961D02*
D03*
X143701Y115748D02*
D03*
X18898Y274803D02*
D03*
X142520Y26378D02*
D03*
X139764Y57480D02*
D03*
X161811Y89764D02*
D03*
X118898Y320079D02*
D03*
X67716Y321260D02*
D03*
X65748Y333071D02*
D03*
X167323Y270866D02*
D03*
X166535Y318898D02*
D03*
X138976Y312205D02*
D03*
X18504Y320866D02*
D03*
X12598Y265748D02*
D03*
X22835Y246850D02*
D03*
X46850Y190551D02*
D03*
X28740Y204331D02*
D03*
X9055Y133465D02*
D03*
X15354Y96850D02*
D03*
X15748Y57874D02*
D03*
X86221Y24803D02*
D03*
X129134Y137402D02*
D03*
X22441Y142520D02*
D03*
X42126Y79528D02*
D03*
X52756Y86614D02*
D03*
X18110Y113779D02*
D03*
X50787Y106299D02*
D03*
X48031Y140157D02*
D03*
X92126Y348819D02*
D03*
X22933Y358268D02*
D03*
X76378Y259842D02*
D03*
X75984Y235039D02*
D03*
X95669Y219685D02*
D03*
X75591Y198425D02*
D03*
X97244Y187402D02*
D03*
X13484Y299114D02*
D03*
X64961Y298425D02*
D03*
X43307Y283071D02*
D03*
X12894Y229331D02*
D03*
X9449Y175197D02*
D03*
X12598Y165354D02*
D03*
X42520Y147244D02*
D03*
X32677Y113386D02*
D03*
X15748Y31496D02*
D03*
X28740Y73622D02*
D03*
X89764Y166929D02*
D03*
X74803Y133071D02*
D03*
Y92126D02*
D03*
X75590Y53150D02*
D03*
X100394Y63386D02*
D03*
X51575Y37008D02*
D03*
X109843Y30709D02*
D03*
X161811Y70079D02*
D03*
X142913Y74016D02*
D03*
X163386Y162205D02*
D03*
X161024Y122047D02*
D03*
X138583Y155905D02*
D03*
X142520Y201969D02*
D03*
X141339Y251181D02*
D03*
X151575Y264961D02*
D03*
X142520Y277953D02*
D03*
X136614Y294488D02*
D03*
X162205Y352756D02*
D03*
X79921Y377559D02*
D03*
X134252Y382677D02*
D03*
X44488Y322539D02*
D03*
X103937Y277559D02*
D03*
X107480Y302756D02*
D03*
X126378Y329528D02*
D03*
X90551Y321260D02*
D03*
X80709Y287402D02*
D03*
X44088Y384849D02*
D03*
D45*
X68504Y171201D02*
D03*
X112205Y174803D02*
D03*
Y134646D02*
D03*
X106693Y139370D02*
D03*
Y168110D02*
D03*
X100394Y250000D02*
D03*
D46*
X128347Y280709D02*
D03*
X108563Y340551D02*
D03*
M02*
