G04*
G04 #@! TF.GenerationSoftware,Altium Limited,Altium Designer,20.0.12 (288)*
G04*
G04 Layer_Physical_Order=2*
G04 Layer_Color=16711680*
%FSLAX25Y25*%
%MOIN*%
G70*
G01*
G75*
%ADD35C,0.01575*%
%ADD36C,0.01181*%
%ADD37C,0.02362*%
%ADD40C,0.05906*%
%ADD41R,0.05906X0.05906*%
%ADD42R,0.05906X0.05906*%
%ADD43C,0.15748*%
%ADD44C,0.02362*%
%ADD45C,0.03150*%
%ADD46C,0.05000*%
G36*
X153937Y367323D02*
X174016D01*
X174016Y26378D01*
X153937D01*
Y6299D01*
X27953D01*
Y26378D01*
X5906D01*
Y367323D01*
X26378Y367323D01*
X26378Y387795D01*
X153937Y387795D01*
X153937Y367323D01*
D02*
G37*
%LPC*%
G36*
X127165Y361500D02*
Y359449D01*
X129217D01*
X129043Y359868D01*
X128410Y360693D01*
X127584Y361327D01*
X127165Y361500D01*
D02*
G37*
G36*
X124016Y361500D02*
X123597Y361327D01*
X122771Y360693D01*
X122138Y359868D01*
X121964Y359449D01*
X124016D01*
Y361500D01*
D02*
G37*
G36*
X129217Y356299D02*
X127165D01*
Y354248D01*
X127584Y354421D01*
X128410Y355055D01*
X129043Y355881D01*
X129217Y356299D01*
D02*
G37*
G36*
X124016D02*
X121964D01*
X122138Y355881D01*
X122771Y355055D01*
X123597Y354421D01*
X124016Y354248D01*
Y356299D01*
D02*
G37*
G36*
X135433Y361659D02*
X134453Y361530D01*
X133540Y361152D01*
X132757Y360550D01*
X132155Y359767D01*
X131777Y358854D01*
X131648Y357874D01*
X131777Y356894D01*
X132155Y355981D01*
X132757Y355198D01*
X133540Y354596D01*
X134453Y354218D01*
X135433Y354089D01*
X136413Y354218D01*
X137326Y354596D01*
X138110Y355198D01*
X138711Y355981D01*
X139089Y356894D01*
X139218Y357874D01*
X139089Y358854D01*
X138711Y359767D01*
X138110Y360550D01*
X137326Y361152D01*
X136413Y361530D01*
X135433Y361659D01*
D02*
G37*
G36*
X29186Y354461D02*
X21680D01*
Y346956D01*
X29186D01*
Y354461D01*
D02*
G37*
G36*
X35433Y354494D02*
X34453Y354365D01*
X33540Y353987D01*
X32757Y353385D01*
X32155Y352601D01*
X31777Y351688D01*
X31648Y350709D01*
X31777Y349729D01*
X32155Y348816D01*
X32757Y348032D01*
X33540Y347431D01*
X34453Y347053D01*
X35433Y346923D01*
X36413Y347053D01*
X37326Y347431D01*
X38110Y348032D01*
X38711Y348816D01*
X39089Y349729D01*
X39218Y350709D01*
X39089Y351688D01*
X38711Y352601D01*
X38110Y353385D01*
X37326Y353987D01*
X36413Y354365D01*
X35433Y354494D01*
D02*
G37*
G36*
X27008Y344335D02*
Y342283D01*
X29059D01*
X28886Y342702D01*
X28252Y343528D01*
X27426Y344161D01*
X27008Y344335D01*
D02*
G37*
G36*
X23858Y344335D02*
X23440Y344161D01*
X22614Y343528D01*
X21980Y342702D01*
X21807Y342283D01*
X23858D01*
Y344335D01*
D02*
G37*
G36*
Y339134D02*
X21807D01*
X21980Y338715D01*
X22614Y337890D01*
X23440Y337256D01*
X23858Y337083D01*
Y339134D01*
D02*
G37*
G36*
X29059D02*
X27008D01*
Y337083D01*
X27426Y337256D01*
X28252Y337890D01*
X28886Y338715D01*
X29059Y339134D01*
D02*
G37*
G36*
X35433Y344494D02*
X34453Y344365D01*
X33540Y343987D01*
X32757Y343385D01*
X32155Y342601D01*
X31777Y341688D01*
X31648Y340709D01*
X31777Y339729D01*
X32155Y338816D01*
X32757Y338032D01*
X33540Y337431D01*
X34453Y337052D01*
X35433Y336924D01*
X36413Y337052D01*
X37326Y337431D01*
X38110Y338032D01*
X38711Y338816D01*
X39089Y339729D01*
X39218Y340709D01*
X39089Y341688D01*
X38711Y342601D01*
X38110Y343385D01*
X37326Y343987D01*
X36413Y344365D01*
X35433Y344494D01*
D02*
G37*
G36*
Y334494D02*
X34453Y334365D01*
X33540Y333987D01*
X32757Y333385D01*
X32155Y332601D01*
X31777Y331688D01*
X31648Y330709D01*
X31777Y329729D01*
X32155Y328816D01*
X32757Y328032D01*
X33540Y327431D01*
X34453Y327052D01*
X35433Y326923D01*
X36413Y327052D01*
X37326Y327431D01*
X38110Y328032D01*
X38711Y328816D01*
X39089Y329729D01*
X39218Y330709D01*
X39089Y331688D01*
X38711Y332601D01*
X38110Y333385D01*
X37326Y333987D01*
X36413Y334365D01*
X35433Y334494D01*
D02*
G37*
G36*
X25433D02*
X24453Y334365D01*
X23540Y333987D01*
X22757Y333385D01*
X22155Y332601D01*
X21777Y331688D01*
X21648Y330709D01*
X21777Y329729D01*
X22155Y328816D01*
X22757Y328032D01*
X23540Y327431D01*
X24453Y327052D01*
X25433Y326923D01*
X26413Y327052D01*
X27326Y327431D01*
X28110Y328032D01*
X28711Y328816D01*
X29089Y329729D01*
X29218Y330709D01*
X29089Y331688D01*
X28711Y332601D01*
X28110Y333385D01*
X27326Y333987D01*
X26413Y334365D01*
X25433Y334494D01*
D02*
G37*
G36*
X149265Y330839D02*
X141759D01*
Y323334D01*
X149265D01*
Y330839D01*
D02*
G37*
G36*
X155512Y330872D02*
X154532Y330743D01*
X153619Y330365D01*
X152835Y329763D01*
X152234Y328979D01*
X151856Y328066D01*
X151727Y327087D01*
X151856Y326107D01*
X152234Y325194D01*
X152835Y324410D01*
X153619Y323809D01*
X154532Y323430D01*
X155512Y323302D01*
X156491Y323430D01*
X157404Y323809D01*
X158188Y324410D01*
X158790Y325194D01*
X159168Y326107D01*
X159297Y327087D01*
X159168Y328066D01*
X158790Y328979D01*
X158188Y329763D01*
X157404Y330365D01*
X156491Y330743D01*
X155512Y330872D01*
D02*
G37*
G36*
X147087Y320713D02*
Y318661D01*
X149138D01*
X148965Y319080D01*
X148331Y319906D01*
X147505Y320539D01*
X147087Y320713D01*
D02*
G37*
G36*
X143937Y320713D02*
X143518Y320539D01*
X142693Y319906D01*
X142059Y319080D01*
X141886Y318661D01*
X143937D01*
Y320713D01*
D02*
G37*
G36*
X35433Y324494D02*
X34453Y324365D01*
X33540Y323987D01*
X32757Y323385D01*
X32155Y322601D01*
X31777Y321688D01*
X31648Y320709D01*
X31777Y319729D01*
X32155Y318816D01*
X32757Y318032D01*
X33540Y317431D01*
X34453Y317053D01*
X35433Y316923D01*
X36413Y317053D01*
X37326Y317431D01*
X38110Y318032D01*
X38711Y318816D01*
X39089Y319729D01*
X39218Y320709D01*
X39089Y321688D01*
X38711Y322601D01*
X38110Y323385D01*
X37326Y323987D01*
X36413Y324365D01*
X35433Y324494D01*
D02*
G37*
G36*
X25433D02*
X24453Y324365D01*
X23540Y323987D01*
X22757Y323385D01*
X22155Y322601D01*
X21777Y321688D01*
X21648Y320709D01*
X21777Y319729D01*
X22155Y318816D01*
X22757Y318032D01*
X23540Y317431D01*
X24453Y317053D01*
X25433Y316923D01*
X26413Y317053D01*
X27326Y317431D01*
X28110Y318032D01*
X28711Y318816D01*
X29089Y319729D01*
X29218Y320709D01*
X29089Y321688D01*
X28711Y322601D01*
X28110Y323385D01*
X27326Y323987D01*
X26413Y324365D01*
X25433Y324494D01*
D02*
G37*
G36*
X149138Y315512D02*
X147087D01*
Y313460D01*
X147505Y313634D01*
X148331Y314267D01*
X148965Y315093D01*
X149138Y315512D01*
D02*
G37*
G36*
X143937D02*
X141886D01*
X142059Y315093D01*
X142693Y314267D01*
X143518Y313634D01*
X143937Y313460D01*
Y315512D01*
D02*
G37*
G36*
X155512Y320872D02*
X154532Y320743D01*
X153619Y320365D01*
X152835Y319763D01*
X152234Y318979D01*
X151856Y318066D01*
X151727Y317087D01*
X151856Y316107D01*
X152234Y315194D01*
X152835Y314410D01*
X153619Y313809D01*
X154532Y313431D01*
X155512Y313301D01*
X156491Y313431D01*
X157404Y313809D01*
X158188Y314410D01*
X158790Y315194D01*
X159168Y316107D01*
X159297Y317087D01*
X159168Y318066D01*
X158790Y318979D01*
X158188Y319763D01*
X157404Y320365D01*
X156491Y320743D01*
X155512Y320872D01*
D02*
G37*
G36*
X35433Y314494D02*
X34453Y314365D01*
X33540Y313987D01*
X32757Y313385D01*
X32155Y312601D01*
X31777Y311688D01*
X31648Y310709D01*
X31777Y309729D01*
X32155Y308816D01*
X32757Y308032D01*
X33540Y307431D01*
X34453Y307052D01*
X35433Y306924D01*
X36413Y307052D01*
X37326Y307431D01*
X38110Y308032D01*
X38711Y308816D01*
X39089Y309729D01*
X39218Y310709D01*
X39089Y311688D01*
X38711Y312601D01*
X38110Y313385D01*
X37326Y313987D01*
X36413Y314365D01*
X35433Y314494D01*
D02*
G37*
G36*
X25433D02*
X24453Y314365D01*
X23540Y313987D01*
X22757Y313385D01*
X22155Y312601D01*
X21777Y311688D01*
X21648Y310709D01*
X21777Y309729D01*
X22155Y308816D01*
X22757Y308032D01*
X23540Y307431D01*
X24453Y307052D01*
X25433Y306924D01*
X26413Y307052D01*
X27326Y307431D01*
X28110Y308032D01*
X28711Y308816D01*
X29089Y309729D01*
X29218Y310709D01*
X29089Y311688D01*
X28711Y312601D01*
X28110Y313385D01*
X27326Y313987D01*
X26413Y314365D01*
X25433Y314494D01*
D02*
G37*
G36*
X155512Y310872D02*
X154532Y310743D01*
X153619Y310365D01*
X152835Y309763D01*
X152234Y308979D01*
X151856Y308066D01*
X151727Y307087D01*
X151856Y306107D01*
X152234Y305194D01*
X152835Y304410D01*
X153619Y303809D01*
X154532Y303431D01*
X155512Y303302D01*
X156491Y303431D01*
X157404Y303809D01*
X158188Y304410D01*
X158790Y305194D01*
X159168Y306107D01*
X159297Y307087D01*
X159168Y308066D01*
X158790Y308979D01*
X158188Y309763D01*
X157404Y310365D01*
X156491Y310743D01*
X155512Y310872D01*
D02*
G37*
G36*
X145512D02*
X144532Y310743D01*
X143619Y310365D01*
X142835Y309763D01*
X142234Y308979D01*
X141856Y308066D01*
X141727Y307087D01*
X141856Y306107D01*
X142234Y305194D01*
X142835Y304410D01*
X143619Y303809D01*
X144532Y303431D01*
X145512Y303302D01*
X146492Y303431D01*
X147404Y303809D01*
X148188Y304410D01*
X148790Y305194D01*
X149168Y306107D01*
X149297Y307087D01*
X149168Y308066D01*
X148790Y308979D01*
X148188Y309763D01*
X147404Y310365D01*
X146492Y310743D01*
X145512Y310872D01*
D02*
G37*
G36*
X155512Y300872D02*
X154532Y300743D01*
X153619Y300365D01*
X152835Y299763D01*
X152234Y298979D01*
X151856Y298066D01*
X151727Y297087D01*
X151856Y296107D01*
X152234Y295194D01*
X152835Y294410D01*
X153619Y293809D01*
X154532Y293430D01*
X155512Y293302D01*
X156491Y293430D01*
X157404Y293809D01*
X158188Y294410D01*
X158790Y295194D01*
X159168Y296107D01*
X159297Y297087D01*
X159168Y298066D01*
X158790Y298979D01*
X158188Y299763D01*
X157404Y300365D01*
X156491Y300743D01*
X155512Y300872D01*
D02*
G37*
G36*
X145512D02*
X144532Y300743D01*
X143619Y300365D01*
X142835Y299763D01*
X142234Y298979D01*
X141856Y298066D01*
X141727Y297087D01*
X141856Y296107D01*
X142234Y295194D01*
X142835Y294410D01*
X143619Y293809D01*
X144532Y293430D01*
X145512Y293302D01*
X146492Y293430D01*
X147404Y293809D01*
X148188Y294410D01*
X148790Y295194D01*
X149168Y296107D01*
X149297Y297087D01*
X149168Y298066D01*
X148790Y298979D01*
X148188Y299763D01*
X147404Y300365D01*
X146492Y300743D01*
X145512Y300872D01*
D02*
G37*
G36*
X62965Y293123D02*
X55460D01*
Y285617D01*
X62965D01*
Y293123D01*
D02*
G37*
G36*
X49213Y293155D02*
X48233Y293026D01*
X47320Y292648D01*
X46536Y292047D01*
X45935Y291263D01*
X45557Y290350D01*
X45428Y289370D01*
X45557Y288390D01*
X45935Y287477D01*
X46536Y286694D01*
X47320Y286092D01*
X48233Y285714D01*
X49213Y285585D01*
X50192Y285714D01*
X51105Y286092D01*
X51889Y286694D01*
X52491Y287477D01*
X52869Y288390D01*
X52998Y289370D01*
X52869Y290350D01*
X52491Y291263D01*
X51889Y292047D01*
X51105Y292648D01*
X50192Y293026D01*
X49213Y293155D01*
D02*
G37*
G36*
X155512Y290872D02*
X154532Y290743D01*
X153619Y290365D01*
X152835Y289763D01*
X152234Y288979D01*
X151856Y288066D01*
X151727Y287087D01*
X151856Y286107D01*
X152234Y285194D01*
X152835Y284410D01*
X153619Y283809D01*
X154532Y283431D01*
X155512Y283301D01*
X156491Y283431D01*
X157404Y283809D01*
X158188Y284410D01*
X158790Y285194D01*
X159168Y286107D01*
X159297Y287087D01*
X159168Y288066D01*
X158790Y288979D01*
X158188Y289763D01*
X157404Y290365D01*
X156491Y290743D01*
X155512Y290872D01*
D02*
G37*
G36*
X145512D02*
X144532Y290743D01*
X143619Y290365D01*
X142835Y289763D01*
X142234Y288979D01*
X141856Y288066D01*
X141727Y287087D01*
X141856Y286107D01*
X142234Y285194D01*
X142835Y284410D01*
X143619Y283809D01*
X144532Y283431D01*
X145512Y283301D01*
X146492Y283431D01*
X147404Y283809D01*
X148188Y284410D01*
X148790Y285194D01*
X149168Y286107D01*
X149297Y287087D01*
X149168Y288066D01*
X148790Y288979D01*
X148188Y289763D01*
X147404Y290365D01*
X146492Y290743D01*
X145512Y290872D01*
D02*
G37*
G36*
X108563Y343880D02*
X107702Y343766D01*
X106899Y343434D01*
X106209Y342905D01*
X105680Y342215D01*
X105348Y341413D01*
X105235Y340551D01*
X105348Y339690D01*
X105680Y338887D01*
X106209Y338198D01*
X106899Y337669D01*
X107702Y337336D01*
X108563Y337223D01*
X108980Y337278D01*
X126327Y319931D01*
Y283318D01*
X125993Y283062D01*
X125464Y282373D01*
X125131Y281570D01*
X125018Y280709D01*
X125131Y279847D01*
X125464Y279044D01*
X125993Y278355D01*
X126682Y277826D01*
X127485Y277494D01*
X128347Y277380D01*
X129208Y277494D01*
X130011Y277826D01*
X130700Y278355D01*
X131229Y279044D01*
X131562Y279847D01*
X131675Y280709D01*
X131562Y281570D01*
X131229Y282373D01*
X130700Y283062D01*
X130366Y283318D01*
Y320768D01*
X130213Y321541D01*
X129775Y322196D01*
X111837Y340134D01*
X111891Y340551D01*
X111778Y341413D01*
X111446Y342215D01*
X110917Y342905D01*
X110227Y343434D01*
X109424Y343766D01*
X108563Y343880D01*
D02*
G37*
G36*
X34068Y284068D02*
X26562D01*
Y276562D01*
X34068D01*
Y284068D01*
D02*
G37*
G36*
X62343Y273370D02*
Y271319D01*
X64394D01*
X64220Y271738D01*
X63587Y272563D01*
X62761Y273197D01*
X62343Y273370D01*
D02*
G37*
G36*
X59193D02*
X58774Y273197D01*
X57949Y272563D01*
X57315Y271738D01*
X57142Y271319D01*
X59193D01*
Y273370D01*
D02*
G37*
G36*
X30315Y274258D02*
X29335Y274129D01*
X28422Y273750D01*
X27639Y273149D01*
X27037Y272365D01*
X26659Y271452D01*
X26530Y270472D01*
X26659Y269493D01*
X27037Y268580D01*
X27639Y267796D01*
X28422Y267194D01*
X29335Y266816D01*
X30315Y266687D01*
X31295Y266816D01*
X32208Y267194D01*
X32991Y267796D01*
X33593Y268580D01*
X33971Y269493D01*
X34100Y270472D01*
X33971Y271452D01*
X33593Y272365D01*
X32991Y273149D01*
X32208Y273750D01*
X31295Y274129D01*
X30315Y274258D01*
D02*
G37*
G36*
X64394Y268169D02*
X62343D01*
Y266118D01*
X62761Y266291D01*
X63587Y266925D01*
X64220Y267751D01*
X64394Y268169D01*
D02*
G37*
G36*
X59193D02*
X57142D01*
X57315Y267751D01*
X57949Y266925D01*
X58774Y266291D01*
X59193Y266118D01*
Y268169D01*
D02*
G37*
G36*
X120768Y273529D02*
X119788Y273400D01*
X118875Y273022D01*
X118091Y272421D01*
X117490Y271637D01*
X117112Y270724D01*
X116983Y269744D01*
X117112Y268764D01*
X117490Y267851D01*
X118091Y267068D01*
X118875Y266466D01*
X119788Y266088D01*
X120768Y265959D01*
X121747Y266088D01*
X122660Y266466D01*
X123444Y267068D01*
X124046Y267851D01*
X124424Y268764D01*
X124553Y269744D01*
X124424Y270724D01*
X124046Y271637D01*
X123444Y272421D01*
X122660Y273022D01*
X121747Y273400D01*
X120768Y273529D01*
D02*
G37*
G36*
X30315Y264415D02*
X29335Y264286D01*
X28422Y263908D01*
X27639Y263306D01*
X27037Y262523D01*
X26659Y261610D01*
X26530Y260630D01*
X26659Y259650D01*
X27037Y258737D01*
X27639Y257953D01*
X28422Y257352D01*
X29335Y256974D01*
X30315Y256845D01*
X31295Y256974D01*
X32208Y257352D01*
X32991Y257953D01*
X33593Y258737D01*
X33971Y259650D01*
X34100Y260630D01*
X33971Y261610D01*
X33593Y262523D01*
X32991Y263306D01*
X32208Y263908D01*
X31295Y264286D01*
X30315Y264415D01*
D02*
G37*
G36*
X120768Y263529D02*
X119788Y263400D01*
X118875Y263022D01*
X118091Y262421D01*
X117490Y261637D01*
X117112Y260724D01*
X116983Y259744D01*
X117112Y258764D01*
X117490Y257852D01*
X118091Y257068D01*
X118875Y256466D01*
X119788Y256088D01*
X120768Y255959D01*
X121747Y256088D01*
X122660Y256466D01*
X123444Y257068D01*
X124046Y257852D01*
X124424Y258764D01*
X124553Y259744D01*
X124424Y260724D01*
X124046Y261637D01*
X123444Y262421D01*
X122660Y263022D01*
X121747Y263400D01*
X120768Y263529D01*
D02*
G37*
G36*
X60768D02*
X59788Y263400D01*
X58875Y263022D01*
X58091Y262421D01*
X57490Y261637D01*
X57112Y260724D01*
X56983Y259744D01*
X57112Y258764D01*
X57490Y257852D01*
X58091Y257068D01*
X58875Y256466D01*
X59788Y256088D01*
X60768Y255959D01*
X61747Y256088D01*
X62660Y256466D01*
X63444Y257068D01*
X64046Y257852D01*
X64424Y258764D01*
X64553Y259744D01*
X64424Y260724D01*
X64046Y261637D01*
X63444Y262421D01*
X62660Y263022D01*
X61747Y263400D01*
X60768Y263529D01*
D02*
G37*
G36*
X120768Y253529D02*
X119788Y253400D01*
X118875Y253022D01*
X118091Y252421D01*
X117490Y251637D01*
X117376Y251363D01*
X102339D01*
X102106Y251712D01*
X101320Y252237D01*
X100394Y252421D01*
X99467Y252237D01*
X98682Y251712D01*
X98157Y250927D01*
X97972Y250000D01*
X98157Y249073D01*
X98682Y248288D01*
X99467Y247763D01*
X100394Y247579D01*
X101320Y247763D01*
X101863Y248126D01*
X117376D01*
X117490Y247851D01*
X118091Y247068D01*
X118875Y246466D01*
X119788Y246088D01*
X120768Y245959D01*
X121747Y246088D01*
X122660Y246466D01*
X123444Y247068D01*
X124046Y247851D01*
X124424Y248764D01*
X124553Y249744D01*
X124424Y250724D01*
X124046Y251637D01*
X123444Y252421D01*
X122660Y253022D01*
X121747Y253400D01*
X120768Y253529D01*
D02*
G37*
G36*
X30315Y254573D02*
X29335Y254444D01*
X28422Y254065D01*
X27639Y253464D01*
X27037Y252680D01*
X26659Y251767D01*
X26530Y250787D01*
X26659Y249808D01*
X27037Y248895D01*
X27639Y248111D01*
X28422Y247509D01*
X29335Y247131D01*
X30315Y247002D01*
X31295Y247131D01*
X32208Y247509D01*
X32991Y248111D01*
X33593Y248895D01*
X33971Y249808D01*
X34100Y250787D01*
X33971Y251767D01*
X33593Y252680D01*
X32991Y253464D01*
X32208Y254065D01*
X31295Y254444D01*
X30315Y254573D01*
D02*
G37*
G36*
X60768Y253529D02*
X59788Y253400D01*
X58875Y253022D01*
X58091Y252421D01*
X57490Y251637D01*
X57112Y250724D01*
X56983Y249744D01*
X57112Y248764D01*
X57490Y247851D01*
X58091Y247068D01*
X58875Y246466D01*
X59788Y246088D01*
X60768Y245959D01*
X61747Y246088D01*
X62660Y246466D01*
X63444Y247068D01*
X64046Y247851D01*
X64424Y248764D01*
X64553Y249744D01*
X64424Y250724D01*
X64046Y251637D01*
X63444Y252421D01*
X62660Y253022D01*
X61747Y253400D01*
X60768Y253529D01*
D02*
G37*
G36*
X150787Y247092D02*
X149808Y246963D01*
X148895Y246585D01*
X148111Y245984D01*
X147509Y245200D01*
X147131Y244287D01*
X147002Y243307D01*
X147131Y242327D01*
X147509Y241414D01*
X148111Y240631D01*
X148895Y240029D01*
X149808Y239651D01*
X150787Y239522D01*
X151767Y239651D01*
X152680Y240029D01*
X153464Y240631D01*
X154065Y241414D01*
X154444Y242327D01*
X154572Y243307D01*
X154444Y244287D01*
X154065Y245200D01*
X153464Y245984D01*
X152680Y246585D01*
X151767Y246963D01*
X150787Y247092D01*
D02*
G37*
G36*
X30315Y244730D02*
X29335Y244601D01*
X28422Y244223D01*
X27639Y243621D01*
X27037Y242837D01*
X26659Y241925D01*
X26530Y240945D01*
X26659Y239965D01*
X27037Y239052D01*
X27639Y238268D01*
X28422Y237667D01*
X29335Y237289D01*
X30315Y237160D01*
X31295Y237289D01*
X32208Y237667D01*
X32991Y238268D01*
X33593Y239052D01*
X33971Y239965D01*
X34100Y240945D01*
X33971Y241925D01*
X33593Y242837D01*
X32991Y243621D01*
X32208Y244223D01*
X31295Y244601D01*
X30315Y244730D01*
D02*
G37*
G36*
X120768Y243529D02*
X119788Y243400D01*
X118875Y243022D01*
X118091Y242421D01*
X117490Y241637D01*
X117112Y240724D01*
X116983Y239744D01*
X117112Y238764D01*
X117490Y237852D01*
X118091Y237068D01*
X118875Y236466D01*
X119788Y236088D01*
X120768Y235959D01*
X121747Y236088D01*
X122660Y236466D01*
X123444Y237068D01*
X124046Y237852D01*
X124424Y238764D01*
X124553Y239744D01*
X124424Y240724D01*
X124046Y241637D01*
X123444Y242421D01*
X122660Y243022D01*
X121747Y243400D01*
X120768Y243529D01*
D02*
G37*
G36*
X60768D02*
X59788Y243400D01*
X58875Y243022D01*
X58091Y242421D01*
X57490Y241637D01*
X57112Y240724D01*
X56983Y239744D01*
X57112Y238764D01*
X57490Y237852D01*
X58091Y237068D01*
X58875Y236466D01*
X59788Y236088D01*
X60768Y235959D01*
X61747Y236088D01*
X62660Y236466D01*
X63444Y237068D01*
X64046Y237852D01*
X64424Y238764D01*
X64553Y239744D01*
X64424Y240724D01*
X64046Y241637D01*
X63444Y242421D01*
X62660Y243022D01*
X61747Y243400D01*
X60768Y243529D01*
D02*
G37*
G36*
X150787Y237250D02*
X149808Y237121D01*
X148895Y236743D01*
X148111Y236141D01*
X147509Y235357D01*
X147131Y234444D01*
X147002Y233465D01*
X147131Y232485D01*
X147509Y231572D01*
X148111Y230788D01*
X148895Y230187D01*
X149808Y229808D01*
X150787Y229679D01*
X151767Y229808D01*
X152680Y230187D01*
X153464Y230788D01*
X154065Y231572D01*
X154444Y232485D01*
X154572Y233465D01*
X154444Y234444D01*
X154065Y235357D01*
X153464Y236141D01*
X152680Y236743D01*
X151767Y237121D01*
X150787Y237250D01*
D02*
G37*
G36*
X30315Y234888D02*
X29335Y234758D01*
X28422Y234380D01*
X27639Y233779D01*
X27037Y232995D01*
X26659Y232082D01*
X26530Y231102D01*
X26659Y230123D01*
X27037Y229210D01*
X27639Y228426D01*
X28422Y227824D01*
X29335Y227446D01*
X30315Y227317D01*
X31295Y227446D01*
X32208Y227824D01*
X32991Y228426D01*
X33593Y229210D01*
X33971Y230123D01*
X34100Y231102D01*
X33971Y232082D01*
X33593Y232995D01*
X32991Y233779D01*
X32208Y234380D01*
X31295Y234758D01*
X30315Y234888D01*
D02*
G37*
G36*
X120768Y233529D02*
X119788Y233400D01*
X118875Y233022D01*
X118091Y232421D01*
X117490Y231637D01*
X117112Y230724D01*
X116983Y229744D01*
X117112Y228764D01*
X117490Y227852D01*
X118091Y227068D01*
X118875Y226466D01*
X119788Y226088D01*
X120768Y225959D01*
X121747Y226088D01*
X122660Y226466D01*
X123444Y227068D01*
X124046Y227852D01*
X124424Y228764D01*
X124553Y229744D01*
X124424Y230724D01*
X124046Y231637D01*
X123444Y232421D01*
X122660Y233022D01*
X121747Y233400D01*
X120768Y233529D01*
D02*
G37*
G36*
X60768D02*
X59788Y233400D01*
X58875Y233022D01*
X58091Y232421D01*
X57490Y231637D01*
X57112Y230724D01*
X56983Y229744D01*
X57112Y228764D01*
X57490Y227852D01*
X58091Y227068D01*
X58875Y226466D01*
X59788Y226088D01*
X60768Y225959D01*
X61747Y226088D01*
X62660Y226466D01*
X63444Y227068D01*
X64046Y227852D01*
X64424Y228764D01*
X64553Y229744D01*
X64424Y230724D01*
X64046Y231637D01*
X63444Y232421D01*
X62660Y233022D01*
X61747Y233400D01*
X60768Y233529D01*
D02*
G37*
G36*
X150787Y227407D02*
X149808Y227278D01*
X148895Y226900D01*
X148111Y226298D01*
X147509Y225515D01*
X147131Y224602D01*
X147002Y223622D01*
X147131Y222642D01*
X147509Y221729D01*
X148111Y220946D01*
X148895Y220344D01*
X149808Y219966D01*
X150787Y219837D01*
X151767Y219966D01*
X152680Y220344D01*
X153464Y220946D01*
X154065Y221729D01*
X154444Y222642D01*
X154572Y223622D01*
X154444Y224602D01*
X154065Y225515D01*
X153464Y226298D01*
X152680Y226900D01*
X151767Y227278D01*
X150787Y227407D01*
D02*
G37*
G36*
X120768Y223529D02*
X119788Y223400D01*
X118875Y223022D01*
X118091Y222421D01*
X117490Y221637D01*
X117112Y220724D01*
X116983Y219744D01*
X117112Y218764D01*
X117490Y217851D01*
X118091Y217068D01*
X118875Y216466D01*
X119788Y216088D01*
X120768Y215959D01*
X121747Y216088D01*
X122660Y216466D01*
X123444Y217068D01*
X124046Y217851D01*
X124424Y218764D01*
X124553Y219744D01*
X124424Y220724D01*
X124046Y221637D01*
X123444Y222421D01*
X122660Y223022D01*
X121747Y223400D01*
X120768Y223529D01*
D02*
G37*
G36*
X60768D02*
X59788Y223400D01*
X58875Y223022D01*
X58091Y222421D01*
X57490Y221637D01*
X57112Y220724D01*
X56983Y219744D01*
X57112Y218764D01*
X57490Y217851D01*
X58091Y217068D01*
X58875Y216466D01*
X59788Y216088D01*
X60768Y215959D01*
X61747Y216088D01*
X62660Y216466D01*
X63444Y217068D01*
X64046Y217851D01*
X64424Y218764D01*
X64553Y219744D01*
X64424Y220724D01*
X64046Y221637D01*
X63444Y222421D01*
X62660Y223022D01*
X61747Y223400D01*
X60768Y223529D01*
D02*
G37*
G36*
X150787Y217565D02*
X149808Y217436D01*
X148895Y217057D01*
X148111Y216456D01*
X147509Y215672D01*
X147131Y214759D01*
X147002Y213779D01*
X147131Y212800D01*
X147509Y211887D01*
X148111Y211103D01*
X148895Y210502D01*
X149808Y210123D01*
X150787Y209994D01*
X151767Y210123D01*
X152680Y210502D01*
X153464Y211103D01*
X154065Y211887D01*
X154444Y212800D01*
X154572Y213779D01*
X154444Y214759D01*
X154065Y215672D01*
X153464Y216456D01*
X152680Y217057D01*
X151767Y217436D01*
X150787Y217565D01*
D02*
G37*
G36*
X30315Y215202D02*
X29335Y215073D01*
X28422Y214695D01*
X27639Y214094D01*
X27037Y213310D01*
X26659Y212397D01*
X26530Y211417D01*
X26659Y210438D01*
X27037Y209525D01*
X27639Y208741D01*
X28422Y208139D01*
X29335Y207761D01*
X30315Y207632D01*
X31295Y207761D01*
X32208Y208139D01*
X32991Y208741D01*
X33593Y209525D01*
X33971Y210438D01*
X34100Y211417D01*
X33971Y212397D01*
X33593Y213310D01*
X32991Y214094D01*
X32208Y214695D01*
X31295Y215073D01*
X30315Y215202D01*
D02*
G37*
G36*
X120768Y213529D02*
X119788Y213400D01*
X118875Y213022D01*
X118091Y212421D01*
X117490Y211637D01*
X117112Y210724D01*
X116983Y209744D01*
X117112Y208764D01*
X117490Y207852D01*
X118091Y207068D01*
X118875Y206466D01*
X119788Y206088D01*
X120768Y205959D01*
X121747Y206088D01*
X122660Y206466D01*
X123444Y207068D01*
X124046Y207852D01*
X124424Y208764D01*
X124553Y209744D01*
X124424Y210724D01*
X124046Y211637D01*
X123444Y212421D01*
X122660Y213022D01*
X121747Y213400D01*
X120768Y213529D01*
D02*
G37*
G36*
X60768D02*
X59788Y213400D01*
X58875Y213022D01*
X58091Y212421D01*
X57490Y211637D01*
X57112Y210724D01*
X56983Y209744D01*
X57112Y208764D01*
X57490Y207852D01*
X58091Y207068D01*
X58875Y206466D01*
X59788Y206088D01*
X60768Y205959D01*
X61747Y206088D01*
X62660Y206466D01*
X63444Y207068D01*
X64046Y207852D01*
X64424Y208764D01*
X64553Y209744D01*
X64424Y210724D01*
X64046Y211637D01*
X63444Y212421D01*
X62660Y213022D01*
X61747Y213400D01*
X60768Y213529D01*
D02*
G37*
G36*
X150787Y207722D02*
X149808Y207593D01*
X148895Y207215D01*
X148111Y206613D01*
X147509Y205830D01*
X147131Y204917D01*
X147002Y203937D01*
X147131Y202957D01*
X147245Y202683D01*
X125924Y181363D01*
X124159D01*
X124046Y181637D01*
X123444Y182421D01*
X122660Y183022D01*
X121747Y183400D01*
X120768Y183529D01*
X119788Y183400D01*
X118875Y183022D01*
X118091Y182421D01*
X117490Y181637D01*
X117112Y180724D01*
X116983Y179744D01*
X117112Y178764D01*
X117490Y177851D01*
X118091Y177068D01*
X118875Y176466D01*
X119788Y176088D01*
X120768Y175959D01*
X121747Y176088D01*
X122660Y176466D01*
X123444Y177068D01*
X124046Y177851D01*
X124159Y178126D01*
X126594D01*
X127214Y178249D01*
X127739Y178600D01*
X149534Y200394D01*
X149808Y200281D01*
X150787Y200152D01*
X151767Y200281D01*
X152680Y200659D01*
X153464Y201260D01*
X154065Y202045D01*
X154444Y202957D01*
X154572Y203937D01*
X154444Y204917D01*
X154065Y205830D01*
X153464Y206613D01*
X152680Y207215D01*
X151767Y207593D01*
X150787Y207722D01*
D02*
G37*
G36*
X120768Y203529D02*
X119788Y203400D01*
X118875Y203022D01*
X118091Y202421D01*
X117490Y201637D01*
X117112Y200724D01*
X116983Y199744D01*
X117112Y198764D01*
X117490Y197852D01*
X118091Y197068D01*
X118875Y196466D01*
X119788Y196088D01*
X120768Y195959D01*
X121747Y196088D01*
X122660Y196466D01*
X123444Y197068D01*
X124046Y197852D01*
X124424Y198764D01*
X124553Y199744D01*
X124424Y200724D01*
X124046Y201637D01*
X123444Y202421D01*
X122660Y203022D01*
X121747Y203400D01*
X120768Y203529D01*
D02*
G37*
G36*
X150787Y197880D02*
X149808Y197751D01*
X148895Y197372D01*
X148111Y196771D01*
X147509Y195987D01*
X147131Y195074D01*
X147002Y194095D01*
X147131Y193115D01*
X147245Y192841D01*
X125767Y171363D01*
X124159D01*
X124046Y171637D01*
X123444Y172421D01*
X122660Y173022D01*
X121747Y173400D01*
X120768Y173529D01*
X119788Y173400D01*
X118875Y173022D01*
X118091Y172421D01*
X117490Y171637D01*
X117112Y170724D01*
X116983Y169744D01*
X117112Y168764D01*
X117490Y167851D01*
X118091Y167068D01*
X118875Y166466D01*
X119788Y166088D01*
X120768Y165959D01*
X121747Y166088D01*
X122660Y166466D01*
X123444Y167068D01*
X124046Y167851D01*
X124159Y168126D01*
X126437D01*
X127056Y168249D01*
X127581Y168600D01*
X149534Y190552D01*
X149808Y190438D01*
X150787Y190309D01*
X151767Y190438D01*
X152680Y190816D01*
X153464Y191418D01*
X154065Y192202D01*
X154444Y193115D01*
X154572Y194095D01*
X154444Y195074D01*
X154065Y195987D01*
X153464Y196771D01*
X152680Y197372D01*
X151767Y197751D01*
X150787Y197880D01*
D02*
G37*
G36*
X120768Y193529D02*
X119788Y193400D01*
X118875Y193022D01*
X118091Y192421D01*
X117490Y191637D01*
X117112Y190724D01*
X116983Y189744D01*
X117112Y188764D01*
X117490Y187852D01*
X118091Y187068D01*
X118875Y186466D01*
X119788Y186088D01*
X120768Y185959D01*
X121747Y186088D01*
X122660Y186466D01*
X123444Y187068D01*
X124046Y187852D01*
X124424Y188764D01*
X124553Y189744D01*
X124424Y190724D01*
X124046Y191637D01*
X123444Y192421D01*
X122660Y193022D01*
X121747Y193400D01*
X120768Y193529D01*
D02*
G37*
G36*
X42099Y189579D02*
X34594D01*
Y182074D01*
X42099D01*
Y189579D01*
D02*
G37*
G36*
X28346Y189612D02*
X27367Y189483D01*
X26454Y189105D01*
X25670Y188503D01*
X25068Y187719D01*
X24690Y186806D01*
X24561Y185827D01*
X24690Y184847D01*
X25068Y183934D01*
X25670Y183150D01*
X26454Y182549D01*
X27367Y182171D01*
X28346Y182042D01*
X29326Y182171D01*
X30239Y182549D01*
X31023Y183150D01*
X31624Y183934D01*
X32003Y184847D01*
X32132Y185827D01*
X32003Y186806D01*
X31624Y187719D01*
X31023Y188503D01*
X30239Y189105D01*
X29326Y189483D01*
X28346Y189612D01*
D02*
G37*
G36*
X18347D02*
X17367Y189483D01*
X16454Y189105D01*
X15670Y188503D01*
X15068Y187719D01*
X14690Y186806D01*
X14561Y185827D01*
X14690Y184847D01*
X14804Y184573D01*
X12071Y181841D01*
X11720Y181315D01*
X11597Y180696D01*
Y176807D01*
X11097Y176656D01*
X11024Y176766D01*
Y175197D01*
Y173628D01*
X11097Y173738D01*
X11373Y173718D01*
X11615Y173613D01*
X11720Y173082D01*
X12071Y172557D01*
X26029Y158600D01*
X26554Y158249D01*
X27173Y158126D01*
X57376D01*
X57490Y157852D01*
X58091Y157068D01*
X58875Y156466D01*
X59788Y156088D01*
X60768Y155959D01*
X61747Y156088D01*
X62660Y156466D01*
X63444Y157068D01*
X64046Y157852D01*
X64424Y158764D01*
X64553Y159744D01*
X64424Y160724D01*
X64046Y161637D01*
X63444Y162421D01*
X62660Y163022D01*
X61747Y163400D01*
X60768Y163529D01*
X59788Y163400D01*
X58875Y163022D01*
X58091Y162421D01*
X57490Y161637D01*
X57376Y161363D01*
X27844D01*
X17798Y171408D01*
X18032Y171881D01*
X18347Y171840D01*
X19378Y171976D01*
X20340Y172374D01*
X21166Y173008D01*
X21799Y173833D01*
X21973Y174252D01*
X18347D01*
Y175827D01*
X16772D01*
Y179453D01*
X16353Y179279D01*
X15527Y178646D01*
X15334Y178394D01*
X14834Y178564D01*
Y180026D01*
X17093Y182284D01*
X17367Y182171D01*
X18347Y182042D01*
X19326Y182171D01*
X20239Y182549D01*
X21023Y183150D01*
X21624Y183934D01*
X22003Y184847D01*
X22132Y185827D01*
X22003Y186806D01*
X21624Y187719D01*
X21023Y188503D01*
X20239Y189105D01*
X19326Y189483D01*
X18347Y189612D01*
D02*
G37*
G36*
X150787Y188037D02*
X149808Y187908D01*
X148895Y187530D01*
X148111Y186928D01*
X147509Y186144D01*
X147131Y185232D01*
X147002Y184252D01*
X147131Y183272D01*
X147509Y182359D01*
X148111Y181576D01*
X148895Y180974D01*
X149808Y180596D01*
X150787Y180467D01*
X151767Y180596D01*
X152680Y180974D01*
X153464Y181576D01*
X154065Y182359D01*
X154444Y183272D01*
X154572Y184252D01*
X154444Y185232D01*
X154065Y186144D01*
X153464Y186928D01*
X152680Y187530D01*
X151767Y187908D01*
X150787Y188037D01*
D02*
G37*
G36*
X19921Y179453D02*
Y177402D01*
X21973D01*
X21799Y177820D01*
X21166Y178646D01*
X20340Y179279D01*
X19921Y179453D01*
D02*
G37*
G36*
X60768Y183529D02*
X59788Y183400D01*
X58875Y183022D01*
X58091Y182421D01*
X57490Y181637D01*
X57112Y180724D01*
X56983Y179744D01*
X57112Y178764D01*
X57490Y177851D01*
X58091Y177068D01*
X58875Y176466D01*
X59788Y176088D01*
X60768Y175959D01*
X61747Y176088D01*
X62660Y176466D01*
X63444Y177068D01*
X64046Y177851D01*
X64424Y178764D01*
X64553Y179744D01*
X64424Y180724D01*
X64046Y181637D01*
X63444Y182421D01*
X62660Y183022D01*
X61747Y183400D01*
X60768Y183529D01*
D02*
G37*
G36*
X38346Y179612D02*
X37367Y179483D01*
X36454Y179105D01*
X35670Y178503D01*
X35068Y177719D01*
X34690Y176806D01*
X34561Y175827D01*
X34690Y174847D01*
X35068Y173934D01*
X35670Y173150D01*
X36454Y172549D01*
X37367Y172171D01*
X38346Y172042D01*
X39326Y172171D01*
X40239Y172549D01*
X41023Y173150D01*
X41625Y173934D01*
X42003Y174847D01*
X42132Y175827D01*
X42003Y176806D01*
X41625Y177719D01*
X41023Y178503D01*
X40239Y179105D01*
X39326Y179483D01*
X38346Y179612D01*
D02*
G37*
G36*
X28346D02*
X27367Y179483D01*
X26454Y179105D01*
X25670Y178503D01*
X25068Y177719D01*
X24690Y176806D01*
X24561Y175827D01*
X24690Y174847D01*
X25068Y173934D01*
X25670Y173150D01*
X26454Y172549D01*
X27367Y172171D01*
X28346Y172042D01*
X29326Y172171D01*
X30239Y172549D01*
X31023Y173150D01*
X31624Y173934D01*
X32003Y174847D01*
X32132Y175827D01*
X32003Y176806D01*
X31624Y177719D01*
X31023Y178503D01*
X30239Y179105D01*
X29326Y179483D01*
X28346Y179612D01*
D02*
G37*
G36*
X154540Y178162D02*
X147035D01*
Y170657D01*
X154540D01*
Y178162D01*
D02*
G37*
G36*
X30315Y225045D02*
X29335Y224916D01*
X28422Y224538D01*
X27639Y223936D01*
X27037Y223152D01*
X26659Y222239D01*
X26530Y221260D01*
X26659Y220280D01*
X27037Y219367D01*
X27639Y218583D01*
X28422Y217982D01*
X29335Y217604D01*
X30315Y217475D01*
X31295Y217604D01*
X31769Y217800D01*
X55762Y193808D01*
X56222Y193500D01*
X56765Y193392D01*
X58536D01*
X58706Y192892D01*
X58091Y192421D01*
X57490Y191637D01*
X57112Y190724D01*
X56983Y189744D01*
X57112Y188764D01*
X57490Y187852D01*
X58091Y187068D01*
X58875Y186466D01*
X59788Y186088D01*
X60768Y185959D01*
X61747Y186088D01*
X62660Y186466D01*
X63444Y187068D01*
X64046Y187852D01*
X64424Y188764D01*
X64553Y189744D01*
X64480Y190297D01*
X64954Y190531D01*
X67086Y188398D01*
Y173109D01*
X66792Y172913D01*
X66267Y172127D01*
X66083Y171201D01*
X66267Y170274D01*
X66792Y169489D01*
X67577Y168964D01*
X68504Y168779D01*
X69431Y168964D01*
X70216Y169489D01*
X70741Y170274D01*
X70925Y171201D01*
X70741Y172127D01*
X70216Y172913D01*
X69922Y173109D01*
Y188985D01*
X69814Y189528D01*
X69507Y189988D01*
X63682Y195813D01*
X63222Y196120D01*
X63070Y196150D01*
X62945Y196685D01*
X63444Y197068D01*
X64046Y197852D01*
X64424Y198764D01*
X64553Y199744D01*
X64424Y200724D01*
X64046Y201637D01*
X63444Y202421D01*
X62660Y203022D01*
X61747Y203400D01*
X60768Y203529D01*
X59788Y203400D01*
X58875Y203022D01*
X58091Y202421D01*
X57490Y201637D01*
X57112Y200724D01*
X56983Y199744D01*
X57112Y198764D01*
X57490Y197852D01*
X58091Y197068D01*
X58534Y196728D01*
X58364Y196228D01*
X57352D01*
X33775Y219805D01*
X33971Y220280D01*
X34100Y221260D01*
X33971Y222239D01*
X33593Y223152D01*
X32991Y223936D01*
X32208Y224538D01*
X31295Y224916D01*
X30315Y225045D01*
D02*
G37*
G36*
X60768Y173529D02*
X59788Y173400D01*
X58875Y173022D01*
X58091Y172421D01*
X57490Y171637D01*
X57112Y170724D01*
X56983Y169744D01*
X57112Y168764D01*
X57490Y167851D01*
X58091Y167068D01*
X58875Y166466D01*
X59788Y166088D01*
X60768Y165959D01*
X61747Y166088D01*
X62660Y166466D01*
X63444Y167068D01*
X64046Y167851D01*
X64424Y168764D01*
X64553Y169744D01*
X64424Y170724D01*
X64046Y171637D01*
X63444Y172421D01*
X62660Y173022D01*
X61747Y173400D01*
X60768Y173529D01*
D02*
G37*
G36*
X120768Y163529D02*
X119788Y163400D01*
X118875Y163022D01*
X118091Y162421D01*
X117490Y161637D01*
X117112Y160724D01*
X116983Y159744D01*
X117112Y158764D01*
X117490Y157852D01*
X118091Y157068D01*
X118875Y156466D01*
X119788Y156088D01*
X120768Y155959D01*
X121747Y156088D01*
X122660Y156466D01*
X123444Y157068D01*
X124046Y157852D01*
X124424Y158764D01*
X124553Y159744D01*
X124424Y160724D01*
X124046Y161637D01*
X123444Y162421D01*
X122660Y163022D01*
X121747Y163400D01*
X120768Y163529D01*
D02*
G37*
G36*
X33465Y151658D02*
Y149606D01*
X35516D01*
X35342Y150025D01*
X34709Y150851D01*
X33883Y151484D01*
X33465Y151658D01*
D02*
G37*
G36*
X30315D02*
X29896Y151484D01*
X29071Y150851D01*
X28437Y150025D01*
X28264Y149606D01*
X30315D01*
Y151658D01*
D02*
G37*
G36*
X150787Y154572D02*
X149808Y154444D01*
X148895Y154065D01*
X148111Y153464D01*
X147509Y152680D01*
X147131Y151767D01*
X147002Y150787D01*
X147131Y149808D01*
X147509Y148895D01*
X148111Y148111D01*
X148895Y147509D01*
X149808Y147131D01*
X150787Y147002D01*
X151767Y147131D01*
X152680Y147509D01*
X153464Y148111D01*
X154065Y148895D01*
X154444Y149808D01*
X154572Y150787D01*
X154444Y151767D01*
X154065Y152680D01*
X153464Y153464D01*
X152680Y154065D01*
X151767Y154444D01*
X150787Y154572D01*
D02*
G37*
G36*
X120768Y153529D02*
X119788Y153400D01*
X118875Y153022D01*
X118091Y152421D01*
X117490Y151637D01*
X117112Y150724D01*
X116983Y149744D01*
X117112Y148764D01*
X117490Y147852D01*
X118091Y147068D01*
X118875Y146466D01*
X119788Y146088D01*
X120768Y145959D01*
X121747Y146088D01*
X122660Y146466D01*
X123444Y147068D01*
X124046Y147852D01*
X124424Y148764D01*
X124553Y149744D01*
X124424Y150724D01*
X124046Y151637D01*
X123444Y152421D01*
X122660Y153022D01*
X121747Y153400D01*
X120768Y153529D01*
D02*
G37*
G36*
X60768D02*
X59788Y153400D01*
X58875Y153022D01*
X58091Y152421D01*
X57490Y151637D01*
X57112Y150724D01*
X56983Y149744D01*
X57112Y148764D01*
X57490Y147852D01*
X58091Y147068D01*
X58875Y146466D01*
X59788Y146088D01*
X60768Y145959D01*
X61747Y146088D01*
X62660Y146466D01*
X63444Y147068D01*
X64046Y147852D01*
X64424Y148764D01*
X64553Y149744D01*
X64424Y150724D01*
X64046Y151637D01*
X63444Y152421D01*
X62660Y153022D01*
X61747Y153400D01*
X60768Y153529D01*
D02*
G37*
G36*
X35516Y146457D02*
X33465D01*
Y144405D01*
X33883Y144579D01*
X34709Y145212D01*
X35342Y146038D01*
X35516Y146457D01*
D02*
G37*
G36*
X30315D02*
X28264D01*
X28437Y146038D01*
X29071Y145212D01*
X29896Y144579D01*
X30315Y144405D01*
Y146457D01*
D02*
G37*
G36*
X150787Y144730D02*
X149808Y144601D01*
X148895Y144223D01*
X148111Y143621D01*
X147509Y142837D01*
X147131Y141925D01*
X147002Y140945D01*
X147131Y139965D01*
X147509Y139052D01*
X148111Y138268D01*
X148895Y137667D01*
X149808Y137289D01*
X150787Y137160D01*
X151767Y137289D01*
X152680Y137667D01*
X153464Y138268D01*
X154065Y139052D01*
X154444Y139965D01*
X154572Y140945D01*
X154444Y141925D01*
X154065Y142837D01*
X153464Y143621D01*
X152680Y144223D01*
X151767Y144601D01*
X150787Y144730D01*
D02*
G37*
G36*
X106693Y170532D02*
X105766Y170347D01*
X104981Y169822D01*
X104456Y169037D01*
X104272Y168110D01*
X104456Y167184D01*
X104981Y166398D01*
X105074Y166335D01*
Y156995D01*
X104724Y156851D01*
Y155118D01*
Y153385D01*
X105074Y153241D01*
Y141145D01*
X104981Y141082D01*
X104456Y140297D01*
X104272Y139370D01*
X104456Y138444D01*
X104981Y137658D01*
X105766Y137133D01*
X106693Y136949D01*
X107620Y137133D01*
X108405Y137658D01*
X108930Y138444D01*
X109114Y139370D01*
X108930Y140297D01*
X108405Y141082D01*
X108311Y141145D01*
Y166335D01*
X108405Y166398D01*
X108930Y167184D01*
X109114Y168110D01*
X108930Y169037D01*
X108405Y169822D01*
X107620Y170347D01*
X106693Y170532D01*
D02*
G37*
G36*
X120768Y143529D02*
X119788Y143400D01*
X118875Y143022D01*
X118091Y142421D01*
X117490Y141637D01*
X117112Y140724D01*
X116983Y139744D01*
X117112Y138764D01*
X117490Y137852D01*
X118091Y137068D01*
X118875Y136466D01*
X119788Y136088D01*
X120768Y135959D01*
X121747Y136088D01*
X122660Y136466D01*
X123444Y137068D01*
X124046Y137852D01*
X124424Y138764D01*
X124553Y139744D01*
X124424Y140724D01*
X124046Y141637D01*
X123444Y142421D01*
X122660Y143022D01*
X121747Y143400D01*
X120768Y143529D01*
D02*
G37*
G36*
X60768D02*
X59788Y143400D01*
X58875Y143022D01*
X58091Y142421D01*
X57490Y141637D01*
X57112Y140724D01*
X56983Y139744D01*
X57112Y138764D01*
X57490Y137852D01*
X58091Y137068D01*
X58875Y136466D01*
X59788Y136088D01*
X60768Y135959D01*
X61747Y136088D01*
X62660Y136466D01*
X63444Y137068D01*
X64046Y137852D01*
X64424Y138764D01*
X64553Y139744D01*
X64424Y140724D01*
X64046Y141637D01*
X63444Y142421D01*
X62660Y143022D01*
X61747Y143400D01*
X60768Y143529D01*
D02*
G37*
G36*
X31890Y141974D02*
X30910Y141845D01*
X29997Y141467D01*
X29213Y140866D01*
X28612Y140082D01*
X28234Y139169D01*
X28105Y138189D01*
X28234Y137209D01*
X28612Y136296D01*
X29213Y135512D01*
X29997Y134911D01*
X30910Y134533D01*
X31890Y134404D01*
X32869Y134533D01*
X33782Y134911D01*
X34566Y135512D01*
X35168Y136296D01*
X35546Y137209D01*
X35675Y138189D01*
X35546Y139169D01*
X35168Y140082D01*
X34566Y140866D01*
X33782Y141467D01*
X32869Y141845D01*
X31890Y141974D01*
D02*
G37*
G36*
X112205Y177225D02*
X111278Y177040D01*
X110493Y176515D01*
X109968Y175730D01*
X109783Y174803D01*
X109968Y173877D01*
X110493Y173091D01*
X110586Y173028D01*
Y136420D01*
X110493Y136358D01*
X109968Y135572D01*
X109783Y134646D01*
X109968Y133719D01*
X110493Y132933D01*
X111278Y132409D01*
X112205Y132224D01*
X113131Y132409D01*
X113917Y132933D01*
X114442Y133719D01*
X114626Y134646D01*
X114442Y135572D01*
X113917Y136358D01*
X113823Y136420D01*
Y173028D01*
X113917Y173091D01*
X114442Y173877D01*
X114626Y174803D01*
X114442Y175730D01*
X113917Y176515D01*
X113131Y177040D01*
X112205Y177225D01*
D02*
G37*
G36*
X122343Y133370D02*
Y131319D01*
X124394D01*
X124220Y131737D01*
X123587Y132563D01*
X122761Y133197D01*
X122343Y133370D01*
D02*
G37*
G36*
X119193D02*
X118774Y133197D01*
X117949Y132563D01*
X117315Y131737D01*
X117142Y131319D01*
X119193D01*
Y133370D01*
D02*
G37*
G36*
X60768Y133529D02*
X59788Y133400D01*
X58875Y133022D01*
X58091Y132421D01*
X57490Y131637D01*
X57112Y130724D01*
X57104Y130664D01*
X34842D01*
X34566Y131023D01*
X33782Y131624D01*
X32869Y132003D01*
X31890Y132132D01*
X30910Y132003D01*
X29997Y131624D01*
X29213Y131023D01*
X28612Y130239D01*
X28234Y129326D01*
X28105Y128347D01*
X28234Y127367D01*
X28612Y126454D01*
X29213Y125670D01*
X29997Y125068D01*
X30910Y124690D01*
X31890Y124561D01*
X32869Y124690D01*
X33782Y125068D01*
X34566Y125670D01*
X35168Y126454D01*
X35546Y127367D01*
X35554Y127427D01*
X51650D01*
X51841Y126965D01*
X44131Y119255D01*
X43780Y118730D01*
X43657Y118110D01*
Y98308D01*
X33258Y87909D01*
X32283Y88037D01*
X31304Y87908D01*
X30391Y87530D01*
X29607Y86928D01*
X29006Y86145D01*
X28627Y85232D01*
X28498Y84252D01*
X28627Y83272D01*
X29006Y82359D01*
X29607Y81576D01*
X30391Y80974D01*
X31304Y80596D01*
X32283Y80467D01*
X33263Y80596D01*
X34176Y80974D01*
X34960Y81576D01*
X35561Y82359D01*
X35940Y83272D01*
X36069Y84252D01*
X35940Y85232D01*
X35711Y85784D01*
X43195Y93269D01*
X43657Y93077D01*
Y81658D01*
X43216Y81422D01*
X42977Y81582D01*
X42126Y81751D01*
X41275Y81582D01*
X40557Y81102D01*
X42126D01*
Y77953D01*
X40557D01*
X41275Y77473D01*
X42126Y77304D01*
X42977Y77473D01*
X43216Y77633D01*
X43657Y77397D01*
Y55001D01*
X32864Y44208D01*
X31890Y44336D01*
X30910Y44207D01*
X29997Y43829D01*
X29213Y43228D01*
X28612Y42444D01*
X28234Y41531D01*
X28105Y40551D01*
X28234Y39571D01*
X28612Y38659D01*
X29213Y37875D01*
X29997Y37273D01*
X30910Y36895D01*
X31890Y36766D01*
X32869Y36895D01*
X33782Y37273D01*
X34566Y37875D01*
X35168Y38659D01*
X35546Y39571D01*
X35675Y40551D01*
X35546Y41531D01*
X35317Y42083D01*
X46420Y53186D01*
X46771Y53711D01*
X46894Y54331D01*
Y97638D01*
Y117440D01*
X56881Y127427D01*
X57816D01*
X58091Y127068D01*
X58875Y126466D01*
X59788Y126088D01*
X60768Y125959D01*
X61747Y126088D01*
X62660Y126466D01*
X63444Y127068D01*
X64046Y127851D01*
X64424Y128764D01*
X64553Y129744D01*
X64424Y130724D01*
X64046Y131637D01*
X63444Y132421D01*
X62660Y133022D01*
X61747Y133400D01*
X60768Y133529D01*
D02*
G37*
G36*
X150787Y134888D02*
X149808Y134758D01*
X148895Y134380D01*
X148111Y133779D01*
X147509Y132995D01*
X147131Y132082D01*
X147002Y131102D01*
X147131Y130123D01*
X147509Y129210D01*
X148111Y128426D01*
X148895Y127824D01*
X149808Y127446D01*
X150787Y127317D01*
X151767Y127446D01*
X152680Y127824D01*
X153464Y128426D01*
X154065Y129210D01*
X154444Y130123D01*
X154572Y131102D01*
X154444Y132082D01*
X154065Y132995D01*
X153464Y133779D01*
X152680Y134380D01*
X151767Y134758D01*
X150787Y134888D01*
D02*
G37*
G36*
X124394Y128169D02*
X122343D01*
Y126118D01*
X122761Y126291D01*
X123587Y126925D01*
X124220Y127751D01*
X124394Y128169D01*
D02*
G37*
G36*
X119193D02*
X117142D01*
X117315Y127751D01*
X117949Y126925D01*
X118774Y126291D01*
X119193Y126118D01*
Y128169D01*
D02*
G37*
G36*
X152362Y124886D02*
Y122835D01*
X154413D01*
X154240Y123253D01*
X153606Y124079D01*
X152781Y124713D01*
X152362Y124886D01*
D02*
G37*
G36*
X149213Y124886D02*
X148794Y124713D01*
X147968Y124079D01*
X147335Y123253D01*
X147161Y122835D01*
X149213D01*
Y124886D01*
D02*
G37*
G36*
Y119685D02*
X147161D01*
X147335Y119266D01*
X147968Y118441D01*
X148794Y117807D01*
X149213Y117634D01*
Y119685D01*
D02*
G37*
G36*
X154413D02*
X152362D01*
Y117634D01*
X152781Y117807D01*
X153606Y118441D01*
X154240Y119266D01*
X154413Y119685D01*
D02*
G37*
G36*
X120768Y123529D02*
X119788Y123400D01*
X118875Y123022D01*
X118091Y122421D01*
X117490Y121637D01*
X117112Y120724D01*
X116983Y119744D01*
X117112Y118764D01*
X117490Y117851D01*
X118091Y117068D01*
X118875Y116466D01*
X119788Y116088D01*
X120768Y115959D01*
X121747Y116088D01*
X122660Y116466D01*
X123444Y117068D01*
X124046Y117851D01*
X124424Y118764D01*
X124553Y119744D01*
X124424Y120724D01*
X124046Y121637D01*
X123444Y122421D01*
X122660Y123022D01*
X121747Y123400D01*
X120768Y123529D01*
D02*
G37*
G36*
X60768D02*
X59788Y123400D01*
X58875Y123022D01*
X58091Y122421D01*
X57490Y121637D01*
X57112Y120724D01*
X56983Y119744D01*
X57112Y118764D01*
X57490Y117851D01*
X58091Y117068D01*
X58875Y116466D01*
X59788Y116088D01*
X60768Y115959D01*
X61747Y116088D01*
X62660Y116466D01*
X63444Y117068D01*
X64046Y117851D01*
X64424Y118764D01*
X64553Y119744D01*
X64424Y120724D01*
X64046Y121637D01*
X63444Y122421D01*
X62660Y123022D01*
X61747Y123400D01*
X60768Y123529D01*
D02*
G37*
G36*
X150787Y115202D02*
X149808Y115074D01*
X148895Y114695D01*
X148111Y114094D01*
X147509Y113310D01*
X147131Y112397D01*
X147002Y111417D01*
X147131Y110438D01*
X147509Y109525D01*
X148111Y108741D01*
X148895Y108139D01*
X149808Y107761D01*
X150787Y107632D01*
X151767Y107761D01*
X152680Y108139D01*
X153464Y108741D01*
X154065Y109525D01*
X154444Y110438D01*
X154572Y111417D01*
X154444Y112397D01*
X154065Y113310D01*
X153464Y114094D01*
X152680Y114695D01*
X151767Y115074D01*
X150787Y115202D01*
D02*
G37*
G36*
X120768Y113529D02*
X119788Y113400D01*
X118875Y113022D01*
X118091Y112421D01*
X117490Y111637D01*
X117112Y110724D01*
X116983Y109744D01*
X117112Y108764D01*
X117490Y107852D01*
X118091Y107068D01*
X118875Y106466D01*
X119788Y106088D01*
X120768Y105959D01*
X121747Y106088D01*
X122660Y106466D01*
X123444Y107068D01*
X124046Y107852D01*
X124424Y108764D01*
X124553Y109744D01*
X124424Y110724D01*
X124046Y111637D01*
X123444Y112421D01*
X122660Y113022D01*
X121747Y113400D01*
X120768Y113529D01*
D02*
G37*
G36*
X60768D02*
X59788Y113400D01*
X58875Y113022D01*
X58091Y112421D01*
X57490Y111637D01*
X57112Y110724D01*
X56983Y109744D01*
X57112Y108764D01*
X57490Y107852D01*
X58091Y107068D01*
X58875Y106466D01*
X59788Y106088D01*
X60768Y105959D01*
X61747Y106088D01*
X62660Y106466D01*
X63444Y107068D01*
X64046Y107852D01*
X64424Y108764D01*
X64553Y109744D01*
X64424Y110724D01*
X64046Y111637D01*
X63444Y112421D01*
X62660Y113022D01*
X61747Y113400D01*
X60768Y113529D01*
D02*
G37*
G36*
X33858Y107563D02*
Y105512D01*
X35910D01*
X35736Y105930D01*
X35103Y106756D01*
X34277Y107390D01*
X33858Y107563D01*
D02*
G37*
G36*
X30709D02*
X30290Y107390D01*
X29464Y106756D01*
X28831Y105930D01*
X28657Y105512D01*
X30709D01*
Y107563D01*
D02*
G37*
G36*
X35910Y102362D02*
X33858D01*
Y100311D01*
X34277Y100484D01*
X35103Y101118D01*
X35736Y101944D01*
X35910Y102362D01*
D02*
G37*
G36*
X30709D02*
X28657D01*
X28831Y101944D01*
X29464Y101118D01*
X30290Y100484D01*
X30709Y100311D01*
Y102362D01*
D02*
G37*
G36*
X150787Y105360D02*
X149808Y105231D01*
X148895Y104853D01*
X148111Y104251D01*
X147509Y103467D01*
X147131Y102555D01*
X147002Y101575D01*
X147131Y100595D01*
X147509Y99682D01*
X148111Y98898D01*
X148895Y98297D01*
X149808Y97919D01*
X150787Y97790D01*
X151767Y97919D01*
X152680Y98297D01*
X153464Y98898D01*
X154065Y99682D01*
X154444Y100595D01*
X154572Y101575D01*
X154444Y102555D01*
X154065Y103467D01*
X153464Y104251D01*
X152680Y104853D01*
X151767Y105231D01*
X150787Y105360D01*
D02*
G37*
G36*
X120768Y103529D02*
X119788Y103400D01*
X118875Y103022D01*
X118091Y102421D01*
X117490Y101637D01*
X117112Y100724D01*
X116983Y99744D01*
X117112Y98764D01*
X117490Y97852D01*
X118091Y97068D01*
X118875Y96466D01*
X119788Y96088D01*
X120768Y95959D01*
X121747Y96088D01*
X122660Y96466D01*
X123444Y97068D01*
X124046Y97852D01*
X124424Y98764D01*
X124553Y99744D01*
X124424Y100724D01*
X124046Y101637D01*
X123444Y102421D01*
X122660Y103022D01*
X121747Y103400D01*
X120768Y103529D01*
D02*
G37*
G36*
X60768D02*
X59788Y103400D01*
X58875Y103022D01*
X58091Y102421D01*
X57490Y101637D01*
X57112Y100724D01*
X56983Y99744D01*
X57112Y98764D01*
X57490Y97852D01*
X58091Y97068D01*
X58875Y96466D01*
X59788Y96088D01*
X60768Y95959D01*
X61747Y96088D01*
X62660Y96466D01*
X63444Y97068D01*
X64046Y97852D01*
X64424Y98764D01*
X64553Y99744D01*
X64424Y100724D01*
X64046Y101637D01*
X63444Y102421D01*
X62660Y103022D01*
X61747Y103400D01*
X60768Y103529D01*
D02*
G37*
G36*
X32283Y97880D02*
X31304Y97751D01*
X30391Y97373D01*
X29607Y96771D01*
X29005Y95987D01*
X28627Y95074D01*
X28498Y94095D01*
X28627Y93115D01*
X29005Y92202D01*
X29607Y91418D01*
X30391Y90816D01*
X31304Y90438D01*
X32283Y90309D01*
X33263Y90438D01*
X34176Y90816D01*
X34960Y91418D01*
X35561Y92202D01*
X35940Y93115D01*
X36069Y94095D01*
X35940Y95074D01*
X35561Y95987D01*
X34960Y96771D01*
X34176Y97373D01*
X33263Y97751D01*
X32283Y97880D01*
D02*
G37*
G36*
X150787Y95517D02*
X149808Y95388D01*
X148895Y95010D01*
X148111Y94409D01*
X147509Y93625D01*
X147131Y92712D01*
X147002Y91732D01*
X147131Y90753D01*
X147509Y89840D01*
X148111Y89056D01*
X148895Y88454D01*
X149808Y88076D01*
X150787Y87947D01*
X151767Y88076D01*
X152680Y88454D01*
X153464Y89056D01*
X154065Y89840D01*
X154444Y90753D01*
X154572Y91732D01*
X154444Y92712D01*
X154065Y93625D01*
X153464Y94409D01*
X152680Y95010D01*
X151767Y95388D01*
X150787Y95517D01*
D02*
G37*
G36*
X120768Y93529D02*
X119788Y93400D01*
X118875Y93022D01*
X118091Y92421D01*
X117490Y91637D01*
X117112Y90724D01*
X116983Y89744D01*
X117112Y88764D01*
X117490Y87852D01*
X118091Y87068D01*
X118875Y86466D01*
X119788Y86088D01*
X120768Y85959D01*
X121747Y86088D01*
X122660Y86466D01*
X123444Y87068D01*
X124046Y87852D01*
X124424Y88764D01*
X124553Y89744D01*
X124424Y90724D01*
X124046Y91637D01*
X123444Y92421D01*
X122660Y93022D01*
X121747Y93400D01*
X120768Y93529D01*
D02*
G37*
G36*
X60768D02*
X59788Y93400D01*
X58875Y93022D01*
X58091Y92421D01*
X57490Y91637D01*
X57112Y90724D01*
X56983Y89744D01*
X57112Y88764D01*
X57490Y87852D01*
X58091Y87068D01*
X58875Y86466D01*
X59788Y86088D01*
X60768Y85959D01*
X61747Y86088D01*
X62660Y86466D01*
X63444Y87068D01*
X64046Y87852D01*
X64424Y88764D01*
X64553Y89744D01*
X64424Y90724D01*
X64046Y91637D01*
X63444Y92421D01*
X62660Y93022D01*
X61747Y93400D01*
X60768Y93529D01*
D02*
G37*
G36*
X154740Y85843D02*
X152362D01*
Y83465D01*
X154740D01*
Y85843D01*
D02*
G37*
G36*
X149213D02*
X146835D01*
Y83465D01*
X149213D01*
Y85843D01*
D02*
G37*
G36*
X154740Y80315D02*
X152362D01*
Y77937D01*
X154740D01*
Y80315D01*
D02*
G37*
G36*
X149213D02*
X146835D01*
Y77937D01*
X149213D01*
Y80315D01*
D02*
G37*
G36*
X120768Y83529D02*
X119788Y83400D01*
X118875Y83022D01*
X118091Y82421D01*
X117490Y81637D01*
X117112Y80724D01*
X116983Y79744D01*
X117112Y78764D01*
X117490Y77851D01*
X118091Y77068D01*
X118875Y76466D01*
X119788Y76088D01*
X120768Y75959D01*
X121747Y76088D01*
X122660Y76466D01*
X123444Y77068D01*
X124046Y77851D01*
X124424Y78764D01*
X124553Y79744D01*
X124424Y80724D01*
X124046Y81637D01*
X123444Y82421D01*
X122660Y83022D01*
X121747Y83400D01*
X120768Y83529D01*
D02*
G37*
G36*
X60768D02*
X59788Y83400D01*
X58875Y83022D01*
X58091Y82421D01*
X57490Y81637D01*
X57112Y80724D01*
X56983Y79744D01*
X57112Y78764D01*
X57490Y77851D01*
X58091Y77068D01*
X58875Y76466D01*
X59788Y76088D01*
X60768Y75959D01*
X61747Y76088D01*
X62660Y76466D01*
X63444Y77068D01*
X64046Y77851D01*
X64424Y78764D01*
X64553Y79744D01*
X64424Y80724D01*
X64046Y81637D01*
X63444Y82421D01*
X62660Y83022D01*
X61747Y83400D01*
X60768Y83529D01*
D02*
G37*
G36*
X120768Y73529D02*
X119788Y73400D01*
X118875Y73022D01*
X118091Y72421D01*
X117490Y71637D01*
X117112Y70724D01*
X116983Y69744D01*
X117112Y68764D01*
X117490Y67852D01*
X118091Y67068D01*
X118875Y66466D01*
X119788Y66088D01*
X120768Y65959D01*
X121747Y66088D01*
X122660Y66466D01*
X123444Y67068D01*
X124046Y67852D01*
X124424Y68764D01*
X124553Y69744D01*
X124424Y70724D01*
X124046Y71637D01*
X123444Y72421D01*
X122660Y73022D01*
X121747Y73400D01*
X120768Y73529D01*
D02*
G37*
G36*
X60768D02*
X59788Y73400D01*
X58875Y73022D01*
X58091Y72421D01*
X57490Y71637D01*
X57112Y70724D01*
X56983Y69744D01*
X57112Y68764D01*
X57490Y67852D01*
X58091Y67068D01*
X58875Y66466D01*
X59788Y66088D01*
X60768Y65959D01*
X61747Y66088D01*
X62660Y66466D01*
X63444Y67068D01*
X64046Y67852D01*
X64424Y68764D01*
X64553Y69744D01*
X64424Y70724D01*
X64046Y71637D01*
X63444Y72421D01*
X62660Y73022D01*
X61747Y73400D01*
X60768Y73529D01*
D02*
G37*
G36*
X33465Y63862D02*
Y61811D01*
X35516D01*
X35342Y62230D01*
X34709Y63055D01*
X33883Y63689D01*
X33465Y63862D01*
D02*
G37*
G36*
X30315D02*
X29896Y63689D01*
X29071Y63055D01*
X28437Y62230D01*
X28264Y61811D01*
X30315D01*
Y63862D01*
D02*
G37*
G36*
X35516Y58661D02*
X33465D01*
Y56610D01*
X33883Y56783D01*
X34709Y57417D01*
X35342Y58243D01*
X35516Y58661D01*
D02*
G37*
G36*
X30315D02*
X28264D01*
X28437Y58243D01*
X29071Y57417D01*
X29896Y56783D01*
X30315Y56610D01*
Y58661D01*
D02*
G37*
G36*
X120768Y63529D02*
X119788Y63400D01*
X118875Y63022D01*
X118091Y62421D01*
X117490Y61637D01*
X117112Y60724D01*
X116983Y59744D01*
X117112Y58764D01*
X117490Y57851D01*
X118091Y57068D01*
X118875Y56466D01*
X119788Y56088D01*
X120768Y55959D01*
X121747Y56088D01*
X122660Y56466D01*
X123444Y57068D01*
X124046Y57851D01*
X124424Y58764D01*
X124553Y59744D01*
X124424Y60724D01*
X124046Y61637D01*
X123444Y62421D01*
X122660Y63022D01*
X121747Y63400D01*
X120768Y63529D01*
D02*
G37*
G36*
X60768D02*
X59788Y63400D01*
X58875Y63022D01*
X58091Y62421D01*
X57490Y61637D01*
X57112Y60724D01*
X56983Y59744D01*
X57112Y58764D01*
X57490Y57851D01*
X58091Y57068D01*
X58875Y56466D01*
X59788Y56088D01*
X60768Y55959D01*
X61747Y56088D01*
X62660Y56466D01*
X63444Y57068D01*
X64046Y57851D01*
X64424Y58764D01*
X64553Y59744D01*
X64424Y60724D01*
X64046Y61637D01*
X63444Y62421D01*
X62660Y63022D01*
X61747Y63400D01*
X60768Y63529D01*
D02*
G37*
G36*
X149213Y60084D02*
X148233Y59955D01*
X147320Y59577D01*
X146536Y58976D01*
X145935Y58192D01*
X145556Y57279D01*
X145428Y56299D01*
X145556Y55319D01*
X145935Y54407D01*
X146536Y53623D01*
X147320Y53021D01*
X148233Y52643D01*
X149213Y52514D01*
X150192Y52643D01*
X151105Y53021D01*
X151889Y53623D01*
X152491Y54407D01*
X152869Y55319D01*
X152998Y56299D01*
X152869Y57279D01*
X152491Y58192D01*
X151889Y58976D01*
X151105Y59577D01*
X150192Y59955D01*
X149213Y60084D01*
D02*
G37*
G36*
X31890Y54179D02*
X30910Y54050D01*
X29997Y53672D01*
X29213Y53070D01*
X28612Y52286D01*
X28234Y51373D01*
X28105Y50394D01*
X28234Y49414D01*
X28612Y48501D01*
X29213Y47717D01*
X29997Y47116D01*
X30910Y46738D01*
X31890Y46609D01*
X32869Y46738D01*
X33782Y47116D01*
X34566Y47717D01*
X35168Y48501D01*
X35546Y49414D01*
X35675Y50394D01*
X35546Y51373D01*
X35168Y52286D01*
X34566Y53070D01*
X33782Y53672D01*
X32869Y54050D01*
X31890Y54179D01*
D02*
G37*
G36*
X120768Y53529D02*
X119788Y53400D01*
X118875Y53022D01*
X118091Y52421D01*
X117490Y51637D01*
X117112Y50724D01*
X116983Y49744D01*
X117112Y48764D01*
X117490Y47851D01*
X118091Y47068D01*
X118875Y46466D01*
X119788Y46088D01*
X120768Y45959D01*
X121747Y46088D01*
X122660Y46466D01*
X123444Y47068D01*
X124046Y47851D01*
X124424Y48764D01*
X124553Y49744D01*
X124424Y50724D01*
X124046Y51637D01*
X123444Y52421D01*
X122660Y53022D01*
X121747Y53400D01*
X120768Y53529D01*
D02*
G37*
G36*
X60768D02*
X59788Y53400D01*
X58875Y53022D01*
X58091Y52421D01*
X57490Y51637D01*
X57112Y50724D01*
X56983Y49744D01*
X57112Y48764D01*
X57490Y47851D01*
X58091Y47068D01*
X58875Y46466D01*
X59788Y46088D01*
X60768Y45959D01*
X61747Y46088D01*
X62660Y46466D01*
X63444Y47068D01*
X64046Y47851D01*
X64159Y48126D01*
X98404D01*
X118541Y27989D01*
X119066Y27639D01*
X119685Y27515D01*
X131890D01*
X132509Y27639D01*
X133034Y27989D01*
X147959Y42914D01*
X148233Y42801D01*
X149213Y42672D01*
X150192Y42801D01*
X151105Y43179D01*
X151889Y43780D01*
X152491Y44564D01*
X152869Y45477D01*
X152998Y46457D01*
X152869Y47436D01*
X152491Y48349D01*
X151889Y49133D01*
X151105Y49735D01*
X150192Y50113D01*
X149213Y50242D01*
X148233Y50113D01*
X147320Y49735D01*
X146536Y49133D01*
X145935Y48349D01*
X145556Y47436D01*
X145428Y46457D01*
X145556Y45477D01*
X145670Y45203D01*
X131219Y30752D01*
X120355D01*
X100219Y50889D01*
X99694Y51239D01*
X99075Y51363D01*
X77621D01*
X77508Y51575D01*
X73673D01*
X73560Y51363D01*
X64159D01*
X64046Y51637D01*
X63444Y52421D01*
X62660Y53022D01*
X61747Y53400D01*
X60768Y53529D01*
D02*
G37*
G36*
X150787Y40240D02*
Y38189D01*
X152839D01*
X152665Y38608D01*
X152032Y39433D01*
X151206Y40067D01*
X150787Y40240D01*
D02*
G37*
G36*
X147638Y40240D02*
X147219Y40067D01*
X146394Y39433D01*
X145760Y38608D01*
X145587Y38189D01*
X147638D01*
Y40240D01*
D02*
G37*
G36*
X120768Y43529D02*
X119788Y43400D01*
X118875Y43022D01*
X118091Y42421D01*
X117490Y41637D01*
X117112Y40724D01*
X116983Y39744D01*
X117112Y38764D01*
X117490Y37852D01*
X118091Y37068D01*
X118875Y36466D01*
X119788Y36088D01*
X120768Y35959D01*
X121747Y36088D01*
X122660Y36466D01*
X123444Y37068D01*
X124046Y37852D01*
X124424Y38764D01*
X124553Y39744D01*
X124424Y40724D01*
X124046Y41637D01*
X123444Y42421D01*
X122660Y43022D01*
X121747Y43400D01*
X120768Y43529D01*
D02*
G37*
G36*
X152839Y35039D02*
X150787D01*
Y32988D01*
X151206Y33161D01*
X152032Y33795D01*
X152665Y34621D01*
X152839Y35039D01*
D02*
G37*
G36*
X147638D02*
X145587D01*
X145760Y34621D01*
X146394Y33795D01*
X147219Y33161D01*
X147638Y32988D01*
Y35039D01*
D02*
G37*
G36*
X113386Y17799D02*
Y15748D01*
X115437D01*
X115264Y16167D01*
X114630Y16992D01*
X113804Y17626D01*
X113386Y17799D01*
D02*
G37*
G36*
X110236Y17799D02*
X109818Y17626D01*
X108992Y16992D01*
X108358Y16167D01*
X108185Y15748D01*
X110236D01*
Y17799D01*
D02*
G37*
G36*
X87008Y17406D02*
Y15354D01*
X89059D01*
X88886Y15773D01*
X88252Y16599D01*
X87427Y17232D01*
X87008Y17406D01*
D02*
G37*
G36*
X83858D02*
X83440Y17232D01*
X82614Y16599D01*
X81980Y15773D01*
X81807Y15354D01*
X83858D01*
Y17406D01*
D02*
G37*
G36*
X115437Y12598D02*
X113386D01*
Y10547D01*
X113804Y10721D01*
X114630Y11354D01*
X115264Y12180D01*
X115437Y12598D01*
D02*
G37*
G36*
X110236D02*
X108185D01*
X108358Y12180D01*
X108992Y11354D01*
X109818Y10721D01*
X110236Y10547D01*
Y12598D01*
D02*
G37*
G36*
X131496Y17958D02*
X130516Y17829D01*
X129604Y17451D01*
X128820Y16850D01*
X128218Y16066D01*
X127840Y15153D01*
X127711Y14173D01*
X127840Y13194D01*
X128218Y12281D01*
X128820Y11497D01*
X129604Y10895D01*
X130516Y10517D01*
X131496Y10388D01*
X132476Y10517D01*
X133389Y10895D01*
X134173Y11497D01*
X134774Y12281D01*
X135152Y13194D01*
X135281Y14173D01*
X135152Y15153D01*
X134774Y16066D01*
X134173Y16850D01*
X133389Y17451D01*
X132476Y17829D01*
X131496Y17958D01*
D02*
G37*
G36*
X60768Y43529D02*
X59788Y43400D01*
X58875Y43022D01*
X58091Y42421D01*
X57490Y41637D01*
X57112Y40724D01*
X56983Y39744D01*
X57112Y38764D01*
X57490Y37852D01*
X58091Y37068D01*
X58875Y36466D01*
X59788Y36088D01*
X60768Y35959D01*
X61747Y36088D01*
X62660Y36466D01*
X63444Y37068D01*
X64046Y37852D01*
X64159Y38126D01*
X95412D01*
X118111Y15427D01*
X117997Y15153D01*
X117868Y14173D01*
X117997Y13194D01*
X118376Y12281D01*
X118977Y11497D01*
X119761Y10895D01*
X120674Y10517D01*
X121653Y10388D01*
X122633Y10517D01*
X123546Y10895D01*
X124330Y11497D01*
X124932Y12281D01*
X125310Y13194D01*
X125439Y14173D01*
X125310Y15153D01*
X124932Y16066D01*
X124330Y16850D01*
X123546Y17451D01*
X122633Y17829D01*
X121653Y17958D01*
X120674Y17829D01*
X120400Y17716D01*
X110091Y28025D01*
X110256Y28567D01*
X110694Y28654D01*
X111412Y29134D01*
X109843D01*
Y30709D01*
X108268D01*
Y32278D01*
X107788Y31560D01*
X107701Y31122D01*
X107158Y30957D01*
X97227Y40889D01*
X96702Y41239D01*
X96083Y41363D01*
X64159D01*
X64046Y41637D01*
X63444Y42421D01*
X62660Y43022D01*
X61747Y43400D01*
X60768Y43529D01*
D02*
G37*
G36*
X89059Y12205D02*
X87008D01*
Y10153D01*
X87427Y10327D01*
X88252Y10960D01*
X88886Y11786D01*
X89059Y12205D01*
D02*
G37*
G36*
X83858D02*
X81807D01*
X81980Y11786D01*
X82614Y10960D01*
X83440Y10327D01*
X83858Y10153D01*
Y12205D01*
D02*
G37*
G36*
X75590Y17565D02*
X74611Y17436D01*
X73698Y17058D01*
X72914Y16456D01*
X72312Y15672D01*
X71934Y14759D01*
X71805Y13780D01*
X71934Y12800D01*
X72312Y11887D01*
X72914Y11103D01*
X73698Y10502D01*
X74611Y10123D01*
X75590Y9994D01*
X76570Y10123D01*
X77483Y10502D01*
X78267Y11103D01*
X78869Y11887D01*
X79247Y12800D01*
X79376Y13780D01*
X79247Y14759D01*
X78869Y15672D01*
X78267Y16456D01*
X77483Y17058D01*
X76570Y17436D01*
X75590Y17565D01*
D02*
G37*
G36*
X65748D02*
X64768Y17436D01*
X63855Y17058D01*
X63072Y16456D01*
X62470Y15672D01*
X62092Y14759D01*
X61963Y13780D01*
X62092Y12800D01*
X62470Y11887D01*
X63072Y11103D01*
X63855Y10502D01*
X64768Y10123D01*
X65748Y9994D01*
X66728Y10123D01*
X67641Y10502D01*
X68424Y11103D01*
X69026Y11887D01*
X69404Y12800D01*
X69533Y13780D01*
X69404Y14759D01*
X69026Y15672D01*
X68424Y16456D01*
X67641Y17058D01*
X66728Y17436D01*
X65748Y17565D01*
D02*
G37*
G36*
X55905D02*
X54926Y17436D01*
X54013Y17058D01*
X53229Y16456D01*
X52627Y15672D01*
X52249Y14759D01*
X52120Y13780D01*
X52249Y12800D01*
X52627Y11887D01*
X53229Y11103D01*
X54013Y10502D01*
X54926Y10123D01*
X55905Y9994D01*
X56885Y10123D01*
X57798Y10502D01*
X58582Y11103D01*
X59184Y11887D01*
X59562Y12800D01*
X59691Y13780D01*
X59562Y14759D01*
X59184Y15672D01*
X58582Y16456D01*
X57798Y17058D01*
X56885Y17436D01*
X55905Y17565D01*
D02*
G37*
G36*
X46063D02*
X45083Y17436D01*
X44170Y17058D01*
X43387Y16456D01*
X42785Y15672D01*
X42407Y14759D01*
X42278Y13780D01*
X42407Y12800D01*
X42785Y11887D01*
X43387Y11103D01*
X44170Y10502D01*
X45083Y10123D01*
X46063Y9994D01*
X47043Y10123D01*
X47956Y10502D01*
X48739Y11103D01*
X49341Y11887D01*
X49719Y12800D01*
X49848Y13780D01*
X49719Y14759D01*
X49341Y15672D01*
X48739Y16456D01*
X47956Y17058D01*
X47043Y17436D01*
X46063Y17565D01*
D02*
G37*
%LPD*%
D35*
X126594Y179744D02*
X150787Y203937D01*
X120768Y179744D02*
X126594D01*
X126437Y169744D02*
X150787Y194095D01*
X120768Y169744D02*
X126437D01*
X31496Y128347D02*
X32195Y129045D01*
X31890Y84252D02*
X45276Y97638D01*
X31496Y40551D02*
X45276Y54331D01*
X119685Y29134D02*
X131890D01*
X149213Y46457D01*
X99075Y49744D02*
X119685Y29134D01*
X60768Y49744D02*
X99075D01*
X96083Y39744D02*
X121653Y14173D01*
X60768Y39744D02*
X96083D01*
X45276Y54331D02*
Y97638D01*
Y118110D01*
X56211Y129045D02*
X60069D01*
X32195D02*
X56211D01*
X45276Y118110D02*
X56211Y129045D01*
X60069D02*
X60768Y129744D01*
X27173Y159744D02*
X60768D01*
X13216Y173702D02*
X27173Y159744D01*
X13216Y173702D02*
Y180696D01*
X18347Y185827D01*
X112205Y134646D02*
Y174803D01*
X106693Y139370D02*
Y168110D01*
X100394Y250000D02*
X100650Y249744D01*
X120768D01*
D36*
X68504Y171201D02*
Y188985D01*
X62679Y194810D02*
X68504Y188985D01*
X56765Y194810D02*
X62679D01*
X30315Y221260D02*
X56765Y194810D01*
D37*
X108563Y340551D02*
X128347Y320768D01*
Y280709D02*
Y320768D01*
D40*
X60768Y269744D02*
D03*
Y259744D02*
D03*
Y249744D02*
D03*
Y239744D02*
D03*
Y229744D02*
D03*
Y219744D02*
D03*
Y209744D02*
D03*
Y199744D02*
D03*
Y189744D02*
D03*
Y179744D02*
D03*
Y169744D02*
D03*
Y159744D02*
D03*
Y149744D02*
D03*
Y139744D02*
D03*
X120768D02*
D03*
Y149744D02*
D03*
Y159744D02*
D03*
Y169744D02*
D03*
Y179744D02*
D03*
Y189744D02*
D03*
Y199744D02*
D03*
Y209744D02*
D03*
Y219744D02*
D03*
Y229744D02*
D03*
Y239744D02*
D03*
X60768Y119744D02*
D03*
Y109744D02*
D03*
Y99744D02*
D03*
Y89744D02*
D03*
Y79744D02*
D03*
Y69744D02*
D03*
Y59744D02*
D03*
Y49744D02*
D03*
Y39744D02*
D03*
X120768D02*
D03*
Y49744D02*
D03*
Y59744D02*
D03*
Y69744D02*
D03*
Y79744D02*
D03*
Y89744D02*
D03*
Y99744D02*
D03*
X60768Y129744D02*
D03*
X120768Y249744D02*
D03*
Y259744D02*
D03*
Y269744D02*
D03*
Y129744D02*
D03*
Y119744D02*
D03*
Y109744D02*
D03*
X49213Y289370D02*
D03*
X31890Y148031D02*
D03*
Y138189D02*
D03*
X31890Y128347D02*
D03*
X85433Y13780D02*
D03*
X75590D02*
D03*
X65748D02*
D03*
X55905D02*
D03*
X46063D02*
D03*
X155512Y287087D02*
D03*
Y297087D02*
D03*
Y307087D02*
D03*
X145512Y287087D02*
D03*
Y297087D02*
D03*
Y307087D02*
D03*
Y317087D02*
D03*
X155512D02*
D03*
Y327087D02*
D03*
X35433Y310709D02*
D03*
Y320709D02*
D03*
Y330709D02*
D03*
X25433Y310709D02*
D03*
Y320709D02*
D03*
Y330709D02*
D03*
Y340709D02*
D03*
X35433D02*
D03*
Y350709D02*
D03*
X32283Y103937D02*
D03*
Y94095D02*
D03*
X32283Y84252D02*
D03*
X31890Y60236D02*
D03*
Y50394D02*
D03*
X31890Y40551D02*
D03*
X150787Y91732D02*
D03*
Y101575D02*
D03*
Y111417D02*
D03*
Y121260D02*
D03*
Y131102D02*
D03*
Y140945D02*
D03*
Y150787D02*
D03*
X18347Y175827D02*
D03*
X28346D02*
D03*
X38346D02*
D03*
X18347Y185827D02*
D03*
X28346D02*
D03*
X150787Y184252D02*
D03*
Y194095D02*
D03*
Y203937D02*
D03*
Y213779D02*
D03*
Y223622D02*
D03*
Y233465D02*
D03*
Y243307D02*
D03*
X30315Y270472D02*
D03*
Y260630D02*
D03*
Y250787D02*
D03*
Y240945D02*
D03*
Y231102D02*
D03*
Y221260D02*
D03*
Y211417D02*
D03*
X111811Y14173D02*
D03*
X121653D02*
D03*
X131496Y14173D02*
D03*
X135433Y357874D02*
D03*
X125591D02*
D03*
X149213Y36614D02*
D03*
Y46457D02*
D03*
X149213Y56299D02*
D03*
D41*
X59213Y289370D02*
D03*
X38346Y185827D02*
D03*
D42*
X145512Y327087D02*
D03*
X25433Y350709D02*
D03*
X150787Y81890D02*
D03*
Y174409D02*
D03*
X30315Y280315D02*
D03*
D43*
X166142Y379921D02*
D03*
X14173Y379528D02*
D03*
X14961Y14567D02*
D03*
X166929Y14173D02*
D03*
D44*
X64567Y280315D02*
D03*
X116929Y354724D02*
D03*
X44882Y368110D02*
D03*
X95276Y262992D02*
D03*
X160630Y218898D02*
D03*
X103150Y155118D02*
D03*
X93307Y44488D02*
D03*
X31890Y23622D02*
D03*
X144882Y14173D02*
D03*
X165354Y45276D02*
D03*
X97638Y110630D02*
D03*
X37008Y299213D02*
D03*
X64173Y346457D02*
D03*
X122047Y343701D02*
D03*
X125197Y370866D02*
D03*
X110630Y365748D02*
D03*
X62992Y24409D02*
D03*
X102756Y14961D02*
D03*
X143701Y115748D02*
D03*
X18898Y274803D02*
D03*
X142520Y26378D02*
D03*
X139764Y57480D02*
D03*
X161811Y89764D02*
D03*
X118898Y320079D02*
D03*
X67716Y321260D02*
D03*
X65748Y333071D02*
D03*
X167323Y270866D02*
D03*
X166535Y318898D02*
D03*
X138976Y312205D02*
D03*
X18504Y320866D02*
D03*
X12598Y265748D02*
D03*
X22835Y246850D02*
D03*
X46850Y190551D02*
D03*
X28740Y204331D02*
D03*
X9055Y133465D02*
D03*
X15354Y96850D02*
D03*
X15748Y57874D02*
D03*
X86221Y24803D02*
D03*
X129134Y137402D02*
D03*
X22441Y142520D02*
D03*
X42126Y79528D02*
D03*
X52756Y86614D02*
D03*
X18110Y113779D02*
D03*
X50787Y106299D02*
D03*
X48031Y140157D02*
D03*
X92126Y348819D02*
D03*
X22933Y358268D02*
D03*
X76378Y259842D02*
D03*
X75984Y235039D02*
D03*
X95669Y219685D02*
D03*
X75591Y198425D02*
D03*
X97244Y187402D02*
D03*
X13484Y299114D02*
D03*
X64961Y298425D02*
D03*
X43307Y283071D02*
D03*
X12894Y229331D02*
D03*
X9449Y175197D02*
D03*
X12598Y165354D02*
D03*
X42520Y147244D02*
D03*
X32677Y113386D02*
D03*
X15748Y31496D02*
D03*
X28740Y73622D02*
D03*
X89764Y166929D02*
D03*
X74803Y133071D02*
D03*
Y92126D02*
D03*
X75590Y53150D02*
D03*
X100394Y63386D02*
D03*
X51575Y37008D02*
D03*
X109843Y30709D02*
D03*
X161811Y70079D02*
D03*
X142913Y74016D02*
D03*
X163386Y162205D02*
D03*
X161024Y122047D02*
D03*
X138583Y155905D02*
D03*
X142520Y201969D02*
D03*
X141339Y251181D02*
D03*
X151575Y264961D02*
D03*
X142520Y277953D02*
D03*
X136614Y294488D02*
D03*
X162205Y352756D02*
D03*
X79921Y377559D02*
D03*
X134252Y382677D02*
D03*
X44488Y322539D02*
D03*
X103937Y277559D02*
D03*
X107480Y302756D02*
D03*
X126378Y329528D02*
D03*
X90551Y321260D02*
D03*
X80709Y287402D02*
D03*
X44088Y384849D02*
D03*
D45*
X68504Y171201D02*
D03*
X112205Y174803D02*
D03*
Y134646D02*
D03*
X106693Y139370D02*
D03*
Y168110D02*
D03*
X100394Y250000D02*
D03*
D46*
X128347Y280709D02*
D03*
X108563Y340551D02*
D03*
M02*
