M48
;Layer_Color=9474304
;FILE_FORMAT=2:5
INCH,LZ
;TYPE=PLATED
T1F00S00C0.01181
T2F00S00C0.01575
T3F00S00C0.02800
T4F00S00C0.03543
T5F00S00C0.04000
T6F00S00C0.04016
T7F00S00C0.13780
%
T01
X0015748Y0031496
X003189Y0023622
X0062992Y0024409
X0086221Y0024803
X0093307Y0044488
X007559Y005315
X0051575Y0037008
X0109843Y0030709
X0102756Y0014961
X0144882Y0014173
X014252Y0026378
X0165354Y0045276
X0161811Y0070079
Y0089764
X0161024Y0122047
X0143701Y0115748
X0129134Y0137402
X0138583Y0155905
X0163386Y0162205
X014252Y0201969
X010315Y0155118
X0100394Y0063386
X0139764Y005748
X0142913Y0074016
X0097638Y011063
X0074803Y0092126
X0052756Y0086614
X0042126Y0079528
X002874Y0073622
X0015748Y0057874
X0015354Y009685
X001811Y0113779
X0032677Y0113386
X0050787Y0106299
X0048031Y0140157
X004252Y0147244
X0022441Y014252
X0009055Y0133465
X0012598Y0165354
X0009449Y0175197
X002874Y0204331
X004685Y0190551
X0075591Y0198425
X0097244Y0187402
X0089764Y0166929
X0074803Y0133071
X0075984Y0235039
X0076378Y0259842
X0095276Y0262992
X0080709Y0287402
X0064567Y0280315
X0064961Y0298425
X0067716Y032126
X0065748Y0333071
X0064173Y0346457
X0092126Y0348819
X0090551Y032126
X0044488Y0322539
X0018504Y0320866
X0013484Y0299114
X0037008Y0299213
X0043307Y0283071
X0018898Y0274803
X0012598Y0265748
X0022835Y024685
X0012894Y0229331
X0095669Y0219685
X0044882Y036811
X0022933Y0358268
X011063Y0365748
X0116929Y0354724
X0122047Y0343701
X0126378Y0329528
X0118898Y0320079
X0138976Y0312205
X0136614Y0294488
X014252Y0277953
X0151575Y0264961
X0167323Y0270866
X0141339Y0251181
X016063Y0218898
X0166535Y0318898
X0162205Y0352756
X010748Y0302756
X0103937Y0277559
X0125197Y0370866
X0134252Y0382677
X0079921Y0377559
X0044088Y0384849
T02
X0106693Y013937
X0112205Y0134646
X0106693Y016811
X0112205Y0174803
X0068504Y0171201
X0100394Y025
T03
X0128347Y0280709
X0108563Y0340551
T04
X0046063Y001378
X0055905
X0065748
X007559
X0085433
X003189Y0040551
X003189Y0050394
X0111811Y0014173
X0121653
X0131496Y0014173
X0149213Y0036614
Y0046457
X0149213Y0056299
X0150787Y008189
Y0091732
Y0101575
Y0111417
Y012126
Y0131102
Y0140945
Y0150787
Y0174409
Y0184252
Y0194095
Y0203937
X0030315Y0211417
X003189Y0148031
Y0138189
X003189Y0128347
X0032283Y0103937
Y0094095
X0032283Y0084252
X003189Y0060236
X0030315Y022126
Y0231102
Y0240945
Y0250787
Y026063
Y0270472
Y0280315
X0150787Y0243307
Y0233465
Y0223622
Y0213779
X0135433Y0357874
X0125591
T05
X0060768Y0039744
Y0049744
X0120768
Y0039744
Y0059744
Y0069744
Y0079744
Y0089744
Y0099744
Y0109744
Y0119744
Y0129744
Y0139744
Y0149744
Y0159744
Y0169744
Y0179744
Y0189744
Y0199744
Y0209744
X0060768
Y0199744
Y0189744
Y0179744
Y0169744
Y0159744
Y0149744
Y0139744
Y0129744
Y0119744
Y0109744
Y0099744
Y0089744
Y0079744
Y0069744
Y0059744
Y0219744
Y0229744
Y0239744
Y0249744
Y0259744
Y0269744
X0120768
Y0259744
Y0249744
Y0239744
Y0229744
Y0219744
T06
X0018347Y0175827
X0028346
X0038346
Y0185827
X0028346
X0018347
X0025433Y0310709
X0035433
Y0320709
Y0330709
X0025433
Y0320709
Y0340709
Y0350709
X0035433
Y0340709
X0049213Y028937
X0059213
X0145512Y0287087
X0155512
Y0297087
Y0307087
X0145512
Y0297087
Y0317087
Y0327087
X0155512
Y0317087
T07
X0014961Y0014567
X0166929Y0014173
X0166142Y0379921
X0014173Y0379528
M30
