G04*
G04 #@! TF.GenerationSoftware,Altium Limited,Altium Designer,20.0.12 (288)*
G04*
G04 Layer_Physical_Order=2*
G04 Layer_Color=16711680*
%FSLAX25Y25*%
%MOIN*%
G70*
G01*
G75*
%ADD42C,0.01575*%
%ADD44C,0.03937*%
%ADD53R,0.05906X0.05906*%
%ADD54C,0.05906*%
%ADD55C,0.25197*%
%ADD56C,0.11811*%
%ADD57C,0.02362*%
%ADD58C,0.05000*%
G36*
X389764Y316929D02*
X418209Y316929D01*
X418209Y35433D01*
X389764Y35433D01*
Y6791D01*
X35433D01*
Y35433D01*
X6890D01*
Y316929D01*
X37402D01*
Y349410D01*
X389764D01*
Y316929D01*
D02*
G37*
%LPC*%
G36*
X109055Y341013D02*
Y334646D01*
X115422D01*
X115303Y334933D01*
X114185Y336758D01*
X112795Y338385D01*
X111167Y339775D01*
X109342Y340894D01*
X109055Y341013D01*
D02*
G37*
G36*
X97244D02*
X96957Y340894D01*
X95132Y339775D01*
X93504Y338385D01*
X92114Y336758D01*
X90996Y334933D01*
X90877Y334646D01*
X97244D01*
Y341013D01*
D02*
G37*
G36*
X115422Y322835D02*
X109055D01*
Y316467D01*
X109342Y316586D01*
X111167Y317705D01*
X112795Y319095D01*
X114185Y320723D01*
X115303Y322548D01*
X115422Y322835D01*
D02*
G37*
G36*
X97244D02*
X90877D01*
X90996Y322548D01*
X92114Y320723D01*
X93504Y319095D01*
X95132Y317705D01*
X96957Y316586D01*
X97244Y316467D01*
Y322835D01*
D02*
G37*
G36*
X74803Y342180D02*
X72701Y342015D01*
X70650Y341522D01*
X68702Y340715D01*
X66903Y339613D01*
X65300Y338244D01*
X63930Y336640D01*
X62828Y334842D01*
X62021Y332893D01*
X61529Y330843D01*
X61363Y328740D01*
X61529Y326638D01*
X62021Y324587D01*
X62828Y322639D01*
X63930Y320840D01*
X65300Y319237D01*
X66903Y317867D01*
X68702Y316765D01*
X70650Y315958D01*
X72701Y315466D01*
X74803Y315300D01*
X76906Y315466D01*
X78956Y315958D01*
X80905Y316765D01*
X82703Y317867D01*
X84307Y319237D01*
X85676Y320840D01*
X86778Y322639D01*
X87585Y324587D01*
X88077Y326638D01*
X88243Y328740D01*
X88077Y330843D01*
X87585Y332893D01*
X86778Y334842D01*
X85676Y336640D01*
X84307Y338244D01*
X82703Y339613D01*
X80905Y340715D01*
X78956Y341522D01*
X76906Y342015D01*
X74803Y342180D01*
D02*
G37*
G36*
X278839Y312554D02*
X276736Y312389D01*
X274685Y311896D01*
X272737Y311089D01*
X270939Y309987D01*
X269335Y308618D01*
X267966Y307014D01*
X266864Y305216D01*
X266056Y303267D01*
X265564Y301217D01*
X265399Y299114D01*
X265564Y297012D01*
X266056Y294961D01*
X266864Y293013D01*
X267966Y291214D01*
X269335Y289611D01*
X270939Y288241D01*
X272737Y287139D01*
X274685Y286332D01*
X276736Y285840D01*
X278839Y285674D01*
X280941Y285840D01*
X282992Y286332D01*
X284940Y287139D01*
X286738Y288241D01*
X288342Y289611D01*
X289712Y291214D01*
X290814Y293013D01*
X291621Y294961D01*
X292113Y297012D01*
X292278Y299114D01*
X292113Y301217D01*
X291621Y303267D01*
X290814Y305216D01*
X289712Y307014D01*
X288342Y308618D01*
X286738Y309987D01*
X284940Y311089D01*
X282992Y311896D01*
X280941Y312389D01*
X278839Y312554D01*
D02*
G37*
G36*
X173433Y285531D02*
Y279142D01*
X179823D01*
X179739Y279995D01*
X179344Y281297D01*
X178703Y282497D01*
X177840Y283548D01*
X176788Y284411D01*
X175589Y285052D01*
X174287Y285447D01*
X173433Y285531D01*
D02*
G37*
G36*
X172433D02*
X171579Y285447D01*
X170278Y285052D01*
X169078Y284411D01*
X168026Y283548D01*
X167164Y282497D01*
X166522Y281297D01*
X166128Y279995D01*
X166043Y279142D01*
X172433D01*
Y285531D01*
D02*
G37*
G36*
X179823Y278142D02*
X173433D01*
Y271752D01*
X174287Y271836D01*
X175589Y272231D01*
X176788Y272872D01*
X177840Y273735D01*
X178703Y274787D01*
X179344Y275986D01*
X179739Y277288D01*
X179823Y278142D01*
D02*
G37*
G36*
X172433D02*
X166043D01*
X166128Y277288D01*
X166522Y275986D01*
X167164Y274787D01*
X168026Y273735D01*
X169078Y272872D01*
X170278Y272231D01*
X171579Y271836D01*
X172433Y271752D01*
Y278142D01*
D02*
G37*
G36*
X278839Y284208D02*
X276736Y284042D01*
X274685Y283550D01*
X272737Y282743D01*
X270939Y281641D01*
X269335Y280271D01*
X267966Y278667D01*
X266864Y276869D01*
X266056Y274921D01*
X265564Y272870D01*
X265399Y270768D01*
X265564Y268665D01*
X266056Y266615D01*
X266864Y264666D01*
X267966Y262868D01*
X269335Y261264D01*
X270939Y259895D01*
X272737Y258793D01*
X274685Y257986D01*
X276736Y257493D01*
X278839Y257328D01*
X280941Y257493D01*
X282992Y257986D01*
X284940Y258793D01*
X286738Y259895D01*
X288342Y261264D01*
X289712Y262868D01*
X290814Y264666D01*
X291621Y266615D01*
X292113Y268665D01*
X292278Y270768D01*
X292113Y272870D01*
X291621Y274921D01*
X290814Y276869D01*
X289712Y278667D01*
X288342Y280271D01*
X286738Y281641D01*
X284940Y282743D01*
X282992Y283550D01*
X280941Y284042D01*
X278839Y284208D01*
D02*
G37*
G36*
X185138Y232856D02*
X184276Y232743D01*
X183474Y232410D01*
X182784Y231881D01*
X182255Y231192D01*
X182236Y231146D01*
X93033D01*
X92414Y231023D01*
X92183Y230869D01*
X91413Y231188D01*
X90551Y231301D01*
X89690Y231188D01*
X88887Y230855D01*
X88198Y230326D01*
X87669Y229637D01*
X87336Y228834D01*
X87223Y227972D01*
X87336Y227111D01*
X87669Y226308D01*
X88198Y225619D01*
X88887Y225090D01*
X89690Y224757D01*
X90551Y224644D01*
X91413Y224757D01*
X92215Y225090D01*
X92905Y225619D01*
X93434Y226308D01*
X93766Y227111D01*
X93871Y227909D01*
X182236D01*
X182255Y227863D01*
X182784Y227174D01*
X183474Y226645D01*
X184276Y226312D01*
X185138Y226199D01*
X185999Y226312D01*
X186802Y226645D01*
X187491Y227174D01*
X188020Y227863D01*
X188353Y228666D01*
X188466Y229528D01*
X188353Y230389D01*
X188020Y231192D01*
X187491Y231881D01*
X186802Y232410D01*
X185999Y232743D01*
X185138Y232856D01*
D02*
G37*
G36*
X399606Y217785D02*
Y211417D01*
X405973D01*
X405855Y211704D01*
X404736Y213529D01*
X403346Y215157D01*
X401719Y216547D01*
X399893Y217666D01*
X399606Y217785D01*
D02*
G37*
G36*
X387795D02*
X387508Y217666D01*
X385683Y216547D01*
X384055Y215157D01*
X382665Y213529D01*
X381547Y211704D01*
X381428Y211417D01*
X387795D01*
Y217785D01*
D02*
G37*
G36*
X34461Y211430D02*
X26956D01*
Y203924D01*
X34461D01*
Y211430D01*
D02*
G37*
G36*
X30709Y201620D02*
X29729Y201491D01*
X28816Y201113D01*
X28032Y200511D01*
X27431Y199727D01*
X27053Y198814D01*
X26923Y197835D01*
X27053Y196855D01*
X27431Y195942D01*
X28032Y195158D01*
X28816Y194557D01*
X29729Y194178D01*
X30709Y194050D01*
X31688Y194178D01*
X32601Y194557D01*
X33385Y195158D01*
X33987Y195942D01*
X34365Y196855D01*
X34494Y197835D01*
X34365Y198814D01*
X33987Y199727D01*
X33385Y200511D01*
X32601Y201113D01*
X31688Y201491D01*
X30709Y201620D01*
D02*
G37*
G36*
X405973Y199606D02*
X399606D01*
Y193239D01*
X399893Y193358D01*
X401719Y194476D01*
X403346Y195867D01*
X404736Y197494D01*
X405855Y199319D01*
X405973Y199606D01*
D02*
G37*
G36*
X387795D02*
X381428D01*
X381547Y199319D01*
X382665Y197494D01*
X384055Y195867D01*
X385683Y194476D01*
X387508Y193358D01*
X387795Y193239D01*
Y199606D01*
D02*
G37*
G36*
X30709Y191777D02*
X29729Y191648D01*
X28816Y191270D01*
X28032Y190669D01*
X27431Y189885D01*
X27053Y188972D01*
X26923Y187992D01*
X27053Y187013D01*
X27431Y186100D01*
X28032Y185316D01*
X28816Y184714D01*
X29729Y184336D01*
X30709Y184207D01*
X31688Y184336D01*
X32601Y184714D01*
X33385Y185316D01*
X33987Y186100D01*
X34365Y187013D01*
X34494Y187992D01*
X34365Y188972D01*
X33987Y189885D01*
X33385Y190669D01*
X32601Y191270D01*
X31688Y191648D01*
X30709Y191777D01*
D02*
G37*
G36*
Y181935D02*
X29729Y181806D01*
X28816Y181428D01*
X28032Y180826D01*
X27431Y180042D01*
X27053Y179129D01*
X26923Y178150D01*
X27053Y177170D01*
X27431Y176257D01*
X28032Y175473D01*
X28816Y174872D01*
X29729Y174494D01*
X30709Y174364D01*
X31688Y174494D01*
X32601Y174872D01*
X33385Y175473D01*
X33987Y176257D01*
X34365Y177170D01*
X34494Y178150D01*
X34365Y179129D01*
X33987Y180042D01*
X33385Y180826D01*
X32601Y181428D01*
X31688Y181806D01*
X30709Y181935D01*
D02*
G37*
G36*
Y172092D02*
X29729Y171963D01*
X28816Y171585D01*
X28032Y170984D01*
X27431Y170200D01*
X27053Y169287D01*
X26923Y168307D01*
X27053Y167327D01*
X27431Y166414D01*
X28032Y165631D01*
X28816Y165029D01*
X29729Y164651D01*
X30709Y164522D01*
X31688Y164651D01*
X32601Y165029D01*
X33385Y165631D01*
X33987Y166414D01*
X34365Y167327D01*
X34494Y168307D01*
X34365Y169287D01*
X33987Y170200D01*
X33385Y170984D01*
X32601Y171585D01*
X31688Y171963D01*
X30709Y172092D01*
D02*
G37*
G36*
X393701Y190605D02*
X391598Y190440D01*
X389548Y189947D01*
X387599Y189140D01*
X385801Y188038D01*
X384197Y186669D01*
X382828Y185065D01*
X381726Y183267D01*
X380919Y181318D01*
X380426Y179268D01*
X380261Y177165D01*
X380426Y175063D01*
X380919Y173012D01*
X381726Y171064D01*
X382828Y169266D01*
X384197Y167662D01*
X385801Y166292D01*
X387599Y165190D01*
X389548Y164383D01*
X391598Y163891D01*
X393701Y163725D01*
X395803Y163891D01*
X397854Y164383D01*
X399802Y165190D01*
X401601Y166292D01*
X403204Y167662D01*
X404574Y169266D01*
X405676Y171064D01*
X406483Y173012D01*
X406975Y175063D01*
X407141Y177165D01*
X406975Y179268D01*
X406483Y181318D01*
X405676Y183267D01*
X404574Y185065D01*
X403204Y186669D01*
X401601Y188038D01*
X399802Y189140D01*
X397854Y189947D01*
X395803Y190440D01*
X393701Y190605D01*
D02*
G37*
G36*
X30709Y162250D02*
X29729Y162121D01*
X28816Y161743D01*
X28032Y161141D01*
X27431Y160357D01*
X27053Y159444D01*
X26923Y158465D01*
X27053Y157485D01*
X27431Y156572D01*
X28032Y155788D01*
X28816Y155187D01*
X29729Y154808D01*
X30709Y154679D01*
X31688Y154808D01*
X32601Y155187D01*
X33385Y155788D01*
X33987Y156572D01*
X34365Y157485D01*
X34494Y158465D01*
X34365Y159444D01*
X33987Y160357D01*
X33385Y161141D01*
X32601Y161743D01*
X31688Y162121D01*
X30709Y162250D01*
D02*
G37*
G36*
Y152407D02*
X29729Y152278D01*
X28816Y151900D01*
X28032Y151298D01*
X27431Y150515D01*
X27053Y149602D01*
X26923Y148622D01*
X27053Y147642D01*
X27431Y146730D01*
X28032Y145946D01*
X28816Y145344D01*
X29729Y144966D01*
X30709Y144837D01*
X31688Y144966D01*
X32601Y145344D01*
X33385Y145946D01*
X33987Y146730D01*
X34365Y147642D01*
X34494Y148622D01*
X34365Y149602D01*
X33987Y150515D01*
X33385Y151298D01*
X32601Y151900D01*
X31688Y152278D01*
X30709Y152407D01*
D02*
G37*
G36*
Y142565D02*
X29729Y142436D01*
X28816Y142058D01*
X28032Y141456D01*
X27431Y140672D01*
X27053Y139759D01*
X26923Y138779D01*
X27053Y137800D01*
X27431Y136887D01*
X28032Y136103D01*
X28816Y135502D01*
X29729Y135123D01*
X30709Y134994D01*
X31688Y135123D01*
X32601Y135502D01*
X33385Y136103D01*
X33987Y136887D01*
X34365Y137800D01*
X34494Y138779D01*
X34365Y139759D01*
X33987Y140672D01*
X33385Y141456D01*
X32601Y142058D01*
X31688Y142436D01*
X30709Y142565D01*
D02*
G37*
G36*
X184941Y130100D02*
X184080Y129987D01*
X183277Y129654D01*
X182587Y129125D01*
X182058Y128436D01*
X182039Y128390D01*
X93453D01*
X93434Y128436D01*
X92905Y129125D01*
X92215Y129654D01*
X91413Y129987D01*
X90551Y130100D01*
X89690Y129987D01*
X88887Y129654D01*
X88198Y129125D01*
X87669Y128436D01*
X87336Y127633D01*
X87223Y126772D01*
X87336Y125910D01*
X87669Y125107D01*
X88198Y124418D01*
X88887Y123889D01*
X89690Y123557D01*
X90551Y123443D01*
X91413Y123557D01*
X92215Y123889D01*
X92905Y124418D01*
X93434Y125107D01*
X93453Y125153D01*
X182039D01*
X182058Y125107D01*
X182587Y124418D01*
X183277Y123889D01*
X184080Y123557D01*
X184941Y123443D01*
X185802Y123557D01*
X186605Y123889D01*
X187294Y124418D01*
X187823Y125107D01*
X188156Y125910D01*
X188269Y126772D01*
X188156Y127633D01*
X187823Y128436D01*
X187294Y129125D01*
X186605Y129654D01*
X185802Y129987D01*
X184941Y130100D01*
D02*
G37*
G36*
X72677Y226439D02*
X71816Y226325D01*
X71013Y225993D01*
X70324Y225464D01*
X69795Y224775D01*
X69462Y223972D01*
X69349Y223110D01*
X69462Y222249D01*
X69795Y221446D01*
X69885Y221328D01*
Y209267D01*
X49994Y189376D01*
X49550Y188798D01*
X49271Y188124D01*
X49176Y187402D01*
Y105881D01*
X39001Y95706D01*
X30719D01*
X30601Y95796D01*
X29798Y96128D01*
X28937Y96242D01*
X28076Y96128D01*
X27273Y95796D01*
X26583Y95267D01*
X26054Y94578D01*
X25722Y93775D01*
X25609Y92913D01*
X25722Y92052D01*
X26054Y91249D01*
X26583Y90560D01*
X27273Y90031D01*
X28076Y89698D01*
X28937Y89585D01*
X29798Y89698D01*
X30601Y90031D01*
X30719Y90121D01*
X40157D01*
X40880Y90216D01*
X41554Y90495D01*
X42132Y90939D01*
X53943Y102750D01*
X54387Y103328D01*
X54666Y104002D01*
X54761Y104724D01*
Y186245D01*
X74652Y206136D01*
X75095Y206714D01*
X75235Y207051D01*
X75374Y207387D01*
X75470Y208110D01*
Y221328D01*
X75560Y221446D01*
X75892Y222249D01*
X76006Y223110D01*
X75892Y223972D01*
X75560Y224775D01*
X75031Y225464D01*
X74341Y225993D01*
X73539Y226325D01*
X72677Y226439D01*
D02*
G37*
G36*
X94614Y85531D02*
Y79142D01*
X101004D01*
X100920Y79996D01*
X100525Y81297D01*
X99884Y82497D01*
X99021Y83548D01*
X97969Y84411D01*
X96770Y85053D01*
X95468Y85447D01*
X94614Y85531D01*
D02*
G37*
G36*
X93614D02*
X92760Y85447D01*
X91459Y85053D01*
X90259Y84411D01*
X89208Y83548D01*
X88345Y82497D01*
X87703Y81297D01*
X87309Y79996D01*
X87225Y79142D01*
X93614D01*
Y85531D01*
D02*
G37*
G36*
X101004Y78142D02*
X94614D01*
Y71752D01*
X95468Y71836D01*
X96770Y72231D01*
X97969Y72872D01*
X99021Y73735D01*
X99884Y74787D01*
X100525Y75986D01*
X100920Y77288D01*
X101004Y78142D01*
D02*
G37*
G36*
X93614D02*
X87225D01*
X87309Y77288D01*
X87703Y75986D01*
X88345Y74787D01*
X89208Y73735D01*
X90259Y72872D01*
X91459Y72231D01*
X92760Y71836D01*
X93614Y71752D01*
Y78142D01*
D02*
G37*
G36*
X282776Y97396D02*
X280673Y97231D01*
X278622Y96739D01*
X276674Y95932D01*
X274876Y94830D01*
X273272Y93460D01*
X271902Y91856D01*
X270801Y90058D01*
X269993Y88110D01*
X269501Y86059D01*
X269336Y83957D01*
X269501Y81854D01*
X269993Y79804D01*
X270801Y77855D01*
X271902Y76057D01*
X273272Y74453D01*
X274876Y73084D01*
X276674Y71982D01*
X278622Y71175D01*
X280673Y70682D01*
X282776Y70517D01*
X284878Y70682D01*
X286929Y71175D01*
X288877Y71982D01*
X290675Y73084D01*
X292279Y74453D01*
X293649Y76057D01*
X294751Y77855D01*
X295558Y79804D01*
X296050Y81854D01*
X296215Y83957D01*
X296050Y86059D01*
X295558Y88110D01*
X294751Y90058D01*
X293649Y91856D01*
X292279Y93460D01*
X290675Y94830D01*
X288877Y95932D01*
X286929Y96739D01*
X284878Y97231D01*
X282776Y97396D01*
D02*
G37*
G36*
Y69050D02*
X280673Y68885D01*
X278622Y68392D01*
X276674Y67585D01*
X274876Y66483D01*
X273272Y65114D01*
X271902Y63510D01*
X270801Y61712D01*
X269993Y59763D01*
X269501Y57713D01*
X269336Y55610D01*
X269501Y53508D01*
X269993Y51457D01*
X270801Y49509D01*
X271902Y47710D01*
X273272Y46107D01*
X274876Y44737D01*
X276674Y43635D01*
X278622Y42828D01*
X280673Y42336D01*
X282776Y42170D01*
X284878Y42336D01*
X286929Y42828D01*
X288877Y43635D01*
X290675Y44737D01*
X292279Y46107D01*
X293649Y47710D01*
X294751Y49509D01*
X295558Y51457D01*
X296050Y53508D01*
X296215Y55610D01*
X296050Y57713D01*
X295558Y59763D01*
X294751Y61712D01*
X293649Y63510D01*
X292279Y65114D01*
X290675Y66483D01*
X288877Y67585D01*
X286929Y68392D01*
X284878Y68885D01*
X282776Y69050D01*
D02*
G37*
%LPD*%
D42*
X90551Y227972D02*
X91478D01*
X93033Y229528D01*
X185138D01*
X90551Y126772D02*
X184941D01*
D44*
X28937Y92913D02*
X40157D01*
X51968Y104724D01*
Y187402D01*
X72677Y208110D01*
Y223110D01*
D53*
X30709Y207677D02*
D03*
D54*
Y197835D02*
D03*
Y187992D02*
D03*
Y178150D02*
D03*
Y168307D02*
D03*
Y158465D02*
D03*
Y148622D02*
D03*
Y138779D02*
D03*
D55*
X282776Y83957D02*
D03*
Y55610D02*
D03*
X278839Y299114D02*
D03*
Y270768D02*
D03*
X393701Y205512D02*
D03*
Y177165D02*
D03*
X74803Y328740D02*
D03*
X103150D02*
D03*
D56*
X94114Y78642D02*
D03*
X172933Y278642D02*
D03*
D57*
X61614Y136811D02*
D03*
X14961Y154134D02*
D03*
X294094Y102756D02*
D03*
X268602Y69390D02*
D03*
X213779Y193602D02*
D03*
X173425Y187303D02*
D03*
Y167224D02*
D03*
X214665Y161516D02*
D03*
X192323Y144193D02*
D03*
X194587Y214370D02*
D03*
X175984Y201181D02*
D03*
X176378Y153740D02*
D03*
X162894Y206594D02*
D03*
X161221Y148031D02*
D03*
X140551Y150098D02*
D03*
X141043Y203839D02*
D03*
X118898Y181595D02*
D03*
X118996Y173130D02*
D03*
X92815Y264764D02*
D03*
X215354Y286221D02*
D03*
X217717Y240354D02*
D03*
X253346Y226279D02*
D03*
X300197Y223721D02*
D03*
X301083Y131102D02*
D03*
X276969Y131988D02*
D03*
X245965Y130610D02*
D03*
X219094Y101870D02*
D03*
X213779Y122244D02*
D03*
X194291Y118602D02*
D03*
X413287Y217323D02*
D03*
X94000Y169000D02*
D03*
X92787Y180787D02*
D03*
X141142Y161319D02*
D03*
X369000Y154000D02*
D03*
X43000Y162000D02*
D03*
X45000Y192000D02*
D03*
X198425Y189764D02*
D03*
Y164567D02*
D03*
X63779Y146850D02*
D03*
X12205Y184646D02*
D03*
X76772Y277559D02*
D03*
X315748Y304724D02*
D03*
X252953Y310236D02*
D03*
X62992Y216535D02*
D03*
X75984Y78740D02*
D03*
X348819Y119685D02*
D03*
X281102Y166535D02*
D03*
X280709Y187402D02*
D03*
X249606Y176772D02*
D03*
X299213Y324803D02*
D03*
X230315D02*
D03*
X340551Y269685D02*
D03*
X19685Y66535D02*
D03*
X68898Y26378D02*
D03*
X165748Y17323D02*
D03*
X249213Y19685D02*
D03*
X340000Y15000D02*
D03*
X318150Y69685D02*
D03*
X360000Y42000D02*
D03*
X387000Y68000D02*
D03*
X373031Y207185D02*
D03*
X363779Y245244D02*
D03*
X381496Y293669D02*
D03*
X403000Y259000D02*
D03*
X412000Y138000D02*
D03*
X356299Y316929D02*
D03*
X387795Y129921D02*
D03*
X396063Y105118D02*
D03*
X362992Y105512D02*
D03*
X130315Y312598D02*
D03*
X131102Y43307D02*
D03*
X11122Y113779D02*
D03*
X23622Y102756D02*
D03*
X29921Y124016D02*
D03*
X37402Y287402D02*
D03*
X113779Y275197D02*
D03*
X112598Y114173D02*
D03*
X112992Y78740D02*
D03*
X62402Y177559D02*
D03*
X71260Y168898D02*
D03*
X95276Y148819D02*
D03*
X82284Y136614D02*
D03*
X86614Y208661D02*
D03*
X114173Y244094D02*
D03*
X102362Y224410D02*
D03*
X122047Y177165D02*
D03*
X110236Y208661D02*
D03*
Y145669D02*
D03*
X212008Y311811D02*
D03*
X196850Y275590D02*
D03*
X172441Y310236D02*
D03*
X136713Y290354D02*
D03*
X177165Y255906D02*
D03*
X141732Y251969D02*
D03*
X157480Y236221D02*
D03*
X141732Y220472D02*
D03*
X140650Y193110D02*
D03*
X307087Y275590D02*
D03*
X249016Y283465D02*
D03*
X296555Y254134D02*
D03*
X251969Y259842D02*
D03*
X220472Y251969D02*
D03*
X184941Y206496D02*
D03*
X200787Y224410D02*
D03*
X192913Y236221D02*
D03*
X299213Y70866D02*
D03*
X307087Y98425D02*
D03*
X267717D02*
D03*
X253543Y72244D02*
D03*
X233465Y99508D02*
D03*
X208661Y110236D02*
D03*
X196850Y133858D02*
D03*
X182776Y149606D02*
D03*
X172835Y88976D02*
D03*
X150787Y114567D02*
D03*
X224213Y73228D02*
D03*
X188976Y82677D02*
D03*
X165354Y102362D02*
D03*
X145669Y122047D02*
D03*
X311024Y216535D02*
D03*
X287402D02*
D03*
X255906D02*
D03*
X236221Y212598D02*
D03*
X224410Y200787D02*
D03*
X255906Y169291D02*
D03*
Y185039D02*
D03*
X307087D02*
D03*
Y169291D02*
D03*
X244094D02*
D03*
Y185039D02*
D03*
X311024Y137795D02*
D03*
X287402D02*
D03*
X255906D02*
D03*
X236221Y141732D02*
D03*
X224410Y153543D02*
D03*
D58*
X184941Y126772D02*
D03*
X185138Y229528D02*
D03*
X72677Y223110D02*
D03*
X90551Y227972D02*
D03*
X28937Y92913D02*
D03*
X90551Y126772D02*
D03*
M02*
