G04*
G04 #@! TF.GenerationSoftware,Altium Limited,Altium Designer,19.1.8 (144)*
G04*
G04 Layer_Physical_Order=1*
G04 Layer_Color=255*
%FSLAX25Y25*%
%MOIN*%
G70*
G01*
G75*
%ADD14R,0.05709X0.01575*%
%ADD15R,0.04134X0.05118*%
%ADD16R,0.05118X0.04134*%
%ADD17R,0.04134X0.05512*%
%ADD18R,0.05512X0.04134*%
%ADD19R,0.12598X0.06299*%
%ADD20R,0.29528X0.09843*%
%ADD21R,0.16142X0.07874*%
%ADD38C,0.01575*%
%ADD39C,0.03937*%
%ADD40C,0.11811*%
%ADD41C,0.09843*%
%ADD42C,0.05906*%
%ADD43C,0.07874*%
%ADD44C,0.02362*%
%ADD45C,0.15748*%
%ADD46C,0.23622*%
%ADD47C,0.06000*%
%ADD48R,0.06000X0.06000*%
%ADD49C,0.11811*%
%ADD50C,0.02362*%
%ADD51C,0.05000*%
%ADD52C,0.03150*%
G36*
X425197Y322835D02*
X452756D01*
Y31496D01*
X425197D01*
Y3937D01*
X31496D01*
Y31496D01*
X3937D01*
Y119736D01*
X4388Y119875D01*
X4437Y119870D01*
X4984Y119157D01*
X5715Y118596D01*
X6567Y118244D01*
X6693Y118227D01*
Y121653D01*
Y125080D01*
X6567Y125063D01*
X5715Y124711D01*
X4984Y124150D01*
X4437Y123437D01*
X4388Y123432D01*
X3937Y123571D01*
Y322835D01*
X31496D01*
Y350394D01*
X425197D01*
Y322835D01*
D02*
G37*
%LPC*%
G36*
X167717Y341222D02*
Y338583D01*
X170356D01*
X170339Y338709D01*
X169986Y339560D01*
X169425Y340292D01*
X168694Y340852D01*
X167843Y341205D01*
X167717Y341222D01*
D02*
G37*
G36*
X166142D02*
X166016Y341205D01*
X165164Y340852D01*
X164433Y340292D01*
X163872Y339560D01*
X163519Y338709D01*
X163503Y338583D01*
X166142D01*
Y341222D01*
D02*
G37*
G36*
X300787Y340828D02*
Y338189D01*
X303427D01*
X303410Y338315D01*
X303057Y339167D01*
X302496Y339898D01*
X301765Y340459D01*
X300914Y340811D01*
X300787Y340828D01*
D02*
G37*
G36*
X299213D02*
X299086Y340811D01*
X298235Y340459D01*
X297504Y339898D01*
X296943Y339167D01*
X296590Y338315D01*
X296573Y338189D01*
X299213D01*
Y340828D01*
D02*
G37*
G36*
X231496D02*
Y338189D01*
X234135D01*
X234119Y338315D01*
X233766Y339167D01*
X233205Y339898D01*
X232474Y340459D01*
X231622Y340811D01*
X231496Y340828D01*
D02*
G37*
G36*
X229921D02*
X229795Y340811D01*
X228944Y340459D01*
X228212Y339898D01*
X227651Y339167D01*
X227299Y338315D01*
X227282Y338189D01*
X229921D01*
Y340828D01*
D02*
G37*
G36*
X170356Y337008D02*
X167717D01*
Y334369D01*
X167843Y334385D01*
X168694Y334738D01*
X169425Y335299D01*
X169986Y336030D01*
X170339Y336882D01*
X170356Y337008D01*
D02*
G37*
G36*
X166142D02*
X163503D01*
X163519Y336882D01*
X163872Y336030D01*
X164433Y335299D01*
X165164Y334738D01*
X166016Y334385D01*
X166142Y334369D01*
Y337008D01*
D02*
G37*
G36*
X303427Y336614D02*
X300787D01*
Y333975D01*
X300914Y333992D01*
X301765Y334344D01*
X302496Y334905D01*
X303057Y335636D01*
X303410Y336488D01*
X303427Y336614D01*
D02*
G37*
G36*
X299213D02*
X296573D01*
X296590Y336488D01*
X296943Y335636D01*
X297504Y334905D01*
X298235Y334344D01*
X299086Y333992D01*
X299213Y333975D01*
Y336614D01*
D02*
G37*
G36*
X234135D02*
X231496D01*
Y333975D01*
X231622Y333992D01*
X232474Y334344D01*
X233205Y334905D01*
X233766Y335636D01*
X234119Y336488D01*
X234135Y336614D01*
D02*
G37*
G36*
X229921D02*
X227282D01*
X227299Y336488D01*
X227651Y335636D01*
X228212Y334905D01*
X228944Y334344D01*
X229795Y333992D01*
X229921Y333975D01*
Y336614D01*
D02*
G37*
G36*
X358661Y330592D02*
Y327953D01*
X361301D01*
X361284Y328079D01*
X360931Y328930D01*
X360370Y329662D01*
X359639Y330223D01*
X358788Y330575D01*
X358661Y330592D01*
D02*
G37*
G36*
X357087D02*
X356960Y330575D01*
X356109Y330223D01*
X355378Y329662D01*
X354817Y328930D01*
X354464Y328079D01*
X354448Y327953D01*
X357087D01*
Y330592D01*
D02*
G37*
G36*
X97638Y329411D02*
Y326772D01*
X100277D01*
X100260Y326898D01*
X99908Y327749D01*
X99347Y328481D01*
X98615Y329042D01*
X97764Y329394D01*
X97638Y329411D01*
D02*
G37*
G36*
X96063D02*
X95937Y329394D01*
X95085Y329042D01*
X94354Y328481D01*
X93793Y327749D01*
X93441Y326898D01*
X93424Y326772D01*
X96063D01*
Y329411D01*
D02*
G37*
G36*
X68110Y328623D02*
Y325984D01*
X70749D01*
X70733Y326111D01*
X70380Y326962D01*
X69819Y327693D01*
X69088Y328254D01*
X68237Y328607D01*
X68110Y328623D01*
D02*
G37*
G36*
X66535D02*
X66409Y328607D01*
X65558Y328254D01*
X64827Y327693D01*
X64266Y326962D01*
X63913Y326111D01*
X63896Y325984D01*
X66535D01*
Y328623D01*
D02*
G37*
G36*
X361301Y326378D02*
X358661D01*
Y323739D01*
X358788Y323755D01*
X359639Y324108D01*
X360370Y324669D01*
X360931Y325400D01*
X361284Y326252D01*
X361301Y326378D01*
D02*
G37*
G36*
X357087D02*
X354448D01*
X354464Y326252D01*
X354817Y325400D01*
X355378Y324669D01*
X356109Y324108D01*
X356960Y323755D01*
X357087Y323739D01*
Y326378D01*
D02*
G37*
G36*
X38583Y325868D02*
Y323228D01*
X41222D01*
X41205Y323355D01*
X40852Y324206D01*
X40292Y324937D01*
X39560Y325498D01*
X38709Y325851D01*
X38583Y325868D01*
D02*
G37*
G36*
X37008D02*
X36882Y325851D01*
X36030Y325498D01*
X35299Y324937D01*
X34738Y324206D01*
X34385Y323355D01*
X34369Y323228D01*
X37008D01*
Y325868D01*
D02*
G37*
G36*
X100277Y325197D02*
X97638D01*
Y322558D01*
X97764Y322574D01*
X98615Y322927D01*
X99347Y323488D01*
X99908Y324219D01*
X100260Y325071D01*
X100277Y325197D01*
D02*
G37*
G36*
X96063D02*
X93424D01*
X93441Y325071D01*
X93793Y324219D01*
X94354Y323488D01*
X95085Y322927D01*
X95937Y322574D01*
X96063Y322558D01*
Y325197D01*
D02*
G37*
G36*
X70749Y324410D02*
X68110D01*
Y321770D01*
X68237Y321787D01*
X69088Y322140D01*
X69819Y322701D01*
X70380Y323432D01*
X70733Y324283D01*
X70749Y324410D01*
D02*
G37*
G36*
X66535D02*
X63896D01*
X63913Y324283D01*
X64266Y323432D01*
X64827Y322701D01*
X65558Y322140D01*
X66409Y321787D01*
X66535Y321770D01*
Y324410D01*
D02*
G37*
G36*
X41222Y321654D02*
X38583D01*
Y319014D01*
X38709Y319031D01*
X39560Y319384D01*
X40292Y319945D01*
X40852Y320676D01*
X41205Y321527D01*
X41222Y321654D01*
D02*
G37*
G36*
X37008D02*
X34369D01*
X34385Y321527D01*
X34738Y320676D01*
X35299Y319945D01*
X36030Y319384D01*
X36882Y319031D01*
X37008Y319014D01*
Y321654D01*
D02*
G37*
G36*
X131102Y316025D02*
Y313386D01*
X133741D01*
X133725Y313512D01*
X133372Y314364D01*
X132811Y315095D01*
X132080Y315656D01*
X131229Y316008D01*
X131102Y316025D01*
D02*
G37*
G36*
X129528D02*
X129401Y316008D01*
X128550Y315656D01*
X127819Y315095D01*
X127258Y314364D01*
X126905Y313512D01*
X126888Y313386D01*
X129528D01*
Y316025D01*
D02*
G37*
G36*
X133741Y311811D02*
X131102D01*
Y309172D01*
X131229Y309189D01*
X132080Y309541D01*
X132811Y310102D01*
X133372Y310833D01*
X133725Y311685D01*
X133741Y311811D01*
D02*
G37*
G36*
X129528D02*
X126888D01*
X126905Y311685D01*
X127258Y310833D01*
X127819Y310102D01*
X128550Y309541D01*
X129401Y309189D01*
X129528Y309172D01*
Y311811D01*
D02*
G37*
G36*
X283465Y331141D02*
X281488Y330986D01*
X279559Y330523D01*
X277727Y329764D01*
X276037Y328728D01*
X274529Y327440D01*
X273241Y325932D01*
X272810Y325229D01*
X164350D01*
X163038Y325100D01*
X161777Y324717D01*
X160614Y324096D01*
X159595Y323259D01*
X125067Y288732D01*
X124231Y287713D01*
X123609Y286550D01*
X123227Y285288D01*
X123098Y283976D01*
Y231717D01*
X111516D01*
X110796Y231622D01*
X110255Y231398D01*
X108366D01*
Y226476D01*
X110255D01*
X110796Y226252D01*
X111516Y226157D01*
X123098D01*
Y220787D01*
Y213050D01*
X122598Y212842D01*
X115090Y220350D01*
Y220374D01*
X115090Y220374D01*
X114968Y220988D01*
X114665Y221441D01*
Y224114D01*
X108366D01*
Y219193D01*
X111977D01*
X112001Y219071D01*
X112349Y218550D01*
X120048Y210851D01*
Y186713D01*
X120048Y186713D01*
X120170Y186098D01*
X120518Y185577D01*
X128577Y177519D01*
X128610Y177467D01*
X128633Y176869D01*
X121010Y169246D01*
X120662Y168725D01*
X120540Y168110D01*
X120540Y168110D01*
Y145547D01*
X112493Y137500D01*
X108465D01*
Y132579D01*
X109656D01*
X109691Y132526D01*
X110212Y132178D01*
X110827Y132056D01*
X111516D01*
X111516Y132056D01*
X112130Y132178D01*
X112651Y132526D01*
X112704Y132579D01*
X114764D01*
Y135229D01*
X122636Y143101D01*
X123098Y142910D01*
Y133957D01*
Y131163D01*
X122471Y130536D01*
X111614D01*
X110895Y130441D01*
X110353Y130217D01*
X108465D01*
Y125295D01*
X110353D01*
X110895Y125071D01*
X111614Y124976D01*
X123098D01*
Y70768D01*
X123227Y69456D01*
X123609Y68194D01*
X124231Y67031D01*
X125067Y66012D01*
X159221Y31859D01*
X160240Y31022D01*
X161403Y30401D01*
X162664Y30018D01*
X163976Y29889D01*
X271629D01*
X272060Y29186D01*
X273347Y27678D01*
X274855Y26390D01*
X276546Y25354D01*
X278378Y24595D01*
X280307Y24132D01*
X282283Y23977D01*
X284260Y24132D01*
X286189Y24595D01*
X288021Y25354D01*
X289711Y26390D01*
X291219Y27678D01*
X292507Y29186D01*
X293543Y30877D01*
X294302Y32709D01*
X294765Y34637D01*
X294921Y36614D01*
X294765Y38591D01*
X294302Y40519D01*
X293543Y42351D01*
X292507Y44042D01*
X291219Y45550D01*
X289711Y46838D01*
X288021Y47874D01*
X286189Y48633D01*
X284260Y49096D01*
X282283Y49251D01*
X280307Y49096D01*
X278378Y48633D01*
X276546Y47874D01*
X274855Y46838D01*
X273347Y45550D01*
X272060Y44042D01*
X271629Y43339D01*
X166762D01*
X136548Y73553D01*
Y126772D01*
Y133957D01*
Y165354D01*
X136515Y165687D01*
X137159Y165771D01*
X138308Y166247D01*
X139295Y167005D01*
X139559Y167350D01*
X142953D01*
X143929Y167478D01*
X144839Y167855D01*
X145474Y168342D01*
X155354D01*
X156074Y168437D01*
X156276Y168521D01*
X156776Y168187D01*
Y166909D01*
X164484D01*
Y167834D01*
X160630D01*
Y169409D01*
X164484D01*
Y170409D01*
X163878D01*
Y171396D01*
X164378Y171495D01*
X164450Y171323D01*
X165049Y170541D01*
X165830Y169942D01*
X166740Y169565D01*
X167717Y169436D01*
X188326D01*
X188757Y168875D01*
X189743Y168117D01*
X190893Y167641D01*
X192126Y167479D01*
X199347D01*
X199570Y167189D01*
X200763Y166273D01*
X202151Y165698D01*
X202362Y165671D01*
Y164370D01*
X208661D01*
Y165502D01*
X210326D01*
X211323Y164684D01*
X212485Y164062D01*
X213747Y163680D01*
X215059Y163550D01*
X222411D01*
X234418Y151544D01*
X235437Y150707D01*
X236600Y150086D01*
X237861Y149703D01*
X239173Y149574D01*
X312795Y149574D01*
X314107Y149703D01*
X315369Y150086D01*
X316532Y150707D01*
X317551Y151544D01*
X326474Y160467D01*
X326936Y160276D01*
Y133790D01*
X316506Y123359D01*
X242549D01*
X220405Y145504D01*
X219386Y146340D01*
X218223Y146962D01*
X217126Y147294D01*
Y149114D01*
X210827D01*
Y148769D01*
X210365Y148578D01*
X202924Y156018D01*
X203115Y156480D01*
X204724D01*
Y158760D01*
X201756D01*
Y157840D01*
X201294Y157649D01*
X195367Y163576D01*
X194348Y164412D01*
X193185Y165033D01*
X191923Y165416D01*
X190611Y165545D01*
X190323Y165517D01*
X189346Y165922D01*
X188112Y166084D01*
X181398D01*
X180164Y165922D01*
X179015Y165446D01*
X178553Y165092D01*
X173917D01*
X172941Y164963D01*
X172031Y164586D01*
X171396Y164099D01*
X169193D01*
X168473Y164004D01*
X167803Y163726D01*
X167289Y163332D01*
X165260Y163228D01*
X164501Y163036D01*
X164378Y162944D01*
X163878Y163195D01*
Y164334D01*
X164484D01*
Y165334D01*
X156776D01*
Y165228D01*
X155688D01*
X155532Y165347D01*
X154383Y165823D01*
X153150Y165986D01*
X151916Y165823D01*
X150767Y165347D01*
X149780Y164590D01*
X148469Y163279D01*
X148214Y163201D01*
X147051Y162580D01*
X146032Y161744D01*
X145747Y161396D01*
X145669Y161399D01*
X145242Y161570D01*
X145142Y162331D01*
X144790Y163182D01*
X144228Y163914D01*
X143497Y164475D01*
X142646Y164827D01*
X142520Y164844D01*
Y161417D01*
Y157991D01*
X142646Y158007D01*
X143497Y158360D01*
X143745Y158550D01*
X144099Y158352D01*
X144187Y158259D01*
X144062Y156988D01*
Y144783D01*
X144191Y143471D01*
X144574Y142210D01*
X145195Y141047D01*
X146032Y140028D01*
X146735Y139451D01*
X147311Y138749D01*
X225855Y60205D01*
X226874Y59369D01*
X228037Y58747D01*
X229298Y58365D01*
X229985Y58297D01*
X230610Y58235D01*
X230610Y58235D01*
X271629D01*
X272060Y57533D01*
X273347Y56025D01*
X274855Y54737D01*
X276546Y53701D01*
X278378Y52942D01*
X280307Y52479D01*
X282283Y52323D01*
X284260Y52479D01*
X286189Y52942D01*
X288021Y53701D01*
X289711Y54737D01*
X291219Y56025D01*
X292507Y57533D01*
X293543Y59223D01*
X294302Y61055D01*
X294765Y62984D01*
X294921Y64961D01*
X294765Y66938D01*
X294302Y68866D01*
X293543Y70698D01*
X292507Y72389D01*
X291219Y73897D01*
X289711Y75185D01*
X288021Y76221D01*
X286189Y76980D01*
X284260Y77442D01*
X282283Y77598D01*
X280307Y77442D01*
X278378Y76980D01*
X276546Y76221D01*
X274855Y75185D01*
X273347Y73897D01*
X272060Y72389D01*
X271629Y71686D01*
X233396D01*
X164819Y140262D01*
X165011Y140724D01*
X168110D01*
Y140354D01*
X172607D01*
Y138484D01*
X172607Y138484D01*
X172729Y137870D01*
X173077Y137349D01*
X175067Y135359D01*
X175492Y134910D01*
Y131496D01*
X178143D01*
X181655Y127984D01*
X181531Y127685D01*
X181411Y126772D01*
X181531Y125858D01*
X181884Y125006D01*
X182445Y124275D01*
X183176Y123714D01*
X184027Y123362D01*
X184941Y123241D01*
X185855Y123362D01*
X186706Y123714D01*
X187437Y124275D01*
X187998Y125006D01*
X188351Y125858D01*
X188471Y126772D01*
X188351Y127685D01*
X187998Y128537D01*
X187437Y129268D01*
X186706Y129829D01*
X185855Y130182D01*
X184941Y130302D01*
X184179Y130202D01*
X184009Y130390D01*
X184156Y130795D01*
X184247Y130890D01*
X184449D01*
Y133858D01*
X182169D01*
Y132664D01*
X181707Y132473D01*
X180413Y133767D01*
Y137795D01*
X177172D01*
X175818Y139149D01*
Y140354D01*
X180315D01*
Y146653D01*
X179950D01*
X179460Y146752D01*
X179338Y147366D01*
X178990Y147887D01*
X178990Y147888D01*
X168789Y158088D01*
X169023Y158562D01*
X169193Y158539D01*
X169195Y158539D01*
X171396D01*
X172031Y158052D01*
X172941Y157675D01*
X173917Y157547D01*
X178553D01*
X179015Y157192D01*
X180164Y156716D01*
X181398Y156554D01*
X184305D01*
X184398Y156246D01*
X185019Y155084D01*
X185856Y154065D01*
X203928Y135993D01*
X204947Y135156D01*
X206109Y134535D01*
X207371Y134152D01*
X208683Y134023D01*
X212864D01*
X235008Y111879D01*
X236027Y111042D01*
X237190Y110421D01*
X238452Y110038D01*
X239139Y109970D01*
X239764Y109909D01*
X239764Y109909D01*
X319291D01*
X320603Y110038D01*
X321865Y110421D01*
X323028Y111042D01*
X324047Y111879D01*
X338417Y126249D01*
X339253Y127268D01*
X339875Y128430D01*
X340258Y129692D01*
X340387Y131004D01*
Y168462D01*
X350468D01*
Y131988D01*
X350563Y131269D01*
X350841Y130598D01*
X351283Y130023D01*
X359889Y121416D01*
X359913Y121229D01*
X360191Y120559D01*
X360236Y120500D01*
Y119390D01*
X361436D01*
X361977Y119165D01*
X362697Y119071D01*
X363386D01*
X363387Y119071D01*
X377165D01*
X377885Y119166D01*
X378426Y119390D01*
X380118D01*
Y124311D01*
X378427D01*
X377885Y124536D01*
X377165Y124630D01*
X377165Y124630D01*
X364537D01*
X356028Y133140D01*
Y169017D01*
X356382Y169125D01*
X357887Y169929D01*
X359206Y171011D01*
X360288Y172330D01*
X361092Y173835D01*
X361587Y175468D01*
X361755Y177165D01*
X361587Y178863D01*
X361092Y180496D01*
X360288Y182001D01*
X359206Y183320D01*
X357887Y184402D01*
X356382Y185206D01*
X354749Y185702D01*
X353051Y185869D01*
X340387D01*
Y223327D01*
X340258Y224639D01*
X339875Y225900D01*
X339253Y227063D01*
X338417Y228082D01*
X324047Y242452D01*
X323028Y243289D01*
X321865Y243910D01*
X320603Y244293D01*
X319291Y244422D01*
X239764D01*
X239764Y244422D01*
X239139Y244361D01*
X238452Y244293D01*
X237190Y243910D01*
X236027Y243289D01*
X235008Y242452D01*
X212864Y220308D01*
X208683D01*
X207371Y220179D01*
X206109Y219796D01*
X204947Y219175D01*
X203928Y218338D01*
X185856Y200266D01*
X185019Y199247D01*
X184602Y198466D01*
X181496D01*
X180263Y198304D01*
X179113Y197828D01*
X178652Y197473D01*
X172933D01*
X171957Y197345D01*
X171047Y196968D01*
X170309Y196402D01*
X167982D01*
X167775Y196902D01*
X177612Y206739D01*
X177612Y206739D01*
X177960Y207260D01*
X178082Y207874D01*
X178082Y207874D01*
Y209842D01*
X179626D01*
Y216142D01*
X175031D01*
Y216953D01*
X176976Y218898D01*
X181791D01*
Y223713D01*
X183085Y225007D01*
X183547Y224816D01*
Y222835D01*
X186614D01*
X189681D01*
Y225803D01*
X186599D01*
X186499Y226303D01*
X186903Y226470D01*
X187634Y227031D01*
X188195Y227763D01*
X188548Y228614D01*
X188668Y229528D01*
X188548Y230441D01*
X188195Y231293D01*
X187634Y232024D01*
X186903Y232585D01*
X186051Y232938D01*
X185138Y233058D01*
X184224Y232938D01*
X183811Y232767D01*
X183528Y233190D01*
X233770Y283432D01*
X272810D01*
X273241Y282729D01*
X274529Y281222D01*
X276037Y279934D01*
X277727Y278898D01*
X279559Y278139D01*
X281488Y277676D01*
X283465Y277520D01*
X285441Y277676D01*
X287370Y278139D01*
X289202Y278898D01*
X290893Y279934D01*
X292401Y281222D01*
X293688Y282729D01*
X294725Y284420D01*
X295483Y286252D01*
X295946Y288181D01*
X296102Y290158D01*
X295946Y292134D01*
X295483Y294063D01*
X294725Y295895D01*
X293688Y297586D01*
X292401Y299094D01*
X290893Y300381D01*
X289202Y301417D01*
X287370Y302176D01*
X285441Y302639D01*
X283465Y302795D01*
X281488Y302639D01*
X279559Y302176D01*
X277727Y301417D01*
X276037Y300381D01*
X274529Y299094D01*
X273241Y297586D01*
X272810Y296883D01*
X230984D01*
X229672Y296754D01*
X228411Y296371D01*
X227248Y295749D01*
X226590Y295210D01*
X226229Y294913D01*
X226229Y294913D01*
X149063Y217748D01*
X148227Y216728D01*
X147817Y215962D01*
X147051Y215552D01*
X146032Y214716D01*
X145195Y213697D01*
X144574Y212534D01*
X144191Y211273D01*
X144062Y209961D01*
Y197756D01*
X144191Y196444D01*
X144340Y195955D01*
X143908Y195656D01*
X143497Y195971D01*
X142646Y196323D01*
X142520Y196340D01*
Y192913D01*
Y189487D01*
X142646Y189504D01*
X143497Y189856D01*
X144228Y190417D01*
X144790Y191148D01*
X145142Y192000D01*
X145263Y192913D01*
X145225Y193195D01*
X145703Y193402D01*
X146032Y193000D01*
X147051Y192164D01*
X148214Y191543D01*
X148469Y191465D01*
X149780Y190154D01*
X150767Y189397D01*
X151916Y188921D01*
X153150Y188758D01*
X154383Y188921D01*
X155532Y189397D01*
X155688Y189516D01*
X156776D01*
Y189409D01*
X164484D01*
Y190409D01*
X163878D01*
Y192016D01*
X165120D01*
X165396Y191656D01*
X165972Y191215D01*
X166642Y190937D01*
X167362Y190842D01*
X170514D01*
X171047Y190434D01*
X171957Y190057D01*
X172933Y189928D01*
X178652D01*
X179113Y189574D01*
X180263Y189098D01*
X181496Y188936D01*
X188801D01*
X189101Y188975D01*
X189299Y188915D01*
X190611Y188786D01*
X191923Y188915D01*
X193185Y189297D01*
X194348Y189919D01*
X195367Y190755D01*
X201392Y196781D01*
X201854Y196590D01*
Y195965D01*
X204823D01*
Y198244D01*
X203509D01*
X203317Y198706D01*
X210955Y206344D01*
X211417Y206153D01*
Y206004D01*
X217717D01*
Y207216D01*
X218223Y207369D01*
X219386Y207991D01*
X220405Y208827D01*
X242549Y230972D01*
X316506D01*
X326936Y220541D01*
Y194055D01*
X326474Y193864D01*
X317551Y202787D01*
X316532Y203623D01*
X315369Y204245D01*
X314107Y204628D01*
X312795Y204757D01*
X239173Y204757D01*
X237861Y204628D01*
X236600Y204245D01*
X235437Y203623D01*
X234418Y202787D01*
X222411Y190780D01*
X215059D01*
X213747Y190651D01*
X212485Y190269D01*
X211323Y189647D01*
X210326Y188829D01*
X208760D01*
Y190354D01*
X202461D01*
Y188673D01*
X202151Y188633D01*
X200763Y188057D01*
X199570Y187142D01*
X199347Y186852D01*
X192126D01*
X190893Y186689D01*
X189743Y186213D01*
X188757Y185456D01*
X188326Y184895D01*
X167717D01*
X166740Y184766D01*
X165830Y184389D01*
X165049Y183790D01*
X164450Y183008D01*
X164378Y183001D01*
X163878Y183454D01*
Y184335D01*
X164484D01*
Y185335D01*
X160630D01*
Y186909D01*
X164484D01*
Y187835D01*
X156776D01*
Y186557D01*
X156276Y186223D01*
X156074Y186307D01*
X155354Y186402D01*
X145474D01*
X144839Y186889D01*
X143929Y187266D01*
X142953Y187394D01*
X139559D01*
X139295Y187740D01*
X138308Y188497D01*
X137159Y188973D01*
X136515Y189058D01*
X136548Y189390D01*
Y220787D01*
Y227972D01*
Y281191D01*
X167136Y311779D01*
X272810D01*
X273241Y311076D01*
X274529Y309568D01*
X276037Y308280D01*
X277727Y307244D01*
X279559Y306485D01*
X281488Y306022D01*
X283465Y305867D01*
X285441Y306022D01*
X287370Y306485D01*
X289202Y307244D01*
X290893Y308280D01*
X292401Y309568D01*
X293688Y311076D01*
X294725Y312767D01*
X295483Y314599D01*
X295946Y316527D01*
X296102Y318504D01*
X295946Y320481D01*
X295483Y322409D01*
X294725Y324241D01*
X293688Y325932D01*
X292401Y327440D01*
X290893Y328728D01*
X289202Y329764D01*
X287370Y330523D01*
X285441Y330986D01*
X283465Y331141D01*
D02*
G37*
G36*
X316535Y308151D02*
Y305512D01*
X319175D01*
X319158Y305638D01*
X318805Y306489D01*
X318244Y307221D01*
X317513Y307782D01*
X316662Y308134D01*
X316535Y308151D01*
D02*
G37*
G36*
X314961D02*
X314834Y308134D01*
X313983Y307782D01*
X313252Y307221D01*
X312691Y306489D01*
X312338Y305638D01*
X312321Y305512D01*
X314961D01*
Y308151D01*
D02*
G37*
G36*
X255512D02*
Y305512D01*
X258151D01*
X258134Y305638D01*
X257782Y306489D01*
X257221Y307221D01*
X256489Y307782D01*
X255638Y308134D01*
X255512Y308151D01*
D02*
G37*
G36*
X253937D02*
X253811Y308134D01*
X252959Y307782D01*
X252228Y307221D01*
X251667Y306489D01*
X251314Y305638D01*
X251298Y305512D01*
X253937D01*
Y308151D01*
D02*
G37*
G36*
X174016Y306576D02*
Y303937D01*
X176655D01*
X176638Y304063D01*
X176286Y304915D01*
X175725Y305646D01*
X174994Y306207D01*
X174142Y306559D01*
X174016Y306576D01*
D02*
G37*
G36*
X172441D02*
X172315Y306559D01*
X171463Y306207D01*
X170732Y305646D01*
X170171Y304915D01*
X169818Y304063D01*
X169802Y303937D01*
X172441D01*
Y306576D01*
D02*
G37*
G36*
X319175Y303937D02*
X316535D01*
Y301298D01*
X316662Y301314D01*
X317513Y301667D01*
X318244Y302228D01*
X318805Y302959D01*
X319158Y303811D01*
X319175Y303937D01*
D02*
G37*
G36*
X314961D02*
X312321D01*
X312338Y303811D01*
X312691Y302959D01*
X313252Y302228D01*
X313983Y301667D01*
X314834Y301314D01*
X314961Y301298D01*
Y303937D01*
D02*
G37*
G36*
X258151D02*
X255512D01*
Y301298D01*
X255638Y301314D01*
X256489Y301667D01*
X257221Y302228D01*
X257782Y302959D01*
X258134Y303811D01*
X258151Y303937D01*
D02*
G37*
G36*
X253937D02*
X251298D01*
X251314Y303811D01*
X251667Y302959D01*
X252228Y302228D01*
X252959Y301667D01*
X253811Y301314D01*
X253937Y301298D01*
Y303937D01*
D02*
G37*
G36*
X213386Y302639D02*
Y300000D01*
X216025D01*
X216008Y300126D01*
X215656Y300978D01*
X215095Y301709D01*
X214364Y302270D01*
X213512Y302623D01*
X213386Y302639D01*
D02*
G37*
G36*
X211811D02*
X211685Y302623D01*
X210833Y302270D01*
X210102Y301709D01*
X209541Y300978D01*
X209189Y300126D01*
X209172Y300000D01*
X211811D01*
Y302639D01*
D02*
G37*
G36*
X176655Y302362D02*
X174016D01*
Y299723D01*
X174142Y299740D01*
X174994Y300092D01*
X175725Y300653D01*
X176286Y301384D01*
X176638Y302236D01*
X176655Y302362D01*
D02*
G37*
G36*
X172441D02*
X169802D01*
X169818Y302236D01*
X170171Y301384D01*
X170732Y300653D01*
X171463Y300092D01*
X172315Y299740D01*
X172441Y299723D01*
Y302362D01*
D02*
G37*
G36*
X63386Y310820D02*
Y298819D01*
X75387D01*
X75291Y300042D01*
X74820Y302003D01*
X74048Y303866D01*
X72995Y305585D01*
X71685Y307118D01*
X70152Y308428D01*
X68432Y309482D01*
X66570Y310253D01*
X64609Y310724D01*
X63386Y310820D01*
D02*
G37*
G36*
X61811D02*
X60588Y310724D01*
X58627Y310253D01*
X56764Y309482D01*
X55045Y308428D01*
X53512Y307118D01*
X52202Y305585D01*
X51148Y303866D01*
X50377Y302003D01*
X49906Y300042D01*
X49810Y298819D01*
X61811D01*
Y310820D01*
D02*
G37*
G36*
X432283Y299096D02*
Y296457D01*
X434923D01*
X434906Y296583D01*
X434553Y297434D01*
X433992Y298165D01*
X433261Y298727D01*
X432410Y299079D01*
X432283Y299096D01*
D02*
G37*
G36*
X430709D02*
X430582Y299079D01*
X429731Y298727D01*
X429000Y298165D01*
X428439Y297434D01*
X428086Y296583D01*
X428069Y296457D01*
X430709D01*
Y299096D01*
D02*
G37*
G36*
X216025Y298425D02*
X213386D01*
Y295786D01*
X213512Y295803D01*
X214364Y296155D01*
X215095Y296716D01*
X215656Y297447D01*
X216008Y298299D01*
X216025Y298425D01*
D02*
G37*
G36*
X211811D02*
X209172D01*
X209189Y298299D01*
X209541Y297447D01*
X210102Y296716D01*
X210833Y296155D01*
X211685Y295803D01*
X211811Y295786D01*
Y298425D01*
D02*
G37*
G36*
X31102Y297521D02*
Y294882D01*
X33742D01*
X33725Y295008D01*
X33372Y295860D01*
X32811Y296591D01*
X32080Y297152D01*
X31229Y297504D01*
X31102Y297521D01*
D02*
G37*
G36*
X29528D02*
X29401Y297504D01*
X28550Y297152D01*
X27819Y296591D01*
X27258Y295860D01*
X26905Y295008D01*
X26888Y294882D01*
X29528D01*
Y297521D01*
D02*
G37*
G36*
X434923Y294882D02*
X432283D01*
Y292243D01*
X432410Y292259D01*
X433261Y292612D01*
X433992Y293173D01*
X434553Y293904D01*
X434906Y294756D01*
X434923Y294882D01*
D02*
G37*
G36*
X430709D02*
X428069D01*
X428086Y294756D01*
X428439Y293904D01*
X429000Y293173D01*
X429731Y292612D01*
X430582Y292259D01*
X430709Y292243D01*
Y294882D01*
D02*
G37*
G36*
X33742Y293307D02*
X31102D01*
Y290668D01*
X31229Y290685D01*
X32080Y291037D01*
X32811Y291598D01*
X33372Y292329D01*
X33725Y293181D01*
X33742Y293307D01*
D02*
G37*
G36*
X29528D02*
X26888D01*
X26905Y293181D01*
X27258Y292329D01*
X27819Y291598D01*
X28550Y291037D01*
X29401Y290685D01*
X29528Y290668D01*
Y293307D01*
D02*
G37*
G36*
X384252Y288072D02*
Y285433D01*
X386891D01*
X386875Y285559D01*
X386522Y286411D01*
X385961Y287142D01*
X385230Y287703D01*
X384378Y288056D01*
X384252Y288072D01*
D02*
G37*
G36*
X382677D02*
X382551Y288056D01*
X381699Y287703D01*
X380968Y287142D01*
X380407Y286411D01*
X380055Y285559D01*
X380038Y285433D01*
X382677D01*
Y288072D01*
D02*
G37*
G36*
X90945Y310669D02*
X88968Y310513D01*
X87040Y310050D01*
X85208Y309292D01*
X83517Y308255D01*
X82009Y306967D01*
X80721Y305460D01*
X79685Y303769D01*
X78926Y301937D01*
X78463Y300008D01*
X78307Y298031D01*
X78463Y296055D01*
X78926Y294126D01*
X79685Y292294D01*
X80290Y291307D01*
X51578Y262596D01*
X51136Y262020D01*
X50858Y261349D01*
X50764Y260630D01*
Y246161D01*
X45079D01*
Y237500D01*
X58077D01*
X63382Y232195D01*
Y229626D01*
X63477Y228906D01*
X63754Y228236D01*
X64196Y227660D01*
X69208Y222649D01*
X69267Y222197D01*
X69620Y221345D01*
X70181Y220614D01*
X70912Y220053D01*
X71763Y219700D01*
X72677Y219580D01*
X73591Y219700D01*
X74442Y220053D01*
X74804Y220331D01*
X85765D01*
X98425Y207670D01*
Y205315D01*
X100780D01*
X107906Y198190D01*
X107714Y197728D01*
X99750D01*
X98606Y198872D01*
X98085Y199220D01*
X97470Y199342D01*
X97470Y199342D01*
X61393D01*
X52730Y208005D01*
X52209Y208353D01*
X51595Y208476D01*
X51594Y208476D01*
X34438D01*
X34312Y208780D01*
X33705Y209571D01*
X32914Y210178D01*
X31993Y210560D01*
X31004Y210690D01*
X30015Y210560D01*
X29094Y210178D01*
X28303Y209571D01*
X27696Y208780D01*
X27314Y207859D01*
X27184Y206870D01*
X27314Y205881D01*
X27696Y204960D01*
X28303Y204169D01*
X29094Y203562D01*
X30015Y203180D01*
X31004Y203050D01*
X31993Y203180D01*
X32914Y203562D01*
X33705Y204169D01*
X34312Y204960D01*
X34438Y205264D01*
X50929D01*
X57218Y198976D01*
X57011Y198476D01*
X34438D01*
X34312Y198780D01*
X33705Y199571D01*
X32914Y200178D01*
X31993Y200560D01*
X31004Y200690D01*
X30015Y200560D01*
X29094Y200178D01*
X28303Y199571D01*
X27696Y198780D01*
X27314Y197859D01*
X27184Y196870D01*
X27314Y195881D01*
X27696Y194960D01*
X28303Y194169D01*
X29094Y193562D01*
X30015Y193180D01*
X31004Y193050D01*
X31993Y193180D01*
X32914Y193562D01*
X33705Y194169D01*
X34312Y194960D01*
X34438Y195264D01*
X56992D01*
X57760Y194497D01*
X57840Y193870D01*
X52445Y188476D01*
X34438D01*
X34312Y188780D01*
X33705Y189571D01*
X32914Y190178D01*
X31993Y190560D01*
X31004Y190690D01*
X30015Y190560D01*
X29094Y190178D01*
X28303Y189571D01*
X27696Y188780D01*
X27314Y187859D01*
X27184Y186870D01*
X27314Y185881D01*
X27696Y184960D01*
X28303Y184169D01*
X29094Y183562D01*
X30015Y183180D01*
X31004Y183050D01*
X31993Y183180D01*
X32914Y183562D01*
X33705Y184169D01*
X34312Y184960D01*
X34438Y185264D01*
X53110D01*
X53110Y185264D01*
X53532Y185348D01*
X53687Y185170D01*
X53778Y184888D01*
X47366Y178476D01*
X34438D01*
X34312Y178780D01*
X33705Y179571D01*
X32914Y180178D01*
X31993Y180560D01*
X31004Y180690D01*
X30015Y180560D01*
X29094Y180178D01*
X28303Y179571D01*
X27696Y178780D01*
X27314Y177859D01*
X27184Y176870D01*
X27314Y175881D01*
X27696Y174960D01*
X28303Y174169D01*
X29094Y173562D01*
X30015Y173180D01*
X31004Y173050D01*
X31993Y173180D01*
X32914Y173562D01*
X33705Y174169D01*
X34312Y174960D01*
X34438Y175264D01*
X47976D01*
X48080Y175134D01*
X48208Y174790D01*
X41894Y168476D01*
X34438D01*
X34312Y168780D01*
X33705Y169571D01*
X32914Y170178D01*
X31993Y170560D01*
X31004Y170690D01*
X30015Y170560D01*
X29094Y170178D01*
X28303Y169571D01*
X27696Y168780D01*
X27314Y167859D01*
X27184Y166870D01*
X27314Y165881D01*
X27696Y164960D01*
X28303Y164169D01*
X29094Y163562D01*
X30015Y163180D01*
X31004Y163050D01*
X31993Y163180D01*
X32914Y163562D01*
X33705Y164169D01*
X34312Y164960D01*
X34438Y165264D01*
X42559D01*
X42559Y165264D01*
X43174Y165387D01*
X43694Y165735D01*
X65232Y187272D01*
X69767D01*
X70019Y186772D01*
X69975Y186713D01*
X67224D01*
Y181791D01*
X73130D01*
Y184442D01*
X73598Y184910D01*
X91461D01*
X93884Y182487D01*
X94405Y182139D01*
X95020Y182016D01*
X95020Y182016D01*
X107957D01*
Y181909D01*
X115665D01*
Y182909D01*
X115059D01*
Y184803D01*
X115059D01*
Y184941D01*
X115059D01*
Y187303D01*
X115059D01*
Y187441D01*
X115059D01*
Y189803D01*
X115059D01*
Y189941D01*
X115059D01*
Y192303D01*
X115059D01*
Y192441D01*
X115059D01*
Y194803D01*
X115059D01*
Y194941D01*
X115059D01*
Y197303D01*
X115059D01*
Y197441D01*
X115059D01*
Y199803D01*
X112878D01*
X112425Y200106D01*
X111811Y200228D01*
X110409D01*
X104724Y205912D01*
Y210236D01*
X100401D01*
X99107Y211530D01*
X99298Y211992D01*
X100787D01*
Y214272D01*
X97819D01*
Y213471D01*
X97357Y213280D01*
X90768Y219869D01*
X90960Y220331D01*
X91083D01*
X91802Y220425D01*
X92472Y220703D01*
X93048Y221145D01*
X93490Y221720D01*
X93768Y222391D01*
X93862Y223110D01*
Y226820D01*
X93961Y227059D01*
X94081Y227972D01*
X93961Y228886D01*
X93608Y229738D01*
X93047Y230469D01*
X92316Y231030D01*
X91465Y231382D01*
X90551Y231503D01*
X89638Y231382D01*
X88786Y231030D01*
X88055Y230469D01*
X87494Y229738D01*
X87141Y228886D01*
X87021Y227972D01*
X87141Y227059D01*
X87418Y226390D01*
X87158Y225890D01*
X74804D01*
X74442Y226167D01*
X73591Y226520D01*
X73139Y226580D01*
X68941Y230777D01*
Y233347D01*
X68846Y234066D01*
X68569Y234736D01*
X68127Y235312D01*
X62008Y241431D01*
Y246161D01*
X56323D01*
Y259479D01*
X84221Y287376D01*
X85208Y286771D01*
X87040Y286013D01*
X88968Y285550D01*
X90945Y285394D01*
X92922Y285550D01*
X94850Y286013D01*
X96682Y286771D01*
X98373Y287808D01*
X99881Y289095D01*
X101169Y290603D01*
X102205Y292294D01*
X102964Y294126D01*
X103427Y296055D01*
X103582Y298031D01*
X103427Y300008D01*
X102964Y301937D01*
X102205Y303769D01*
X101169Y305460D01*
X99881Y306967D01*
X98373Y308255D01*
X96682Y309292D01*
X94850Y310050D01*
X92922Y310513D01*
X90945Y310669D01*
D02*
G37*
G36*
X61811Y297244D02*
X49810D01*
X49906Y296021D01*
X50377Y294060D01*
X51148Y292197D01*
X52202Y290478D01*
X53512Y288945D01*
X55045Y287635D01*
X56764Y286581D01*
X58627Y285810D01*
X60588Y285339D01*
X61811Y285243D01*
Y297244D01*
D02*
G37*
G36*
X75387D02*
X63386D01*
Y285243D01*
X64609Y285339D01*
X66570Y285810D01*
X68432Y286581D01*
X70152Y287635D01*
X71685Y288945D01*
X72995Y290478D01*
X74048Y292197D01*
X74820Y294060D01*
X75291Y296021D01*
X75387Y297244D01*
D02*
G37*
G36*
X386891Y283858D02*
X384252D01*
Y281219D01*
X384378Y281236D01*
X385230Y281588D01*
X385961Y282149D01*
X386522Y282881D01*
X386875Y283732D01*
X386891Y283858D01*
D02*
G37*
G36*
X382677D02*
X380038D01*
X380055Y283732D01*
X380407Y282881D01*
X380968Y282149D01*
X381699Y281588D01*
X382551Y281236D01*
X382677Y281219D01*
Y283858D01*
D02*
G37*
G36*
X173721Y285503D02*
Y279429D01*
X179794D01*
X179739Y279995D01*
X179344Y281297D01*
X178703Y282497D01*
X177840Y283548D01*
X176788Y284411D01*
X175589Y285052D01*
X174287Y285447D01*
X173721Y285503D01*
D02*
G37*
G36*
X172146D02*
X171579Y285447D01*
X170278Y285052D01*
X169078Y284411D01*
X168026Y283548D01*
X167164Y282497D01*
X166522Y281297D01*
X166128Y279995D01*
X166072Y279429D01*
X172146D01*
Y285503D01*
D02*
G37*
G36*
X307874Y279017D02*
Y276378D01*
X310513D01*
X310496Y276504D01*
X310144Y277356D01*
X309583Y278087D01*
X308852Y278648D01*
X308000Y279000D01*
X307874Y279017D01*
D02*
G37*
G36*
X306299D02*
X306173Y279000D01*
X305322Y278648D01*
X304590Y278087D01*
X304029Y277356D01*
X303677Y276504D01*
X303660Y276378D01*
X306299D01*
Y279017D01*
D02*
G37*
G36*
X197638D02*
Y276378D01*
X200277D01*
X200260Y276504D01*
X199908Y277356D01*
X199347Y278087D01*
X198616Y278648D01*
X197764Y279000D01*
X197638Y279017D01*
D02*
G37*
G36*
X196063D02*
X195937Y279000D01*
X195085Y278648D01*
X194354Y278087D01*
X193793Y277356D01*
X193440Y276504D01*
X193424Y276378D01*
X196063D01*
Y279017D01*
D02*
G37*
G36*
X146457D02*
Y276378D01*
X149096D01*
X149079Y276504D01*
X148726Y277356D01*
X148166Y278087D01*
X147434Y278648D01*
X146583Y279000D01*
X146457Y279017D01*
D02*
G37*
G36*
X144882D02*
X144756Y279000D01*
X143904Y278648D01*
X143173Y278087D01*
X142612Y277356D01*
X142259Y276504D01*
X142243Y276378D01*
X144882D01*
Y279017D01*
D02*
G37*
G36*
X114567Y278623D02*
Y275984D01*
X117206D01*
X117189Y276111D01*
X116837Y276962D01*
X116276Y277693D01*
X115545Y278254D01*
X114693Y278607D01*
X114567Y278623D01*
D02*
G37*
G36*
X112992D02*
X112866Y278607D01*
X112014Y278254D01*
X111283Y277693D01*
X110722Y276962D01*
X110370Y276111D01*
X110353Y275984D01*
X112992D01*
Y278623D01*
D02*
G37*
G36*
X310513Y274803D02*
X307874D01*
Y272164D01*
X308000Y272181D01*
X308852Y272533D01*
X309583Y273094D01*
X310144Y273826D01*
X310496Y274677D01*
X310513Y274803D01*
D02*
G37*
G36*
X306299D02*
X303660D01*
X303677Y274677D01*
X304029Y273826D01*
X304590Y273094D01*
X305322Y272533D01*
X306173Y272181D01*
X306299Y272164D01*
Y274803D01*
D02*
G37*
G36*
X200277D02*
X197638D01*
Y272164D01*
X197764Y272181D01*
X198616Y272533D01*
X199347Y273094D01*
X199908Y273826D01*
X200260Y274677D01*
X200277Y274803D01*
D02*
G37*
G36*
X196063D02*
X193424D01*
X193440Y274677D01*
X193793Y273826D01*
X194354Y273094D01*
X195085Y272533D01*
X195937Y272181D01*
X196063Y272164D01*
Y274803D01*
D02*
G37*
G36*
X149096D02*
X146457D01*
Y272164D01*
X146583Y272181D01*
X147434Y272533D01*
X148166Y273094D01*
X148726Y273826D01*
X149079Y274677D01*
X149096Y274803D01*
D02*
G37*
G36*
X144882D02*
X142243D01*
X142259Y274677D01*
X142612Y273826D01*
X143173Y273094D01*
X143904Y272533D01*
X144756Y272181D01*
X144882Y272164D01*
Y274803D01*
D02*
G37*
G36*
X179794Y277854D02*
X173721D01*
Y271780D01*
X174287Y271836D01*
X175589Y272231D01*
X176788Y272872D01*
X177840Y273735D01*
X178703Y274787D01*
X179344Y275986D01*
X179739Y277288D01*
X179794Y277854D01*
D02*
G37*
G36*
X172146D02*
X166072D01*
X166128Y277288D01*
X166522Y275986D01*
X167164Y274787D01*
X168026Y273735D01*
X169078Y272872D01*
X170278Y272231D01*
X171579Y271836D01*
X172146Y271780D01*
Y277854D01*
D02*
G37*
G36*
X117206Y274410D02*
X114567D01*
Y271770D01*
X114693Y271787D01*
X115545Y272140D01*
X116276Y272701D01*
X116837Y273432D01*
X117189Y274283D01*
X117206Y274410D01*
D02*
G37*
G36*
X112992D02*
X110353D01*
X110370Y274283D01*
X110722Y273432D01*
X111283Y272701D01*
X112014Y272140D01*
X112866Y271787D01*
X112992Y271770D01*
Y274410D01*
D02*
G37*
G36*
X268504Y274293D02*
Y271654D01*
X271143D01*
X271127Y271780D01*
X270774Y272631D01*
X270213Y273362D01*
X269482Y273923D01*
X268630Y274276D01*
X268504Y274293D01*
D02*
G37*
G36*
X266929D02*
X266803Y274276D01*
X265951Y273923D01*
X265220Y273362D01*
X264659Y272631D01*
X264307Y271780D01*
X264290Y271654D01*
X266929D01*
Y274293D01*
D02*
G37*
G36*
X90158Y271537D02*
Y268898D01*
X92797D01*
X92780Y269024D01*
X92427Y269875D01*
X91866Y270606D01*
X91135Y271167D01*
X90284Y271520D01*
X90158Y271537D01*
D02*
G37*
G36*
X88583D02*
X88456Y271520D01*
X87605Y271167D01*
X86874Y270606D01*
X86313Y269875D01*
X85960Y269024D01*
X85944Y268898D01*
X88583D01*
Y271537D01*
D02*
G37*
G36*
X271143Y270079D02*
X268504D01*
Y267440D01*
X268630Y267456D01*
X269482Y267809D01*
X270213Y268370D01*
X270774Y269101D01*
X271127Y269953D01*
X271143Y270079D01*
D02*
G37*
G36*
X266929D02*
X264290D01*
X264307Y269953D01*
X264659Y269101D01*
X265220Y268370D01*
X265951Y267809D01*
X266803Y267456D01*
X266929Y267440D01*
Y270079D01*
D02*
G37*
G36*
X92797Y267323D02*
X90158D01*
Y264684D01*
X90284Y264700D01*
X91135Y265053D01*
X91866Y265614D01*
X92427Y266345D01*
X92780Y267197D01*
X92797Y267323D01*
D02*
G37*
G36*
X88583D02*
X85944D01*
X85960Y267197D01*
X86313Y266345D01*
X86874Y265614D01*
X87605Y265053D01*
X88456Y264700D01*
X88583Y264684D01*
Y267323D01*
D02*
G37*
G36*
X284252Y263269D02*
Y260630D01*
X286891D01*
X286875Y260756D01*
X286522Y261608D01*
X285961Y262339D01*
X285230Y262900D01*
X284378Y263252D01*
X284252Y263269D01*
D02*
G37*
G36*
X282677D02*
X282551Y263252D01*
X281699Y262900D01*
X280968Y262339D01*
X280407Y261608D01*
X280055Y260756D01*
X280038Y260630D01*
X282677D01*
Y263269D01*
D02*
G37*
G36*
X252756D02*
Y260630D01*
X255395D01*
X255378Y260756D01*
X255026Y261608D01*
X254465Y262339D01*
X253734Y262900D01*
X252882Y263252D01*
X252756Y263269D01*
D02*
G37*
G36*
X251181D02*
X251055Y263252D01*
X250203Y262900D01*
X249472Y262339D01*
X248911Y261608D01*
X248559Y260756D01*
X248542Y260630D01*
X251181D01*
Y263269D01*
D02*
G37*
G36*
X66929Y260907D02*
Y258268D01*
X69568D01*
X69552Y258394D01*
X69199Y259245D01*
X68638Y259977D01*
X67907Y260538D01*
X67055Y260890D01*
X66929Y260907D01*
D02*
G37*
G36*
X65354D02*
X65228Y260890D01*
X64377Y260538D01*
X63645Y259977D01*
X63085Y259245D01*
X62732Y258394D01*
X62715Y258268D01*
X65354D01*
Y260907D01*
D02*
G37*
G36*
X177953Y259332D02*
Y256693D01*
X180592D01*
X180575Y256819D01*
X180223Y257671D01*
X179662Y258402D01*
X178930Y258963D01*
X178079Y259315D01*
X177953Y259332D01*
D02*
G37*
G36*
X176378D02*
X176252Y259315D01*
X175400Y258963D01*
X174669Y258402D01*
X174108Y257671D01*
X173755Y256819D01*
X173739Y256693D01*
X176378D01*
Y259332D01*
D02*
G37*
G36*
X20472D02*
Y256693D01*
X23112D01*
X23095Y256819D01*
X22742Y257671D01*
X22181Y258402D01*
X21450Y258963D01*
X20599Y259315D01*
X20472Y259332D01*
D02*
G37*
G36*
X18898D02*
X18771Y259315D01*
X17920Y258963D01*
X17189Y258402D01*
X16628Y257671D01*
X16275Y256819D01*
X16259Y256693D01*
X18898D01*
Y259332D01*
D02*
G37*
G36*
X286891Y259055D02*
X284252D01*
Y256416D01*
X284378Y256433D01*
X285230Y256785D01*
X285961Y257346D01*
X286522Y258077D01*
X286875Y258929D01*
X286891Y259055D01*
D02*
G37*
G36*
X282677D02*
X280038D01*
X280055Y258929D01*
X280407Y258077D01*
X280968Y257346D01*
X281699Y256785D01*
X282551Y256433D01*
X282677Y256416D01*
Y259055D01*
D02*
G37*
G36*
X255395D02*
X252756D01*
Y256416D01*
X252882Y256433D01*
X253734Y256785D01*
X254465Y257346D01*
X255026Y258077D01*
X255378Y258929D01*
X255395Y259055D01*
D02*
G37*
G36*
X251181D02*
X248542D01*
X248559Y258929D01*
X248911Y258077D01*
X249472Y257346D01*
X250203Y256785D01*
X251055Y256433D01*
X251181Y256416D01*
Y259055D01*
D02*
G37*
G36*
X349213Y258151D02*
Y255512D01*
X351852D01*
X351835Y255638D01*
X351482Y256489D01*
X350921Y257221D01*
X350190Y257782D01*
X349339Y258134D01*
X349213Y258151D01*
D02*
G37*
G36*
X347638D02*
X347512Y258134D01*
X346660Y257782D01*
X345929Y257221D01*
X345368Y256489D01*
X345015Y255638D01*
X344999Y255512D01*
X347638D01*
Y258151D01*
D02*
G37*
G36*
X69568Y256693D02*
X66929D01*
Y254054D01*
X67055Y254070D01*
X67907Y254423D01*
X68638Y254984D01*
X69199Y255715D01*
X69552Y256567D01*
X69568Y256693D01*
D02*
G37*
G36*
X65354D02*
X62715D01*
X62732Y256567D01*
X63085Y255715D01*
X63645Y254984D01*
X64377Y254423D01*
X65228Y254070D01*
X65354Y254054D01*
Y256693D01*
D02*
G37*
G36*
X221260Y255395D02*
Y252756D01*
X223899D01*
X223882Y252882D01*
X223530Y253734D01*
X222969Y254465D01*
X222237Y255026D01*
X221386Y255378D01*
X221260Y255395D01*
D02*
G37*
G36*
X219685D02*
X219559Y255378D01*
X218707Y255026D01*
X217976Y254465D01*
X217415Y253734D01*
X217062Y252882D01*
X217046Y252756D01*
X219685D01*
Y255395D01*
D02*
G37*
G36*
X142520D02*
Y252756D01*
X145159D01*
X145142Y252882D01*
X144790Y253734D01*
X144228Y254465D01*
X143497Y255026D01*
X142646Y255378D01*
X142520Y255395D01*
D02*
G37*
G36*
X140945D02*
X140819Y255378D01*
X139967Y255026D01*
X139236Y254465D01*
X138675Y253734D01*
X138322Y252882D01*
X138306Y252756D01*
X140945D01*
Y255395D01*
D02*
G37*
G36*
X180592Y255118D02*
X177953D01*
Y252479D01*
X178079Y252496D01*
X178930Y252848D01*
X179662Y253409D01*
X180223Y254140D01*
X180575Y254992D01*
X180592Y255118D01*
D02*
G37*
G36*
X176378D02*
X173739D01*
X173755Y254992D01*
X174108Y254140D01*
X174669Y253409D01*
X175400Y252848D01*
X176252Y252496D01*
X176378Y252479D01*
Y255118D01*
D02*
G37*
G36*
X23112D02*
X20472D01*
Y252479D01*
X20599Y252496D01*
X21450Y252848D01*
X22181Y253409D01*
X22742Y254140D01*
X23095Y254992D01*
X23112Y255118D01*
D02*
G37*
G36*
X18898D02*
X16259D01*
X16275Y254992D01*
X16628Y254140D01*
X17189Y253409D01*
X17920Y252848D01*
X18771Y252496D01*
X18898Y252479D01*
Y255118D01*
D02*
G37*
G36*
X351852Y253937D02*
X349213D01*
Y251298D01*
X349339Y251314D01*
X350190Y251667D01*
X350921Y252228D01*
X351482Y252959D01*
X351835Y253811D01*
X351852Y253937D01*
D02*
G37*
G36*
X347638D02*
X344999D01*
X345015Y253811D01*
X345368Y252959D01*
X345929Y252228D01*
X346660Y251667D01*
X347512Y251314D01*
X347638Y251298D01*
Y253937D01*
D02*
G37*
G36*
X223899Y251181D02*
X221260D01*
Y248542D01*
X221386Y248559D01*
X222237Y248911D01*
X222969Y249472D01*
X223530Y250203D01*
X223882Y251055D01*
X223899Y251181D01*
D02*
G37*
G36*
X219685D02*
X217046D01*
X217062Y251055D01*
X217415Y250203D01*
X217976Y249472D01*
X218707Y248911D01*
X219559Y248559D01*
X219685Y248542D01*
Y251181D01*
D02*
G37*
G36*
X145159D02*
X142520D01*
Y248542D01*
X142646Y248559D01*
X143497Y248911D01*
X144228Y249472D01*
X144790Y250203D01*
X145142Y251055D01*
X145159Y251181D01*
D02*
G37*
G36*
X140945D02*
X138306D01*
X138322Y251055D01*
X138675Y250203D01*
X139236Y249472D01*
X139967Y248911D01*
X140819Y248559D01*
X140945Y248542D01*
Y251181D01*
D02*
G37*
G36*
X414567Y250671D02*
Y248031D01*
X417206D01*
X417189Y248158D01*
X416837Y249009D01*
X416276Y249740D01*
X415545Y250301D01*
X414693Y250654D01*
X414567Y250671D01*
D02*
G37*
G36*
X412992D02*
X412866Y250654D01*
X412014Y250301D01*
X411283Y249740D01*
X410722Y249009D01*
X410370Y248158D01*
X410353Y248031D01*
X412992D01*
Y250671D01*
D02*
G37*
G36*
X114961Y247521D02*
Y244882D01*
X117600D01*
X117583Y245008D01*
X117230Y245860D01*
X116669Y246591D01*
X115938Y247152D01*
X115087Y247504D01*
X114961Y247521D01*
D02*
G37*
G36*
X113386D02*
X113259Y247504D01*
X112408Y247152D01*
X111677Y246591D01*
X111116Y245860D01*
X110763Y245008D01*
X110747Y244882D01*
X113386D01*
Y247521D01*
D02*
G37*
G36*
X417206Y246457D02*
X414567D01*
Y243817D01*
X414693Y243834D01*
X415545Y244187D01*
X416276Y244748D01*
X416837Y245479D01*
X417189Y246330D01*
X417206Y246457D01*
D02*
G37*
G36*
X412992D02*
X410353D01*
X410370Y246330D01*
X410722Y245479D01*
X411283Y244748D01*
X412014Y244187D01*
X412866Y243834D01*
X412992Y243817D01*
Y246457D01*
D02*
G37*
G36*
X28362Y246768D02*
X20079D01*
Y242618D01*
X28362D01*
Y246768D01*
D02*
G37*
G36*
X18504D02*
X10221D01*
Y242618D01*
X18504D01*
Y246768D01*
D02*
G37*
G36*
X117600Y243307D02*
X114961D01*
Y240668D01*
X115087Y240685D01*
X115938Y241037D01*
X116669Y241598D01*
X117230Y242329D01*
X117583Y243181D01*
X117600Y243307D01*
D02*
G37*
G36*
X113386D02*
X110747D01*
X110763Y243181D01*
X111116Y242329D01*
X111677Y241598D01*
X112408Y241037D01*
X113259Y240685D01*
X113386Y240668D01*
Y243307D01*
D02*
G37*
G36*
X205512Y239647D02*
Y237008D01*
X208151D01*
X208134Y237134D01*
X207782Y237986D01*
X207221Y238717D01*
X206489Y239278D01*
X205638Y239630D01*
X205512Y239647D01*
D02*
G37*
G36*
X203937D02*
X203811Y239630D01*
X202959Y239278D01*
X202228Y238717D01*
X201667Y237986D01*
X201314Y237134D01*
X201298Y237008D01*
X203937D01*
Y239647D01*
D02*
G37*
G36*
X158268D02*
Y237008D01*
X160907D01*
X160890Y237134D01*
X160538Y237986D01*
X159976Y238717D01*
X159245Y239278D01*
X158394Y239630D01*
X158268Y239647D01*
D02*
G37*
G36*
X156693D02*
X156567Y239630D01*
X155715Y239278D01*
X154984Y238717D01*
X154423Y237986D01*
X154070Y237134D01*
X154054Y237008D01*
X156693D01*
Y239647D01*
D02*
G37*
G36*
X28362Y241043D02*
X20079D01*
Y236894D01*
X28362D01*
Y241043D01*
D02*
G37*
G36*
X18504D02*
X10221D01*
Y236894D01*
X18504D01*
Y241043D01*
D02*
G37*
G36*
X208151Y235433D02*
X205512D01*
Y232794D01*
X205638Y232811D01*
X206489Y233163D01*
X207221Y233724D01*
X207782Y234455D01*
X208134Y235307D01*
X208151Y235433D01*
D02*
G37*
G36*
X203937D02*
X201298D01*
X201314Y235307D01*
X201667Y234455D01*
X202228Y233724D01*
X202959Y233163D01*
X203811Y232811D01*
X203937Y232794D01*
Y235433D01*
D02*
G37*
G36*
X160907D02*
X158268D01*
Y232794D01*
X158394Y232811D01*
X159245Y233163D01*
X159976Y233724D01*
X160538Y234455D01*
X160890Y235307D01*
X160907Y235433D01*
D02*
G37*
G36*
X156693D02*
X154054D01*
X154070Y235307D01*
X154423Y234455D01*
X154984Y233724D01*
X155715Y233163D01*
X156567Y232811D01*
X156693Y232794D01*
Y235433D01*
D02*
G37*
G36*
X20472Y231773D02*
Y229134D01*
X23112D01*
X23095Y229260D01*
X22742Y230112D01*
X22181Y230843D01*
X21450Y231404D01*
X20599Y231756D01*
X20472Y231773D01*
D02*
G37*
G36*
X18898D02*
X18771Y231756D01*
X17920Y231404D01*
X17189Y230843D01*
X16628Y230112D01*
X16275Y229260D01*
X16259Y229134D01*
X18898D01*
Y231773D01*
D02*
G37*
G36*
X103150Y227836D02*
Y225197D01*
X105789D01*
X105772Y225323D01*
X105419Y226174D01*
X104858Y226906D01*
X104127Y227467D01*
X103276Y227819D01*
X103150Y227836D01*
D02*
G37*
G36*
X101575D02*
X101449Y227819D01*
X100597Y227467D01*
X99866Y226906D01*
X99305Y226174D01*
X98952Y225323D01*
X98936Y225197D01*
X101575D01*
Y227836D01*
D02*
G37*
G36*
X23112Y227559D02*
X20472D01*
Y224920D01*
X20599Y224937D01*
X21450Y225289D01*
X22181Y225850D01*
X22742Y226581D01*
X23095Y227433D01*
X23112Y227559D01*
D02*
G37*
G36*
X18898D02*
X16259D01*
X16275Y227433D01*
X16628Y226581D01*
X17189Y225850D01*
X17920Y225289D01*
X18771Y224937D01*
X18898Y224920D01*
Y227559D01*
D02*
G37*
G36*
X197638Y223899D02*
Y221260D01*
X200277D01*
X200260Y221386D01*
X199908Y222237D01*
X199347Y222969D01*
X198616Y223530D01*
X197764Y223882D01*
X197638Y223899D01*
D02*
G37*
G36*
X196063D02*
X195937Y223882D01*
X195085Y223530D01*
X194354Y222969D01*
X193793Y222237D01*
X193440Y221386D01*
X193424Y221260D01*
X196063D01*
Y223899D01*
D02*
G37*
G36*
X142520D02*
Y221260D01*
X145159D01*
X145142Y221386D01*
X144790Y222237D01*
X144228Y222969D01*
X143497Y223530D01*
X142646Y223882D01*
X142520Y223899D01*
D02*
G37*
G36*
X140945D02*
X140819Y223882D01*
X139967Y223530D01*
X139236Y222969D01*
X138675Y222237D01*
X138322Y221386D01*
X138306Y221260D01*
X140945D01*
Y223899D01*
D02*
G37*
G36*
X105789Y223622D02*
X103150D01*
Y220983D01*
X103276Y221000D01*
X104127Y221352D01*
X104858Y221913D01*
X105419Y222644D01*
X105772Y223496D01*
X105789Y223622D01*
D02*
G37*
G36*
X101575D02*
X98936D01*
X98952Y223496D01*
X99305Y222644D01*
X99866Y221913D01*
X100597Y221352D01*
X101449Y221000D01*
X101575Y220983D01*
Y223622D01*
D02*
G37*
G36*
X382283Y221143D02*
Y218504D01*
X384923D01*
X384906Y218630D01*
X384553Y219482D01*
X383992Y220213D01*
X383261Y220774D01*
X382410Y221127D01*
X382283Y221143D01*
D02*
G37*
G36*
X380709D02*
X380582Y221127D01*
X379731Y220774D01*
X379000Y220213D01*
X378439Y219482D01*
X378086Y218630D01*
X378069Y218504D01*
X380709D01*
Y221143D01*
D02*
G37*
G36*
X189681Y221260D02*
X187401D01*
Y218291D01*
X189681D01*
Y221260D01*
D02*
G37*
G36*
X185827D02*
X183547D01*
Y218291D01*
X185827D01*
Y221260D01*
D02*
G37*
G36*
X311811Y219962D02*
Y217323D01*
X314450D01*
X314434Y217449D01*
X314081Y218301D01*
X313520Y219032D01*
X312789Y219593D01*
X311937Y219945D01*
X311811Y219962D01*
D02*
G37*
G36*
X310236D02*
X310110Y219945D01*
X309259Y219593D01*
X308527Y219032D01*
X307966Y218301D01*
X307614Y217449D01*
X307597Y217323D01*
X310236D01*
Y219962D01*
D02*
G37*
G36*
X288189D02*
Y217323D01*
X290828D01*
X290811Y217449D01*
X290459Y218301D01*
X289898Y219032D01*
X289167Y219593D01*
X288315Y219945D01*
X288189Y219962D01*
D02*
G37*
G36*
X286614D02*
X286488Y219945D01*
X285636Y219593D01*
X284905Y219032D01*
X284344Y218301D01*
X283992Y217449D01*
X283975Y217323D01*
X286614D01*
Y219962D01*
D02*
G37*
G36*
X256693D02*
Y217323D01*
X259332D01*
X259315Y217449D01*
X258963Y218301D01*
X258402Y219032D01*
X257671Y219593D01*
X256819Y219945D01*
X256693Y219962D01*
D02*
G37*
G36*
X255118D02*
X254992Y219945D01*
X254140Y219593D01*
X253409Y219032D01*
X252848Y218301D01*
X252496Y217449D01*
X252479Y217323D01*
X255118D01*
Y219962D01*
D02*
G37*
G36*
X63779D02*
Y217323D01*
X66419D01*
X66402Y217449D01*
X66049Y218301D01*
X65488Y219032D01*
X64757Y219593D01*
X63906Y219945D01*
X63779Y219962D01*
D02*
G37*
G36*
X62205D02*
X62078Y219945D01*
X61227Y219593D01*
X60496Y219032D01*
X59935Y218301D01*
X59582Y217449D01*
X59566Y217323D01*
X62205D01*
Y219962D01*
D02*
G37*
G36*
X200277Y219685D02*
X197638D01*
Y217046D01*
X197764Y217062D01*
X198616Y217415D01*
X199347Y217976D01*
X199908Y218707D01*
X200260Y219559D01*
X200277Y219685D01*
D02*
G37*
G36*
X196063D02*
X193424D01*
X193440Y219559D01*
X193793Y218707D01*
X194354Y217976D01*
X195085Y217415D01*
X195937Y217062D01*
X196063Y217046D01*
Y219685D01*
D02*
G37*
G36*
X145159D02*
X142520D01*
Y217046D01*
X142646Y217062D01*
X143497Y217415D01*
X144228Y217976D01*
X144790Y218707D01*
X145142Y219559D01*
X145159Y219685D01*
D02*
G37*
G36*
X140945D02*
X138306D01*
X138322Y219559D01*
X138675Y218707D01*
X139236Y217976D01*
X139967Y217415D01*
X140819Y217062D01*
X140945Y217046D01*
Y219685D01*
D02*
G37*
G36*
X85094Y218894D02*
X82126D01*
Y216614D01*
X85094D01*
Y218894D01*
D02*
G37*
G36*
X80551D02*
X77583D01*
Y216614D01*
X80551D01*
Y218894D01*
D02*
G37*
G36*
X105331Y218126D02*
X102362D01*
Y215846D01*
X105331D01*
Y218126D01*
D02*
G37*
G36*
X100787D02*
X97819D01*
Y215846D01*
X100787D01*
Y218126D01*
D02*
G37*
G36*
X384923Y216929D02*
X382283D01*
Y214290D01*
X382410Y214307D01*
X383261Y214659D01*
X383992Y215220D01*
X384553Y215951D01*
X384906Y216803D01*
X384923Y216929D01*
D02*
G37*
G36*
X380709D02*
X378069D01*
X378086Y216803D01*
X378439Y215951D01*
X379000Y215220D01*
X379731Y214659D01*
X380582Y214307D01*
X380709Y214290D01*
Y216929D01*
D02*
G37*
G36*
X237008Y216025D02*
Y213386D01*
X239647D01*
X239630Y213512D01*
X239278Y214364D01*
X238717Y215095D01*
X237986Y215656D01*
X237134Y216008D01*
X237008Y216025D01*
D02*
G37*
G36*
X235433D02*
X235307Y216008D01*
X234455Y215656D01*
X233724Y215095D01*
X233163Y214364D01*
X232811Y213512D01*
X232794Y213386D01*
X235433D01*
Y216025D01*
D02*
G37*
G36*
X314450Y215748D02*
X311811D01*
Y213109D01*
X311937Y213125D01*
X312789Y213478D01*
X313520Y214039D01*
X314081Y214770D01*
X314434Y215622D01*
X314450Y215748D01*
D02*
G37*
G36*
X310236D02*
X307597D01*
X307614Y215622D01*
X307966Y214770D01*
X308527Y214039D01*
X309259Y213478D01*
X310110Y213125D01*
X310236Y213109D01*
Y215748D01*
D02*
G37*
G36*
X290828D02*
X288189D01*
Y213109D01*
X288315Y213125D01*
X289167Y213478D01*
X289898Y214039D01*
X290459Y214770D01*
X290811Y215622D01*
X290828Y215748D01*
D02*
G37*
G36*
X286614D02*
X283975D01*
X283992Y215622D01*
X284344Y214770D01*
X284905Y214039D01*
X285636Y213478D01*
X286488Y213125D01*
X286614Y213109D01*
Y215748D01*
D02*
G37*
G36*
X259332D02*
X256693D01*
Y213109D01*
X256819Y213125D01*
X257671Y213478D01*
X258402Y214039D01*
X258963Y214770D01*
X259315Y215622D01*
X259332Y215748D01*
D02*
G37*
G36*
X255118D02*
X252479D01*
X252496Y215622D01*
X252848Y214770D01*
X253409Y214039D01*
X254140Y213478D01*
X254992Y213125D01*
X255118Y213109D01*
Y215748D01*
D02*
G37*
G36*
X66419D02*
X63779D01*
Y213109D01*
X63906Y213125D01*
X64757Y213478D01*
X65488Y214039D01*
X66049Y214770D01*
X66402Y215622D01*
X66419Y215748D01*
D02*
G37*
G36*
X62205D02*
X59566D01*
X59582Y215622D01*
X59935Y214770D01*
X60496Y214039D01*
X61227Y213478D01*
X62078Y213125D01*
X62205Y213109D01*
Y215748D01*
D02*
G37*
G36*
X85094Y215039D02*
X82126D01*
Y212760D01*
X85094D01*
Y215039D01*
D02*
G37*
G36*
X80551D02*
X77583D01*
Y212760D01*
X80551D01*
Y215039D01*
D02*
G37*
G36*
X105331Y214272D02*
X102362D01*
Y211992D01*
X105331D01*
Y214272D01*
D02*
G37*
G36*
X185827Y212088D02*
Y209449D01*
X188466D01*
X188449Y209575D01*
X188097Y210426D01*
X187536Y211158D01*
X186804Y211719D01*
X185953Y212071D01*
X185827Y212088D01*
D02*
G37*
G36*
X184252D02*
X184126Y212071D01*
X183274Y211719D01*
X182543Y211158D01*
X181982Y210426D01*
X181630Y209575D01*
X181613Y209449D01*
X184252D01*
Y212088D01*
D02*
G37*
G36*
X111024D02*
Y209449D01*
X113663D01*
X113646Y209575D01*
X113294Y210426D01*
X112732Y211158D01*
X112001Y211719D01*
X111150Y212071D01*
X111024Y212088D01*
D02*
G37*
G36*
X109449D02*
X109323Y212071D01*
X108471Y211719D01*
X107740Y211158D01*
X107179Y210426D01*
X106826Y209575D01*
X106810Y209449D01*
X109449D01*
Y212088D01*
D02*
G37*
G36*
X87402D02*
Y209449D01*
X90041D01*
X90024Y209575D01*
X89671Y210426D01*
X89110Y211158D01*
X88379Y211719D01*
X87528Y212071D01*
X87402Y212088D01*
D02*
G37*
G36*
X85827D02*
X85701Y212071D01*
X84849Y211719D01*
X84118Y211158D01*
X83557Y210426D01*
X83204Y209575D01*
X83188Y209449D01*
X85827D01*
Y212088D01*
D02*
G37*
G36*
X239647Y211811D02*
X237008D01*
Y209172D01*
X237134Y209189D01*
X237986Y209541D01*
X238717Y210102D01*
X239278Y210833D01*
X239630Y211685D01*
X239647Y211811D01*
D02*
G37*
G36*
X235433D02*
X232794D01*
X232811Y211685D01*
X233163Y210833D01*
X233724Y210102D01*
X234455Y209541D01*
X235307Y209189D01*
X235433Y209172D01*
Y211811D01*
D02*
G37*
G36*
X188466Y207874D02*
X185827D01*
Y205235D01*
X185953Y205252D01*
X186804Y205604D01*
X187536Y206165D01*
X188097Y206896D01*
X188449Y207748D01*
X188466Y207874D01*
D02*
G37*
G36*
X184252D02*
X181613D01*
X181630Y207748D01*
X181982Y206896D01*
X182543Y206165D01*
X183274Y205604D01*
X184126Y205252D01*
X184252Y205235D01*
Y207874D01*
D02*
G37*
G36*
X113663D02*
X111024D01*
Y205235D01*
X111150Y205252D01*
X112001Y205604D01*
X112732Y206165D01*
X113294Y206896D01*
X113646Y207748D01*
X113663Y207874D01*
D02*
G37*
G36*
X109449D02*
X106810D01*
X106826Y207748D01*
X107179Y206896D01*
X107740Y206165D01*
X108471Y205604D01*
X109323Y205252D01*
X109449Y205235D01*
Y207874D01*
D02*
G37*
G36*
X90041D02*
X87402D01*
Y205235D01*
X87528Y205252D01*
X88379Y205604D01*
X89110Y206165D01*
X89671Y206896D01*
X90024Y207748D01*
X90041Y207874D01*
D02*
G37*
G36*
X85827D02*
X83188D01*
X83204Y207748D01*
X83557Y206896D01*
X84118Y206165D01*
X84849Y205604D01*
X85701Y205252D01*
X85827Y205235D01*
Y207874D01*
D02*
G37*
G36*
X218323Y204248D02*
X215354D01*
Y201969D01*
X218323D01*
Y204248D01*
D02*
G37*
G36*
X213779D02*
X210811D01*
Y201969D01*
X213779D01*
Y204248D01*
D02*
G37*
G36*
X225197Y204214D02*
Y201575D01*
X227836D01*
X227819Y201701D01*
X227467Y202553D01*
X226906Y203284D01*
X226174Y203845D01*
X225323Y204197D01*
X225197Y204214D01*
D02*
G37*
G36*
X223622D02*
X223496Y204197D01*
X222644Y203845D01*
X221913Y203284D01*
X221352Y202553D01*
X221000Y201701D01*
X220983Y201575D01*
X223622D01*
Y204214D01*
D02*
G37*
G36*
X218323Y200394D02*
X215354D01*
Y198114D01*
X218323D01*
Y200394D01*
D02*
G37*
G36*
X213779D02*
X210811D01*
Y198114D01*
X213779D01*
Y200394D01*
D02*
G37*
G36*
X227836Y200000D02*
X225197D01*
Y197361D01*
X225323Y197378D01*
X226174Y197730D01*
X226906Y198291D01*
X227467Y199022D01*
X227819Y199874D01*
X227836Y200000D01*
D02*
G37*
G36*
X223622D02*
X220983D01*
X221000Y199874D01*
X221352Y199022D01*
X221913Y198291D01*
X222644Y197730D01*
X223496Y197378D01*
X223622Y197361D01*
Y200000D01*
D02*
G37*
G36*
X209366Y198244D02*
X206398D01*
Y195965D01*
X209366D01*
Y198244D01*
D02*
G37*
G36*
X140945Y196340D02*
X140819Y196323D01*
X139967Y195971D01*
X139236Y195410D01*
X138675Y194678D01*
X138322Y193827D01*
X138306Y193701D01*
X140945D01*
Y196340D01*
D02*
G37*
G36*
X209366Y194390D02*
X206398D01*
Y192110D01*
X209366D01*
Y194390D01*
D02*
G37*
G36*
X204823D02*
X201854D01*
Y192110D01*
X204823D01*
Y194390D01*
D02*
G37*
G36*
X199213Y191831D02*
Y190551D01*
X200492D01*
X200480Y190615D01*
X199998Y191336D01*
X199276Y191818D01*
X199213Y191831D01*
D02*
G37*
G36*
X197638D02*
X197574Y191818D01*
X196853Y191336D01*
X196371Y190615D01*
X196358Y190551D01*
X197638D01*
Y191831D01*
D02*
G37*
G36*
X140945Y192126D02*
X138306D01*
X138322Y192000D01*
X138675Y191148D01*
X139236Y190417D01*
X139967Y189856D01*
X140819Y189504D01*
X140945Y189487D01*
Y192126D01*
D02*
G37*
G36*
X200492Y188976D02*
X199213D01*
Y187697D01*
X199276Y187709D01*
X199998Y188191D01*
X200480Y188913D01*
X200492Y188976D01*
D02*
G37*
G36*
X197638D02*
X196358D01*
X196371Y188913D01*
X196853Y188191D01*
X197574Y187709D01*
X197638Y187697D01*
Y188976D01*
D02*
G37*
G36*
X12992Y188072D02*
Y185433D01*
X15631D01*
X15615Y185559D01*
X15262Y186411D01*
X14701Y187142D01*
X13970Y187703D01*
X13118Y188056D01*
X12992Y188072D01*
D02*
G37*
G36*
X11417D02*
X11291Y188056D01*
X10440Y187703D01*
X9708Y187142D01*
X9148Y186411D01*
X8795Y185559D01*
X8778Y185433D01*
X11417D01*
Y188072D01*
D02*
G37*
G36*
X89287Y184268D02*
X87008D01*
Y181496D01*
X89287D01*
Y184268D01*
D02*
G37*
G36*
X85433D02*
X83153D01*
Y181496D01*
X85433D01*
Y184268D01*
D02*
G37*
G36*
X15631Y183858D02*
X12992D01*
Y181219D01*
X13118Y181236D01*
X13970Y181588D01*
X14701Y182149D01*
X15262Y182881D01*
X15615Y183732D01*
X15631Y183858D01*
D02*
G37*
G36*
X11417D02*
X8778D01*
X8795Y183732D01*
X9148Y182881D01*
X9708Y182149D01*
X10440Y181588D01*
X11291Y181236D01*
X11417Y181219D01*
Y183858D01*
D02*
G37*
G36*
X93307Y181989D02*
Y180709D01*
X94587D01*
X94574Y180772D01*
X94092Y181494D01*
X93371Y181976D01*
X93307Y181989D01*
D02*
G37*
G36*
X91732D02*
X91669Y181976D01*
X90947Y181494D01*
X90465Y180772D01*
X90452Y180709D01*
X91732D01*
Y181989D01*
D02*
G37*
G36*
X62992Y181201D02*
Y179528D01*
X64666D01*
X64454Y180039D01*
X64041Y180577D01*
X63503Y180989D01*
X62992Y181201D01*
D02*
G37*
G36*
X61417D02*
X60906Y180989D01*
X60368Y180577D01*
X59956Y180039D01*
X59744Y179528D01*
X61417D01*
Y181201D01*
D02*
G37*
G36*
X81398Y183661D02*
X76476D01*
Y180027D01*
X75024Y178574D01*
X73130D01*
Y179429D01*
X67224D01*
Y174508D01*
X73130D01*
Y175363D01*
X75689D01*
X75689Y175363D01*
X76303Y175485D01*
X76824Y175833D01*
X78662Y177671D01*
X79212D01*
X81194Y175689D01*
X79127Y173622D01*
X76476D01*
Y167323D01*
X79127D01*
X81587Y164863D01*
X81395Y164401D01*
X49409D01*
X48795Y164279D01*
X48274Y163931D01*
X48274Y163931D01*
X42819Y158476D01*
X34438D01*
X34312Y158780D01*
X33705Y159571D01*
X32914Y160178D01*
X31993Y160560D01*
X31004Y160690D01*
X30015Y160560D01*
X29094Y160178D01*
X28303Y159571D01*
X27696Y158780D01*
X27314Y157859D01*
X27184Y156870D01*
X27314Y155881D01*
X27696Y154960D01*
X28303Y154169D01*
X29094Y153562D01*
X30015Y153180D01*
X31004Y153050D01*
X31993Y153180D01*
X32914Y153562D01*
X33705Y154169D01*
X34312Y154960D01*
X34438Y155264D01*
X43484D01*
X43484Y155264D01*
X44099Y155387D01*
X44620Y155735D01*
X50074Y161190D01*
X51474D01*
X51666Y160728D01*
X39414Y148476D01*
X34438D01*
X34312Y148780D01*
X33705Y149571D01*
X32914Y150178D01*
X31993Y150560D01*
X31004Y150690D01*
X30015Y150560D01*
X29094Y150178D01*
X28303Y149571D01*
X27696Y148780D01*
X27314Y147859D01*
X27184Y146870D01*
X27314Y145881D01*
X27696Y144960D01*
X28303Y144169D01*
X29094Y143562D01*
X30015Y143180D01*
X31004Y143050D01*
X31993Y143180D01*
X32914Y143562D01*
X33705Y144169D01*
X34312Y144960D01*
X34438Y145264D01*
X40079D01*
X40079Y145264D01*
X40693Y145387D01*
X41214Y145735D01*
X54405Y158926D01*
X56100D01*
X56292Y158464D01*
X36303Y138476D01*
X34791D01*
Y140657D01*
X27217D01*
Y133083D01*
X34791D01*
Y135264D01*
X36968D01*
X36968Y135264D01*
X37583Y135387D01*
X38104Y135735D01*
X58834Y156465D01*
X92911D01*
X93103Y156003D01*
X87591Y150492D01*
X85532D01*
Y148432D01*
X52386Y115287D01*
X49508D01*
Y117224D01*
X36122D01*
Y110138D01*
X46327D01*
Y105734D01*
X35211Y94617D01*
X32019D01*
X31994Y94678D01*
X31433Y95410D01*
X30702Y95971D01*
X29851Y96323D01*
X28937Y96444D01*
X28023Y96323D01*
X27172Y95971D01*
X26441Y95410D01*
X25880Y94678D01*
X25527Y93827D01*
X25407Y92913D01*
X25527Y92000D01*
X25880Y91148D01*
X26441Y90417D01*
X27172Y89856D01*
X28023Y89504D01*
X28937Y89383D01*
X29851Y89504D01*
X30702Y89856D01*
X31433Y90417D01*
X31994Y91148D01*
X32101Y91406D01*
X35876D01*
X35876Y91406D01*
X35876Y91406D01*
X42717D01*
X42717Y91406D01*
X43331Y91528D01*
X43852Y91876D01*
X82004Y130028D01*
X88225D01*
X88394Y129528D01*
X88055Y129268D01*
X87494Y128537D01*
X87141Y127685D01*
X87021Y126772D01*
X87141Y125858D01*
X87494Y125006D01*
X88055Y124275D01*
X88786Y123714D01*
X89638Y123362D01*
X90551Y123241D01*
X91465Y123362D01*
X92316Y123714D01*
X93047Y124275D01*
X93608Y125006D01*
X93961Y125858D01*
X94081Y126772D01*
X93961Y127685D01*
X93608Y128537D01*
X93047Y129268D01*
X92688Y129543D01*
Y130969D01*
X96608Y134888D01*
X96608Y134888D01*
X96956Y135409D01*
X97078Y136024D01*
Y141185D01*
X97751Y141858D01*
X98213Y141666D01*
Y141338D01*
X101181D01*
Y143618D01*
X100164D01*
X99973Y144080D01*
X101267Y145374D01*
X105118D01*
Y149225D01*
X110409Y154516D01*
X111811D01*
X112425Y154639D01*
X112878Y154941D01*
X115059D01*
Y156941D01*
X115059Y157303D01*
X115059D01*
Y157441D01*
X115059D01*
Y159803D01*
X115059D01*
Y159941D01*
X115059D01*
Y162303D01*
X115059D01*
Y162441D01*
X115059D01*
Y164803D01*
X115059D01*
Y164941D01*
X115059D01*
Y167303D01*
X115059D01*
Y167441D01*
X115059D01*
Y169803D01*
X115059D01*
Y169941D01*
X115059D01*
Y172303D01*
X115059D01*
Y172441D01*
X115059D01*
Y174803D01*
X115059D01*
Y174941D01*
X115059D01*
Y177303D01*
X115059D01*
Y177441D01*
X115059D01*
Y179334D01*
X115665D01*
Y180334D01*
X107957D01*
Y180228D01*
X97473D01*
X97473Y180228D01*
X96859Y180105D01*
X96338Y179757D01*
X93777Y177196D01*
X89287D01*
Y179921D01*
X86221D01*
X83153D01*
Y178924D01*
X82692Y178733D01*
X81398Y180027D01*
Y183661D01*
D02*
G37*
G36*
X122835Y180592D02*
Y177953D01*
X125474D01*
X125457Y178079D01*
X125104Y178930D01*
X124543Y179662D01*
X123812Y180223D01*
X122961Y180575D01*
X122835Y180592D01*
D02*
G37*
G36*
X121260D02*
X121134Y180575D01*
X120282Y180223D01*
X119551Y179662D01*
X118990Y178930D01*
X118637Y178079D01*
X118621Y177953D01*
X121260D01*
Y180592D01*
D02*
G37*
G36*
X422835Y203189D02*
X420858Y203033D01*
X418929Y202570D01*
X417097Y201811D01*
X415407Y200775D01*
X413899Y199487D01*
X412611Y197979D01*
X411575Y196288D01*
X410816Y194456D01*
X410353Y192528D01*
X410197Y190551D01*
X410353Y188574D01*
X410816Y186646D01*
X411575Y184814D01*
X412611Y183123D01*
X413899Y181615D01*
X415407Y180327D01*
X417097Y179291D01*
X418929Y178532D01*
X420858Y178069D01*
X422835Y177914D01*
X424812Y178069D01*
X426740Y178532D01*
X428572Y179291D01*
X430263Y180327D01*
X431771Y181615D01*
X433059Y183123D01*
X434095Y184814D01*
X434854Y186646D01*
X435316Y188574D01*
X435472Y190551D01*
X435316Y192528D01*
X434854Y194456D01*
X434095Y196288D01*
X433059Y197979D01*
X431771Y199487D01*
X430263Y200775D01*
X428572Y201811D01*
X426740Y202570D01*
X424812Y203033D01*
X422835Y203189D01*
D02*
G37*
G36*
X94587Y179134D02*
X93307D01*
Y177854D01*
X93371Y177867D01*
X94092Y178349D01*
X94574Y179070D01*
X94587Y179134D01*
D02*
G37*
G36*
X91732D02*
X90452D01*
X90465Y179070D01*
X90947Y178349D01*
X91669Y177867D01*
X91732Y177854D01*
Y179134D01*
D02*
G37*
G36*
X64666Y177953D02*
X62992D01*
Y176279D01*
X63503Y176491D01*
X64041Y176904D01*
X64454Y177442D01*
X64666Y177953D01*
D02*
G37*
G36*
X61417D02*
X59744D01*
X59956Y177442D01*
X60368Y176904D01*
X60906Y176491D01*
X61417Y176279D01*
Y177953D01*
D02*
G37*
G36*
X125474Y176378D02*
X122835D01*
Y173739D01*
X122961Y173755D01*
X123812Y174108D01*
X124543Y174669D01*
X125104Y175400D01*
X125457Y176252D01*
X125474Y176378D01*
D02*
G37*
G36*
X121260D02*
X118621D01*
X118637Y176252D01*
X118990Y175400D01*
X119551Y174669D01*
X120282Y174108D01*
X121134Y173755D01*
X121260Y173739D01*
Y176378D01*
D02*
G37*
G36*
X72047Y171358D02*
Y169685D01*
X73721D01*
X73509Y170196D01*
X73096Y170734D01*
X72558Y171147D01*
X72047Y171358D01*
D02*
G37*
G36*
X70472D02*
X69961Y171147D01*
X69424Y170734D01*
X69011Y170196D01*
X68799Y169685D01*
X70472D01*
Y171358D01*
D02*
G37*
G36*
X73721Y168110D02*
X72047D01*
Y166437D01*
X72558Y166649D01*
X73096Y167061D01*
X73509Y167599D01*
X73721Y168110D01*
D02*
G37*
G36*
X70472D02*
X68799D01*
X69011Y167599D01*
X69424Y167061D01*
X69961Y166649D01*
X70472Y166437D01*
Y168110D01*
D02*
G37*
G36*
X199213Y166634D02*
Y165354D01*
X200492D01*
X200480Y165418D01*
X199998Y166139D01*
X199276Y166621D01*
X199213Y166634D01*
D02*
G37*
G36*
X197638D02*
X197574Y166621D01*
X196853Y166139D01*
X196371Y165418D01*
X196358Y165354D01*
X197638D01*
Y166634D01*
D02*
G37*
G36*
X200492Y163779D02*
X199213D01*
Y162500D01*
X199276Y162512D01*
X199998Y162994D01*
X200480Y163716D01*
X200492Y163779D01*
D02*
G37*
G36*
X197638D02*
X196358D01*
X196371Y163716D01*
X196853Y162994D01*
X197574Y162512D01*
X197638Y162500D01*
Y163779D01*
D02*
G37*
G36*
X140945Y164844D02*
X140819Y164827D01*
X139967Y164475D01*
X139236Y163914D01*
X138675Y163182D01*
X138322Y162331D01*
X138306Y162205D01*
X140945D01*
Y164844D01*
D02*
G37*
G36*
X209268Y162614D02*
X206299D01*
Y160335D01*
X209268D01*
Y162614D01*
D02*
G37*
G36*
X204724D02*
X201756D01*
Y160335D01*
X204724D01*
Y162614D01*
D02*
G37*
G36*
X140945Y160630D02*
X138306D01*
X138322Y160504D01*
X138675Y159652D01*
X139236Y158921D01*
X139967Y158360D01*
X140819Y158007D01*
X140945Y157991D01*
Y160630D01*
D02*
G37*
G36*
X209268Y158760D02*
X206299D01*
Y156480D01*
X209268D01*
Y158760D01*
D02*
G37*
G36*
X383465Y157757D02*
Y155118D01*
X386104D01*
X386087Y155244D01*
X385734Y156096D01*
X385173Y156827D01*
X384442Y157388D01*
X383591Y157741D01*
X383465Y157757D01*
D02*
G37*
G36*
X381890D02*
X381764Y157741D01*
X380912Y157388D01*
X380181Y156827D01*
X379620Y156096D01*
X379267Y155244D01*
X379251Y155118D01*
X381890D01*
Y157757D01*
D02*
G37*
G36*
X217732Y157004D02*
X214764D01*
Y154725D01*
X217732D01*
Y157004D01*
D02*
G37*
G36*
X213189D02*
X210221D01*
Y154725D01*
X213189D01*
Y157004D01*
D02*
G37*
G36*
X225197Y156970D02*
Y154331D01*
X227836D01*
X227819Y154457D01*
X227467Y155308D01*
X226906Y156040D01*
X226174Y156600D01*
X225323Y156953D01*
X225197Y156970D01*
D02*
G37*
G36*
X223622D02*
X223496Y156953D01*
X222644Y156600D01*
X221913Y156040D01*
X221352Y155308D01*
X221000Y154457D01*
X220983Y154331D01*
X223622D01*
Y156970D01*
D02*
G37*
G36*
X386104Y153543D02*
X383465D01*
Y150904D01*
X383591Y150921D01*
X384442Y151274D01*
X385173Y151834D01*
X385734Y152566D01*
X386087Y153417D01*
X386104Y153543D01*
D02*
G37*
G36*
X381890D02*
X379251D01*
X379267Y153417D01*
X379620Y152566D01*
X380181Y151834D01*
X380912Y151274D01*
X381764Y150921D01*
X381890Y150904D01*
Y153543D01*
D02*
G37*
G36*
X217732Y153150D02*
X214764D01*
Y150870D01*
X217732D01*
Y153150D01*
D02*
G37*
G36*
X213189D02*
X210221D01*
Y150870D01*
X213189D01*
Y153150D01*
D02*
G37*
G36*
X227836Y152756D02*
X225197D01*
Y150117D01*
X225323Y150133D01*
X226174Y150486D01*
X226906Y151047D01*
X227467Y151778D01*
X227819Y152630D01*
X227836Y152756D01*
D02*
G37*
G36*
X223622D02*
X220983D01*
X221000Y152630D01*
X221352Y151778D01*
X221913Y151047D01*
X222644Y150486D01*
X223496Y150133D01*
X223622Y150117D01*
Y152756D01*
D02*
G37*
G36*
X64567Y150277D02*
Y147638D01*
X67206D01*
X67189Y147764D01*
X66837Y148616D01*
X66276Y149347D01*
X65545Y149908D01*
X64693Y150260D01*
X64567Y150277D01*
D02*
G37*
G36*
X62992D02*
X62866Y150260D01*
X62014Y149908D01*
X61283Y149347D01*
X60722Y148616D01*
X60370Y147764D01*
X60353Y147638D01*
X62992D01*
Y150277D01*
D02*
G37*
G36*
X185827Y149096D02*
Y146457D01*
X188466D01*
X188449Y146583D01*
X188097Y147434D01*
X187536Y148166D01*
X186804Y148726D01*
X185953Y149079D01*
X185827Y149096D01*
D02*
G37*
G36*
X184252D02*
X184126Y149079D01*
X183274Y148726D01*
X182543Y148166D01*
X181982Y147434D01*
X181630Y146583D01*
X181613Y146457D01*
X184252D01*
Y149096D01*
D02*
G37*
G36*
X111024D02*
Y146457D01*
X113663D01*
X113646Y146583D01*
X113294Y147434D01*
X112732Y148166D01*
X112001Y148726D01*
X111150Y149079D01*
X111024Y149096D01*
D02*
G37*
G36*
X109449D02*
X109323Y149079D01*
X108471Y148726D01*
X107740Y148166D01*
X107179Y147434D01*
X106826Y146583D01*
X106810Y146457D01*
X109449D01*
Y149096D01*
D02*
G37*
G36*
X67206Y146063D02*
X64567D01*
Y143424D01*
X64693Y143440D01*
X65545Y143793D01*
X66276Y144354D01*
X66837Y145085D01*
X67189Y145937D01*
X67206Y146063D01*
D02*
G37*
G36*
X62992D02*
X60353D01*
X60370Y145937D01*
X60722Y145085D01*
X61283Y144354D01*
X62014Y143793D01*
X62866Y143440D01*
X62992Y143424D01*
Y146063D01*
D02*
G37*
G36*
X237008Y145159D02*
Y142520D01*
X239647D01*
X239630Y142646D01*
X239278Y143497D01*
X238717Y144228D01*
X237986Y144790D01*
X237134Y145142D01*
X237008Y145159D01*
D02*
G37*
G36*
X235433D02*
X235307Y145142D01*
X234455Y144790D01*
X233724Y144228D01*
X233163Y143497D01*
X232811Y142646D01*
X232794Y142520D01*
X235433D01*
Y145159D01*
D02*
G37*
G36*
X188466Y144882D02*
X185827D01*
Y142243D01*
X185953Y142259D01*
X186804Y142612D01*
X187536Y143173D01*
X188097Y143904D01*
X188449Y144756D01*
X188466Y144882D01*
D02*
G37*
G36*
X184252D02*
X181613D01*
X181630Y144756D01*
X181982Y143904D01*
X182543Y143173D01*
X183274Y142612D01*
X184126Y142259D01*
X184252Y142243D01*
Y144882D01*
D02*
G37*
G36*
X113663D02*
X111024D01*
Y142243D01*
X111150Y142259D01*
X112001Y142612D01*
X112732Y143173D01*
X113294Y143904D01*
X113646Y144756D01*
X113663Y144882D01*
D02*
G37*
G36*
X109449D02*
X106810D01*
X106826Y144756D01*
X107179Y143904D01*
X107740Y143173D01*
X108471Y142612D01*
X109323Y142259D01*
X109449Y142243D01*
Y144882D01*
D02*
G37*
G36*
X105725Y143618D02*
X102756D01*
Y141338D01*
X105725D01*
Y143618D01*
D02*
G37*
G36*
X311811Y141222D02*
Y138583D01*
X314450D01*
X314434Y138709D01*
X314081Y139560D01*
X313520Y140292D01*
X312789Y140852D01*
X311937Y141205D01*
X311811Y141222D01*
D02*
G37*
G36*
X310236D02*
X310110Y141205D01*
X309259Y140852D01*
X308527Y140292D01*
X307966Y139560D01*
X307614Y138709D01*
X307597Y138583D01*
X310236D01*
Y141222D01*
D02*
G37*
G36*
X288189D02*
Y138583D01*
X290828D01*
X290811Y138709D01*
X290459Y139560D01*
X289898Y140292D01*
X289167Y140852D01*
X288315Y141205D01*
X288189Y141222D01*
D02*
G37*
G36*
X286614D02*
X286488Y141205D01*
X285636Y140852D01*
X284905Y140292D01*
X284344Y139560D01*
X283992Y138709D01*
X283975Y138583D01*
X286614D01*
Y141222D01*
D02*
G37*
G36*
X256693D02*
Y138583D01*
X259332D01*
X259315Y138709D01*
X258963Y139560D01*
X258402Y140292D01*
X257671Y140852D01*
X256819Y141205D01*
X256693Y141222D01*
D02*
G37*
G36*
X255118D02*
X254992Y141205D01*
X254140Y140852D01*
X253409Y140292D01*
X252848Y139560D01*
X252496Y138709D01*
X252479Y138583D01*
X255118D01*
Y141222D01*
D02*
G37*
G36*
X239647Y140945D02*
X237008D01*
Y138306D01*
X237134Y138322D01*
X237986Y138675D01*
X238717Y139236D01*
X239278Y139967D01*
X239630Y140819D01*
X239647Y140945D01*
D02*
G37*
G36*
X235433D02*
X232794D01*
X232811Y140819D01*
X233163Y139967D01*
X233724Y139236D01*
X234455Y138675D01*
X235307Y138322D01*
X235433Y138306D01*
Y140945D01*
D02*
G37*
G36*
X105725Y139764D02*
X102756D01*
Y137484D01*
X105725D01*
Y139764D01*
D02*
G37*
G36*
X101181D02*
X98213D01*
Y137484D01*
X101181D01*
Y139764D01*
D02*
G37*
G36*
X188303Y138402D02*
X186024D01*
Y135433D01*
X188303D01*
Y138402D01*
D02*
G37*
G36*
X184449D02*
X182169D01*
Y135433D01*
X184449D01*
Y138402D01*
D02*
G37*
G36*
X197638Y137285D02*
Y134646D01*
X200277D01*
X200260Y134772D01*
X199908Y135623D01*
X199347Y136354D01*
X198616Y136916D01*
X197764Y137268D01*
X197638Y137285D01*
D02*
G37*
G36*
X196063D02*
X195937Y137268D01*
X195085Y136916D01*
X194354Y136354D01*
X193793Y135623D01*
X193440Y134772D01*
X193424Y134646D01*
X196063D01*
Y137285D01*
D02*
G37*
G36*
X314450Y137008D02*
X311811D01*
Y134369D01*
X311937Y134385D01*
X312789Y134738D01*
X313520Y135299D01*
X314081Y136030D01*
X314434Y136882D01*
X314450Y137008D01*
D02*
G37*
G36*
X310236D02*
X307597D01*
X307614Y136882D01*
X307966Y136030D01*
X308527Y135299D01*
X309259Y134738D01*
X310110Y134385D01*
X310236Y134369D01*
Y137008D01*
D02*
G37*
G36*
X290828D02*
X288189D01*
Y134369D01*
X288315Y134385D01*
X289167Y134738D01*
X289898Y135299D01*
X290459Y136030D01*
X290811Y136882D01*
X290828Y137008D01*
D02*
G37*
G36*
X286614D02*
X283975D01*
X283992Y136882D01*
X284344Y136030D01*
X284905Y135299D01*
X285636Y134738D01*
X286488Y134385D01*
X286614Y134369D01*
Y137008D01*
D02*
G37*
G36*
X259332D02*
X256693D01*
Y134369D01*
X256819Y134385D01*
X257671Y134738D01*
X258402Y135299D01*
X258963Y136030D01*
X259315Y136882D01*
X259332Y137008D01*
D02*
G37*
G36*
X255118D02*
X252479D01*
X252496Y136882D01*
X252848Y136030D01*
X253409Y135299D01*
X254140Y134738D01*
X254992Y134385D01*
X255118Y134369D01*
Y137008D01*
D02*
G37*
G36*
X188303Y133858D02*
X186024D01*
Y130890D01*
X188303D01*
Y133858D01*
D02*
G37*
G36*
X388583Y133348D02*
Y130709D01*
X391222D01*
X391205Y130835D01*
X390852Y131686D01*
X390292Y132418D01*
X389560Y132978D01*
X388709Y133331D01*
X388583Y133348D01*
D02*
G37*
G36*
X387008D02*
X386882Y133331D01*
X386030Y132978D01*
X385299Y132418D01*
X384738Y131686D01*
X384385Y130835D01*
X384369Y130709D01*
X387008D01*
Y133348D01*
D02*
G37*
G36*
X200277Y133071D02*
X197638D01*
Y130432D01*
X197764Y130448D01*
X198616Y130801D01*
X199347Y131362D01*
X199908Y132093D01*
X200260Y132945D01*
X200277Y133071D01*
D02*
G37*
G36*
X196063D02*
X193424D01*
X193440Y132945D01*
X193793Y132093D01*
X194354Y131362D01*
X195085Y130801D01*
X195937Y130448D01*
X196063Y130432D01*
Y133071D01*
D02*
G37*
G36*
X391222Y129134D02*
X388583D01*
Y126495D01*
X388709Y126511D01*
X389560Y126864D01*
X390292Y127425D01*
X390852Y128156D01*
X391205Y129008D01*
X391222Y129134D01*
D02*
G37*
G36*
X387008D02*
X384369D01*
X384385Y129008D01*
X384738Y128156D01*
X385299Y127425D01*
X386030Y126864D01*
X386882Y126511D01*
X387008Y126495D01*
Y129134D01*
D02*
G37*
G36*
X30709Y127442D02*
Y124803D01*
X33348D01*
X33331Y124929D01*
X32978Y125781D01*
X32418Y126512D01*
X31686Y127073D01*
X30835Y127426D01*
X30709Y127442D01*
D02*
G37*
G36*
X29134D02*
X29008Y127426D01*
X28156Y127073D01*
X27425Y126512D01*
X26864Y125781D01*
X26511Y124929D01*
X26495Y124803D01*
X29134D01*
Y127442D01*
D02*
G37*
G36*
X146457Y125474D02*
Y122835D01*
X149096D01*
X149079Y122961D01*
X148726Y123812D01*
X148166Y124543D01*
X147434Y125104D01*
X146583Y125457D01*
X146457Y125474D01*
D02*
G37*
G36*
X144882D02*
X144756Y125457D01*
X143904Y125104D01*
X143173Y124543D01*
X142612Y123812D01*
X142259Y122961D01*
X142243Y122835D01*
X144882D01*
Y125474D01*
D02*
G37*
G36*
X8268Y125080D02*
Y122441D01*
X10907D01*
X10890Y122567D01*
X10538Y123419D01*
X9977Y124150D01*
X9245Y124711D01*
X8394Y125063D01*
X8268Y125080D01*
D02*
G37*
G36*
X33348Y123228D02*
X30709D01*
Y120589D01*
X30835Y120606D01*
X31686Y120958D01*
X32418Y121519D01*
X32978Y122251D01*
X33331Y123102D01*
X33348Y123228D01*
D02*
G37*
G36*
X29134D02*
X26495D01*
X26511Y123102D01*
X26864Y122251D01*
X27425Y121519D01*
X28156Y120958D01*
X29008Y120606D01*
X29134Y120589D01*
Y123228D01*
D02*
G37*
G36*
X349606Y123112D02*
Y120472D01*
X352245D01*
X352229Y120599D01*
X351876Y121450D01*
X351315Y122181D01*
X350584Y122742D01*
X349733Y123095D01*
X349606Y123112D01*
D02*
G37*
G36*
X348031D02*
X347905Y123095D01*
X347054Y122742D01*
X346323Y122181D01*
X345762Y121450D01*
X345409Y120599D01*
X345392Y120472D01*
X348031D01*
Y123112D01*
D02*
G37*
G36*
X149096Y121260D02*
X146457D01*
Y118621D01*
X146583Y118637D01*
X147434Y118990D01*
X148166Y119551D01*
X148726Y120282D01*
X149079Y121134D01*
X149096Y121260D01*
D02*
G37*
G36*
X144882D02*
X142243D01*
X142259Y121134D01*
X142612Y120282D01*
X143173Y119551D01*
X143904Y118990D01*
X144756Y118637D01*
X144882Y118621D01*
Y121260D01*
D02*
G37*
G36*
X10907Y120866D02*
X8268D01*
Y118227D01*
X8394Y118244D01*
X9245Y118596D01*
X9977Y119157D01*
X10538Y119888D01*
X10890Y120740D01*
X10907Y120866D01*
D02*
G37*
G36*
X352245Y118898D02*
X349606D01*
Y116259D01*
X349733Y116275D01*
X350584Y116628D01*
X351315Y117189D01*
X351876Y117920D01*
X352229Y118771D01*
X352245Y118898D01*
D02*
G37*
G36*
X348031D02*
X345392D01*
X345409Y118771D01*
X345762Y117920D01*
X346323Y117189D01*
X347054Y116628D01*
X347905Y116275D01*
X348031Y116259D01*
Y118898D01*
D02*
G37*
G36*
X367142Y117634D02*
X364173D01*
Y115354D01*
X367142D01*
Y117634D01*
D02*
G37*
G36*
X362598D02*
X359630D01*
Y115354D01*
X362598D01*
Y117634D01*
D02*
G37*
G36*
X113386Y117600D02*
Y114961D01*
X116025D01*
X116008Y115087D01*
X115656Y115938D01*
X115095Y116669D01*
X114364Y117230D01*
X113512Y117583D01*
X113386Y117600D01*
D02*
G37*
G36*
X111811D02*
X111685Y117583D01*
X110833Y117230D01*
X110102Y116669D01*
X109541Y115938D01*
X109188Y115087D01*
X109172Y114961D01*
X111811D01*
Y117600D01*
D02*
G37*
G36*
X395586Y117929D02*
X393307D01*
Y114961D01*
X395586D01*
Y117929D01*
D02*
G37*
G36*
X391732D02*
X389453D01*
Y114961D01*
X391732D01*
Y117929D01*
D02*
G37*
G36*
X30035Y117831D02*
X23524D01*
Y114469D01*
X30035D01*
Y117831D01*
D02*
G37*
G36*
X21949D02*
X15437D01*
Y114469D01*
X21949D01*
Y117831D01*
D02*
G37*
G36*
X367142Y113779D02*
X364173D01*
Y111500D01*
X367142D01*
Y113779D01*
D02*
G37*
G36*
X362598D02*
X359630D01*
Y111500D01*
X362598D01*
Y113779D01*
D02*
G37*
G36*
X209449Y113663D02*
Y111024D01*
X212088D01*
X212071Y111150D01*
X211719Y112001D01*
X211158Y112732D01*
X210426Y113294D01*
X209575Y113646D01*
X209449Y113663D01*
D02*
G37*
G36*
X207874D02*
X207748Y113646D01*
X206896Y113294D01*
X206165Y112732D01*
X205604Y112001D01*
X205252Y111150D01*
X205235Y111024D01*
X207874D01*
Y113663D01*
D02*
G37*
G36*
X377165Y117347D02*
X376446Y117252D01*
X375904Y117028D01*
X374213D01*
Y112106D01*
X375815D01*
X375874Y112061D01*
X376544Y111784D01*
X377264Y111689D01*
X382775D01*
Y111024D01*
X387697D01*
Y112912D01*
X387921Y113454D01*
X388016Y114173D01*
Y114370D01*
X387921Y115089D01*
X387697Y115631D01*
Y117323D01*
X382775D01*
Y117248D01*
X377894D01*
X377885Y117252D01*
X377165Y117347D01*
D02*
G37*
G36*
X116025Y113386D02*
X113386D01*
Y110747D01*
X113512Y110763D01*
X114364Y111116D01*
X115095Y111677D01*
X115656Y112408D01*
X116008Y113259D01*
X116025Y113386D01*
D02*
G37*
G36*
X111811D02*
X109172D01*
X109188Y113259D01*
X109541Y112408D01*
X110102Y111677D01*
X110833Y111116D01*
X111685Y110763D01*
X111811Y110747D01*
Y113386D01*
D02*
G37*
G36*
X395586Y113386D02*
X393307D01*
Y110417D01*
X395586D01*
Y113386D01*
D02*
G37*
G36*
X391732D02*
X389453D01*
Y110417D01*
X391732D01*
Y113386D01*
D02*
G37*
G36*
X30035Y112894D02*
X23524D01*
Y109531D01*
X30035D01*
Y112894D01*
D02*
G37*
G36*
X21949D02*
X15437D01*
Y109531D01*
X21949D01*
Y112894D01*
D02*
G37*
G36*
X212088Y109449D02*
X209449D01*
Y106810D01*
X209575Y106826D01*
X210426Y107179D01*
X211158Y107740D01*
X211719Y108471D01*
X212071Y109323D01*
X212088Y109449D01*
D02*
G37*
G36*
X207874D02*
X205235D01*
X205252Y109323D01*
X205604Y108471D01*
X206165Y107740D01*
X206896Y107179D01*
X207748Y106826D01*
X207874Y106810D01*
Y109449D01*
D02*
G37*
G36*
X363779Y108938D02*
Y106299D01*
X366419D01*
X366402Y106425D01*
X366049Y107277D01*
X365488Y108008D01*
X364757Y108569D01*
X363906Y108922D01*
X363779Y108938D01*
D02*
G37*
G36*
X362205D02*
X362078Y108922D01*
X361227Y108569D01*
X360496Y108008D01*
X359935Y107277D01*
X359582Y106425D01*
X359566Y106299D01*
X362205D01*
Y108938D01*
D02*
G37*
G36*
X396850Y108545D02*
Y105905D01*
X399489D01*
X399473Y106032D01*
X399120Y106883D01*
X398559Y107614D01*
X397828Y108175D01*
X396977Y108528D01*
X396850Y108545D01*
D02*
G37*
G36*
X395276D02*
X395149Y108528D01*
X394298Y108175D01*
X393567Y107614D01*
X393006Y106883D01*
X392653Y106032D01*
X392636Y105905D01*
X395276D01*
Y108545D01*
D02*
G37*
G36*
X24409Y106182D02*
Y103543D01*
X27049D01*
X27032Y103670D01*
X26679Y104521D01*
X26118Y105252D01*
X25387Y105813D01*
X24536Y106166D01*
X24409Y106182D01*
D02*
G37*
G36*
X22835D02*
X22708Y106166D01*
X21857Y105813D01*
X21126Y105252D01*
X20565Y104521D01*
X20212Y103670D01*
X20196Y103543D01*
X22835D01*
Y106182D01*
D02*
G37*
G36*
X166142Y105789D02*
Y103150D01*
X168781D01*
X168764Y103276D01*
X168412Y104127D01*
X167851Y104858D01*
X167119Y105419D01*
X166268Y105772D01*
X166142Y105789D01*
D02*
G37*
G36*
X164567D02*
X164441Y105772D01*
X163589Y105419D01*
X162858Y104858D01*
X162297Y104127D01*
X161944Y103276D01*
X161928Y103150D01*
X164567D01*
Y105789D01*
D02*
G37*
G36*
X366419Y104724D02*
X363779D01*
Y102085D01*
X363906Y102102D01*
X364757Y102455D01*
X365488Y103016D01*
X366049Y103747D01*
X366402Y104598D01*
X366419Y104724D01*
D02*
G37*
G36*
X362205D02*
X359566D01*
X359582Y104598D01*
X359935Y103747D01*
X360496Y103016D01*
X361227Y102455D01*
X362078Y102102D01*
X362205Y102085D01*
Y104724D01*
D02*
G37*
G36*
X399489Y104331D02*
X396850D01*
Y101692D01*
X396977Y101708D01*
X397828Y102061D01*
X398559Y102622D01*
X399120Y103353D01*
X399473Y104204D01*
X399489Y104331D01*
D02*
G37*
G36*
X395276D02*
X392636D01*
X392653Y104204D01*
X393006Y103353D01*
X393567Y102622D01*
X394298Y102061D01*
X395149Y101708D01*
X395276Y101692D01*
Y104331D01*
D02*
G37*
G36*
X27049Y101969D02*
X24409D01*
Y99329D01*
X24536Y99346D01*
X25387Y99699D01*
X26118Y100260D01*
X26679Y100991D01*
X27032Y101842D01*
X27049Y101969D01*
D02*
G37*
G36*
X22835D02*
X20196D01*
X20212Y101842D01*
X20565Y100991D01*
X21126Y100260D01*
X21857Y99699D01*
X22708Y99346D01*
X22835Y99329D01*
Y101969D01*
D02*
G37*
G36*
X307874Y101852D02*
Y99213D01*
X310513D01*
X310496Y99339D01*
X310144Y100190D01*
X309583Y100921D01*
X308852Y101482D01*
X308000Y101835D01*
X307874Y101852D01*
D02*
G37*
G36*
X306299D02*
X306173Y101835D01*
X305322Y101482D01*
X304590Y100921D01*
X304029Y100190D01*
X303677Y99339D01*
X303660Y99213D01*
X306299D01*
Y101852D01*
D02*
G37*
G36*
X268504D02*
Y99213D01*
X271143D01*
X271127Y99339D01*
X270774Y100190D01*
X270213Y100921D01*
X269482Y101482D01*
X268630Y101835D01*
X268504Y101852D01*
D02*
G37*
G36*
X266929D02*
X266803Y101835D01*
X265951Y101482D01*
X265220Y100921D01*
X264659Y100190D01*
X264307Y99339D01*
X264290Y99213D01*
X266929D01*
Y101852D01*
D02*
G37*
G36*
X168781Y101575D02*
X166142D01*
Y98936D01*
X166268Y98952D01*
X167119Y99305D01*
X167851Y99866D01*
X168412Y100597D01*
X168764Y101449D01*
X168781Y101575D01*
D02*
G37*
G36*
X164567D02*
X161928D01*
X161944Y101449D01*
X162297Y100597D01*
X162858Y99866D01*
X163589Y99305D01*
X164441Y98952D01*
X164567Y98936D01*
Y101575D01*
D02*
G37*
G36*
X429134Y101458D02*
Y98819D01*
X431773D01*
X431756Y98945D01*
X431404Y99797D01*
X430843Y100528D01*
X430112Y101089D01*
X429260Y101441D01*
X429134Y101458D01*
D02*
G37*
G36*
X427559D02*
X427433Y101441D01*
X426581Y101089D01*
X425850Y100528D01*
X425289Y99797D01*
X424936Y98945D01*
X424920Y98819D01*
X427559D01*
Y101458D01*
D02*
G37*
G36*
X310513Y97638D02*
X307874D01*
Y94999D01*
X308000Y95015D01*
X308852Y95368D01*
X309583Y95929D01*
X310144Y96660D01*
X310496Y97512D01*
X310513Y97638D01*
D02*
G37*
G36*
X306299D02*
X303660D01*
X303677Y97512D01*
X304029Y96660D01*
X304590Y95929D01*
X305322Y95368D01*
X306173Y95015D01*
X306299Y94999D01*
Y97638D01*
D02*
G37*
G36*
X271143D02*
X268504D01*
Y94999D01*
X268630Y95015D01*
X269482Y95368D01*
X270213Y95929D01*
X270774Y96660D01*
X271127Y97512D01*
X271143Y97638D01*
D02*
G37*
G36*
X266929D02*
X264290D01*
X264307Y97512D01*
X264659Y96660D01*
X265220Y95929D01*
X265951Y95368D01*
X266803Y95015D01*
X266929Y94999D01*
Y97638D01*
D02*
G37*
G36*
X431773Y97244D02*
X429134D01*
Y94605D01*
X429260Y94622D01*
X430112Y94974D01*
X430843Y95535D01*
X431404Y96266D01*
X431756Y97118D01*
X431773Y97244D01*
D02*
G37*
G36*
X427559D02*
X424920D01*
X424936Y97118D01*
X425289Y96266D01*
X425850Y95535D01*
X426581Y94974D01*
X427433Y94622D01*
X427559Y94605D01*
Y97244D01*
D02*
G37*
G36*
X233071Y93978D02*
Y91339D01*
X235710D01*
X235693Y91465D01*
X235341Y92316D01*
X234780Y93047D01*
X234049Y93608D01*
X233197Y93961D01*
X233071Y93978D01*
D02*
G37*
G36*
X231496D02*
X231370Y93961D01*
X230518Y93608D01*
X229787Y93047D01*
X229226Y92316D01*
X228873Y91465D01*
X228857Y91339D01*
X231496D01*
Y93978D01*
D02*
G37*
G36*
X150394Y90041D02*
Y87402D01*
X153033D01*
X153016Y87528D01*
X152664Y88379D01*
X152102Y89110D01*
X151371Y89671D01*
X150520Y90024D01*
X150394Y90041D01*
D02*
G37*
G36*
X148819D02*
X148693Y90024D01*
X147841Y89671D01*
X147110Y89110D01*
X146549Y88379D01*
X146196Y87528D01*
X146180Y87402D01*
X148819D01*
Y90041D01*
D02*
G37*
G36*
X235710Y89764D02*
X233071D01*
Y87125D01*
X233197Y87141D01*
X234049Y87494D01*
X234780Y88055D01*
X235341Y88786D01*
X235693Y89638D01*
X235710Y89764D01*
D02*
G37*
G36*
X231496D02*
X228857D01*
X228873Y89638D01*
X229226Y88786D01*
X229787Y88055D01*
X230518Y87494D01*
X231370Y87141D01*
X231496Y87125D01*
Y89764D01*
D02*
G37*
G36*
X189764Y86104D02*
Y83465D01*
X192403D01*
X192386Y83591D01*
X192034Y84442D01*
X191473Y85173D01*
X190742Y85734D01*
X189890Y86087D01*
X189764Y86104D01*
D02*
G37*
G36*
X188189D02*
X188063Y86087D01*
X187211Y85734D01*
X186480Y85173D01*
X185919Y84442D01*
X185566Y83591D01*
X185550Y83465D01*
X188189D01*
Y86104D01*
D02*
G37*
G36*
X153033Y85827D02*
X150394D01*
Y83188D01*
X150520Y83204D01*
X151371Y83557D01*
X152102Y84118D01*
X152664Y84849D01*
X153016Y85701D01*
X153033Y85827D01*
D02*
G37*
G36*
X148819D02*
X146180D01*
X146196Y85701D01*
X146549Y84849D01*
X147110Y84118D01*
X147841Y83557D01*
X148693Y83204D01*
X148819Y83188D01*
Y85827D01*
D02*
G37*
G36*
X113779Y82167D02*
Y79528D01*
X116419D01*
X116402Y79654D01*
X116049Y80505D01*
X115488Y81236D01*
X114757Y81797D01*
X113906Y82150D01*
X113779Y82167D01*
D02*
G37*
G36*
X112205D02*
X112078Y82150D01*
X111227Y81797D01*
X110496Y81236D01*
X109935Y80505D01*
X109582Y79654D01*
X109566Y79528D01*
X112205D01*
Y82167D01*
D02*
G37*
G36*
X76772D02*
Y79528D01*
X79411D01*
X79394Y79654D01*
X79041Y80505D01*
X78480Y81236D01*
X77749Y81797D01*
X76898Y82150D01*
X76772Y82167D01*
D02*
G37*
G36*
X75197D02*
X75071Y82150D01*
X74219Y81797D01*
X73488Y81236D01*
X72927Y80505D01*
X72574Y79654D01*
X72558Y79528D01*
X75197D01*
Y82167D01*
D02*
G37*
G36*
X94902Y85503D02*
Y79429D01*
X100976D01*
X100920Y79996D01*
X100525Y81297D01*
X99884Y82497D01*
X99021Y83548D01*
X97969Y84411D01*
X96770Y85053D01*
X95468Y85447D01*
X94902Y85503D01*
D02*
G37*
G36*
X93327D02*
X92760Y85447D01*
X91459Y85053D01*
X90259Y84411D01*
X89208Y83548D01*
X88345Y82497D01*
X87703Y81297D01*
X87309Y79996D01*
X87253Y79429D01*
X93327D01*
Y85503D01*
D02*
G37*
G36*
X192403Y81890D02*
X189764D01*
Y79251D01*
X189890Y79267D01*
X190742Y79620D01*
X191473Y80181D01*
X192034Y80912D01*
X192386Y81763D01*
X192403Y81890D01*
D02*
G37*
G36*
X188189D02*
X185550D01*
X185566Y81763D01*
X185919Y80912D01*
X186480Y80181D01*
X187211Y79620D01*
X188063Y79267D01*
X188189Y79251D01*
Y81890D01*
D02*
G37*
G36*
X257874Y80198D02*
Y77559D01*
X260513D01*
X260496Y77685D01*
X260144Y78537D01*
X259583Y79268D01*
X258852Y79829D01*
X258000Y80182D01*
X257874Y80198D01*
D02*
G37*
G36*
X256299D02*
X256173Y80182D01*
X255322Y79829D01*
X254590Y79268D01*
X254029Y78537D01*
X253677Y77685D01*
X253660Y77559D01*
X256299D01*
Y80198D01*
D02*
G37*
G36*
X116419Y77953D02*
X113779D01*
Y75314D01*
X113906Y75330D01*
X114757Y75683D01*
X115488Y76244D01*
X116049Y76975D01*
X116402Y77826D01*
X116419Y77953D01*
D02*
G37*
G36*
X112205D02*
X109566D01*
X109582Y77826D01*
X109935Y76975D01*
X110496Y76244D01*
X111227Y75683D01*
X112078Y75330D01*
X112205Y75314D01*
Y77953D01*
D02*
G37*
G36*
X79411D02*
X76772D01*
Y75314D01*
X76898Y75330D01*
X77749Y75683D01*
X78480Y76244D01*
X79041Y76975D01*
X79394Y77826D01*
X79411Y77953D01*
D02*
G37*
G36*
X75197D02*
X72558D01*
X72574Y77826D01*
X72927Y76975D01*
X73488Y76244D01*
X74219Y75683D01*
X75071Y75330D01*
X75197Y75314D01*
Y77953D01*
D02*
G37*
G36*
X260513Y75984D02*
X257874D01*
Y73345D01*
X258000Y73362D01*
X258852Y73714D01*
X259583Y74275D01*
X260144Y75007D01*
X260496Y75858D01*
X260513Y75984D01*
D02*
G37*
G36*
X256299D02*
X253660D01*
X253677Y75858D01*
X254029Y75007D01*
X254590Y74275D01*
X255322Y73714D01*
X256173Y73362D01*
X256299Y73345D01*
Y75984D01*
D02*
G37*
G36*
X100976Y77854D02*
X94902D01*
Y71780D01*
X95468Y71836D01*
X96770Y72231D01*
X97969Y72872D01*
X99021Y73735D01*
X99884Y74787D01*
X100525Y75986D01*
X100920Y77288D01*
X100976Y77854D01*
D02*
G37*
G36*
X93327D02*
X87253D01*
X87309Y77288D01*
X87703Y75986D01*
X88345Y74787D01*
X89208Y73735D01*
X90259Y72872D01*
X91459Y72231D01*
X92760Y71836D01*
X93327Y71780D01*
Y77854D01*
D02*
G37*
G36*
X300000Y74293D02*
Y71653D01*
X302639D01*
X302623Y71780D01*
X302270Y72631D01*
X301709Y73362D01*
X300978Y73923D01*
X300126Y74276D01*
X300000Y74293D01*
D02*
G37*
G36*
X298425D02*
X298299Y74276D01*
X297447Y73923D01*
X296716Y73362D01*
X296155Y72631D01*
X295803Y71780D01*
X295786Y71653D01*
X298425D01*
Y74293D01*
D02*
G37*
G36*
X353937Y73112D02*
Y70472D01*
X356576D01*
X356559Y70599D01*
X356207Y71450D01*
X355646Y72181D01*
X354915Y72742D01*
X354063Y73095D01*
X353937Y73112D01*
D02*
G37*
G36*
X352362D02*
X352236Y73095D01*
X351384Y72742D01*
X350653Y72181D01*
X350092Y71450D01*
X349740Y70599D01*
X349723Y70472D01*
X352362D01*
Y73112D01*
D02*
G37*
G36*
X302639Y70079D02*
X300000D01*
Y67440D01*
X300126Y67456D01*
X300978Y67809D01*
X301709Y68370D01*
X302270Y69101D01*
X302623Y69952D01*
X302639Y70079D01*
D02*
G37*
G36*
X298425D02*
X295786D01*
X295803Y69952D01*
X296155Y69101D01*
X296716Y68370D01*
X297447Y67809D01*
X298299Y67456D01*
X298425Y67440D01*
Y70079D01*
D02*
G37*
G36*
X20472Y69962D02*
Y67323D01*
X23112D01*
X23095Y67449D01*
X22742Y68300D01*
X22181Y69032D01*
X21450Y69593D01*
X20599Y69945D01*
X20472Y69962D01*
D02*
G37*
G36*
X18898D02*
X18771Y69945D01*
X17920Y69593D01*
X17189Y69032D01*
X16628Y68300D01*
X16275Y67449D01*
X16259Y67323D01*
X18898D01*
Y69962D01*
D02*
G37*
G36*
X356576Y68898D02*
X353937D01*
Y66259D01*
X354063Y66275D01*
X354915Y66628D01*
X355646Y67189D01*
X356207Y67920D01*
X356559Y68771D01*
X356576Y68898D01*
D02*
G37*
G36*
X352362D02*
X349723D01*
X349740Y68771D01*
X350092Y67920D01*
X350653Y67189D01*
X351384Y66628D01*
X352236Y66275D01*
X352362Y66259D01*
Y68898D01*
D02*
G37*
G36*
X170079Y66419D02*
Y63779D01*
X172718D01*
X172701Y63906D01*
X172349Y64757D01*
X171788Y65488D01*
X171056Y66049D01*
X170205Y66402D01*
X170079Y66419D01*
D02*
G37*
G36*
X168504D02*
X168378Y66402D01*
X167526Y66049D01*
X166795Y65488D01*
X166234Y64757D01*
X165881Y63906D01*
X165865Y63779D01*
X168504D01*
Y66419D01*
D02*
G37*
G36*
X23112Y65748D02*
X20472D01*
Y63109D01*
X20599Y63125D01*
X21450Y63478D01*
X22181Y64039D01*
X22742Y64770D01*
X23095Y65622D01*
X23112Y65748D01*
D02*
G37*
G36*
X18898D02*
X16259D01*
X16275Y65622D01*
X16628Y64770D01*
X17189Y64039D01*
X17920Y63478D01*
X18771Y63125D01*
X18898Y63109D01*
Y65748D01*
D02*
G37*
G36*
X213386Y62482D02*
Y59842D01*
X216025D01*
X216008Y59969D01*
X215656Y60820D01*
X215095Y61551D01*
X214364Y62112D01*
X213512Y62465D01*
X213386Y62482D01*
D02*
G37*
G36*
X211811D02*
X211685Y62465D01*
X210833Y62112D01*
X210102Y61551D01*
X209541Y60820D01*
X209189Y59969D01*
X209172Y59842D01*
X211811D01*
Y62482D01*
D02*
G37*
G36*
X172718Y62205D02*
X170079D01*
Y59566D01*
X170205Y59582D01*
X171056Y59935D01*
X171788Y60496D01*
X172349Y61227D01*
X172701Y62078D01*
X172718Y62205D01*
D02*
G37*
G36*
X168504D02*
X165865D01*
X165881Y62078D01*
X166234Y61227D01*
X166795Y60496D01*
X167526Y59935D01*
X168378Y59582D01*
X168504Y59566D01*
Y62205D01*
D02*
G37*
G36*
X216025Y58268D02*
X213386D01*
Y55629D01*
X213512Y55645D01*
X214364Y55998D01*
X215095Y56559D01*
X215656Y57290D01*
X216008Y58141D01*
X216025Y58268D01*
D02*
G37*
G36*
X211811D02*
X209172D01*
X209189Y58141D01*
X209541Y57290D01*
X210102Y56559D01*
X210833Y55998D01*
X211685Y55645D01*
X211811Y55629D01*
Y58268D01*
D02*
G37*
G36*
X131890Y46734D02*
Y44094D01*
X134529D01*
X134512Y44221D01*
X134160Y45072D01*
X133599Y45803D01*
X132868Y46364D01*
X132016Y46717D01*
X131890Y46734D01*
D02*
G37*
G36*
X130315D02*
X130189Y46717D01*
X129337Y46364D01*
X128606Y45803D01*
X128045Y45072D01*
X127692Y44221D01*
X127676Y44094D01*
X130315D01*
Y46734D01*
D02*
G37*
G36*
X134529Y42520D02*
X131890D01*
Y39880D01*
X132016Y39897D01*
X132868Y40250D01*
X133599Y40811D01*
X134160Y41542D01*
X134512Y42393D01*
X134529Y42520D01*
D02*
G37*
G36*
X130315D02*
X127676D01*
X127692Y42393D01*
X128045Y41542D01*
X128606Y40811D01*
X129337Y40250D01*
X130189Y39897D01*
X130315Y39880D01*
Y42520D01*
D02*
G37*
G36*
X399213Y34135D02*
Y31496D01*
X401852D01*
X401835Y31622D01*
X401482Y32474D01*
X400921Y33205D01*
X400190Y33766D01*
X399339Y34119D01*
X399213Y34135D01*
D02*
G37*
G36*
X397638D02*
X397512Y34119D01*
X396660Y33766D01*
X395929Y33205D01*
X395368Y32474D01*
X395015Y31622D01*
X394999Y31496D01*
X397638D01*
Y34135D01*
D02*
G37*
G36*
X401852Y29921D02*
X399213D01*
Y27282D01*
X399339Y27299D01*
X400190Y27651D01*
X400921Y28212D01*
X401482Y28944D01*
X401835Y29795D01*
X401852Y29921D01*
D02*
G37*
G36*
X397638D02*
X394999D01*
X395015Y29795D01*
X395368Y28944D01*
X395929Y28212D01*
X396660Y27651D01*
X397512Y27299D01*
X397638Y27282D01*
Y29921D01*
D02*
G37*
G36*
X69685Y29805D02*
Y27165D01*
X72324D01*
X72308Y27292D01*
X71955Y28143D01*
X71394Y28874D01*
X70663Y29435D01*
X69811Y29788D01*
X69685Y29805D01*
D02*
G37*
G36*
X68110D02*
X67984Y29788D01*
X67133Y29435D01*
X66401Y28874D01*
X65840Y28143D01*
X65488Y27292D01*
X65471Y27165D01*
X68110D01*
Y29805D01*
D02*
G37*
G36*
X72324Y25591D02*
X69685D01*
Y22951D01*
X69811Y22968D01*
X70663Y23321D01*
X71394Y23882D01*
X71955Y24613D01*
X72308Y25464D01*
X72324Y25591D01*
D02*
G37*
G36*
X68110D02*
X65471D01*
X65488Y25464D01*
X65840Y24613D01*
X66401Y23882D01*
X67133Y23321D01*
X67984Y22968D01*
X68110Y22951D01*
Y25591D01*
D02*
G37*
G36*
X250000Y23112D02*
Y20472D01*
X252639D01*
X252623Y20599D01*
X252270Y21450D01*
X251709Y22181D01*
X250978Y22742D01*
X250126Y23095D01*
X250000Y23112D01*
D02*
G37*
G36*
X248425D02*
X248299Y23095D01*
X247447Y22742D01*
X246716Y22181D01*
X246155Y21450D01*
X245803Y20599D01*
X245786Y20472D01*
X248425D01*
Y23112D01*
D02*
G37*
G36*
X337795Y21930D02*
Y19291D01*
X340434D01*
X340418Y19418D01*
X340065Y20269D01*
X339504Y21000D01*
X338773Y21561D01*
X337922Y21914D01*
X337795Y21930D01*
D02*
G37*
G36*
X336221D02*
X336094Y21914D01*
X335243Y21561D01*
X334512Y21000D01*
X333951Y20269D01*
X333598Y19418D01*
X333581Y19291D01*
X336221D01*
Y21930D01*
D02*
G37*
G36*
X166535Y20749D02*
Y18110D01*
X169175D01*
X169158Y18237D01*
X168805Y19088D01*
X168244Y19819D01*
X167513Y20380D01*
X166662Y20733D01*
X166535Y20749D01*
D02*
G37*
G36*
X164961D02*
X164834Y20733D01*
X163983Y20380D01*
X163252Y19819D01*
X162691Y19088D01*
X162338Y18237D01*
X162321Y18110D01*
X164961D01*
Y20749D01*
D02*
G37*
G36*
X252639Y18898D02*
X250000D01*
Y16259D01*
X250126Y16275D01*
X250978Y16628D01*
X251709Y17189D01*
X252270Y17920D01*
X252623Y18771D01*
X252639Y18898D01*
D02*
G37*
G36*
X248425D02*
X245786D01*
X245803Y18771D01*
X246155Y17920D01*
X246716Y17189D01*
X247447Y16628D01*
X248299Y16275D01*
X248425Y16259D01*
Y18898D01*
D02*
G37*
G36*
X340434Y17717D02*
X337795D01*
Y15077D01*
X337922Y15094D01*
X338773Y15447D01*
X339504Y16008D01*
X340065Y16739D01*
X340418Y17590D01*
X340434Y17717D01*
D02*
G37*
G36*
X336221D02*
X333581D01*
X333598Y17590D01*
X333951Y16739D01*
X334512Y16008D01*
X335243Y15447D01*
X336094Y15094D01*
X336221Y15077D01*
Y17717D01*
D02*
G37*
G36*
X169175Y16535D02*
X166535D01*
Y13896D01*
X166662Y13913D01*
X167513Y14266D01*
X168244Y14827D01*
X168805Y15558D01*
X169158Y16409D01*
X169175Y16535D01*
D02*
G37*
G36*
X164961D02*
X162321D01*
X162338Y16409D01*
X162691Y15558D01*
X163252Y14827D01*
X163983Y14266D01*
X164834Y13913D01*
X164961Y13896D01*
Y16535D01*
D02*
G37*
%LPD*%
G36*
X181899Y230854D02*
X181728Y230441D01*
X181608Y229528D01*
X181728Y228614D01*
X181852Y228315D01*
X178733Y225197D01*
X176870D01*
Y223334D01*
X172290Y218754D01*
X171942Y218233D01*
X171819Y217618D01*
X171820Y217618D01*
Y216142D01*
X167421D01*
Y215772D01*
X166763D01*
X166571Y216234D01*
X181475Y231137D01*
X181899Y230854D01*
D02*
G37*
G36*
X167421Y209842D02*
X170993D01*
X171185Y209381D01*
X162032Y200228D01*
X160630D01*
X160015Y200106D01*
X159563Y199803D01*
X157513D01*
Y207378D01*
X157555Y207400D01*
X158574Y208237D01*
X160550Y210212D01*
X167421D01*
Y209842D01*
D02*
G37*
G36*
X318369Y182947D02*
X318504Y182480D01*
X318504D01*
X318504Y182480D01*
Y171850D01*
X318504Y171850D01*
X318504D01*
X318373Y171388D01*
X310010Y163025D01*
X241959Y163025D01*
X229952Y175031D01*
X228933Y175868D01*
X227770Y176489D01*
X226509Y176872D01*
X226079Y176914D01*
Y177417D01*
X226509Y177459D01*
X227770Y177842D01*
X228933Y178463D01*
X229952Y179300D01*
X241959Y191306D01*
X279728Y191306D01*
X279795Y190812D01*
X278944Y190459D01*
X278212Y189898D01*
X277651Y189167D01*
X277299Y188315D01*
X277282Y188189D01*
X284135D01*
X284119Y188315D01*
X283766Y189167D01*
X283205Y189898D01*
X282474Y190459D01*
X281622Y190812D01*
X281689Y191306D01*
X310010D01*
X318369Y182947D01*
D02*
G37*
G36*
X160015Y154639D02*
X160630Y154516D01*
X164276D01*
X171677Y147116D01*
X171485Y146653D01*
X168110D01*
Y146284D01*
X158798D01*
X157513Y147569D01*
Y154941D01*
X159563D01*
X160015Y154639D01*
D02*
G37*
%LPC*%
G36*
X307874Y188466D02*
Y185827D01*
X310513D01*
X310496Y185953D01*
X310144Y186804D01*
X309583Y187536D01*
X308852Y188097D01*
X308000Y188449D01*
X307874Y188466D01*
D02*
G37*
G36*
X306299D02*
X306173Y188449D01*
X305322Y188097D01*
X304590Y187536D01*
X304029Y186804D01*
X303677Y185953D01*
X303660Y185827D01*
X306299D01*
Y188466D01*
D02*
G37*
G36*
X256693D02*
Y185827D01*
X259332D01*
X259315Y185953D01*
X258963Y186804D01*
X258402Y187536D01*
X257671Y188097D01*
X256819Y188449D01*
X256693Y188466D01*
D02*
G37*
G36*
X255118D02*
X254992Y188449D01*
X254140Y188097D01*
X253409Y187536D01*
X252848Y186804D01*
X252496Y185953D01*
X252479Y185827D01*
X255118D01*
Y188466D01*
D02*
G37*
G36*
X244882D02*
Y185827D01*
X247521D01*
X247504Y185953D01*
X247152Y186804D01*
X246591Y187536D01*
X245860Y188097D01*
X245008Y188449D01*
X244882Y188466D01*
D02*
G37*
G36*
X243307D02*
X243181Y188449D01*
X242329Y188097D01*
X241598Y187536D01*
X241037Y186804D01*
X240685Y185953D01*
X240668Y185827D01*
X243307D01*
Y188466D01*
D02*
G37*
G36*
X284135Y186614D02*
X281496D01*
Y183975D01*
X281622Y183992D01*
X282474Y184344D01*
X283205Y184905D01*
X283766Y185636D01*
X284119Y186488D01*
X284135Y186614D01*
D02*
G37*
G36*
X279921D02*
X277282D01*
X277299Y186488D01*
X277651Y185636D01*
X278212Y184905D01*
X278944Y184344D01*
X279795Y183992D01*
X279921Y183975D01*
Y186614D01*
D02*
G37*
G36*
X310513Y184252D02*
X307874D01*
Y181613D01*
X308000Y181630D01*
X308852Y181982D01*
X309583Y182543D01*
X310144Y183274D01*
X310496Y184126D01*
X310513Y184252D01*
D02*
G37*
G36*
X306299D02*
X303660D01*
X303677Y184126D01*
X304029Y183274D01*
X304590Y182543D01*
X305322Y181982D01*
X306173Y181630D01*
X306299Y181613D01*
Y184252D01*
D02*
G37*
G36*
X259332D02*
X256693D01*
Y181613D01*
X256819Y181630D01*
X257671Y181982D01*
X258402Y182543D01*
X258963Y183274D01*
X259315Y184126D01*
X259332Y184252D01*
D02*
G37*
G36*
X255118D02*
X252479D01*
X252496Y184126D01*
X252848Y183274D01*
X253409Y182543D01*
X254140Y181982D01*
X254992Y181630D01*
X255118Y181613D01*
Y184252D01*
D02*
G37*
G36*
X247521D02*
X244882D01*
Y181613D01*
X245008Y181630D01*
X245860Y181982D01*
X246591Y182543D01*
X247152Y183274D01*
X247504Y184126D01*
X247521Y184252D01*
D02*
G37*
G36*
X243307D02*
X240668D01*
X240685Y184126D01*
X241037Y183274D01*
X241598Y182543D01*
X242329Y181982D01*
X243181Y181630D01*
X243307Y181613D01*
Y184252D01*
D02*
G37*
G36*
X296276Y183087D02*
X281299D01*
Y177953D01*
X296276D01*
Y183087D01*
D02*
G37*
G36*
X279724D02*
X264748D01*
Y177953D01*
X279724D01*
Y183087D01*
D02*
G37*
G36*
X250394Y180198D02*
Y177559D01*
X253033D01*
X253016Y177685D01*
X252663Y178537D01*
X252102Y179268D01*
X251371Y179829D01*
X250520Y180182D01*
X250394Y180198D01*
D02*
G37*
G36*
X248819D02*
X248693Y180182D01*
X247841Y179829D01*
X247110Y179268D01*
X246549Y178537D01*
X246196Y177685D01*
X246180Y177559D01*
X248819D01*
Y180198D01*
D02*
G37*
G36*
X253033Y175984D02*
X250394D01*
Y173345D01*
X250520Y173362D01*
X251371Y173714D01*
X252102Y174275D01*
X252663Y175006D01*
X253016Y175858D01*
X253033Y175984D01*
D02*
G37*
G36*
X248819D02*
X246180D01*
X246196Y175858D01*
X246549Y175006D01*
X247110Y174275D01*
X247841Y173714D01*
X248693Y173362D01*
X248819Y173345D01*
Y175984D01*
D02*
G37*
G36*
X307874Y172718D02*
Y170079D01*
X310513D01*
X310496Y170205D01*
X310144Y171056D01*
X309583Y171788D01*
X308852Y172349D01*
X308000Y172701D01*
X307874Y172718D01*
D02*
G37*
G36*
X306299D02*
X306173Y172701D01*
X305322Y172349D01*
X304590Y171788D01*
X304029Y171056D01*
X303677Y170205D01*
X303660Y170079D01*
X306299D01*
Y172718D01*
D02*
G37*
G36*
X256693D02*
Y170079D01*
X259332D01*
X259315Y170205D01*
X258963Y171056D01*
X258402Y171788D01*
X257671Y172349D01*
X256819Y172701D01*
X256693Y172718D01*
D02*
G37*
G36*
X255118D02*
X254992Y172701D01*
X254140Y172349D01*
X253409Y171788D01*
X252848Y171056D01*
X252496Y170205D01*
X252479Y170079D01*
X255118D01*
Y172718D01*
D02*
G37*
G36*
X244882D02*
Y170079D01*
X247521D01*
X247504Y170205D01*
X247152Y171056D01*
X246591Y171788D01*
X245860Y172349D01*
X245008Y172701D01*
X244882Y172718D01*
D02*
G37*
G36*
X243307D02*
X243181Y172701D01*
X242329Y172349D01*
X241598Y171788D01*
X241037Y171056D01*
X240685Y170205D01*
X240668Y170079D01*
X243307D01*
Y172718D01*
D02*
G37*
G36*
X296276Y176378D02*
X264748D01*
Y171244D01*
X279455D01*
X279487Y170744D01*
X279401Y170733D01*
X278550Y170380D01*
X277819Y169819D01*
X277258Y169088D01*
X276905Y168236D01*
X276888Y168110D01*
X283741D01*
X283725Y168236D01*
X283372Y169088D01*
X282811Y169819D01*
X282080Y170380D01*
X281229Y170733D01*
X281142Y170744D01*
X281175Y171244D01*
X296276D01*
Y176378D01*
D02*
G37*
G36*
X310513Y168504D02*
X307874D01*
Y165865D01*
X308000Y165881D01*
X308852Y166234D01*
X309583Y166795D01*
X310144Y167526D01*
X310496Y168378D01*
X310513Y168504D01*
D02*
G37*
G36*
X306299D02*
X303660D01*
X303677Y168378D01*
X304029Y167526D01*
X304590Y166795D01*
X305322Y166234D01*
X306173Y165881D01*
X306299Y165865D01*
Y168504D01*
D02*
G37*
G36*
X259332D02*
X256693D01*
Y165865D01*
X256819Y165881D01*
X257671Y166234D01*
X258402Y166795D01*
X258963Y167526D01*
X259315Y168378D01*
X259332Y168504D01*
D02*
G37*
G36*
X255118D02*
X252479D01*
X252496Y168378D01*
X252848Y167526D01*
X253409Y166795D01*
X254140Y166234D01*
X254992Y165881D01*
X255118Y165865D01*
Y168504D01*
D02*
G37*
G36*
X247521D02*
X244882D01*
Y165865D01*
X245008Y165881D01*
X245860Y166234D01*
X246591Y166795D01*
X247152Y167526D01*
X247504Y168378D01*
X247521Y168504D01*
D02*
G37*
G36*
X243307D02*
X240668D01*
X240685Y168378D01*
X241037Y167526D01*
X241598Y166795D01*
X242329Y166234D01*
X243181Y165881D01*
X243307Y165865D01*
Y168504D01*
D02*
G37*
G36*
X283741Y166535D02*
X281102D01*
Y163896D01*
X281229Y163913D01*
X282080Y164266D01*
X282811Y164827D01*
X283372Y165558D01*
X283725Y166409D01*
X283741Y166535D01*
D02*
G37*
G36*
X279528D02*
X276888D01*
X276905Y166409D01*
X277258Y165558D01*
X277819Y164827D01*
X278550Y164266D01*
X279401Y163913D01*
X279528Y163896D01*
Y166535D01*
D02*
G37*
%LPD*%
G36*
X104441Y174055D02*
X102644Y172257D01*
X102644Y172257D01*
X100614Y170228D01*
X93701D01*
X93086Y170106D01*
X92565Y169757D01*
X92565Y169757D01*
X89670Y166862D01*
X88775D01*
X88681Y167323D01*
X88681D01*
Y170835D01*
X96781D01*
X96781Y170835D01*
X97396Y170957D01*
X97917Y171306D01*
X101128Y174516D01*
X104250D01*
X104441Y174055D01*
D02*
G37*
G36*
X107906Y156554D02*
X101646Y150295D01*
X98819D01*
Y147468D01*
X94337Y142986D01*
X93989Y142465D01*
X93867Y141850D01*
X93867Y141850D01*
Y136689D01*
X90418Y133239D01*
X81339D01*
X80724Y133117D01*
X80203Y132769D01*
X80203Y132769D01*
X42051Y94617D01*
X40406D01*
X40214Y95079D01*
X49068Y103934D01*
X49068Y103934D01*
X49417Y104454D01*
X49539Y105069D01*
X49539Y105069D01*
Y112075D01*
X53051D01*
X53051Y112075D01*
X53666Y112198D01*
X54186Y112546D01*
X79451Y137810D01*
X79874Y137527D01*
X79823Y137402D01*
X84911D01*
X84931Y137432D01*
X85170Y137681D01*
X87894D01*
Y140748D01*
Y143815D01*
X86109D01*
X85918Y144277D01*
X87212Y145571D01*
X91831D01*
Y150190D01*
X98657Y157016D01*
X107714D01*
X107906Y156554D01*
D02*
G37*
%LPC*%
G36*
X96063Y151280D02*
Y149606D01*
X97736D01*
X97525Y150117D01*
X97112Y150655D01*
X96574Y151068D01*
X96063Y151280D01*
D02*
G37*
G36*
X94488D02*
X93977Y151068D01*
X93439Y150655D01*
X93027Y150117D01*
X92815Y149606D01*
X94488D01*
Y151280D01*
D02*
G37*
G36*
X97736Y148031D02*
X96063D01*
Y146358D01*
X96574Y146570D01*
X97112Y146983D01*
X97525Y147520D01*
X97736Y148031D01*
D02*
G37*
G36*
X94488D02*
X92815D01*
X93027Y147520D01*
X93439Y146983D01*
X93977Y146570D01*
X94488Y146358D01*
Y148031D01*
D02*
G37*
G36*
X92437Y143815D02*
X89468D01*
Y141535D01*
X92437D01*
Y143815D01*
D02*
G37*
G36*
Y139961D02*
X89468D01*
Y137681D01*
X92437D01*
Y139961D01*
D02*
G37*
G36*
X84744Y135827D02*
X83071D01*
Y134153D01*
X83582Y134365D01*
X84120Y134778D01*
X84533Y135316D01*
X84744Y135827D01*
D02*
G37*
G36*
X81496D02*
X79823D01*
X80034Y135316D01*
X80447Y134778D01*
X80985Y134365D01*
X81496Y134153D01*
Y135827D01*
D02*
G37*
%LPD*%
D14*
X160630Y156122D02*
D03*
Y158622D02*
D03*
Y161122D02*
D03*
Y163622D02*
D03*
Y166122D02*
D03*
Y168622D02*
D03*
Y171122D02*
D03*
Y173622D02*
D03*
Y176122D02*
D03*
Y178622D02*
D03*
Y181122D02*
D03*
Y183622D02*
D03*
Y186122D02*
D03*
Y188622D02*
D03*
Y191122D02*
D03*
Y193622D02*
D03*
Y196122D02*
D03*
Y198622D02*
D03*
X111811Y156122D02*
D03*
Y158622D02*
D03*
Y161122D02*
D03*
Y163622D02*
D03*
Y166122D02*
D03*
Y168622D02*
D03*
Y171122D02*
D03*
Y173622D02*
D03*
Y176122D02*
D03*
Y178622D02*
D03*
Y181122D02*
D03*
Y183622D02*
D03*
Y186122D02*
D03*
Y188622D02*
D03*
Y191122D02*
D03*
Y193622D02*
D03*
Y196122D02*
D03*
Y198622D02*
D03*
D15*
X78937Y180709D02*
D03*
X86221D02*
D03*
D16*
X70177Y176969D02*
D03*
Y184252D02*
D03*
X377165Y114567D02*
D03*
Y121851D02*
D03*
D17*
X185236Y134646D02*
D03*
X177953D02*
D03*
X177854Y143504D02*
D03*
X170571D02*
D03*
X78937Y170472D02*
D03*
X86221D02*
D03*
X177165Y212992D02*
D03*
X169882D02*
D03*
X179331Y222047D02*
D03*
X186614D02*
D03*
X392520Y114173D02*
D03*
X385236D02*
D03*
D18*
X101969Y140551D02*
D03*
Y147835D02*
D03*
X88681Y140748D02*
D03*
Y148031D02*
D03*
X213976Y146654D02*
D03*
Y153937D02*
D03*
X205512Y166831D02*
D03*
Y159547D02*
D03*
X111614Y135039D02*
D03*
Y127756D02*
D03*
X205610Y187894D02*
D03*
Y195177D02*
D03*
X111516Y221654D02*
D03*
Y228937D02*
D03*
X214567Y208465D02*
D03*
Y201181D02*
D03*
X101575Y207776D02*
D03*
Y215059D02*
D03*
X363386Y121850D02*
D03*
Y114567D02*
D03*
X81339Y215827D02*
D03*
Y223110D02*
D03*
D19*
X22736Y113681D02*
D03*
X42815D02*
D03*
D20*
X280512Y177165D02*
D03*
X333661D02*
D03*
D21*
X53543Y241831D02*
D03*
X19291D02*
D03*
D38*
X173425Y217618D02*
X185138Y229331D01*
X95472Y141850D02*
X109744Y156122D01*
X86211Y222156D02*
X109744Y198622D01*
X53051Y113681D02*
X97992Y158622D01*
X47933Y105069D02*
Y113681D01*
X60728Y197736D02*
X97470D01*
X59055Y195472D02*
X96565D01*
X59449Y193209D02*
X95610D01*
X62205Y191043D02*
X94656D01*
X48031Y176870D02*
X62205Y191043D01*
X64567Y188878D02*
X93258D01*
X42559Y166870D02*
X64567Y188878D01*
X94656Y191043D02*
X97077Y188622D01*
X51595Y206870D02*
X60728Y197736D01*
X96565Y195472D02*
X98415Y193622D01*
X95610Y193209D02*
X97697Y191122D01*
X53110Y186870D02*
X59449Y193209D01*
X98415Y193622D02*
X111811D01*
X31004Y196870D02*
X31516Y197382D01*
X97470Y197736D02*
X99085Y196122D01*
X93258Y188878D02*
X96014Y186122D01*
X57657Y196870D02*
X59055Y195472D01*
X99085Y196122D02*
X111811D01*
X49409Y162795D02*
X91496D01*
X53740Y160531D02*
X92746D01*
X40079Y146870D02*
X53740Y160531D01*
X58169Y158071D02*
X93799D01*
X36968Y136870D02*
X58169Y158071D01*
X75689Y176969D02*
X78937Y180217D01*
X70177Y176969D02*
X75689D01*
X93799Y158071D02*
X96850Y161122D01*
X92746Y160531D02*
X95837Y163622D01*
X31004Y136870D02*
X36968D01*
X91496Y162795D02*
X94823Y166122D01*
X43484Y156870D02*
X49409Y162795D01*
X31004Y146870D02*
X40079D01*
X92126Y186516D02*
X95020Y183622D01*
X72933Y186516D02*
X92126D01*
X97077Y188622D02*
X111811D01*
X97697Y191122D02*
X111811D01*
X70669Y184252D02*
X72933Y186516D01*
X95020Y183622D02*
X111811D01*
X121653Y186713D02*
X129744Y178622D01*
X121653Y186713D02*
Y211516D01*
X113484Y219685D02*
X121653Y211516D01*
X129744Y178622D02*
X160630D01*
X130157Y176122D02*
X160630D01*
X78937Y171161D02*
X83366Y175591D01*
X78937Y169783D02*
Y170472D01*
Y171161D01*
X78937Y180217D02*
X83366Y175787D01*
X70177Y184252D02*
X70669D01*
X83366Y175591D02*
Y175787D01*
X86211Y222156D02*
Y223110D01*
X90551Y227972D02*
X91083Y227441D01*
X109744Y198622D02*
X111811D01*
X113484Y219685D02*
Y220374D01*
X112205Y221654D02*
X113484Y220374D01*
X111516Y221654D02*
X112205D01*
X155354Y183622D02*
X160630D01*
X155551Y191122D02*
X160630D01*
X31004Y206870D02*
X51595D01*
X31004Y196870D02*
X57657D01*
X31004Y186870D02*
X53110D01*
X31004Y176870D02*
X48031D01*
X31004Y166870D02*
X42559D01*
X31004Y156870D02*
X43484D01*
X35876Y93012D02*
X42717D01*
X29035D02*
X35876D01*
X47933Y113681D02*
X53051D01*
X35876Y93012D02*
X47933Y105069D01*
X28937Y92913D02*
X29035Y93012D01*
X42717D02*
X81339Y131634D01*
X91083D01*
X185138Y229331D02*
Y229528D01*
X96014Y186122D02*
X111811D01*
X70177Y184252D02*
X71457Y185532D01*
X83366Y175591D02*
X94442D01*
X97473Y178622D01*
X96850Y161122D02*
X111811D01*
X95837Y163622D02*
X111811D01*
X94823Y166122D02*
X111811D01*
X93701Y168622D02*
X101279D01*
X90335Y165256D02*
X93701Y168622D01*
X83464Y165256D02*
X90335D01*
X96781Y172441D02*
X100463Y176122D01*
X87500Y172441D02*
X96781D01*
X103779Y171122D02*
X106280Y173622D01*
X111811D01*
X101279Y168622D02*
X111811D01*
X101279D02*
X103779Y171122D01*
X111811D01*
X78937Y169783D02*
X83464Y165256D01*
X97473Y178622D02*
X111811D01*
X100463Y176122D02*
X111811D01*
X86221Y171161D02*
X87500Y172441D01*
X86221Y170472D02*
Y171161D01*
X122146Y144882D02*
Y168110D01*
X112303Y135039D02*
X122146Y144882D01*
Y168110D02*
X130157Y176122D01*
X91083Y131634D02*
X95472Y136024D01*
X91083Y127303D02*
Y131634D01*
X90551Y126772D02*
X91083Y127303D01*
X184941Y126772D02*
Y126969D01*
X177953Y133957D02*
X184941Y126969D01*
X177953Y133957D02*
Y134646D01*
X97992Y158622D02*
X111811D01*
X95472Y136024D02*
Y141850D01*
X109744Y156122D02*
X111811D01*
X111516Y133661D02*
X112598Y134744D01*
X111614Y135039D02*
X112303D01*
X110827Y133661D02*
X111516D01*
X155354Y171122D02*
X160630D01*
X173425Y209350D02*
Y217618D01*
X160630Y198622D02*
X162697D01*
X173425Y209350D01*
X164724Y196122D02*
X176476Y207874D01*
Y212303D01*
X177165Y212992D01*
X160630Y196122D02*
X164724D01*
X155551Y163622D02*
X160630D01*
Y161122D02*
X165272D01*
X176218Y136479D02*
X177953Y134646D01*
X174213Y138484D02*
X176218Y136479D01*
X174213Y138484D02*
Y146850D01*
X164941Y156122D02*
X174213Y146850D01*
X160630Y156122D02*
X164941D01*
X177854Y143504D02*
Y146752D01*
Y143504D02*
X177854Y143504D01*
X165984Y158622D02*
X177854Y146752D01*
X160630Y158622D02*
X165984D01*
X160630Y193622D02*
X165272D01*
X160630Y173622D02*
X165272D01*
X160630Y181122D02*
X164299D01*
X164299Y181122D01*
X167717D01*
D39*
X53543Y260630D02*
X90945Y298031D01*
X123622Y127756D02*
X129823Y133957D01*
X353051Y177165D02*
X353248Y176969D01*
X142953Y183622D02*
X155354D01*
X66162Y229626D02*
Y233347D01*
X86211Y223110D02*
X91083D01*
X72677D02*
X86211D01*
X66162Y229626D02*
X72677Y223110D01*
X57677Y241831D02*
X66162Y233347D01*
X53543Y241831D02*
X57677D01*
X53543D02*
Y260630D01*
X91083Y223110D02*
Y227441D01*
X128858Y228937D02*
X129823Y227972D01*
X111516Y228937D02*
X128858D01*
X150787Y209961D02*
X153819Y212992D01*
X169882D01*
X126230Y224380D02*
X129823Y220787D01*
X111614Y127756D02*
X123622D01*
X129331Y127264D02*
X129823Y126772D01*
X150787Y144783D02*
X152067Y143504D01*
X170571D01*
X142953Y171122D02*
X155354D01*
X169193Y161319D02*
X169193Y161319D01*
X169193Y161319D02*
X173917D01*
X167362Y193622D02*
X172854D01*
X385236Y114173D02*
Y114370D01*
X385138Y114469D02*
X385236Y114370D01*
X377264Y114469D02*
X385138D01*
X377165Y114567D02*
X377264Y114469D01*
X353248Y131988D02*
Y176969D01*
Y131988D02*
X362598Y122638D01*
Y121949D02*
Y122638D01*
Y121949D02*
X362697Y121850D01*
X363386D01*
X377165Y121850D02*
X377165Y121851D01*
X363386Y121850D02*
X377165D01*
X363386Y121850D02*
X363386Y121850D01*
D40*
X163976Y36614D02*
X282283D01*
X230610Y64961D02*
X282283D01*
X164350Y318504D02*
X283465D01*
X230984Y290158D02*
X283465D01*
X208683Y213583D02*
X215650D01*
X208683Y140748D02*
X215650D01*
X190611Y158820D02*
X208683Y140748D01*
X153819Y212992D02*
X230984Y290158D01*
X129823Y220787D02*
Y227972D01*
Y283976D02*
X164350Y318504D01*
X129823Y189390D02*
Y220787D01*
Y227972D02*
Y283976D01*
X150787Y197756D02*
Y209961D01*
X129823Y70768D02*
X163976Y36614D01*
X129823Y70768D02*
Y126772D01*
X152067Y143504D02*
X230610Y64961D01*
X129823Y133957D02*
Y165354D01*
Y126772D02*
Y133957D01*
X150787Y144783D02*
Y156988D01*
X333662Y131004D02*
Y177165D01*
X319291Y116634D02*
X333662Y131004D01*
X239764Y116634D02*
X319291D01*
X215650Y140748D02*
X239764Y116634D01*
X333662Y177165D02*
Y223327D01*
X319291Y237697D02*
X333662Y223327D01*
X239764Y237697D02*
X319291D01*
X215650Y213583D02*
X239764Y237697D01*
X190611Y195511D02*
X208683Y213583D01*
X215059Y170276D02*
X225197D01*
X312795Y156299D02*
X333662Y177165D01*
X225197Y170276D02*
X239173Y156299D01*
X312795Y156299D01*
X225197Y184055D02*
X239173Y198031D01*
X312795Y198031D01*
X215059Y184055D02*
X225197D01*
X312795Y198031D02*
X333662Y177165D01*
D41*
X203642Y183071D02*
X214075D01*
X203642Y171260D02*
X214075D01*
X215059Y170276D01*
X214075Y183071D02*
X215059Y184055D01*
D42*
X136673Y183622D02*
X142953D01*
X136673Y171122D02*
X142953D01*
X173917Y161319D02*
X181398D01*
X172933Y193701D02*
X181496D01*
X191161Y173209D02*
X192126Y172244D01*
X167717Y173209D02*
X191161D01*
Y181122D02*
X192126Y182087D01*
X167717Y181122D02*
X191161D01*
D43*
X129823Y186929D02*
X132382Y184370D01*
X129823Y186929D02*
Y189390D01*
X132382Y184370D02*
X135925D01*
X150787Y195886D02*
X153150Y193524D01*
X150787Y195886D02*
Y197756D01*
Y156988D02*
Y158858D01*
X153150Y161221D01*
X129823Y165354D02*
Y167815D01*
X132382Y170374D02*
X135925D01*
X129823Y167815D02*
X132382Y170374D01*
X181398Y161319D02*
X188112D01*
X190611Y158820D01*
X188801Y193701D02*
X190611Y195511D01*
X181496Y193701D02*
X188801D01*
X202658Y172244D02*
X203642Y171260D01*
X192126Y172244D02*
X202658D01*
X192126Y182087D02*
X202658D01*
X203642Y183071D01*
D44*
X165363Y161223D02*
X167411Y161328D01*
D45*
X333662Y177165D02*
X353051D01*
D46*
X422835Y190551D02*
D03*
Y162205D02*
D03*
X282283Y36614D02*
D03*
Y64961D02*
D03*
X283465Y290158D02*
D03*
Y318504D02*
D03*
X62598Y298031D02*
D03*
X90945D02*
D03*
D47*
X31004Y206870D02*
D03*
Y196870D02*
D03*
Y186870D02*
D03*
Y176870D02*
D03*
Y166870D02*
D03*
Y156870D02*
D03*
Y146870D02*
D03*
D48*
Y136870D02*
D03*
D49*
X94114Y78642D02*
D03*
X172933Y278642D02*
D03*
D50*
X198425Y189764D02*
D03*
Y164567D02*
D03*
X92520Y179921D02*
D03*
D51*
X63779Y146850D02*
D03*
X12205Y184646D02*
D03*
X89370Y268110D02*
D03*
X315748Y304724D02*
D03*
X254724D02*
D03*
X72677Y223110D02*
D03*
X62992Y216535D02*
D03*
X75984Y78740D02*
D03*
X348819Y119685D02*
D03*
X280315Y167323D02*
D03*
X280709Y187402D02*
D03*
X249606Y176772D02*
D03*
X300000Y337402D02*
D03*
X230709D02*
D03*
X166929Y337795D02*
D03*
X30315Y294094D02*
D03*
X19685Y66535D02*
D03*
X68898Y26378D02*
D03*
X165748Y17323D02*
D03*
X249213Y19685D02*
D03*
X337008Y18504D02*
D03*
X353150Y69685D02*
D03*
X398425Y30709D02*
D03*
X428346Y98032D02*
D03*
X382677Y154331D02*
D03*
X381496Y217717D02*
D03*
X413779Y247244D02*
D03*
X431496Y295669D02*
D03*
X383465Y284646D02*
D03*
X348425Y254724D02*
D03*
X357874Y327165D02*
D03*
X387795Y129921D02*
D03*
X396063Y105118D02*
D03*
X362992Y105512D02*
D03*
X130315Y312598D02*
D03*
X131102Y43307D02*
D03*
X7480Y121653D02*
D03*
X23622Y102756D02*
D03*
X29921Y124016D02*
D03*
X67323Y325197D02*
D03*
X37795Y322441D02*
D03*
X96850Y325984D02*
D03*
X66142Y257480D02*
D03*
X113779Y275197D02*
D03*
X112598Y114173D02*
D03*
X112992Y78740D02*
D03*
X86614Y208661D02*
D03*
X19685Y255906D02*
D03*
Y228346D02*
D03*
X114173Y244094D02*
D03*
X102362Y224410D02*
D03*
X122047Y177165D02*
D03*
X110236Y208661D02*
D03*
Y145669D02*
D03*
X212598Y299213D02*
D03*
X196850Y275590D02*
D03*
X173228Y303150D02*
D03*
X145669Y275590D02*
D03*
X177165Y255906D02*
D03*
X141732Y251969D02*
D03*
X157480Y236221D02*
D03*
X141732Y220472D02*
D03*
Y161417D02*
D03*
Y192913D02*
D03*
X307087Y275590D02*
D03*
X267717Y270866D02*
D03*
X283465Y259842D02*
D03*
X251969D02*
D03*
X220472Y251969D02*
D03*
X204724Y236221D02*
D03*
X196850Y220472D02*
D03*
X185039Y208661D02*
D03*
X299213Y70866D02*
D03*
X307087Y98425D02*
D03*
X267717D02*
D03*
X257087Y76772D02*
D03*
X232283Y90551D02*
D03*
X208661Y110236D02*
D03*
X196850Y133858D02*
D03*
X185039Y145669D02*
D03*
X169291Y62992D02*
D03*
X149606Y86614D02*
D03*
X212598Y59055D02*
D03*
X188976Y82677D02*
D03*
X165354Y102362D02*
D03*
X145669Y122047D02*
D03*
X311024Y216535D02*
D03*
X287402D02*
D03*
X255906D02*
D03*
X236221Y212598D02*
D03*
X224410Y200787D02*
D03*
X255906Y169291D02*
D03*
Y185039D02*
D03*
X307087D02*
D03*
Y169291D02*
D03*
X244094D02*
D03*
Y185039D02*
D03*
X311024Y137795D02*
D03*
X287402D02*
D03*
X255906D02*
D03*
X236221Y141732D02*
D03*
X224410Y153543D02*
D03*
X90551Y227972D02*
D03*
X28937Y92913D02*
D03*
X185138Y229528D02*
D03*
X90551Y126772D02*
D03*
X184941D02*
D03*
X353248Y177362D02*
D03*
D52*
X62205Y178740D02*
D03*
X71260Y168898D02*
D03*
X95276Y148819D02*
D03*
X82284Y136614D02*
D03*
M02*
