G04*
G04 #@! TF.GenerationSoftware,Altium Limited,Altium Designer,20.0.12 (288)*
G04*
G04 Layer_Color=65535*
%FSLAX25Y25*%
%MOIN*%
G70*
G01*
G75*
%ADD10C,0.00787*%
%ADD11C,0.03937*%
%ADD12C,0.00394*%
%ADD13C,0.01000*%
%ADD14C,0.00591*%
G36*
X340924Y69548D02*
X342678D01*
Y69256D01*
X344431D01*
Y68964D01*
X346185D01*
Y68671D01*
X347938D01*
Y68379D01*
X349692D01*
Y68087D01*
X347938D01*
Y67795D01*
X346185D01*
Y67502D01*
X344431D01*
Y67210D01*
X342678D01*
Y66918D01*
X340924D01*
Y66625D01*
X340339D01*
Y66918D01*
X338586D01*
Y67210D01*
X336832D01*
Y67502D01*
X335079D01*
Y67795D01*
X333325D01*
Y68087D01*
X331571D01*
Y68379D01*
X333325D01*
Y68671D01*
X335079D01*
Y68964D01*
X336832D01*
Y69256D01*
X338586D01*
Y69548D01*
X340339D01*
Y69841D01*
X340924D01*
Y69548D01*
D02*
G37*
G36*
X356999Y62826D02*
X356707D01*
Y62534D01*
X356414D01*
Y62241D01*
X356122D01*
Y61949D01*
X355830D01*
Y61657D01*
X355538D01*
Y61365D01*
Y61072D01*
X355245D01*
Y60780D01*
X354953D01*
Y60488D01*
X354661D01*
Y60195D01*
X354368D01*
Y59903D01*
X354076D01*
Y59611D01*
Y59319D01*
X353784D01*
Y59026D01*
X353492D01*
Y58734D01*
X353199D01*
Y58442D01*
X352907D01*
Y58150D01*
X352615D01*
Y57857D01*
Y57565D01*
X352323D01*
Y57273D01*
X352030D01*
Y56981D01*
X351738D01*
Y56688D01*
X351446D01*
Y56396D01*
X351153D01*
Y56104D01*
Y55811D01*
X350861D01*
Y55519D01*
X350569D01*
Y55227D01*
X350277D01*
Y54935D01*
Y54642D01*
Y54350D01*
X349984D01*
Y54058D01*
Y53765D01*
X349692D01*
Y53473D01*
Y53181D01*
Y52889D01*
X349400D01*
Y52596D01*
Y52304D01*
X349108D01*
Y52012D01*
Y51720D01*
Y51427D01*
X348815D01*
Y51135D01*
Y50843D01*
X348523D01*
Y50551D01*
Y50258D01*
Y49966D01*
X348231D01*
Y49674D01*
Y49382D01*
X347938D01*
Y49089D01*
Y48797D01*
Y48505D01*
X347646D01*
Y48212D01*
Y47920D01*
X347354D01*
Y47628D01*
Y47336D01*
Y47043D01*
X347062D01*
Y46751D01*
Y46459D01*
X346769D01*
Y46167D01*
Y45874D01*
Y45582D01*
X346477D01*
Y45290D01*
Y44997D01*
X346185D01*
Y44705D01*
Y44413D01*
Y44121D01*
X345893D01*
Y43828D01*
Y43536D01*
X345600D01*
Y43244D01*
Y42952D01*
Y42659D01*
X345308D01*
Y42952D01*
Y43244D01*
Y43536D01*
Y43828D01*
Y44121D01*
Y44413D01*
X345600D01*
Y44705D01*
Y44997D01*
Y45290D01*
Y45582D01*
Y45874D01*
Y46167D01*
X345893D01*
Y46459D01*
Y46751D01*
Y47043D01*
Y47336D01*
Y47628D01*
Y47920D01*
X346185D01*
Y48212D01*
Y48505D01*
Y48797D01*
Y49089D01*
Y49382D01*
X346477D01*
Y49674D01*
Y49966D01*
Y50258D01*
Y50551D01*
Y50843D01*
Y51135D01*
X346769D01*
Y51427D01*
Y51720D01*
Y52012D01*
Y52304D01*
Y52596D01*
Y52889D01*
X347062D01*
Y53181D01*
Y53473D01*
Y53765D01*
Y54058D01*
Y54350D01*
Y54642D01*
X347354D01*
Y54935D01*
Y55227D01*
Y55519D01*
Y55811D01*
Y56104D01*
Y56396D01*
X347646D01*
Y56688D01*
Y56981D01*
Y57273D01*
Y57565D01*
X348231D01*
Y57857D01*
X348523D01*
Y58150D01*
X349108D01*
Y58442D01*
X349400D01*
Y58734D01*
X349984D01*
Y59026D01*
X350277D01*
Y59319D01*
X350861D01*
Y59611D01*
X351446D01*
Y59903D01*
X351738D01*
Y60195D01*
X352323D01*
Y60488D01*
X352615D01*
Y60780D01*
X353199D01*
Y61072D01*
X353492D01*
Y61365D01*
X354076D01*
Y61657D01*
X354661D01*
Y61949D01*
X354953D01*
Y62241D01*
X355538D01*
Y62534D01*
X355830D01*
Y62826D01*
X356414D01*
Y63118D01*
X356999D01*
Y62826D01*
D02*
G37*
G36*
X324849D02*
X325434D01*
Y62534D01*
X325726D01*
Y62241D01*
X326310D01*
Y61949D01*
X326603D01*
Y61657D01*
X327187D01*
Y61365D01*
X327480D01*
Y61072D01*
X328064D01*
Y60780D01*
X328648D01*
Y60488D01*
X328941D01*
Y60195D01*
X329525D01*
Y59903D01*
X329818D01*
Y59611D01*
X330402D01*
Y59319D01*
X330694D01*
Y59026D01*
X331279D01*
Y58734D01*
X331863D01*
Y58442D01*
X332156D01*
Y58150D01*
X332740D01*
Y57857D01*
X333033D01*
Y57565D01*
X333617D01*
Y57273D01*
Y56981D01*
Y56688D01*
Y56396D01*
X333909D01*
Y56104D01*
Y55811D01*
Y55519D01*
Y55227D01*
Y54935D01*
Y54642D01*
X334202D01*
Y54350D01*
Y54058D01*
Y53765D01*
Y53473D01*
Y53181D01*
Y52889D01*
X334494D01*
Y52596D01*
Y52304D01*
Y52012D01*
Y51720D01*
Y51427D01*
Y51135D01*
X334786D01*
Y50843D01*
Y50551D01*
Y50258D01*
Y49966D01*
Y49674D01*
Y49382D01*
X335079D01*
Y49089D01*
Y48797D01*
Y48505D01*
Y48212D01*
Y47920D01*
Y47628D01*
X335371D01*
Y47336D01*
Y47043D01*
Y46751D01*
Y46459D01*
Y46167D01*
Y45874D01*
X335663D01*
Y45582D01*
Y45290D01*
Y44997D01*
Y44705D01*
Y44413D01*
Y44121D01*
X335955D01*
Y43828D01*
Y43536D01*
Y43244D01*
Y42952D01*
Y42659D01*
X335663D01*
Y42952D01*
Y43244D01*
X335371D01*
Y43536D01*
Y43828D01*
Y44121D01*
X335079D01*
Y44413D01*
Y44705D01*
X334786D01*
Y44997D01*
Y45290D01*
Y45582D01*
X334494D01*
Y45874D01*
Y46167D01*
X334202D01*
Y46459D01*
Y46751D01*
Y47043D01*
X333909D01*
Y47336D01*
Y47628D01*
X333617D01*
Y47920D01*
Y48212D01*
Y48505D01*
X333325D01*
Y48797D01*
Y49089D01*
X333033D01*
Y49382D01*
Y49674D01*
Y49966D01*
X332740D01*
Y50258D01*
Y50551D01*
X332448D01*
Y50843D01*
Y51135D01*
Y51427D01*
X332156D01*
Y51720D01*
Y52012D01*
X331863D01*
Y52304D01*
Y52596D01*
Y52889D01*
X331571D01*
Y53181D01*
Y53473D01*
X331279D01*
Y53765D01*
Y54058D01*
Y54350D01*
X330987D01*
Y54642D01*
Y54935D01*
X330694D01*
Y55227D01*
Y55519D01*
X330402D01*
Y55811D01*
X330110D01*
Y56104D01*
Y56396D01*
X329818D01*
Y56688D01*
X329525D01*
Y56981D01*
X329233D01*
Y57273D01*
X328941D01*
Y57565D01*
X328648D01*
Y57857D01*
Y58150D01*
X328356D01*
Y58442D01*
X328064D01*
Y58734D01*
X327772D01*
Y59026D01*
X327480D01*
Y59319D01*
X327187D01*
Y59611D01*
Y59903D01*
X326895D01*
Y60195D01*
X326603D01*
Y60488D01*
X326310D01*
Y60780D01*
X326018D01*
Y61072D01*
X325726D01*
Y61365D01*
Y61657D01*
X325434D01*
Y61949D01*
X325141D01*
Y62241D01*
X324849D01*
Y62534D01*
X324557D01*
Y62826D01*
X324265D01*
Y63118D01*
X324849D01*
Y62826D01*
D02*
G37*
G36*
X356122Y66333D02*
X355538D01*
Y66041D01*
X355245D01*
Y65749D01*
X354661D01*
Y65456D01*
X354368D01*
Y65164D01*
X353784D01*
Y64872D01*
X353492D01*
Y64580D01*
X352907D01*
Y64287D01*
X352615D01*
Y63995D01*
X352030D01*
Y63703D01*
X351738D01*
Y63411D01*
X351153D01*
Y63118D01*
X350569D01*
Y62826D01*
X350277D01*
Y62534D01*
X349692D01*
Y62241D01*
X349400D01*
Y61949D01*
X348815D01*
Y61657D01*
X348523D01*
Y61365D01*
X347938D01*
Y61072D01*
X347646D01*
Y60780D01*
X347062D01*
Y60488D01*
X346769D01*
Y60195D01*
X346185D01*
Y59903D01*
X345893D01*
Y59611D01*
X345308D01*
Y59319D01*
Y59026D01*
Y58734D01*
X345016D01*
Y58442D01*
Y58150D01*
Y57857D01*
Y57565D01*
Y57273D01*
Y56981D01*
X344724D01*
Y56688D01*
Y56396D01*
Y56104D01*
Y55811D01*
Y55519D01*
Y55227D01*
Y54935D01*
X344431D01*
Y54642D01*
Y54350D01*
Y54058D01*
Y53765D01*
Y53473D01*
Y53181D01*
X344139D01*
Y52889D01*
Y52596D01*
Y52304D01*
Y52012D01*
Y51720D01*
Y51427D01*
X343847D01*
Y51135D01*
Y50843D01*
Y50551D01*
Y50258D01*
Y49966D01*
Y49674D01*
Y49382D01*
X343554D01*
Y49089D01*
Y48797D01*
Y48505D01*
Y48212D01*
Y47920D01*
Y47628D01*
X343262D01*
Y47336D01*
Y47043D01*
Y46751D01*
Y46459D01*
Y46167D01*
Y45874D01*
Y45582D01*
X342970D01*
Y45290D01*
Y44997D01*
Y44705D01*
Y44413D01*
Y44121D01*
Y43828D01*
X342678D01*
Y43536D01*
Y43244D01*
Y42952D01*
Y42659D01*
Y42367D01*
Y42075D01*
X342385D01*
Y41782D01*
Y41490D01*
Y41198D01*
Y40906D01*
Y40613D01*
Y40321D01*
Y40029D01*
X342093D01*
Y39737D01*
Y39444D01*
Y39152D01*
Y38860D01*
Y38567D01*
Y38275D01*
X341801D01*
Y38567D01*
Y38860D01*
Y39152D01*
Y39444D01*
Y39737D01*
Y40029D01*
Y40321D01*
Y40613D01*
Y40906D01*
Y41198D01*
Y41490D01*
Y41782D01*
Y42075D01*
Y42367D01*
Y42659D01*
Y42952D01*
Y43244D01*
Y43536D01*
Y43828D01*
Y44121D01*
Y44413D01*
Y44705D01*
Y44997D01*
Y45290D01*
Y45582D01*
Y45874D01*
Y46167D01*
Y46459D01*
Y46751D01*
Y47043D01*
Y47336D01*
Y47628D01*
Y47920D01*
Y48212D01*
Y48505D01*
Y48797D01*
Y49089D01*
Y49382D01*
Y49674D01*
Y49966D01*
Y50258D01*
Y50551D01*
Y50843D01*
Y51135D01*
Y51427D01*
Y51720D01*
Y52012D01*
Y52304D01*
Y52596D01*
Y52889D01*
Y53181D01*
Y53473D01*
Y53765D01*
Y54058D01*
Y54350D01*
Y54642D01*
Y54935D01*
Y55227D01*
Y55519D01*
Y55811D01*
Y56104D01*
Y56396D01*
Y56688D01*
Y56981D01*
Y57273D01*
Y57565D01*
Y57857D01*
Y58150D01*
Y58442D01*
Y58734D01*
Y59026D01*
Y59319D01*
Y59611D01*
Y59903D01*
Y60195D01*
Y60488D01*
Y60780D01*
Y61072D01*
Y61365D01*
Y61657D01*
Y61949D01*
Y62241D01*
Y62534D01*
Y62826D01*
Y63118D01*
Y63411D01*
Y63703D01*
Y63995D01*
Y64287D01*
X342093D01*
Y64580D01*
X343847D01*
Y64872D01*
X345600D01*
Y65164D01*
X347354D01*
Y65456D01*
X349108D01*
Y65749D01*
X350861D01*
Y66041D01*
X352907D01*
Y66333D01*
X354661D01*
Y66625D01*
X356122D01*
Y66333D01*
D02*
G37*
G36*
X326603D02*
X328356D01*
Y66041D01*
X330110D01*
Y65749D01*
X332156D01*
Y65456D01*
X333909D01*
Y65164D01*
X335663D01*
Y64872D01*
X337417D01*
Y64580D01*
X339170D01*
Y64287D01*
X339463D01*
Y63995D01*
Y63703D01*
Y63411D01*
Y63118D01*
Y62826D01*
Y62534D01*
Y62241D01*
Y61949D01*
Y61657D01*
Y61365D01*
Y61072D01*
Y60780D01*
Y60488D01*
Y60195D01*
Y59903D01*
Y59611D01*
Y59319D01*
Y59026D01*
Y58734D01*
Y58442D01*
Y58150D01*
Y57857D01*
Y57565D01*
Y57273D01*
Y56981D01*
Y56688D01*
Y56396D01*
Y56104D01*
Y55811D01*
Y55519D01*
Y55227D01*
Y54935D01*
Y54642D01*
Y54350D01*
Y54058D01*
Y53765D01*
Y53473D01*
Y53181D01*
Y52889D01*
Y52596D01*
Y52304D01*
Y52012D01*
Y51720D01*
Y51427D01*
Y51135D01*
Y50843D01*
Y50551D01*
Y50258D01*
Y49966D01*
Y49674D01*
Y49382D01*
Y49089D01*
Y48797D01*
Y48505D01*
Y48212D01*
Y47920D01*
Y47628D01*
Y47336D01*
Y47043D01*
Y46751D01*
Y46459D01*
Y46167D01*
Y45874D01*
Y45582D01*
Y45290D01*
Y44997D01*
Y44705D01*
Y44413D01*
Y44121D01*
Y43828D01*
Y43536D01*
Y43244D01*
Y42952D01*
Y42659D01*
Y42367D01*
Y42075D01*
Y41782D01*
Y41490D01*
Y41198D01*
Y40906D01*
Y40613D01*
Y40321D01*
Y40029D01*
Y39737D01*
Y39444D01*
Y39152D01*
Y38860D01*
Y38567D01*
Y38275D01*
Y37983D01*
X339170D01*
Y38275D01*
Y38567D01*
Y38860D01*
Y39152D01*
Y39444D01*
Y39737D01*
Y40029D01*
X338878D01*
Y40321D01*
Y40613D01*
Y40906D01*
Y41198D01*
Y41490D01*
Y41782D01*
X338586D01*
Y42075D01*
Y42367D01*
Y42659D01*
Y42952D01*
Y43244D01*
Y43536D01*
Y43828D01*
X338294D01*
Y44121D01*
Y44413D01*
Y44705D01*
Y44997D01*
Y45290D01*
Y45582D01*
X338001D01*
Y45874D01*
Y46167D01*
Y46459D01*
Y46751D01*
Y47043D01*
Y47336D01*
X337709D01*
Y47628D01*
Y47920D01*
Y48212D01*
Y48505D01*
Y48797D01*
Y49089D01*
Y49382D01*
X337417D01*
Y49674D01*
Y49966D01*
Y50258D01*
Y50551D01*
Y50843D01*
Y51135D01*
X337124D01*
Y51427D01*
Y51720D01*
Y52012D01*
Y52304D01*
Y52596D01*
Y52889D01*
Y53181D01*
X336832D01*
Y53473D01*
Y53765D01*
Y54058D01*
Y54350D01*
Y54642D01*
Y54935D01*
X336540D01*
Y55227D01*
Y55519D01*
Y55811D01*
Y56104D01*
Y56396D01*
Y56688D01*
X336248D01*
Y56981D01*
Y57273D01*
Y57565D01*
Y57857D01*
Y58150D01*
Y58442D01*
Y58734D01*
X335955D01*
Y59026D01*
Y59319D01*
Y59611D01*
X335371D01*
Y59903D01*
X335079D01*
Y60195D01*
X334494D01*
Y60488D01*
X334202D01*
Y60780D01*
X333617D01*
Y61072D01*
X333325D01*
Y61365D01*
X332740D01*
Y61657D01*
X332448D01*
Y61949D01*
X331863D01*
Y62241D01*
X331279D01*
Y62534D01*
X330987D01*
Y62826D01*
X330402D01*
Y63118D01*
X330110D01*
Y63411D01*
X329525D01*
Y63703D01*
X329233D01*
Y63995D01*
X328648D01*
Y64287D01*
X328356D01*
Y64580D01*
X327772D01*
Y64872D01*
X327480D01*
Y65164D01*
X326895D01*
Y65456D01*
X326603D01*
Y65749D01*
X326018D01*
Y66041D01*
X325726D01*
Y66333D01*
X325141D01*
Y66625D01*
X326603D01*
Y66333D01*
D02*
G37*
G36*
X347144Y32895D02*
X347203D01*
X347341Y32881D01*
X347494Y32859D01*
X347655Y32823D01*
X347830Y32779D01*
X347997Y32721D01*
X348005D01*
X348019Y32713D01*
X348041Y32706D01*
X348070Y32691D01*
X348150Y32648D01*
X348253Y32597D01*
X348362Y32524D01*
X348479Y32436D01*
X348588Y32341D01*
X348690Y32225D01*
X348705Y32210D01*
X348734Y32166D01*
X348777Y32101D01*
X348836Y32006D01*
X348894Y31889D01*
X348960Y31744D01*
X349025Y31583D01*
X349076Y31401D01*
X348471Y31241D01*
Y31248D01*
X348464Y31255D01*
X348457Y31277D01*
X348449Y31306D01*
X348427Y31372D01*
X348398Y31459D01*
X348355Y31561D01*
X348304Y31656D01*
X348253Y31758D01*
X348187Y31846D01*
X348180Y31853D01*
X348158Y31882D01*
X348114Y31919D01*
X348063Y31970D01*
X347997Y32028D01*
X347910Y32086D01*
X347815Y32145D01*
X347706Y32196D01*
X347691Y32203D01*
X347655Y32217D01*
X347589Y32239D01*
X347502Y32269D01*
X347400Y32290D01*
X347283Y32312D01*
X347152Y32327D01*
X347013Y32334D01*
X346933D01*
X346897Y32327D01*
X346853D01*
X346743Y32320D01*
X346620Y32298D01*
X346481Y32276D01*
X346350Y32239D01*
X346219Y32188D01*
X346204Y32181D01*
X346160Y32166D01*
X346102Y32130D01*
X346029Y32094D01*
X345942Y32035D01*
X345847Y31977D01*
X345759Y31904D01*
X345679Y31824D01*
X345672Y31817D01*
X345643Y31787D01*
X345606Y31736D01*
X345563Y31678D01*
X345512Y31605D01*
X345460Y31518D01*
X345409Y31423D01*
X345358Y31321D01*
Y31313D01*
X345351Y31299D01*
X345344Y31277D01*
X345329Y31241D01*
X345315Y31197D01*
X345300Y31146D01*
X345278Y31087D01*
X345264Y31022D01*
X345227Y30869D01*
X345198Y30694D01*
X345176Y30512D01*
X345169Y30307D01*
Y30300D01*
Y30278D01*
Y30242D01*
X345176Y30198D01*
Y30140D01*
X345183Y30067D01*
X345191Y29994D01*
X345198Y29914D01*
X345227Y29732D01*
X345264Y29542D01*
X345322Y29353D01*
X345395Y29170D01*
Y29163D01*
X345409Y29148D01*
X345417Y29127D01*
X345439Y29097D01*
X345490Y29017D01*
X345570Y28915D01*
X345665Y28806D01*
X345781Y28696D01*
X345920Y28594D01*
X346073Y28500D01*
X346080D01*
X346095Y28492D01*
X346116Y28478D01*
X346153Y28463D01*
X346189Y28449D01*
X346240Y28434D01*
X346357Y28390D01*
X346503Y28354D01*
X346663Y28317D01*
X346838Y28288D01*
X347021Y28281D01*
X347093D01*
X347137Y28288D01*
X347181D01*
X347290Y28303D01*
X347421Y28317D01*
X347560Y28346D01*
X347713Y28390D01*
X347866Y28441D01*
X347873D01*
X347888Y28449D01*
X347903Y28456D01*
X347932Y28470D01*
X348012Y28507D01*
X348099Y28551D01*
X348201Y28602D01*
X348311Y28660D01*
X348413Y28726D01*
X348500Y28798D01*
Y29746D01*
X347013D01*
Y30344D01*
X349156D01*
Y28470D01*
X349149Y28463D01*
X349135Y28456D01*
X349105Y28434D01*
X349069Y28405D01*
X349025Y28376D01*
X348974Y28339D01*
X348909Y28295D01*
X348843Y28252D01*
X348690Y28157D01*
X348515Y28055D01*
X348333Y27960D01*
X348136Y27880D01*
X348129D01*
X348114Y27873D01*
X348085Y27865D01*
X348048Y27851D01*
X347997Y27836D01*
X347939Y27814D01*
X347873Y27800D01*
X347808Y27785D01*
X347647Y27749D01*
X347465Y27712D01*
X347268Y27690D01*
X347064Y27683D01*
X346991D01*
X346940Y27690D01*
X346875D01*
X346795Y27698D01*
X346707Y27712D01*
X346612Y27720D01*
X346401Y27763D01*
X346175Y27814D01*
X345942Y27894D01*
X345825Y27938D01*
X345708Y27997D01*
X345701Y28004D01*
X345679Y28011D01*
X345650Y28033D01*
X345606Y28055D01*
X345555Y28091D01*
X345504Y28128D01*
X345366Y28230D01*
X345220Y28361D01*
X345067Y28521D01*
X344921Y28704D01*
X344790Y28915D01*
Y28922D01*
X344775Y28944D01*
X344761Y28973D01*
X344739Y29024D01*
X344717Y29076D01*
X344695Y29148D01*
X344666Y29221D01*
X344637Y29309D01*
X344607Y29403D01*
X344578Y29513D01*
X344556Y29622D01*
X344535Y29739D01*
X344498Y29994D01*
X344484Y30264D01*
Y30271D01*
Y30300D01*
Y30337D01*
X344491Y30388D01*
Y30453D01*
X344498Y30533D01*
X344513Y30614D01*
X344520Y30708D01*
X344542Y30810D01*
X344556Y30920D01*
X344615Y31153D01*
X344688Y31394D01*
X344790Y31634D01*
X344797Y31642D01*
X344804Y31663D01*
X344819Y31693D01*
X344848Y31736D01*
X344877Y31795D01*
X344914Y31853D01*
X345016Y31991D01*
X345140Y32152D01*
X345293Y32305D01*
X345468Y32458D01*
X345570Y32524D01*
X345672Y32589D01*
X345679Y32597D01*
X345701Y32604D01*
X345730Y32618D01*
X345774Y32640D01*
X345832Y32662D01*
X345898Y32691D01*
X345971Y32721D01*
X346058Y32750D01*
X346153Y32779D01*
X346255Y32801D01*
X346364Y32830D01*
X346481Y32852D01*
X346736Y32888D01*
X346867Y32903D01*
X347101D01*
X347144Y32895D01*
D02*
G37*
G36*
X336873Y27771D02*
X336180D01*
X333541Y31729D01*
Y27771D01*
X332900D01*
Y32815D01*
X333585D01*
X336231Y28850D01*
Y32815D01*
X336873D01*
Y27771D01*
D02*
G37*
G36*
X340124D02*
X339424D01*
X337471Y32815D01*
X338200D01*
X339512Y29148D01*
Y29141D01*
X339519Y29127D01*
X339526Y29105D01*
X339541Y29076D01*
X339548Y29032D01*
X339563Y28988D01*
X339599Y28879D01*
X339643Y28755D01*
X339687Y28616D01*
X339774Y28325D01*
Y28332D01*
X339781Y28346D01*
X339789Y28368D01*
X339796Y28398D01*
X339818Y28478D01*
X339854Y28587D01*
X339891Y28711D01*
X339935Y28850D01*
X339986Y28995D01*
X340044Y29148D01*
X341414Y32815D01*
X342092D01*
X340124Y27771D01*
D02*
G37*
G36*
X350782Y28368D02*
X353268D01*
Y27771D01*
X350111D01*
Y32815D01*
X350782D01*
Y28368D01*
D02*
G37*
G36*
X329889Y32808D02*
X330035Y32801D01*
X330181Y32786D01*
X330326Y32764D01*
X330450Y32742D01*
X330458D01*
X330472Y32735D01*
X330494D01*
X330523Y32721D01*
X330603Y32699D01*
X330705Y32662D01*
X330822Y32611D01*
X330946Y32546D01*
X331070Y32473D01*
X331187Y32378D01*
X331194Y32371D01*
X331201Y32363D01*
X331223Y32341D01*
X331252Y32320D01*
X331325Y32247D01*
X331413Y32145D01*
X331507Y32021D01*
X331609Y31875D01*
X331704Y31707D01*
X331784Y31518D01*
Y31510D01*
X331792Y31496D01*
X331806Y31467D01*
X331814Y31423D01*
X331835Y31372D01*
X331850Y31313D01*
X331865Y31248D01*
X331886Y31168D01*
X331908Y31087D01*
X331923Y30993D01*
X331959Y30789D01*
X331981Y30563D01*
X331989Y30315D01*
Y30307D01*
Y30293D01*
Y30257D01*
Y30220D01*
X331981Y30169D01*
Y30111D01*
X331974Y29972D01*
X331952Y29812D01*
X331930Y29644D01*
X331894Y29469D01*
X331850Y29294D01*
Y29287D01*
X331843Y29272D01*
X331835Y29250D01*
X331828Y29221D01*
X331799Y29141D01*
X331755Y29039D01*
X331712Y28922D01*
X331653Y28806D01*
X331580Y28682D01*
X331507Y28565D01*
X331500Y28551D01*
X331471Y28514D01*
X331427Y28463D01*
X331369Y28398D01*
X331303Y28325D01*
X331223Y28252D01*
X331143Y28172D01*
X331048Y28106D01*
X331033Y28099D01*
X331004Y28077D01*
X330953Y28048D01*
X330880Y28011D01*
X330793Y27967D01*
X330691Y27931D01*
X330574Y27887D01*
X330443Y27851D01*
X330428D01*
X330407Y27843D01*
X330385Y27836D01*
X330312Y27829D01*
X330210Y27814D01*
X330093Y27800D01*
X329955Y27785D01*
X329802Y27778D01*
X329634Y27771D01*
X327819D01*
Y32815D01*
X329758D01*
X329889Y32808D01*
D02*
G37*
G36*
X341487Y25967D02*
X340868D01*
Y26674D01*
X341487D01*
Y25967D01*
D02*
G37*
G36*
X357620Y25362D02*
X357700Y25347D01*
X357795Y25318D01*
X357897Y25282D01*
X358014Y25231D01*
X358138Y25165D01*
X357912Y24597D01*
X357904Y24604D01*
X357875Y24618D01*
X357832Y24640D01*
X357773Y24662D01*
X357708Y24684D01*
X357627Y24706D01*
X357547Y24720D01*
X357467Y24728D01*
X357431D01*
X357394Y24720D01*
X357343Y24713D01*
X357292Y24699D01*
X357226Y24677D01*
X357161Y24647D01*
X357103Y24604D01*
X357095Y24597D01*
X357073Y24582D01*
X357051Y24553D01*
X357015Y24516D01*
X356979Y24465D01*
X356942Y24407D01*
X356906Y24341D01*
X356877Y24261D01*
X356869Y24247D01*
X356862Y24203D01*
X356847Y24137D01*
X356825Y24050D01*
X356804Y23940D01*
X356789Y23817D01*
X356782Y23685D01*
X356774Y23539D01*
Y21630D01*
X356155D01*
Y25289D01*
X356716D01*
Y24735D01*
X356723Y24742D01*
X356753Y24793D01*
X356789Y24859D01*
X356847Y24939D01*
X356906Y25019D01*
X356971Y25107D01*
X357037Y25180D01*
X357103Y25238D01*
X357110Y25245D01*
X357132Y25260D01*
X357175Y25282D01*
X357219Y25304D01*
X357277Y25326D01*
X357350Y25347D01*
X357423Y25362D01*
X357504Y25369D01*
X357555D01*
X357620Y25362D01*
D02*
G37*
G36*
X330100Y21630D02*
X329546D01*
Y22162D01*
X329539Y22154D01*
X329524Y22132D01*
X329503Y22103D01*
X329466Y22067D01*
X329422Y22023D01*
X329371Y21965D01*
X329313Y21914D01*
X329240Y21856D01*
X329160Y21797D01*
X329072Y21746D01*
X328978Y21695D01*
X328876Y21644D01*
X328759Y21608D01*
X328642Y21578D01*
X328511Y21557D01*
X328380Y21549D01*
X328329D01*
X328263Y21557D01*
X328183Y21564D01*
X328088Y21578D01*
X327986Y21600D01*
X327884Y21630D01*
X327775Y21673D01*
X327760Y21680D01*
X327731Y21695D01*
X327680Y21724D01*
X327622Y21761D01*
X327549Y21804D01*
X327483Y21856D01*
X327418Y21914D01*
X327359Y21979D01*
X327352Y21987D01*
X327338Y22016D01*
X327316Y22052D01*
X327287Y22111D01*
X327250Y22176D01*
X327221Y22256D01*
X327192Y22344D01*
X327170Y22439D01*
Y22446D01*
X327163Y22475D01*
X327155Y22519D01*
Y22577D01*
X327148Y22665D01*
X327141Y22759D01*
X327133Y22883D01*
Y23022D01*
Y25289D01*
X327753D01*
Y23255D01*
Y23248D01*
Y23233D01*
Y23211D01*
Y23175D01*
Y23095D01*
X327760Y22993D01*
Y22883D01*
X327768Y22774D01*
X327775Y22679D01*
X327789Y22599D01*
Y22592D01*
X327804Y22563D01*
X327819Y22519D01*
X327840Y22460D01*
X327877Y22402D01*
X327921Y22337D01*
X327972Y22278D01*
X328037Y22220D01*
X328045Y22213D01*
X328074Y22198D01*
X328110Y22176D01*
X328169Y22154D01*
X328234Y22125D01*
X328314Y22103D01*
X328402Y22089D01*
X328504Y22082D01*
X328555D01*
X328606Y22089D01*
X328672Y22096D01*
X328752Y22118D01*
X328839Y22140D01*
X328934Y22176D01*
X329029Y22220D01*
X329043Y22227D01*
X329072Y22249D01*
X329116Y22278D01*
X329167Y22322D01*
X329226Y22380D01*
X329284Y22446D01*
X329335Y22519D01*
X329379Y22606D01*
X329386Y22621D01*
X329393Y22650D01*
X329408Y22708D01*
X329430Y22789D01*
X329452Y22891D01*
X329466Y23015D01*
X329473Y23160D01*
X329481Y23328D01*
Y25289D01*
X330100D01*
Y21630D01*
D02*
G37*
G36*
X346977Y24866D02*
X346984Y24873D01*
X346999Y24888D01*
X347021Y24910D01*
X347057Y24946D01*
X347093Y24983D01*
X347144Y25027D01*
X347210Y25070D01*
X347276Y25121D01*
X347348Y25165D01*
X347429Y25209D01*
X347618Y25289D01*
X347720Y25326D01*
X347830Y25347D01*
X347946Y25362D01*
X348063Y25369D01*
X348129D01*
X348209Y25362D01*
X348304Y25347D01*
X348413Y25333D01*
X348530Y25304D01*
X348646Y25260D01*
X348763Y25209D01*
X348777Y25202D01*
X348814Y25180D01*
X348865Y25143D01*
X348931Y25092D01*
X348996Y25027D01*
X349069Y24954D01*
X349135Y24866D01*
X349193Y24764D01*
X349200Y24750D01*
X349215Y24713D01*
X349237Y24647D01*
X349258Y24553D01*
X349280Y24436D01*
X349302Y24298D01*
X349317Y24130D01*
X349324Y23940D01*
Y21630D01*
X348705D01*
Y23948D01*
Y23955D01*
Y23970D01*
Y23991D01*
Y24021D01*
X348697Y24101D01*
X348683Y24203D01*
X348653Y24312D01*
X348617Y24421D01*
X348566Y24531D01*
X348500Y24618D01*
X348493Y24626D01*
X348464Y24655D01*
X348420Y24691D01*
X348355Y24728D01*
X348274Y24771D01*
X348180Y24801D01*
X348063Y24830D01*
X347932Y24837D01*
X347888D01*
X347837Y24830D01*
X347764Y24823D01*
X347691Y24801D01*
X347604Y24779D01*
X347516Y24742D01*
X347421Y24691D01*
X347414Y24684D01*
X347385Y24662D01*
X347341Y24633D01*
X347290Y24589D01*
X347232Y24531D01*
X347174Y24465D01*
X347123Y24385D01*
X347079Y24298D01*
X347072Y24283D01*
X347064Y24254D01*
X347050Y24196D01*
X347028Y24123D01*
X347006Y24028D01*
X346991Y23911D01*
X346984Y23780D01*
X346977Y23627D01*
Y21630D01*
X346357D01*
Y26674D01*
X346977D01*
Y24866D01*
D02*
G37*
G36*
X341487Y21630D02*
X340868D01*
Y25289D01*
X341487D01*
Y21630D01*
D02*
G37*
G36*
X340080Y26076D02*
X337339D01*
Y24516D01*
X339709D01*
Y23919D01*
X337339D01*
Y21630D01*
X336669D01*
Y26674D01*
X340080D01*
Y26076D01*
D02*
G37*
G36*
X335597Y21630D02*
X334977D01*
Y26674D01*
X335597D01*
Y21630D01*
D02*
G37*
G36*
X326361Y26076D02*
X323620D01*
Y24516D01*
X325989D01*
Y23919D01*
X323620D01*
Y21630D01*
X322949D01*
Y26674D01*
X326361D01*
Y26076D01*
D02*
G37*
G36*
X351001Y25289D02*
X351628D01*
Y24808D01*
X351001D01*
Y22657D01*
Y22643D01*
Y22614D01*
Y22570D01*
X351008Y22519D01*
X351015Y22402D01*
X351023Y22351D01*
X351030Y22315D01*
X351037Y22300D01*
X351059Y22271D01*
X351088Y22234D01*
X351139Y22198D01*
X351154Y22191D01*
X351190Y22176D01*
X351256Y22162D01*
X351351Y22154D01*
X351424D01*
X351460Y22162D01*
X351511D01*
X351569Y22169D01*
X351628Y22176D01*
X351708Y21630D01*
X351693D01*
X351664Y21622D01*
X351613Y21615D01*
X351548Y21608D01*
X351475Y21593D01*
X351395Y21586D01*
X351234Y21578D01*
X351176D01*
X351117Y21586D01*
X351045Y21593D01*
X350957Y21600D01*
X350870Y21622D01*
X350789Y21644D01*
X350709Y21680D01*
X350702Y21688D01*
X350680Y21702D01*
X350651Y21724D01*
X350607Y21761D01*
X350571Y21797D01*
X350527Y21848D01*
X350483Y21899D01*
X350454Y21965D01*
Y21972D01*
X350440Y22001D01*
X350432Y22052D01*
X350418Y22125D01*
X350403Y22220D01*
X350396Y22278D01*
Y22344D01*
X350389Y22424D01*
X350381Y22504D01*
Y22592D01*
Y22694D01*
Y24808D01*
X349922D01*
Y25289D01*
X350381D01*
Y26193D01*
X351001Y26565D01*
Y25289D01*
D02*
G37*
G36*
X353858Y25362D02*
X353917Y25355D01*
X353990Y25340D01*
X354070Y25326D01*
X354165Y25304D01*
X354252Y25282D01*
X354354Y25245D01*
X354449Y25209D01*
X354551Y25158D01*
X354653Y25100D01*
X354755Y25034D01*
X354850Y24954D01*
X354937Y24866D01*
X354945Y24859D01*
X354959Y24844D01*
X354981Y24815D01*
X355010Y24771D01*
X355047Y24720D01*
X355083Y24662D01*
X355127Y24589D01*
X355171Y24502D01*
X355214Y24407D01*
X355258Y24305D01*
X355295Y24188D01*
X355331Y24064D01*
X355360Y23926D01*
X355382Y23780D01*
X355397Y23627D01*
X355404Y23459D01*
Y23452D01*
Y23423D01*
Y23372D01*
X355397Y23299D01*
X352663D01*
Y23292D01*
Y23270D01*
X352670Y23241D01*
Y23197D01*
X352677Y23146D01*
X352692Y23088D01*
X352714Y22956D01*
X352758Y22810D01*
X352816Y22650D01*
X352896Y22504D01*
X352998Y22373D01*
X353006D01*
X353013Y22358D01*
X353057Y22322D01*
X353122Y22271D01*
X353210Y22220D01*
X353326Y22162D01*
X353457Y22111D01*
X353603Y22074D01*
X353683Y22067D01*
X353771Y22060D01*
X353829D01*
X353895Y22067D01*
X353975Y22082D01*
X354063Y22103D01*
X354165Y22132D01*
X354259Y22176D01*
X354354Y22234D01*
X354362Y22242D01*
X354398Y22271D01*
X354442Y22315D01*
X354493Y22373D01*
X354551Y22453D01*
X354617Y22555D01*
X354682Y22672D01*
X354741Y22810D01*
X355382Y22730D01*
Y22723D01*
X355375Y22708D01*
X355367Y22679D01*
X355353Y22636D01*
X355331Y22592D01*
X355309Y22533D01*
X355251Y22410D01*
X355178Y22271D01*
X355076Y22125D01*
X354959Y21987D01*
X354814Y21856D01*
X354806D01*
X354792Y21841D01*
X354770Y21826D01*
X354741Y21804D01*
X354697Y21783D01*
X354653Y21761D01*
X354595Y21732D01*
X354529Y21702D01*
X354456Y21673D01*
X354383Y21644D01*
X354201Y21600D01*
X353997Y21564D01*
X353771Y21549D01*
X353691D01*
X353640Y21557D01*
X353574Y21564D01*
X353494Y21578D01*
X353407Y21593D01*
X353312Y21608D01*
X353108Y21666D01*
X352998Y21710D01*
X352896Y21753D01*
X352787Y21812D01*
X352685Y21877D01*
X352590Y21950D01*
X352495Y22038D01*
X352488Y22045D01*
X352473Y22060D01*
X352451Y22089D01*
X352422Y22132D01*
X352386Y22184D01*
X352349Y22242D01*
X352306Y22315D01*
X352262Y22395D01*
X352218Y22490D01*
X352174Y22592D01*
X352138Y22708D01*
X352102Y22832D01*
X352072Y22964D01*
X352051Y23109D01*
X352036Y23262D01*
X352029Y23423D01*
Y23430D01*
Y23467D01*
Y23510D01*
X352036Y23576D01*
X352043Y23656D01*
X352051Y23744D01*
X352065Y23846D01*
X352087Y23948D01*
X352145Y24181D01*
X352182Y24298D01*
X352225Y24421D01*
X352284Y24538D01*
X352349Y24647D01*
X352422Y24757D01*
X352503Y24859D01*
X352510Y24866D01*
X352524Y24881D01*
X352554Y24903D01*
X352590Y24939D01*
X352634Y24976D01*
X352692Y25019D01*
X352758Y25070D01*
X352838Y25114D01*
X352918Y25165D01*
X353013Y25209D01*
X353115Y25253D01*
X353224Y25289D01*
X353341Y25326D01*
X353465Y25347D01*
X353596Y25362D01*
X353735Y25369D01*
X353807D01*
X353858Y25362D01*
D02*
G37*
G36*
X332688D02*
X332747Y25355D01*
X332820Y25340D01*
X332900Y25326D01*
X332995Y25304D01*
X333082Y25282D01*
X333184Y25245D01*
X333279Y25209D01*
X333381Y25158D01*
X333483Y25100D01*
X333585Y25034D01*
X333680Y24954D01*
X333767Y24866D01*
X333774Y24859D01*
X333789Y24844D01*
X333811Y24815D01*
X333840Y24771D01*
X333877Y24720D01*
X333913Y24662D01*
X333957Y24589D01*
X334000Y24502D01*
X334044Y24407D01*
X334088Y24305D01*
X334124Y24188D01*
X334161Y24064D01*
X334190Y23926D01*
X334212Y23780D01*
X334226Y23627D01*
X334234Y23459D01*
Y23452D01*
Y23423D01*
Y23372D01*
X334226Y23299D01*
X331493D01*
Y23292D01*
Y23270D01*
X331500Y23241D01*
Y23197D01*
X331507Y23146D01*
X331522Y23088D01*
X331544Y22956D01*
X331588Y22810D01*
X331646Y22650D01*
X331726Y22504D01*
X331828Y22373D01*
X331835D01*
X331843Y22358D01*
X331886Y22322D01*
X331952Y22271D01*
X332039Y22220D01*
X332156Y22162D01*
X332287Y22111D01*
X332433Y22074D01*
X332513Y22067D01*
X332601Y22060D01*
X332659D01*
X332725Y22067D01*
X332805Y22082D01*
X332892Y22103D01*
X332995Y22132D01*
X333089Y22176D01*
X333184Y22234D01*
X333191Y22242D01*
X333228Y22271D01*
X333272Y22315D01*
X333323Y22373D01*
X333381Y22453D01*
X333447Y22555D01*
X333512Y22672D01*
X333570Y22810D01*
X334212Y22730D01*
Y22723D01*
X334205Y22708D01*
X334197Y22679D01*
X334183Y22636D01*
X334161Y22592D01*
X334139Y22533D01*
X334081Y22410D01*
X334008Y22271D01*
X333906Y22125D01*
X333789Y21987D01*
X333643Y21856D01*
X333636D01*
X333622Y21841D01*
X333600Y21826D01*
X333570Y21804D01*
X333527Y21783D01*
X333483Y21761D01*
X333425Y21732D01*
X333359Y21702D01*
X333286Y21673D01*
X333213Y21644D01*
X333031Y21600D01*
X332827Y21564D01*
X332601Y21549D01*
X332521D01*
X332470Y21557D01*
X332404Y21564D01*
X332324Y21578D01*
X332236Y21593D01*
X332142Y21608D01*
X331938Y21666D01*
X331828Y21710D01*
X331726Y21753D01*
X331617Y21812D01*
X331515Y21877D01*
X331420Y21950D01*
X331325Y22038D01*
X331318Y22045D01*
X331303Y22060D01*
X331281Y22089D01*
X331252Y22132D01*
X331216Y22184D01*
X331179Y22242D01*
X331136Y22315D01*
X331092Y22395D01*
X331048Y22490D01*
X331004Y22592D01*
X330968Y22708D01*
X330931Y22832D01*
X330902Y22964D01*
X330880Y23109D01*
X330866Y23262D01*
X330859Y23423D01*
Y23430D01*
Y23467D01*
Y23510D01*
X330866Y23576D01*
X330873Y23656D01*
X330880Y23744D01*
X330895Y23846D01*
X330917Y23948D01*
X330975Y24181D01*
X331012Y24298D01*
X331055Y24421D01*
X331114Y24538D01*
X331179Y24647D01*
X331252Y24757D01*
X331332Y24859D01*
X331340Y24866D01*
X331354Y24881D01*
X331383Y24903D01*
X331420Y24939D01*
X331464Y24976D01*
X331522Y25019D01*
X331588Y25070D01*
X331668Y25114D01*
X331748Y25165D01*
X331843Y25209D01*
X331945Y25253D01*
X332054Y25289D01*
X332171Y25326D01*
X332295Y25347D01*
X332426Y25362D01*
X332564Y25369D01*
X332637D01*
X332688Y25362D01*
D02*
G37*
G36*
X343886D02*
X343937Y25355D01*
X344002Y25340D01*
X344075Y25326D01*
X344156Y25304D01*
X344236Y25275D01*
X344323Y25238D01*
X344411Y25194D01*
X344505Y25143D01*
X344593Y25085D01*
X344680Y25012D01*
X344768Y24932D01*
X344848Y24837D01*
Y25289D01*
X345417D01*
Y22125D01*
Y22118D01*
Y22089D01*
Y22045D01*
Y21987D01*
X345409Y21921D01*
Y21841D01*
X345402Y21753D01*
X345395Y21659D01*
X345373Y21462D01*
X345344Y21258D01*
X345322Y21163D01*
X345300Y21075D01*
X345271Y20995D01*
X345242Y20922D01*
Y20915D01*
X345234Y20908D01*
X345205Y20864D01*
X345169Y20798D01*
X345111Y20718D01*
X345030Y20631D01*
X344935Y20536D01*
X344819Y20441D01*
X344688Y20361D01*
X344680D01*
X344673Y20354D01*
X344651Y20339D01*
X344622Y20332D01*
X344586Y20310D01*
X344542Y20295D01*
X344432Y20259D01*
X344301Y20215D01*
X344141Y20186D01*
X343959Y20157D01*
X343762Y20150D01*
X343696D01*
X343653Y20157D01*
X343594D01*
X343536Y20164D01*
X343463Y20172D01*
X343383Y20186D01*
X343215Y20222D01*
X343040Y20274D01*
X342865Y20346D01*
X342705Y20448D01*
X342698Y20456D01*
X342690Y20463D01*
X342639Y20507D01*
X342581Y20572D01*
X342508Y20667D01*
X342435Y20791D01*
X342370Y20944D01*
X342348Y21032D01*
X342333Y21126D01*
X342318Y21221D01*
Y21331D01*
X342923Y21250D01*
Y21236D01*
X342931Y21207D01*
X342945Y21156D01*
X342960Y21090D01*
X342989Y21024D01*
X343026Y20959D01*
X343069Y20893D01*
X343128Y20842D01*
X343142Y20835D01*
X343171Y20813D01*
X343222Y20784D01*
X343295Y20755D01*
X343383Y20718D01*
X343492Y20689D01*
X343623Y20667D01*
X343762Y20660D01*
X343835D01*
X343908Y20667D01*
X344010Y20682D01*
X344112Y20704D01*
X344221Y20733D01*
X344331Y20777D01*
X344425Y20835D01*
X344432Y20842D01*
X344462Y20864D01*
X344505Y20908D01*
X344556Y20959D01*
X344607Y21032D01*
X344658Y21112D01*
X344709Y21207D01*
X344746Y21316D01*
Y21323D01*
X344753Y21352D01*
X344761Y21411D01*
X344768Y21484D01*
X344775Y21535D01*
Y21593D01*
X344782Y21659D01*
Y21732D01*
Y21812D01*
X344790Y21906D01*
Y22001D01*
Y22111D01*
X344782Y22103D01*
X344768Y22089D01*
X344746Y22067D01*
X344717Y22038D01*
X344680Y22001D01*
X344629Y21958D01*
X344571Y21914D01*
X344513Y21870D01*
X344360Y21783D01*
X344192Y21702D01*
X344097Y21673D01*
X343995Y21651D01*
X343886Y21637D01*
X343776Y21630D01*
X343740D01*
X343704Y21637D01*
X343653D01*
X343587Y21644D01*
X343514Y21659D01*
X343434Y21673D01*
X343346Y21695D01*
X343251Y21724D01*
X343157Y21761D01*
X343062Y21804D01*
X342960Y21856D01*
X342865Y21921D01*
X342770Y21994D01*
X342683Y22074D01*
X342603Y22169D01*
X342595Y22176D01*
X342588Y22191D01*
X342566Y22227D01*
X342537Y22264D01*
X342508Y22322D01*
X342472Y22380D01*
X342435Y22453D01*
X342399Y22541D01*
X342362Y22628D01*
X342326Y22730D01*
X342289Y22832D01*
X342260Y22949D01*
X342209Y23197D01*
X342202Y23335D01*
X342195Y23474D01*
Y23481D01*
Y23496D01*
Y23525D01*
Y23561D01*
X342202Y23612D01*
Y23663D01*
X342216Y23795D01*
X342238Y23940D01*
X342275Y24101D01*
X342318Y24269D01*
X342384Y24436D01*
Y24443D01*
X342391Y24458D01*
X342406Y24480D01*
X342421Y24509D01*
X342464Y24589D01*
X342523Y24691D01*
X342603Y24801D01*
X342698Y24910D01*
X342807Y25027D01*
X342931Y25121D01*
X342938D01*
X342945Y25129D01*
X342967Y25143D01*
X342996Y25158D01*
X343069Y25202D01*
X343171Y25245D01*
X343295Y25289D01*
X343441Y25333D01*
X343601Y25362D01*
X343776Y25369D01*
X343842D01*
X343886Y25362D01*
D02*
G37*
%LPC*%
G36*
X329656Y32217D02*
X328489D01*
Y28368D01*
X329685D01*
X329736Y28376D01*
X329845Y28383D01*
X329969Y28390D01*
X330100Y28405D01*
X330232Y28427D01*
X330341Y28456D01*
X330356Y28463D01*
X330392Y28470D01*
X330443Y28492D01*
X330509Y28521D01*
X330581Y28565D01*
X330654Y28609D01*
X330727Y28660D01*
X330800Y28718D01*
X330807Y28733D01*
X330837Y28762D01*
X330880Y28813D01*
X330931Y28886D01*
X330990Y28981D01*
X331055Y29090D01*
X331114Y29214D01*
X331165Y29353D01*
Y29360D01*
X331172Y29374D01*
X331179Y29396D01*
X331187Y29425D01*
X331194Y29462D01*
X331208Y29513D01*
X331223Y29564D01*
X331238Y29622D01*
X331259Y29768D01*
X331281Y29936D01*
X331296Y30125D01*
X331303Y30329D01*
Y30337D01*
Y30366D01*
Y30402D01*
X331296Y30461D01*
Y30526D01*
X331289Y30599D01*
X331281Y30687D01*
X331274Y30774D01*
X331238Y30971D01*
X331194Y31175D01*
X331128Y31365D01*
X331084Y31459D01*
X331041Y31539D01*
Y31547D01*
X331026Y31561D01*
X331012Y31583D01*
X330997Y31612D01*
X330939Y31685D01*
X330866Y31773D01*
X330771Y31868D01*
X330662Y31962D01*
X330538Y32043D01*
X330407Y32108D01*
X330392Y32115D01*
X330356Y32123D01*
X330290Y32145D01*
X330195Y32166D01*
X330079Y32181D01*
X329933Y32203D01*
X329845Y32210D01*
X329750D01*
X329656Y32217D01*
D02*
G37*
G36*
X353742Y24859D02*
X353698D01*
X353669Y24852D01*
X353589Y24844D01*
X353494Y24823D01*
X353377Y24786D01*
X353253Y24735D01*
X353137Y24662D01*
X353020Y24567D01*
X353006Y24553D01*
X352976Y24516D01*
X352925Y24451D01*
X352874Y24363D01*
X352816Y24261D01*
X352765Y24130D01*
X352721Y23977D01*
X352699Y23809D01*
X354748D01*
Y23817D01*
Y23831D01*
X354741Y23853D01*
Y23882D01*
X354726Y23970D01*
X354704Y24064D01*
X354668Y24181D01*
X354631Y24290D01*
X354573Y24400D01*
X354507Y24495D01*
Y24502D01*
X354493Y24509D01*
X354456Y24553D01*
X354391Y24611D01*
X354303Y24677D01*
X354194Y24742D01*
X354063Y24801D01*
X353909Y24844D01*
X353829Y24852D01*
X353742Y24859D01*
D02*
G37*
G36*
X332572D02*
X332528D01*
X332499Y24852D01*
X332419Y24844D01*
X332324Y24823D01*
X332207Y24786D01*
X332083Y24735D01*
X331967Y24662D01*
X331850Y24567D01*
X331835Y24553D01*
X331806Y24516D01*
X331755Y24451D01*
X331704Y24363D01*
X331646Y24261D01*
X331595Y24130D01*
X331551Y23977D01*
X331529Y23809D01*
X333578D01*
Y23817D01*
Y23831D01*
X333570Y23853D01*
Y23882D01*
X333556Y23970D01*
X333534Y24064D01*
X333498Y24181D01*
X333461Y24290D01*
X333403Y24400D01*
X333337Y24495D01*
Y24502D01*
X333323Y24509D01*
X333286Y24553D01*
X333221Y24611D01*
X333133Y24677D01*
X333024Y24742D01*
X332892Y24801D01*
X332739Y24844D01*
X332659Y24852D01*
X332572Y24859D01*
D02*
G37*
G36*
X343900D02*
X343784D01*
X343755Y24852D01*
X343674Y24844D01*
X343580Y24815D01*
X343463Y24779D01*
X343346Y24713D01*
X343230Y24633D01*
X343171Y24575D01*
X343113Y24516D01*
Y24509D01*
X343098Y24502D01*
X343084Y24480D01*
X343069Y24451D01*
X343047Y24421D01*
X343026Y24378D01*
X342996Y24327D01*
X342974Y24269D01*
X342945Y24203D01*
X342916Y24123D01*
X342894Y24043D01*
X342873Y23955D01*
X342858Y23853D01*
X342843Y23751D01*
X342829Y23641D01*
Y23518D01*
Y23510D01*
Y23488D01*
Y23452D01*
X342836Y23401D01*
Y23343D01*
X342843Y23270D01*
X342865Y23117D01*
X342902Y22942D01*
X342945Y22774D01*
X343018Y22606D01*
X343062Y22533D01*
X343113Y22468D01*
X343128Y22453D01*
X343164Y22417D01*
X343222Y22366D01*
X343310Y22308D01*
X343412Y22242D01*
X343536Y22191D01*
X343674Y22154D01*
X343747Y22147D01*
X343828Y22140D01*
X343871D01*
X343900Y22147D01*
X343981Y22154D01*
X344083Y22184D01*
X344192Y22220D01*
X344316Y22278D01*
X344432Y22358D01*
X344491Y22410D01*
X344549Y22468D01*
Y22475D01*
X344564Y22482D01*
X344578Y22504D01*
X344593Y22533D01*
X344615Y22563D01*
X344644Y22606D01*
X344666Y22657D01*
X344695Y22723D01*
X344724Y22789D01*
X344746Y22862D01*
X344775Y22949D01*
X344797Y23044D01*
X344812Y23138D01*
X344826Y23248D01*
X344841Y23372D01*
Y23496D01*
Y23503D01*
Y23525D01*
Y23561D01*
X344833Y23605D01*
Y23663D01*
X344826Y23729D01*
X344804Y23875D01*
X344768Y24043D01*
X344717Y24210D01*
X344644Y24378D01*
X344593Y24451D01*
X344542Y24516D01*
Y24524D01*
X344527Y24531D01*
X344491Y24567D01*
X344425Y24626D01*
X344338Y24691D01*
X344236Y24750D01*
X344112Y24808D01*
X343973Y24844D01*
X343900Y24859D01*
D02*
G37*
%LPD*%
D10*
X135596Y208669D02*
G03*
X136846Y208669I625J0D01*
G01*
X154488D01*
Y146075D02*
Y208669D01*
X117953D02*
X135596D01*
X117953Y146075D02*
Y208669D01*
Y146075D02*
X154488D01*
D11*
X122835Y204134D02*
D03*
D12*
X40354Y129134D02*
Y217323D01*
D13*
X282776Y102594D02*
Y110594D01*
X278776Y106595D02*
X286776D01*
X262776Y50610D02*
Y100610D01*
Y50610D02*
X277776Y35610D01*
X287776D01*
X302776Y50610D01*
Y100610D01*
X262776D02*
X302776D01*
X278839Y317752D02*
Y325752D01*
X274839Y321752D02*
X282839D01*
X258839Y265768D02*
Y315768D01*
Y265768D02*
X273839Y250768D01*
X283839D01*
X298839Y265768D01*
Y315768D01*
X258839D02*
X298839D01*
X393701Y224150D02*
Y232150D01*
X389701Y228150D02*
X397701D01*
X373701Y172165D02*
Y222165D01*
Y172165D02*
X388701Y157165D01*
X398701D01*
X413701Y172165D01*
Y222165D01*
X373701D02*
X413701D01*
X48165Y328740D02*
X56165D01*
X52165Y324740D02*
Y332740D01*
X58150Y308740D02*
X108150D01*
X123150Y323740D01*
Y333740D01*
X108150Y348740D02*
X123150Y333740D01*
X58150Y348740D02*
X108150D01*
X58150Y308740D02*
Y348740D01*
X14615Y100689D02*
X45177D01*
X14615D02*
Y125886D01*
X51378Y106890D02*
Y119587D01*
X45177Y100689D02*
X51378Y106890D01*
X14615Y125886D02*
X45079D01*
X51378Y119587D01*
X263878Y214567D02*
X307087D01*
X263878Y139764D02*
Y214567D01*
Y139764D02*
X340551D01*
X351083Y150295D01*
Y204035D01*
X340551Y214567D02*
X351083Y204035D01*
X307087Y214567D02*
X340551D01*
X22736Y248327D02*
X63681D01*
X22736D02*
Y288878D01*
X63681Y248327D02*
X77224Y261870D01*
Y275335D01*
X22736Y288878D02*
X62697D01*
X63681D02*
X77224Y275335D01*
X62697Y288878D02*
X63681D01*
X321014Y82148D02*
X320015Y83148D01*
X318015D01*
X317016Y82148D01*
Y81148D01*
X318015Y80149D01*
X320015D01*
X321014Y79149D01*
Y78149D01*
X320015Y77150D01*
X318015D01*
X317016Y78149D01*
X327012Y83148D02*
X323014D01*
Y77150D01*
X327012D01*
X323014Y80149D02*
X325013D01*
X329012Y77150D02*
Y83148D01*
X331011Y81148D01*
X333011Y83148D01*
Y77150D01*
X345007D02*
X341008D01*
X345007Y81148D01*
Y82148D01*
X344007Y83148D01*
X342008D01*
X341008Y82148D01*
X347006D02*
X348006Y83148D01*
X350005D01*
X351005Y82148D01*
Y78149D01*
X350005Y77150D01*
X348006D01*
X347006Y78149D01*
Y82148D01*
X357003Y77150D02*
X353004D01*
X357003Y81148D01*
Y82148D01*
X356003Y83148D01*
X354004D01*
X353004Y82148D01*
X359002D02*
X360002Y83148D01*
X362001D01*
X363001Y82148D01*
Y78149D01*
X362001Y77150D01*
X360002D01*
X359002Y78149D01*
Y82148D01*
X46358Y211280D02*
X52356D01*
Y208281D01*
X51357Y207281D01*
X49357D01*
X48358Y208281D01*
Y211280D01*
X52356Y201283D02*
Y205282D01*
X49357D01*
X50357Y203282D01*
Y202283D01*
X49357Y201283D01*
X47358D01*
X46358Y202283D01*
Y204282D01*
X47358Y205282D01*
X124803Y218597D02*
Y213598D01*
X125803Y212598D01*
X127802D01*
X128802Y213598D01*
Y218597D01*
X130801Y212598D02*
X132801D01*
X131801D01*
Y218597D01*
X130801Y217597D01*
X82284Y188976D02*
Y194974D01*
X85282D01*
X86282Y193975D01*
Y191975D01*
X85282Y190976D01*
X82284D01*
X84283D02*
X86282Y188976D01*
X88282Y193975D02*
X89281Y194974D01*
X91281D01*
X92280Y193975D01*
Y192975D01*
X91281Y191975D01*
X90281D01*
X91281D01*
X92280Y190976D01*
Y189976D01*
X91281Y188976D01*
X89281D01*
X88282Y189976D01*
X64567Y190551D02*
Y196549D01*
X67566D01*
X68566Y195550D01*
Y193550D01*
X67566Y192551D01*
X64567D01*
X66566D02*
X68566Y190551D01*
X74564D02*
X70565D01*
X74564Y194550D01*
Y195550D01*
X73564Y196549D01*
X71565D01*
X70565Y195550D01*
X373228Y127953D02*
Y133951D01*
X376227D01*
X377227Y132951D01*
Y130952D01*
X376227Y129952D01*
X373228D01*
X375228D02*
X377227Y127953D01*
X379226D02*
X381226D01*
X380226D01*
Y133951D01*
X379226Y132951D01*
X299311Y32382D02*
Y38380D01*
X302310D01*
X303310Y37380D01*
Y35381D01*
X302310Y34381D01*
X299311D01*
X308308Y32382D02*
Y38380D01*
X305309Y35381D01*
X309308D01*
X248031Y318898D02*
Y324896D01*
X251030D01*
X252030Y323896D01*
Y321897D01*
X251030Y320897D01*
X248031D01*
X254030Y323896D02*
X255029Y324896D01*
X257029D01*
X258028Y323896D01*
Y322896D01*
X257029Y321897D01*
X256029D01*
X257029D01*
X258028Y320897D01*
Y319897D01*
X257029Y318898D01*
X255029D01*
X254030Y319897D01*
X374161Y235649D02*
Y241647D01*
X377160D01*
X378160Y240647D01*
Y238648D01*
X377160Y237648D01*
X374161D01*
X384158Y235649D02*
X380159D01*
X384158Y239648D01*
Y240647D01*
X383158Y241647D01*
X381159D01*
X380159Y240647D01*
X106299Y297244D02*
Y303242D01*
X109298D01*
X110298Y302242D01*
Y300243D01*
X109298Y299243D01*
X106299D01*
X112297Y297244D02*
X114297D01*
X113297D01*
Y303242D01*
X112297Y302242D01*
X168735Y125088D02*
X167622Y125088D01*
X166508Y123975D01*
X166508Y122862D01*
X168735Y120635D01*
X169848D01*
X170961Y121748D01*
Y122862D01*
X174857Y125645D02*
X172631Y123418D01*
Y127871D01*
X172074Y128428D01*
X170961Y128428D01*
X169848Y127314D01*
X169848Y126201D01*
X173187Y129541D02*
X173187Y130654D01*
X174301Y131767D01*
X175414Y131767D01*
X177640Y129541D01*
Y128428D01*
X176527Y127314D01*
X175414D01*
X173187Y129541D01*
X92975Y160117D02*
X91975Y161116D01*
X89976D01*
X88976Y160117D01*
Y156118D01*
X89976Y155118D01*
X91975D01*
X92975Y156118D01*
X94974Y155118D02*
X96974D01*
X95974D01*
Y161116D01*
X94974Y160117D01*
X99973Y156118D02*
X100972Y155118D01*
X102972D01*
X103972Y156118D01*
Y160117D01*
X102972Y161116D01*
X100972D01*
X99973Y160117D01*
Y159117D01*
X100972Y158117D01*
X103972D01*
X43762Y94664D02*
X42763Y95663D01*
X40764D01*
X39764Y94664D01*
Y90665D01*
X40764Y89665D01*
X42763D01*
X43762Y90665D01*
X45762Y89665D02*
X47761D01*
X46762D01*
Y95663D01*
X45762Y94664D01*
X50760D02*
X51760Y95663D01*
X53759D01*
X54759Y94664D01*
Y93664D01*
X53759Y92664D01*
X54759Y91665D01*
Y90665D01*
X53759Y89665D01*
X51760D01*
X50760Y90665D01*
Y91665D01*
X51760Y92664D01*
X50760Y93664D01*
Y94664D01*
X51760Y92664D02*
X53759D01*
X70534Y145943D02*
X69534Y146943D01*
X67535D01*
X66535Y145943D01*
Y141945D01*
X67535Y140945D01*
X69534D01*
X70534Y141945D01*
X72534Y140945D02*
X74533D01*
X73533D01*
Y146943D01*
X72534Y145943D01*
X77532Y146943D02*
X81531D01*
Y145943D01*
X77532Y141945D01*
Y140945D01*
X211810Y139762D02*
X211023Y140550D01*
X209449D01*
X208661Y139762D01*
Y136614D01*
X209449Y135827D01*
X211023D01*
X211810Y136614D01*
X213384Y135827D02*
X214959D01*
X214172D01*
Y140550D01*
X213384Y139762D01*
X220469Y140550D02*
X218894Y139762D01*
X217320Y138188D01*
Y136614D01*
X218107Y135827D01*
X219682D01*
X220469Y136614D01*
Y137401D01*
X219682Y138188D01*
X217320D01*
X156924Y129025D02*
X155810Y129025D01*
X154697Y127912D01*
X154697Y126799D01*
X156924Y124572D01*
X158037D01*
X159150Y125686D01*
Y126799D01*
X160820Y127355D02*
X161933Y128469D01*
X161377Y127912D01*
X158037Y131252D01*
X158037Y130138D01*
X162490Y135704D02*
X160263Y133478D01*
X161933Y131808D01*
X162490Y133478D01*
X163046Y134035D01*
X164160D01*
X165273Y132921D01*
Y131808D01*
X164160Y130695D01*
X163046D01*
X215747Y172833D02*
X214960Y173620D01*
X213386D01*
X212598Y172833D01*
Y169685D01*
X213386Y168898D01*
X214960D01*
X215747Y169685D01*
X217321Y168898D02*
X218896D01*
X218109D01*
Y173620D01*
X217321Y172833D01*
X223619Y168898D02*
Y173620D01*
X221257Y171259D01*
X224406D01*
X70928Y161691D02*
X69928Y162691D01*
X67929D01*
X66929Y161691D01*
Y157693D01*
X67929Y156693D01*
X69928D01*
X70928Y157693D01*
X72927Y156693D02*
X74927D01*
X73927D01*
Y162691D01*
X72927Y161691D01*
X77926D02*
X78925Y162691D01*
X80925D01*
X81924Y161691D01*
Y160692D01*
X80925Y159692D01*
X79925D01*
X80925D01*
X81924Y158692D01*
Y157693D01*
X80925Y156693D01*
X78925D01*
X77926Y157693D01*
X126046Y132951D02*
X125046Y133951D01*
X123047D01*
X122047Y132951D01*
Y128952D01*
X123047Y127953D01*
X125046D01*
X126046Y128952D01*
X128045Y127953D02*
X130045D01*
X129045D01*
Y133951D01*
X128045Y132951D01*
X137042Y127953D02*
X133044D01*
X137042Y131951D01*
Y132951D01*
X136043Y133951D01*
X134043D01*
X133044Y132951D01*
X216141Y186219D02*
X215354Y187006D01*
X213779D01*
X212992Y186219D01*
Y183071D01*
X213779Y182283D01*
X215354D01*
X216141Y183071D01*
X217715Y182283D02*
X219289D01*
X218502D01*
Y187006D01*
X217715Y186219D01*
X221651Y182283D02*
X223225D01*
X222438D01*
Y187006D01*
X221651Y186219D01*
X98487Y240038D02*
X97487Y241037D01*
X95488D01*
X94488Y240038D01*
Y236039D01*
X95488Y235039D01*
X97487D01*
X98487Y236039D01*
X100486Y235039D02*
X102486D01*
X101486D01*
Y241037D01*
X100486Y240038D01*
X105485D02*
X106484Y241037D01*
X108484D01*
X109483Y240038D01*
Y236039D01*
X108484Y235039D01*
X106484D01*
X105485Y236039D01*
Y240038D01*
X213778Y220471D02*
X212991Y221258D01*
X211417D01*
X210630Y220471D01*
Y217323D01*
X211417Y216535D01*
X212991D01*
X213778Y217323D01*
X215353D02*
X216140Y216535D01*
X217714D01*
X218501Y217323D01*
Y220471D01*
X217714Y221258D01*
X216140D01*
X215353Y220471D01*
Y219684D01*
X216140Y218897D01*
X218501D01*
X162490Y226935D02*
X162490Y228048D01*
X161377Y229161D01*
X160263Y229161D01*
X158037Y226935D01*
Y225821D01*
X159150Y224708D01*
X160263D01*
X163603Y225821D02*
X164716Y225821D01*
X165829Y224708D01*
X165829Y223595D01*
X165273Y223038D01*
X164160D01*
Y221925D01*
X163603Y221369D01*
X162490D01*
X161377Y222482D01*
Y223595D01*
X161933Y224152D01*
X163046D01*
Y225265D01*
X163603Y225821D01*
X163046Y224152D02*
X164160Y223038D01*
X172332Y234809D02*
X172332Y235922D01*
X171219Y237035D01*
X170106Y237035D01*
X167879Y234809D01*
Y233695D01*
X168993Y232582D01*
X170106D01*
X174002Y234252D02*
X176228Y232026D01*
X175672Y231469D01*
X171219D01*
X170662Y230912D01*
X99274Y202636D02*
X98275Y203636D01*
X96275D01*
X95276Y202636D01*
Y198637D01*
X96275Y197638D01*
X98275D01*
X99274Y198637D01*
X105272Y203636D02*
X103273Y202636D01*
X101274Y200637D01*
Y198637D01*
X102273Y197638D01*
X104273D01*
X105272Y198637D01*
Y199637D01*
X104273Y200637D01*
X101274D01*
X405180Y116416D02*
X404180Y117415D01*
X402181D01*
X401181Y116416D01*
Y112417D01*
X402181Y111417D01*
X404180D01*
X405180Y112417D01*
X411178Y117415D02*
X407179D01*
Y114416D01*
X409178Y115416D01*
X410178D01*
X411178Y114416D01*
Y112417D01*
X410178Y111417D01*
X408179D01*
X407179Y112417D01*
X349668Y111298D02*
X348668Y112297D01*
X346669D01*
X345669Y111298D01*
Y107299D01*
X346669Y106299D01*
X348668D01*
X349668Y107299D01*
X354666Y106299D02*
Y112297D01*
X351667Y109298D01*
X355666D01*
X76833Y233738D02*
X75834Y234738D01*
X73834D01*
X72835Y233738D01*
Y229740D01*
X73834Y228740D01*
X75834D01*
X76833Y229740D01*
X78833Y233738D02*
X79832Y234738D01*
X81832D01*
X82831Y233738D01*
Y232739D01*
X81832Y231739D01*
X80832D01*
X81832D01*
X82831Y230739D01*
Y229740D01*
X81832Y228740D01*
X79832D01*
X78833Y229740D01*
X274865Y225471D02*
X273865Y226470D01*
X271866D01*
X270866Y225471D01*
Y221472D01*
X271866Y220472D01*
X273865D01*
X274865Y221472D01*
X280863Y220472D02*
X276864D01*
X280863Y224471D01*
Y225471D01*
X279863Y226470D01*
X277864D01*
X276864Y225471D01*
X35003Y242302D02*
X34003Y243301D01*
X32004D01*
X31004Y242302D01*
Y238303D01*
X32004Y237303D01*
X34003D01*
X35003Y238303D01*
X37002Y237303D02*
X39001D01*
X38002D01*
Y243301D01*
X37002Y242302D01*
D14*
X84055Y36809D02*
X85892D01*
X84974D01*
Y34054D01*
X86810Y36809D02*
Y34054D01*
X88188D01*
X88647Y34513D01*
Y34972D01*
X88188Y35432D01*
X86810D01*
X88188D01*
X88647Y35891D01*
Y36350D01*
X88188Y36809D01*
X86810D01*
X92320Y34054D02*
Y36809D01*
X93239Y35891D01*
X94157Y36809D01*
Y34054D01*
X95534D02*
X96453D01*
X96912Y34513D01*
Y35432D01*
X96453Y35891D01*
X95534D01*
X95075Y35432D01*
Y34513D01*
X95534Y34054D01*
X98289Y36350D02*
Y35891D01*
X97830D01*
X98749D01*
X98289D01*
Y34513D01*
X98749Y34054D01*
X100585D02*
X101504D01*
X101963Y34513D01*
Y35432D01*
X101504Y35891D01*
X100585D01*
X100126Y35432D01*
Y34513D01*
X100585Y34054D01*
X102881Y35891D02*
Y34054D01*
Y34972D01*
X103340Y35432D01*
X103799Y35891D01*
X104259D01*
X108391Y36809D02*
Y34054D01*
X109769D01*
X110228Y34513D01*
Y36350D01*
X109769Y36809D01*
X108391D01*
X111146Y35891D02*
Y34054D01*
Y34972D01*
X111605Y35432D01*
X112065Y35891D01*
X112524D01*
X113901Y34054D02*
X114820D01*
X114360D01*
Y35891D01*
X113901D01*
X116197D02*
X117115Y34054D01*
X118034Y35891D01*
X120329Y34054D02*
X119411D01*
X118952Y34513D01*
Y35432D01*
X119411Y35891D01*
X120329D01*
X120789Y35432D01*
Y34972D01*
X118952D01*
X121707Y35891D02*
Y34054D01*
Y34972D01*
X122166Y35432D01*
X122625Y35891D01*
X123085D01*
X84055Y31167D02*
X84974Y29331D01*
X85892Y31167D01*
X86810Y29331D02*
X87729D01*
X87269D01*
Y32086D01*
X86810Y31626D01*
X89106Y29331D02*
Y29790D01*
X89565D01*
Y29331D01*
X89106D01*
X91402Y31626D02*
X91861Y32086D01*
X92779D01*
X93239Y31626D01*
Y29790D01*
X92779Y29331D01*
X91861D01*
X91402Y29790D01*
Y31626D01*
M02*
