%TF.GenerationSoftware,Altium Limited,Altium Designer,19.1.8 (144)*%
G04 Layer_Color=65535*
%FSLAX26Y26*%
%MOIN*%
%TF.FileFunction,Legend,Top*%
%TF.Part,Single*%
G01*
G75*
%TA.AperFunction,NonConductor*%
%ADD41C,0.007874*%
%TA.AperFunction,OtherPad,Free Pad (1228.347mil,2041.338mil)*%
%ADD42C,0.039370*%
%TA.AperFunction,NonConductor*%
%ADD43C,0.010000*%
%ADD44C,0.005906*%
G36*
X3759239Y695482D02*
X3776776D01*
Y692559D01*
X3794312D01*
Y689636D01*
X3811848D01*
Y686714D01*
X3829385D01*
Y683791D01*
X3846921D01*
Y680868D01*
X3829385D01*
Y677946D01*
X3811848D01*
Y675023D01*
X3794312D01*
Y672100D01*
X3776776D01*
Y669178D01*
X3759239D01*
Y666255D01*
X3753394D01*
Y669178D01*
X3735858D01*
Y672100D01*
X3718321D01*
Y675023D01*
X3700785D01*
Y677946D01*
X3683249D01*
Y680868D01*
X3665713D01*
Y683791D01*
X3683249D01*
Y686714D01*
X3700785D01*
Y689636D01*
X3718321D01*
Y692559D01*
X3735858D01*
Y695482D01*
X3753394D01*
Y698405D01*
X3759239D01*
Y695482D01*
D02*
G37*
G36*
X3919989Y628260D02*
X3917066D01*
Y625337D01*
X3914143D01*
Y622414D01*
X3911221D01*
Y619491D01*
X3908298D01*
Y616569D01*
X3905375D01*
Y613646D01*
Y610723D01*
X3902452D01*
Y607801D01*
X3899530D01*
Y604878D01*
X3896607D01*
Y601955D01*
X3893684D01*
Y599032D01*
X3890762D01*
Y596110D01*
Y593187D01*
X3887839D01*
Y590264D01*
X3884916D01*
Y587341D01*
X3881994D01*
Y584419D01*
X3879071D01*
Y581496D01*
X3876148D01*
Y578573D01*
Y575651D01*
X3873225D01*
Y572728D01*
X3870303D01*
Y569805D01*
X3867380D01*
Y566883D01*
X3864457D01*
Y563960D01*
X3861535D01*
Y561037D01*
Y558114D01*
X3858612D01*
Y555192D01*
X3855689D01*
Y552269D01*
X3852766D01*
Y549346D01*
Y546423D01*
Y543501D01*
X3849844D01*
Y540578D01*
Y537655D01*
X3846921D01*
Y534733D01*
Y531810D01*
Y528887D01*
X3843998D01*
Y525964D01*
Y523042D01*
X3841075D01*
Y520119D01*
Y517196D01*
Y514274D01*
X3838153D01*
Y511351D01*
Y508428D01*
X3835230D01*
Y505505D01*
Y502583D01*
Y499660D01*
X3832307D01*
Y496737D01*
Y493815D01*
X3829385D01*
Y490892D01*
Y487969D01*
Y485046D01*
X3826462D01*
Y482124D01*
Y479201D01*
X3823539D01*
Y476278D01*
Y473356D01*
Y470433D01*
X3820617D01*
Y467510D01*
Y464587D01*
X3817694D01*
Y461665D01*
Y458742D01*
Y455819D01*
X3814771D01*
Y452897D01*
Y449974D01*
X3811848D01*
Y447051D01*
Y444128D01*
Y441206D01*
X3808926D01*
Y438283D01*
Y435360D01*
X3806003D01*
Y432438D01*
Y429515D01*
Y426592D01*
X3803080D01*
Y429515D01*
Y432438D01*
Y435360D01*
Y438283D01*
Y441206D01*
Y444128D01*
X3806003D01*
Y447051D01*
Y449974D01*
Y452897D01*
Y455819D01*
Y458742D01*
Y461665D01*
X3808926D01*
Y464587D01*
Y467510D01*
Y470433D01*
Y473356D01*
Y476278D01*
Y479201D01*
X3811848D01*
Y482124D01*
Y485046D01*
Y487969D01*
Y490892D01*
Y493815D01*
X3814771D01*
Y496737D01*
Y499660D01*
Y502583D01*
Y505505D01*
Y508428D01*
Y511351D01*
X3817694D01*
Y514274D01*
Y517196D01*
Y520119D01*
Y523042D01*
Y525964D01*
Y528887D01*
X3820617D01*
Y531810D01*
Y534733D01*
Y537655D01*
Y540578D01*
Y543501D01*
Y546423D01*
X3823539D01*
Y549346D01*
Y552269D01*
Y555192D01*
Y558114D01*
Y561037D01*
Y563960D01*
X3826462D01*
Y566883D01*
Y569805D01*
Y572728D01*
Y575651D01*
X3832307D01*
Y578573D01*
X3835230D01*
Y581496D01*
X3841075D01*
Y584419D01*
X3843998D01*
Y587341D01*
X3849844D01*
Y590264D01*
X3852766D01*
Y593187D01*
X3858612D01*
Y596110D01*
X3864457D01*
Y599032D01*
X3867380D01*
Y601955D01*
X3873225D01*
Y604878D01*
X3876148D01*
Y607801D01*
X3881994D01*
Y610723D01*
X3884916D01*
Y613646D01*
X3890762D01*
Y616569D01*
X3896607D01*
Y619491D01*
X3899530D01*
Y622414D01*
X3905375D01*
Y625337D01*
X3908298D01*
Y628260D01*
X3914143D01*
Y631182D01*
X3919989D01*
Y628260D01*
D02*
G37*
G36*
X3598490D02*
X3604336D01*
Y625337D01*
X3607258D01*
Y622414D01*
X3613104D01*
Y619491D01*
X3616026D01*
Y616569D01*
X3621872D01*
Y613646D01*
X3624795D01*
Y610723D01*
X3630640D01*
Y607801D01*
X3636485D01*
Y604878D01*
X3639408D01*
Y601955D01*
X3645254D01*
Y599032D01*
X3648176D01*
Y596110D01*
X3654022D01*
Y593187D01*
X3656944D01*
Y590264D01*
X3662790D01*
Y587341D01*
X3668635D01*
Y584419D01*
X3671558D01*
Y581496D01*
X3677403D01*
Y578573D01*
X3680326D01*
Y575651D01*
X3686172D01*
Y572728D01*
Y569805D01*
Y566883D01*
Y563960D01*
X3689094D01*
Y561037D01*
Y558114D01*
Y555192D01*
Y552269D01*
Y549346D01*
Y546423D01*
X3692017D01*
Y543501D01*
Y540578D01*
Y537655D01*
Y534733D01*
Y531810D01*
Y528887D01*
X3694940D01*
Y525964D01*
Y523042D01*
Y520119D01*
Y517196D01*
Y514274D01*
Y511351D01*
X3697862D01*
Y508428D01*
Y505505D01*
Y502583D01*
Y499660D01*
Y496737D01*
Y493815D01*
X3700785D01*
Y490892D01*
Y487969D01*
Y485046D01*
Y482124D01*
Y479201D01*
Y476278D01*
X3703708D01*
Y473356D01*
Y470433D01*
Y467510D01*
Y464587D01*
Y461665D01*
Y458742D01*
X3706631D01*
Y455819D01*
Y452897D01*
Y449974D01*
Y447051D01*
Y444128D01*
Y441206D01*
X3709553D01*
Y438283D01*
Y435360D01*
Y432438D01*
Y429515D01*
Y426592D01*
X3706631D01*
Y429515D01*
Y432438D01*
X3703708D01*
Y435360D01*
Y438283D01*
Y441206D01*
X3700785D01*
Y444128D01*
Y447051D01*
X3697862D01*
Y449974D01*
Y452897D01*
Y455819D01*
X3694940D01*
Y458742D01*
Y461665D01*
X3692017D01*
Y464587D01*
Y467510D01*
Y470433D01*
X3689094D01*
Y473356D01*
Y476278D01*
X3686172D01*
Y479201D01*
Y482124D01*
Y485046D01*
X3683249D01*
Y487969D01*
Y490892D01*
X3680326D01*
Y493815D01*
Y496737D01*
Y499660D01*
X3677403D01*
Y502583D01*
Y505505D01*
X3674481D01*
Y508428D01*
Y511351D01*
Y514274D01*
X3671558D01*
Y517196D01*
Y520119D01*
X3668635D01*
Y523042D01*
Y525964D01*
Y528887D01*
X3665713D01*
Y531810D01*
Y534733D01*
X3662790D01*
Y537655D01*
Y540578D01*
Y543501D01*
X3659867D01*
Y546423D01*
Y549346D01*
X3656944D01*
Y552269D01*
Y555192D01*
X3654022D01*
Y558114D01*
X3651099D01*
Y561037D01*
Y563960D01*
X3648176D01*
Y566883D01*
X3645254D01*
Y569805D01*
X3642331D01*
Y572728D01*
X3639408D01*
Y575651D01*
X3636485D01*
Y578573D01*
Y581496D01*
X3633563D01*
Y584419D01*
X3630640D01*
Y587341D01*
X3627717D01*
Y590264D01*
X3624795D01*
Y593187D01*
X3621872D01*
Y596110D01*
Y599032D01*
X3618949D01*
Y601955D01*
X3616026D01*
Y604878D01*
X3613104D01*
Y607801D01*
X3610181D01*
Y610723D01*
X3607258D01*
Y613646D01*
Y616569D01*
X3604336D01*
Y619491D01*
X3601413D01*
Y622414D01*
X3598490D01*
Y625337D01*
X3595567D01*
Y628260D01*
X3592645D01*
Y631182D01*
X3598490D01*
Y628260D01*
D02*
G37*
G36*
X3911221Y663332D02*
X3905375D01*
Y660409D01*
X3902452D01*
Y657487D01*
X3896607D01*
Y654564D01*
X3893684D01*
Y651641D01*
X3887839D01*
Y648718D01*
X3884916D01*
Y645796D01*
X3879071D01*
Y642873D01*
X3876148D01*
Y639950D01*
X3870303D01*
Y637028D01*
X3867380D01*
Y634105D01*
X3861535D01*
Y631182D01*
X3855689D01*
Y628260D01*
X3852766D01*
Y625337D01*
X3846921D01*
Y622414D01*
X3843998D01*
Y619491D01*
X3838153D01*
Y616569D01*
X3835230D01*
Y613646D01*
X3829385D01*
Y610723D01*
X3826462D01*
Y607801D01*
X3820617D01*
Y604878D01*
X3817694D01*
Y601955D01*
X3811848D01*
Y599032D01*
X3808926D01*
Y596110D01*
X3803080D01*
Y593187D01*
Y590264D01*
Y587341D01*
X3800157D01*
Y584419D01*
Y581496D01*
Y578573D01*
Y575651D01*
Y572728D01*
Y569805D01*
X3797235D01*
Y566883D01*
Y563960D01*
Y561037D01*
Y558114D01*
Y555192D01*
Y552269D01*
Y549346D01*
X3794312D01*
Y546423D01*
Y543501D01*
Y540578D01*
Y537655D01*
Y534733D01*
Y531810D01*
X3791389D01*
Y528887D01*
Y525964D01*
Y523042D01*
Y520119D01*
Y517196D01*
Y514274D01*
X3788467D01*
Y511351D01*
Y508428D01*
Y505505D01*
Y502583D01*
Y499660D01*
Y496737D01*
Y493815D01*
X3785544D01*
Y490892D01*
Y487969D01*
Y485046D01*
Y482124D01*
Y479201D01*
Y476278D01*
X3782621D01*
Y473356D01*
Y470433D01*
Y467510D01*
Y464587D01*
Y461665D01*
Y458742D01*
Y455819D01*
X3779698D01*
Y452897D01*
Y449974D01*
Y447051D01*
Y444128D01*
Y441206D01*
Y438283D01*
X3776776D01*
Y435360D01*
Y432438D01*
Y429515D01*
Y426592D01*
Y423669D01*
Y420747D01*
X3773853D01*
Y417824D01*
Y414901D01*
Y411979D01*
Y409056D01*
Y406133D01*
Y403211D01*
Y400288D01*
X3770930D01*
Y397365D01*
Y394442D01*
Y391520D01*
Y388597D01*
Y385674D01*
Y382751D01*
X3768008D01*
Y385674D01*
Y388597D01*
Y391520D01*
Y394442D01*
Y397365D01*
Y400288D01*
Y403211D01*
Y406133D01*
Y409056D01*
Y411979D01*
Y414901D01*
Y417824D01*
Y420747D01*
Y423669D01*
Y426592D01*
Y429515D01*
Y432438D01*
Y435360D01*
Y438283D01*
Y441206D01*
Y444128D01*
Y447051D01*
Y449974D01*
Y452897D01*
Y455819D01*
Y458742D01*
Y461665D01*
Y464587D01*
Y467510D01*
Y470433D01*
Y473356D01*
Y476278D01*
Y479201D01*
Y482124D01*
Y485046D01*
Y487969D01*
Y490892D01*
Y493815D01*
Y496737D01*
Y499660D01*
Y502583D01*
Y505505D01*
Y508428D01*
Y511351D01*
Y514274D01*
Y517196D01*
Y520119D01*
Y523042D01*
Y525964D01*
Y528887D01*
Y531810D01*
Y534733D01*
Y537655D01*
Y540578D01*
Y543501D01*
Y546423D01*
Y549346D01*
Y552269D01*
Y555192D01*
Y558114D01*
Y561037D01*
Y563960D01*
Y566883D01*
Y569805D01*
Y572728D01*
Y575651D01*
Y578573D01*
Y581496D01*
Y584419D01*
Y587341D01*
Y590264D01*
Y593187D01*
Y596110D01*
Y599032D01*
Y601955D01*
Y604878D01*
Y607801D01*
Y610723D01*
Y613646D01*
Y616569D01*
Y619491D01*
Y622414D01*
Y625337D01*
Y628260D01*
Y631182D01*
Y634105D01*
Y637028D01*
Y639950D01*
Y642873D01*
X3770930D01*
Y645796D01*
X3788467D01*
Y648718D01*
X3806003D01*
Y651641D01*
X3823539D01*
Y654564D01*
X3841075D01*
Y657487D01*
X3858612D01*
Y660409D01*
X3879071D01*
Y663332D01*
X3896607D01*
Y666255D01*
X3911221D01*
Y663332D01*
D02*
G37*
G36*
X3616026D02*
X3633563D01*
Y660409D01*
X3651099D01*
Y657487D01*
X3671558D01*
Y654564D01*
X3689094D01*
Y651641D01*
X3706631D01*
Y648718D01*
X3724167D01*
Y645796D01*
X3741703D01*
Y642873D01*
X3744626D01*
Y639950D01*
Y637028D01*
Y634105D01*
Y631182D01*
Y628260D01*
Y625337D01*
Y622414D01*
Y619491D01*
Y616569D01*
Y613646D01*
Y610723D01*
Y607801D01*
Y604878D01*
Y601955D01*
Y599032D01*
Y596110D01*
Y593187D01*
Y590264D01*
Y587341D01*
Y584419D01*
Y581496D01*
Y578573D01*
Y575651D01*
Y572728D01*
Y569805D01*
Y566883D01*
Y563960D01*
Y561037D01*
Y558114D01*
Y555192D01*
Y552269D01*
Y549346D01*
Y546423D01*
Y543501D01*
Y540578D01*
Y537655D01*
Y534733D01*
Y531810D01*
Y528887D01*
Y525964D01*
Y523042D01*
Y520119D01*
Y517196D01*
Y514274D01*
Y511351D01*
Y508428D01*
Y505505D01*
Y502583D01*
Y499660D01*
Y496737D01*
Y493815D01*
Y490892D01*
Y487969D01*
Y485046D01*
Y482124D01*
Y479201D01*
Y476278D01*
Y473356D01*
Y470433D01*
Y467510D01*
Y464587D01*
Y461665D01*
Y458742D01*
Y455819D01*
Y452897D01*
Y449974D01*
Y447051D01*
Y444128D01*
Y441206D01*
Y438283D01*
Y435360D01*
Y432438D01*
Y429515D01*
Y426592D01*
Y423669D01*
Y420747D01*
Y417824D01*
Y414901D01*
Y411979D01*
Y409056D01*
Y406133D01*
Y403211D01*
Y400288D01*
Y397365D01*
Y394442D01*
Y391520D01*
Y388597D01*
Y385674D01*
Y382751D01*
Y379829D01*
X3741703D01*
Y382751D01*
Y385674D01*
Y388597D01*
Y391520D01*
Y394442D01*
Y397365D01*
Y400288D01*
X3738780D01*
Y403211D01*
Y406133D01*
Y409056D01*
Y411979D01*
Y414901D01*
Y417824D01*
X3735858D01*
Y420747D01*
Y423669D01*
Y426592D01*
Y429515D01*
Y432438D01*
Y435360D01*
Y438283D01*
X3732935D01*
Y441206D01*
Y444128D01*
Y447051D01*
Y449974D01*
Y452897D01*
Y455819D01*
X3730012D01*
Y458742D01*
Y461665D01*
Y464587D01*
Y467510D01*
Y470433D01*
Y473356D01*
X3727090D01*
Y476278D01*
Y479201D01*
Y482124D01*
Y485046D01*
Y487969D01*
Y490892D01*
Y493815D01*
X3724167D01*
Y496737D01*
Y499660D01*
Y502583D01*
Y505505D01*
Y508428D01*
Y511351D01*
X3721244D01*
Y514274D01*
Y517196D01*
Y520119D01*
Y523042D01*
Y525964D01*
Y528887D01*
Y531810D01*
X3718321D01*
Y534733D01*
Y537655D01*
Y540578D01*
Y543501D01*
Y546423D01*
Y549346D01*
X3715399D01*
Y552269D01*
Y555192D01*
Y558114D01*
Y561037D01*
Y563960D01*
Y566883D01*
X3712476D01*
Y569805D01*
Y572728D01*
Y575651D01*
Y578573D01*
Y581496D01*
Y584419D01*
Y587341D01*
X3709553D01*
Y590264D01*
Y593187D01*
Y596110D01*
X3703708D01*
Y599032D01*
X3700785D01*
Y601955D01*
X3694940D01*
Y604878D01*
X3692017D01*
Y607801D01*
X3686172D01*
Y610723D01*
X3683249D01*
Y613646D01*
X3677403D01*
Y616569D01*
X3674481D01*
Y619491D01*
X3668635D01*
Y622414D01*
X3662790D01*
Y625337D01*
X3659867D01*
Y628260D01*
X3654022D01*
Y631182D01*
X3651099D01*
Y634105D01*
X3645254D01*
Y637028D01*
X3642331D01*
Y639950D01*
X3636485D01*
Y642873D01*
X3633563D01*
Y645796D01*
X3627717D01*
Y648718D01*
X3624795D01*
Y651641D01*
X3618949D01*
Y654564D01*
X3616026D01*
Y657487D01*
X3610181D01*
Y660409D01*
X3607258D01*
Y663332D01*
X3601413D01*
Y666255D01*
X3616026D01*
Y663332D01*
D02*
G37*
G36*
X3821444Y328954D02*
X3822027D01*
X3823412Y328809D01*
X3824943Y328590D01*
X3826547Y328226D01*
X3828297Y327788D01*
X3829973Y327205D01*
X3830046D01*
X3830192Y327132D01*
X3830411Y327059D01*
X3830702Y326913D01*
X3831504Y326476D01*
X3832525Y325966D01*
X3833618Y325237D01*
X3834785Y324362D01*
X3835878Y323414D01*
X3836899Y322248D01*
X3837045Y322102D01*
X3837336Y321664D01*
X3837774Y321008D01*
X3838357Y320061D01*
X3838940Y318894D01*
X3839596Y317436D01*
X3840252Y315832D01*
X3840763Y314010D01*
X3834712Y312406D01*
Y312479D01*
X3834639Y312552D01*
X3834566Y312771D01*
X3834493Y313062D01*
X3834274Y313718D01*
X3833983Y314593D01*
X3833546Y315614D01*
X3833035Y316562D01*
X3832525Y317582D01*
X3831869Y318457D01*
X3831796Y318530D01*
X3831577Y318821D01*
X3831140Y319186D01*
X3830630Y319696D01*
X3829973Y320279D01*
X3829099Y320863D01*
X3828151Y321446D01*
X3827057Y321956D01*
X3826912Y322029D01*
X3826547Y322175D01*
X3825891Y322394D01*
X3825016Y322685D01*
X3823996Y322904D01*
X3822829Y323123D01*
X3821517Y323268D01*
X3820132Y323341D01*
X3819330D01*
X3818965Y323268D01*
X3818528D01*
X3817435Y323195D01*
X3816195Y322977D01*
X3814810Y322758D01*
X3813498Y322394D01*
X3812186Y321883D01*
X3812040Y321810D01*
X3811603Y321664D01*
X3811019Y321300D01*
X3810290Y320935D01*
X3809416Y320352D01*
X3808468Y319769D01*
X3807593Y319040D01*
X3806791Y318238D01*
X3806718Y318165D01*
X3806427Y317874D01*
X3806062Y317363D01*
X3805625Y316780D01*
X3805115Y316051D01*
X3804604Y315176D01*
X3804094Y314229D01*
X3803584Y313208D01*
Y313135D01*
X3803511Y312989D01*
X3803438Y312771D01*
X3803292Y312406D01*
X3803146Y311969D01*
X3803000Y311459D01*
X3802782Y310875D01*
X3802636Y310219D01*
X3802271Y308688D01*
X3801980Y306939D01*
X3801761Y305116D01*
X3801688Y303075D01*
Y303002D01*
Y302783D01*
Y302419D01*
X3801761Y301981D01*
Y301398D01*
X3801834Y300669D01*
X3801907Y299940D01*
X3801980Y299138D01*
X3802271Y297316D01*
X3802636Y295421D01*
X3803219Y293525D01*
X3803948Y291703D01*
Y291630D01*
X3804094Y291484D01*
X3804167Y291265D01*
X3804385Y290974D01*
X3804896Y290172D01*
X3805698Y289151D01*
X3806645Y288058D01*
X3807812Y286964D01*
X3809197Y285943D01*
X3810728Y284996D01*
X3810801D01*
X3810947Y284923D01*
X3811165Y284777D01*
X3811530Y284631D01*
X3811894Y284486D01*
X3812405Y284340D01*
X3813571Y283902D01*
X3815029Y283538D01*
X3816633Y283173D01*
X3818382Y282882D01*
X3820205Y282809D01*
X3820934D01*
X3821371Y282882D01*
X3821809D01*
X3822902Y283027D01*
X3824214Y283173D01*
X3825599Y283465D01*
X3827130Y283902D01*
X3828661Y284413D01*
X3828734D01*
X3828880Y284486D01*
X3829026Y284558D01*
X3829317Y284704D01*
X3830119Y285069D01*
X3830994Y285506D01*
X3832015Y286016D01*
X3833108Y286600D01*
X3834129Y287256D01*
X3835003Y287985D01*
Y297462D01*
X3820132D01*
Y303440D01*
X3841564D01*
Y284704D01*
X3841492Y284631D01*
X3841346Y284558D01*
X3841054Y284340D01*
X3840690Y284048D01*
X3840252Y283757D01*
X3839742Y283392D01*
X3839086Y282955D01*
X3838430Y282517D01*
X3836899Y281570D01*
X3835149Y280549D01*
X3833327Y279601D01*
X3831358Y278799D01*
X3831286D01*
X3831140Y278726D01*
X3830848Y278654D01*
X3830484Y278508D01*
X3829973Y278362D01*
X3829390Y278143D01*
X3828734Y277997D01*
X3828078Y277852D01*
X3826474Y277487D01*
X3824652Y277123D01*
X3822683Y276904D01*
X3820642Y276831D01*
X3819913D01*
X3819403Y276904D01*
X3818747D01*
X3817945Y276977D01*
X3817070Y277123D01*
X3816122Y277195D01*
X3814008Y277633D01*
X3811748Y278143D01*
X3809416Y278945D01*
X3808249Y279382D01*
X3807083Y279966D01*
X3807010Y280039D01*
X3806791Y280111D01*
X3806500Y280330D01*
X3806062Y280549D01*
X3805552Y280913D01*
X3805042Y281278D01*
X3803657Y282298D01*
X3802198Y283611D01*
X3800668Y285214D01*
X3799210Y287037D01*
X3797897Y289151D01*
Y289224D01*
X3797752Y289443D01*
X3797606Y289734D01*
X3797387Y290245D01*
X3797168Y290755D01*
X3796950Y291484D01*
X3796658Y292213D01*
X3796367Y293088D01*
X3796075Y294035D01*
X3795783Y295129D01*
X3795565Y296222D01*
X3795346Y297389D01*
X3794981Y299940D01*
X3794836Y302638D01*
Y302711D01*
Y303002D01*
Y303367D01*
X3794909Y303877D01*
Y304533D01*
X3794981Y305335D01*
X3795127Y306137D01*
X3795200Y307084D01*
X3795419Y308105D01*
X3795565Y309199D01*
X3796148Y311531D01*
X3796877Y313937D01*
X3797897Y316343D01*
X3797970Y316416D01*
X3798043Y316634D01*
X3798189Y316926D01*
X3798481Y317363D01*
X3798772Y317947D01*
X3799137Y318530D01*
X3800157Y319915D01*
X3801397Y321519D01*
X3802927Y323050D01*
X3804677Y324580D01*
X3805698Y325237D01*
X3806718Y325893D01*
X3806791Y325966D01*
X3807010Y326038D01*
X3807302Y326184D01*
X3807739Y326403D01*
X3808322Y326622D01*
X3808978Y326913D01*
X3809707Y327205D01*
X3810582Y327497D01*
X3811530Y327788D01*
X3812550Y328007D01*
X3813644Y328298D01*
X3814810Y328517D01*
X3817362Y328882D01*
X3818674Y329027D01*
X3821007D01*
X3821444Y328954D01*
D02*
G37*
G36*
X3718728Y277706D02*
X3711802D01*
X3685413Y317291D01*
Y277706D01*
X3678997D01*
Y328153D01*
X3685850D01*
X3712313Y288495D01*
Y328153D01*
X3718728D01*
Y277706D01*
D02*
G37*
G36*
X3751241D02*
X3744243D01*
X3724706Y328153D01*
X3731996D01*
X3745118Y291484D01*
Y291411D01*
X3745191Y291265D01*
X3745264Y291046D01*
X3745409Y290755D01*
X3745482Y290317D01*
X3745628Y289880D01*
X3745993Y288787D01*
X3746430Y287547D01*
X3746867Y286162D01*
X3747742Y283246D01*
Y283319D01*
X3747815Y283465D01*
X3747888Y283684D01*
X3747961Y283975D01*
X3748180Y284777D01*
X3748544Y285871D01*
X3748909Y287110D01*
X3749346Y288495D01*
X3749856Y289953D01*
X3750439Y291484D01*
X3764145Y328153D01*
X3770924D01*
X3751241Y277706D01*
D02*
G37*
G36*
X3857821Y283684D02*
X3882680D01*
Y277706D01*
X3851114D01*
Y328153D01*
X3857821D01*
Y283684D01*
D02*
G37*
G36*
X3648890Y328080D02*
X3650348Y328007D01*
X3651806Y327861D01*
X3653264Y327642D01*
X3654503Y327424D01*
X3654576D01*
X3654722Y327351D01*
X3654941D01*
X3655232Y327205D01*
X3656034Y326986D01*
X3657055Y326622D01*
X3658221Y326111D01*
X3659460Y325455D01*
X3660700Y324726D01*
X3661866Y323779D01*
X3661939Y323706D01*
X3662012Y323633D01*
X3662231Y323414D01*
X3662522Y323195D01*
X3663251Y322466D01*
X3664126Y321446D01*
X3665074Y320207D01*
X3666094Y318748D01*
X3667042Y317072D01*
X3667844Y315176D01*
Y315103D01*
X3667917Y314958D01*
X3668062Y314666D01*
X3668135Y314229D01*
X3668354Y313718D01*
X3668500Y313135D01*
X3668646Y312479D01*
X3668864Y311677D01*
X3669083Y310875D01*
X3669229Y309928D01*
X3669593Y307886D01*
X3669812Y305627D01*
X3669885Y303148D01*
Y303075D01*
Y302929D01*
Y302565D01*
Y302200D01*
X3669812Y301690D01*
Y301107D01*
X3669739Y299722D01*
X3669521Y298118D01*
X3669302Y296441D01*
X3668937Y294692D01*
X3668500Y292942D01*
Y292869D01*
X3668427Y292723D01*
X3668354Y292505D01*
X3668281Y292213D01*
X3667990Y291411D01*
X3667552Y290390D01*
X3667115Y289224D01*
X3666532Y288058D01*
X3665803Y286818D01*
X3665074Y285652D01*
X3665001Y285506D01*
X3664709Y285142D01*
X3664272Y284631D01*
X3663689Y283975D01*
X3663032Y283246D01*
X3662231Y282517D01*
X3661429Y281715D01*
X3660481Y281059D01*
X3660335Y280986D01*
X3660044Y280768D01*
X3659533Y280476D01*
X3658804Y280111D01*
X3657929Y279674D01*
X3656909Y279310D01*
X3655742Y278872D01*
X3654430Y278508D01*
X3654284D01*
X3654066Y278435D01*
X3653847Y278362D01*
X3653118Y278289D01*
X3652097Y278143D01*
X3650931Y277997D01*
X3649546Y277852D01*
X3648015Y277779D01*
X3646338Y277706D01*
X3628186D01*
Y328153D01*
X3647578D01*
X3648890Y328080D01*
D02*
G37*
G36*
X3764874Y259670D02*
X3758677D01*
Y266742D01*
X3764874D01*
Y259670D01*
D02*
G37*
G36*
X3926201Y253620D02*
X3927003Y253474D01*
X3927951Y253182D01*
X3928972Y252818D01*
X3930138Y252307D01*
X3931377Y251651D01*
X3929117Y245965D01*
X3929044Y246038D01*
X3928753Y246184D01*
X3928316Y246403D01*
X3927732Y246621D01*
X3927076Y246840D01*
X3926274Y247059D01*
X3925472Y247204D01*
X3924671Y247277D01*
X3924306D01*
X3923941Y247204D01*
X3923431Y247131D01*
X3922921Y246986D01*
X3922265Y246767D01*
X3921609Y246475D01*
X3921026Y246038D01*
X3920953Y245965D01*
X3920734Y245819D01*
X3920515Y245528D01*
X3920151Y245163D01*
X3919786Y244653D01*
X3919422Y244070D01*
X3919057Y243414D01*
X3918766Y242612D01*
X3918693Y242466D01*
X3918620Y242029D01*
X3918474Y241372D01*
X3918255Y240498D01*
X3918037Y239404D01*
X3917891Y238165D01*
X3917818Y236853D01*
X3917745Y235395D01*
Y216295D01*
X3911548D01*
Y252891D01*
X3917162D01*
Y247350D01*
X3917235Y247423D01*
X3917526Y247933D01*
X3917891Y248589D01*
X3918474Y249391D01*
X3919057Y250193D01*
X3919713Y251068D01*
X3920369Y251797D01*
X3921026Y252380D01*
X3921098Y252453D01*
X3921317Y252599D01*
X3921755Y252818D01*
X3922192Y253036D01*
X3922775Y253255D01*
X3923504Y253474D01*
X3924233Y253620D01*
X3925035Y253692D01*
X3925545D01*
X3926201Y253620D01*
D02*
G37*
G36*
X3651004Y216295D02*
X3645463D01*
Y221617D01*
X3645391Y221544D01*
X3645245Y221325D01*
X3645026Y221033D01*
X3644662Y220669D01*
X3644224Y220231D01*
X3643714Y219648D01*
X3643131Y219138D01*
X3642402Y218555D01*
X3641600Y217971D01*
X3640725Y217461D01*
X3639777Y216951D01*
X3638757Y216441D01*
X3637590Y216076D01*
X3636424Y215785D01*
X3635112Y215566D01*
X3633800Y215493D01*
X3633289D01*
X3632633Y215566D01*
X3631831Y215639D01*
X3630883Y215785D01*
X3629863Y216003D01*
X3628842Y216295D01*
X3627749Y216732D01*
X3627603Y216805D01*
X3627311Y216951D01*
X3626801Y217243D01*
X3626218Y217607D01*
X3625489Y218044D01*
X3624833Y218555D01*
X3624177Y219138D01*
X3623593Y219794D01*
X3623521Y219867D01*
X3623375Y220159D01*
X3623156Y220523D01*
X3622865Y221106D01*
X3622500Y221762D01*
X3622208Y222564D01*
X3621917Y223439D01*
X3621698Y224387D01*
Y224460D01*
X3621625Y224751D01*
X3621552Y225189D01*
Y225772D01*
X3621479Y226647D01*
X3621407Y227594D01*
X3621334Y228834D01*
Y230219D01*
Y252891D01*
X3627530D01*
Y232552D01*
Y232479D01*
Y232333D01*
Y232114D01*
Y231750D01*
Y230948D01*
X3627603Y229927D01*
Y228834D01*
X3627676Y227740D01*
X3627749Y226792D01*
X3627895Y225990D01*
Y225918D01*
X3628040Y225626D01*
X3628186Y225189D01*
X3628405Y224605D01*
X3628769Y224022D01*
X3629207Y223366D01*
X3629717Y222783D01*
X3630373Y222200D01*
X3630446Y222127D01*
X3630738Y221981D01*
X3631102Y221762D01*
X3631685Y221544D01*
X3632341Y221252D01*
X3633143Y221033D01*
X3634018Y220887D01*
X3635039Y220815D01*
X3635549D01*
X3636059Y220887D01*
X3636715Y220960D01*
X3637517Y221179D01*
X3638392Y221398D01*
X3639340Y221762D01*
X3640288Y222200D01*
X3640433Y222273D01*
X3640725Y222491D01*
X3641162Y222783D01*
X3641673Y223220D01*
X3642256Y223804D01*
X3642839Y224460D01*
X3643349Y225189D01*
X3643787Y226063D01*
X3643860Y226209D01*
X3643933Y226501D01*
X3644078Y227084D01*
X3644297Y227886D01*
X3644516Y228906D01*
X3644662Y230146D01*
X3644735Y231604D01*
X3644807Y233280D01*
Y252891D01*
X3651004D01*
Y216295D01*
D02*
G37*
G36*
X3819767Y248662D02*
X3819840Y248735D01*
X3819986Y248881D01*
X3820205Y249100D01*
X3820569Y249464D01*
X3820934Y249829D01*
X3821444Y250266D01*
X3822100Y250704D01*
X3822756Y251214D01*
X3823485Y251651D01*
X3824287Y252089D01*
X3826183Y252891D01*
X3827203Y253255D01*
X3828297Y253474D01*
X3829463Y253620D01*
X3830630Y253692D01*
X3831286D01*
X3832088Y253620D01*
X3833035Y253474D01*
X3834129Y253328D01*
X3835295Y253036D01*
X3836461Y252599D01*
X3837628Y252089D01*
X3837774Y252016D01*
X3838138Y251797D01*
X3838648Y251433D01*
X3839305Y250922D01*
X3839961Y250266D01*
X3840690Y249537D01*
X3841346Y248662D01*
X3841929Y247642D01*
X3842002Y247496D01*
X3842148Y247131D01*
X3842366Y246475D01*
X3842585Y245528D01*
X3842804Y244361D01*
X3843023Y242976D01*
X3843168Y241299D01*
X3843241Y239404D01*
Y216295D01*
X3837045D01*
Y239477D01*
Y239550D01*
Y239696D01*
Y239914D01*
Y240206D01*
X3836972Y241008D01*
X3836826Y242029D01*
X3836534Y243122D01*
X3836170Y244215D01*
X3835660Y245309D01*
X3835003Y246184D01*
X3834931Y246257D01*
X3834639Y246548D01*
X3834202Y246913D01*
X3833546Y247277D01*
X3832744Y247715D01*
X3831796Y248006D01*
X3830630Y248298D01*
X3829317Y248371D01*
X3828880D01*
X3828370Y248298D01*
X3827641Y248225D01*
X3826912Y248006D01*
X3826037Y247788D01*
X3825162Y247423D01*
X3824214Y246913D01*
X3824141Y246840D01*
X3823850Y246621D01*
X3823412Y246330D01*
X3822902Y245892D01*
X3822319Y245309D01*
X3821736Y244653D01*
X3821225Y243851D01*
X3820788Y242976D01*
X3820715Y242830D01*
X3820642Y242539D01*
X3820496Y241956D01*
X3820278Y241227D01*
X3820059Y240279D01*
X3819913Y239113D01*
X3819840Y237800D01*
X3819767Y236269D01*
Y216295D01*
X3813571D01*
Y266742D01*
X3819767D01*
Y248662D01*
D02*
G37*
G36*
X3764874Y216295D02*
X3758677D01*
Y252891D01*
X3764874D01*
Y216295D01*
D02*
G37*
G36*
X3750804Y260764D02*
X3723394D01*
Y245163D01*
X3747086D01*
Y239185D01*
X3723394D01*
Y216295D01*
X3716687D01*
Y266742D01*
X3750804D01*
Y260764D01*
D02*
G37*
G36*
X3705970Y216295D02*
X3699774D01*
Y266742D01*
X3705970D01*
Y216295D01*
D02*
G37*
G36*
X3613606Y260764D02*
X3586196D01*
Y245163D01*
X3609888D01*
Y239185D01*
X3586196D01*
Y216295D01*
X3579489D01*
Y266742D01*
X3613606D01*
Y260764D01*
D02*
G37*
G36*
X3860008Y252891D02*
X3866278D01*
Y248079D01*
X3860008D01*
Y226574D01*
Y226428D01*
Y226136D01*
Y225699D01*
X3860081Y225189D01*
X3860154Y224022D01*
X3860227Y223512D01*
X3860300Y223147D01*
X3860373Y223002D01*
X3860591Y222710D01*
X3860883Y222345D01*
X3861393Y221981D01*
X3861539Y221908D01*
X3861904Y221762D01*
X3862560Y221617D01*
X3863507Y221544D01*
X3864236D01*
X3864601Y221617D01*
X3865111D01*
X3865694Y221689D01*
X3866278Y221762D01*
X3867079Y216295D01*
X3866934D01*
X3866642Y216222D01*
X3866132Y216149D01*
X3865476Y216076D01*
X3864747Y215930D01*
X3863945Y215857D01*
X3862341Y215785D01*
X3861758D01*
X3861175Y215857D01*
X3860446Y215930D01*
X3859571Y216003D01*
X3858696Y216222D01*
X3857894Y216441D01*
X3857092Y216805D01*
X3857019Y216878D01*
X3856801Y217024D01*
X3856509Y217243D01*
X3856072Y217607D01*
X3855707Y217971D01*
X3855270Y218482D01*
X3854832Y218992D01*
X3854541Y219648D01*
Y219721D01*
X3854395Y220013D01*
X3854322Y220523D01*
X3854176Y221252D01*
X3854030Y222200D01*
X3853957Y222783D01*
Y223439D01*
X3853885Y224241D01*
X3853812Y225043D01*
Y225918D01*
Y226938D01*
Y248079D01*
X3849219D01*
Y252891D01*
X3853812D01*
Y261930D01*
X3860008Y265648D01*
Y252891D01*
D02*
G37*
G36*
X3888585Y253620D02*
X3889168Y253547D01*
X3889897Y253401D01*
X3890699Y253255D01*
X3891647Y253036D01*
X3892522Y252818D01*
X3893542Y252453D01*
X3894490Y252089D01*
X3895510Y251578D01*
X3896531Y250995D01*
X3897552Y250339D01*
X3898499Y249537D01*
X3899374Y248662D01*
X3899447Y248589D01*
X3899593Y248444D01*
X3899812Y248152D01*
X3900103Y247715D01*
X3900468Y247204D01*
X3900832Y246621D01*
X3901270Y245892D01*
X3901707Y245017D01*
X3902144Y244070D01*
X3902582Y243049D01*
X3902946Y241883D01*
X3903311Y240643D01*
X3903602Y239258D01*
X3903821Y237800D01*
X3903967Y236269D01*
X3904040Y234593D01*
Y234520D01*
Y234228D01*
Y233718D01*
X3903967Y232989D01*
X3876629D01*
Y232916D01*
Y232697D01*
X3876702Y232406D01*
Y231968D01*
X3876775Y231458D01*
X3876921Y230875D01*
X3877140Y229563D01*
X3877577Y228105D01*
X3878160Y226501D01*
X3878962Y225043D01*
X3879983Y223731D01*
X3880056D01*
X3880129Y223585D01*
X3880566Y223220D01*
X3881222Y222710D01*
X3882097Y222200D01*
X3883263Y221617D01*
X3884575Y221106D01*
X3886034Y220742D01*
X3886835Y220669D01*
X3887710Y220596D01*
X3888293D01*
X3888950Y220669D01*
X3889751Y220815D01*
X3890626Y221033D01*
X3891647Y221325D01*
X3892595Y221762D01*
X3893542Y222345D01*
X3893615Y222418D01*
X3893980Y222710D01*
X3894417Y223147D01*
X3894927Y223731D01*
X3895510Y224532D01*
X3896167Y225553D01*
X3896823Y226720D01*
X3897406Y228105D01*
X3903821Y227303D01*
Y227230D01*
X3903748Y227084D01*
X3903675Y226792D01*
X3903530Y226355D01*
X3903311Y225918D01*
X3903092Y225334D01*
X3902509Y224095D01*
X3901780Y222710D01*
X3900759Y221252D01*
X3899593Y219867D01*
X3898135Y218555D01*
X3898062D01*
X3897916Y218409D01*
X3897698Y218263D01*
X3897406Y218044D01*
X3896968Y217826D01*
X3896531Y217607D01*
X3895948Y217315D01*
X3895292Y217024D01*
X3894563Y216732D01*
X3893834Y216441D01*
X3892011Y216003D01*
X3889970Y215639D01*
X3887710Y215493D01*
X3886908D01*
X3886398Y215566D01*
X3885742Y215639D01*
X3884940Y215785D01*
X3884065Y215930D01*
X3883117Y216076D01*
X3881076Y216659D01*
X3879983Y217097D01*
X3878962Y217534D01*
X3877869Y218117D01*
X3876848Y218773D01*
X3875900Y219502D01*
X3874953Y220377D01*
X3874880Y220450D01*
X3874734Y220596D01*
X3874515Y220887D01*
X3874224Y221325D01*
X3873859Y221835D01*
X3873495Y222418D01*
X3873057Y223147D01*
X3872620Y223949D01*
X3872182Y224897D01*
X3871745Y225918D01*
X3871381Y227084D01*
X3871016Y228323D01*
X3870724Y229636D01*
X3870506Y231094D01*
X3870360Y232624D01*
X3870287Y234228D01*
Y234301D01*
Y234666D01*
Y235103D01*
X3870360Y235759D01*
X3870433Y236561D01*
X3870506Y237436D01*
X3870652Y238456D01*
X3870870Y239477D01*
X3871454Y241810D01*
X3871818Y242976D01*
X3872255Y244215D01*
X3872839Y245382D01*
X3873495Y246475D01*
X3874224Y247569D01*
X3875026Y248589D01*
X3875099Y248662D01*
X3875244Y248808D01*
X3875536Y249027D01*
X3875900Y249391D01*
X3876338Y249756D01*
X3876921Y250193D01*
X3877577Y250704D01*
X3878379Y251141D01*
X3879181Y251651D01*
X3880129Y252089D01*
X3881149Y252526D01*
X3882243Y252891D01*
X3883409Y253255D01*
X3884648Y253474D01*
X3885961Y253620D01*
X3887346Y253692D01*
X3888075D01*
X3888585Y253620D01*
D02*
G37*
G36*
X3676883D02*
X3677467Y253547D01*
X3678196Y253401D01*
X3678997Y253255D01*
X3679945Y253036D01*
X3680820Y252818D01*
X3681841Y252453D01*
X3682788Y252089D01*
X3683809Y251578D01*
X3684829Y250995D01*
X3685850Y250339D01*
X3686798Y249537D01*
X3687673Y248662D01*
X3687745Y248589D01*
X3687891Y248444D01*
X3688110Y248152D01*
X3688402Y247715D01*
X3688766Y247204D01*
X3689131Y246621D01*
X3689568Y245892D01*
X3690005Y245017D01*
X3690443Y244070D01*
X3690880Y243049D01*
X3691245Y241883D01*
X3691609Y240643D01*
X3691901Y239258D01*
X3692119Y237800D01*
X3692265Y236269D01*
X3692338Y234593D01*
Y234520D01*
Y234228D01*
Y233718D01*
X3692265Y232989D01*
X3664928D01*
Y232916D01*
Y232697D01*
X3665001Y232406D01*
Y231968D01*
X3665074Y231458D01*
X3665219Y230875D01*
X3665438Y229563D01*
X3665876Y228105D01*
X3666459Y226501D01*
X3667261Y225043D01*
X3668281Y223731D01*
X3668354D01*
X3668427Y223585D01*
X3668864Y223220D01*
X3669521Y222710D01*
X3670395Y222200D01*
X3671562Y221617D01*
X3672874Y221106D01*
X3674332Y220742D01*
X3675134Y220669D01*
X3676009Y220596D01*
X3676592D01*
X3677248Y220669D01*
X3678050Y220815D01*
X3678925Y221033D01*
X3679945Y221325D01*
X3680893Y221762D01*
X3681841Y222345D01*
X3681914Y222418D01*
X3682278Y222710D01*
X3682715Y223147D01*
X3683226Y223731D01*
X3683809Y224532D01*
X3684465Y225553D01*
X3685121Y226720D01*
X3685704Y228105D01*
X3692119Y227303D01*
Y227230D01*
X3692047Y227084D01*
X3691974Y226792D01*
X3691828Y226355D01*
X3691609Y225918D01*
X3691390Y225334D01*
X3690807Y224095D01*
X3690078Y222710D01*
X3689058Y221252D01*
X3687891Y219867D01*
X3686433Y218555D01*
X3686360D01*
X3686215Y218409D01*
X3685996Y218263D01*
X3685704Y218044D01*
X3685267Y217826D01*
X3684829Y217607D01*
X3684246Y217315D01*
X3683590Y217024D01*
X3682861Y216732D01*
X3682132Y216441D01*
X3680310Y216003D01*
X3678269Y215639D01*
X3676009Y215493D01*
X3675207D01*
X3674696Y215566D01*
X3674040Y215639D01*
X3673238Y215785D01*
X3672364Y215930D01*
X3671416Y216076D01*
X3669375Y216659D01*
X3668281Y217097D01*
X3667261Y217534D01*
X3666167Y218117D01*
X3665146Y218773D01*
X3664199Y219502D01*
X3663251Y220377D01*
X3663178Y220450D01*
X3663032Y220596D01*
X3662814Y220887D01*
X3662522Y221325D01*
X3662158Y221835D01*
X3661793Y222418D01*
X3661356Y223147D01*
X3660918Y223949D01*
X3660481Y224897D01*
X3660044Y225918D01*
X3659679Y227084D01*
X3659314Y228323D01*
X3659023Y229636D01*
X3658804Y231094D01*
X3658658Y232624D01*
X3658586Y234228D01*
Y234301D01*
Y234666D01*
Y235103D01*
X3658658Y235759D01*
X3658731Y236561D01*
X3658804Y237436D01*
X3658950Y238456D01*
X3659169Y239477D01*
X3659752Y241810D01*
X3660116Y242976D01*
X3660554Y244215D01*
X3661137Y245382D01*
X3661793Y246475D01*
X3662522Y247569D01*
X3663324Y248589D01*
X3663397Y248662D01*
X3663543Y248808D01*
X3663834Y249027D01*
X3664199Y249391D01*
X3664636Y249756D01*
X3665219Y250193D01*
X3665876Y250704D01*
X3666677Y251141D01*
X3667479Y251651D01*
X3668427Y252089D01*
X3669448Y252526D01*
X3670541Y252891D01*
X3671707Y253255D01*
X3672947Y253474D01*
X3674259Y253620D01*
X3675644Y253692D01*
X3676373D01*
X3676883Y253620D01*
D02*
G37*
G36*
X3788858D02*
X3789368Y253547D01*
X3790024Y253401D01*
X3790753Y253255D01*
X3791555Y253036D01*
X3792357Y252745D01*
X3793232Y252380D01*
X3794107Y251943D01*
X3795054Y251433D01*
X3795929Y250849D01*
X3796804Y250120D01*
X3797679Y249319D01*
X3798481Y248371D01*
Y252891D01*
X3804167D01*
Y221252D01*
Y221179D01*
Y220887D01*
Y220450D01*
Y219867D01*
X3804094Y219211D01*
Y218409D01*
X3804021Y217534D01*
X3803948Y216586D01*
X3803729Y214618D01*
X3803438Y212577D01*
X3803219Y211629D01*
X3803000Y210754D01*
X3802709Y209952D01*
X3802417Y209224D01*
Y209151D01*
X3802344Y209078D01*
X3802053Y208640D01*
X3801688Y207984D01*
X3801105Y207182D01*
X3800303Y206308D01*
X3799355Y205360D01*
X3798189Y204412D01*
X3796877Y203610D01*
X3796804D01*
X3796731Y203537D01*
X3796512Y203392D01*
X3796221Y203319D01*
X3795856Y203100D01*
X3795419Y202954D01*
X3794325Y202590D01*
X3793013Y202152D01*
X3791409Y201861D01*
X3789587Y201569D01*
X3787619Y201496D01*
X3786962D01*
X3786525Y201569D01*
X3785942D01*
X3785359Y201642D01*
X3784630Y201715D01*
X3783828Y201861D01*
X3782151Y202225D01*
X3780401Y202735D01*
X3778652Y203464D01*
X3777048Y204485D01*
X3776975Y204558D01*
X3776902Y204631D01*
X3776392Y205068D01*
X3775809Y205724D01*
X3775080Y206672D01*
X3774351Y207911D01*
X3773695Y209442D01*
X3773476Y210317D01*
X3773330Y211265D01*
X3773184Y212212D01*
Y213306D01*
X3779235Y212504D01*
Y212358D01*
X3779308Y212067D01*
X3779454Y211556D01*
X3779599Y210900D01*
X3779891Y210244D01*
X3780256Y209588D01*
X3780693Y208932D01*
X3781276Y208422D01*
X3781422Y208349D01*
X3781714Y208130D01*
X3782224Y207838D01*
X3782953Y207547D01*
X3783828Y207182D01*
X3784921Y206891D01*
X3786233Y206672D01*
X3787619Y206599D01*
X3788347D01*
X3789077Y206672D01*
X3790097Y206818D01*
X3791118Y207036D01*
X3792211Y207328D01*
X3793305Y207766D01*
X3794252Y208349D01*
X3794325Y208422D01*
X3794617Y208640D01*
X3795054Y209078D01*
X3795565Y209588D01*
X3796075Y210317D01*
X3796585Y211119D01*
X3797095Y212067D01*
X3797460Y213160D01*
Y213233D01*
X3797533Y213525D01*
X3797606Y214108D01*
X3797679Y214837D01*
X3797752Y215347D01*
Y215930D01*
X3797825Y216586D01*
Y217315D01*
Y218117D01*
X3797897Y219065D01*
Y220013D01*
Y221106D01*
X3797825Y221033D01*
X3797679Y220887D01*
X3797460Y220669D01*
X3797168Y220377D01*
X3796804Y220013D01*
X3796294Y219575D01*
X3795710Y219138D01*
X3795127Y218701D01*
X3793596Y217826D01*
X3791920Y217024D01*
X3790972Y216732D01*
X3789951Y216513D01*
X3788858Y216368D01*
X3787764Y216295D01*
X3787400D01*
X3787035Y216368D01*
X3786525D01*
X3785869Y216441D01*
X3785140Y216586D01*
X3784338Y216732D01*
X3783463Y216951D01*
X3782515Y217243D01*
X3781568Y217607D01*
X3780620Y218044D01*
X3779599Y218555D01*
X3778652Y219211D01*
X3777704Y219940D01*
X3776829Y220742D01*
X3776027Y221689D01*
X3775954Y221762D01*
X3775882Y221908D01*
X3775663Y222273D01*
X3775371Y222637D01*
X3775080Y223220D01*
X3774715Y223804D01*
X3774351Y224532D01*
X3773986Y225407D01*
X3773622Y226282D01*
X3773257Y227303D01*
X3772893Y228323D01*
X3772601Y229490D01*
X3772091Y231968D01*
X3772018Y233353D01*
X3771945Y234738D01*
Y234811D01*
Y234957D01*
Y235249D01*
Y235613D01*
X3772018Y236124D01*
Y236634D01*
X3772164Y237946D01*
X3772382Y239404D01*
X3772747Y241008D01*
X3773184Y242685D01*
X3773840Y244361D01*
Y244434D01*
X3773913Y244580D01*
X3774059Y244799D01*
X3774205Y245090D01*
X3774642Y245892D01*
X3775226Y246913D01*
X3776027Y248006D01*
X3776975Y249100D01*
X3778069Y250266D01*
X3779308Y251214D01*
X3779381D01*
X3779454Y251287D01*
X3779672Y251433D01*
X3779964Y251578D01*
X3780693Y252016D01*
X3781714Y252453D01*
X3782953Y252891D01*
X3784411Y253328D01*
X3786015Y253620D01*
X3787764Y253692D01*
X3788420D01*
X3788858Y253620D01*
D02*
G37*
%LPC*%
G36*
X3646557Y322175D02*
X3634893D01*
Y283684D01*
X3646849D01*
X3647359Y283757D01*
X3648452Y283829D01*
X3649692Y283902D01*
X3651004Y284048D01*
X3652316Y284267D01*
X3653410Y284558D01*
X3653555Y284631D01*
X3653920Y284704D01*
X3654430Y284923D01*
X3655086Y285214D01*
X3655815Y285652D01*
X3656544Y286089D01*
X3657273Y286600D01*
X3658002Y287183D01*
X3658075Y287329D01*
X3658367Y287620D01*
X3658804Y288130D01*
X3659314Y288860D01*
X3659898Y289807D01*
X3660554Y290901D01*
X3661137Y292140D01*
X3661647Y293525D01*
Y293598D01*
X3661720Y293744D01*
X3661793Y293962D01*
X3661866Y294254D01*
X3661939Y294619D01*
X3662085Y295129D01*
X3662231Y295639D01*
X3662376Y296222D01*
X3662595Y297680D01*
X3662814Y299357D01*
X3662959Y301252D01*
X3663032Y303294D01*
Y303367D01*
Y303658D01*
Y304023D01*
X3662959Y304606D01*
Y305262D01*
X3662887Y305991D01*
X3662814Y306866D01*
X3662741Y307741D01*
X3662376Y309709D01*
X3661939Y311750D01*
X3661283Y313646D01*
X3660845Y314593D01*
X3660408Y315395D01*
Y315468D01*
X3660262Y315614D01*
X3660116Y315832D01*
X3659971Y316124D01*
X3659387Y316853D01*
X3658658Y317728D01*
X3657711Y318676D01*
X3656617Y319623D01*
X3655378Y320425D01*
X3654066Y321081D01*
X3653920Y321154D01*
X3653555Y321227D01*
X3652899Y321446D01*
X3651952Y321664D01*
X3650785Y321810D01*
X3649327Y322029D01*
X3648452Y322102D01*
X3647505D01*
X3646557Y322175D01*
D02*
G37*
G36*
X3887419Y248589D02*
X3886981D01*
X3886690Y248517D01*
X3885888Y248444D01*
X3884940Y248225D01*
X3883774Y247861D01*
X3882534Y247350D01*
X3881368Y246621D01*
X3880202Y245673D01*
X3880056Y245528D01*
X3879764Y245163D01*
X3879254Y244507D01*
X3878744Y243632D01*
X3878160Y242612D01*
X3877650Y241299D01*
X3877213Y239769D01*
X3876994Y238092D01*
X3897479D01*
Y238165D01*
Y238311D01*
X3897406Y238529D01*
Y238821D01*
X3897260Y239696D01*
X3897041Y240643D01*
X3896677Y241810D01*
X3896312Y242903D01*
X3895729Y243997D01*
X3895073Y244945D01*
Y245017D01*
X3894927Y245090D01*
X3894563Y245528D01*
X3893907Y246111D01*
X3893032Y246767D01*
X3891938Y247423D01*
X3890626Y248006D01*
X3889095Y248444D01*
X3888293Y248517D01*
X3887419Y248589D01*
D02*
G37*
G36*
X3675717D02*
X3675280D01*
X3674988Y248517D01*
X3674186Y248444D01*
X3673238Y248225D01*
X3672072Y247861D01*
X3670833Y247350D01*
X3669666Y246621D01*
X3668500Y245673D01*
X3668354Y245528D01*
X3668062Y245163D01*
X3667552Y244507D01*
X3667042Y243632D01*
X3666459Y242612D01*
X3665948Y241299D01*
X3665511Y239769D01*
X3665292Y238092D01*
X3685777D01*
Y238165D01*
Y238311D01*
X3685704Y238529D01*
Y238821D01*
X3685559Y239696D01*
X3685340Y240643D01*
X3684975Y241810D01*
X3684611Y242903D01*
X3684028Y243997D01*
X3683372Y244945D01*
Y245017D01*
X3683226Y245090D01*
X3682861Y245528D01*
X3682205Y246111D01*
X3681330Y246767D01*
X3680237Y247423D01*
X3678925Y248006D01*
X3677394Y248444D01*
X3676592Y248517D01*
X3675717Y248589D01*
D02*
G37*
G36*
X3789004D02*
X3787837D01*
X3787546Y248517D01*
X3786744Y248444D01*
X3785796Y248152D01*
X3784630Y247788D01*
X3783463Y247131D01*
X3782297Y246330D01*
X3781714Y245746D01*
X3781130Y245163D01*
Y245090D01*
X3780985Y245017D01*
X3780839Y244799D01*
X3780693Y244507D01*
X3780474Y244215D01*
X3780256Y243778D01*
X3779964Y243268D01*
X3779745Y242685D01*
X3779454Y242029D01*
X3779162Y241227D01*
X3778943Y240425D01*
X3778725Y239550D01*
X3778579Y238529D01*
X3778433Y237509D01*
X3778287Y236415D01*
Y235176D01*
Y235103D01*
Y234884D01*
Y234520D01*
X3778360Y234010D01*
Y233426D01*
X3778433Y232697D01*
X3778652Y231166D01*
X3779016Y229417D01*
X3779454Y227740D01*
X3780183Y226063D01*
X3780620Y225334D01*
X3781130Y224678D01*
X3781276Y224532D01*
X3781641Y224168D01*
X3782224Y223658D01*
X3783099Y223075D01*
X3784119Y222418D01*
X3785359Y221908D01*
X3786744Y221544D01*
X3787473Y221471D01*
X3788275Y221398D01*
X3788712D01*
X3789004Y221471D01*
X3789805Y221544D01*
X3790826Y221835D01*
X3791920Y222200D01*
X3793159Y222783D01*
X3794325Y223585D01*
X3794909Y224095D01*
X3795492Y224678D01*
Y224751D01*
X3795637Y224824D01*
X3795783Y225043D01*
X3795929Y225334D01*
X3796148Y225626D01*
X3796439Y226063D01*
X3796658Y226574D01*
X3796950Y227230D01*
X3797241Y227886D01*
X3797460Y228615D01*
X3797752Y229490D01*
X3797970Y230437D01*
X3798116Y231385D01*
X3798262Y232479D01*
X3798408Y233718D01*
Y234957D01*
Y235030D01*
Y235249D01*
Y235613D01*
X3798335Y236051D01*
Y236634D01*
X3798262Y237290D01*
X3798043Y238748D01*
X3797679Y240425D01*
X3797168Y242101D01*
X3796439Y243778D01*
X3795929Y244507D01*
X3795419Y245163D01*
Y245236D01*
X3795273Y245309D01*
X3794909Y245673D01*
X3794252Y246257D01*
X3793378Y246913D01*
X3792357Y247496D01*
X3791118Y248079D01*
X3789733Y248444D01*
X3789004Y248589D01*
D02*
G37*
%LPD*%
D41*
X1355955Y2086692D02*
G03*
X1368455Y2086692I6250J0D01*
G01*
X1544882D01*
Y1460747D02*
Y2086692D01*
X1179528D02*
X1355955D01*
X1179528Y1460747D02*
Y2086692D01*
Y1460747D02*
X1544882D01*
D42*
X1228347Y2041338D02*
D03*
D43*
X4028347Y1455512D02*
X4428346D01*
X4028347D02*
Y1955512D01*
X4178346Y2105512D01*
X4278346D01*
X4428346Y1955512D01*
Y1455512D02*
Y1955512D01*
X4188346Y1395669D02*
X4268346D01*
X4228346Y1355669D02*
Y1435669D01*
X2622835Y816142D02*
X3022835D01*
Y316142D02*
Y816142D01*
X2872835Y166142D02*
X3022835Y316142D01*
X2772835Y166142D02*
X2872835D01*
X2622835Y316142D02*
X2772835Y166142D01*
X2622835Y316142D02*
Y816142D01*
X2782835Y875984D02*
X2862835D01*
X2822835Y835984D02*
Y915984D01*
X2634646Y3351575D02*
X3034646D01*
Y2851575D02*
Y3351575D01*
X2884646Y2701575D02*
X3034646Y2851575D01*
X2784646Y2701575D02*
X2884646D01*
X2634646Y2851575D02*
X2784646Y2701575D01*
X2634646Y2851575D02*
Y3351575D01*
X2794646Y3411417D02*
X2874646D01*
X2834646Y3371417D02*
Y3451417D01*
X1075984Y2780315D02*
Y3180315D01*
X575984Y2780315D02*
X1075984D01*
X425984Y2930315D02*
X575984Y2780315D01*
X425984Y2930315D02*
Y3030315D01*
X575984Y3180315D01*
X1075984D01*
X1135827Y2940315D02*
Y3020315D01*
X1095827Y2980315D02*
X1175827D01*
X254921Y1313582D02*
X365157D01*
Y2120668D01*
X254921D02*
X365157D01*
X254921Y1313582D02*
Y2120668D01*
X151575Y1006890D02*
X447834D01*
X437008Y1258858D02*
X513779Y1182087D01*
X151575Y1258858D02*
X437008D01*
X151575Y1006890D02*
Y1258858D01*
X513779Y1072835D02*
Y1182087D01*
X447834Y1006890D02*
X513779Y1072835D01*
X3070866Y2145669D02*
X3405512D01*
X3510827Y2040354D01*
Y1502953D02*
Y2040354D01*
X3405512Y1397638D02*
X3510827Y1502953D01*
X2638780Y1397638D02*
X3405512D01*
X2638780D02*
Y2145669D01*
X3070866D01*
X90551Y2213583D02*
X503937D01*
X90551D02*
Y2619095D01*
X503937Y2213583D02*
X630905Y2340551D01*
Y2488189D01*
X90551Y2619095D02*
X490158D01*
X500000D02*
X630905Y2488189D01*
X490158Y2619095D02*
X500000D01*
X3560145Y821480D02*
X3550148Y831477D01*
X3530154D01*
X3520157Y821480D01*
Y811483D01*
X3530154Y801486D01*
X3550148D01*
X3560145Y791490D01*
Y781493D01*
X3550148Y771496D01*
X3530154D01*
X3520157Y781493D01*
X3620125Y831477D02*
X3580138D01*
Y771496D01*
X3620125D01*
X3580138Y801486D02*
X3600132D01*
X3640119Y771496D02*
Y831477D01*
X3660112Y811483D01*
X3680106Y831477D01*
Y771496D01*
X3800067D02*
X3760080D01*
X3800067Y811483D01*
Y821480D01*
X3790070Y831477D01*
X3770077D01*
X3760080Y821480D01*
X3820061D02*
X3830057Y831477D01*
X3850051D01*
X3860048Y821480D01*
Y781493D01*
X3850051Y771496D01*
X3830057D01*
X3820061Y781493D01*
Y821480D01*
X3920028Y771496D02*
X3880041D01*
X3920028Y811483D01*
Y821480D01*
X3910031Y831477D01*
X3890038D01*
X3880041Y821480D01*
X3940022D02*
X3950019Y831477D01*
X3970012D01*
X3980009Y821480D01*
Y781493D01*
X3970012Y771496D01*
X3950019D01*
X3940022Y781493D01*
Y821480D01*
X1248032Y2185965D02*
Y2135981D01*
X1258028Y2125984D01*
X1278022D01*
X1288019Y2135981D01*
Y2185965D01*
X1308012Y2125984D02*
X1328006D01*
X1318009D01*
Y2185965D01*
X1308012Y2175968D01*
X822835Y1889764D02*
Y1949744D01*
X852825D01*
X862822Y1939748D01*
Y1919754D01*
X852825Y1909757D01*
X822835D01*
X842828D02*
X862822Y1889764D01*
X882815Y1939748D02*
X892812Y1949744D01*
X912806D01*
X922802Y1939748D01*
Y1929751D01*
X912806Y1919754D01*
X902809D01*
X912806D01*
X922802Y1909757D01*
Y1899761D01*
X912806Y1889764D01*
X892812D01*
X882815Y1899761D01*
X645669Y1905512D02*
Y1965492D01*
X675660D01*
X685656Y1955496D01*
Y1935502D01*
X675660Y1925505D01*
X645669D01*
X665663D02*
X685656Y1905512D01*
X745637D02*
X705650D01*
X745637Y1945499D01*
Y1955496D01*
X735640Y1965492D01*
X715647D01*
X705650Y1955496D01*
X3732284Y1279528D02*
Y1339508D01*
X3762274D01*
X3772271Y1329511D01*
Y1309518D01*
X3762274Y1299521D01*
X3732284D01*
X3752277D02*
X3772271Y1279528D01*
X3792264D02*
X3812258D01*
X3802261D01*
Y1339508D01*
X3792264Y1329511D01*
X2988189Y133858D02*
Y193839D01*
X3018179D01*
X3028176Y183842D01*
Y163849D01*
X3018179Y153852D01*
X2988189D01*
X3078160Y133858D02*
Y193839D01*
X3048170Y163849D01*
X3088157D01*
X421260Y2003937D02*
Y2063918D01*
X451250D01*
X461247Y2053921D01*
Y2033927D01*
X451250Y2023930D01*
X421260D01*
X511231Y2003937D02*
Y2063918D01*
X481240Y2033927D01*
X521227D01*
X2456693Y3263780D02*
Y3323760D01*
X2486683D01*
X2496680Y3313763D01*
Y3293770D01*
X2486683Y3283773D01*
X2456693D01*
X2516673Y3313763D02*
X2526670Y3323760D01*
X2546664D01*
X2556661Y3313763D01*
Y3303767D01*
X2546664Y3293770D01*
X2536667D01*
X2546664D01*
X2556661Y3283773D01*
Y3273776D01*
X2546664Y3263780D01*
X2526670D01*
X2516673Y3273776D01*
X4033819Y2140244D02*
Y2200225D01*
X4063809D01*
X4073806Y2190228D01*
Y2170234D01*
X4063809Y2160238D01*
X4033819D01*
X4133787Y2140244D02*
X4093800D01*
X4133787Y2180231D01*
Y2190228D01*
X4123790Y2200225D01*
X4103796D01*
X4093800Y2190228D01*
X484252Y3224409D02*
Y3284390D01*
X514242D01*
X524239Y3274393D01*
Y3254400D01*
X514242Y3244403D01*
X484252D01*
X544233Y3224409D02*
X564226D01*
X554229D01*
Y3284390D01*
X544233Y3274393D01*
X1673218Y1263767D02*
X1665347Y1271638D01*
X1649604D01*
X1641732Y1263767D01*
Y1232281D01*
X1649604Y1224409D01*
X1665347D01*
X1673218Y1232281D01*
X1720447Y1224409D02*
X1688961D01*
X1720447Y1255895D01*
Y1263767D01*
X1712575Y1271638D01*
X1696833D01*
X1688961Y1263767D01*
X1736190D02*
X1744061Y1271638D01*
X1759804D01*
X1767676Y1263767D01*
Y1232281D01*
X1759804Y1224409D01*
X1744061D01*
X1736190Y1232281D01*
Y1263767D01*
X929751Y1601165D02*
X919754Y1611162D01*
X899761D01*
X889764Y1601165D01*
Y1561178D01*
X899761Y1551181D01*
X919754D01*
X929751Y1561178D01*
X949744Y1551181D02*
X969738D01*
X959741D01*
Y1611162D01*
X949744Y1601165D01*
X999728Y1561178D02*
X1009725Y1551181D01*
X1029718D01*
X1039715Y1561178D01*
Y1601165D01*
X1029718Y1611162D01*
X1009725D01*
X999728Y1601165D01*
Y1591168D01*
X1009725Y1581171D01*
X1039715D01*
X512428Y1333448D02*
X502431Y1343445D01*
X482438D01*
X472441Y1333448D01*
Y1293461D01*
X482438Y1283465D01*
X502431D01*
X512428Y1293461D01*
X532422Y1283465D02*
X552415D01*
X542418D01*
Y1343445D01*
X532422Y1333448D01*
X582405D02*
X592402Y1343445D01*
X612396D01*
X622392Y1333448D01*
Y1323452D01*
X612396Y1313455D01*
X622392Y1303458D01*
Y1293461D01*
X612396Y1283465D01*
X592402D01*
X582405Y1293461D01*
Y1303458D01*
X592402Y1313455D01*
X582405Y1323452D01*
Y1333448D01*
X592402Y1313455D02*
X612396D01*
X705341Y1459433D02*
X695345Y1469429D01*
X675351D01*
X665354Y1459433D01*
Y1419446D01*
X675351Y1409449D01*
X695345D01*
X705341Y1419446D01*
X725335Y1409449D02*
X745328D01*
X735332D01*
Y1469429D01*
X725335Y1459433D01*
X775319Y1469429D02*
X815306D01*
Y1459433D01*
X775319Y1419446D01*
Y1409449D01*
X2122037Y1393688D02*
X2114166Y1401560D01*
X2098423D01*
X2090551Y1393688D01*
Y1362202D01*
X2098423Y1354331D01*
X2114166D01*
X2122037Y1362202D01*
X2137780Y1354331D02*
X2153523D01*
X2145651D01*
Y1401560D01*
X2137780Y1393688D01*
X2208623Y1401560D02*
X2192880Y1393688D01*
X2177137Y1377945D01*
Y1362202D01*
X2185009Y1354331D01*
X2200752D01*
X2208623Y1362202D01*
Y1370074D01*
X2200752Y1377945D01*
X2177137D01*
X1712588Y1566917D02*
X1704717Y1574788D01*
X1688974D01*
X1681102Y1566917D01*
Y1535431D01*
X1688974Y1527559D01*
X1704717D01*
X1712588Y1535431D01*
X1728331Y1527559D02*
X1744074D01*
X1736203D01*
Y1574788D01*
X1728331Y1566917D01*
X1799175Y1574788D02*
X1767689D01*
Y1551174D01*
X1783431Y1559045D01*
X1791303D01*
X1799175Y1551174D01*
Y1535431D01*
X1791303Y1527559D01*
X1775560D01*
X1767689Y1535431D01*
X2157470Y1728334D02*
X2149599Y1736205D01*
X2133856D01*
X2125984Y1728334D01*
Y1696848D01*
X2133856Y1688976D01*
X2149599D01*
X2157470Y1696848D01*
X2173213Y1688976D02*
X2188956D01*
X2181085D01*
Y1736205D01*
X2173213Y1728334D01*
X2236185Y1688976D02*
Y1736205D01*
X2212570Y1712591D01*
X2244056D01*
X709278Y1616913D02*
X699282Y1626910D01*
X679288D01*
X669291Y1616913D01*
Y1576926D01*
X679288Y1566929D01*
X699282D01*
X709278Y1576926D01*
X729272Y1566929D02*
X749265D01*
X739269D01*
Y1626910D01*
X729272Y1616913D01*
X779256D02*
X789253Y1626910D01*
X809246D01*
X819243Y1616913D01*
Y1606916D01*
X809246Y1596919D01*
X799249D01*
X809246D01*
X819243Y1586923D01*
Y1576926D01*
X809246Y1566929D01*
X789253D01*
X779256Y1576926D01*
X1228964Y1309826D02*
X1218967Y1319823D01*
X1198973D01*
X1188976Y1309826D01*
Y1269839D01*
X1198973Y1259842D01*
X1218967D01*
X1228964Y1269839D01*
X1248957Y1259842D02*
X1268950D01*
X1258954D01*
Y1319823D01*
X1248957Y1309826D01*
X1338928Y1259842D02*
X1298941D01*
X1338928Y1299830D01*
Y1309826D01*
X1328931Y1319823D01*
X1308938D01*
X1298941Y1309826D01*
X2161407Y1862192D02*
X2153536Y1870063D01*
X2137793D01*
X2129921Y1862192D01*
Y1830706D01*
X2137793Y1822835D01*
X2153536D01*
X2161407Y1830706D01*
X2177150Y1822835D02*
X2192893D01*
X2185022D01*
Y1870063D01*
X2177150Y1862192D01*
X2216508Y1822835D02*
X2232250D01*
X2224379D01*
Y1870063D01*
X2216508Y1862192D01*
X984869Y2400378D02*
X974872Y2410374D01*
X954879D01*
X944882Y2400378D01*
Y2360390D01*
X954879Y2350394D01*
X974872D01*
X984869Y2360390D01*
X1004862Y2350394D02*
X1024856D01*
X1014859D01*
Y2410374D01*
X1004862Y2400378D01*
X1054846D02*
X1064843Y2410374D01*
X1084837D01*
X1094833Y2400378D01*
Y2360390D01*
X1084837Y2350394D01*
X1064843D01*
X1054846Y2360390D01*
Y2400378D01*
X2149596Y2200775D02*
X2141725Y2208646D01*
X2125982D01*
X2118110Y2200775D01*
Y2169289D01*
X2125982Y2161417D01*
X2141725D01*
X2149596Y2169289D01*
X2165339D02*
X2173211Y2161417D01*
X2188953D01*
X2196825Y2169289D01*
Y2200775D01*
X2188953Y2208646D01*
X2173211D01*
X2165339Y2200775D01*
Y2192903D01*
X2173211Y2185032D01*
X2196825D01*
X1570856Y2145657D02*
X1562985Y2153528D01*
X1547242D01*
X1539370Y2145657D01*
Y2114171D01*
X1547242Y2106299D01*
X1562985D01*
X1570856Y2114171D01*
X1586599Y2145657D02*
X1594470Y2153528D01*
X1610213D01*
X1618085Y2145657D01*
Y2137785D01*
X1610213Y2129914D01*
X1618085Y2122042D01*
Y2114171D01*
X1610213Y2106299D01*
X1594470D01*
X1586599Y2114171D01*
Y2122042D01*
X1594470Y2129914D01*
X1586599Y2137785D01*
Y2145657D01*
X1594470Y2129914D02*
X1610213D01*
X1685029Y2244082D02*
X1677158Y2251953D01*
X1661415D01*
X1653543Y2244082D01*
Y2212596D01*
X1661415Y2204724D01*
X1677158D01*
X1685029Y2212596D01*
X1700772Y2251953D02*
X1732258D01*
Y2244082D01*
X1700772Y2212596D01*
Y2204724D01*
X992743Y2026362D02*
X982746Y2036359D01*
X962753D01*
X952756Y2026362D01*
Y1986375D01*
X962753Y1976378D01*
X982746D01*
X992743Y1986375D01*
X1052724Y2036359D02*
X1032730Y2026362D01*
X1012736Y2006368D01*
Y1986375D01*
X1022733Y1976378D01*
X1042727D01*
X1052724Y1986375D01*
Y1996371D01*
X1042727Y2006368D01*
X1012736D01*
X4051798Y1164157D02*
X4041801Y1174154D01*
X4021808D01*
X4011811Y1164157D01*
Y1124170D01*
X4021808Y1114173D01*
X4041801D01*
X4051798Y1124170D01*
X4111779Y1174154D02*
X4071792D01*
Y1144164D01*
X4091785Y1154160D01*
X4101782D01*
X4111779Y1144164D01*
Y1124170D01*
X4101782Y1114173D01*
X4081788D01*
X4071792Y1124170D01*
X3496680Y1112976D02*
X3486683Y1122973D01*
X3466690D01*
X3456693Y1112976D01*
Y1072989D01*
X3466690Y1062992D01*
X3486683D01*
X3496680Y1072989D01*
X3546664Y1062992D02*
Y1122973D01*
X3516673Y1092982D01*
X3556661D01*
X768334Y2337385D02*
X758337Y2347382D01*
X738343D01*
X728346Y2337385D01*
Y2297398D01*
X738343Y2287402D01*
X758337D01*
X768334Y2297398D01*
X788327Y2337385D02*
X798324Y2347382D01*
X818317D01*
X828314Y2337385D01*
Y2327389D01*
X818317Y2317392D01*
X808321D01*
X818317D01*
X828314Y2307395D01*
Y2297398D01*
X818317Y2287402D01*
X798324D01*
X788327Y2297398D01*
X2748648Y2254708D02*
X2738652Y2264705D01*
X2718658D01*
X2708661Y2254708D01*
Y2214721D01*
X2718658Y2204724D01*
X2738652D01*
X2748648Y2214721D01*
X2808629Y2204724D02*
X2768642D01*
X2808629Y2244711D01*
Y2254708D01*
X2798632Y2264705D01*
X2778639D01*
X2768642Y2254708D01*
X221089Y2707464D02*
X211093Y2717461D01*
X191099D01*
X181102Y2707464D01*
Y2667477D01*
X191099Y2657480D01*
X211093D01*
X221089Y2667477D01*
X241083Y2657480D02*
X261077D01*
X251080D01*
Y2717461D01*
X241083Y2707464D01*
D44*
X840551Y368090D02*
X858918D01*
X849735D01*
Y340540D01*
X868101Y368090D02*
Y340540D01*
X881876D01*
X886468Y345132D01*
Y349724D01*
X881876Y354315D01*
X868101D01*
X881876D01*
X886468Y358907D01*
Y363499D01*
X881876Y368090D01*
X868101D01*
X923202Y340540D02*
Y368090D01*
X932385Y358907D01*
X941568Y368090D01*
Y340540D01*
X955344D02*
X964527D01*
X969119Y345132D01*
Y354315D01*
X964527Y358907D01*
X955344D01*
X950752Y354315D01*
Y345132D01*
X955344Y340540D01*
X982894Y363499D02*
Y358907D01*
X978302D01*
X987486D01*
X982894D01*
Y345132D01*
X987486Y340540D01*
X1005852D02*
X1015036D01*
X1019627Y345132D01*
Y354315D01*
X1015036Y358907D01*
X1005852D01*
X1001261Y354315D01*
Y345132D01*
X1005852Y340540D01*
X1028811Y358907D02*
Y340540D01*
Y349724D01*
X1033402Y354315D01*
X1037994Y358907D01*
X1042586D01*
X1083911Y368090D02*
Y340540D01*
X1097686D01*
X1102278Y345132D01*
Y363499D01*
X1097686Y368090D01*
X1083911D01*
X1111461Y358907D02*
Y340540D01*
Y349724D01*
X1116053Y354315D01*
X1120645Y358907D01*
X1125236D01*
X1139012Y340540D02*
X1148195D01*
X1143603D01*
Y358907D01*
X1139012D01*
X1161970D02*
X1171153Y340540D01*
X1180337Y358907D01*
X1203295Y340540D02*
X1194112D01*
X1189520Y345132D01*
Y354315D01*
X1194112Y358907D01*
X1203295D01*
X1207887Y354315D01*
Y349724D01*
X1189520D01*
X1217071Y358907D02*
Y340540D01*
Y349724D01*
X1221662Y354315D01*
X1226254Y358907D01*
X1230846D01*
X840551Y311674D02*
X849735Y293307D01*
X858918Y311674D01*
X868101Y293307D02*
X877285D01*
X872693D01*
Y320857D01*
X868101Y316265D01*
X891060Y293307D02*
Y297899D01*
X895652D01*
Y293307D01*
X891060D01*
X914018Y316265D02*
X918610Y320857D01*
X927793D01*
X932385Y316265D01*
Y297899D01*
X927793Y293307D01*
X918610D01*
X914018Y297899D01*
Y316265D01*
%TF.MD5,d70545c3513df00bd0e3af7b81b18fca*%
M02*
