G04*
G04 #@! TF.GenerationSoftware,Altium Limited,Altium Designer,19.1.8 (144)*
G04*
G04 Layer_Color=8421504*
%FSLAX25Y25*%
%MOIN*%
G70*
G01*
G75*
%ADD14R,0.05709X0.01575*%
%ADD15R,0.04134X0.05118*%
%ADD16R,0.05118X0.04134*%
%ADD17R,0.04134X0.05512*%
%ADD18R,0.05512X0.04134*%
%ADD19R,0.12598X0.06299*%
%ADD20R,0.29528X0.09843*%
%ADD21R,0.16142X0.07874*%
D14*
X160630Y156122D02*
D03*
Y158622D02*
D03*
Y161122D02*
D03*
Y163622D02*
D03*
Y166122D02*
D03*
Y168622D02*
D03*
Y171122D02*
D03*
Y173622D02*
D03*
Y176122D02*
D03*
Y178622D02*
D03*
Y181122D02*
D03*
Y183622D02*
D03*
Y186122D02*
D03*
Y188622D02*
D03*
Y191122D02*
D03*
Y193622D02*
D03*
Y196122D02*
D03*
Y198622D02*
D03*
X111811Y156122D02*
D03*
Y158622D02*
D03*
Y161122D02*
D03*
Y163622D02*
D03*
Y166122D02*
D03*
Y168622D02*
D03*
Y171122D02*
D03*
Y173622D02*
D03*
Y176122D02*
D03*
Y178622D02*
D03*
Y181122D02*
D03*
Y183622D02*
D03*
Y186122D02*
D03*
Y188622D02*
D03*
Y191122D02*
D03*
Y193622D02*
D03*
Y196122D02*
D03*
Y198622D02*
D03*
D15*
X78937Y180709D02*
D03*
X86221D02*
D03*
D16*
X70177Y176969D02*
D03*
Y184252D02*
D03*
X377165Y114567D02*
D03*
Y121851D02*
D03*
D17*
X185236Y134646D02*
D03*
X177953D02*
D03*
X177854Y143504D02*
D03*
X170571D02*
D03*
X78937Y170472D02*
D03*
X86221D02*
D03*
X177165Y212992D02*
D03*
X169882D02*
D03*
X179331Y222047D02*
D03*
X186614D02*
D03*
X392520Y114173D02*
D03*
X385236D02*
D03*
D18*
X101969Y140551D02*
D03*
Y147835D02*
D03*
X88681Y140748D02*
D03*
Y148031D02*
D03*
X213976Y146654D02*
D03*
Y153937D02*
D03*
X205512Y166831D02*
D03*
Y159547D02*
D03*
X111614Y135039D02*
D03*
Y127756D02*
D03*
X205610Y187894D02*
D03*
Y195177D02*
D03*
X111516Y221654D02*
D03*
Y228937D02*
D03*
X214567Y208465D02*
D03*
Y201181D02*
D03*
X101575Y207776D02*
D03*
Y215059D02*
D03*
X363386Y121850D02*
D03*
Y114567D02*
D03*
X81339Y215827D02*
D03*
Y223110D02*
D03*
D19*
X22736Y113681D02*
D03*
X42815D02*
D03*
D20*
X280512Y177165D02*
D03*
X333661D02*
D03*
D21*
X53543Y241831D02*
D03*
X19291D02*
D03*
M02*
