%TF.GenerationSoftware,Altium Limited,Altium Designer,19.1.8 (144)*%
G04 Layer_Color=2752767*
%FSLAX26Y26*%
%MOIN*%
%TF.FileFunction,Drawing*%
%TF.Part,Single*%
G01*
G75*
%TA.AperFunction,NonConductor*%
%ADD70C,0.005000*%
%ADD71C,0.006667*%
D70*
X4208346Y1885512D02*
Y1925512D01*
X4248346D01*
Y1885512D01*
X4208346D01*
Y1602047D02*
Y1642047D01*
X4248346D01*
Y1602047D01*
X4208346D01*
X2802835Y346142D02*
Y386142D01*
X2842835D01*
Y346142D01*
X2802835D01*
Y629606D02*
Y669606D01*
X2842835D01*
Y629606D01*
X2802835D01*
X2814646Y2881575D02*
Y2921575D01*
X2854646D01*
Y2881575D01*
X2814646D01*
Y3165039D02*
Y3205039D01*
X2854646D01*
Y3165039D01*
X2814646D01*
X605984Y2960315D02*
Y3000315D01*
X645984D01*
Y2960315D01*
X605984D01*
X889449D02*
Y3000315D01*
X929449D01*
Y2960315D01*
X889449D01*
X941142Y766417D02*
X921142Y806417D01*
X961142D01*
X941142Y766417D01*
X1729331Y2766417D02*
X1709331Y2806417D01*
X1749331D01*
X1729331Y2766417D01*
X4409449Y3365827D02*
X4419449Y3375827D01*
X4429449D01*
X4419449Y3385827D01*
X4429449Y3395827D01*
X4419449D01*
X4409449Y3405827D01*
X4399449Y3395827D01*
X4389449D01*
X4399449Y3385827D01*
X4389449Y3375827D01*
X4399449D01*
X4409449Y3365827D01*
X157480D02*
X167480Y3375827D01*
X177480D01*
X167480Y3385827D01*
X177480Y3395827D01*
X167480D01*
X157480Y3405827D01*
X147480Y3395827D01*
X137480D01*
X147480Y3385827D01*
X137480Y3375827D01*
X147480D01*
X157480Y3365827D01*
Y137480D02*
X167480Y147480D01*
X177480D01*
X167480Y157480D01*
X177480Y167480D01*
X167480D01*
X157480Y177480D01*
X147480Y167480D01*
X137480D01*
X147480Y157480D01*
X137480Y147480D01*
X147480D01*
X157480Y137480D01*
X4409449D02*
X4419449Y147480D01*
X4429449D01*
X4419449Y157480D01*
X4429449Y167480D01*
X4419449D01*
X4409449Y177480D01*
X4399449Y167480D01*
X4389449D01*
X4399449Y157480D01*
X4389449Y147480D01*
X4399449D01*
X4409449Y137480D01*
X1964252Y1877638D02*
X1974252Y1897638D01*
X1964252Y1917638D01*
X1984252Y1907638D01*
X2004252Y1917638D01*
X1994252Y1897638D01*
X2004252Y1877638D01*
X1984252Y1887638D01*
X1964252Y1877638D01*
Y1625669D02*
X1974252Y1645669D01*
X1964252Y1665669D01*
X1984252Y1655669D01*
X2004252Y1665669D01*
X1994252Y1645669D01*
X2004252Y1625669D01*
X1984252Y1635669D01*
X1964252Y1625669D01*
X905197Y1779213D02*
X915197Y1799213D01*
X905197Y1819213D01*
X925197Y1809213D01*
X945197Y1819213D01*
X935197Y1799213D01*
X945197Y1779213D01*
X925197Y1789213D01*
X905197Y1779213D01*
X627795Y1458504D02*
Y1448504D01*
X647795D01*
Y1458504D01*
X657795D01*
Y1478504D01*
X647795D01*
Y1488504D01*
X627795D01*
Y1478504D01*
X617795D01*
Y1458504D01*
X627795D01*
X112047Y1836457D02*
Y1826457D01*
X132047D01*
Y1836457D01*
X142047D01*
Y1856457D01*
X132047D01*
Y1866457D01*
X112047D01*
Y1856457D01*
X102047D01*
Y1836457D01*
X112047D01*
X883701Y2671102D02*
Y2661102D01*
X903701D01*
Y2671102D01*
X913701D01*
Y2691102D01*
X903701D01*
Y2701102D01*
X883701D01*
Y2691102D01*
X873701D01*
Y2671102D01*
X883701D01*
X3147480Y3037244D02*
Y3027244D01*
X3167480D01*
Y3037244D01*
X3177480D01*
Y3057244D01*
X3167480D01*
Y3067244D01*
X3147480D01*
Y3057244D01*
X3137480D01*
Y3037244D01*
X3147480D01*
X2537244D02*
Y3027244D01*
X2557244D01*
Y3037244D01*
X2567244D01*
Y3057244D01*
X2557244D01*
Y3067244D01*
X2537244D01*
Y3057244D01*
X2527244D01*
Y3037244D01*
X2537244D01*
X716772Y2221102D02*
Y2211102D01*
X736772D01*
Y2221102D01*
X746772D01*
Y2241102D01*
X736772D01*
Y2251102D01*
X716772D01*
Y2241102D01*
X706772D01*
Y2221102D01*
X716772D01*
X609921Y2145354D02*
X619921D01*
X629921Y2155354D01*
X639921Y2145354D01*
X649921D01*
Y2155354D01*
X639921Y2165354D01*
X649921Y2175354D01*
Y2185354D01*
X639921D01*
X629921Y2175354D01*
X619921Y2185354D01*
X609921D01*
Y2175354D01*
X619921Y2165354D01*
X609921Y2155354D01*
Y2145354D01*
X749842Y777402D02*
Y767402D01*
X769842D01*
Y777402D01*
X779842D01*
Y797402D01*
X769842D01*
Y807402D01*
X749842D01*
Y797402D01*
X739842D01*
Y777402D01*
X749842D01*
X3478189Y1186850D02*
Y1176850D01*
X3498189D01*
Y1186850D01*
X3508189D01*
Y1206850D01*
X3498189D01*
Y1216850D01*
X3478189D01*
Y1206850D01*
X3468189D01*
Y1186850D01*
X3478189D01*
X2793150Y1663228D02*
Y1653228D01*
X2813150D01*
Y1663228D01*
X2823150D01*
Y1683228D01*
X2813150D01*
Y1693228D01*
X2793150D01*
Y1683228D01*
X2783150D01*
Y1663228D01*
X2793150D01*
X2797087Y1864016D02*
Y1854016D01*
X2817087D01*
Y1864016D01*
X2827087D01*
Y1884016D01*
X2817087D01*
Y1894016D01*
X2797087D01*
Y1884016D01*
X2787087D01*
Y1864016D01*
X2797087D01*
X2486063Y1757716D02*
Y1747716D01*
X2506063D01*
Y1757716D01*
X2516063D01*
Y1777716D01*
X2506063D01*
Y1787716D01*
X2486063D01*
Y1777716D01*
X2476063D01*
Y1757716D01*
X2486063D01*
X2990000Y3364016D02*
Y3354016D01*
X3010000D01*
Y3364016D01*
X3020000D01*
Y3384016D01*
X3010000D01*
Y3394016D01*
X2990000D01*
Y3384016D01*
X2980000D01*
Y3364016D01*
X2990000D01*
X2297087D02*
Y3354016D01*
X2317087D01*
Y3364016D01*
X2327087D01*
Y3384016D01*
X2317087D01*
Y3394016D01*
X2297087D01*
Y3384016D01*
X2287087D01*
Y3364016D01*
X2297087D01*
X1659291Y3367953D02*
Y3357953D01*
X1679291D01*
Y3367953D01*
X1689291D01*
Y3387953D01*
X1679291D01*
Y3397953D01*
X1659291D01*
Y3387953D01*
X1649291D01*
Y3367953D01*
X1659291D01*
X293150Y2930945D02*
Y2920945D01*
X313150D01*
Y2930945D01*
X323150D01*
Y2950945D01*
X313150D01*
Y2960945D01*
X293150D01*
Y2950945D01*
X283150D01*
Y2930945D01*
X293150D01*
X186850Y655354D02*
Y645354D01*
X206850D01*
Y655354D01*
X216850D01*
Y675354D01*
X206850D01*
Y685354D01*
X186850D01*
Y675354D01*
X176850D01*
Y655354D01*
X186850D01*
X678976Y253780D02*
Y243780D01*
X698976D01*
Y253780D01*
X708976D01*
Y273779D01*
X698976D01*
Y283779D01*
X678976D01*
Y273779D01*
X668976D01*
Y253780D01*
X678976D01*
X1647480Y163228D02*
Y153228D01*
X1667480D01*
Y163228D01*
X1677480D01*
Y183228D01*
X1667480D01*
Y193228D01*
X1647480D01*
Y183228D01*
X1637480D01*
Y163228D01*
X1647480D01*
X2482126Y186850D02*
Y176850D01*
X2502126D01*
Y186850D01*
X2512126D01*
Y206850D01*
X2502126D01*
Y216850D01*
X2482126D01*
Y206850D01*
X2472126D01*
Y186850D01*
X2482126D01*
X3360079Y175039D02*
Y165039D01*
X3380079D01*
Y175039D01*
X3390079D01*
Y195039D01*
X3380079D01*
Y205039D01*
X3360079D01*
Y195039D01*
X3350079D01*
Y175039D01*
X3360079D01*
X3521496Y686850D02*
Y676850D01*
X3541496D01*
Y686850D01*
X3551496D01*
Y706850D01*
X3541496D01*
Y716850D01*
X3521496D01*
Y706850D01*
X3511496D01*
Y686850D01*
X3521496D01*
X3974252Y297087D02*
Y287087D01*
X3994252D01*
Y297087D01*
X4004252D01*
Y317087D01*
X3994252D01*
Y327087D01*
X3974252D01*
Y317087D01*
X3964252D01*
Y297087D01*
X3974252D01*
X4273465Y970315D02*
Y960315D01*
X4293465D01*
Y970315D01*
X4303465D01*
Y990315D01*
X4293465D01*
Y1000315D01*
X4273465D01*
Y990315D01*
X4263465D01*
Y970315D01*
X4273465D01*
X3816772Y1533307D02*
Y1523307D01*
X3836772D01*
Y1533307D01*
X3846772D01*
Y1553307D01*
X3836772D01*
Y1563307D01*
X3816772D01*
Y1553307D01*
X3806772D01*
Y1533307D01*
X3816772D01*
X3804961Y2167165D02*
Y2157165D01*
X3824961D01*
Y2167165D01*
X3834961D01*
Y2187165D01*
X3824961D01*
Y2197165D01*
X3804961D01*
Y2187165D01*
X3794961D01*
Y2167165D01*
X3804961D01*
X4127795Y2462441D02*
Y2452441D01*
X4147795D01*
Y2462441D01*
X4157795D01*
Y2482441D01*
X4147795D01*
Y2492441D01*
X4127795D01*
Y2482441D01*
X4117795D01*
Y2462441D01*
X4127795D01*
X4304961Y2946693D02*
Y2936693D01*
X4324961D01*
Y2946693D01*
X4334961D01*
Y2966693D01*
X4324961D01*
Y2976693D01*
X4304961D01*
Y2966693D01*
X4294961D01*
Y2946693D01*
X4304961D01*
X3824646Y2836457D02*
Y2826457D01*
X3844646D01*
Y2836457D01*
X3854646D01*
Y2856457D01*
X3844646D01*
Y2866457D01*
X3824646D01*
Y2856457D01*
X3814646D01*
Y2836457D01*
X3824646D01*
X3474252Y2537244D02*
Y2527244D01*
X3494252D01*
Y2537244D01*
X3504252D01*
Y2557244D01*
X3494252D01*
Y2567244D01*
X3474252D01*
Y2557244D01*
X3464252D01*
Y2537244D01*
X3474252D01*
X3568740Y3261653D02*
Y3251653D01*
X3588740D01*
Y3261653D01*
X3598740D01*
Y3281653D01*
X3588740D01*
Y3291653D01*
X3568740D01*
Y3281653D01*
X3558740D01*
Y3261653D01*
X3568740D01*
X3867953Y1289213D02*
Y1279213D01*
X3887953D01*
Y1289213D01*
X3897953D01*
Y1309213D01*
X3887953D01*
Y1319213D01*
X3867953D01*
Y1309213D01*
X3857953D01*
Y1289213D01*
X3867953D01*
X3950630Y1041181D02*
Y1031181D01*
X3970630D01*
Y1041181D01*
X3980630D01*
Y1061181D01*
X3970630D01*
Y1071181D01*
X3950630D01*
Y1061181D01*
X3940630D01*
Y1041181D01*
X3950630D01*
X3619921Y1045118D02*
Y1035118D01*
X3639921D01*
Y1045118D01*
X3649921D01*
Y1065118D01*
X3639921D01*
Y1075118D01*
X3619921D01*
Y1065118D01*
X3609921D01*
Y1045118D01*
X3619921D01*
X1293150Y3115984D02*
Y3105984D01*
X1313150D01*
Y3115984D01*
X1323150D01*
Y3135984D01*
X1313150D01*
Y3145984D01*
X1293150D01*
Y3135984D01*
X1283150D01*
Y3115984D01*
X1293150D01*
X1301024Y423071D02*
Y413071D01*
X1321024D01*
Y423071D01*
X1331024D01*
Y443071D01*
X1321024D01*
Y453071D01*
X1301024D01*
Y443071D01*
X1291024D01*
Y423071D01*
X1301024D01*
X64803Y1206535D02*
Y1196535D01*
X84803D01*
Y1206535D01*
X94803D01*
Y1226535D01*
X84803D01*
Y1236535D01*
X64803D01*
Y1226535D01*
X54803D01*
Y1206535D01*
X64803D01*
X226220Y1017559D02*
Y1007559D01*
X246220D01*
Y1017559D01*
X256221D01*
Y1037559D01*
X246220D01*
Y1047559D01*
X226220D01*
Y1037559D01*
X216220D01*
Y1017559D01*
X226220D01*
X289213Y1230158D02*
Y1220158D01*
X309213D01*
Y1230158D01*
X319213D01*
Y1250158D01*
X309213D01*
Y1260158D01*
X289213D01*
Y1250158D01*
X279213D01*
Y1230158D01*
X289213D01*
X663228Y3241968D02*
Y3231968D01*
X683228D01*
Y3241968D01*
X693228D01*
Y3261968D01*
X683228D01*
Y3271968D01*
X663228D01*
Y3261968D01*
X653228D01*
Y3241968D01*
X663228D01*
X367953Y3214409D02*
Y3204409D01*
X387953D01*
Y3214409D01*
X397953D01*
Y3234409D01*
X387953D01*
Y3244409D01*
X367953D01*
Y3234409D01*
X357953D01*
Y3214409D01*
X367953D01*
X958504Y3249843D02*
Y3239843D01*
X978504D01*
Y3249843D01*
X988504D01*
Y3269843D01*
X978504D01*
Y3279843D01*
X958504D01*
Y3269843D01*
X948504D01*
Y3249843D01*
X958504D01*
X651417Y2564803D02*
Y2554803D01*
X671417D01*
Y2564803D01*
X681417D01*
Y2584803D01*
X671417D01*
Y2594803D01*
X651417D01*
Y2584803D01*
X641417D01*
Y2564803D01*
X651417D01*
X1127795Y2741968D02*
Y2731968D01*
X1147795D01*
Y2741968D01*
X1157795D01*
Y2761968D01*
X1147795D01*
Y2771968D01*
X1127795D01*
Y2761968D01*
X1117795D01*
Y2741968D01*
X1127795D01*
X1115984Y1131732D02*
Y1121732D01*
X1135984D01*
Y1131732D01*
X1145984D01*
Y1151732D01*
X1135984D01*
Y1161732D01*
X1115984D01*
Y1151732D01*
X1105984D01*
Y1131732D01*
X1115984D01*
X1119921Y777402D02*
Y767402D01*
X1139921D01*
Y777402D01*
X1149921D01*
Y797402D01*
X1139921D01*
Y807402D01*
X1119921D01*
Y797402D01*
X1109921D01*
Y777402D01*
X1119921D01*
X602047Y1787402D02*
X622047Y1807402D01*
X642047Y1787402D01*
X622047Y1767402D01*
X602047Y1787402D01*
X692598Y1688976D02*
X712598Y1708976D01*
X732598Y1688976D01*
X712598Y1668976D01*
X692598Y1688976D01*
X932756Y1488189D02*
X952756Y1508189D01*
X972756Y1488189D01*
X952756Y1468189D01*
X932756Y1488189D01*
X802835Y1366142D02*
X822835Y1386142D01*
X842835Y1366142D01*
X822835Y1346142D01*
X802835Y1366142D01*
X846142Y2066614D02*
X856142D01*
X866142Y2076614D01*
X876142Y2066614D01*
X886142D01*
Y2076614D01*
X876142Y2086614D01*
X886142Y2096614D01*
Y2106614D01*
X876142D01*
X866142Y2096614D01*
X856142Y2106614D01*
X846142D01*
Y2096614D01*
X856142Y2086614D01*
X846142Y2076614D01*
Y2066614D01*
X176850Y2539055D02*
X186850D01*
X196850Y2549055D01*
X206850Y2539055D01*
X216850D01*
Y2549055D01*
X206850Y2559055D01*
X216850Y2569055D01*
Y2579055D01*
X206850D01*
X196850Y2569055D01*
X186850Y2579055D01*
X176850D01*
Y2569055D01*
X186850Y2559055D01*
X176850Y2549055D01*
Y2539055D01*
Y2263465D02*
X186850D01*
X196850Y2273465D01*
X206850Y2263465D01*
X216850D01*
Y2273465D01*
X206850Y2283465D01*
X216850Y2293465D01*
Y2303465D01*
X206850D01*
X196850Y2293465D01*
X186850Y2303465D01*
X176850D01*
Y2293465D01*
X186850Y2283465D01*
X176850Y2273465D01*
Y2263465D01*
X1121732Y2420945D02*
X1131732D01*
X1141732Y2430945D01*
X1151732Y2420945D01*
X1161732D01*
Y2430945D01*
X1151732Y2440945D01*
X1161732Y2450945D01*
Y2460945D01*
X1151732D01*
X1141732Y2450945D01*
X1131732Y2460945D01*
X1121732D01*
Y2450945D01*
X1131732Y2440945D01*
X1121732Y2430945D01*
Y2420945D01*
X1003622Y2224095D02*
X1013622D01*
X1023622Y2234095D01*
X1033622Y2224095D01*
X1043622D01*
Y2234095D01*
X1033622Y2244095D01*
X1043622Y2254095D01*
Y2264095D01*
X1033622D01*
X1023622Y2254095D01*
X1013622Y2264095D01*
X1003622D01*
Y2254095D01*
X1013622Y2244095D01*
X1003622Y2234095D01*
Y2224095D01*
X1200472Y1751653D02*
X1210472D01*
X1220472Y1761653D01*
X1230472Y1751653D01*
X1240472D01*
Y1761653D01*
X1230472Y1771653D01*
X1240472Y1781653D01*
Y1791653D01*
X1230472D01*
X1220472Y1781653D01*
X1210472Y1791653D01*
X1200472D01*
Y1781653D01*
X1210472Y1771653D01*
X1200472Y1761653D01*
Y1751653D01*
X1082362Y2066614D02*
X1092362D01*
X1102362Y2076614D01*
X1112362Y2066614D01*
X1122362D01*
Y2076614D01*
X1112362Y2086614D01*
X1122362Y2096614D01*
Y2106614D01*
X1112362D01*
X1102362Y2096614D01*
X1092362Y2106614D01*
X1082362D01*
Y2096614D01*
X1092362Y2086614D01*
X1082362Y2076614D01*
Y2066614D01*
Y1436693D02*
X1092362D01*
X1102362Y1446693D01*
X1112362Y1436693D01*
X1122362D01*
Y1446693D01*
X1112362Y1456693D01*
X1122362Y1466693D01*
Y1476693D01*
X1112362D01*
X1102362Y1466693D01*
X1092362Y1476693D01*
X1082362D01*
Y1466693D01*
X1092362Y1456693D01*
X1082362Y1446693D01*
Y1436693D01*
X2105984Y2972126D02*
X2115984D01*
X2125984Y2982126D01*
X2135984Y2972126D01*
X2145984D01*
Y2982126D01*
X2135984Y2992126D01*
X2145984Y3002126D01*
Y3012126D01*
X2135984D01*
X2125984Y3002126D01*
X2115984Y3012126D01*
X2105984D01*
Y3002126D01*
X2115984Y2992126D01*
X2105984Y2982126D01*
Y2972126D01*
X1948504Y2735905D02*
X1958504D01*
X1968504Y2745905D01*
X1978504Y2735905D01*
X1988504D01*
Y2745905D01*
X1978504Y2755905D01*
X1988504Y2765905D01*
Y2775905D01*
X1978504D01*
X1968504Y2765905D01*
X1958504Y2775905D01*
X1948504D01*
Y2765905D01*
X1958504Y2755905D01*
X1948504Y2745905D01*
Y2735905D01*
X1712284Y3011496D02*
X1722284D01*
X1732284Y3021496D01*
X1742284Y3011496D01*
X1752284D01*
Y3021496D01*
X1742284Y3031496D01*
X1752284Y3041496D01*
Y3051496D01*
X1742284D01*
X1732284Y3041496D01*
X1722284Y3051496D01*
X1712284D01*
Y3041496D01*
X1722284Y3031496D01*
X1712284Y3021496D01*
Y3011496D01*
X1436693Y2735905D02*
X1446693D01*
X1456693Y2745905D01*
X1466693Y2735905D01*
X1476693D01*
Y2745905D01*
X1466693Y2755905D01*
X1476693Y2765905D01*
Y2775905D01*
X1466693D01*
X1456693Y2765905D01*
X1446693Y2775905D01*
X1436693D01*
Y2765905D01*
X1446693Y2755905D01*
X1436693Y2745905D01*
Y2735905D01*
X1751653Y2539055D02*
X1761653D01*
X1771653Y2549055D01*
X1781653Y2539055D01*
X1791653D01*
Y2549055D01*
X1781653Y2559055D01*
X1791653Y2569055D01*
Y2579055D01*
X1781653D01*
X1771653Y2569055D01*
X1761653Y2579055D01*
X1751653D01*
Y2569055D01*
X1761653Y2559055D01*
X1751653Y2549055D01*
Y2539055D01*
X1397323Y2499685D02*
X1407323D01*
X1417323Y2509685D01*
X1427323Y2499685D01*
X1437323D01*
Y2509685D01*
X1427323Y2519685D01*
X1437323Y2529685D01*
Y2539685D01*
X1427323D01*
X1417323Y2529685D01*
X1407323Y2539685D01*
X1397323D01*
Y2529685D01*
X1407323Y2519685D01*
X1397323Y2509685D01*
Y2499685D01*
X1554803Y2342205D02*
X1564803D01*
X1574803Y2352205D01*
X1584803Y2342205D01*
X1594803D01*
Y2352205D01*
X1584803Y2362205D01*
X1594803Y2372205D01*
Y2382205D01*
X1584803D01*
X1574803Y2372205D01*
X1564803Y2382205D01*
X1554803D01*
Y2372205D01*
X1564803Y2362205D01*
X1554803Y2352205D01*
Y2342205D01*
X1397323Y2184724D02*
X1407323D01*
X1417323Y2194724D01*
X1427323Y2184724D01*
X1437323D01*
Y2194724D01*
X1427323Y2204724D01*
X1437323Y2214724D01*
Y2224724D01*
X1427323D01*
X1417323Y2214724D01*
X1407323Y2224724D01*
X1397323D01*
Y2214724D01*
X1407323Y2204724D01*
X1397323Y2194724D01*
Y2184724D01*
Y1594173D02*
X1407323D01*
X1417323Y1604173D01*
X1427323Y1594173D01*
X1437323D01*
Y1604173D01*
X1427323Y1614173D01*
X1437323Y1624173D01*
Y1634173D01*
X1427323D01*
X1417323Y1624173D01*
X1407323Y1634173D01*
X1397323D01*
Y1624173D01*
X1407323Y1614173D01*
X1397323Y1604173D01*
Y1594173D01*
Y1909134D02*
X1407323D01*
X1417323Y1919134D01*
X1427323Y1909134D01*
X1437323D01*
Y1919134D01*
X1427323Y1929134D01*
X1437323Y1939134D01*
Y1949134D01*
X1427323D01*
X1417323Y1939134D01*
X1407323Y1949134D01*
X1397323D01*
Y1939134D01*
X1407323Y1929134D01*
X1397323Y1919134D01*
Y1909134D01*
X3050866Y2735905D02*
X3060866D01*
X3070866Y2745905D01*
X3080866Y2735905D01*
X3090866D01*
Y2745905D01*
X3080866Y2755905D01*
X3090866Y2765905D01*
Y2775905D01*
X3080866D01*
X3070866Y2765905D01*
X3060866Y2775905D01*
X3050866D01*
Y2765905D01*
X3060866Y2755905D01*
X3050866Y2745905D01*
Y2735905D01*
X2657165Y2688661D02*
X2667165D01*
X2677165Y2698661D01*
X2687165Y2688661D01*
X2697165D01*
Y2698661D01*
X2687165Y2708661D01*
X2697165Y2718661D01*
Y2728661D01*
X2687165D01*
X2677165Y2718661D01*
X2667165Y2728661D01*
X2657165D01*
Y2718661D01*
X2667165Y2708661D01*
X2657165Y2698661D01*
Y2688661D01*
X2814646Y2578425D02*
X2824646D01*
X2834646Y2588425D01*
X2844646Y2578425D01*
X2854646D01*
Y2588425D01*
X2844646Y2598425D01*
X2854646Y2608425D01*
Y2618425D01*
X2844646D01*
X2834646Y2608425D01*
X2824646Y2618425D01*
X2814646D01*
Y2608425D01*
X2824646Y2598425D01*
X2814646Y2588425D01*
Y2578425D01*
X2499685D02*
X2509685D01*
X2519685Y2588425D01*
X2529685Y2578425D01*
X2539685D01*
Y2588425D01*
X2529685Y2598425D01*
X2539685Y2608425D01*
Y2618425D01*
X2529685D01*
X2519685Y2608425D01*
X2509685Y2618425D01*
X2499685D01*
Y2608425D01*
X2509685Y2598425D01*
X2499685Y2588425D01*
Y2578425D01*
X2184724Y2499685D02*
X2194724D01*
X2204724Y2509685D01*
X2214724Y2499685D01*
X2224724D01*
Y2509685D01*
X2214724Y2519685D01*
X2224724Y2529685D01*
Y2539685D01*
X2214724D01*
X2204724Y2529685D01*
X2194724Y2539685D01*
X2184724D01*
Y2529685D01*
X2194724Y2519685D01*
X2184724Y2509685D01*
Y2499685D01*
X2027244Y2342205D02*
X2037244D01*
X2047244Y2352205D01*
X2057244Y2342205D01*
X2067244D01*
Y2352205D01*
X2057244Y2362205D01*
X2067244Y2372205D01*
Y2382205D01*
X2057244D01*
X2047244Y2372205D01*
X2037244Y2382205D01*
X2027244D01*
Y2372205D01*
X2037244Y2362205D01*
X2027244Y2352205D01*
Y2342205D01*
X1948504Y2184724D02*
X1958504D01*
X1968504Y2194724D01*
X1978504Y2184724D01*
X1988504D01*
Y2194724D01*
X1978504Y2204724D01*
X1988504Y2214724D01*
Y2224724D01*
X1978504D01*
X1968504Y2214724D01*
X1958504Y2224724D01*
X1948504D01*
Y2214724D01*
X1958504Y2204724D01*
X1948504Y2194724D01*
Y2184724D01*
X1830394Y2066614D02*
X1840394D01*
X1850394Y2076614D01*
X1860394Y2066614D01*
X1870394D01*
Y2076614D01*
X1860394Y2086614D01*
X1870394Y2096614D01*
Y2106614D01*
X1860394D01*
X1850394Y2096614D01*
X1840394Y2106614D01*
X1830394D01*
Y2096614D01*
X1840394Y2086614D01*
X1830394Y2076614D01*
Y2066614D01*
X2972126Y688661D02*
X2982126D01*
X2992126Y698661D01*
X3002126Y688661D01*
X3012126D01*
Y698661D01*
X3002126Y708661D01*
X3012126Y718661D01*
Y728661D01*
X3002126D01*
X2992126Y718661D01*
X2982126Y728661D01*
X2972126D01*
Y718661D01*
X2982126Y708661D01*
X2972126Y698661D01*
Y688661D01*
X3050866Y964252D02*
X3060866D01*
X3070866Y974252D01*
X3080866Y964252D01*
X3090866D01*
Y974252D01*
X3080866Y984252D01*
X3090866Y994252D01*
Y1004252D01*
X3080866D01*
X3070866Y994252D01*
X3060866Y1004252D01*
X3050866D01*
Y994252D01*
X3060866Y984252D01*
X3050866Y974252D01*
Y964252D01*
X2657165D02*
X2667165D01*
X2677165Y974252D01*
X2687165Y964252D01*
X2697165D01*
Y974252D01*
X2687165Y984252D01*
X2697165Y994252D01*
Y1004252D01*
X2687165D01*
X2677165Y994252D01*
X2667165Y1004252D01*
X2657165D01*
Y994252D01*
X2667165Y984252D01*
X2657165Y974252D01*
Y964252D01*
X2550866Y747716D02*
X2560866D01*
X2570866Y757716D01*
X2580866Y747716D01*
X2590866D01*
Y757716D01*
X2580866Y767716D01*
X2590866Y777716D01*
Y787716D01*
X2580866D01*
X2570866Y777716D01*
X2560866Y787716D01*
X2550866D01*
Y777716D01*
X2560866Y767716D01*
X2550866Y757716D01*
Y747716D01*
X2302835Y885512D02*
X2312835D01*
X2322835Y895512D01*
X2332835Y885512D01*
X2342835D01*
Y895512D01*
X2332835Y905512D01*
X2342835Y915512D01*
Y925512D01*
X2332835D01*
X2322835Y915512D01*
X2312835Y925512D01*
X2302835D01*
Y915512D01*
X2312835Y905512D01*
X2302835Y895512D01*
Y885512D01*
X2066614Y1082362D02*
X2076614D01*
X2086614Y1092362D01*
X2096614Y1082362D01*
X2106614D01*
Y1092362D01*
X2096614Y1102362D01*
X2106614Y1112362D01*
Y1122362D01*
X2096614D01*
X2086614Y1112362D01*
X2076614Y1122362D01*
X2066614D01*
Y1112362D01*
X2076614Y1102362D01*
X2066614Y1092362D01*
Y1082362D01*
X1948504Y1318583D02*
X1958504D01*
X1968504Y1328583D01*
X1978504Y1318583D01*
X1988504D01*
Y1328583D01*
X1978504Y1338583D01*
X1988504Y1348583D01*
Y1358583D01*
X1978504D01*
X1968504Y1348583D01*
X1958504Y1358583D01*
X1948504D01*
Y1348583D01*
X1958504Y1338583D01*
X1948504Y1328583D01*
Y1318583D01*
X1830394Y1436693D02*
X1840394D01*
X1850394Y1446693D01*
X1860394Y1436693D01*
X1870394D01*
Y1446693D01*
X1860394Y1456693D01*
X1870394Y1466693D01*
Y1476693D01*
X1860394D01*
X1850394Y1466693D01*
X1840394Y1476693D01*
X1830394D01*
Y1466693D01*
X1840394Y1456693D01*
X1830394Y1446693D01*
Y1436693D01*
X1672913Y609921D02*
X1682913D01*
X1692913Y619921D01*
X1702913Y609921D01*
X1712913D01*
Y619921D01*
X1702913Y629921D01*
X1712913Y639921D01*
Y649921D01*
X1702913D01*
X1692913Y639921D01*
X1682913Y649921D01*
X1672913D01*
Y639921D01*
X1682913Y629921D01*
X1672913Y619921D01*
Y609921D01*
X1476063Y846142D02*
X1486063D01*
X1496063Y856142D01*
X1506063Y846142D01*
X1516063D01*
Y856142D01*
X1506063Y866142D01*
X1516063Y876142D01*
Y886142D01*
X1506063D01*
X1496063Y876142D01*
X1486063Y886142D01*
X1476063D01*
Y876142D01*
X1486063Y866142D01*
X1476063Y856142D01*
Y846142D01*
X2105984Y570551D02*
X2115984D01*
X2125984Y580551D01*
X2135984Y570551D01*
X2145984D01*
Y580551D01*
X2135984Y590551D01*
X2145984Y600551D01*
Y610551D01*
X2135984D01*
X2125984Y600551D01*
X2115984Y610551D01*
X2105984D01*
Y600551D01*
X2115984Y590551D01*
X2105984Y580551D01*
Y570551D01*
X1869764Y806772D02*
X1879764D01*
X1889764Y816772D01*
X1899764Y806772D01*
X1909764D01*
Y816772D01*
X1899764Y826772D01*
X1909764Y836772D01*
Y846772D01*
X1899764D01*
X1889764Y836772D01*
X1879764Y846772D01*
X1869764D01*
Y836772D01*
X1879764Y826772D01*
X1869764Y816772D01*
Y806772D01*
X1633543Y1003622D02*
X1643543D01*
X1653543Y1013622D01*
X1663543Y1003622D01*
X1673543D01*
Y1013622D01*
X1663543Y1023622D01*
X1673543Y1033622D01*
Y1043622D01*
X1663543D01*
X1653543Y1033622D01*
X1643543Y1043622D01*
X1633543D01*
Y1033622D01*
X1643543Y1023622D01*
X1633543Y1013622D01*
Y1003622D01*
X1436693Y1200472D02*
X1446693D01*
X1456693Y1210472D01*
X1466693Y1200472D01*
X1476693D01*
Y1210472D01*
X1466693Y1220472D01*
X1476693Y1230472D01*
Y1240472D01*
X1466693D01*
X1456693Y1230472D01*
X1446693Y1240472D01*
X1436693D01*
Y1230472D01*
X1446693Y1220472D01*
X1436693Y1210472D01*
Y1200472D01*
X3090236Y2145354D02*
X3100236D01*
X3110236Y2155354D01*
X3120236Y2145354D01*
X3130236D01*
Y2155354D01*
X3120236Y2165354D01*
X3130236Y2175354D01*
Y2185354D01*
X3120236D01*
X3110236Y2175354D01*
X3100236Y2185354D01*
X3090236D01*
Y2175354D01*
X3100236Y2165354D01*
X3090236Y2155354D01*
Y2145354D01*
X2854016D02*
X2864016D01*
X2874016Y2155354D01*
X2884016Y2145354D01*
X2894016D01*
Y2155354D01*
X2884016Y2165354D01*
X2894016Y2175354D01*
Y2185354D01*
X2884016D01*
X2874016Y2175354D01*
X2864016Y2185354D01*
X2854016D01*
Y2175354D01*
X2864016Y2165354D01*
X2854016Y2155354D01*
Y2145354D01*
X2539055D02*
X2549055D01*
X2559055Y2155354D01*
X2569055Y2145354D01*
X2579055D01*
Y2155354D01*
X2569055Y2165354D01*
X2579055Y2175354D01*
Y2185354D01*
X2569055D01*
X2559055Y2175354D01*
X2549055Y2185354D01*
X2539055D01*
Y2175354D01*
X2549055Y2165354D01*
X2539055Y2155354D01*
Y2145354D01*
X2342205Y2105984D02*
X2352205D01*
X2362205Y2115984D01*
X2372205Y2105984D01*
X2382205D01*
Y2115984D01*
X2372205Y2125984D01*
X2382205Y2135984D01*
Y2145984D01*
X2372205D01*
X2362205Y2135984D01*
X2352205Y2145984D01*
X2342205D01*
Y2135984D01*
X2352205Y2125984D01*
X2342205Y2115984D01*
Y2105984D01*
X2224095Y1987874D02*
X2234095D01*
X2244095Y1997874D01*
X2254095Y1987874D01*
X2264095D01*
Y1997874D01*
X2254095Y2007874D01*
X2264095Y2017874D01*
Y2027874D01*
X2254095D01*
X2244095Y2017874D01*
X2234095Y2027874D01*
X2224095D01*
Y2017874D01*
X2234095Y2007874D01*
X2224095Y1997874D01*
Y1987874D01*
X2539055Y1672913D02*
X2549055D01*
X2559055Y1682913D01*
X2569055Y1672913D01*
X2579055D01*
Y1682913D01*
X2569055Y1692913D01*
X2579055Y1702913D01*
Y1712913D01*
X2569055D01*
X2559055Y1702913D01*
X2549055Y1712913D01*
X2539055D01*
Y1702913D01*
X2549055Y1692913D01*
X2539055Y1682913D01*
Y1672913D01*
Y1830394D02*
X2549055D01*
X2559055Y1840394D01*
X2569055Y1830394D01*
X2579055D01*
Y1840394D01*
X2569055Y1850394D01*
X2579055Y1860394D01*
Y1870394D01*
X2569055D01*
X2559055Y1860394D01*
X2549055Y1870394D01*
X2539055D01*
Y1860394D01*
X2549055Y1850394D01*
X2539055Y1840394D01*
Y1830394D01*
X3050866D02*
X3060866D01*
X3070866Y1840394D01*
X3080866Y1830394D01*
X3090866D01*
Y1840394D01*
X3080866Y1850394D01*
X3090866Y1860394D01*
Y1870394D01*
X3080866D01*
X3070866Y1860394D01*
X3060866Y1870394D01*
X3050866D01*
Y1860394D01*
X3060866Y1850394D01*
X3050866Y1840394D01*
Y1830394D01*
Y1672913D02*
X3060866D01*
X3070866Y1682913D01*
X3080866Y1672913D01*
X3090866D01*
Y1682913D01*
X3080866Y1692913D01*
X3090866Y1702913D01*
Y1712913D01*
X3080866D01*
X3070866Y1702913D01*
X3060866Y1712913D01*
X3050866D01*
Y1702913D01*
X3060866Y1692913D01*
X3050866Y1682913D01*
Y1672913D01*
X2420945D02*
X2430945D01*
X2440945Y1682913D01*
X2450945Y1672913D01*
X2460945D01*
Y1682913D01*
X2450945Y1692913D01*
X2460945Y1702913D01*
Y1712913D01*
X2450945D01*
X2440945Y1702913D01*
X2430945Y1712913D01*
X2420945D01*
Y1702913D01*
X2430945Y1692913D01*
X2420945Y1682913D01*
Y1672913D01*
Y1830394D02*
X2430945D01*
X2440945Y1840394D01*
X2450945Y1830394D01*
X2460945D01*
Y1840394D01*
X2450945Y1850394D01*
X2460945Y1860394D01*
Y1870394D01*
X2450945D01*
X2440945Y1860394D01*
X2430945Y1870394D01*
X2420945D01*
Y1860394D01*
X2430945Y1850394D01*
X2420945Y1840394D01*
Y1830394D01*
X3090236Y1357953D02*
X3100236D01*
X3110236Y1367953D01*
X3120236Y1357953D01*
X3130236D01*
Y1367953D01*
X3120236Y1377953D01*
X3130236Y1387953D01*
Y1397953D01*
X3120236D01*
X3110236Y1387953D01*
X3100236Y1397953D01*
X3090236D01*
Y1387953D01*
X3100236Y1377953D01*
X3090236Y1367953D01*
Y1357953D01*
X2854016D02*
X2864016D01*
X2874016Y1367953D01*
X2884016Y1357953D01*
X2894016D01*
Y1367953D01*
X2884016Y1377953D01*
X2894016Y1387953D01*
Y1397953D01*
X2884016D01*
X2874016Y1387953D01*
X2864016Y1397953D01*
X2854016D01*
Y1387953D01*
X2864016Y1377953D01*
X2854016Y1367953D01*
Y1357953D01*
X2539055D02*
X2549055D01*
X2559055Y1367953D01*
X2569055Y1357953D01*
X2579055D01*
Y1367953D01*
X2569055Y1377953D01*
X2579055Y1387953D01*
Y1397953D01*
X2569055D01*
X2559055Y1387953D01*
X2549055Y1397953D01*
X2539055D01*
Y1387953D01*
X2549055Y1377953D01*
X2539055Y1367953D01*
Y1357953D01*
X2342205Y1397323D02*
X2352205D01*
X2362205Y1407323D01*
X2372205Y1397323D01*
X2382205D01*
Y1407323D01*
X2372205Y1417323D01*
X2382205Y1427323D01*
Y1437323D01*
X2372205D01*
X2362205Y1427323D01*
X2352205Y1437323D01*
X2342205D01*
Y1427323D01*
X2352205Y1417323D01*
X2342205Y1407323D01*
Y1397323D01*
X2224095Y1515433D02*
X2234095D01*
X2244095Y1525433D01*
X2254095Y1515433D01*
X2264095D01*
Y1525433D01*
X2254095Y1535433D01*
X2264095Y1545433D01*
Y1555433D01*
X2254095D01*
X2244095Y1545433D01*
X2234095Y1555433D01*
X2224095D01*
Y1545433D01*
X2234095Y1535433D01*
X2224095Y1525433D01*
Y1515433D01*
X885512Y2259724D02*
X895512D01*
X905512Y2269724D01*
X915512Y2259724D01*
X925512D01*
Y2269724D01*
X915512Y2279724D01*
X925512Y2289724D01*
Y2299724D01*
X915512D01*
X905512Y2289724D01*
X895512Y2299724D01*
X885512D01*
Y2289724D01*
X895512Y2279724D01*
X885512Y2269724D01*
Y2259724D01*
X269370Y909134D02*
X279370D01*
X289370Y919134D01*
X299370Y909134D01*
X309370D01*
Y919134D01*
X299370Y929134D01*
X309370Y939134D01*
Y949134D01*
X299370D01*
X289370Y939134D01*
X279370Y949134D01*
X269370D01*
Y939134D01*
X279370Y929134D01*
X269370Y919134D01*
Y909134D01*
X1831378Y2275276D02*
X1841378D01*
X1851378Y2285276D01*
X1861378Y2275276D01*
X1871378D01*
Y2285276D01*
X1861378Y2295276D01*
X1871378Y2305276D01*
Y2315276D01*
X1861378D01*
X1851378Y2305276D01*
X1841378Y2315276D01*
X1831378D01*
Y2305276D01*
X1841378Y2295276D01*
X1831378Y2285276D01*
Y2275276D01*
X885512Y1247716D02*
X895512D01*
X905512Y1257716D01*
X915512Y1247716D01*
X925512D01*
Y1257716D01*
X915512Y1267716D01*
X925512Y1277716D01*
Y1287716D01*
X915512D01*
X905512Y1277716D01*
X895512Y1287716D01*
X885512D01*
Y1277716D01*
X895512Y1267716D01*
X885512Y1257716D01*
Y1247716D01*
X1829409D02*
X1839409D01*
X1849409Y1257716D01*
X1859409Y1247716D01*
X1869409D01*
Y1257716D01*
X1859409Y1267716D01*
X1869409Y1277716D01*
Y1287716D01*
X1859409D01*
X1849409Y1277716D01*
X1839409Y1287716D01*
X1829409D01*
Y1277716D01*
X1839409Y1267716D01*
X1829409Y1257716D01*
Y1247716D01*
X3512480Y1753622D02*
X3522480D01*
X3532480Y1763622D01*
X3542480Y1753622D01*
X3552480D01*
Y1763622D01*
X3542480Y1773622D01*
X3552480Y1783622D01*
Y1793622D01*
X3542480D01*
X3532480Y1783622D01*
X3522480Y1793622D01*
X3512480D01*
Y1783622D01*
X3522480Y1773622D01*
X3512480Y1763622D01*
Y1753622D01*
D71*
X330039Y2068700D02*
G03*
X330039Y2068700I-20000J0D01*
G01*
Y1968700D02*
G03*
X330039Y1968700I-20000J0D01*
G01*
Y1868700D02*
G03*
X330039Y1868700I-20000J0D01*
G01*
Y1768700D02*
G03*
X330039Y1768700I-20000J0D01*
G01*
Y1668700D02*
G03*
X330039Y1668700I-20000J0D01*
G01*
Y1568700D02*
G03*
X330039Y1568700I-20000J0D01*
G01*
Y1468700D02*
G03*
X330039Y1468700I-20000J0D01*
G01*
Y1368700D02*
G03*
X330039Y1368700I-20000J0D01*
G01*
%TF.MD5,9048f2757455c267aafc1f4be2e92bca*%
M02*
