G04*
G04 #@! TF.GenerationSoftware,Altium Limited,Altium Designer,20.0.12 (288)*
G04*
G04 Layer_Color=255*
%FSLAX25Y25*%
%MOIN*%
G70*
G01*
G75*
%ADD15R,0.05709X0.01575*%
%ADD16R,0.04134X0.05118*%
%ADD17R,0.05118X0.04134*%
G04:AMPARAMS|DCode=18|XSize=55.12mil|YSize=41.34mil|CornerRadius=0mil|HoleSize=0mil|Usage=FLASHONLY|Rotation=135.000|XOffset=0mil|YOffset=0mil|HoleType=Round|Shape=Rectangle|*
%AMROTATEDRECTD18*
4,1,4,0.03410,-0.00487,0.00487,-0.03410,-0.03410,0.00487,-0.00487,0.03410,0.03410,-0.00487,0.0*
%
%ADD18ROTATEDRECTD18*%

%ADD19R,0.05512X0.04134*%
%ADD20R,0.12598X0.06299*%
%ADD21R,0.04134X0.05512*%
G04:AMPARAMS|DCode=22|XSize=55.12mil|YSize=41.34mil|CornerRadius=0mil|HoleSize=0mil|Usage=FLASHONLY|Rotation=45.000|XOffset=0mil|YOffset=0mil|HoleType=Round|Shape=Rectangle|*
%AMROTATEDRECTD22*
4,1,4,-0.00487,-0.03410,-0.03410,-0.00487,0.00487,0.03410,0.03410,0.00487,-0.00487,-0.03410,0.0*
%
%ADD22ROTATEDRECTD22*%

%ADD23R,0.29528X0.09843*%
%ADD24R,0.16142X0.07874*%
%ADD53R,0.05906X0.05906*%
%ADD54C,0.05906*%
%ADD55C,0.25197*%
%ADD56C,0.11811*%
D15*
X160630Y156122D02*
D03*
Y158622D02*
D03*
Y161122D02*
D03*
Y163622D02*
D03*
Y166122D02*
D03*
Y168622D02*
D03*
Y171122D02*
D03*
Y173622D02*
D03*
Y176122D02*
D03*
Y178622D02*
D03*
Y181122D02*
D03*
Y183622D02*
D03*
Y186122D02*
D03*
Y188622D02*
D03*
Y191122D02*
D03*
Y193622D02*
D03*
Y196122D02*
D03*
Y198622D02*
D03*
X111811Y156122D02*
D03*
Y158622D02*
D03*
Y161122D02*
D03*
Y163622D02*
D03*
Y166122D02*
D03*
Y168622D02*
D03*
Y171122D02*
D03*
Y173622D02*
D03*
Y176122D02*
D03*
Y178622D02*
D03*
Y181122D02*
D03*
Y183622D02*
D03*
Y186122D02*
D03*
Y188622D02*
D03*
Y191122D02*
D03*
Y193622D02*
D03*
Y196122D02*
D03*
Y198622D02*
D03*
D16*
X86221Y180709D02*
D03*
X78937D02*
D03*
D17*
X70177Y184252D02*
D03*
Y176969D02*
D03*
X377165Y121851D02*
D03*
Y114567D02*
D03*
D18*
X181578Y136401D02*
D03*
X186729Y141551D02*
D03*
X170260Y140338D02*
D03*
X175410Y145489D02*
D03*
D19*
X101969Y147835D02*
D03*
Y140551D02*
D03*
X88681Y148031D02*
D03*
Y140748D02*
D03*
X213976Y153937D02*
D03*
Y146654D02*
D03*
X205512Y159547D02*
D03*
Y166831D02*
D03*
X111614Y127756D02*
D03*
Y135039D02*
D03*
X205610Y195177D02*
D03*
Y187894D02*
D03*
X111516Y228937D02*
D03*
Y221654D02*
D03*
X214567Y201181D02*
D03*
Y208465D02*
D03*
X101575Y215059D02*
D03*
Y207776D02*
D03*
X363386Y114567D02*
D03*
Y121850D02*
D03*
X81339Y223110D02*
D03*
Y215827D02*
D03*
D20*
X22736Y113681D02*
D03*
X42815D02*
D03*
D21*
X86221Y170472D02*
D03*
X78937D02*
D03*
X385236Y114173D02*
D03*
X392520D02*
D03*
D22*
X170653Y215961D02*
D03*
X175803Y210811D02*
D03*
X186433Y217897D02*
D03*
X181283Y223047D02*
D03*
D23*
X333661Y177165D02*
D03*
X280512D02*
D03*
D24*
X67224Y268799D02*
D03*
X32972D02*
D03*
D53*
X30709Y207677D02*
D03*
D54*
Y197835D02*
D03*
Y187992D02*
D03*
Y178150D02*
D03*
Y168307D02*
D03*
Y158465D02*
D03*
Y148622D02*
D03*
Y138779D02*
D03*
D55*
X282776Y83957D02*
D03*
Y55610D02*
D03*
X278839Y299114D02*
D03*
Y270768D02*
D03*
X393701Y205512D02*
D03*
Y177165D02*
D03*
X74803Y328740D02*
D03*
X103150D02*
D03*
D56*
X94114Y78642D02*
D03*
X172933Y278642D02*
D03*
M02*
