G04*
G04 #@! TF.GenerationSoftware,Altium Limited,Altium Designer,19.1.8 (144)*
G04*
G04 Layer_Color=32768*
%FSLAX25Y25*%
%MOIN*%
G70*
G01*
G75*
%ADD53C,0.00394*%
%ADD54C,0.00197*%
D53*
X107480Y143897D02*
X166929D01*
Y210433D01*
X105905D02*
X166929D01*
X105905Y143897D02*
Y210433D01*
Y143897D02*
X107480D01*
X80610Y180709D02*
X84547D01*
X82579Y178740D02*
Y182677D01*
X70177Y178642D02*
Y182579D01*
X68209Y180610D02*
X72146D01*
X377165Y116240D02*
Y120177D01*
X375197Y118209D02*
X379134D01*
X37697Y130177D02*
Y213248D01*
X24311D02*
X37697D01*
X24311Y130177D02*
Y213248D01*
Y130177D02*
X37697D01*
X181595Y132677D02*
Y136614D01*
X179626Y134646D02*
X183563D01*
X100000Y144193D02*
X103937D01*
X101969Y142224D02*
Y146161D01*
X86713Y144390D02*
X90650D01*
X88681Y142421D02*
Y146358D01*
X212008Y150295D02*
X215945D01*
X213976Y148327D02*
Y152264D01*
X174213Y141535D02*
Y145473D01*
X172244Y143504D02*
X176181D01*
X203543Y163189D02*
X207480D01*
X205512Y161221D02*
Y165157D01*
X82579Y168504D02*
Y172441D01*
X80610Y170472D02*
X84547D01*
X109646Y131398D02*
X113583D01*
X111614Y129429D02*
Y133366D01*
X203642Y191535D02*
X207579D01*
X205610Y189567D02*
Y193504D01*
X109547Y225295D02*
X113484D01*
X111516Y223327D02*
Y227264D01*
X212598Y204823D02*
X216535D01*
X214567Y202854D02*
Y206791D01*
X173524Y211024D02*
Y214961D01*
X171555Y212992D02*
X175492D01*
X182972Y220079D02*
Y224016D01*
X181004Y222047D02*
X184941D01*
X99606Y211417D02*
X103543D01*
X101575Y209449D02*
Y213386D01*
X388878Y112205D02*
Y116142D01*
X386909Y114173D02*
X390846D01*
X361417Y118209D02*
X365354D01*
X363386Y116240D02*
Y120177D01*
X79370Y219468D02*
X83307D01*
X81339Y217500D02*
Y221437D01*
X263779Y133858D02*
X350394D01*
Y218504D01*
X263779D02*
X350394D01*
X263779Y133858D02*
Y218504D01*
D54*
X75886Y177165D02*
Y184252D01*
X89272Y177165D02*
Y184252D01*
X75886D02*
X89272D01*
X75886Y177165D02*
X89272D01*
X66634Y173917D02*
X73721D01*
X66634Y187303D02*
X73721D01*
X66634Y173917D02*
Y187303D01*
X73721Y173917D02*
Y187303D01*
X373622Y111516D02*
X380709D01*
X373622Y124902D02*
X380709D01*
X373622Y111516D02*
Y124902D01*
X380709Y111516D02*
Y124902D01*
X174902Y130905D02*
X188287D01*
X174902Y138386D02*
X188287D01*
Y130905D02*
Y138386D01*
X174902Y130905D02*
Y138386D01*
X98228Y137500D02*
Y150886D01*
X105709Y137500D02*
Y150886D01*
X98228Y137500D02*
X105709D01*
X98228Y150886D02*
X105709D01*
X84941Y137697D02*
Y151083D01*
X92421Y137697D02*
Y151083D01*
X84941Y137697D02*
X92421D01*
X84941Y151083D02*
X92421D01*
X210236Y143603D02*
Y156988D01*
X217717Y143603D02*
Y156988D01*
X210236Y143603D02*
X217717D01*
X210236Y156988D02*
X217717D01*
X167520Y139764D02*
X180905D01*
X167520Y147244D02*
X180905D01*
Y139764D02*
Y147244D01*
X167520Y139764D02*
Y147244D01*
X209252Y156496D02*
Y169882D01*
X201772Y156496D02*
Y169882D01*
X209252D01*
X201772Y156496D02*
X209252D01*
X75886Y174213D02*
X89272D01*
X75886Y166732D02*
X89272D01*
X75886D02*
Y174213D01*
X89272Y166732D02*
Y174213D01*
X115354Y124705D02*
Y138091D01*
X107874Y124705D02*
Y138091D01*
X115354D01*
X107874Y124705D02*
X115354D01*
X201870Y184843D02*
Y198228D01*
X209350Y184843D02*
Y198228D01*
X201870Y184843D02*
X209350D01*
X201870Y198228D02*
X209350D01*
X107776Y218602D02*
Y231988D01*
X115256Y218602D02*
Y231988D01*
X107776Y218602D02*
X115256D01*
X107776Y231988D02*
X115256D01*
X218307Y198130D02*
Y211516D01*
X210827Y198130D02*
Y211516D01*
X218307D01*
X210827Y198130D02*
X218307D01*
X166831Y209252D02*
X180217D01*
X166831Y216732D02*
X180217D01*
Y209252D02*
Y216732D01*
X166831Y209252D02*
Y216732D01*
X176279Y225787D02*
X189665D01*
X176279Y218307D02*
X189665D01*
X176279D02*
Y225787D01*
X189665Y218307D02*
Y225787D01*
X97835Y204724D02*
Y218110D01*
X105315Y204724D02*
Y218110D01*
X97835Y204724D02*
X105315D01*
X97835Y218110D02*
X105315D01*
X382185Y110433D02*
X395571D01*
X382185Y117913D02*
X395571D01*
Y110433D02*
Y117913D01*
X382185Y110433D02*
Y117913D01*
X367126Y111516D02*
Y124901D01*
X359646Y111516D02*
Y124901D01*
X367126D01*
X359646Y111516D02*
X367126D01*
X77599Y212776D02*
Y226161D01*
X85079Y212776D02*
Y226161D01*
X77599Y212776D02*
X85079D01*
X77599Y226161D02*
X85079D01*
M02*
