M48
;Layer_Color=9474304
;FILE_FORMAT=2:5
INCH,TZ
;TYPE=PLATED
T1F00S00C0.01181
T2F00S00C0.01968
T3F00S00C0.02799
T4F00S00C0.02800
T5F00S00C0.04016
T6F00S00C0.11811
T7F00S00C0.15748
T8F00S00C0.17717
%
T01
X92520Y179921
X198425Y189764
Y164567
T02
X82284Y136614
X95276Y148819
X71260Y168898
X62205Y178740
T03
X428346Y98032
X396063Y105118
X387795Y129921
X348819Y119685
X362992Y105512
X353150Y69685
X337008Y18504
X398425Y30709
X249213Y19685
X165748Y17323
X131102Y43307
X112992Y78740
X112598Y114173
X75984Y78740
X68898Y26378
X19685Y66535
X23622Y102756
X29921Y124016
X7480Y121653
X12205Y184646
X63779Y146850
X72677Y223110
X66142Y257480
X89370Y268110
X113779Y275197
X249606Y176772
X280315Y167323
X280709Y187402
X381496Y217717
X413779Y247244
X383465Y284646
X348425Y254724
X382677Y154331
X431496Y295669
X357874Y327165
X315748Y304724
X300000Y337402
X230709
X254724Y304724
X166929Y337795
X130315Y312598
X96850Y325984
X67323Y325197
X37795Y322441
X30315Y294094
T04
X267717Y98425
X307087
X299213Y70866
X257087Y76772
X232283Y90551
X208661Y110236
X196850Y133858
X184941Y126772
X165354Y102362
X149606Y86614
X145669Y122047
X169291Y62992
X188976Y82677
X212598Y59055
X90551Y126772
X28937Y92913
X19685Y228346
Y255906
X62992Y216535
X86614Y208661
X90551Y227972
X102362Y224410
X110236Y208661
X114173Y244094
X141732Y251969
X145669Y275590
X196850
X177165Y255906
X185138Y229528
X196850Y220472
X185039Y208661
X204724Y236221
X220472Y251969
X251969Y259842
X255906Y216535
X236221Y212598
X224410Y200787
X244094Y185039
X255906
Y169291
X244094
X224410Y153543
X236221Y141732
X255906Y137795
X185039Y145669
X141732Y161417
Y192913
Y220472
X157480Y236221
X122047Y177165
X110236Y145669
X287402Y137795
X311024
X307087Y169291
Y185039
X311024Y216535
X287402
X283465Y259842
X267717Y270866
X307087Y275590
X353248Y177362
X212598Y299213
X173228Y303150
T05
X31004Y136870
Y146870
Y156870
Y166870
Y176870
Y186870
Y196870
Y206870
T06
X94114Y78642
X172933Y278642
T07
X440945Y15748
X15748
X440945Y338583
X15748
T08
X282283Y36614
Y64961
X283465Y290158
X422835Y190551
Y162205
X283465Y318504
X90945Y298031
X62598
M30
