G04*
G04 #@! TF.GenerationSoftware,Altium Limited,Altium Designer,19.1.8 (144)*
G04*
G04 Layer_Color=16711935*
%FSLAX25Y25*%
%MOIN*%
G70*
G01*
G75*
%ADD30C,0.24422*%
%ADD31C,0.06800*%
%ADD32R,0.06800X0.06800*%
%ADD33C,0.12611*%
%ADD34C,0.00800*%
%ADD35C,0.03162*%
%ADD36C,0.05800*%
%ADD37C,0.03950*%
D30*
X422835Y190551D02*
D03*
Y162205D02*
D03*
X282283Y36614D02*
D03*
Y64961D02*
D03*
X283465Y290158D02*
D03*
Y318504D02*
D03*
X62598Y298031D02*
D03*
X90945D02*
D03*
D31*
X31004Y206870D02*
D03*
Y196870D02*
D03*
Y186870D02*
D03*
Y176870D02*
D03*
Y166870D02*
D03*
Y156870D02*
D03*
Y146870D02*
D03*
D32*
Y136870D02*
D03*
D33*
X94114Y78642D02*
D03*
X172933Y278642D02*
D03*
D34*
X440945Y338583D02*
D03*
X15748D02*
D03*
Y15748D02*
D03*
X440945D02*
D03*
D35*
X198425Y189764D02*
D03*
Y164567D02*
D03*
X92520Y179921D02*
D03*
D36*
X63779Y146850D02*
D03*
X12205Y184646D02*
D03*
X89370Y268110D02*
D03*
X315748Y304724D02*
D03*
X254724D02*
D03*
X72677Y223110D02*
D03*
X62992Y216535D02*
D03*
X75984Y78740D02*
D03*
X348819Y119685D02*
D03*
X280315Y167323D02*
D03*
X280709Y187402D02*
D03*
X249606Y176772D02*
D03*
X300000Y337402D02*
D03*
X230709D02*
D03*
X166929Y337795D02*
D03*
X30315Y294094D02*
D03*
X19685Y66535D02*
D03*
X68898Y26378D02*
D03*
X165748Y17323D02*
D03*
X249213Y19685D02*
D03*
X337008Y18504D02*
D03*
X353150Y69685D02*
D03*
X398425Y30709D02*
D03*
X428346Y98032D02*
D03*
X382677Y154331D02*
D03*
X381496Y217717D02*
D03*
X413779Y247244D02*
D03*
X431496Y295669D02*
D03*
X383465Y284646D02*
D03*
X348425Y254724D02*
D03*
X357874Y327165D02*
D03*
X387795Y129921D02*
D03*
X396063Y105118D02*
D03*
X362992Y105512D02*
D03*
X130315Y312598D02*
D03*
X131102Y43307D02*
D03*
X7480Y121653D02*
D03*
X23622Y102756D02*
D03*
X29921Y124016D02*
D03*
X67323Y325197D02*
D03*
X37795Y322441D02*
D03*
X96850Y325984D02*
D03*
X66142Y257480D02*
D03*
X113779Y275197D02*
D03*
X112598Y114173D02*
D03*
X112992Y78740D02*
D03*
X86614Y208661D02*
D03*
X19685Y255906D02*
D03*
Y228346D02*
D03*
X114173Y244094D02*
D03*
X102362Y224410D02*
D03*
X122047Y177165D02*
D03*
X110236Y208661D02*
D03*
Y145669D02*
D03*
X212598Y299213D02*
D03*
X196850Y275590D02*
D03*
X173228Y303150D02*
D03*
X145669Y275590D02*
D03*
X177165Y255906D02*
D03*
X141732Y251969D02*
D03*
X157480Y236221D02*
D03*
X141732Y220472D02*
D03*
Y161417D02*
D03*
Y192913D02*
D03*
X307087Y275590D02*
D03*
X267717Y270866D02*
D03*
X283465Y259842D02*
D03*
X251969D02*
D03*
X220472Y251969D02*
D03*
X204724Y236221D02*
D03*
X196850Y220472D02*
D03*
X185039Y208661D02*
D03*
X299213Y70866D02*
D03*
X307087Y98425D02*
D03*
X267717D02*
D03*
X257087Y76772D02*
D03*
X232283Y90551D02*
D03*
X208661Y110236D02*
D03*
X196850Y133858D02*
D03*
X185039Y145669D02*
D03*
X169291Y62992D02*
D03*
X149606Y86614D02*
D03*
X212598Y59055D02*
D03*
X188976Y82677D02*
D03*
X165354Y102362D02*
D03*
X145669Y122047D02*
D03*
X311024Y216535D02*
D03*
X287402D02*
D03*
X255906D02*
D03*
X236221Y212598D02*
D03*
X224410Y200787D02*
D03*
X255906Y169291D02*
D03*
Y185039D02*
D03*
X307087D02*
D03*
Y169291D02*
D03*
X244094D02*
D03*
Y185039D02*
D03*
X311024Y137795D02*
D03*
X287402D02*
D03*
X255906D02*
D03*
X236221Y141732D02*
D03*
X224410Y153543D02*
D03*
X90551Y227972D02*
D03*
X28937Y92913D02*
D03*
X185138Y229528D02*
D03*
X90551Y126772D02*
D03*
X184941D02*
D03*
X353248Y177362D02*
D03*
D37*
X62205Y178740D02*
D03*
X71260Y168898D02*
D03*
X95276Y148819D02*
D03*
X82284Y136614D02*
D03*
M02*
