G04*
G04 #@! TF.GenerationSoftware,Altium Limited,Altium Designer,20.0.12 (288)*
G04*
G04 Layer_Physical_Order=1*
G04 Layer_Color=255*
%FSLAX25Y25*%
%MOIN*%
G70*
G01*
G75*
%ADD15R,0.05709X0.01575*%
%ADD16R,0.04134X0.05118*%
%ADD17R,0.05118X0.04134*%
G04:AMPARAMS|DCode=18|XSize=55.12mil|YSize=41.34mil|CornerRadius=0mil|HoleSize=0mil|Usage=FLASHONLY|Rotation=135.000|XOffset=0mil|YOffset=0mil|HoleType=Round|Shape=Rectangle|*
%AMROTATEDRECTD18*
4,1,4,0.03410,-0.00487,0.00487,-0.03410,-0.03410,0.00487,-0.00487,0.03410,0.03410,-0.00487,0.0*
%
%ADD18ROTATEDRECTD18*%

%ADD19R,0.05512X0.04134*%
%ADD20R,0.12598X0.06299*%
%ADD21R,0.04134X0.05512*%
G04:AMPARAMS|DCode=22|XSize=55.12mil|YSize=41.34mil|CornerRadius=0mil|HoleSize=0mil|Usage=FLASHONLY|Rotation=45.000|XOffset=0mil|YOffset=0mil|HoleType=Round|Shape=Rectangle|*
%AMROTATEDRECTD22*
4,1,4,-0.00487,-0.03410,-0.03410,-0.00487,0.00487,0.03410,0.03410,0.00487,-0.00487,-0.03410,0.0*
%
%ADD22ROTATEDRECTD22*%

%ADD23R,0.29528X0.09843*%
%ADD24R,0.16142X0.07874*%
%ADD41C,0.01260*%
%ADD42C,0.01575*%
%ADD43C,0.11811*%
%ADD44C,0.03937*%
%ADD45C,0.15748*%
%ADD46R,0.90551X0.27559*%
%ADD47R,0.11811X0.31890*%
%ADD48R,0.20701X0.07087*%
%ADD49R,0.34843X0.05709*%
%ADD50R,0.26575X0.04035*%
%ADD51R,0.11614X0.20571*%
%ADD52R,0.11811X0.07382*%
%ADD53R,0.05906X0.05906*%
%ADD54C,0.05906*%
%ADD55C,0.25197*%
%ADD56C,0.11811*%
%ADD57C,0.02362*%
%ADD58C,0.05000*%
G36*
X389764Y316929D02*
X418799Y316929D01*
X418799Y35433D01*
X389764Y35433D01*
Y5020D01*
X35433D01*
Y35433D01*
X5512D01*
Y316929D01*
X37402D01*
Y349606D01*
X389764D01*
Y316929D01*
D02*
G37*
%LPC*%
G36*
X109055Y341013D02*
Y334646D01*
X115422D01*
X115303Y334933D01*
X114185Y336758D01*
X112795Y338385D01*
X111167Y339775D01*
X109342Y340894D01*
X109055Y341013D01*
D02*
G37*
G36*
X97244D02*
X96957Y340894D01*
X95132Y339775D01*
X93504Y338385D01*
X92114Y336758D01*
X90996Y334933D01*
X90877Y334646D01*
X97244D01*
Y341013D01*
D02*
G37*
G36*
X115422Y322835D02*
X109055D01*
Y316467D01*
X109342Y316586D01*
X111167Y317705D01*
X112795Y319095D01*
X114185Y320723D01*
X115303Y322548D01*
X115422Y322835D01*
D02*
G37*
G36*
X97244D02*
X90877D01*
X90996Y322548D01*
X92114Y320723D01*
X93504Y319095D01*
X95132Y317705D01*
X96957Y316586D01*
X97244Y316467D01*
Y322835D01*
D02*
G37*
G36*
X74803Y342180D02*
X72701Y342015D01*
X70650Y341522D01*
X68702Y340715D01*
X66903Y339613D01*
X65300Y338244D01*
X63930Y336640D01*
X62828Y334842D01*
X62021Y332893D01*
X61529Y330843D01*
X61363Y328740D01*
X61529Y326638D01*
X62021Y324587D01*
X62828Y322639D01*
X63930Y320840D01*
X65300Y319237D01*
X66903Y317867D01*
X68702Y316765D01*
X68712Y316761D01*
Y273536D01*
X58354D01*
Y264062D01*
X68712D01*
Y224284D01*
X68807Y223561D01*
X69086Y222887D01*
X69439Y222427D01*
X69462Y222249D01*
X69795Y221446D01*
X70324Y220757D01*
X71013Y220228D01*
X71816Y219895D01*
X72677Y219782D01*
X73539Y219895D01*
X74341Y220228D01*
X74459Y220318D01*
X77783D01*
Y220243D01*
X84895D01*
Y220318D01*
X85759D01*
X98019Y208058D01*
Y204909D01*
X101169D01*
X107837Y198240D01*
X107630Y197740D01*
X103494D01*
X101591Y199644D01*
X101066Y199995D01*
X100447Y200118D01*
X66277D01*
X56982Y209412D01*
X56457Y209763D01*
X55838Y209886D01*
X34461D01*
Y211430D01*
X26956D01*
Y203924D01*
X34461D01*
Y206649D01*
X55167D01*
X61863Y199953D01*
X61656Y199453D01*
X34100D01*
X33987Y199727D01*
X33385Y200511D01*
X32601Y201113D01*
X31688Y201491D01*
X30709Y201620D01*
X29729Y201491D01*
X28816Y201113D01*
X28032Y200511D01*
X27431Y199727D01*
X27053Y198814D01*
X26923Y197835D01*
X27053Y196855D01*
X27431Y195942D01*
X28032Y195158D01*
X28816Y194557D01*
X29729Y194178D01*
X30709Y194050D01*
X31688Y194178D01*
X32601Y194557D01*
X33385Y195158D01*
X33987Y195942D01*
X34100Y196216D01*
X61668D01*
X62905Y194980D01*
X63122Y194835D01*
X63198Y194204D01*
X58802Y189807D01*
X34019D01*
X33987Y189885D01*
X33385Y190669D01*
X32601Y191270D01*
X31688Y191648D01*
X30709Y191777D01*
X29729Y191648D01*
X28816Y191270D01*
X28032Y190669D01*
X27431Y189885D01*
X27053Y188972D01*
X26923Y187992D01*
X27053Y187013D01*
X27431Y186100D01*
X28032Y185316D01*
X28816Y184714D01*
X29729Y184336D01*
X30709Y184207D01*
X31688Y184336D01*
X32601Y184714D01*
X33385Y185316D01*
X33987Y186100D01*
X34182Y186571D01*
X58270D01*
X58461Y186109D01*
X52219Y179867D01*
X34059D01*
X33987Y180042D01*
X33385Y180826D01*
X32601Y181428D01*
X31688Y181806D01*
X30709Y181935D01*
X29729Y181806D01*
X28816Y181428D01*
X28032Y180826D01*
X27431Y180042D01*
X27053Y179129D01*
X26923Y178150D01*
X27053Y177170D01*
X27431Y176257D01*
X28032Y175473D01*
X28816Y174872D01*
X29729Y174494D01*
X30709Y174364D01*
X31688Y174494D01*
X32601Y174872D01*
X33385Y175473D01*
X33987Y176257D01*
X34141Y176629D01*
X51687D01*
X51879Y176168D01*
X45932Y170221D01*
X33970D01*
X33385Y170984D01*
X32601Y171585D01*
X31688Y171963D01*
X30709Y172092D01*
X29729Y171963D01*
X28816Y171585D01*
X28032Y170984D01*
X27431Y170200D01*
X27053Y169287D01*
X26923Y168307D01*
X27053Y167327D01*
X27431Y166414D01*
X28032Y165631D01*
X28816Y165029D01*
X29729Y164651D01*
X30709Y164522D01*
X31688Y164651D01*
X32601Y165029D01*
X33385Y165631D01*
X33987Y166414D01*
X34222Y166984D01*
X46602D01*
X47222Y167107D01*
X47747Y167458D01*
X66356Y186067D01*
X66818Y185876D01*
Y181385D01*
X73536D01*
Y185007D01*
X94704D01*
X97234Y182477D01*
X97759Y182127D01*
X98378Y182003D01*
X107957D01*
Y181909D01*
X115665D01*
Y182909D01*
X115465D01*
Y187034D01*
Y189534D01*
Y192034D01*
Y194535D01*
Y197035D01*
Y200209D01*
X111968D01*
X111811Y200241D01*
X110415D01*
X105131Y205524D01*
Y210643D01*
X100013D01*
X99125Y211530D01*
X99316Y211992D01*
X100787D01*
Y214272D01*
X97819D01*
Y213490D01*
X97357Y213298D01*
X90799Y219856D01*
X90991Y220318D01*
X91083D01*
X91805Y220413D01*
X92479Y220692D01*
X93057Y221136D01*
X93501Y221714D01*
X93780Y222388D01*
X93875Y223110D01*
Y227441D01*
X93842Y227689D01*
X93880Y227972D01*
X93766Y228834D01*
X93434Y229637D01*
X92905Y230326D01*
X92215Y230855D01*
X91413Y231188D01*
X90551Y231301D01*
X89690Y231188D01*
X88887Y230855D01*
X88198Y230326D01*
X87669Y229637D01*
X87336Y228834D01*
X87223Y227972D01*
X87336Y227111D01*
X87629Y226403D01*
X87421Y225903D01*
X84895D01*
Y225977D01*
X77783D01*
Y225903D01*
X74459D01*
X74341Y225993D01*
X74296Y226011D01*
Y264062D01*
X76095D01*
Y266649D01*
X76119Y266831D01*
X76095Y267012D01*
Y273536D01*
X74296D01*
Y314972D01*
X74664Y315311D01*
X74803Y315300D01*
X76906Y315466D01*
X78956Y315958D01*
X80905Y316765D01*
X82703Y317867D01*
X84307Y319237D01*
X85676Y320840D01*
X86778Y322639D01*
X87585Y324587D01*
X88077Y326638D01*
X88243Y328740D01*
X88077Y330843D01*
X87585Y332893D01*
X86778Y334842D01*
X85676Y336640D01*
X84307Y338244D01*
X82703Y339613D01*
X80905Y340715D01*
X78956Y341522D01*
X76906Y342015D01*
X74803Y342180D01*
D02*
G37*
G36*
X278839Y312554D02*
X276736Y312389D01*
X274685Y311896D01*
X272737Y311089D01*
X270939Y309987D01*
X269335Y308618D01*
X267966Y307014D01*
X267254Y305852D01*
X170965D01*
X169650Y305723D01*
X168386Y305339D01*
X167221Y304717D01*
X166200Y303879D01*
X125058Y262737D01*
X124220Y261716D01*
X123598Y260551D01*
X123214Y259287D01*
X123085Y257972D01*
Y231729D01*
X115072D01*
Y231804D01*
X107960D01*
Y226070D01*
X115072D01*
Y226145D01*
X123085D01*
Y220787D01*
X123102Y220617D01*
Y213064D01*
X122602Y212857D01*
X115103Y220356D01*
Y220374D01*
X115072Y220530D01*
Y224520D01*
X107960D01*
Y218787D01*
X112176D01*
X112340Y218541D01*
X120035Y210845D01*
Y186713D01*
X120158Y186093D01*
X120509Y185568D01*
X128600Y177478D01*
X128646Y177446D01*
X128695Y176949D01*
X121001Y169255D01*
X120650Y168730D01*
X120527Y168110D01*
Y145552D01*
X112881Y137906D01*
X108058D01*
Y132172D01*
X110198D01*
X110207Y132166D01*
X110827Y132043D01*
X111516D01*
X112135Y132166D01*
X112144Y132172D01*
X115170D01*
Y135617D01*
X122640Y143087D01*
X123102Y142896D01*
Y134127D01*
X123085Y133957D01*
Y131168D01*
X122466Y130548D01*
X115170D01*
Y130623D01*
X108058D01*
Y124889D01*
X115170D01*
Y124964D01*
X123085D01*
Y99902D01*
X123214Y98587D01*
X123598Y97323D01*
X124220Y96158D01*
X125058Y95137D01*
X169350Y50846D01*
X169350Y50846D01*
X170371Y50008D01*
X171536Y49385D01*
X172800Y49002D01*
X174114Y48872D01*
X271191D01*
X271902Y47710D01*
X273272Y46107D01*
X274876Y44737D01*
X276674Y43635D01*
X278622Y42828D01*
X280673Y42336D01*
X282776Y42170D01*
X284878Y42336D01*
X286929Y42828D01*
X288877Y43635D01*
X290675Y44737D01*
X292279Y46107D01*
X293649Y47710D01*
X294751Y49509D01*
X295558Y51457D01*
X296050Y53508D01*
X296215Y55610D01*
X296050Y57713D01*
X295558Y59763D01*
X294751Y61712D01*
X293649Y63510D01*
X292279Y65114D01*
X290675Y66483D01*
X288877Y67585D01*
X286929Y68392D01*
X284878Y68885D01*
X282776Y69050D01*
X280673Y68885D01*
X278622Y68392D01*
X276674Y67585D01*
X274876Y66483D01*
X273272Y65114D01*
X271902Y63510D01*
X271191Y62348D01*
X176905D01*
X136561Y102692D01*
Y126772D01*
Y133957D01*
X136544Y134127D01*
Y164396D01*
X147902Y166625D01*
X154461D01*
X154496Y166632D01*
X154515Y166630D01*
X154559Y166645D01*
X154773Y166687D01*
X155038Y166864D01*
X155212Y167124D01*
X156304Y168500D01*
X156776Y168336D01*
Y166909D01*
X164484D01*
Y167834D01*
X160630D01*
Y169409D01*
X164484D01*
Y170409D01*
X164284D01*
Y171428D01*
X164784Y171596D01*
X165557Y170577D01*
X165557Y170574D01*
X165734Y170309D01*
X165999Y170132D01*
X166184Y170095D01*
X166235Y170078D01*
X166264Y170080D01*
X166311Y170070D01*
X166346D01*
X166346Y170070D01*
X166346Y170070D01*
X195760D01*
X201956Y168186D01*
Y163964D01*
X209068D01*
Y165604D01*
X209469Y165901D01*
X224662Y161282D01*
X234409Y151535D01*
X234409Y151535D01*
X235430Y150697D01*
X236595Y150074D01*
X237859Y149691D01*
X239173Y149561D01*
X312795Y149561D01*
X314110Y149691D01*
X315374Y150074D01*
X316539Y150697D01*
X317560Y151535D01*
X326462Y160437D01*
X326923Y160245D01*
Y133795D01*
X316500Y123372D01*
X242555D01*
X220414Y145513D01*
X219393Y146351D01*
X218228Y146973D01*
X217532Y147184D01*
Y149521D01*
X210420D01*
Y149193D01*
X209959Y149002D01*
X202942Y156018D01*
X203133Y156480D01*
X204724D01*
Y158760D01*
X201756D01*
Y157858D01*
X201294Y157666D01*
X195622Y163338D01*
X194601Y164176D01*
X193436Y164799D01*
X192904Y164961D01*
X192900Y164966D01*
X192635Y165143D01*
X192323Y165205D01*
X191940D01*
X190857Y165312D01*
X189775Y165205D01*
X165748D01*
X165655Y165187D01*
X165559Y165183D01*
X165544Y165176D01*
X165527Y165175D01*
X165484Y165153D01*
X165436Y165143D01*
X165357Y165090D01*
X165270Y165050D01*
X165259Y165038D01*
X165244Y165031D01*
X165212Y164994D01*
X165171Y164966D01*
X165118Y164887D01*
X165053Y164817D01*
X164984Y164705D01*
X164484Y164846D01*
Y165334D01*
X156754D01*
X156693Y165284D01*
X144882D01*
X144570Y165222D01*
X144305Y165045D01*
X144128Y164781D01*
X144066Y164469D01*
Y157257D01*
X144049Y157087D01*
Y144783D01*
X144179Y143469D01*
X144562Y142205D01*
X145185Y141040D01*
X146023Y140019D01*
X149981Y136061D01*
X206850Y79192D01*
X206850Y79192D01*
X207871Y78354D01*
X209036Y77732D01*
X210300Y77348D01*
X211614Y77219D01*
X271191D01*
X271902Y76057D01*
X273272Y74453D01*
X274876Y73084D01*
X276674Y71982D01*
X278622Y71175D01*
X280673Y70682D01*
X282776Y70517D01*
X284878Y70682D01*
X286929Y71175D01*
X288877Y71982D01*
X290675Y73084D01*
X292279Y74453D01*
X293649Y76057D01*
X294751Y77855D01*
X295558Y79804D01*
X296050Y81854D01*
X296215Y83957D01*
X296050Y86059D01*
X295558Y88110D01*
X294751Y90058D01*
X293649Y91856D01*
X292279Y93460D01*
X290675Y94830D01*
X288877Y95932D01*
X286929Y96739D01*
X284878Y97231D01*
X282776Y97396D01*
X280673Y97231D01*
X278622Y96739D01*
X276674Y95932D01*
X274876Y94830D01*
X273272Y93460D01*
X271902Y91856D01*
X271191Y90695D01*
X214405D01*
X167529Y137571D01*
X167720Y138033D01*
X168510D01*
X170747Y135797D01*
X174330Y139380D01*
X183152Y130558D01*
Y129559D01*
X182587Y129125D01*
X182058Y128436D01*
X181726Y127633D01*
X181613Y126772D01*
X181726Y125910D01*
X182058Y125107D01*
X182587Y124418D01*
X183277Y123889D01*
X184080Y123557D01*
X184941Y123443D01*
X185802Y123557D01*
X186605Y123889D01*
X187294Y124418D01*
X187823Y125107D01*
X188156Y125910D01*
X188269Y126772D01*
X188156Y127633D01*
X187823Y128436D01*
X187294Y129125D01*
X186605Y129654D01*
X186068Y129877D01*
Y131161D01*
X185957Y131719D01*
X185641Y132192D01*
X184020Y133814D01*
X186120Y135914D01*
X181091Y140943D01*
X178991Y138843D01*
X176392Y141442D01*
X179951Y145001D01*
X177028Y147924D01*
Y148409D01*
X176905Y149029D01*
X176554Y149554D01*
X167849Y158259D01*
X168095Y158694D01*
X185715Y154270D01*
X186093Y153809D01*
X203919Y135984D01*
X204940Y135146D01*
X206105Y134523D01*
X207369Y134140D01*
X208683Y134010D01*
X212859D01*
X234999Y111870D01*
X234999Y111870D01*
X236020Y111032D01*
X237185Y110409D01*
X238449Y110026D01*
X239764Y109896D01*
X239764Y109896D01*
X319291D01*
X320606Y110026D01*
X321870Y110409D01*
X323035Y111032D01*
X324056Y111870D01*
X338426Y126240D01*
X339264Y127261D01*
X339886Y128426D01*
X340270Y129690D01*
X340399Y131004D01*
X340399Y131004D01*
Y162570D01*
X350456D01*
Y131988D01*
X350551Y131265D01*
X350830Y130592D01*
X351273Y130014D01*
X359830Y121457D01*
Y118983D01*
X366942D01*
Y119058D01*
X373806D01*
Y118983D01*
X380524D01*
Y124717D01*
X373806D01*
Y124643D01*
X366942D01*
Y124717D01*
X364468D01*
X356040Y133145D01*
Y162570D01*
X409449D01*
X409761Y162632D01*
X410026Y162809D01*
X410202Y163074D01*
X410264Y163386D01*
Y190945D01*
X410202Y191257D01*
X410026Y191522D01*
X409761Y191699D01*
X409449Y191761D01*
X396815D01*
X396756Y192261D01*
X397916Y192539D01*
X399893Y193358D01*
X401719Y194476D01*
X403346Y195867D01*
X404736Y197494D01*
X405855Y199319D01*
X405973Y199606D01*
X381428D01*
X381547Y199319D01*
X382665Y197494D01*
X384055Y195867D01*
X385683Y194476D01*
X387508Y193358D01*
X389486Y192539D01*
X390645Y192261D01*
X390586Y191761D01*
X340399D01*
Y223327D01*
X340399Y223327D01*
X340270Y224641D01*
X339886Y225905D01*
X339264Y227070D01*
X338426Y228091D01*
X324056Y242461D01*
X323035Y243299D01*
X321870Y243922D01*
X320606Y244305D01*
X319291Y244435D01*
X239764D01*
X239764Y244435D01*
X238449Y244305D01*
X237185Y243922D01*
X236020Y243299D01*
X234999Y242461D01*
X234999Y242461D01*
X212859Y220321D01*
X208683D01*
X208683Y220321D01*
X207369Y220191D01*
X206105Y219808D01*
X204940Y219185D01*
X203919Y218347D01*
X203919Y218347D01*
X186585Y201013D01*
X186323Y200694D01*
X169142Y196379D01*
X168895Y196814D01*
X176461Y204380D01*
X176812Y204905D01*
X176935Y205524D01*
Y207888D01*
X180345Y211298D01*
X176876Y214767D01*
X177799Y215690D01*
X177803Y215692D01*
X178119Y216165D01*
X178230Y216723D01*
Y219868D01*
X178832Y220470D01*
X180796Y218506D01*
X185825Y223535D01*
X183784Y225575D01*
X184494Y226284D01*
X185138Y226199D01*
X185999Y226312D01*
X186802Y226645D01*
X187491Y227174D01*
X188020Y227863D01*
X188353Y228666D01*
X188466Y229528D01*
X188353Y230389D01*
X188020Y231192D01*
X187491Y231881D01*
X186802Y232410D01*
X185999Y232743D01*
X185138Y232856D01*
X184276Y232743D01*
X183474Y232410D01*
X183471Y232408D01*
X183140Y232785D01*
X214385Y264030D01*
X267254D01*
X267966Y262868D01*
X269335Y261264D01*
X270939Y259895D01*
X272737Y258793D01*
X274685Y257986D01*
X276736Y257493D01*
X278839Y257328D01*
X280941Y257493D01*
X282992Y257986D01*
X284940Y258793D01*
X286738Y259895D01*
X288342Y261264D01*
X289712Y262868D01*
X290814Y264666D01*
X291621Y266615D01*
X292113Y268665D01*
X292278Y270768D01*
X292113Y272870D01*
X291621Y274921D01*
X290814Y276869D01*
X289712Y278667D01*
X288342Y280271D01*
X286738Y281641D01*
X284940Y282743D01*
X282992Y283550D01*
X280941Y284042D01*
X278839Y284208D01*
X276736Y284042D01*
X274685Y283550D01*
X272737Y282743D01*
X270939Y281641D01*
X269335Y280271D01*
X267966Y278667D01*
X267254Y277506D01*
X211595D01*
X211595Y277506D01*
X210280Y277376D01*
X209016Y276993D01*
X207851Y276370D01*
X206830Y275532D01*
X206830Y275532D01*
X151536Y220238D01*
X146023Y214725D01*
X145185Y213704D01*
X144562Y212539D01*
X144200Y211345D01*
X144128Y211237D01*
X144066Y210925D01*
Y210131D01*
X144049Y209961D01*
Y206988D01*
X144066Y206818D01*
Y190354D01*
X144128Y190042D01*
X144305Y189778D01*
X144570Y189601D01*
X144882Y189539D01*
X155375D01*
X155551Y189504D01*
X156776D01*
Y189409D01*
X164484D01*
Y189898D01*
X164984Y190039D01*
X165053Y189927D01*
X165118Y189857D01*
X165171Y189778D01*
X165212Y189751D01*
X165243Y189713D01*
X165258Y189706D01*
X165270Y189693D01*
X165357Y189654D01*
X165436Y189601D01*
X165484Y189591D01*
X165527Y189569D01*
X165544Y189568D01*
X165559Y189561D01*
X165655Y189557D01*
X165748Y189539D01*
X191069D01*
X191349Y189511D01*
X191630Y189539D01*
X192323D01*
X192635Y189601D01*
X192720Y189657D01*
X193928Y190024D01*
X195093Y190647D01*
X196114Y191484D01*
X201392Y196763D01*
X201854Y196572D01*
Y195965D01*
X204823D01*
Y198244D01*
X203527D01*
X203335Y198706D01*
X210549Y205920D01*
X211011Y205728D01*
Y205598D01*
X218123D01*
Y207326D01*
X218228Y207358D01*
X219393Y207980D01*
X220414Y208818D01*
X242555Y230959D01*
X316500D01*
X326923Y220536D01*
Y194086D01*
X326462Y193894D01*
X317560Y202796D01*
X316539Y203634D01*
X315374Y204257D01*
X314110Y204640D01*
X312795Y204769D01*
X239173Y204769D01*
X237859Y204640D01*
X236595Y204257D01*
X235430Y203634D01*
X234409Y202796D01*
X225244Y193631D01*
X209568Y188864D01*
X209166Y189162D01*
Y190761D01*
X202054D01*
Y186580D01*
X195788Y184674D01*
X166339D01*
X166292Y184665D01*
X166263Y184666D01*
X166212Y184649D01*
X166026Y184612D01*
X165762Y184435D01*
X165585Y184170D01*
X165584Y184167D01*
X164784Y183112D01*
X164284Y183280D01*
Y184335D01*
X164484D01*
Y185335D01*
X160630D01*
Y186909D01*
X164484D01*
Y187835D01*
X156776D01*
Y186408D01*
X156304Y186244D01*
X155212Y187620D01*
X155038Y187880D01*
X154773Y188057D01*
X154559Y188099D01*
X154515Y188113D01*
X154496Y188112D01*
X154461Y188119D01*
X147902D01*
X136544Y190348D01*
Y220617D01*
X136561Y220787D01*
Y227972D01*
Y255182D01*
X173756Y292376D01*
X267254D01*
X267966Y291214D01*
X269335Y289611D01*
X270939Y288241D01*
X272737Y287139D01*
X274685Y286332D01*
X276736Y285840D01*
X278839Y285674D01*
X280941Y285840D01*
X282992Y286332D01*
X284940Y287139D01*
X286738Y288241D01*
X288342Y289611D01*
X289712Y291214D01*
X290814Y293013D01*
X291621Y294961D01*
X292113Y297012D01*
X292278Y299114D01*
X292113Y301217D01*
X291621Y303267D01*
X290814Y305216D01*
X289712Y307014D01*
X288342Y308618D01*
X286738Y309987D01*
X284940Y311089D01*
X282992Y311896D01*
X280941Y312389D01*
X278839Y312554D01*
D02*
G37*
G36*
X173433Y285531D02*
Y279142D01*
X179823D01*
X179739Y279995D01*
X179344Y281297D01*
X178703Y282497D01*
X177840Y283548D01*
X176788Y284411D01*
X175589Y285052D01*
X174287Y285447D01*
X173433Y285531D01*
D02*
G37*
G36*
X172433D02*
X171579Y285447D01*
X170278Y285052D01*
X169078Y284411D01*
X168026Y283548D01*
X167164Y282497D01*
X166522Y281297D01*
X166128Y279995D01*
X166043Y279142D01*
X172433D01*
Y285531D01*
D02*
G37*
G36*
X179823Y278142D02*
X173433D01*
Y271752D01*
X174287Y271836D01*
X175589Y272231D01*
X176788Y272872D01*
X177840Y273735D01*
X178703Y274787D01*
X179344Y275986D01*
X179739Y277288D01*
X179823Y278142D01*
D02*
G37*
G36*
X172433D02*
X166043D01*
X166128Y277288D01*
X166522Y275986D01*
X167164Y274787D01*
X168026Y273735D01*
X169078Y272872D01*
X170278Y272231D01*
X171579Y271836D01*
X172433Y271752D01*
Y278142D01*
D02*
G37*
G36*
X42043Y273736D02*
X33760D01*
Y269587D01*
X42043D01*
Y273736D01*
D02*
G37*
G36*
X32185D02*
X23902D01*
Y269587D01*
X32185D01*
Y273736D01*
D02*
G37*
G36*
X42043Y268012D02*
X33760D01*
Y263862D01*
X42043D01*
Y268012D01*
D02*
G37*
G36*
X32185D02*
X23902D01*
Y263862D01*
X32185D01*
Y268012D01*
D02*
G37*
G36*
X186920Y222722D02*
X184821Y220623D01*
X186433Y219011D01*
X188532Y221110D01*
X186920Y222722D01*
D02*
G37*
G36*
X85094Y218894D02*
X82126D01*
Y216614D01*
X85094D01*
Y218894D01*
D02*
G37*
G36*
X80551D02*
X77583D01*
Y216614D01*
X80551D01*
Y218894D01*
D02*
G37*
G36*
X189646Y219996D02*
X187547Y217897D01*
X189159Y216285D01*
X191258Y218385D01*
X189646Y219996D01*
D02*
G37*
G36*
X105331Y218126D02*
X102362D01*
Y215846D01*
X105331D01*
Y218126D01*
D02*
G37*
G36*
X100787D02*
X97819D01*
Y215846D01*
X100787D01*
Y218126D01*
D02*
G37*
G36*
X183708Y219509D02*
X181609Y217410D01*
X183221Y215798D01*
X185320Y217897D01*
X183708Y219509D01*
D02*
G37*
G36*
X186433Y216784D02*
X184334Y214685D01*
X185946Y213073D01*
X188045Y215172D01*
X186433Y216784D01*
D02*
G37*
G36*
X85094Y215039D02*
X82126D01*
Y212760D01*
X85094D01*
Y215039D01*
D02*
G37*
G36*
X80551D02*
X77583D01*
Y212760D01*
X80551D01*
Y215039D01*
D02*
G37*
G36*
X105331Y214272D02*
X102362D01*
Y211992D01*
X105331D01*
Y214272D01*
D02*
G37*
G36*
X399606Y217785D02*
Y211417D01*
X405973D01*
X405855Y211704D01*
X404736Y213529D01*
X403346Y215157D01*
X401719Y216547D01*
X399893Y217666D01*
X399606Y217785D01*
D02*
G37*
G36*
X387795D02*
X387508Y217666D01*
X385683Y216547D01*
X384055Y215157D01*
X382665Y213529D01*
X381547Y211704D01*
X381428Y211417D01*
X387795D01*
Y217785D01*
D02*
G37*
G36*
X218323Y204248D02*
X215354D01*
Y201969D01*
X218323D01*
Y204248D01*
D02*
G37*
G36*
X213779D02*
X210811D01*
Y201969D01*
X213779D01*
Y204248D01*
D02*
G37*
G36*
X218323Y200394D02*
X215354D01*
Y198114D01*
X218323D01*
Y200394D01*
D02*
G37*
G36*
X213779D02*
X210811D01*
Y198114D01*
X213779D01*
Y200394D01*
D02*
G37*
G36*
X209366Y198244D02*
X206398D01*
Y195965D01*
X209366D01*
Y198244D01*
D02*
G37*
G36*
Y194390D02*
X206398D01*
Y192110D01*
X209366D01*
Y194390D01*
D02*
G37*
G36*
X204823D02*
X201854D01*
Y192110D01*
X204823D01*
Y194390D01*
D02*
G37*
G36*
X89287Y184268D02*
X87008D01*
Y181496D01*
X89287D01*
Y184268D01*
D02*
G37*
G36*
X85433D02*
X83153D01*
Y181496D01*
X85433D01*
Y184268D01*
D02*
G37*
G36*
X81804Y184068D02*
X76070D01*
Y179639D01*
X75019Y178587D01*
X73536D01*
Y179835D01*
X66818D01*
Y174102D01*
X73536D01*
Y175350D01*
X75689D01*
X76308Y175473D01*
X76833Y175824D01*
X78359Y177350D01*
X79515D01*
X81176Y175689D01*
X79515Y174028D01*
X76070D01*
Y166917D01*
X79515D01*
X82320Y164111D01*
X82845Y163761D01*
X83464Y163637D01*
X97908D01*
X97919Y163626D01*
X98153Y163175D01*
X96346Y161368D01*
X60750D01*
X60130Y161245D01*
X59605Y160894D01*
X58105Y159394D01*
X34371D01*
X34365Y159444D01*
X33987Y160357D01*
X33385Y161141D01*
X32601Y161743D01*
X31688Y162121D01*
X30709Y162250D01*
X29729Y162121D01*
X28816Y161743D01*
X28032Y161141D01*
X27431Y160357D01*
X27053Y159444D01*
X26923Y158465D01*
X27053Y157485D01*
X27431Y156572D01*
X28032Y155788D01*
X28816Y155187D01*
X29729Y154808D01*
X30709Y154679D01*
X31688Y154808D01*
X32601Y155187D01*
X33385Y155788D01*
X33668Y156157D01*
X57856D01*
X58048Y155695D01*
X52101Y149748D01*
X34304D01*
X33987Y150515D01*
X33385Y151298D01*
X32601Y151900D01*
X31688Y152278D01*
X30709Y152407D01*
X29729Y152278D01*
X28816Y151900D01*
X28032Y151298D01*
X27431Y150515D01*
X27053Y149602D01*
X26923Y148622D01*
X27053Y147642D01*
X27431Y146730D01*
X28032Y145946D01*
X28816Y145344D01*
X29729Y144966D01*
X30709Y144837D01*
X31688Y144966D01*
X32601Y145344D01*
X33385Y145946D01*
X33819Y146511D01*
X51569D01*
X51761Y146049D01*
X46011Y140300D01*
X34141D01*
X33987Y140672D01*
X33385Y141456D01*
X32601Y142058D01*
X31688Y142436D01*
X30709Y142565D01*
X29729Y142436D01*
X28816Y142058D01*
X28032Y141456D01*
X27431Y140672D01*
X27053Y139759D01*
X26923Y138779D01*
X27053Y137800D01*
X27431Y136887D01*
X28032Y136103D01*
X28816Y135502D01*
X29729Y135123D01*
X30709Y134994D01*
X31688Y135123D01*
X32601Y135502D01*
X33385Y136103D01*
X33987Y136887D01*
X34059Y137063D01*
X46681D01*
X47300Y137186D01*
X47826Y137537D01*
X63670Y153382D01*
X89385D01*
X89593Y152882D01*
X87609Y150898D01*
X85125D01*
Y148414D01*
X52381Y115670D01*
X49914D01*
Y117631D01*
X35716D01*
Y109731D01*
X46315D01*
Y105739D01*
X35206Y94630D01*
X31779D01*
X31291Y95267D01*
X30601Y95796D01*
X29798Y96128D01*
X28937Y96242D01*
X28076Y96128D01*
X27273Y95796D01*
X26583Y95267D01*
X26054Y94578D01*
X25722Y93775D01*
X25609Y92913D01*
X25722Y92052D01*
X26054Y91249D01*
X26583Y90560D01*
X27273Y90031D01*
X28076Y89698D01*
X28937Y89585D01*
X29798Y89698D01*
X30601Y90031D01*
X31291Y90560D01*
X31820Y91249D01*
X31879Y91393D01*
X42717D01*
X43336Y91517D01*
X43861Y91867D01*
X82009Y130015D01*
X88536D01*
X88706Y129515D01*
X88198Y129125D01*
X87669Y128436D01*
X87336Y127633D01*
X87223Y126772D01*
X87336Y125910D01*
X87669Y125107D01*
X88198Y124418D01*
X88887Y123889D01*
X89690Y123557D01*
X90551Y123443D01*
X91413Y123557D01*
X92215Y123889D01*
X92905Y124418D01*
X93434Y125107D01*
X93766Y125910D01*
X93880Y126772D01*
X93766Y127633D01*
X93434Y128436D01*
X92905Y129125D01*
X92701Y129281D01*
Y130963D01*
X96617Y134879D01*
X96968Y135404D01*
X97091Y136024D01*
Y141180D01*
X97751Y141840D01*
X98213Y141648D01*
Y141338D01*
X101181D01*
Y143618D01*
X100182D01*
X99991Y144080D01*
X100879Y144968D01*
X105525D01*
Y149613D01*
X110415Y154504D01*
X111811D01*
X111967Y154534D01*
X115465D01*
Y157035D01*
Y159535D01*
Y162034D01*
Y164534D01*
Y167034D01*
Y169535D01*
Y172035D01*
Y174534D01*
Y179334D01*
X115665D01*
Y180334D01*
X107957D01*
Y180241D01*
X97473D01*
X96854Y180117D01*
X96329Y179766D01*
X93771Y177209D01*
X89287D01*
Y179921D01*
X86221D01*
X83153D01*
Y178942D01*
X82692Y178751D01*
X81804Y179639D01*
Y184068D01*
D02*
G37*
G36*
X209268Y162614D02*
X206299D01*
Y160335D01*
X209268D01*
Y162614D01*
D02*
G37*
G36*
X204724D02*
X201756D01*
Y160335D01*
X204724D01*
Y162614D01*
D02*
G37*
G36*
X209268Y158760D02*
X206299D01*
Y156480D01*
X209268D01*
Y158760D01*
D02*
G37*
G36*
X217732Y157004D02*
X214764D01*
Y154725D01*
X217732D01*
Y157004D01*
D02*
G37*
G36*
X213189D02*
X210221D01*
Y154725D01*
X213189D01*
Y157004D01*
D02*
G37*
G36*
X217732Y153150D02*
X214764D01*
Y150870D01*
X217732D01*
Y153150D01*
D02*
G37*
G36*
X213189D02*
X210221D01*
Y150870D01*
X213189D01*
Y153150D01*
D02*
G37*
G36*
X186241Y146376D02*
X184630Y144764D01*
X186729Y142665D01*
X188340Y144277D01*
X186241Y146376D01*
D02*
G37*
G36*
X105725Y143618D02*
X102756D01*
Y141338D01*
X105725D01*
Y143618D01*
D02*
G37*
G36*
X183516Y143650D02*
X181904Y142039D01*
X184003Y139940D01*
X185615Y141551D01*
X183516Y143650D01*
D02*
G37*
G36*
X189454Y143163D02*
X187842Y141551D01*
X189941Y139452D01*
X191553Y141064D01*
X189454Y143163D01*
D02*
G37*
G36*
X105725Y139764D02*
X102756D01*
Y137484D01*
X105725D01*
Y139764D01*
D02*
G37*
G36*
X101181D02*
X98213D01*
Y137484D01*
X101181D01*
Y139764D01*
D02*
G37*
G36*
X186729Y140438D02*
X185117Y138826D01*
X187216Y136727D01*
X188828Y138339D01*
X186729Y140438D01*
D02*
G37*
G36*
X388103Y117729D02*
X382369D01*
Y117261D01*
X380524D01*
Y117434D01*
X373806D01*
Y111700D01*
X377082D01*
X377264Y111676D01*
X377264Y111676D01*
X382369D01*
Y110617D01*
X388103D01*
Y117729D01*
D02*
G37*
G36*
X367142Y117634D02*
X364173D01*
Y115354D01*
X367142D01*
Y117634D01*
D02*
G37*
G36*
X362598D02*
X359630D01*
Y115354D01*
X362598D01*
Y117634D01*
D02*
G37*
G36*
X395586Y117929D02*
X393307D01*
Y114961D01*
X395586D01*
Y117929D01*
D02*
G37*
G36*
X391732D02*
X389453D01*
Y114961D01*
X391732D01*
Y117929D01*
D02*
G37*
G36*
X30035Y117831D02*
X23524D01*
Y114469D01*
X30035D01*
Y117831D01*
D02*
G37*
G36*
X21949D02*
X15437D01*
Y114469D01*
X21949D01*
Y117831D01*
D02*
G37*
G36*
X367142Y113779D02*
X364173D01*
Y111500D01*
X367142D01*
Y113779D01*
D02*
G37*
G36*
X362598D02*
X359630D01*
Y111500D01*
X362598D01*
Y113779D01*
D02*
G37*
G36*
X395586Y113386D02*
X393307D01*
Y110417D01*
X395586D01*
Y113386D01*
D02*
G37*
G36*
X391732D02*
X389453D01*
Y110417D01*
X391732D01*
Y113386D01*
D02*
G37*
G36*
X30035Y112894D02*
X23524D01*
Y109531D01*
X30035D01*
Y112894D01*
D02*
G37*
G36*
X21949D02*
X15437D01*
Y109531D01*
X21949D01*
Y112894D01*
D02*
G37*
G36*
X94614Y85531D02*
Y79142D01*
X101004D01*
X100920Y79996D01*
X100525Y81297D01*
X99884Y82497D01*
X99021Y83548D01*
X97969Y84411D01*
X96770Y85053D01*
X95468Y85447D01*
X94614Y85531D01*
D02*
G37*
G36*
X93614D02*
X92760Y85447D01*
X91459Y85053D01*
X90259Y84411D01*
X89208Y83548D01*
X88345Y82497D01*
X87703Y81297D01*
X87309Y79996D01*
X87225Y79142D01*
X93614D01*
Y85531D01*
D02*
G37*
G36*
X101004Y78142D02*
X94614D01*
Y71752D01*
X95468Y71836D01*
X96770Y72231D01*
X97969Y72872D01*
X99021Y73735D01*
X99884Y74787D01*
X100525Y75986D01*
X100920Y77288D01*
X101004Y78142D01*
D02*
G37*
G36*
X93614D02*
X87225D01*
X87309Y77288D01*
X87703Y75986D01*
X88345Y74787D01*
X89208Y73735D01*
X90259Y72872D01*
X91459Y72231D01*
X92760Y71836D01*
X93614Y71752D01*
Y78142D01*
D02*
G37*
%LPD*%
G36*
X182257Y231195D02*
X182255Y231192D01*
X181923Y230389D01*
X181809Y229528D01*
X181923Y228666D01*
X182166Y228080D01*
X180252Y226166D01*
X180060Y225879D01*
X176742Y222560D01*
X176770Y222532D01*
X175741Y221503D01*
X175425Y221030D01*
X175314Y220472D01*
Y217328D01*
X174814Y216829D01*
X171141Y220502D01*
X171294Y220939D01*
X181881Y231525D01*
X182257Y231195D01*
D02*
G37*
G36*
X169815Y211771D02*
X169616Y211474D01*
X169505Y210916D01*
Y207492D01*
X162223Y200209D01*
X157312D01*
Y205396D01*
X157396Y205674D01*
X157525Y206988D01*
Y207170D01*
X161065Y210709D01*
X163037Y212681D01*
X168904D01*
X169815Y211771D01*
D02*
G37*
G36*
X186909Y195271D02*
X185758Y193754D01*
X163267Y194063D01*
X186909Y200000D01*
X186909Y195271D01*
D02*
G37*
G36*
X165748Y190354D02*
X164173Y192913D01*
X166634Y193504D01*
X165748Y190354D01*
D02*
G37*
G36*
X150669Y186744D02*
X140038Y184466D01*
X153051Y180217D01*
X133463D01*
X124115Y189564D01*
X123917Y189665D01*
X123982Y189698D01*
X123966Y189714D01*
X123995Y189704D01*
X127264Y191339D01*
X150669Y186744D01*
D02*
G37*
G36*
X157389Y183563D02*
X154421Y180217D01*
Y187303D01*
X157389Y183563D01*
D02*
G37*
G36*
X225098Y188189D02*
Y178150D01*
X201181D01*
X195574Y183756D01*
X227287Y193400D01*
X225098Y188189D01*
D02*
G37*
G36*
X166374Y178150D02*
X164299Y181122D01*
X166374Y183858D01*
Y178150D01*
D02*
G37*
G36*
X166346Y170886D02*
X164272Y173622D01*
X166346Y176594D01*
Y170886D01*
D02*
G37*
G36*
X157389Y171181D02*
X154421Y167441D01*
Y174527D01*
X157389Y171181D01*
D02*
G37*
G36*
X140038Y170278D02*
X150669Y168000D01*
X127264Y163405D01*
X123995Y165040D01*
X123966Y165030D01*
X123982Y165046D01*
X123917Y165078D01*
X124115Y165180D01*
X133463Y174527D01*
X153051D01*
X140038Y170278D01*
D02*
G37*
G36*
X318082Y183216D02*
Y171115D01*
X310004Y163037D01*
X241964Y163037D01*
X229519Y175483D01*
X228497Y176321D01*
X227332Y176944D01*
X226954Y177058D01*
Y177581D01*
X227775Y177830D01*
X228940Y178453D01*
X229961Y179291D01*
X241964Y191294D01*
X310004Y191294D01*
X318082Y183216D01*
D02*
G37*
G36*
X225071Y166555D02*
X227259Y161345D01*
X195546Y170988D01*
X201153Y176594D01*
X225071D01*
Y166555D01*
D02*
G37*
G36*
X166634Y161240D02*
X164173Y161831D01*
X165748Y164390D01*
X166634Y161240D01*
D02*
G37*
G36*
X187707Y159339D02*
X187707Y154610D01*
X164064Y160547D01*
X186556Y160857D01*
X187707Y159339D01*
D02*
G37*
G36*
X168621Y148136D02*
Y145693D01*
X168732Y145135D01*
X169048Y144662D01*
X169301Y144409D01*
X168510Y143618D01*
X161482D01*
X159510Y145590D01*
X157525Y147574D01*
Y154534D01*
X162223D01*
X168621Y148136D01*
D02*
G37*
%LPC*%
G36*
X296276Y183087D02*
X281299D01*
Y177953D01*
X296276D01*
Y183087D01*
D02*
G37*
G36*
X279724D02*
X264748D01*
Y177953D01*
X279724D01*
Y183087D01*
D02*
G37*
G36*
X296276Y176378D02*
X281299D01*
Y171244D01*
X296276D01*
Y176378D01*
D02*
G37*
G36*
X279724D02*
X264748D01*
Y171244D01*
X279724D01*
Y176378D01*
D02*
G37*
%LPD*%
G36*
X104410Y174042D02*
X102635Y172266D01*
X102635Y172266D01*
X100135Y169766D01*
X100135Y169766D01*
X97243Y166874D01*
X89570D01*
X89087Y166917D01*
Y170822D01*
X95441D01*
X96060Y170946D01*
X96585Y171296D01*
X99792Y174504D01*
X104219D01*
X104410Y174042D01*
D02*
G37*
G36*
X98413Y147080D02*
X94328Y142995D01*
X93977Y142470D01*
X93854Y141850D01*
Y136694D01*
X90412Y133252D01*
X81339D01*
X80719Y133129D01*
X80194Y132778D01*
X42046Y94630D01*
X40437D01*
X40245Y95092D01*
X49077Y103924D01*
X49428Y104449D01*
X49551Y105069D01*
Y109731D01*
X49914D01*
Y112433D01*
X53051D01*
X53671Y112556D01*
X54196Y112907D01*
X84463Y143174D01*
X84925Y142983D01*
Y141535D01*
X87894D01*
Y143815D01*
X85757D01*
X85566Y144277D01*
X86453Y145165D01*
X92237D01*
Y150382D01*
X98413D01*
Y147080D01*
D02*
G37*
%LPC*%
G36*
X92437Y143815D02*
X89468D01*
Y141535D01*
X92437D01*
Y143815D01*
D02*
G37*
G36*
Y139961D02*
X89468D01*
Y137681D01*
X92437D01*
Y139961D01*
D02*
G37*
G36*
X87894D02*
X84925D01*
Y137681D01*
X87894D01*
Y139961D01*
D02*
G37*
%LPD*%
D15*
X160630Y156122D02*
D03*
Y158622D02*
D03*
Y161122D02*
D03*
Y163622D02*
D03*
Y166122D02*
D03*
Y168622D02*
D03*
Y171122D02*
D03*
Y173622D02*
D03*
Y176122D02*
D03*
Y178622D02*
D03*
Y181122D02*
D03*
Y183622D02*
D03*
Y186122D02*
D03*
Y188622D02*
D03*
Y191122D02*
D03*
Y193622D02*
D03*
Y196122D02*
D03*
Y198622D02*
D03*
X111811Y156122D02*
D03*
Y158622D02*
D03*
Y161122D02*
D03*
Y163622D02*
D03*
Y166122D02*
D03*
Y168622D02*
D03*
Y171122D02*
D03*
Y173622D02*
D03*
Y176122D02*
D03*
Y178622D02*
D03*
Y181122D02*
D03*
Y183622D02*
D03*
Y186122D02*
D03*
Y188622D02*
D03*
Y191122D02*
D03*
Y193622D02*
D03*
Y196122D02*
D03*
Y198622D02*
D03*
D16*
X86221Y180709D02*
D03*
X78937D02*
D03*
D17*
X70177Y184252D02*
D03*
Y176969D02*
D03*
X377165Y121851D02*
D03*
Y114567D02*
D03*
D18*
X181578Y136401D02*
D03*
X186729Y141551D02*
D03*
X170260Y140338D02*
D03*
X175410Y145489D02*
D03*
D19*
X101969Y147835D02*
D03*
Y140551D02*
D03*
X88681Y148031D02*
D03*
Y140748D02*
D03*
X213976Y153937D02*
D03*
Y146654D02*
D03*
X205512Y159547D02*
D03*
Y166831D02*
D03*
X111614Y127756D02*
D03*
Y135039D02*
D03*
X205610Y195177D02*
D03*
Y187894D02*
D03*
X111516Y228937D02*
D03*
Y221654D02*
D03*
X214567Y201181D02*
D03*
Y208465D02*
D03*
X101575Y215059D02*
D03*
Y207776D02*
D03*
X363386Y114567D02*
D03*
Y121850D02*
D03*
X81339Y223110D02*
D03*
Y215827D02*
D03*
D20*
X22736Y113681D02*
D03*
X42815D02*
D03*
D21*
X86221Y170472D02*
D03*
X78937D02*
D03*
X385236Y114173D02*
D03*
X392520D02*
D03*
D22*
X170653Y215961D02*
D03*
X175803Y210811D02*
D03*
X186433Y217897D02*
D03*
X181283Y223047D02*
D03*
D23*
X333661Y177165D02*
D03*
X280512D02*
D03*
D24*
X67224Y268799D02*
D03*
X32972D02*
D03*
D41*
X176770Y216723D02*
X176772D01*
X170963Y210916D02*
X176770Y216723D01*
X170963Y206969D02*
Y210916D01*
Y206969D02*
X171003Y206928D01*
X162697Y198622D02*
X171003Y206928D01*
X160630Y198622D02*
X162697D01*
Y156122D02*
X170079Y148740D01*
Y145693D02*
Y148740D01*
Y145693D02*
X184610Y131161D01*
Y127102D02*
X184941Y126772D01*
X184610Y127102D02*
Y131161D01*
X160630Y156122D02*
X162697D01*
X179347Y223047D02*
X181283D01*
X176772Y220472D02*
X179347Y223047D01*
X176772Y216723D02*
Y220472D01*
X185138Y228990D02*
Y229528D01*
X181283Y225135D02*
X185138Y228990D01*
X181283Y223047D02*
Y225135D01*
D42*
X164015Y196122D02*
X164346Y196453D01*
X166244D01*
X175316Y205524D01*
Y210324D01*
X175803Y210811D01*
X160630Y196122D02*
X164015D01*
X164684Y158622D02*
X165285Y158021D01*
X165798D01*
X175410Y145489D02*
Y148409D01*
X165798Y158021D02*
X175410Y148409D01*
X160630Y158622D02*
X164684D01*
X31004Y206870D02*
X32402Y208268D01*
X55838D02*
X65606Y198499D01*
X32402Y208268D02*
X55838D01*
X31004Y196870D02*
X31969Y197835D01*
X62339D02*
X64049Y196124D01*
X31969Y197835D02*
X62339D01*
X31004Y186870D02*
X32323Y188189D01*
X59472D02*
X65033Y193750D01*
X32323Y188189D02*
X59472D01*
X31004Y176870D02*
X32382Y178248D01*
X52890D02*
X66016Y191375D01*
X32382Y178248D02*
X52890D01*
X31004Y166870D02*
X32736Y168602D01*
X46602D02*
X67000Y189000D01*
X32736Y168602D02*
X46602D01*
X31004Y156870D02*
X31909Y157776D01*
X58776D02*
X60750Y159750D01*
X31909Y157776D02*
X58776D01*
X31004Y146870D02*
X32264Y148130D01*
X52772D02*
X62016Y157375D01*
X32264Y148130D02*
X52772D01*
X31004Y136870D02*
X32815Y138681D01*
X46681D02*
X63000Y155000D01*
X32815Y138681D02*
X46681D01*
X95472Y141850D02*
X109744Y156122D01*
X86211Y222156D02*
X109744Y198622D01*
X53051Y114051D02*
X91000Y152000D01*
X97913Y165256D02*
X101279Y168622D01*
X83464Y165256D02*
X97913D01*
X101279Y168622D02*
X111811D01*
X78937Y169783D02*
Y171161D01*
X103779Y171122D02*
X106280Y173622D01*
X111811D01*
X101279Y168622D02*
X103779Y171122D01*
X111811D01*
X154599Y171122D02*
X160630D01*
X154323Y183760D02*
X154461D01*
X154599Y183622D01*
X160630D01*
X164272Y173622D02*
X164272Y173622D01*
X160630Y173622D02*
X164272D01*
X164272Y173622D02*
X167689D01*
X160630Y161122D02*
X165272D01*
X155551Y191122D02*
X160630D01*
X155551Y163622D02*
X160630D01*
X100447Y198499D02*
X102824Y196122D01*
X65606Y198499D02*
X100447D01*
X99463Y196124D02*
X101965Y193622D01*
X64049Y196124D02*
X99463D01*
X95375Y186625D02*
X98378Y183622D01*
X72550Y186625D02*
X95375D01*
X70177Y184252D02*
X72550Y186625D01*
X98378Y183622D02*
X111811D01*
X99390Y186122D02*
X111811D01*
X96512Y189000D02*
X99390Y186122D01*
X67000Y189000D02*
X96512D01*
X98479Y193750D02*
X101107Y191122D01*
X65033Y193750D02*
X98479D01*
X99122Y176122D02*
X111811D01*
X95441Y172441D02*
X99122Y176122D01*
X87500Y172441D02*
X95441D01*
X102824Y196122D02*
X111811D01*
X101965Y193622D02*
X111811D01*
X101107Y191122D02*
X111811D01*
X66016Y191375D02*
X97496D01*
X100249Y188622D01*
X111811D01*
X60750Y159750D02*
X97016D01*
X103389Y166122D01*
X111811D01*
X98000Y157375D02*
X104247Y163622D01*
X111811D01*
X62016Y157375D02*
X98000D01*
X63000Y155000D02*
X100000D01*
X106122Y161122D01*
X111811D01*
X91000Y152000D02*
X101000D01*
X107622Y158622D01*
X111811D01*
X47933Y113681D02*
X48303Y114051D01*
X53051D01*
X47933Y105069D02*
Y113681D01*
X75689Y176969D02*
X78937Y180217D01*
X70177Y176969D02*
X75689D01*
X121653Y186713D02*
X129744Y178622D01*
X121653Y186713D02*
Y211516D01*
X113484Y219685D02*
X121653Y211516D01*
X129744Y178622D02*
X160630D01*
X130157Y176122D02*
X160630D01*
X78937Y171161D02*
X83366Y175591D01*
X78937Y180217D02*
X83366Y175787D01*
X70177Y184252D02*
X70669D01*
X83366Y175591D02*
Y175787D01*
X86211Y222156D02*
Y223110D01*
X90551Y227972D02*
X91083Y227441D01*
X109744Y198622D02*
X111811D01*
X113484Y219685D02*
Y220374D01*
X112205Y221654D02*
X113484Y220374D01*
X111516Y221654D02*
X112205D01*
X35876Y93012D02*
X42717D01*
X29035D02*
X35876D01*
X47933Y105069D01*
X28937Y92913D02*
X29035Y93012D01*
X42717D02*
X81339Y131634D01*
X91083D01*
X83366Y175591D02*
X94442D01*
X97473Y178622D01*
X78937Y169783D02*
X83464Y165256D01*
X97473Y178622D02*
X111811D01*
X86221Y171161D02*
X87500Y172441D01*
X86221Y170472D02*
Y171161D01*
X122146Y144882D02*
Y168110D01*
X112303Y135039D02*
X122146Y144882D01*
Y168110D02*
X130157Y176122D01*
X91083Y131634D02*
X95472Y136024D01*
X91083Y127303D02*
Y131634D01*
X90551Y126772D02*
X91083Y127303D01*
X95472Y136024D02*
Y141850D01*
X109744Y156122D02*
X111811D01*
X111516Y133661D02*
X112598Y134744D01*
X111614Y135039D02*
X112303D01*
X110827Y133661D02*
X111516D01*
X160630Y193622D02*
X165272D01*
X160630Y181122D02*
X164299D01*
X164299Y181122D01*
X167717D01*
D43*
X174114Y55610D02*
X282776D01*
X129823Y99902D02*
X174114Y55610D01*
X129823Y99902D02*
Y126772D01*
X156300Y215474D02*
X211595Y270768D01*
X150787Y209961D02*
X156300Y215474D01*
X154745Y140825D02*
X211614Y83957D01*
X312795Y198031D02*
X333662Y177165D01*
Y223327D01*
X312795Y156299D02*
X333662Y177165D01*
Y131004D02*
Y177165D01*
X215650Y140748D02*
X239764Y116634D01*
X208683Y140748D02*
X215650D01*
X239764Y116634D02*
X319291D01*
X190857Y158574D02*
X208683Y140748D01*
Y213583D02*
X215650D01*
X170965Y299114D02*
X278839D01*
X129823Y257972D02*
X170965Y299114D01*
X129823Y227972D02*
Y257972D01*
X211614Y83957D02*
X282776D01*
X150787Y206988D02*
Y209961D01*
Y144783D02*
X154745Y140825D01*
X150787Y144783D02*
Y157087D01*
X211595Y270768D02*
X278839D01*
X129823Y220787D02*
Y227972D01*
Y126772D02*
Y133957D01*
X319291Y116634D02*
X333662Y131004D01*
X319291Y237697D02*
X333662Y223327D01*
X239764Y237697D02*
X319291D01*
X215650Y213583D02*
X239764Y237697D01*
X191349Y196249D02*
X208683Y213583D01*
X224754Y170719D02*
X239173Y156299D01*
X312795Y156299D01*
X225197Y184055D02*
X239173Y198031D01*
X312795Y198031D01*
D44*
X72677Y223110D02*
X86211D01*
X156300Y215474D02*
X170166D01*
X154745Y140825D02*
X169772D01*
X71504Y224284D02*
X72677Y223110D01*
X71504Y224284D02*
Y325441D01*
X71358Y268799D02*
X73327Y266831D01*
X67224Y268799D02*
X71358D01*
X71504Y325441D02*
X74803Y328740D01*
X353051Y177165D02*
X353248Y176969D01*
X123622Y127756D02*
X129823Y133957D01*
X169772Y140825D02*
X170260Y140338D01*
X170166Y215474D02*
X170653Y215961D01*
X86211Y223110D02*
X91083D01*
Y227441D01*
X128858Y228937D02*
X129823Y227972D01*
X111516Y228937D02*
X128858D01*
X126230Y224380D02*
X129823Y220787D01*
X111614Y127756D02*
X123622D01*
X129331Y127264D02*
X129823Y126772D01*
X385236Y114173D02*
Y114370D01*
X385138Y114469D02*
X385236Y114370D01*
X377264Y114469D02*
X385138D01*
X377165Y114567D02*
X377264Y114469D01*
X353248Y131988D02*
Y176969D01*
Y131988D02*
X362598Y122638D01*
Y121949D02*
Y122638D01*
Y121949D02*
X362697Y121850D01*
X363386D01*
X377165Y121850D02*
X377165Y121851D01*
X363386Y121850D02*
X377165D01*
X363386Y121850D02*
X363386Y121850D01*
D45*
X393701Y177165D02*
X393701Y177165D01*
D46*
X364173D02*
D03*
D47*
X129823Y149134D02*
D03*
Y205610D02*
D03*
D48*
X144110Y170984D02*
D03*
Y183760D02*
D03*
D49*
X183732Y173740D02*
D03*
X183760Y181004D02*
D03*
D50*
X179035Y162372D02*
D03*
X179035Y192372D02*
D03*
D51*
X150689Y200640D02*
D03*
D52*
X150787Y160777D02*
D03*
D53*
X30709Y207677D02*
D03*
D54*
Y197835D02*
D03*
Y187992D02*
D03*
Y178150D02*
D03*
Y168307D02*
D03*
Y158465D02*
D03*
Y148622D02*
D03*
Y138779D02*
D03*
D55*
X282776Y83957D02*
D03*
Y55610D02*
D03*
X278839Y299114D02*
D03*
Y270768D02*
D03*
X393701Y205512D02*
D03*
Y177165D02*
D03*
X74803Y328740D02*
D03*
X103150D02*
D03*
D56*
X94114Y78642D02*
D03*
X172933Y278642D02*
D03*
D57*
X61614Y136811D02*
D03*
X14961Y154134D02*
D03*
X294094Y102756D02*
D03*
X268602Y69390D02*
D03*
X213779Y193602D02*
D03*
X173425Y187303D02*
D03*
Y167224D02*
D03*
X214665Y161516D02*
D03*
X192323Y144193D02*
D03*
X194587Y214370D02*
D03*
X175984Y201181D02*
D03*
X176378Y153740D02*
D03*
X162894Y206594D02*
D03*
X161221Y148031D02*
D03*
X140551Y150098D02*
D03*
X141043Y203839D02*
D03*
X118898Y181595D02*
D03*
X118996Y173130D02*
D03*
X92815Y264764D02*
D03*
X215354Y286221D02*
D03*
X217717Y240354D02*
D03*
X253346Y226279D02*
D03*
X300197Y223721D02*
D03*
X301083Y131102D02*
D03*
X276969Y131988D02*
D03*
X245965Y130610D02*
D03*
X219094Y101870D02*
D03*
X213779Y122244D02*
D03*
X194291Y118602D02*
D03*
X413287Y217323D02*
D03*
X94000Y169000D02*
D03*
X92787Y180787D02*
D03*
X141142Y161319D02*
D03*
X369000Y154000D02*
D03*
X43000Y162000D02*
D03*
X45000Y192000D02*
D03*
X198425Y189764D02*
D03*
Y164567D02*
D03*
X63779Y146850D02*
D03*
X12205Y184646D02*
D03*
X76772Y277559D02*
D03*
X315748Y304724D02*
D03*
X252953Y310236D02*
D03*
X62992Y216535D02*
D03*
X75984Y78740D02*
D03*
X348819Y119685D02*
D03*
X281102Y166535D02*
D03*
X280709Y187402D02*
D03*
X249606Y176772D02*
D03*
X299213Y324803D02*
D03*
X230315D02*
D03*
X340551Y269685D02*
D03*
X19685Y66535D02*
D03*
X68898Y26378D02*
D03*
X165748Y17323D02*
D03*
X249213Y19685D02*
D03*
X340000Y15000D02*
D03*
X318150Y69685D02*
D03*
X360000Y42000D02*
D03*
X387000Y68000D02*
D03*
X373031Y207185D02*
D03*
X363779Y245244D02*
D03*
X381496Y293669D02*
D03*
X403000Y259000D02*
D03*
X412000Y138000D02*
D03*
X356299Y316929D02*
D03*
X387795Y129921D02*
D03*
X396063Y105118D02*
D03*
X362992Y105512D02*
D03*
X130315Y312598D02*
D03*
X131102Y43307D02*
D03*
X11122Y113779D02*
D03*
X23622Y102756D02*
D03*
X29921Y124016D02*
D03*
X37402Y287402D02*
D03*
X113779Y275197D02*
D03*
X112598Y114173D02*
D03*
X112992Y78740D02*
D03*
X62402Y177559D02*
D03*
X71260Y168898D02*
D03*
X95276Y148819D02*
D03*
X82284Y136614D02*
D03*
X86614Y208661D02*
D03*
X114173Y244094D02*
D03*
X102362Y224410D02*
D03*
X122047Y177165D02*
D03*
X110236Y208661D02*
D03*
Y145669D02*
D03*
X212008Y311811D02*
D03*
X196850Y275590D02*
D03*
X172441Y310236D02*
D03*
X136713Y290354D02*
D03*
X177165Y255906D02*
D03*
X141732Y251969D02*
D03*
X157480Y236221D02*
D03*
X141732Y220472D02*
D03*
X140650Y193110D02*
D03*
X307087Y275590D02*
D03*
X249016Y283465D02*
D03*
X296555Y254134D02*
D03*
X251969Y259842D02*
D03*
X220472Y251969D02*
D03*
X184941Y206496D02*
D03*
X200787Y224410D02*
D03*
X192913Y236221D02*
D03*
X299213Y70866D02*
D03*
X307087Y98425D02*
D03*
X267717D02*
D03*
X253543Y72244D02*
D03*
X233465Y99508D02*
D03*
X208661Y110236D02*
D03*
X196850Y133858D02*
D03*
X182776Y149606D02*
D03*
X172835Y88976D02*
D03*
X150787Y114567D02*
D03*
X224213Y73228D02*
D03*
X188976Y82677D02*
D03*
X165354Y102362D02*
D03*
X145669Y122047D02*
D03*
X311024Y216535D02*
D03*
X287402D02*
D03*
X255906D02*
D03*
X236221Y212598D02*
D03*
X224410Y200787D02*
D03*
X255906Y169291D02*
D03*
Y185039D02*
D03*
X307087D02*
D03*
Y169291D02*
D03*
X244094D02*
D03*
Y185039D02*
D03*
X311024Y137795D02*
D03*
X287402D02*
D03*
X255906D02*
D03*
X236221Y141732D02*
D03*
X224410Y153543D02*
D03*
D58*
X184941Y126772D02*
D03*
X185138Y229528D02*
D03*
X72677Y223110D02*
D03*
X90551Y227972D02*
D03*
X28937Y92913D02*
D03*
X90551Y126772D02*
D03*
M02*
