M48
;Layer_Color=9474304
;FILE_FORMAT=2:5
INCH,LZ
;TYPE=PLATED
T1F00S00C0.01181
T2F00S00C0.01968
T3F00S00C0.02799
T4F00S00C0.02800
T5F00S00C0.04016
T6F00S00C0.11811
T7F00S00C0.15748
T8F00S00C0.17717
%
T01
X009252Y0179921
X0198425Y0189764
Y0164567
T02
X0082284Y0136614
X0095276Y0148819
X007126Y0168898
X0062205Y017874
T03
X0428346Y0098032
X0396063Y0105118
X0387795Y0129921
X0348819Y0119685
X0362992Y0105512
X035315Y0069685
X0337008Y0018504
X0398425Y0030709
X0249213Y0019685
X0165748Y0017323
X0131102Y0043307
X0112992Y007874
X0112598Y0114173
X0075984Y007874
X0068898Y0026378
X0019685Y0066535
X0023622Y0102756
X0029921Y0124016
X000748Y0121653
X0012205Y0184646
X0063779Y014685
X0072677Y022311
X0066142Y025748
X008937Y026811
X0113779Y0275197
X0249606Y0176772
X0280315Y0167323
X0280709Y0187402
X0381496Y0217717
X0413779Y0247244
X0383465Y0284646
X0348425Y0254724
X0382677Y0154331
X0431496Y0295669
X0357874Y0327165
X0315748Y0304724
X03Y0337402
X0230709
X0254724Y0304724
X0166929Y0337795
X0130315Y0312598
X009685Y0325984
X0067323Y0325197
X0037795Y0322441
X0030315Y0294094
T04
X0267717Y0098425
X0307087
X0299213Y0070866
X0257087Y0076772
X0232283Y0090551
X0208661Y0110236
X019685Y0133858
X0184941Y0126772
X0165354Y0102362
X0149606Y0086614
X0145669Y0122047
X0169291Y0062992
X0188976Y0082677
X0212598Y0059055
X0090551Y0126772
X0028937Y0092913
X0019685Y0228346
Y0255906
X0062992Y0216535
X0086614Y0208661
X0090551Y0227972
X0102362Y022441
X0110236Y0208661
X0114173Y0244094
X0141732Y0251969
X0145669Y027559
X019685
X0177165Y0255906
X0185138Y0229528
X019685Y0220472
X0185039Y0208661
X0204724Y0236221
X0220472Y0251969
X0251969Y0259842
X0255906Y0216535
X0236221Y0212598
X022441Y0200787
X0244094Y0185039
X0255906
Y0169291
X0244094
X022441Y0153543
X0236221Y0141732
X0255906Y0137795
X0185039Y0145669
X0141732Y0161417
Y0192913
Y0220472
X015748Y0236221
X0122047Y0177165
X0110236Y0145669
X0287402Y0137795
X0311024
X0307087Y0169291
Y0185039
X0311024Y0216535
X0287402
X0283465Y0259842
X0267717Y0270866
X0307087Y027559
X0353248Y0177362
X0212598Y0299213
X0173228Y030315
T05
X0031004Y013687
Y014687
Y015687
Y016687
Y017687
Y018687
Y019687
Y020687
T06
X0094114Y0078642
X0172933Y0278642
T07
X0440945Y0015748
X0015748
X0440945Y0338583
X0015748
T08
X0282283Y0036614
Y0064961
X0283465Y0290158
X0422835Y0190551
Y0162205
X0283465Y0318504
X0090945Y0298031
X0062598
M30
