%TF.GenerationSoftware,Altium Limited,Altium Designer,19.1.8 (144)*%
G04 Layer_Color=0*
%FSLAX26Y26*%
%MOIN*%
%TF.FileFunction,Plated,1,2,PTH,Drill*%
%TF.Part,Single*%
G01*
G75*
%TA.AperFunction,ComponentDrill*%
%ADD56C,0.177165*%
%ADD57C,0.177165*%
%ADD58C,0.040157*%
%TA.AperFunction,OtherDrill,Free Pad (941.142mil,786.417mil)*%
%ADD59C,0.118110*%
%TA.AperFunction,OtherDrill,Free Pad (1729.331mil,2786.417mil)*%
%ADD60C,0.118110*%
%TA.AperFunction,OtherDrill,Free Pad (4409.449mil,3385.827mil)*%
%ADD61C,0.157480*%
%TA.AperFunction,OtherDrill,Free Pad (157.48mil,3385.827mil)*%
%ADD62C,0.157480*%
%TA.AperFunction,OtherDrill,Free Pad (157.48mil,157.48mil)*%
%ADD63C,0.157480*%
%TA.AperFunction,OtherDrill,Free Pad (4409.449mil,157.48mil)*%
%ADD64C,0.157480*%
%TA.AperFunction,ViaDrill,NotFilled*%
%ADD65C,0.011811*%
%ADD66C,0.027992*%
%ADD67C,0.028000*%
%ADD68C,0.019685*%
D56*
X4228346Y1905512D02*
D03*
Y1622047D02*
D03*
X2822835Y366142D02*
D03*
Y649606D02*
D03*
X2834646Y2901575D02*
D03*
Y3185039D02*
D03*
D57*
X625984Y2980315D02*
D03*
X909449D02*
D03*
D58*
X310039Y2068700D02*
D03*
Y1968700D02*
D03*
Y1868700D02*
D03*
Y1768700D02*
D03*
Y1668700D02*
D03*
Y1568700D02*
D03*
Y1468700D02*
D03*
Y1368700D02*
D03*
D59*
X941142Y786417D02*
D03*
D60*
X1729331Y2786417D02*
D03*
D61*
X4409449Y3385827D02*
D03*
D62*
X157480D02*
D03*
D63*
Y157480D02*
D03*
D64*
X4409449D02*
D03*
D65*
X1984252Y1897638D02*
D03*
Y1645669D02*
D03*
X925197Y1799213D02*
D03*
D66*
X637795Y1468504D02*
D03*
X122047Y1846457D02*
D03*
X893701Y2681102D02*
D03*
X3157480Y3047244D02*
D03*
X2547244D02*
D03*
X726772Y2231102D02*
D03*
X759842Y787402D02*
D03*
X3488189Y1196850D02*
D03*
X2803150Y1673228D02*
D03*
X2807087Y1874016D02*
D03*
X2496063Y1767716D02*
D03*
X3000000Y3374016D02*
D03*
X2307087D02*
D03*
X1669291Y3377953D02*
D03*
X303150Y2940945D02*
D03*
X196850Y665354D02*
D03*
X688976Y263779D02*
D03*
X1657480Y173228D02*
D03*
X2492126Y196850D02*
D03*
X3370079Y185039D02*
D03*
X3531496Y696850D02*
D03*
X3984252Y307087D02*
D03*
X4283465Y980315D02*
D03*
X3826772Y1543307D02*
D03*
X3814961Y2177165D02*
D03*
X4137795Y2472441D02*
D03*
X4314961Y2956693D02*
D03*
X3834646Y2846457D02*
D03*
X3484252Y2547244D02*
D03*
X3578740Y3271653D02*
D03*
X3877953Y1299213D02*
D03*
X3960630Y1051181D02*
D03*
X3629921Y1055118D02*
D03*
X1303150Y3125984D02*
D03*
X1311024Y433071D02*
D03*
X74803Y1216535D02*
D03*
X236220Y1027559D02*
D03*
X299213Y1240158D02*
D03*
X673228Y3251968D02*
D03*
X377953Y3224409D02*
D03*
X968504Y3259843D02*
D03*
X661417Y2574803D02*
D03*
X1137795Y2751968D02*
D03*
X1125984Y1141732D02*
D03*
X1129921Y787402D02*
D03*
D67*
X629921Y2165354D02*
D03*
X866142Y2086614D02*
D03*
X196850Y2559055D02*
D03*
Y2283465D02*
D03*
X1141732Y2440945D02*
D03*
X1023622Y2244095D02*
D03*
X1220472Y1771653D02*
D03*
X1102362Y2086614D02*
D03*
Y1456693D02*
D03*
X2125984Y2992126D02*
D03*
X1968504Y2755905D02*
D03*
X1732284Y3031496D02*
D03*
X1456693Y2755905D02*
D03*
X1771653Y2559055D02*
D03*
X1417323Y2519685D02*
D03*
X1574803Y2362205D02*
D03*
X1417323Y2204724D02*
D03*
Y1614173D02*
D03*
Y1929134D02*
D03*
X3070866Y2755905D02*
D03*
X2677165Y2708661D02*
D03*
X2834646Y2598425D02*
D03*
X2519685D02*
D03*
X2204724Y2519685D02*
D03*
X2047244Y2362205D02*
D03*
X1968504Y2204724D02*
D03*
X1850394Y2086614D02*
D03*
X2992126Y708661D02*
D03*
X3070866Y984252D02*
D03*
X2677165D02*
D03*
X2570866Y767716D02*
D03*
X2322835Y905512D02*
D03*
X2086614Y1102362D02*
D03*
X1968504Y1338583D02*
D03*
X1850394Y1456693D02*
D03*
X1692913Y629921D02*
D03*
X1496063Y866142D02*
D03*
X2125984Y590551D02*
D03*
X1889764Y826772D02*
D03*
X1653543Y1023622D02*
D03*
X1456693Y1220472D02*
D03*
X3110236Y2165354D02*
D03*
X2874016D02*
D03*
X2559055D02*
D03*
X2362205Y2125984D02*
D03*
X2244095Y2007874D02*
D03*
X2559055Y1692913D02*
D03*
Y1850394D02*
D03*
X3070866D02*
D03*
Y1692913D02*
D03*
X2440945D02*
D03*
Y1850394D02*
D03*
X3110236Y1377953D02*
D03*
X2874016D02*
D03*
X2559055D02*
D03*
X2362205Y1417323D02*
D03*
X2244095Y1535433D02*
D03*
X905512Y2279724D02*
D03*
X289370Y929134D02*
D03*
X1851378Y2295276D02*
D03*
X905512Y1267716D02*
D03*
X1849409D02*
D03*
X3532480Y1773622D02*
D03*
D68*
X622047Y1787402D02*
D03*
X712598Y1688976D02*
D03*
X952756Y1488189D02*
D03*
X822835Y1366142D02*
D03*
%TF.MD5,155d602b69a645b6943092bf3b6dcb4c*%
M02*
