G04*
G04 #@! TF.GenerationSoftware,Altium Limited,Altium Designer,19.1.8 (144)*
G04*
G04 Layer_Color=65535*
%FSLAX25Y25*%
%MOIN*%
G70*
G01*
G75*
%ADD10C,0.00787*%
%ADD11C,0.03937*%
%ADD12C,0.01000*%
%ADD13C,0.00591*%
G36*
X375924Y69548D02*
X377678D01*
Y69256D01*
X379431D01*
Y68964D01*
X381185D01*
Y68671D01*
X382939D01*
Y68379D01*
X384692D01*
Y68087D01*
X382939D01*
Y67795D01*
X381185D01*
Y67502D01*
X379431D01*
Y67210D01*
X377678D01*
Y66918D01*
X375924D01*
Y66625D01*
X375339D01*
Y66918D01*
X373586D01*
Y67210D01*
X371832D01*
Y67502D01*
X370078D01*
Y67795D01*
X368325D01*
Y68087D01*
X366571D01*
Y68379D01*
X368325D01*
Y68671D01*
X370078D01*
Y68964D01*
X371832D01*
Y69256D01*
X373586D01*
Y69548D01*
X375339D01*
Y69841D01*
X375924D01*
Y69548D01*
D02*
G37*
G36*
X391999Y62826D02*
X391707D01*
Y62534D01*
X391414D01*
Y62241D01*
X391122D01*
Y61949D01*
X390830D01*
Y61657D01*
X390538D01*
Y61365D01*
Y61072D01*
X390245D01*
Y60780D01*
X389953D01*
Y60488D01*
X389661D01*
Y60195D01*
X389368D01*
Y59903D01*
X389076D01*
Y59611D01*
Y59319D01*
X388784D01*
Y59026D01*
X388492D01*
Y58734D01*
X388199D01*
Y58442D01*
X387907D01*
Y58150D01*
X387615D01*
Y57857D01*
Y57565D01*
X387322D01*
Y57273D01*
X387030D01*
Y56981D01*
X386738D01*
Y56688D01*
X386446D01*
Y56396D01*
X386154D01*
Y56104D01*
Y55811D01*
X385861D01*
Y55519D01*
X385569D01*
Y55227D01*
X385277D01*
Y54935D01*
Y54642D01*
Y54350D01*
X384984D01*
Y54058D01*
Y53765D01*
X384692D01*
Y53473D01*
Y53181D01*
Y52889D01*
X384400D01*
Y52596D01*
Y52304D01*
X384107D01*
Y52012D01*
Y51720D01*
Y51427D01*
X383815D01*
Y51135D01*
Y50843D01*
X383523D01*
Y50551D01*
Y50258D01*
Y49966D01*
X383231D01*
Y49674D01*
Y49382D01*
X382939D01*
Y49089D01*
Y48797D01*
Y48505D01*
X382646D01*
Y48212D01*
Y47920D01*
X382354D01*
Y47628D01*
Y47336D01*
Y47043D01*
X382062D01*
Y46751D01*
Y46459D01*
X381769D01*
Y46167D01*
Y45874D01*
Y45582D01*
X381477D01*
Y45290D01*
Y44997D01*
X381185D01*
Y44705D01*
Y44413D01*
Y44121D01*
X380893D01*
Y43828D01*
Y43536D01*
X380600D01*
Y43244D01*
Y42952D01*
Y42659D01*
X380308D01*
Y42952D01*
Y43244D01*
Y43536D01*
Y43828D01*
Y44121D01*
Y44413D01*
X380600D01*
Y44705D01*
Y44997D01*
Y45290D01*
Y45582D01*
Y45874D01*
Y46167D01*
X380893D01*
Y46459D01*
Y46751D01*
Y47043D01*
Y47336D01*
Y47628D01*
Y47920D01*
X381185D01*
Y48212D01*
Y48505D01*
Y48797D01*
Y49089D01*
Y49382D01*
X381477D01*
Y49674D01*
Y49966D01*
Y50258D01*
Y50551D01*
Y50843D01*
Y51135D01*
X381769D01*
Y51427D01*
Y51720D01*
Y52012D01*
Y52304D01*
Y52596D01*
Y52889D01*
X382062D01*
Y53181D01*
Y53473D01*
Y53765D01*
Y54058D01*
Y54350D01*
Y54642D01*
X382354D01*
Y54935D01*
Y55227D01*
Y55519D01*
Y55811D01*
Y56104D01*
Y56396D01*
X382646D01*
Y56688D01*
Y56981D01*
Y57273D01*
Y57565D01*
X383231D01*
Y57857D01*
X383523D01*
Y58150D01*
X384107D01*
Y58442D01*
X384400D01*
Y58734D01*
X384984D01*
Y59026D01*
X385277D01*
Y59319D01*
X385861D01*
Y59611D01*
X386446D01*
Y59903D01*
X386738D01*
Y60195D01*
X387322D01*
Y60488D01*
X387615D01*
Y60780D01*
X388199D01*
Y61072D01*
X388492D01*
Y61365D01*
X389076D01*
Y61657D01*
X389661D01*
Y61949D01*
X389953D01*
Y62241D01*
X390538D01*
Y62534D01*
X390830D01*
Y62826D01*
X391414D01*
Y63118D01*
X391999D01*
Y62826D01*
D02*
G37*
G36*
X359849D02*
X360434D01*
Y62534D01*
X360726D01*
Y62241D01*
X361310D01*
Y61949D01*
X361603D01*
Y61657D01*
X362187D01*
Y61365D01*
X362479D01*
Y61072D01*
X363064D01*
Y60780D01*
X363649D01*
Y60488D01*
X363941D01*
Y60195D01*
X364525D01*
Y59903D01*
X364818D01*
Y59611D01*
X365402D01*
Y59319D01*
X365694D01*
Y59026D01*
X366279D01*
Y58734D01*
X366863D01*
Y58442D01*
X367156D01*
Y58150D01*
X367740D01*
Y57857D01*
X368033D01*
Y57565D01*
X368617D01*
Y57273D01*
Y56981D01*
Y56688D01*
Y56396D01*
X368909D01*
Y56104D01*
Y55811D01*
Y55519D01*
Y55227D01*
Y54935D01*
Y54642D01*
X369202D01*
Y54350D01*
Y54058D01*
Y53765D01*
Y53473D01*
Y53181D01*
Y52889D01*
X369494D01*
Y52596D01*
Y52304D01*
Y52012D01*
Y51720D01*
Y51427D01*
Y51135D01*
X369786D01*
Y50843D01*
Y50551D01*
Y50258D01*
Y49966D01*
Y49674D01*
Y49382D01*
X370078D01*
Y49089D01*
Y48797D01*
Y48505D01*
Y48212D01*
Y47920D01*
Y47628D01*
X370371D01*
Y47336D01*
Y47043D01*
Y46751D01*
Y46459D01*
Y46167D01*
Y45874D01*
X370663D01*
Y45582D01*
Y45290D01*
Y44997D01*
Y44705D01*
Y44413D01*
Y44121D01*
X370955D01*
Y43828D01*
Y43536D01*
Y43244D01*
Y42952D01*
Y42659D01*
X370663D01*
Y42952D01*
Y43244D01*
X370371D01*
Y43536D01*
Y43828D01*
Y44121D01*
X370078D01*
Y44413D01*
Y44705D01*
X369786D01*
Y44997D01*
Y45290D01*
Y45582D01*
X369494D01*
Y45874D01*
Y46167D01*
X369202D01*
Y46459D01*
Y46751D01*
Y47043D01*
X368909D01*
Y47336D01*
Y47628D01*
X368617D01*
Y47920D01*
Y48212D01*
Y48505D01*
X368325D01*
Y48797D01*
Y49089D01*
X368033D01*
Y49382D01*
Y49674D01*
Y49966D01*
X367740D01*
Y50258D01*
Y50551D01*
X367448D01*
Y50843D01*
Y51135D01*
Y51427D01*
X367156D01*
Y51720D01*
Y52012D01*
X366863D01*
Y52304D01*
Y52596D01*
Y52889D01*
X366571D01*
Y53181D01*
Y53473D01*
X366279D01*
Y53765D01*
Y54058D01*
Y54350D01*
X365987D01*
Y54642D01*
Y54935D01*
X365694D01*
Y55227D01*
Y55519D01*
X365402D01*
Y55811D01*
X365110D01*
Y56104D01*
Y56396D01*
X364818D01*
Y56688D01*
X364525D01*
Y56981D01*
X364233D01*
Y57273D01*
X363941D01*
Y57565D01*
X363649D01*
Y57857D01*
Y58150D01*
X363356D01*
Y58442D01*
X363064D01*
Y58734D01*
X362772D01*
Y59026D01*
X362479D01*
Y59319D01*
X362187D01*
Y59611D01*
Y59903D01*
X361895D01*
Y60195D01*
X361603D01*
Y60488D01*
X361310D01*
Y60780D01*
X361018D01*
Y61072D01*
X360726D01*
Y61365D01*
Y61657D01*
X360434D01*
Y61949D01*
X360141D01*
Y62241D01*
X359849D01*
Y62534D01*
X359557D01*
Y62826D01*
X359264D01*
Y63118D01*
X359849D01*
Y62826D01*
D02*
G37*
G36*
X391122Y66333D02*
X390538D01*
Y66041D01*
X390245D01*
Y65749D01*
X389661D01*
Y65456D01*
X389368D01*
Y65164D01*
X388784D01*
Y64872D01*
X388492D01*
Y64580D01*
X387907D01*
Y64287D01*
X387615D01*
Y63995D01*
X387030D01*
Y63703D01*
X386738D01*
Y63411D01*
X386154D01*
Y63118D01*
X385569D01*
Y62826D01*
X385277D01*
Y62534D01*
X384692D01*
Y62241D01*
X384400D01*
Y61949D01*
X383815D01*
Y61657D01*
X383523D01*
Y61365D01*
X382939D01*
Y61072D01*
X382646D01*
Y60780D01*
X382062D01*
Y60488D01*
X381769D01*
Y60195D01*
X381185D01*
Y59903D01*
X380893D01*
Y59611D01*
X380308D01*
Y59319D01*
Y59026D01*
Y58734D01*
X380016D01*
Y58442D01*
Y58150D01*
Y57857D01*
Y57565D01*
Y57273D01*
Y56981D01*
X379724D01*
Y56688D01*
Y56396D01*
Y56104D01*
Y55811D01*
Y55519D01*
Y55227D01*
Y54935D01*
X379431D01*
Y54642D01*
Y54350D01*
Y54058D01*
Y53765D01*
Y53473D01*
Y53181D01*
X379139D01*
Y52889D01*
Y52596D01*
Y52304D01*
Y52012D01*
Y51720D01*
Y51427D01*
X378847D01*
Y51135D01*
Y50843D01*
Y50551D01*
Y50258D01*
Y49966D01*
Y49674D01*
Y49382D01*
X378554D01*
Y49089D01*
Y48797D01*
Y48505D01*
Y48212D01*
Y47920D01*
Y47628D01*
X378262D01*
Y47336D01*
Y47043D01*
Y46751D01*
Y46459D01*
Y46167D01*
Y45874D01*
Y45582D01*
X377970D01*
Y45290D01*
Y44997D01*
Y44705D01*
Y44413D01*
Y44121D01*
Y43828D01*
X377678D01*
Y43536D01*
Y43244D01*
Y42952D01*
Y42659D01*
Y42367D01*
Y42075D01*
X377385D01*
Y41782D01*
Y41490D01*
Y41198D01*
Y40906D01*
Y40613D01*
Y40321D01*
Y40029D01*
X377093D01*
Y39737D01*
Y39444D01*
Y39152D01*
Y38860D01*
Y38567D01*
Y38275D01*
X376801D01*
Y38567D01*
Y38860D01*
Y39152D01*
Y39444D01*
Y39737D01*
Y40029D01*
Y40321D01*
Y40613D01*
Y40906D01*
Y41198D01*
Y41490D01*
Y41782D01*
Y42075D01*
Y42367D01*
Y42659D01*
Y42952D01*
Y43244D01*
Y43536D01*
Y43828D01*
Y44121D01*
Y44413D01*
Y44705D01*
Y44997D01*
Y45290D01*
Y45582D01*
Y45874D01*
Y46167D01*
Y46459D01*
Y46751D01*
Y47043D01*
Y47336D01*
Y47628D01*
Y47920D01*
Y48212D01*
Y48505D01*
Y48797D01*
Y49089D01*
Y49382D01*
Y49674D01*
Y49966D01*
Y50258D01*
Y50551D01*
Y50843D01*
Y51135D01*
Y51427D01*
Y51720D01*
Y52012D01*
Y52304D01*
Y52596D01*
Y52889D01*
Y53181D01*
Y53473D01*
Y53765D01*
Y54058D01*
Y54350D01*
Y54642D01*
Y54935D01*
Y55227D01*
Y55519D01*
Y55811D01*
Y56104D01*
Y56396D01*
Y56688D01*
Y56981D01*
Y57273D01*
Y57565D01*
Y57857D01*
Y58150D01*
Y58442D01*
Y58734D01*
Y59026D01*
Y59319D01*
Y59611D01*
Y59903D01*
Y60195D01*
Y60488D01*
Y60780D01*
Y61072D01*
Y61365D01*
Y61657D01*
Y61949D01*
Y62241D01*
Y62534D01*
Y62826D01*
Y63118D01*
Y63411D01*
Y63703D01*
Y63995D01*
Y64287D01*
X377093D01*
Y64580D01*
X378847D01*
Y64872D01*
X380600D01*
Y65164D01*
X382354D01*
Y65456D01*
X384107D01*
Y65749D01*
X385861D01*
Y66041D01*
X387907D01*
Y66333D01*
X389661D01*
Y66625D01*
X391122D01*
Y66333D01*
D02*
G37*
G36*
X361603D02*
X363356D01*
Y66041D01*
X365110D01*
Y65749D01*
X367156D01*
Y65456D01*
X368909D01*
Y65164D01*
X370663D01*
Y64872D01*
X372417D01*
Y64580D01*
X374170D01*
Y64287D01*
X374463D01*
Y63995D01*
Y63703D01*
Y63411D01*
Y63118D01*
Y62826D01*
Y62534D01*
Y62241D01*
Y61949D01*
Y61657D01*
Y61365D01*
Y61072D01*
Y60780D01*
Y60488D01*
Y60195D01*
Y59903D01*
Y59611D01*
Y59319D01*
Y59026D01*
Y58734D01*
Y58442D01*
Y58150D01*
Y57857D01*
Y57565D01*
Y57273D01*
Y56981D01*
Y56688D01*
Y56396D01*
Y56104D01*
Y55811D01*
Y55519D01*
Y55227D01*
Y54935D01*
Y54642D01*
Y54350D01*
Y54058D01*
Y53765D01*
Y53473D01*
Y53181D01*
Y52889D01*
Y52596D01*
Y52304D01*
Y52012D01*
Y51720D01*
Y51427D01*
Y51135D01*
Y50843D01*
Y50551D01*
Y50258D01*
Y49966D01*
Y49674D01*
Y49382D01*
Y49089D01*
Y48797D01*
Y48505D01*
Y48212D01*
Y47920D01*
Y47628D01*
Y47336D01*
Y47043D01*
Y46751D01*
Y46459D01*
Y46167D01*
Y45874D01*
Y45582D01*
Y45290D01*
Y44997D01*
Y44705D01*
Y44413D01*
Y44121D01*
Y43828D01*
Y43536D01*
Y43244D01*
Y42952D01*
Y42659D01*
Y42367D01*
Y42075D01*
Y41782D01*
Y41490D01*
Y41198D01*
Y40906D01*
Y40613D01*
Y40321D01*
Y40029D01*
Y39737D01*
Y39444D01*
Y39152D01*
Y38860D01*
Y38567D01*
Y38275D01*
Y37983D01*
X374170D01*
Y38275D01*
Y38567D01*
Y38860D01*
Y39152D01*
Y39444D01*
Y39737D01*
Y40029D01*
X373878D01*
Y40321D01*
Y40613D01*
Y40906D01*
Y41198D01*
Y41490D01*
Y41782D01*
X373586D01*
Y42075D01*
Y42367D01*
Y42659D01*
Y42952D01*
Y43244D01*
Y43536D01*
Y43828D01*
X373293D01*
Y44121D01*
Y44413D01*
Y44705D01*
Y44997D01*
Y45290D01*
Y45582D01*
X373001D01*
Y45874D01*
Y46167D01*
Y46459D01*
Y46751D01*
Y47043D01*
Y47336D01*
X372709D01*
Y47628D01*
Y47920D01*
Y48212D01*
Y48505D01*
Y48797D01*
Y49089D01*
Y49382D01*
X372417D01*
Y49674D01*
Y49966D01*
Y50258D01*
Y50551D01*
Y50843D01*
Y51135D01*
X372124D01*
Y51427D01*
Y51720D01*
Y52012D01*
Y52304D01*
Y52596D01*
Y52889D01*
Y53181D01*
X371832D01*
Y53473D01*
Y53765D01*
Y54058D01*
Y54350D01*
Y54642D01*
Y54935D01*
X371540D01*
Y55227D01*
Y55519D01*
Y55811D01*
Y56104D01*
Y56396D01*
Y56688D01*
X371248D01*
Y56981D01*
Y57273D01*
Y57565D01*
Y57857D01*
Y58150D01*
Y58442D01*
Y58734D01*
X370955D01*
Y59026D01*
Y59319D01*
Y59611D01*
X370371D01*
Y59903D01*
X370078D01*
Y60195D01*
X369494D01*
Y60488D01*
X369202D01*
Y60780D01*
X368617D01*
Y61072D01*
X368325D01*
Y61365D01*
X367740D01*
Y61657D01*
X367448D01*
Y61949D01*
X366863D01*
Y62241D01*
X366279D01*
Y62534D01*
X365987D01*
Y62826D01*
X365402D01*
Y63118D01*
X365110D01*
Y63411D01*
X364525D01*
Y63703D01*
X364233D01*
Y63995D01*
X363649D01*
Y64287D01*
X363356D01*
Y64580D01*
X362772D01*
Y64872D01*
X362479D01*
Y65164D01*
X361895D01*
Y65456D01*
X361603D01*
Y65749D01*
X361018D01*
Y66041D01*
X360726D01*
Y66333D01*
X360141D01*
Y66625D01*
X361603D01*
Y66333D01*
D02*
G37*
G36*
X382144Y32895D02*
X382203D01*
X382341Y32881D01*
X382494Y32859D01*
X382655Y32823D01*
X382830Y32779D01*
X382997Y32721D01*
X383005D01*
X383019Y32713D01*
X383041Y32706D01*
X383070Y32691D01*
X383150Y32648D01*
X383253Y32597D01*
X383362Y32524D01*
X383478Y32436D01*
X383588Y32341D01*
X383690Y32225D01*
X383704Y32210D01*
X383734Y32166D01*
X383777Y32101D01*
X383836Y32006D01*
X383894Y31889D01*
X383960Y31744D01*
X384025Y31583D01*
X384076Y31401D01*
X383471Y31241D01*
Y31248D01*
X383464Y31255D01*
X383457Y31277D01*
X383449Y31306D01*
X383427Y31372D01*
X383398Y31459D01*
X383355Y31561D01*
X383303Y31656D01*
X383253Y31758D01*
X383187Y31846D01*
X383180Y31853D01*
X383158Y31882D01*
X383114Y31919D01*
X383063Y31970D01*
X382997Y32028D01*
X382910Y32086D01*
X382815Y32145D01*
X382706Y32196D01*
X382691Y32203D01*
X382655Y32217D01*
X382589Y32239D01*
X382502Y32269D01*
X382400Y32290D01*
X382283Y32312D01*
X382152Y32327D01*
X382013Y32334D01*
X381933D01*
X381896Y32327D01*
X381853D01*
X381744Y32320D01*
X381620Y32298D01*
X381481Y32276D01*
X381350Y32239D01*
X381219Y32188D01*
X381204Y32181D01*
X381160Y32166D01*
X381102Y32130D01*
X381029Y32094D01*
X380942Y32035D01*
X380847Y31977D01*
X380759Y31904D01*
X380679Y31824D01*
X380672Y31817D01*
X380643Y31787D01*
X380606Y31736D01*
X380562Y31678D01*
X380511Y31605D01*
X380460Y31518D01*
X380409Y31423D01*
X380358Y31321D01*
Y31313D01*
X380351Y31299D01*
X380344Y31277D01*
X380329Y31241D01*
X380315Y31197D01*
X380300Y31146D01*
X380278Y31087D01*
X380264Y31022D01*
X380227Y30869D01*
X380198Y30694D01*
X380176Y30512D01*
X380169Y30307D01*
Y30300D01*
Y30278D01*
Y30242D01*
X380176Y30198D01*
Y30140D01*
X380183Y30067D01*
X380191Y29994D01*
X380198Y29914D01*
X380227Y29732D01*
X380264Y29542D01*
X380322Y29353D01*
X380395Y29170D01*
Y29163D01*
X380409Y29148D01*
X380417Y29127D01*
X380438Y29097D01*
X380490Y29017D01*
X380570Y28915D01*
X380664Y28806D01*
X380781Y28696D01*
X380920Y28594D01*
X381073Y28500D01*
X381080D01*
X381095Y28492D01*
X381117Y28478D01*
X381153Y28463D01*
X381189Y28449D01*
X381241Y28434D01*
X381357Y28390D01*
X381503Y28354D01*
X381663Y28317D01*
X381838Y28288D01*
X382020Y28281D01*
X382093D01*
X382137Y28288D01*
X382181D01*
X382290Y28303D01*
X382421Y28317D01*
X382560Y28346D01*
X382713Y28390D01*
X382866Y28441D01*
X382873D01*
X382888Y28449D01*
X382903Y28456D01*
X382932Y28470D01*
X383012Y28507D01*
X383099Y28551D01*
X383202Y28602D01*
X383311Y28660D01*
X383413Y28726D01*
X383500Y28798D01*
Y29746D01*
X382013D01*
Y30344D01*
X384156D01*
Y28470D01*
X384149Y28463D01*
X384135Y28456D01*
X384105Y28434D01*
X384069Y28405D01*
X384025Y28376D01*
X383974Y28339D01*
X383909Y28295D01*
X383843Y28252D01*
X383690Y28157D01*
X383515Y28055D01*
X383333Y27960D01*
X383136Y27880D01*
X383129D01*
X383114Y27873D01*
X383085Y27865D01*
X383048Y27851D01*
X382997Y27836D01*
X382939Y27814D01*
X382873Y27800D01*
X382808Y27785D01*
X382647Y27749D01*
X382465Y27712D01*
X382268Y27690D01*
X382064Y27683D01*
X381991D01*
X381940Y27690D01*
X381875D01*
X381795Y27698D01*
X381707Y27712D01*
X381612Y27720D01*
X381401Y27763D01*
X381175Y27814D01*
X380942Y27894D01*
X380825Y27938D01*
X380708Y27997D01*
X380701Y28004D01*
X380679Y28011D01*
X380650Y28033D01*
X380606Y28055D01*
X380555Y28091D01*
X380504Y28128D01*
X380366Y28230D01*
X380220Y28361D01*
X380067Y28521D01*
X379921Y28704D01*
X379790Y28915D01*
Y28922D01*
X379775Y28944D01*
X379761Y28973D01*
X379739Y29024D01*
X379717Y29076D01*
X379695Y29148D01*
X379666Y29221D01*
X379637Y29309D01*
X379608Y29403D01*
X379578Y29513D01*
X379556Y29622D01*
X379535Y29739D01*
X379498Y29994D01*
X379484Y30264D01*
Y30271D01*
Y30300D01*
Y30337D01*
X379491Y30388D01*
Y30453D01*
X379498Y30533D01*
X379513Y30614D01*
X379520Y30708D01*
X379542Y30810D01*
X379556Y30920D01*
X379615Y31153D01*
X379688Y31394D01*
X379790Y31634D01*
X379797Y31642D01*
X379804Y31663D01*
X379819Y31693D01*
X379848Y31736D01*
X379877Y31795D01*
X379914Y31853D01*
X380016Y31991D01*
X380140Y32152D01*
X380293Y32305D01*
X380468Y32458D01*
X380570Y32524D01*
X380672Y32589D01*
X380679Y32597D01*
X380701Y32604D01*
X380730Y32618D01*
X380774Y32640D01*
X380832Y32662D01*
X380898Y32691D01*
X380971Y32721D01*
X381058Y32750D01*
X381153Y32779D01*
X381255Y32801D01*
X381364Y32830D01*
X381481Y32852D01*
X381736Y32888D01*
X381867Y32903D01*
X382101D01*
X382144Y32895D01*
D02*
G37*
G36*
X371873Y27771D02*
X371180D01*
X368541Y31729D01*
Y27771D01*
X367900D01*
Y32815D01*
X368585D01*
X371231Y28850D01*
Y32815D01*
X371873D01*
Y27771D01*
D02*
G37*
G36*
X375124D02*
X374424D01*
X372471Y32815D01*
X373200D01*
X374512Y29148D01*
Y29141D01*
X374519Y29127D01*
X374526Y29105D01*
X374541Y29076D01*
X374548Y29032D01*
X374563Y28988D01*
X374599Y28879D01*
X374643Y28755D01*
X374687Y28616D01*
X374774Y28325D01*
Y28332D01*
X374781Y28346D01*
X374789Y28368D01*
X374796Y28398D01*
X374818Y28478D01*
X374854Y28587D01*
X374891Y28711D01*
X374935Y28850D01*
X374986Y28995D01*
X375044Y29148D01*
X376414Y32815D01*
X377092D01*
X375124Y27771D01*
D02*
G37*
G36*
X385782Y28368D02*
X388268D01*
Y27771D01*
X385111D01*
Y32815D01*
X385782D01*
Y28368D01*
D02*
G37*
G36*
X364889Y32808D02*
X365035Y32801D01*
X365181Y32786D01*
X365326Y32764D01*
X365450Y32742D01*
X365458D01*
X365472Y32735D01*
X365494D01*
X365523Y32721D01*
X365603Y32699D01*
X365705Y32662D01*
X365822Y32611D01*
X365946Y32546D01*
X366070Y32473D01*
X366187Y32378D01*
X366194Y32371D01*
X366201Y32363D01*
X366223Y32341D01*
X366252Y32320D01*
X366325Y32247D01*
X366413Y32145D01*
X366507Y32021D01*
X366609Y31875D01*
X366704Y31707D01*
X366784Y31518D01*
Y31510D01*
X366792Y31496D01*
X366806Y31467D01*
X366813Y31423D01*
X366835Y31372D01*
X366850Y31313D01*
X366865Y31248D01*
X366886Y31168D01*
X366908Y31087D01*
X366923Y30993D01*
X366959Y30789D01*
X366981Y30563D01*
X366988Y30315D01*
Y30307D01*
Y30293D01*
Y30257D01*
Y30220D01*
X366981Y30169D01*
Y30111D01*
X366974Y29972D01*
X366952Y29812D01*
X366930Y29644D01*
X366894Y29469D01*
X366850Y29294D01*
Y29287D01*
X366843Y29272D01*
X366835Y29250D01*
X366828Y29221D01*
X366799Y29141D01*
X366755Y29039D01*
X366711Y28922D01*
X366653Y28806D01*
X366580Y28682D01*
X366507Y28565D01*
X366500Y28551D01*
X366471Y28514D01*
X366427Y28463D01*
X366369Y28398D01*
X366303Y28325D01*
X366223Y28252D01*
X366143Y28172D01*
X366048Y28106D01*
X366034Y28099D01*
X366004Y28077D01*
X365953Y28048D01*
X365880Y28011D01*
X365793Y27967D01*
X365691Y27931D01*
X365574Y27887D01*
X365443Y27851D01*
X365428D01*
X365407Y27843D01*
X365385Y27836D01*
X365312Y27829D01*
X365210Y27814D01*
X365093Y27800D01*
X364955Y27785D01*
X364802Y27778D01*
X364634Y27771D01*
X362819D01*
Y32815D01*
X364758D01*
X364889Y32808D01*
D02*
G37*
G36*
X376487Y25967D02*
X375868D01*
Y26674D01*
X376487D01*
Y25967D01*
D02*
G37*
G36*
X392620Y25362D02*
X392700Y25347D01*
X392795Y25318D01*
X392897Y25282D01*
X393014Y25231D01*
X393138Y25165D01*
X392912Y24597D01*
X392904Y24604D01*
X392875Y24618D01*
X392832Y24640D01*
X392773Y24662D01*
X392708Y24684D01*
X392627Y24706D01*
X392547Y24720D01*
X392467Y24728D01*
X392431D01*
X392394Y24720D01*
X392343Y24713D01*
X392292Y24699D01*
X392227Y24677D01*
X392161Y24647D01*
X392103Y24604D01*
X392095Y24597D01*
X392073Y24582D01*
X392052Y24553D01*
X392015Y24516D01*
X391979Y24465D01*
X391942Y24407D01*
X391906Y24341D01*
X391877Y24261D01*
X391869Y24247D01*
X391862Y24203D01*
X391847Y24137D01*
X391826Y24050D01*
X391804Y23940D01*
X391789Y23817D01*
X391782Y23685D01*
X391775Y23539D01*
Y21630D01*
X391155D01*
Y25289D01*
X391716D01*
Y24735D01*
X391723Y24742D01*
X391753Y24793D01*
X391789Y24859D01*
X391847Y24939D01*
X391906Y25019D01*
X391971Y25107D01*
X392037Y25180D01*
X392103Y25238D01*
X392110Y25245D01*
X392132Y25260D01*
X392176Y25282D01*
X392219Y25304D01*
X392278Y25326D01*
X392350Y25347D01*
X392423Y25362D01*
X392503Y25369D01*
X392554D01*
X392620Y25362D01*
D02*
G37*
G36*
X365100Y21630D02*
X364546D01*
Y22162D01*
X364539Y22154D01*
X364525Y22132D01*
X364503Y22103D01*
X364466Y22067D01*
X364422Y22023D01*
X364371Y21965D01*
X364313Y21914D01*
X364240Y21856D01*
X364160Y21797D01*
X364072Y21746D01*
X363978Y21695D01*
X363876Y21644D01*
X363759Y21608D01*
X363642Y21578D01*
X363511Y21557D01*
X363380Y21549D01*
X363329D01*
X363263Y21557D01*
X363183Y21564D01*
X363088Y21578D01*
X362986Y21600D01*
X362884Y21630D01*
X362775Y21673D01*
X362760Y21680D01*
X362731Y21695D01*
X362680Y21724D01*
X362622Y21761D01*
X362549Y21804D01*
X362483Y21856D01*
X362418Y21914D01*
X362359Y21979D01*
X362352Y21987D01*
X362337Y22016D01*
X362316Y22052D01*
X362286Y22111D01*
X362250Y22176D01*
X362221Y22256D01*
X362192Y22344D01*
X362170Y22439D01*
Y22446D01*
X362162Y22475D01*
X362155Y22519D01*
Y22577D01*
X362148Y22665D01*
X362141Y22759D01*
X362133Y22883D01*
Y23022D01*
Y25289D01*
X362753D01*
Y23255D01*
Y23248D01*
Y23233D01*
Y23211D01*
Y23175D01*
Y23095D01*
X362760Y22993D01*
Y22883D01*
X362768Y22774D01*
X362775Y22679D01*
X362790Y22599D01*
Y22592D01*
X362804Y22563D01*
X362819Y22519D01*
X362841Y22460D01*
X362877Y22402D01*
X362921Y22337D01*
X362972Y22278D01*
X363037Y22220D01*
X363045Y22213D01*
X363074Y22198D01*
X363110Y22176D01*
X363169Y22154D01*
X363234Y22125D01*
X363314Y22103D01*
X363402Y22089D01*
X363504Y22082D01*
X363555D01*
X363606Y22089D01*
X363671Y22096D01*
X363752Y22118D01*
X363839Y22140D01*
X363934Y22176D01*
X364029Y22220D01*
X364043Y22227D01*
X364072Y22249D01*
X364116Y22278D01*
X364167Y22322D01*
X364226Y22380D01*
X364284Y22446D01*
X364335Y22519D01*
X364379Y22606D01*
X364386Y22621D01*
X364393Y22650D01*
X364408Y22708D01*
X364430Y22789D01*
X364452Y22891D01*
X364466Y23015D01*
X364474Y23160D01*
X364481Y23328D01*
Y25289D01*
X365100D01*
Y21630D01*
D02*
G37*
G36*
X381977Y24866D02*
X381984Y24873D01*
X381999Y24888D01*
X382020Y24910D01*
X382057Y24946D01*
X382093Y24983D01*
X382144Y25027D01*
X382210Y25070D01*
X382276Y25121D01*
X382348Y25165D01*
X382429Y25209D01*
X382618Y25289D01*
X382720Y25326D01*
X382830Y25347D01*
X382946Y25362D01*
X383063Y25369D01*
X383129D01*
X383209Y25362D01*
X383303Y25347D01*
X383413Y25333D01*
X383529Y25304D01*
X383646Y25260D01*
X383763Y25209D01*
X383777Y25202D01*
X383814Y25180D01*
X383865Y25143D01*
X383930Y25092D01*
X383996Y25027D01*
X384069Y24954D01*
X384135Y24866D01*
X384193Y24764D01*
X384200Y24750D01*
X384215Y24713D01*
X384237Y24647D01*
X384259Y24553D01*
X384280Y24436D01*
X384302Y24298D01*
X384317Y24130D01*
X384324Y23940D01*
Y21630D01*
X383704D01*
Y23948D01*
Y23955D01*
Y23970D01*
Y23991D01*
Y24021D01*
X383697Y24101D01*
X383683Y24203D01*
X383653Y24312D01*
X383617Y24421D01*
X383566Y24531D01*
X383500Y24618D01*
X383493Y24626D01*
X383464Y24655D01*
X383420Y24691D01*
X383355Y24728D01*
X383274Y24771D01*
X383180Y24801D01*
X383063Y24830D01*
X382932Y24837D01*
X382888D01*
X382837Y24830D01*
X382764Y24823D01*
X382691Y24801D01*
X382604Y24779D01*
X382516Y24742D01*
X382421Y24691D01*
X382414Y24684D01*
X382385Y24662D01*
X382341Y24633D01*
X382290Y24589D01*
X382232Y24531D01*
X382174Y24465D01*
X382122Y24385D01*
X382079Y24298D01*
X382071Y24283D01*
X382064Y24254D01*
X382050Y24196D01*
X382028Y24123D01*
X382006Y24028D01*
X381991Y23911D01*
X381984Y23780D01*
X381977Y23627D01*
Y21630D01*
X381357D01*
Y26674D01*
X381977D01*
Y24866D01*
D02*
G37*
G36*
X376487Y21630D02*
X375868D01*
Y25289D01*
X376487D01*
Y21630D01*
D02*
G37*
G36*
X375080Y26076D02*
X372339D01*
Y24516D01*
X374709D01*
Y23919D01*
X372339D01*
Y21630D01*
X371669D01*
Y26674D01*
X375080D01*
Y26076D01*
D02*
G37*
G36*
X370597Y21630D02*
X369977D01*
Y26674D01*
X370597D01*
Y21630D01*
D02*
G37*
G36*
X361361Y26076D02*
X358620D01*
Y24516D01*
X360989D01*
Y23919D01*
X358620D01*
Y21630D01*
X357949D01*
Y26674D01*
X361361D01*
Y26076D01*
D02*
G37*
G36*
X386001Y25289D02*
X386628D01*
Y24808D01*
X386001D01*
Y22657D01*
Y22643D01*
Y22614D01*
Y22570D01*
X386008Y22519D01*
X386015Y22402D01*
X386023Y22351D01*
X386030Y22315D01*
X386037Y22300D01*
X386059Y22271D01*
X386088Y22234D01*
X386139Y22198D01*
X386154Y22191D01*
X386190Y22176D01*
X386256Y22162D01*
X386351Y22154D01*
X386424D01*
X386460Y22162D01*
X386511D01*
X386569Y22169D01*
X386628Y22176D01*
X386708Y21630D01*
X386693D01*
X386664Y21622D01*
X386613Y21615D01*
X386548Y21608D01*
X386475Y21593D01*
X386395Y21586D01*
X386234Y21578D01*
X386176D01*
X386118Y21586D01*
X386045Y21593D01*
X385957Y21600D01*
X385870Y21622D01*
X385789Y21644D01*
X385709Y21680D01*
X385702Y21688D01*
X385680Y21702D01*
X385651Y21724D01*
X385607Y21761D01*
X385571Y21797D01*
X385527Y21848D01*
X385483Y21899D01*
X385454Y21965D01*
Y21972D01*
X385439Y22001D01*
X385432Y22052D01*
X385418Y22125D01*
X385403Y22220D01*
X385396Y22278D01*
Y22344D01*
X385388Y22424D01*
X385381Y22504D01*
Y22592D01*
Y22694D01*
Y24808D01*
X384922D01*
Y25289D01*
X385381D01*
Y26193D01*
X386001Y26565D01*
Y25289D01*
D02*
G37*
G36*
X388859Y25362D02*
X388917Y25355D01*
X388990Y25340D01*
X389070Y25326D01*
X389165Y25304D01*
X389252Y25282D01*
X389354Y25245D01*
X389449Y25209D01*
X389551Y25158D01*
X389653Y25100D01*
X389755Y25034D01*
X389850Y24954D01*
X389937Y24866D01*
X389945Y24859D01*
X389959Y24844D01*
X389981Y24815D01*
X390010Y24771D01*
X390047Y24720D01*
X390083Y24662D01*
X390127Y24589D01*
X390171Y24502D01*
X390214Y24407D01*
X390258Y24305D01*
X390295Y24188D01*
X390331Y24064D01*
X390360Y23926D01*
X390382Y23780D01*
X390397Y23627D01*
X390404Y23459D01*
Y23452D01*
Y23423D01*
Y23372D01*
X390397Y23299D01*
X387663D01*
Y23292D01*
Y23270D01*
X387670Y23241D01*
Y23197D01*
X387678Y23146D01*
X387692Y23088D01*
X387714Y22956D01*
X387758Y22810D01*
X387816Y22650D01*
X387896Y22504D01*
X387998Y22373D01*
X388006D01*
X388013Y22358D01*
X388057Y22322D01*
X388122Y22271D01*
X388210Y22220D01*
X388326Y22162D01*
X388457Y22111D01*
X388603Y22074D01*
X388684Y22067D01*
X388771Y22060D01*
X388829D01*
X388895Y22067D01*
X388975Y22082D01*
X389063Y22103D01*
X389165Y22132D01*
X389260Y22176D01*
X389354Y22234D01*
X389362Y22242D01*
X389398Y22271D01*
X389442Y22315D01*
X389493Y22373D01*
X389551Y22453D01*
X389617Y22555D01*
X389682Y22672D01*
X389741Y22810D01*
X390382Y22730D01*
Y22723D01*
X390375Y22708D01*
X390368Y22679D01*
X390353Y22636D01*
X390331Y22592D01*
X390309Y22533D01*
X390251Y22410D01*
X390178Y22271D01*
X390076Y22125D01*
X389959Y21987D01*
X389813Y21856D01*
X389806D01*
X389792Y21841D01*
X389770Y21826D01*
X389741Y21804D01*
X389697Y21783D01*
X389653Y21761D01*
X389595Y21732D01*
X389529Y21702D01*
X389456Y21673D01*
X389383Y21644D01*
X389201Y21600D01*
X388997Y21564D01*
X388771Y21549D01*
X388691D01*
X388640Y21557D01*
X388574Y21564D01*
X388494Y21578D01*
X388406Y21593D01*
X388312Y21608D01*
X388108Y21666D01*
X387998Y21710D01*
X387896Y21753D01*
X387787Y21812D01*
X387685Y21877D01*
X387590Y21950D01*
X387495Y22038D01*
X387488Y22045D01*
X387473Y22060D01*
X387452Y22089D01*
X387422Y22132D01*
X387386Y22184D01*
X387350Y22242D01*
X387306Y22315D01*
X387262Y22395D01*
X387218Y22490D01*
X387175Y22592D01*
X387138Y22708D01*
X387102Y22832D01*
X387072Y22964D01*
X387051Y23109D01*
X387036Y23262D01*
X387029Y23423D01*
Y23430D01*
Y23467D01*
Y23510D01*
X387036Y23576D01*
X387043Y23656D01*
X387051Y23744D01*
X387065Y23846D01*
X387087Y23948D01*
X387145Y24181D01*
X387182Y24298D01*
X387226Y24421D01*
X387284Y24538D01*
X387350Y24647D01*
X387422Y24757D01*
X387503Y24859D01*
X387510Y24866D01*
X387524Y24881D01*
X387554Y24903D01*
X387590Y24939D01*
X387634Y24976D01*
X387692Y25019D01*
X387758Y25070D01*
X387838Y25114D01*
X387918Y25165D01*
X388013Y25209D01*
X388115Y25253D01*
X388224Y25289D01*
X388341Y25326D01*
X388465Y25347D01*
X388596Y25362D01*
X388735Y25369D01*
X388808D01*
X388859Y25362D01*
D02*
G37*
G36*
X367688D02*
X367747Y25355D01*
X367820Y25340D01*
X367900Y25326D01*
X367994Y25304D01*
X368082Y25282D01*
X368184Y25245D01*
X368279Y25209D01*
X368381Y25158D01*
X368483Y25100D01*
X368585Y25034D01*
X368680Y24954D01*
X368767Y24866D01*
X368775Y24859D01*
X368789Y24844D01*
X368811Y24815D01*
X368840Y24771D01*
X368877Y24720D01*
X368913Y24662D01*
X368957Y24589D01*
X369001Y24502D01*
X369044Y24407D01*
X369088Y24305D01*
X369125Y24188D01*
X369161Y24064D01*
X369190Y23926D01*
X369212Y23780D01*
X369227Y23627D01*
X369234Y23459D01*
Y23452D01*
Y23423D01*
Y23372D01*
X369227Y23299D01*
X366493D01*
Y23292D01*
Y23270D01*
X366500Y23241D01*
Y23197D01*
X366507Y23146D01*
X366522Y23088D01*
X366544Y22956D01*
X366588Y22810D01*
X366646Y22650D01*
X366726Y22504D01*
X366828Y22373D01*
X366835D01*
X366843Y22358D01*
X366886Y22322D01*
X366952Y22271D01*
X367039Y22220D01*
X367156Y22162D01*
X367287Y22111D01*
X367433Y22074D01*
X367513Y22067D01*
X367601Y22060D01*
X367659D01*
X367725Y22067D01*
X367805Y22082D01*
X367893Y22103D01*
X367994Y22132D01*
X368089Y22176D01*
X368184Y22234D01*
X368191Y22242D01*
X368228Y22271D01*
X368271Y22315D01*
X368323Y22373D01*
X368381Y22453D01*
X368446Y22555D01*
X368512Y22672D01*
X368570Y22810D01*
X369212Y22730D01*
Y22723D01*
X369205Y22708D01*
X369197Y22679D01*
X369183Y22636D01*
X369161Y22592D01*
X369139Y22533D01*
X369081Y22410D01*
X369008Y22271D01*
X368906Y22125D01*
X368789Y21987D01*
X368643Y21856D01*
X368636D01*
X368621Y21841D01*
X368600Y21826D01*
X368570Y21804D01*
X368527Y21783D01*
X368483Y21761D01*
X368425Y21732D01*
X368359Y21702D01*
X368286Y21673D01*
X368213Y21644D01*
X368031Y21600D01*
X367827Y21564D01*
X367601Y21549D01*
X367521D01*
X367470Y21557D01*
X367404Y21564D01*
X367324Y21578D01*
X367236Y21593D01*
X367142Y21608D01*
X366937Y21666D01*
X366828Y21710D01*
X366726Y21753D01*
X366617Y21812D01*
X366515Y21877D01*
X366420Y21950D01*
X366325Y22038D01*
X366318Y22045D01*
X366303Y22060D01*
X366281Y22089D01*
X366252Y22132D01*
X366216Y22184D01*
X366179Y22242D01*
X366136Y22315D01*
X366092Y22395D01*
X366048Y22490D01*
X366004Y22592D01*
X365968Y22708D01*
X365931Y22832D01*
X365902Y22964D01*
X365880Y23109D01*
X365866Y23262D01*
X365859Y23423D01*
Y23430D01*
Y23467D01*
Y23510D01*
X365866Y23576D01*
X365873Y23656D01*
X365880Y23744D01*
X365895Y23846D01*
X365917Y23948D01*
X365975Y24181D01*
X366012Y24298D01*
X366055Y24421D01*
X366114Y24538D01*
X366179Y24647D01*
X366252Y24757D01*
X366332Y24859D01*
X366340Y24866D01*
X366354Y24881D01*
X366383Y24903D01*
X366420Y24939D01*
X366464Y24976D01*
X366522Y25019D01*
X366588Y25070D01*
X366668Y25114D01*
X366748Y25165D01*
X366843Y25209D01*
X366945Y25253D01*
X367054Y25289D01*
X367171Y25326D01*
X367295Y25347D01*
X367426Y25362D01*
X367564Y25369D01*
X367637D01*
X367688Y25362D01*
D02*
G37*
G36*
X378886D02*
X378937Y25355D01*
X379002Y25340D01*
X379075Y25326D01*
X379155Y25304D01*
X379236Y25275D01*
X379323Y25238D01*
X379411Y25194D01*
X379505Y25143D01*
X379593Y25085D01*
X379680Y25012D01*
X379768Y24932D01*
X379848Y24837D01*
Y25289D01*
X380417D01*
Y22125D01*
Y22118D01*
Y22089D01*
Y22045D01*
Y21987D01*
X380409Y21921D01*
Y21841D01*
X380402Y21753D01*
X380395Y21659D01*
X380373Y21462D01*
X380344Y21258D01*
X380322Y21163D01*
X380300Y21075D01*
X380271Y20995D01*
X380242Y20922D01*
Y20915D01*
X380234Y20908D01*
X380205Y20864D01*
X380169Y20798D01*
X380111Y20718D01*
X380030Y20631D01*
X379936Y20536D01*
X379819Y20441D01*
X379688Y20361D01*
X379680D01*
X379673Y20354D01*
X379651Y20339D01*
X379622Y20332D01*
X379586Y20310D01*
X379542Y20295D01*
X379433Y20259D01*
X379301Y20215D01*
X379141Y20186D01*
X378959Y20157D01*
X378762Y20150D01*
X378696D01*
X378653Y20157D01*
X378594D01*
X378536Y20164D01*
X378463Y20172D01*
X378383Y20186D01*
X378215Y20222D01*
X378040Y20274D01*
X377865Y20346D01*
X377705Y20448D01*
X377697Y20456D01*
X377690Y20463D01*
X377639Y20507D01*
X377581Y20572D01*
X377508Y20667D01*
X377435Y20791D01*
X377369Y20944D01*
X377348Y21032D01*
X377333Y21126D01*
X377318Y21221D01*
Y21331D01*
X377923Y21250D01*
Y21236D01*
X377931Y21207D01*
X377945Y21156D01*
X377960Y21090D01*
X377989Y21024D01*
X378026Y20959D01*
X378069Y20893D01*
X378128Y20842D01*
X378142Y20835D01*
X378171Y20813D01*
X378222Y20784D01*
X378295Y20755D01*
X378383Y20718D01*
X378492Y20689D01*
X378623Y20667D01*
X378762Y20660D01*
X378835D01*
X378908Y20667D01*
X379010Y20682D01*
X379112Y20704D01*
X379221Y20733D01*
X379330Y20777D01*
X379425Y20835D01*
X379433Y20842D01*
X379462Y20864D01*
X379505Y20908D01*
X379556Y20959D01*
X379608Y21032D01*
X379659Y21112D01*
X379710Y21207D01*
X379746Y21316D01*
Y21323D01*
X379753Y21352D01*
X379761Y21411D01*
X379768Y21484D01*
X379775Y21535D01*
Y21593D01*
X379783Y21659D01*
Y21732D01*
Y21812D01*
X379790Y21906D01*
Y22001D01*
Y22111D01*
X379783Y22103D01*
X379768Y22089D01*
X379746Y22067D01*
X379717Y22038D01*
X379680Y22001D01*
X379629Y21958D01*
X379571Y21914D01*
X379513Y21870D01*
X379360Y21783D01*
X379192Y21702D01*
X379097Y21673D01*
X378995Y21651D01*
X378886Y21637D01*
X378776Y21630D01*
X378740D01*
X378703Y21637D01*
X378653D01*
X378587Y21644D01*
X378514Y21659D01*
X378434Y21673D01*
X378346Y21695D01*
X378252Y21724D01*
X378157Y21761D01*
X378062Y21804D01*
X377960Y21856D01*
X377865Y21921D01*
X377770Y21994D01*
X377683Y22074D01*
X377603Y22169D01*
X377595Y22176D01*
X377588Y22191D01*
X377566Y22227D01*
X377537Y22264D01*
X377508Y22322D01*
X377471Y22380D01*
X377435Y22453D01*
X377399Y22541D01*
X377362Y22628D01*
X377326Y22730D01*
X377289Y22832D01*
X377260Y22949D01*
X377209Y23197D01*
X377202Y23335D01*
X377194Y23474D01*
Y23481D01*
Y23496D01*
Y23525D01*
Y23561D01*
X377202Y23612D01*
Y23663D01*
X377216Y23795D01*
X377238Y23940D01*
X377275Y24101D01*
X377318Y24269D01*
X377384Y24436D01*
Y24443D01*
X377391Y24458D01*
X377406Y24480D01*
X377420Y24509D01*
X377464Y24589D01*
X377523Y24691D01*
X377603Y24801D01*
X377697Y24910D01*
X377807Y25027D01*
X377931Y25121D01*
X377938D01*
X377945Y25129D01*
X377967Y25143D01*
X377996Y25158D01*
X378069Y25202D01*
X378171Y25245D01*
X378295Y25289D01*
X378441Y25333D01*
X378602Y25362D01*
X378776Y25369D01*
X378842D01*
X378886Y25362D01*
D02*
G37*
%LPC*%
G36*
X364656Y32217D02*
X363489D01*
Y28368D01*
X364685D01*
X364736Y28376D01*
X364845Y28383D01*
X364969Y28390D01*
X365100Y28405D01*
X365232Y28427D01*
X365341Y28456D01*
X365355Y28463D01*
X365392Y28470D01*
X365443Y28492D01*
X365509Y28521D01*
X365581Y28565D01*
X365654Y28609D01*
X365727Y28660D01*
X365800Y28718D01*
X365808Y28733D01*
X365837Y28762D01*
X365880Y28813D01*
X365931Y28886D01*
X365990Y28981D01*
X366055Y29090D01*
X366114Y29214D01*
X366165Y29353D01*
Y29360D01*
X366172Y29374D01*
X366179Y29396D01*
X366187Y29425D01*
X366194Y29462D01*
X366209Y29513D01*
X366223Y29564D01*
X366238Y29622D01*
X366260Y29768D01*
X366281Y29936D01*
X366296Y30125D01*
X366303Y30329D01*
Y30337D01*
Y30366D01*
Y30402D01*
X366296Y30461D01*
Y30526D01*
X366289Y30599D01*
X366281Y30687D01*
X366274Y30774D01*
X366238Y30971D01*
X366194Y31175D01*
X366128Y31365D01*
X366085Y31459D01*
X366041Y31539D01*
Y31547D01*
X366026Y31561D01*
X366012Y31583D01*
X365997Y31612D01*
X365939Y31685D01*
X365866Y31773D01*
X365771Y31868D01*
X365662Y31962D01*
X365538Y32043D01*
X365407Y32108D01*
X365392Y32115D01*
X365355Y32123D01*
X365290Y32145D01*
X365195Y32166D01*
X365078Y32181D01*
X364933Y32203D01*
X364845Y32210D01*
X364751D01*
X364656Y32217D01*
D02*
G37*
G36*
X388742Y24859D02*
X388698D01*
X388669Y24852D01*
X388589Y24844D01*
X388494Y24823D01*
X388377Y24786D01*
X388253Y24735D01*
X388137Y24662D01*
X388020Y24567D01*
X388006Y24553D01*
X387976Y24516D01*
X387925Y24451D01*
X387874Y24363D01*
X387816Y24261D01*
X387765Y24130D01*
X387721Y23977D01*
X387699Y23809D01*
X389748D01*
Y23817D01*
Y23831D01*
X389741Y23853D01*
Y23882D01*
X389726Y23970D01*
X389704Y24064D01*
X389668Y24181D01*
X389631Y24290D01*
X389573Y24400D01*
X389507Y24495D01*
Y24502D01*
X389493Y24509D01*
X389456Y24553D01*
X389391Y24611D01*
X389303Y24677D01*
X389194Y24742D01*
X389063Y24801D01*
X388910Y24844D01*
X388829Y24852D01*
X388742Y24859D01*
D02*
G37*
G36*
X367572D02*
X367528D01*
X367499Y24852D01*
X367419Y24844D01*
X367324Y24823D01*
X367207Y24786D01*
X367083Y24735D01*
X366967Y24662D01*
X366850Y24567D01*
X366835Y24553D01*
X366806Y24516D01*
X366755Y24451D01*
X366704Y24363D01*
X366646Y24261D01*
X366595Y24130D01*
X366551Y23977D01*
X366529Y23809D01*
X368578D01*
Y23817D01*
Y23831D01*
X368570Y23853D01*
Y23882D01*
X368556Y23970D01*
X368534Y24064D01*
X368497Y24181D01*
X368461Y24290D01*
X368403Y24400D01*
X368337Y24495D01*
Y24502D01*
X368323Y24509D01*
X368286Y24553D01*
X368220Y24611D01*
X368133Y24677D01*
X368024Y24742D01*
X367893Y24801D01*
X367739Y24844D01*
X367659Y24852D01*
X367572Y24859D01*
D02*
G37*
G36*
X378900D02*
X378784D01*
X378755Y24852D01*
X378674Y24844D01*
X378580Y24815D01*
X378463Y24779D01*
X378346Y24713D01*
X378230Y24633D01*
X378171Y24575D01*
X378113Y24516D01*
Y24509D01*
X378099Y24502D01*
X378084Y24480D01*
X378069Y24451D01*
X378047Y24421D01*
X378026Y24378D01*
X377996Y24327D01*
X377975Y24269D01*
X377945Y24203D01*
X377916Y24123D01*
X377894Y24043D01*
X377872Y23955D01*
X377858Y23853D01*
X377843Y23751D01*
X377829Y23641D01*
Y23518D01*
Y23510D01*
Y23488D01*
Y23452D01*
X377836Y23401D01*
Y23343D01*
X377843Y23270D01*
X377865Y23117D01*
X377902Y22942D01*
X377945Y22774D01*
X378018Y22606D01*
X378062Y22533D01*
X378113Y22468D01*
X378128Y22453D01*
X378164Y22417D01*
X378222Y22366D01*
X378310Y22308D01*
X378412Y22242D01*
X378536Y22191D01*
X378674Y22154D01*
X378747Y22147D01*
X378828Y22140D01*
X378871D01*
X378900Y22147D01*
X378980Y22154D01*
X379083Y22184D01*
X379192Y22220D01*
X379316Y22278D01*
X379433Y22358D01*
X379491Y22410D01*
X379549Y22468D01*
Y22475D01*
X379564Y22482D01*
X379578Y22504D01*
X379593Y22533D01*
X379615Y22563D01*
X379644Y22606D01*
X379666Y22657D01*
X379695Y22723D01*
X379724Y22789D01*
X379746Y22862D01*
X379775Y22949D01*
X379797Y23044D01*
X379812Y23138D01*
X379826Y23248D01*
X379841Y23372D01*
Y23496D01*
Y23503D01*
Y23525D01*
Y23561D01*
X379834Y23605D01*
Y23663D01*
X379826Y23729D01*
X379804Y23875D01*
X379768Y24043D01*
X379717Y24210D01*
X379644Y24378D01*
X379593Y24451D01*
X379542Y24516D01*
Y24524D01*
X379527Y24531D01*
X379491Y24567D01*
X379425Y24626D01*
X379338Y24691D01*
X379236Y24750D01*
X379112Y24808D01*
X378973Y24844D01*
X378900Y24859D01*
D02*
G37*
%LPD*%
D10*
X135596Y208669D02*
G03*
X136846Y208669I625J0D01*
G01*
X154488D01*
Y146075D02*
Y208669D01*
X117953D02*
X135596D01*
X117953Y146075D02*
Y208669D01*
Y146075D02*
X154488D01*
D11*
X122835Y204134D02*
D03*
D12*
X402835Y145551D02*
X442835D01*
X402835D02*
Y195551D01*
X417835Y210551D01*
X427835D01*
X442835Y195551D01*
Y145551D02*
Y195551D01*
X418835Y139567D02*
X426835D01*
X422835Y135567D02*
Y143567D01*
X262283Y81614D02*
X302284D01*
Y31614D02*
Y81614D01*
X287283Y16614D02*
X302284Y31614D01*
X277284Y16614D02*
X287283D01*
X262283Y31614D02*
X277284Y16614D01*
X262283Y31614D02*
Y81614D01*
X278284Y87598D02*
X286283D01*
X282283Y83598D02*
Y91598D01*
X263465Y335157D02*
X303465D01*
Y285157D02*
Y335157D01*
X288465Y270158D02*
X303465Y285157D01*
X278465Y270158D02*
X288465D01*
X263465Y285157D02*
X278465Y270158D01*
X263465Y285157D02*
Y335157D01*
X279465Y341142D02*
X287465D01*
X283465Y337142D02*
Y345142D01*
X107598Y278031D02*
Y318032D01*
X57598Y278031D02*
X107598D01*
X42598Y293032D02*
X57598Y278031D01*
X42598Y293032D02*
Y303031D01*
X57598Y318032D01*
X107598D01*
X113583Y294032D02*
Y302031D01*
X109583Y298031D02*
X117583D01*
X25492Y131358D02*
X36516D01*
Y212067D01*
X25492D02*
X36516D01*
X25492Y131358D02*
Y212067D01*
X15157Y100689D02*
X44783D01*
X43701Y125886D02*
X51378Y118209D01*
X15157Y125886D02*
X43701D01*
X15157Y100689D02*
Y125886D01*
X51378Y107283D02*
Y118209D01*
X44783Y100689D02*
X51378Y107283D01*
X307087Y214567D02*
X340551D01*
X351083Y204035D01*
Y150295D02*
Y204035D01*
X340551Y139764D02*
X351083Y150295D01*
X263878Y139764D02*
X340551D01*
X263878D02*
Y214567D01*
X307087D01*
X9055Y221358D02*
X50394D01*
X9055D02*
Y261910D01*
X50394Y221358D02*
X63090Y234055D01*
Y248819D01*
X9055Y261910D02*
X49016D01*
X50000D02*
X63090Y248819D01*
X49016Y261910D02*
X50000D01*
X356014Y82148D02*
X355015Y83148D01*
X353015D01*
X352016Y82148D01*
Y81148D01*
X353015Y80149D01*
X355015D01*
X356014Y79149D01*
Y78149D01*
X355015Y77150D01*
X353015D01*
X352016Y78149D01*
X362013Y83148D02*
X358014D01*
Y77150D01*
X362013D01*
X358014Y80149D02*
X360013D01*
X364012Y77150D02*
Y83148D01*
X366011Y81148D01*
X368011Y83148D01*
Y77150D01*
X380007D02*
X376008D01*
X380007Y81148D01*
Y82148D01*
X379007Y83148D01*
X377008D01*
X376008Y82148D01*
X382006D02*
X383006Y83148D01*
X385005D01*
X386005Y82148D01*
Y78149D01*
X385005Y77150D01*
X383006D01*
X382006Y78149D01*
Y82148D01*
X392003Y77150D02*
X388004D01*
X392003Y81148D01*
Y82148D01*
X391003Y83148D01*
X389004D01*
X388004Y82148D01*
X394002D02*
X395002Y83148D01*
X397001D01*
X398001Y82148D01*
Y78149D01*
X397001Y77150D01*
X395002D01*
X394002Y78149D01*
Y82148D01*
X124803Y218597D02*
Y213598D01*
X125803Y212598D01*
X127802D01*
X128802Y213598D01*
Y218597D01*
X130801Y212598D02*
X132801D01*
X131801D01*
Y218597D01*
X130801Y217597D01*
X82284Y188976D02*
Y194974D01*
X85282D01*
X86282Y193975D01*
Y191975D01*
X85282Y190976D01*
X82284D01*
X84283D02*
X86282Y188976D01*
X88282Y193975D02*
X89281Y194974D01*
X91281D01*
X92280Y193975D01*
Y192975D01*
X91281Y191975D01*
X90281D01*
X91281D01*
X92280Y190976D01*
Y189976D01*
X91281Y188976D01*
X89281D01*
X88282Y189976D01*
X64567Y190551D02*
Y196549D01*
X67566D01*
X68566Y195550D01*
Y193550D01*
X67566Y192551D01*
X64567D01*
X66566D02*
X68566Y190551D01*
X74564D02*
X70565D01*
X74564Y194550D01*
Y195550D01*
X73564Y196549D01*
X71565D01*
X70565Y195550D01*
X373228Y127953D02*
Y133951D01*
X376227D01*
X377227Y132951D01*
Y130952D01*
X376227Y129952D01*
X373228D01*
X375228D02*
X377227Y127953D01*
X379226D02*
X381226D01*
X380226D01*
Y133951D01*
X379226Y132951D01*
X298819Y13386D02*
Y19384D01*
X301818D01*
X302818Y18384D01*
Y16385D01*
X301818Y15385D01*
X298819D01*
X307816Y13386D02*
Y19384D01*
X304817Y16385D01*
X308816D01*
X42126Y200394D02*
Y206392D01*
X45125D01*
X46125Y205392D01*
Y203393D01*
X45125Y202393D01*
X42126D01*
X51123Y200394D02*
Y206392D01*
X48124Y203393D01*
X52123D01*
X245669Y326378D02*
Y332376D01*
X248668D01*
X249668Y331376D01*
Y329377D01*
X248668Y328377D01*
X245669D01*
X251667Y331376D02*
X252667Y332376D01*
X254666D01*
X255666Y331376D01*
Y330377D01*
X254666Y329377D01*
X253667D01*
X254666D01*
X255666Y328377D01*
Y327378D01*
X254666Y326378D01*
X252667D01*
X251667Y327378D01*
X403382Y214024D02*
Y220023D01*
X406381D01*
X407381Y219023D01*
Y217023D01*
X406381Y216024D01*
X403382D01*
X413379Y214024D02*
X409380D01*
X413379Y218023D01*
Y219023D01*
X412379Y220023D01*
X410380D01*
X409380Y219023D01*
X48425Y322441D02*
Y328439D01*
X51424D01*
X52424Y327439D01*
Y325440D01*
X51424Y324440D01*
X48425D01*
X54423Y322441D02*
X56423D01*
X55423D01*
Y328439D01*
X54423Y327439D01*
X167322Y126377D02*
X166535Y127164D01*
X164960D01*
X164173Y126377D01*
Y123228D01*
X164960Y122441D01*
X166535D01*
X167322Y123228D01*
X172045Y122441D02*
X168896D01*
X172045Y125590D01*
Y126377D01*
X171257Y127164D01*
X169683D01*
X168896Y126377D01*
X173619D02*
X174406Y127164D01*
X175980D01*
X176768Y126377D01*
Y123228D01*
X175980Y122441D01*
X174406D01*
X173619Y123228D01*
Y126377D01*
X92975Y160117D02*
X91975Y161116D01*
X89976D01*
X88976Y160117D01*
Y156118D01*
X89976Y155118D01*
X91975D01*
X92975Y156118D01*
X94974Y155118D02*
X96974D01*
X95974D01*
Y161116D01*
X94974Y160117D01*
X99973Y156118D02*
X100972Y155118D01*
X102972D01*
X103972Y156118D01*
Y160117D01*
X102972Y161116D01*
X100972D01*
X99973Y160117D01*
Y159117D01*
X100972Y158117D01*
X103972D01*
X51243Y133345D02*
X50243Y134344D01*
X48244D01*
X47244Y133345D01*
Y129346D01*
X48244Y128347D01*
X50243D01*
X51243Y129346D01*
X53242Y128347D02*
X55242D01*
X54242D01*
Y134344D01*
X53242Y133345D01*
X58240D02*
X59240Y134344D01*
X61240D01*
X62239Y133345D01*
Y132345D01*
X61240Y131345D01*
X62239Y130346D01*
Y129346D01*
X61240Y128347D01*
X59240D01*
X58240Y129346D01*
Y130346D01*
X59240Y131345D01*
X58240Y132345D01*
Y133345D01*
X59240Y131345D02*
X61240D01*
X70534Y145943D02*
X69534Y146943D01*
X67535D01*
X66535Y145943D01*
Y141945D01*
X67535Y140945D01*
X69534D01*
X70534Y141945D01*
X72534Y140945D02*
X74533D01*
X73533D01*
Y146943D01*
X72534Y145943D01*
X77532Y146943D02*
X81531D01*
Y145943D01*
X77532Y141945D01*
Y140945D01*
X212204Y139369D02*
X211417Y140156D01*
X209842D01*
X209055Y139369D01*
Y136220D01*
X209842Y135433D01*
X211417D01*
X212204Y136220D01*
X213778Y135433D02*
X215352D01*
X214565D01*
Y140156D01*
X213778Y139369D01*
X220862Y140156D02*
X219288Y139369D01*
X217714Y137794D01*
Y136220D01*
X218501Y135433D01*
X220075D01*
X220862Y136220D01*
Y137007D01*
X220075Y137794D01*
X217714D01*
X171259Y156692D02*
X170472Y157479D01*
X168897D01*
X168110Y156692D01*
Y153543D01*
X168897Y152756D01*
X170472D01*
X171259Y153543D01*
X172833Y152756D02*
X174407D01*
X173620D01*
Y157479D01*
X172833Y156692D01*
X179918Y157479D02*
X176769D01*
Y155117D01*
X178343Y155904D01*
X179130D01*
X179918Y155117D01*
Y153543D01*
X179130Y152756D01*
X177556D01*
X176769Y153543D01*
X215747Y172833D02*
X214960Y173620D01*
X213386D01*
X212598Y172833D01*
Y169685D01*
X213386Y168898D01*
X214960D01*
X215747Y169685D01*
X217321Y168898D02*
X218896D01*
X218109D01*
Y173620D01*
X217321Y172833D01*
X223619Y168898D02*
Y173620D01*
X221257Y171259D01*
X224406D01*
X70928Y161691D02*
X69928Y162691D01*
X67929D01*
X66929Y161691D01*
Y157693D01*
X67929Y156693D01*
X69928D01*
X70928Y157693D01*
X72927Y156693D02*
X74927D01*
X73927D01*
Y162691D01*
X72927Y161691D01*
X77926D02*
X78925Y162691D01*
X80925D01*
X81924Y161691D01*
Y160692D01*
X80925Y159692D01*
X79925D01*
X80925D01*
X81924Y158692D01*
Y157693D01*
X80925Y156693D01*
X78925D01*
X77926Y157693D01*
X122896Y130983D02*
X121897Y131982D01*
X119897D01*
X118898Y130983D01*
Y126984D01*
X119897Y125984D01*
X121897D01*
X122896Y126984D01*
X124896Y125984D02*
X126895D01*
X125895D01*
Y131982D01*
X124896Y130983D01*
X133893Y125984D02*
X129894D01*
X133893Y129983D01*
Y130983D01*
X132893Y131982D01*
X130894D01*
X129894Y130983D01*
X216141Y186219D02*
X215354Y187006D01*
X213779D01*
X212992Y186219D01*
Y183071D01*
X213779Y182283D01*
X215354D01*
X216141Y183071D01*
X217715Y182283D02*
X219289D01*
X218502D01*
Y187006D01*
X217715Y186219D01*
X221651Y182283D02*
X223225D01*
X222438D01*
Y187006D01*
X221651Y186219D01*
X98487Y240038D02*
X97487Y241037D01*
X95488D01*
X94488Y240038D01*
Y236039D01*
X95488Y235039D01*
X97487D01*
X98487Y236039D01*
X100486Y235039D02*
X102486D01*
X101486D01*
Y241037D01*
X100486Y240038D01*
X105485D02*
X106484Y241037D01*
X108484D01*
X109483Y240038D01*
Y236039D01*
X108484Y235039D01*
X106484D01*
X105485Y236039D01*
Y240038D01*
X214960Y220077D02*
X214173Y220865D01*
X212598D01*
X211811Y220077D01*
Y216929D01*
X212598Y216142D01*
X214173D01*
X214960Y216929D01*
X216534D02*
X217321Y216142D01*
X218895D01*
X219683Y216929D01*
Y220077D01*
X218895Y220865D01*
X217321D01*
X216534Y220077D01*
Y219290D01*
X217321Y218503D01*
X219683D01*
X157086Y214566D02*
X156298Y215353D01*
X154724D01*
X153937Y214566D01*
Y211417D01*
X154724Y210630D01*
X156298D01*
X157086Y211417D01*
X158660Y214566D02*
X159447Y215353D01*
X161021D01*
X161809Y214566D01*
Y213778D01*
X161021Y212991D01*
X161809Y212204D01*
Y211417D01*
X161021Y210630D01*
X159447D01*
X158660Y211417D01*
Y212204D01*
X159447Y212991D01*
X158660Y213778D01*
Y214566D01*
X159447Y212991D02*
X161021D01*
X168503Y224408D02*
X167716Y225195D01*
X166141D01*
X165354Y224408D01*
Y221260D01*
X166141Y220472D01*
X167716D01*
X168503Y221260D01*
X170077Y225195D02*
X173226D01*
Y224408D01*
X170077Y221260D01*
Y220472D01*
X99274Y202636D02*
X98275Y203636D01*
X96275D01*
X95276Y202636D01*
Y198637D01*
X96275Y197638D01*
X98275D01*
X99274Y198637D01*
X105272Y203636D02*
X103273Y202636D01*
X101274Y200637D01*
Y198637D01*
X102273Y197638D01*
X104273D01*
X105272Y198637D01*
Y199637D01*
X104273Y200637D01*
X101274D01*
X405180Y116416D02*
X404180Y117415D01*
X402181D01*
X401181Y116416D01*
Y112417D01*
X402181Y111417D01*
X404180D01*
X405180Y112417D01*
X411178Y117415D02*
X407179D01*
Y114416D01*
X409178Y115416D01*
X410178D01*
X411178Y114416D01*
Y112417D01*
X410178Y111417D01*
X408179D01*
X407179Y112417D01*
X349668Y111298D02*
X348668Y112297D01*
X346669D01*
X345669Y111298D01*
Y107299D01*
X346669Y106299D01*
X348668D01*
X349668Y107299D01*
X354666Y106299D02*
Y112297D01*
X351667Y109298D01*
X355666D01*
X76833Y233738D02*
X75834Y234738D01*
X73834D01*
X72835Y233738D01*
Y229740D01*
X73834Y228740D01*
X75834D01*
X76833Y229740D01*
X78833Y233738D02*
X79832Y234738D01*
X81832D01*
X82831Y233738D01*
Y232739D01*
X81832Y231739D01*
X80832D01*
X81832D01*
X82831Y230739D01*
Y229740D01*
X81832Y228740D01*
X79832D01*
X78833Y229740D01*
X274865Y225471D02*
X273865Y226470D01*
X271866D01*
X270866Y225471D01*
Y221472D01*
X271866Y220472D01*
X273865D01*
X274865Y221472D01*
X280863Y220472D02*
X276864D01*
X280863Y224471D01*
Y225471D01*
X279863Y226470D01*
X277864D01*
X276864Y225471D01*
X22109Y270746D02*
X21109Y271746D01*
X19110D01*
X18110Y270746D01*
Y266748D01*
X19110Y265748D01*
X21109D01*
X22109Y266748D01*
X24108Y265748D02*
X26108D01*
X25108D01*
Y271746D01*
X24108Y270746D01*
D13*
X84055Y36809D02*
X85892D01*
X84974D01*
Y34054D01*
X86810Y36809D02*
Y34054D01*
X88188D01*
X88647Y34513D01*
Y34972D01*
X88188Y35432D01*
X86810D01*
X88188D01*
X88647Y35891D01*
Y36350D01*
X88188Y36809D01*
X86810D01*
X92320Y34054D02*
Y36809D01*
X93239Y35891D01*
X94157Y36809D01*
Y34054D01*
X95534D02*
X96453D01*
X96912Y34513D01*
Y35432D01*
X96453Y35891D01*
X95534D01*
X95075Y35432D01*
Y34513D01*
X95534Y34054D01*
X98289Y36350D02*
Y35891D01*
X97830D01*
X98749D01*
X98289D01*
Y34513D01*
X98749Y34054D01*
X100585D02*
X101504D01*
X101963Y34513D01*
Y35432D01*
X101504Y35891D01*
X100585D01*
X100126Y35432D01*
Y34513D01*
X100585Y34054D01*
X102881Y35891D02*
Y34054D01*
Y34972D01*
X103340Y35432D01*
X103799Y35891D01*
X104259D01*
X108391Y36809D02*
Y34054D01*
X109769D01*
X110228Y34513D01*
Y36350D01*
X109769Y36809D01*
X108391D01*
X111146Y35891D02*
Y34054D01*
Y34972D01*
X111605Y35432D01*
X112065Y35891D01*
X112524D01*
X113901Y34054D02*
X114820D01*
X114360D01*
Y35891D01*
X113901D01*
X116197D02*
X117115Y34054D01*
X118034Y35891D01*
X120329Y34054D02*
X119411D01*
X118952Y34513D01*
Y35432D01*
X119411Y35891D01*
X120329D01*
X120789Y35432D01*
Y34972D01*
X118952D01*
X121707Y35891D02*
Y34054D01*
Y34972D01*
X122166Y35432D01*
X122625Y35891D01*
X123085D01*
X84055Y31167D02*
X84974Y29331D01*
X85892Y31167D01*
X86810Y29331D02*
X87729D01*
X87269D01*
Y32086D01*
X86810Y31626D01*
X89106Y29331D02*
Y29790D01*
X89565D01*
Y29331D01*
X89106D01*
X91402Y31626D02*
X91861Y32086D01*
X92779D01*
X93239Y31626D01*
Y29790D01*
X92779Y29331D01*
X91861D01*
X91402Y29790D01*
Y31626D01*
M02*
