G04*
G04 #@! TF.GenerationSoftware,Altium Limited,Altium Designer,20.0.12 (288)*
G04*
G04 Layer_Color=16711935*
%FSLAX25Y25*%
%MOIN*%
G70*
G01*
G75*
%ADD10C,0.00787*%
%ADD11C,0.03937*%
%ADD12C,0.00394*%
%ADD13C,0.01000*%
D10*
X135596Y208669D02*
G03*
X136846Y208669I625J0D01*
G01*
X154488D01*
Y146075D02*
Y208669D01*
X117953D02*
X135596D01*
X117953Y146075D02*
Y208669D01*
Y146075D02*
X154488D01*
D11*
X122835Y204134D02*
D03*
D12*
X78347Y178228D02*
X86811D01*
X78347Y183189D02*
X86811D01*
Y178228D02*
Y183189D01*
X78347Y178228D02*
Y183189D01*
X72658Y176378D02*
Y184843D01*
X67697Y176378D02*
Y184843D01*
X72658D01*
X67697Y176378D02*
X72658D01*
X379646Y113976D02*
Y122441D01*
X374685Y113976D02*
Y122441D01*
X379646D01*
X374685Y113976D02*
X379646D01*
X179407Y137738D02*
X182915Y134230D01*
X185392Y143723D02*
X188900Y140215D01*
X179407Y137738D02*
X185392Y143723D01*
X182915Y134230D02*
X188900Y140215D01*
X99488Y148425D02*
X104449D01*
X99488Y139961D02*
X104449D01*
Y148425D01*
X99488Y139961D02*
Y148425D01*
X86201Y148622D02*
X91161D01*
X86201Y140157D02*
X91161D01*
Y148622D01*
X86201Y140157D02*
Y148622D01*
X211496Y154528D02*
X216457D01*
X211496Y146063D02*
X216457D01*
Y154528D01*
X211496Y146063D02*
Y154528D01*
X168088Y141675D02*
X171596Y138167D01*
X174074Y147660D02*
X177581Y144152D01*
X168088Y141675D02*
X174074Y147660D01*
X171596Y138167D02*
X177581Y144152D01*
X203031Y158957D02*
X207992D01*
X203031Y167421D02*
X207992D01*
X203031Y158957D02*
Y167421D01*
X207992Y158957D02*
Y167421D01*
X86811Y167992D02*
Y172953D01*
X78347Y167992D02*
Y172953D01*
Y167992D02*
X86811D01*
X78347Y172953D02*
X86811D01*
X109134Y127165D02*
X114094D01*
X109134Y135630D02*
X114094D01*
X109134Y127165D02*
Y135630D01*
X114094Y127165D02*
Y135630D01*
X203130Y195768D02*
X208090D01*
X203130Y187303D02*
X208090D01*
Y195768D01*
X203130Y187303D02*
Y195768D01*
X109036Y229527D02*
X113996D01*
X109036Y221063D02*
X113996D01*
Y229527D01*
X109036Y221063D02*
Y229527D01*
X212087Y200591D02*
X217047D01*
X212087Y209055D02*
X217047D01*
X212087Y200591D02*
Y209055D01*
X217047Y200591D02*
Y209055D01*
X168482Y214625D02*
X171990Y218132D01*
X174467Y208639D02*
X177975Y212147D01*
X171990Y218132D02*
X177975Y212147D01*
X168482Y214625D02*
X174467Y208639D01*
X185097Y215726D02*
X188605Y219234D01*
X179112Y221711D02*
X182619Y225219D01*
X179112Y221711D02*
X185097Y215726D01*
X182619Y225219D02*
X188605Y219234D01*
X99094Y215650D02*
X104055D01*
X99094Y207185D02*
X104055D01*
Y215650D01*
X99094Y207185D02*
Y215650D01*
X384646Y111693D02*
Y116654D01*
X393110Y111693D02*
Y116654D01*
X384646D02*
X393110D01*
X384646Y111693D02*
X393110D01*
X360906Y113976D02*
X365866D01*
X360906Y122441D02*
X365866D01*
X360906Y113976D02*
Y122441D01*
X365866Y113976D02*
Y122441D01*
X78858Y223701D02*
X83819D01*
X78858Y215236D02*
X83819D01*
Y223701D01*
X78858Y215236D02*
Y223701D01*
X120866Y180117D02*
Y177821D01*
X121325Y177362D01*
X122244D01*
X122703Y177821D01*
Y180117D01*
X123621Y177362D02*
X124539D01*
X124080D01*
Y180117D01*
X123621Y179658D01*
D13*
X307087Y214567D02*
X340551D01*
X344488Y210630D01*
Y143701D02*
Y210630D01*
X340551Y139764D02*
X344488Y143701D01*
X269685Y139764D02*
X340551D01*
X269685D02*
Y214567D01*
X307087D01*
M02*
