%TF.GenerationSoftware,Altium Limited,Altium Designer,19.1.8 (144)*%
G04 Layer_Color=16711935*
%FSLAX26Y26*%
%MOIN*%
%TF.FileFunction,Other,Mechanical_13*%
%TF.Part,Single*%
G01*
G75*
%TA.AperFunction,NonConductor*%
%ADD41C,0.007874*%
%TA.AperFunction,OtherPad,Free Pad (1228.347mil,2041.338mil)*%
%ADD42C,0.039370*%
%TA.AperFunction,NonConductor*%
%ADD43C,0.010000*%
%ADD53C,0.003937*%
D41*
X1355955Y2086692D02*
G03*
X1368455Y2086692I6250J0D01*
G01*
X1544882D01*
Y1460747D02*
Y2086692D01*
X1179528D02*
X1355955D01*
X1179528Y1460747D02*
Y2086692D01*
Y1460747D02*
X1544882D01*
D42*
X1228347Y2041338D02*
D03*
D43*
X254921Y1313582D02*
Y2120668D01*
X365157D01*
Y1313582D02*
Y2120668D01*
X254921Y1313582D02*
X365157D01*
X2696851Y2145669D02*
X3070866D01*
X2696851Y1397638D02*
Y2145669D01*
Y1397638D02*
X3405512D01*
X3444882Y1437008D01*
Y2106299D01*
X3405512Y2145669D02*
X3444882Y2106299D01*
X3070866Y2145669D02*
X3405512D01*
D53*
X783465Y1782284D02*
Y1831890D01*
X868110Y1782284D02*
Y1831890D01*
X783465D02*
X868110D01*
X783465Y1782284D02*
X868110D01*
X676968Y1763780D02*
X726575D01*
X676968Y1848425D02*
X726575D01*
X676968Y1763780D02*
Y1848425D01*
X726575Y1763780D02*
Y1848425D01*
X3746851Y1139764D02*
X3796457D01*
X3746851Y1224410D02*
X3796457D01*
X3746851Y1139764D02*
Y1224410D01*
X3796457Y1139764D02*
Y1224410D01*
X1773623Y1321654D02*
X1858268D01*
X1773623Y1371260D02*
X1858268D01*
Y1321654D02*
Y1371260D01*
X1773623Y1321654D02*
Y1371260D01*
X994883Y1399605D02*
Y1484251D01*
X1044489Y1399605D02*
Y1484251D01*
X994883Y1399605D02*
X1044489D01*
X994883Y1484251D02*
X1044489D01*
X862008Y1401575D02*
Y1486220D01*
X911614Y1401575D02*
Y1486220D01*
X862008Y1401575D02*
X911614D01*
X862008Y1486220D02*
X911614D01*
X2114961Y1460632D02*
Y1545277D01*
X2164567Y1460632D02*
Y1545277D01*
X2114961Y1460632D02*
X2164567D01*
X2114961Y1545277D02*
X2164567D01*
X1699803Y1410236D02*
X1784449D01*
X1699803Y1459843D02*
X1784449D01*
Y1410236D02*
Y1459843D01*
X1699803Y1410236D02*
Y1459843D01*
X2079921Y1589567D02*
Y1674213D01*
X2030315Y1589567D02*
Y1674213D01*
X2079921D01*
X2030315Y1589567D02*
X2079921D01*
X783465Y1729527D02*
X868110D01*
X783465Y1679921D02*
X868110D01*
X783465D02*
Y1729527D01*
X868110Y1679921D02*
Y1729527D01*
X1140945Y1271654D02*
Y1356299D01*
X1091339Y1271654D02*
Y1356299D01*
X1140945D01*
X1091339Y1271654D02*
X1140945D01*
X2031299Y1873031D02*
Y1957677D01*
X2080905Y1873031D02*
Y1957677D01*
X2031299Y1873031D02*
X2080905D01*
X2031299Y1957677D02*
X2080905D01*
X1090355Y2210629D02*
Y2295275D01*
X1139961Y2210629D02*
Y2295275D01*
X1090355Y2210629D02*
X1139961D01*
X1090355Y2295275D02*
X1139961D01*
X2170472Y2005906D02*
Y2090551D01*
X2120866Y2005906D02*
Y2090551D01*
X2170472D01*
X2120866Y2005906D02*
X2170472D01*
X1692913Y2105118D02*
X1777559D01*
X1692913Y2154724D02*
X1777559D01*
Y2105118D02*
Y2154724D01*
X1692913Y2105118D02*
Y2154724D01*
X1787401Y2245276D02*
X1872046D01*
X1787401Y2195669D02*
X1872046D01*
X1787401D02*
Y2245276D01*
X1872046Y2195669D02*
Y2245276D01*
X990945Y2071850D02*
Y2156496D01*
X1040551Y2071850D02*
Y2156496D01*
X990945Y2071850D02*
X1040551D01*
X990945Y2156496D02*
X1040551D01*
X3846456Y1116929D02*
X3931102D01*
X3846456Y1166535D02*
X3931102D01*
Y1116929D02*
Y1166535D01*
X3846456Y1116929D02*
Y1166535D01*
X3658662Y1139762D02*
Y1224408D01*
X3609055Y1139762D02*
Y1224408D01*
X3658662D01*
X3609055Y1139762D02*
X3658662D01*
X788583Y2152362D02*
Y2237008D01*
X838189Y2152362D02*
Y2237008D01*
X788583Y2152362D02*
X838189D01*
X788583Y2237008D02*
X838189D01*
X1208662Y1801171D02*
Y1778213D01*
X1213254Y1773621D01*
X1222437D01*
X1227029Y1778213D01*
Y1801171D01*
X1236212Y1773621D02*
X1245395D01*
X1240804D01*
Y1801171D01*
X1236212Y1796580D01*
X2927816Y1900911D02*
X2923224Y1905503D01*
X2914041D01*
X2909449Y1900911D01*
Y1882544D01*
X2914041Y1877953D01*
X2923224D01*
X2927816Y1882544D01*
X2955366Y1877953D02*
X2936999D01*
X2955366Y1896320D01*
Y1900911D01*
X2950774Y1905503D01*
X2941591D01*
X2936999Y1900911D01*
%TF.MD5,c58167e79e83224fb67a53302b6bebed*%
M02*
