M48
;Layer_Color=9474304
;FILE_FORMAT=2:5
INCH,LZ
;TYPE=PLATED
T1F00S00C0.01181
T2F00S00C0.02799
T3F00S00C0.02800
T4F00S00C0.03543
T5F00S00C0.11811
T6F00S00C0.15748
T7F00S00C0.17717
%
T01
X0268602Y006939
X0267717Y0098425
X0294094Y0102756
X0307087Y0098425
X0299213Y0070866
X031815Y0069685
X036Y0042
X034Y0015
X0387Y0068
X0396063Y0105118
X0387795Y0129921
X0348819Y0119685
X0362992Y0105512
X0301083Y0131102
X0276969Y0131988
X0245965Y013061
X0213779Y0122244
X0208661Y0110236
X0219094Y010187
X0233465Y0099508
X0224213Y0073228
X0253543Y0072244
X0249213Y0019685
X0165748Y0017323
X0131102Y0043307
X0112992Y007874
X0112598Y0114173
X0150787Y0114567
X0145669Y0122047
X0165354Y0102362
X0172835Y0088976
X0188976Y0082677
X0194291Y0118602
X019685Y0133858
X0075984Y007874
X0068898Y0026378
X0019685Y0066535
X0023622Y0102756
X0011122Y0113779
X0029921Y0124016
X0061614Y0136811
X0063779Y014685
X0082284Y0136614
X0095276Y0148819
X0094Y0169
X0092787Y0180787
X007126Y0168898
X0062402Y0177559
X0045Y0192
X0043Y0162
X0014961Y0154134
X0012205Y0184646
X0062992Y0216535
X0086614Y0208661
X0102362Y022441
X0092815Y0264764
X0076772Y0277559
X0037402Y0287402
X0113779Y0275197
X0114173Y0244094
X0141732Y0251969
X015748Y0236221
X0141732Y0220472
X0141043Y0203839
X014065Y019311
X0141142Y0161319
X0140551Y0150098
X0161221Y0148031
X0176378Y015374
X0182776Y0149606
X0192323Y0144193
X0198425Y0164567
X0214665Y0161516
X022441Y0153543
X0236221Y0141732
X0255906Y0137795
Y0169291
X0244094
X0249606Y0176772
X0244094Y0185039
X0255906
Y0216535
X0253346Y0226279
X0236221Y0212598
X022441Y0200787
X0213779Y0193602
X0198425Y0189764
X0173425Y0187303
X0175984Y0201181
X0184941Y0206496
X0194587Y021437
X0200787Y022441
X0192913Y0236221
X0217717Y0240354
X0220472Y0251969
X0215354Y0286221
X019685Y027559
X0177165Y0255906
X0162894Y0206594
X0173425Y0167224
X0118996Y017313
X0122047Y0177165
X0118898Y0181595
X0110236Y0208661
Y0145669
X0136713Y0290354
X0249016Y0283465
X0251969Y0259842
X0296555Y0254134
X0307087Y027559
X0340551Y0269685
X0363779Y0245244
X0373031Y0207185
X0413287Y0217323
X0403Y0259
X0412Y0138
X0369Y0154
X0311024Y0137795
X0287402
X0281102Y0166535
X0280709Y0187402
X0307087Y0185039
Y0169291
X0311024Y0216535
X0300197Y0223721
X0287402Y0216535
X0315748Y0304724
X0299213Y0324803
X0356299Y0316929
X0381496Y0293669
X0252953Y0310236
X0230315Y0324803
X0212008Y0311811
X0172441Y0310236
X0130315Y0312598
T02
X0072677Y022311
T03
X0184941Y0126772
X0090551
X0028937Y0092913
X0090551Y0227972
X0185138Y0229528
T04
X0030709Y0138779
Y0148622
Y0158465
Y0168307
Y017815
Y0187992
Y0197835
Y0207677
T05
X0094114Y0078642
X0172933Y0278642
T06
X0405512Y0019685
X0019685
X0405512Y0334646
X0019685
T07
X0282776Y005561
Y0083957
X0278839Y0270768
X0393701Y0205512
Y0177165
X0278839Y0299114
X010315Y032874
X0074803
M30
