G04*
G04 #@! TF.GenerationSoftware,Altium Limited,Altium Designer,19.1.8 (144)*
G04*
G04 Layer_Color=8421504*
%FSLAX25Y25*%
%MOIN*%
G70*
G01*
G75*
%ADD15R,0.05906X0.05984*%
%ADD16R,0.12205X0.08661*%
%ADD17R,0.05709X0.01772*%
%ADD18R,0.20000X0.32795*%
%ADD19R,0.07520X0.42520*%
%ADD20R,0.08504X0.04213*%
%ADD21R,0.05118X0.04134*%
%ADD22R,0.20079X0.70079*%
%ADD23R,0.21654X0.27559*%
%ADD24R,0.05512X0.04134*%
%ADD25R,0.07874X0.16142*%
%ADD26R,0.04134X0.05512*%
D15*
X136614Y139764D02*
D03*
D16*
X124016D02*
D03*
D17*
X297354Y113232D02*
D03*
Y115791D02*
D03*
Y118350D02*
D03*
Y120909D02*
D03*
X314677D02*
D03*
Y118350D02*
D03*
Y115791D02*
D03*
Y113232D02*
D03*
D18*
X202854Y161811D02*
D03*
D19*
X216240D02*
D03*
D20*
X164665Y148425D02*
D03*
Y155118D02*
D03*
Y161811D02*
D03*
Y168504D02*
D03*
Y175197D02*
D03*
D21*
X281677Y136874D02*
D03*
Y129591D02*
D03*
X288677Y136874D02*
D03*
Y129591D02*
D03*
X282677Y111591D02*
D03*
Y118874D02*
D03*
D22*
X43406Y57874D02*
D03*
X153642D02*
D03*
D23*
X379921Y152559D02*
D03*
Y87598D02*
D03*
D24*
X275177Y96591D02*
D03*
Y103874D02*
D03*
X282677Y96732D02*
D03*
Y104016D02*
D03*
X349894Y54150D02*
D03*
Y61433D02*
D03*
X342394Y54150D02*
D03*
Y61433D02*
D03*
X325677Y113091D02*
D03*
Y120374D02*
D03*
D25*
X193110Y93996D02*
D03*
Y59744D02*
D03*
X125394Y193405D02*
D03*
Y227658D02*
D03*
D26*
X310819Y129732D02*
D03*
X303535D02*
D03*
M02*
