G04*
G04 #@! TF.GenerationSoftware,Altium Limited,Altium Designer,19.1.8 (144)*
G04*
G04 Layer_Physical_Order=2*
G04 Layer_Color=16711680*
%FSLAX25Y25*%
%MOIN*%
G70*
G01*
G75*
%ADD45C,0.02362*%
%ADD50C,0.23622*%
%ADD51C,0.05000*%
G36*
X401575Y220472D02*
X431102D01*
Y29528D01*
X401575D01*
Y0D01*
X29528D01*
Y29528D01*
X21322D01*
X21053Y30028D01*
X21323Y30681D01*
X21340Y30807D01*
X14487D01*
X14503Y30681D01*
X14774Y30028D01*
X14505Y29528D01*
X0D01*
Y220472D01*
X29528D01*
Y250000D01*
X401575D01*
Y220472D01*
D02*
G37*
%LPC*%
G36*
X126083Y247521D02*
Y244882D01*
X128722D01*
X128705Y245008D01*
X128352Y245860D01*
X127792Y246591D01*
X127060Y247152D01*
X126209Y247504D01*
X126083Y247521D01*
D02*
G37*
G36*
X124508D02*
X124382Y247504D01*
X123530Y247152D01*
X122799Y246591D01*
X122238Y245860D01*
X121885Y245008D01*
X121869Y244882D01*
X124508D01*
Y247521D01*
D02*
G37*
G36*
X128722Y243307D02*
X126083D01*
Y240668D01*
X126209Y240685D01*
X127060Y241037D01*
X127792Y241598D01*
X128352Y242329D01*
X128705Y243181D01*
X128722Y243307D01*
D02*
G37*
G36*
X124508D02*
X121869D01*
X121885Y243181D01*
X122238Y242329D01*
X122799Y241598D01*
X123530Y241037D01*
X124382Y240685D01*
X124508Y240668D01*
Y243307D01*
D02*
G37*
G36*
X193898Y242797D02*
Y240158D01*
X196537D01*
X196520Y240284D01*
X196168Y241135D01*
X195607Y241866D01*
X194875Y242427D01*
X194024Y242780D01*
X193898Y242797D01*
D02*
G37*
G36*
X192323D02*
X192197Y242780D01*
X191345Y242427D01*
X190614Y241866D01*
X190053Y241135D01*
X189700Y240284D01*
X189684Y240158D01*
X192323D01*
Y242797D01*
D02*
G37*
G36*
X62402Y239745D02*
Y237106D01*
X65041D01*
X65024Y237233D01*
X64671Y238084D01*
X64110Y238815D01*
X63379Y239376D01*
X62528Y239729D01*
X62402Y239745D01*
D02*
G37*
G36*
X60827D02*
X60701Y239729D01*
X59849Y239376D01*
X59118Y238815D01*
X58557Y238084D01*
X58204Y237233D01*
X58188Y237106D01*
X60827D01*
Y239745D01*
D02*
G37*
G36*
X270472Y239647D02*
Y237008D01*
X273112D01*
X273095Y237134D01*
X272742Y237986D01*
X272181Y238717D01*
X271450Y239278D01*
X270599Y239630D01*
X270472Y239647D01*
D02*
G37*
G36*
X268898D02*
X268771Y239630D01*
X267920Y239278D01*
X267189Y238717D01*
X266628Y237986D01*
X266275Y237134D01*
X266259Y237008D01*
X268898D01*
Y239647D01*
D02*
G37*
G36*
X196537Y238583D02*
X193898D01*
Y235944D01*
X194024Y235960D01*
X194875Y236313D01*
X195607Y236874D01*
X196168Y237605D01*
X196520Y238456D01*
X196537Y238583D01*
D02*
G37*
G36*
X192323D02*
X189684D01*
X189700Y238456D01*
X190053Y237605D01*
X190614Y236874D01*
X191345Y236313D01*
X192197Y235960D01*
X192323Y235944D01*
Y238583D01*
D02*
G37*
G36*
X307874Y237679D02*
Y235039D01*
X310513D01*
X310496Y235166D01*
X310144Y236017D01*
X309583Y236748D01*
X308852Y237309D01*
X308000Y237662D01*
X307874Y237679D01*
D02*
G37*
G36*
X306299D02*
X306173Y237662D01*
X305322Y237309D01*
X304590Y236748D01*
X304029Y236017D01*
X303677Y235166D01*
X303660Y235039D01*
X306299D01*
Y237679D01*
D02*
G37*
G36*
X221260D02*
Y235039D01*
X223899D01*
X223882Y235166D01*
X223530Y236017D01*
X222969Y236748D01*
X222237Y237309D01*
X221386Y237662D01*
X221260Y237679D01*
D02*
G37*
G36*
X219685D02*
X219559Y237662D01*
X218707Y237309D01*
X217976Y236748D01*
X217415Y236017D01*
X217062Y235166D01*
X217046Y235039D01*
X219685D01*
Y237679D01*
D02*
G37*
G36*
X91634Y236301D02*
Y233661D01*
X94273D01*
X94256Y233788D01*
X93904Y234639D01*
X93343Y235370D01*
X92612Y235931D01*
X91760Y236284D01*
X91634Y236301D01*
D02*
G37*
G36*
X90059D02*
X89933Y236284D01*
X89081Y235931D01*
X88350Y235370D01*
X87789Y234639D01*
X87436Y233788D01*
X87420Y233661D01*
X90059D01*
Y236301D01*
D02*
G37*
G36*
X65041Y235531D02*
X62402D01*
Y232892D01*
X62528Y232909D01*
X63379Y233262D01*
X64110Y233823D01*
X64671Y234554D01*
X65024Y235405D01*
X65041Y235531D01*
D02*
G37*
G36*
X60827D02*
X58188D01*
X58204Y235405D01*
X58557Y234554D01*
X59118Y233823D01*
X59849Y233262D01*
X60701Y232909D01*
X60827Y232892D01*
Y235531D01*
D02*
G37*
G36*
X273112Y235433D02*
X270472D01*
Y232794D01*
X270599Y232811D01*
X271450Y233163D01*
X272181Y233724D01*
X272742Y234455D01*
X273095Y235307D01*
X273112Y235433D01*
D02*
G37*
G36*
X268898D02*
X266259D01*
X266275Y235307D01*
X266628Y234455D01*
X267189Y233724D01*
X267920Y233163D01*
X268771Y232811D01*
X268898Y232794D01*
Y235433D01*
D02*
G37*
G36*
X310513Y233465D02*
X307874D01*
Y230825D01*
X308000Y230842D01*
X308852Y231195D01*
X309583Y231756D01*
X310144Y232487D01*
X310496Y233338D01*
X310513Y233465D01*
D02*
G37*
G36*
X306299D02*
X303660D01*
X303677Y233338D01*
X304029Y232487D01*
X304590Y231756D01*
X305322Y231195D01*
X306173Y230842D01*
X306299Y230825D01*
Y233465D01*
D02*
G37*
G36*
X223899D02*
X221260D01*
Y230825D01*
X221386Y230842D01*
X222237Y231195D01*
X222969Y231756D01*
X223530Y232487D01*
X223882Y233338D01*
X223899Y233465D01*
D02*
G37*
G36*
X219685D02*
X217046D01*
X217062Y233338D01*
X217415Y232487D01*
X217976Y231756D01*
X218707Y231195D01*
X219559Y230842D01*
X219685Y230825D01*
Y233465D01*
D02*
G37*
G36*
X376969Y232954D02*
Y230315D01*
X379608D01*
X379591Y230441D01*
X379238Y231293D01*
X378677Y232024D01*
X377946Y232585D01*
X377095Y232938D01*
X376969Y232954D01*
D02*
G37*
G36*
X375394D02*
X375267Y232938D01*
X374416Y232585D01*
X373685Y232024D01*
X373124Y231293D01*
X372771Y230441D01*
X372755Y230315D01*
X375394D01*
Y232954D01*
D02*
G37*
G36*
X94273Y232087D02*
X91634D01*
Y229448D01*
X91760Y229464D01*
X92612Y229817D01*
X93343Y230378D01*
X93904Y231109D01*
X94256Y231960D01*
X94273Y232087D01*
D02*
G37*
G36*
X90059D02*
X87420D01*
X87436Y231960D01*
X87789Y231109D01*
X88350Y230378D01*
X89081Y229817D01*
X89933Y229464D01*
X90059Y229448D01*
Y232087D01*
D02*
G37*
G36*
X379608Y228740D02*
X376969D01*
Y226101D01*
X377095Y226118D01*
X377946Y226470D01*
X378677Y227031D01*
X379238Y227763D01*
X379591Y228614D01*
X379608Y228740D01*
D02*
G37*
G36*
X375394D02*
X372755D01*
X372771Y228614D01*
X373124Y227763D01*
X373685Y227031D01*
X374416Y226470D01*
X375267Y226118D01*
X375394Y226101D01*
Y228740D01*
D02*
G37*
G36*
X38189Y227836D02*
Y225197D01*
X40828D01*
X40811Y225323D01*
X40459Y226174D01*
X39898Y226906D01*
X39167Y227467D01*
X38315Y227819D01*
X38189Y227836D01*
D02*
G37*
G36*
X36614D02*
X36488Y227819D01*
X35636Y227467D01*
X34905Y226906D01*
X34344Y226174D01*
X33992Y225323D01*
X33975Y225197D01*
X36614D01*
Y227836D01*
D02*
G37*
G36*
X56004Y225179D02*
Y222539D01*
X58643D01*
X58626Y222666D01*
X58274Y223517D01*
X57713Y224248D01*
X56982Y224809D01*
X56130Y225162D01*
X56004Y225179D01*
D02*
G37*
G36*
X54429D02*
X54303Y225162D01*
X53451Y224809D01*
X52720Y224248D01*
X52159Y223517D01*
X51807Y222666D01*
X51790Y222539D01*
X54429D01*
Y225179D01*
D02*
G37*
G36*
X40828Y223622D02*
X38189D01*
Y220983D01*
X38315Y221000D01*
X39167Y221352D01*
X39898Y221913D01*
X40459Y222644D01*
X40811Y223496D01*
X40828Y223622D01*
D02*
G37*
G36*
X36614D02*
X33975D01*
X33992Y223496D01*
X34344Y222644D01*
X34905Y221913D01*
X35636Y221352D01*
X36488Y221000D01*
X36614Y220983D01*
Y223622D01*
D02*
G37*
G36*
X234350Y223407D02*
Y220768D01*
X236989D01*
X236973Y220894D01*
X236620Y221745D01*
X236059Y222477D01*
X235328Y223038D01*
X234477Y223390D01*
X234350Y223407D01*
D02*
G37*
G36*
X232776D02*
X232649Y223390D01*
X231798Y223038D01*
X231067Y222477D01*
X230506Y221745D01*
X230153Y220894D01*
X230136Y220768D01*
X232776D01*
Y223407D01*
D02*
G37*
G36*
X58643Y220965D02*
X56004D01*
Y218325D01*
X56130Y218342D01*
X56982Y218695D01*
X57713Y219256D01*
X58274Y219987D01*
X58626Y220838D01*
X58643Y220965D01*
D02*
G37*
G36*
X54429D02*
X51790D01*
X51807Y220838D01*
X52159Y219987D01*
X52720Y219256D01*
X53451Y218695D01*
X54303Y218342D01*
X54429Y218325D01*
Y220965D01*
D02*
G37*
G36*
X236989Y219193D02*
X234350D01*
Y216554D01*
X234477Y216570D01*
X235328Y216923D01*
X236059Y217484D01*
X236620Y218215D01*
X236973Y219067D01*
X236989Y219193D01*
D02*
G37*
G36*
X232776D02*
X230136D01*
X230153Y219067D01*
X230506Y218215D01*
X231067Y217484D01*
X231798Y216923D01*
X232649Y216570D01*
X232776Y216554D01*
Y219193D01*
D02*
G37*
G36*
X254823Y214745D02*
Y212106D01*
X257462D01*
X257445Y212233D01*
X257093Y213084D01*
X256532Y213815D01*
X255801Y214376D01*
X254949Y214729D01*
X254823Y214745D01*
D02*
G37*
G36*
X253248D02*
X253122Y214729D01*
X252270Y214376D01*
X251539Y213815D01*
X250978Y213084D01*
X250625Y212233D01*
X250609Y212106D01*
X253248D01*
Y214745D01*
D02*
G37*
G36*
X124803Y214056D02*
Y211417D01*
X127442D01*
X127426Y211544D01*
X127073Y212395D01*
X126512Y213126D01*
X125781Y213687D01*
X124929Y214040D01*
X124803Y214056D01*
D02*
G37*
G36*
X123228D02*
X123102Y214040D01*
X122251Y213687D01*
X121519Y213126D01*
X120958Y212395D01*
X120606Y211544D01*
X120589Y211417D01*
X123228D01*
Y214056D01*
D02*
G37*
G36*
X257462Y210531D02*
X254823D01*
Y207892D01*
X254949Y207909D01*
X255801Y208262D01*
X256532Y208823D01*
X257093Y209554D01*
X257445Y210405D01*
X257462Y210531D01*
D02*
G37*
G36*
X253248D02*
X250609D01*
X250625Y210405D01*
X250978Y209554D01*
X251539Y208823D01*
X252270Y208262D01*
X253122Y207909D01*
X253248Y207892D01*
Y210531D01*
D02*
G37*
G36*
X127442Y209842D02*
X124803D01*
Y207203D01*
X124929Y207220D01*
X125781Y207573D01*
X126512Y208134D01*
X127073Y208865D01*
X127426Y209716D01*
X127442Y209842D01*
D02*
G37*
G36*
X123228D02*
X120589D01*
X120606Y209716D01*
X120958Y208865D01*
X121519Y208134D01*
X122251Y207573D01*
X123102Y207220D01*
X123228Y207203D01*
Y209842D01*
D02*
G37*
G36*
X43701Y218989D02*
Y206988D01*
X55702D01*
X55606Y208211D01*
X55135Y210172D01*
X54363Y212035D01*
X53310Y213754D01*
X52000Y215288D01*
X50467Y216597D01*
X48747Y217651D01*
X46884Y218423D01*
X44924Y218893D01*
X43701Y218989D01*
D02*
G37*
G36*
X42126D02*
X40903Y218893D01*
X38942Y218423D01*
X37079Y217651D01*
X35360Y216597D01*
X33827Y215288D01*
X32517Y213754D01*
X31463Y212035D01*
X30692Y210172D01*
X30221Y208211D01*
X30125Y206988D01*
X42126D01*
Y218989D01*
D02*
G37*
G36*
X205807Y231256D02*
X203797Y231098D01*
X201836Y230627D01*
X199973Y229855D01*
X198254Y228802D01*
X196720Y227492D01*
X195411Y225959D01*
X194357Y224240D01*
X193585Y222377D01*
X193115Y220416D01*
X192956Y218406D01*
X193115Y216395D01*
X193585Y214435D01*
X194357Y212572D01*
X195411Y210852D01*
X196720Y209319D01*
X198254Y208009D01*
X199973Y206956D01*
X201836Y206184D01*
X203797Y205713D01*
X205807Y205555D01*
X207817Y205713D01*
X209778Y206184D01*
X211641Y206956D01*
X213361Y208009D01*
X214894Y209319D01*
X216203Y210852D01*
X217257Y212572D01*
X218029Y214435D01*
X218499Y216395D01*
X218658Y218406D01*
X218499Y220416D01*
X218029Y222377D01*
X217257Y224240D01*
X216203Y225959D01*
X214894Y227492D01*
X213361Y228802D01*
X211641Y229855D01*
X209778Y230627D01*
X207817Y231098D01*
X205807Y231256D01*
D02*
G37*
G36*
X177461D02*
X175450Y231098D01*
X173490Y230627D01*
X171627Y229855D01*
X169907Y228802D01*
X168374Y227492D01*
X167064Y225959D01*
X166011Y224240D01*
X165239Y222377D01*
X164768Y220416D01*
X164610Y218406D01*
X164768Y216395D01*
X165239Y214435D01*
X166011Y212572D01*
X167064Y210852D01*
X168374Y209319D01*
X169907Y208009D01*
X171627Y206956D01*
X173490Y206184D01*
X175450Y205713D01*
X177461Y205555D01*
X179471Y205713D01*
X181432Y206184D01*
X183295Y206956D01*
X185014Y208009D01*
X186547Y209319D01*
X187857Y210852D01*
X188911Y212572D01*
X189682Y214435D01*
X190153Y216395D01*
X190311Y218406D01*
X190153Y220416D01*
X189682Y222377D01*
X188911Y224240D01*
X187857Y225959D01*
X186547Y227492D01*
X185014Y228802D01*
X183295Y229855D01*
X181432Y230627D01*
X179471Y231098D01*
X177461Y231256D01*
D02*
G37*
G36*
X288189Y208151D02*
Y205512D01*
X290828D01*
X290811Y205638D01*
X290459Y206489D01*
X289898Y207221D01*
X289167Y207782D01*
X288315Y208134D01*
X288189Y208151D01*
D02*
G37*
G36*
X286614D02*
X286488Y208134D01*
X285636Y207782D01*
X284905Y207221D01*
X284344Y206489D01*
X283992Y205638D01*
X283975Y205512D01*
X286614D01*
Y208151D01*
D02*
G37*
G36*
X416142Y206183D02*
Y203543D01*
X418781D01*
X418764Y203670D01*
X418412Y204521D01*
X417851Y205252D01*
X417119Y205813D01*
X416268Y206166D01*
X416142Y206183D01*
D02*
G37*
G36*
X414567D02*
X414441Y206166D01*
X413589Y205813D01*
X412858Y205252D01*
X412297Y204521D01*
X411944Y203670D01*
X411928Y203543D01*
X414567D01*
Y206183D01*
D02*
G37*
G36*
X325590Y204214D02*
Y201575D01*
X328230D01*
X328213Y201701D01*
X327860Y202553D01*
X327299Y203284D01*
X326568Y203845D01*
X325717Y204197D01*
X325590Y204214D01*
D02*
G37*
G36*
X324016D02*
X323889Y204197D01*
X323038Y203845D01*
X322307Y203284D01*
X321746Y202553D01*
X321393Y201701D01*
X321377Y201575D01*
X324016D01*
Y204214D01*
D02*
G37*
G36*
X290828Y203937D02*
X288189D01*
Y201298D01*
X288315Y201314D01*
X289167Y201667D01*
X289898Y202228D01*
X290459Y202959D01*
X290811Y203811D01*
X290828Y203937D01*
D02*
G37*
G36*
X286614D02*
X283975D01*
X283992Y203811D01*
X284344Y202959D01*
X284905Y202228D01*
X285636Y201667D01*
X286488Y201314D01*
X286614Y201298D01*
Y203937D01*
D02*
G37*
G36*
X102559Y203131D02*
Y200492D01*
X105198D01*
X105182Y200618D01*
X104829Y201470D01*
X104268Y202201D01*
X103537Y202762D01*
X102685Y203115D01*
X102559Y203131D01*
D02*
G37*
G36*
X100984D02*
X100858Y203115D01*
X100007Y202762D01*
X99275Y202201D01*
X98714Y201470D01*
X98362Y200618D01*
X98345Y200492D01*
X100984D01*
Y203131D01*
D02*
G37*
G36*
X418781Y201969D02*
X416142D01*
Y199329D01*
X416268Y199346D01*
X417119Y199699D01*
X417851Y200260D01*
X418412Y200991D01*
X418764Y201842D01*
X418781Y201969D01*
D02*
G37*
G36*
X414567D02*
X411928D01*
X411944Y201842D01*
X412297Y200991D01*
X412858Y200260D01*
X413589Y199699D01*
X414441Y199346D01*
X414567Y199329D01*
Y201969D01*
D02*
G37*
G36*
X380709Y200277D02*
Y197638D01*
X383348D01*
X383331Y197764D01*
X382979Y198616D01*
X382417Y199347D01*
X381686Y199908D01*
X380835Y200260D01*
X380709Y200277D01*
D02*
G37*
G36*
X379134D02*
X379008Y200260D01*
X378156Y199908D01*
X377425Y199347D01*
X376864Y198616D01*
X376511Y197764D01*
X376495Y197638D01*
X379134D01*
Y200277D01*
D02*
G37*
G36*
X328230Y200000D02*
X325590D01*
Y197361D01*
X325717Y197378D01*
X326568Y197730D01*
X327299Y198291D01*
X327860Y199022D01*
X328213Y199874D01*
X328230Y200000D01*
D02*
G37*
G36*
X324016D02*
X321377D01*
X321393Y199874D01*
X321746Y199022D01*
X322307Y198291D01*
X323038Y197730D01*
X323889Y197378D01*
X324016Y197361D01*
Y200000D01*
D02*
G37*
G36*
X231890Y199391D02*
Y196752D01*
X234529D01*
X234512Y196878D01*
X234160Y197730D01*
X233599Y198461D01*
X232868Y199022D01*
X232016Y199374D01*
X231890Y199391D01*
D02*
G37*
G36*
X230315D02*
X230189Y199374D01*
X229337Y199022D01*
X228606Y198461D01*
X228045Y197730D01*
X227693Y196878D01*
X227676Y196752D01*
X230315D01*
Y199391D01*
D02*
G37*
G36*
X105198Y198917D02*
X102559D01*
Y196278D01*
X102685Y196295D01*
X103537Y196648D01*
X104268Y197208D01*
X104829Y197940D01*
X105182Y198791D01*
X105198Y198917D01*
D02*
G37*
G36*
X100984D02*
X98345D01*
X98362Y198791D01*
X98714Y197940D01*
X99275Y197208D01*
X100007Y196648D01*
X100858Y196295D01*
X100984Y196278D01*
Y198917D01*
D02*
G37*
G36*
X212303Y197029D02*
Y194390D01*
X214942D01*
X214926Y194516D01*
X214573Y195368D01*
X214012Y196099D01*
X213281Y196660D01*
X212429Y197012D01*
X212303Y197029D01*
D02*
G37*
G36*
X210728D02*
X210602Y197012D01*
X209751Y196660D01*
X209019Y196099D01*
X208458Y195368D01*
X208106Y194516D01*
X208089Y194390D01*
X210728D01*
Y197029D01*
D02*
G37*
G36*
X156988Y196438D02*
Y193799D01*
X159627D01*
X159611Y193925D01*
X159258Y194777D01*
X158697Y195508D01*
X157966Y196069D01*
X157115Y196422D01*
X156988Y196438D01*
D02*
G37*
G36*
X155413D02*
X155287Y196422D01*
X154436Y196069D01*
X153705Y195508D01*
X153144Y194777D01*
X152791Y193925D01*
X152774Y193799D01*
X155413D01*
Y196438D01*
D02*
G37*
G36*
X383348Y196063D02*
X380709D01*
Y193424D01*
X380835Y193440D01*
X381686Y193793D01*
X382417Y194354D01*
X382979Y195085D01*
X383331Y195937D01*
X383348Y196063D01*
D02*
G37*
G36*
X379134D02*
X376495D01*
X376511Y195937D01*
X376864Y195085D01*
X377425Y194354D01*
X378156Y193793D01*
X379008Y193440D01*
X379134Y193424D01*
Y196063D01*
D02*
G37*
G36*
X42126Y205413D02*
X30125D01*
X30221Y204190D01*
X30692Y202230D01*
X31463Y200367D01*
X32517Y198647D01*
X33827Y197114D01*
X35360Y195804D01*
X37079Y194751D01*
X38942Y193979D01*
X40903Y193508D01*
X42126Y193412D01*
Y205413D01*
D02*
G37*
G36*
X55702D02*
X43701D01*
Y193412D01*
X44924Y193508D01*
X46884Y193979D01*
X48747Y194751D01*
X50467Y195804D01*
X52000Y197114D01*
X53310Y198647D01*
X54363Y200367D01*
X55135Y202230D01*
X55606Y204190D01*
X55702Y205413D01*
D02*
G37*
G36*
X71260Y219051D02*
X69250Y218893D01*
X67289Y218423D01*
X65426Y217651D01*
X63706Y216597D01*
X62173Y215288D01*
X60864Y213754D01*
X59810Y212035D01*
X59038Y210172D01*
X58567Y208211D01*
X58409Y206201D01*
X58567Y204190D01*
X59038Y202230D01*
X59810Y200367D01*
X60864Y198647D01*
X62173Y197114D01*
X63706Y195804D01*
X65426Y194751D01*
X67289Y193979D01*
X69250Y193508D01*
X71260Y193350D01*
X73270Y193508D01*
X75231Y193979D01*
X77094Y194751D01*
X78813Y195804D01*
X80347Y197114D01*
X81656Y198647D01*
X82710Y200367D01*
X83482Y202230D01*
X83952Y204190D01*
X84110Y206201D01*
X83952Y208211D01*
X83482Y210172D01*
X82710Y212035D01*
X81656Y213754D01*
X80347Y215288D01*
X78813Y216597D01*
X77094Y217651D01*
X75231Y218423D01*
X73270Y218893D01*
X71260Y219051D01*
D02*
G37*
G36*
X234529Y195177D02*
X231890D01*
Y192538D01*
X232016Y192555D01*
X232868Y192907D01*
X233599Y193468D01*
X234160Y194200D01*
X234512Y195051D01*
X234529Y195177D01*
D02*
G37*
G36*
X230315D02*
X227676D01*
X227693Y195051D01*
X228045Y194200D01*
X228606Y193468D01*
X229337Y192907D01*
X230189Y192555D01*
X230315Y192538D01*
Y195177D01*
D02*
G37*
G36*
X198917Y192993D02*
Y190354D01*
X201556D01*
X201540Y190481D01*
X201187Y191332D01*
X200626Y192063D01*
X199895Y192624D01*
X199044Y192977D01*
X198917Y192993D01*
D02*
G37*
G36*
X197343D02*
X197216Y192977D01*
X196365Y192624D01*
X195634Y192063D01*
X195073Y191332D01*
X194720Y190481D01*
X194703Y190354D01*
X197343D01*
Y192993D01*
D02*
G37*
G36*
X214942Y192815D02*
X212303D01*
Y190176D01*
X212429Y190192D01*
X213281Y190545D01*
X214012Y191106D01*
X214573Y191837D01*
X214926Y192689D01*
X214942Y192815D01*
D02*
G37*
G36*
X210728D02*
X208089D01*
X208106Y192689D01*
X208458Y191837D01*
X209019Y191106D01*
X209751Y190545D01*
X210602Y190192D01*
X210728Y190176D01*
Y192815D01*
D02*
G37*
G36*
X159627Y192224D02*
X156988D01*
Y189585D01*
X157115Y189602D01*
X157966Y189955D01*
X158697Y190516D01*
X159258Y191247D01*
X159611Y192098D01*
X159627Y192224D01*
D02*
G37*
G36*
X155413D02*
X152774D01*
X152791Y192098D01*
X153144Y191247D01*
X153705Y190516D01*
X154436Y189955D01*
X155287Y189602D01*
X155413Y189585D01*
Y192224D01*
D02*
G37*
G36*
X201556Y188779D02*
X198917D01*
Y186140D01*
X199044Y186157D01*
X199895Y186510D01*
X200626Y187071D01*
X201187Y187802D01*
X201540Y188653D01*
X201556Y188779D01*
D02*
G37*
G36*
X197343D02*
X194703D01*
X194720Y188653D01*
X195073Y187802D01*
X195634Y187071D01*
X196365Y186510D01*
X197216Y186157D01*
X197343Y186140D01*
Y188779D01*
D02*
G37*
G36*
X254724Y197828D02*
Y185827D01*
X266726D01*
X266629Y187050D01*
X266159Y189010D01*
X265387Y190873D01*
X264333Y192593D01*
X263024Y194126D01*
X261490Y195436D01*
X259771Y196489D01*
X257908Y197261D01*
X255947Y197732D01*
X254724Y197828D01*
D02*
G37*
G36*
X253150D02*
X251927Y197732D01*
X249966Y197261D01*
X248103Y196489D01*
X246384Y195436D01*
X244850Y194126D01*
X243541Y192593D01*
X242487Y190873D01*
X241715Y189010D01*
X241245Y187050D01*
X241148Y185827D01*
X253150D01*
Y197828D01*
D02*
G37*
G36*
X27854Y188171D02*
Y185531D01*
X30494D01*
X30477Y185658D01*
X30124Y186509D01*
X29563Y187240D01*
X28832Y187801D01*
X27981Y188154D01*
X27854Y188171D01*
D02*
G37*
G36*
X26280D02*
X26153Y188154D01*
X25302Y187801D01*
X24571Y187240D01*
X24010Y186509D01*
X23657Y185658D01*
X23640Y185531D01*
X26280D01*
Y188171D01*
D02*
G37*
G36*
X55315Y187974D02*
Y185335D01*
X57954D01*
X57938Y185461D01*
X57585Y186312D01*
X57024Y187043D01*
X56293Y187604D01*
X55441Y187957D01*
X55315Y187974D01*
D02*
G37*
G36*
X53740D02*
X53614Y187957D01*
X52763Y187604D01*
X52031Y187043D01*
X51470Y186312D01*
X51118Y185461D01*
X51101Y185335D01*
X53740D01*
Y187974D01*
D02*
G37*
G36*
X30494Y183957D02*
X27854D01*
Y181318D01*
X27981Y181334D01*
X28832Y181687D01*
X29563Y182248D01*
X30124Y182979D01*
X30477Y183830D01*
X30494Y183957D01*
D02*
G37*
G36*
X26280D02*
X23640D01*
X23657Y183830D01*
X24010Y182979D01*
X24571Y182248D01*
X25302Y181687D01*
X26153Y181334D01*
X26280Y181318D01*
Y183957D01*
D02*
G37*
G36*
X57954Y183760D02*
X55315D01*
Y181121D01*
X55441Y181137D01*
X56293Y181490D01*
X57024Y182051D01*
X57585Y182782D01*
X57938Y183634D01*
X57954Y183760D01*
D02*
G37*
G36*
X53740D02*
X51101D01*
X51118Y183634D01*
X51470Y182782D01*
X52031Y182051D01*
X52763Y181490D01*
X53614Y181137D01*
X53740Y181121D01*
Y183760D01*
D02*
G37*
G36*
X281201Y177836D02*
Y175197D01*
X283840D01*
X283823Y175323D01*
X283471Y176174D01*
X282910Y176906D01*
X282178Y177467D01*
X281327Y177819D01*
X281201Y177836D01*
D02*
G37*
G36*
X279626D02*
X279500Y177819D01*
X278648Y177467D01*
X277917Y176906D01*
X277356Y176174D01*
X277004Y175323D01*
X276987Y175197D01*
X279626D01*
Y177836D01*
D02*
G37*
G36*
X266726Y184252D02*
X254724D01*
Y172251D01*
X255947Y172347D01*
X257908Y172818D01*
X259771Y173589D01*
X261490Y174643D01*
X263024Y175953D01*
X264333Y177486D01*
X265387Y179205D01*
X266159Y181068D01*
X266629Y183029D01*
X266726Y184252D01*
D02*
G37*
G36*
X253150D02*
X241148D01*
X241245Y183029D01*
X241715Y181068D01*
X242487Y179205D01*
X243541Y177486D01*
X244850Y175953D01*
X246384Y174643D01*
X248103Y173589D01*
X249966Y172818D01*
X251927Y172347D01*
X253150Y172251D01*
Y184252D01*
D02*
G37*
G36*
X283840Y173622D02*
X281201D01*
Y170983D01*
X281327Y171000D01*
X282178Y171352D01*
X282910Y171913D01*
X283471Y172644D01*
X283823Y173496D01*
X283840Y173622D01*
D02*
G37*
G36*
X279626D02*
X276987D01*
X277004Y173496D01*
X277356Y172644D01*
X277917Y171913D01*
X278648Y171352D01*
X279500Y171000D01*
X279626Y170983D01*
Y173622D01*
D02*
G37*
G36*
X229528Y172324D02*
Y169685D01*
X232167D01*
X232150Y169811D01*
X231797Y170663D01*
X231236Y171394D01*
X230505Y171955D01*
X229654Y172308D01*
X229528Y172324D01*
D02*
G37*
G36*
X227953D02*
X227826Y172308D01*
X226975Y171955D01*
X226244Y171394D01*
X225683Y170663D01*
X225330Y169811D01*
X225314Y169685D01*
X227953D01*
Y172324D01*
D02*
G37*
G36*
X309842Y168781D02*
Y166142D01*
X312482D01*
X312465Y166268D01*
X312112Y167119D01*
X311551Y167851D01*
X310820Y168412D01*
X309969Y168764D01*
X309842Y168781D01*
D02*
G37*
G36*
X308268D02*
X308141Y168764D01*
X307290Y168412D01*
X306559Y167851D01*
X305998Y167119D01*
X305645Y166268D01*
X305629Y166142D01*
X308268D01*
Y168781D01*
D02*
G37*
G36*
X103543Y168289D02*
Y165650D01*
X106182D01*
X106166Y165776D01*
X105813Y166627D01*
X105252Y167358D01*
X104521Y167919D01*
X103670Y168272D01*
X103543Y168289D01*
D02*
G37*
G36*
X101969D02*
X101842Y168272D01*
X100991Y167919D01*
X100260Y167358D01*
X99699Y166627D01*
X99346Y165776D01*
X99329Y165650D01*
X101969D01*
Y168289D01*
D02*
G37*
G36*
X232167Y168110D02*
X229528D01*
Y165471D01*
X229654Y165488D01*
X230505Y165840D01*
X231236Y166401D01*
X231797Y167132D01*
X232150Y167984D01*
X232167Y168110D01*
D02*
G37*
G36*
X227953D02*
X225314D01*
X225330Y167984D01*
X225683Y167132D01*
X226244Y166401D01*
X226975Y165840D01*
X227826Y165488D01*
X227953Y165471D01*
Y168110D01*
D02*
G37*
G36*
X43701Y176076D02*
Y164075D01*
X55702D01*
X55606Y165298D01*
X55135Y167259D01*
X54363Y169122D01*
X53310Y170841D01*
X52000Y172374D01*
X50467Y173684D01*
X48747Y174737D01*
X46884Y175509D01*
X44924Y175980D01*
X43701Y176076D01*
D02*
G37*
G36*
X42126D02*
X40903Y175980D01*
X38942Y175509D01*
X37079Y174737D01*
X35360Y173684D01*
X33827Y172374D01*
X32517Y170841D01*
X31463Y169122D01*
X30692Y167259D01*
X30221Y165298D01*
X30125Y164075D01*
X42126D01*
Y176076D01*
D02*
G37*
G36*
X312482Y164567D02*
X309842D01*
Y161928D01*
X309969Y161944D01*
X310820Y162297D01*
X311551Y162858D01*
X312112Y163589D01*
X312465Y164441D01*
X312482Y164567D01*
D02*
G37*
G36*
X308268D02*
X305629D01*
X305645Y164441D01*
X305998Y163589D01*
X306559Y162858D01*
X307290Y162297D01*
X308141Y161944D01*
X308268Y161928D01*
Y164567D01*
D02*
G37*
G36*
X106182Y164075D02*
X103543D01*
Y161436D01*
X103670Y161452D01*
X104521Y161805D01*
X105252Y162366D01*
X105813Y163097D01*
X106166Y163949D01*
X106182Y164075D01*
D02*
G37*
G36*
X101969D02*
X99329D01*
X99346Y163949D01*
X99699Y163097D01*
X100260Y162366D01*
X100991Y161805D01*
X101842Y161452D01*
X101969Y161436D01*
Y164075D01*
D02*
G37*
G36*
X347244Y162875D02*
Y160236D01*
X349883D01*
X349867Y160363D01*
X349514Y161214D01*
X348953Y161945D01*
X348222Y162506D01*
X347370Y162859D01*
X347244Y162875D01*
D02*
G37*
G36*
X345669D02*
X345543Y162859D01*
X344692Y162506D01*
X343960Y161945D01*
X343399Y161214D01*
X343047Y160363D01*
X343030Y160236D01*
X345669D01*
Y162875D01*
D02*
G37*
G36*
X124213Y159627D02*
Y156988D01*
X126852D01*
X126835Y157115D01*
X126482Y157966D01*
X125921Y158697D01*
X125190Y159258D01*
X124339Y159611D01*
X124213Y159627D01*
D02*
G37*
G36*
X122638D02*
X122511Y159611D01*
X121660Y159258D01*
X120929Y158697D01*
X120368Y157966D01*
X120015Y157115D01*
X119999Y156988D01*
X122638D01*
Y159627D01*
D02*
G37*
G36*
X18504Y158938D02*
Y156299D01*
X21143D01*
X21126Y156425D01*
X20774Y157277D01*
X20213Y158008D01*
X19482Y158569D01*
X18630Y158922D01*
X18504Y158938D01*
D02*
G37*
G36*
X16929D02*
X16803Y158922D01*
X15951Y158569D01*
X15220Y158008D01*
X14659Y157277D01*
X14307Y156425D01*
X14290Y156299D01*
X16929D01*
Y158938D01*
D02*
G37*
G36*
X349883Y158661D02*
X347244D01*
Y156022D01*
X347370Y156039D01*
X348222Y156392D01*
X348953Y156953D01*
X349514Y157684D01*
X349867Y158535D01*
X349883Y158661D01*
D02*
G37*
G36*
X345669D02*
X343030D01*
X343047Y158535D01*
X343399Y157684D01*
X343960Y156953D01*
X344692Y156392D01*
X345543Y156039D01*
X345669Y156022D01*
Y158661D01*
D02*
G37*
G36*
X126852Y155413D02*
X124213D01*
Y152774D01*
X124339Y152791D01*
X125190Y153144D01*
X125921Y153705D01*
X126482Y154436D01*
X126835Y155287D01*
X126852Y155413D01*
D02*
G37*
G36*
X122638D02*
X119999D01*
X120015Y155287D01*
X120368Y154436D01*
X120929Y153705D01*
X121660Y153144D01*
X122511Y152791D01*
X122638Y152774D01*
Y155413D01*
D02*
G37*
G36*
X21143Y154724D02*
X18504D01*
Y152085D01*
X18630Y152102D01*
X19482Y152455D01*
X20213Y153016D01*
X20774Y153747D01*
X21126Y154598D01*
X21143Y154724D01*
D02*
G37*
G36*
X16929D02*
X14290D01*
X14307Y154598D01*
X14659Y153747D01*
X15220Y153016D01*
X15951Y152455D01*
X16803Y152102D01*
X16929Y152085D01*
Y154724D01*
D02*
G37*
G36*
X55702Y162500D02*
X43701D01*
Y150499D01*
X44924Y150595D01*
X46884Y151066D01*
X48747Y151837D01*
X50467Y152891D01*
X52000Y154201D01*
X53310Y155734D01*
X54363Y157453D01*
X55135Y159316D01*
X55606Y161277D01*
X55702Y162500D01*
D02*
G37*
G36*
X42126D02*
X30125D01*
X30221Y161277D01*
X30692Y159316D01*
X31463Y157453D01*
X32517Y155734D01*
X33827Y154201D01*
X35360Y152891D01*
X37079Y151837D01*
X38942Y151066D01*
X40903Y150595D01*
X42126Y150499D01*
Y162500D01*
D02*
G37*
G36*
X71260Y176138D02*
X69250Y175980D01*
X67289Y175509D01*
X65426Y174737D01*
X63706Y173684D01*
X62173Y172374D01*
X60864Y170841D01*
X59810Y169122D01*
X59038Y167259D01*
X58567Y165298D01*
X58409Y163287D01*
X58567Y161277D01*
X59038Y159316D01*
X59810Y157453D01*
X60864Y155734D01*
X62173Y154201D01*
X63706Y152891D01*
X65426Y151837D01*
X67289Y151066D01*
X69250Y150595D01*
X71260Y150437D01*
X73270Y150595D01*
X75231Y151066D01*
X77094Y151837D01*
X78813Y152891D01*
X80347Y154201D01*
X81656Y155734D01*
X82710Y157453D01*
X83482Y159316D01*
X83952Y161277D01*
X84110Y163287D01*
X83952Y165298D01*
X83482Y167259D01*
X82710Y169122D01*
X81656Y170841D01*
X80347Y172374D01*
X78813Y173684D01*
X77094Y174737D01*
X75231Y175509D01*
X73270Y175980D01*
X71260Y176138D01*
D02*
G37*
G36*
X284252Y151064D02*
Y148425D01*
X286891D01*
X286875Y148551D01*
X286522Y149403D01*
X285961Y150134D01*
X285230Y150695D01*
X284378Y151048D01*
X284252Y151064D01*
D02*
G37*
G36*
X282677D02*
X282551Y151048D01*
X281699Y150695D01*
X280968Y150134D01*
X280407Y149403D01*
X280055Y148551D01*
X280038Y148425D01*
X282677D01*
Y151064D01*
D02*
G37*
G36*
X229331Y148013D02*
Y145374D01*
X231970D01*
X231953Y145500D01*
X231601Y146352D01*
X231040Y147083D01*
X230308Y147644D01*
X229457Y147996D01*
X229331Y148013D01*
D02*
G37*
G36*
X227756D02*
X227630Y147996D01*
X226778Y147644D01*
X226047Y147083D01*
X225486Y146352D01*
X225133Y145500D01*
X225117Y145374D01*
X227756D01*
Y148013D01*
D02*
G37*
G36*
X286891Y146850D02*
X284252D01*
Y144211D01*
X284378Y144228D01*
X285230Y144581D01*
X285961Y145142D01*
X286522Y145873D01*
X286875Y146724D01*
X286891Y146850D01*
D02*
G37*
G36*
X282677D02*
X280038D01*
X280055Y146724D01*
X280407Y145873D01*
X280968Y145142D01*
X281699Y144581D01*
X282551Y144228D01*
X282677Y144211D01*
Y146850D01*
D02*
G37*
G36*
X253937Y169544D02*
X251927Y169385D01*
X249966Y168915D01*
X248103Y168143D01*
X246384Y167089D01*
X244850Y165780D01*
X243541Y164246D01*
X242487Y162527D01*
X241715Y160664D01*
X241245Y158703D01*
X241086Y156693D01*
X241245Y154683D01*
X241715Y152722D01*
X242487Y150859D01*
X243541Y149139D01*
X244850Y147606D01*
X246384Y146297D01*
X248103Y145243D01*
X249966Y144471D01*
X251927Y144000D01*
X253937Y143842D01*
X255947Y144000D01*
X257908Y144471D01*
X259771Y145243D01*
X261490Y146297D01*
X263024Y147606D01*
X264333Y149139D01*
X265387Y150859D01*
X266159Y152722D01*
X266629Y154683D01*
X266788Y156693D01*
X266629Y158703D01*
X266159Y160664D01*
X265387Y162527D01*
X264333Y164246D01*
X263024Y165780D01*
X261490Y167089D01*
X259771Y168143D01*
X257908Y168915D01*
X255947Y169385D01*
X253937Y169544D01*
D02*
G37*
G36*
X146457Y145159D02*
Y142520D01*
X149096D01*
X149079Y142646D01*
X148726Y143497D01*
X148166Y144228D01*
X147434Y144790D01*
X146583Y145142D01*
X146457Y145159D01*
D02*
G37*
G36*
X144882D02*
X144756Y145142D01*
X143904Y144790D01*
X143173Y144228D01*
X142612Y143497D01*
X142259Y142646D01*
X142243Y142520D01*
X144882D01*
Y145159D01*
D02*
G37*
G36*
X43504D02*
Y142520D01*
X46143D01*
X46126Y142646D01*
X45774Y143497D01*
X45213Y144228D01*
X44482Y144790D01*
X43630Y145142D01*
X43504Y145159D01*
D02*
G37*
G36*
X41929D02*
X41803Y145142D01*
X40951Y144790D01*
X40220Y144228D01*
X39659Y143497D01*
X39307Y142646D01*
X39290Y142520D01*
X41929D01*
Y145159D01*
D02*
G37*
G36*
X231970Y143799D02*
X229331D01*
Y141160D01*
X229457Y141177D01*
X230308Y141529D01*
X231040Y142090D01*
X231601Y142822D01*
X231953Y143673D01*
X231970Y143799D01*
D02*
G37*
G36*
X227756D02*
X225117D01*
X225133Y143673D01*
X225486Y142822D01*
X226047Y142090D01*
X226778Y141529D01*
X227630Y141177D01*
X227756Y141160D01*
Y143799D01*
D02*
G37*
G36*
X105118Y141222D02*
Y138583D01*
X107757D01*
X107741Y138709D01*
X107388Y139560D01*
X106827Y140292D01*
X106096Y140852D01*
X105244Y141205D01*
X105118Y141222D01*
D02*
G37*
G36*
X103543D02*
X103417Y141205D01*
X102566Y140852D01*
X101834Y140292D01*
X101274Y139560D01*
X100921Y138709D01*
X100904Y138583D01*
X103543D01*
Y141222D01*
D02*
G37*
G36*
X67815Y141123D02*
Y138484D01*
X70454D01*
X70438Y138610D01*
X70085Y139462D01*
X69524Y140193D01*
X68793Y140754D01*
X67941Y141107D01*
X67815Y141123D01*
D02*
G37*
G36*
X66240D02*
X66114Y141107D01*
X65263Y140754D01*
X64531Y140193D01*
X63970Y139462D01*
X63618Y138610D01*
X63601Y138484D01*
X66240D01*
Y141123D01*
D02*
G37*
G36*
X46143Y140945D02*
X43504D01*
Y138306D01*
X43630Y138322D01*
X44482Y138675D01*
X45213Y139236D01*
X45774Y139967D01*
X46126Y140819D01*
X46143Y140945D01*
D02*
G37*
G36*
X41929D02*
X39290D01*
X39307Y140819D01*
X39659Y139967D01*
X40220Y139236D01*
X40951Y138675D01*
X41803Y138322D01*
X41929Y138306D01*
Y140945D01*
D02*
G37*
G36*
X149096D02*
X146457D01*
Y138306D01*
X146583Y138322D01*
X147434Y138675D01*
X148166Y139236D01*
X148726Y139967D01*
X149079Y140819D01*
X149096Y140945D01*
D02*
G37*
G36*
X144882D02*
X142243D01*
X142259Y140819D01*
X142612Y139967D01*
X143173Y139236D01*
X143904Y138675D01*
X144756Y138322D01*
X144882Y138306D01*
Y140945D01*
D02*
G37*
G36*
X205807Y140730D02*
Y138091D01*
X208446D01*
X208430Y138217D01*
X208077Y139068D01*
X207516Y139799D01*
X206785Y140360D01*
X205933Y140713D01*
X205807Y140730D01*
D02*
G37*
G36*
X204232D02*
X204106Y140713D01*
X203255Y140360D01*
X202523Y139799D01*
X201962Y139068D01*
X201610Y138217D01*
X201593Y138091D01*
X204232D01*
Y140730D01*
D02*
G37*
G36*
X271850Y138564D02*
Y135925D01*
X274489D01*
X274473Y136051D01*
X274120Y136903D01*
X273559Y137634D01*
X272828Y138195D01*
X271977Y138548D01*
X271850Y138564D01*
D02*
G37*
G36*
X270276D02*
X270149Y138548D01*
X269298Y138195D01*
X268567Y137634D01*
X268006Y136903D01*
X267653Y136051D01*
X267636Y135925D01*
X270276D01*
Y138564D01*
D02*
G37*
G36*
X107757Y137008D02*
X105118D01*
Y134369D01*
X105244Y134385D01*
X106096Y134738D01*
X106827Y135299D01*
X107388Y136030D01*
X107741Y136882D01*
X107757Y137008D01*
D02*
G37*
G36*
X103543D02*
X100904D01*
X100921Y136882D01*
X101274Y136030D01*
X101834Y135299D01*
X102566Y134738D01*
X103417Y134385D01*
X103543Y134369D01*
Y137008D01*
D02*
G37*
G36*
X70454Y136909D02*
X67815D01*
Y134270D01*
X67941Y134287D01*
X68793Y134640D01*
X69524Y135201D01*
X70085Y135932D01*
X70438Y136783D01*
X70454Y136909D01*
D02*
G37*
G36*
X66240D02*
X63601D01*
X63618Y136783D01*
X63970Y135932D01*
X64531Y135201D01*
X65263Y134640D01*
X66114Y134287D01*
X66240Y134270D01*
Y136909D01*
D02*
G37*
G36*
X208446Y136516D02*
X205807D01*
Y133877D01*
X205933Y133893D01*
X206785Y134246D01*
X207516Y134807D01*
X208077Y135538D01*
X208430Y136390D01*
X208446Y136516D01*
D02*
G37*
G36*
X204232D02*
X201593D01*
X201610Y136390D01*
X201962Y135538D01*
X202523Y134807D01*
X203255Y134246D01*
X204106Y133893D01*
X204232Y133877D01*
Y136516D01*
D02*
G37*
G36*
X274489Y134350D02*
X271850D01*
Y131711D01*
X271977Y131728D01*
X272828Y132081D01*
X273559Y132642D01*
X274120Y133373D01*
X274473Y134224D01*
X274489Y134350D01*
D02*
G37*
G36*
X270276D02*
X267636D01*
X267653Y134224D01*
X268006Y133373D01*
X268567Y132642D01*
X269298Y132081D01*
X270149Y131728D01*
X270276Y131711D01*
Y134350D01*
D02*
G37*
G36*
X321654Y133348D02*
Y130709D01*
X324293D01*
X324276Y130835D01*
X323923Y131686D01*
X323362Y132418D01*
X322631Y132978D01*
X321780Y133331D01*
X321654Y133348D01*
D02*
G37*
G36*
X320079D02*
X319953Y133331D01*
X319101Y132978D01*
X318370Y132418D01*
X317809Y131686D01*
X317456Y130835D01*
X317440Y130709D01*
X320079D01*
Y133348D01*
D02*
G37*
G36*
X324293Y129134D02*
X321654D01*
Y126495D01*
X321780Y126511D01*
X322631Y126864D01*
X323362Y127425D01*
X323923Y128156D01*
X324276Y129008D01*
X324293Y129134D01*
D02*
G37*
G36*
X320079D02*
X317440D01*
X317456Y129008D01*
X317809Y128156D01*
X318370Y127425D01*
X319101Y126864D01*
X319953Y126511D01*
X320079Y126495D01*
Y129134D01*
D02*
G37*
G36*
X30610Y127344D02*
Y124705D01*
X33249D01*
X33233Y124831D01*
X32880Y125682D01*
X32319Y126414D01*
X31588Y126975D01*
X30737Y127327D01*
X30610Y127344D01*
D02*
G37*
G36*
X29035D02*
X28909Y127327D01*
X28058Y126975D01*
X27327Y126414D01*
X26766Y125682D01*
X26413Y124831D01*
X26396Y124705D01*
X29035D01*
Y127344D01*
D02*
G37*
G36*
X272441Y123505D02*
Y120866D01*
X275080D01*
X275063Y120992D01*
X274711Y121844D01*
X274150Y122575D01*
X273419Y123136D01*
X272567Y123489D01*
X272441Y123505D01*
D02*
G37*
G36*
X270866D02*
X270740Y123489D01*
X269888Y123136D01*
X269157Y122575D01*
X268596Y121844D01*
X268244Y120992D01*
X268227Y120866D01*
X270866D01*
Y123505D01*
D02*
G37*
G36*
X33249Y123130D02*
X30610D01*
Y120491D01*
X30737Y120507D01*
X31588Y120860D01*
X32319Y121421D01*
X32880Y122152D01*
X33233Y123004D01*
X33249Y123130D01*
D02*
G37*
G36*
X29035D02*
X26396D01*
X26413Y123004D01*
X26766Y122152D01*
X27327Y121421D01*
X28058Y120860D01*
X28909Y120507D01*
X29035Y120491D01*
Y123130D01*
D02*
G37*
G36*
X275080Y119291D02*
X272441D01*
Y116652D01*
X272567Y116669D01*
X273419Y117022D01*
X274150Y117582D01*
X274711Y118314D01*
X275063Y119165D01*
X275080Y119291D01*
D02*
G37*
G36*
X270866D02*
X268227D01*
X268244Y119165D01*
X268596Y118314D01*
X269157Y117582D01*
X269888Y117022D01*
X270740Y116669D01*
X270866Y116652D01*
Y119291D01*
D02*
G37*
G36*
X176083Y118781D02*
Y116142D01*
X178722D01*
X178705Y116268D01*
X178352Y117119D01*
X177792Y117851D01*
X177060Y118412D01*
X176209Y118764D01*
X176083Y118781D01*
D02*
G37*
G36*
X174508D02*
X174382Y118764D01*
X173530Y118412D01*
X172799Y117851D01*
X172238Y117119D01*
X171885Y116268D01*
X171869Y116142D01*
X174508D01*
Y118781D01*
D02*
G37*
G36*
X111319Y118486D02*
Y115847D01*
X113958D01*
X113941Y115973D01*
X113589Y116824D01*
X113028Y117555D01*
X112297Y118116D01*
X111445Y118469D01*
X111319Y118486D01*
D02*
G37*
G36*
X109744D02*
X109618Y118469D01*
X108766Y118116D01*
X108035Y117555D01*
X107474Y116824D01*
X107122Y115973D01*
X107105Y115847D01*
X109744D01*
Y118486D01*
D02*
G37*
G36*
X67224Y117698D02*
Y115059D01*
X69863D01*
X69847Y115185D01*
X69494Y116037D01*
X68933Y116768D01*
X68202Y117329D01*
X67351Y117682D01*
X67224Y117698D01*
D02*
G37*
G36*
X65650D02*
X65523Y117682D01*
X64672Y117329D01*
X63941Y116768D01*
X63380Y116037D01*
X63027Y115185D01*
X63011Y115059D01*
X65650D01*
Y117698D01*
D02*
G37*
G36*
X178722Y114567D02*
X176083D01*
Y111928D01*
X176209Y111944D01*
X177060Y112297D01*
X177792Y112858D01*
X178352Y113589D01*
X178705Y114441D01*
X178722Y114567D01*
D02*
G37*
G36*
X174508D02*
X171869D01*
X171885Y114441D01*
X172238Y113589D01*
X172799Y112858D01*
X173530Y112297D01*
X174382Y111944D01*
X174508Y111928D01*
Y114567D01*
D02*
G37*
G36*
X113958Y114272D02*
X111319D01*
Y111633D01*
X111445Y111649D01*
X112297Y112002D01*
X113028Y112563D01*
X113589Y113294D01*
X113941Y114145D01*
X113958Y114272D01*
D02*
G37*
G36*
X109744D02*
X107105D01*
X107122Y114145D01*
X107474Y113294D01*
X108035Y112563D01*
X108766Y112002D01*
X109618Y111649D01*
X109744Y111633D01*
Y114272D01*
D02*
G37*
G36*
X410236Y113663D02*
Y111024D01*
X412875D01*
X412859Y111150D01*
X412506Y112001D01*
X411945Y112732D01*
X411214Y113294D01*
X410362Y113646D01*
X410236Y113663D01*
D02*
G37*
G36*
X408661D02*
X408535Y113646D01*
X407684Y113294D01*
X406953Y112732D01*
X406392Y112001D01*
X406039Y111150D01*
X406022Y111024D01*
X408661D01*
Y113663D01*
D02*
G37*
G36*
X69863Y113484D02*
X67224D01*
Y110845D01*
X67351Y110862D01*
X68202Y111214D01*
X68933Y111775D01*
X69494Y112506D01*
X69847Y113358D01*
X69863Y113484D01*
D02*
G37*
G36*
X65650D02*
X63011D01*
X63027Y113358D01*
X63380Y112506D01*
X63941Y111775D01*
X64672Y111214D01*
X65523Y110862D01*
X65650Y110845D01*
Y113484D01*
D02*
G37*
G36*
X412875Y109449D02*
X410236D01*
Y106810D01*
X410362Y106826D01*
X411214Y107179D01*
X411945Y107740D01*
X412506Y108471D01*
X412859Y109323D01*
X412875Y109449D01*
D02*
G37*
G36*
X408661D02*
X406022D01*
X406039Y109323D01*
X406392Y108471D01*
X406953Y107740D01*
X407684Y107179D01*
X408535Y106826D01*
X408661Y106810D01*
Y109449D01*
D02*
G37*
G36*
X294094Y109037D02*
Y106398D01*
X296734D01*
X296717Y106524D01*
X296364Y107375D01*
X295803Y108107D01*
X295072Y108668D01*
X294221Y109020D01*
X294094Y109037D01*
D02*
G37*
G36*
X292520D02*
X292393Y109020D01*
X291542Y108668D01*
X290811Y108107D01*
X290250Y107375D01*
X289897Y106524D01*
X289880Y106398D01*
X292520D01*
Y109037D01*
D02*
G37*
G36*
X364961Y107757D02*
Y105118D01*
X367600D01*
X367583Y105244D01*
X367231Y106096D01*
X366670Y106827D01*
X365938Y107388D01*
X365087Y107741D01*
X364961Y107757D01*
D02*
G37*
G36*
X315748D02*
Y105118D01*
X318387D01*
X318371Y105244D01*
X318018Y106096D01*
X317457Y106827D01*
X316726Y107388D01*
X315874Y107741D01*
X315748Y107757D01*
D02*
G37*
G36*
X314173D02*
X314047Y107741D01*
X313195Y107388D01*
X312464Y106827D01*
X311903Y106096D01*
X311551Y105244D01*
X311534Y105118D01*
X314173D01*
Y107757D01*
D02*
G37*
G36*
X296734Y104823D02*
X294094D01*
Y102184D01*
X294221Y102200D01*
X295072Y102553D01*
X295803Y103114D01*
X296364Y103845D01*
X296717Y104697D01*
X296734Y104823D01*
D02*
G37*
G36*
X292520D02*
X289880D01*
X289897Y104697D01*
X290250Y103845D01*
X290811Y103114D01*
X291542Y102553D01*
X292393Y102200D01*
X292520Y102184D01*
Y104823D01*
D02*
G37*
G36*
X367600Y103543D02*
X364961D01*
Y100904D01*
X365087Y100921D01*
X365938Y101274D01*
X366670Y101834D01*
X367231Y102566D01*
X367583Y103417D01*
X367600Y103543D01*
D02*
G37*
G36*
X305819Y140404D02*
X304905Y140284D01*
X304054Y139931D01*
X303323Y139370D01*
X302762Y138639D01*
X302409Y137788D01*
X302289Y136874D01*
X302409Y135960D01*
X302762Y135109D01*
X303323Y134378D01*
X304054Y133817D01*
X304905Y133464D01*
X305819Y133344D01*
X306733Y133464D01*
X307584Y133817D01*
X308315Y134378D01*
X308524Y134650D01*
X325114D01*
X356044Y103721D01*
Y65599D01*
X355771Y65390D01*
X355210Y64659D01*
X354858Y63807D01*
X354737Y62894D01*
X354858Y61980D01*
X355210Y61129D01*
X355771Y60397D01*
X356503Y59837D01*
X357354Y59484D01*
X358268Y59364D01*
X359181Y59484D01*
X360033Y59837D01*
X360764Y60397D01*
X361325Y61129D01*
X361678Y61980D01*
X361798Y62894D01*
X361678Y63807D01*
X361325Y64659D01*
X360764Y65390D01*
X360492Y65599D01*
Y102767D01*
X360992Y102866D01*
X361116Y102566D01*
X361677Y101834D01*
X362408Y101274D01*
X363260Y100921D01*
X363386Y100904D01*
Y104331D01*
Y107757D01*
X363260Y107741D01*
X362408Y107388D01*
X361677Y106827D01*
X361116Y106096D01*
X360843Y105437D01*
X360323Y105488D01*
X360322Y105493D01*
X359840Y106214D01*
X359840Y106214D01*
X327608Y138446D01*
X326887Y138929D01*
X326035Y139098D01*
X326035Y139098D01*
X308524D01*
X308315Y139370D01*
X307584Y139931D01*
X306733Y140284D01*
X305819Y140404D01*
D02*
G37*
G36*
X318387Y103543D02*
X315748D01*
Y100904D01*
X315874Y100921D01*
X316726Y101274D01*
X317457Y101834D01*
X318018Y102566D01*
X318371Y103417D01*
X318387Y103543D01*
D02*
G37*
G36*
X314173D02*
X311534D01*
X311551Y103417D01*
X311903Y102566D01*
X312464Y101834D01*
X313195Y101274D01*
X314047Y100921D01*
X314173Y100904D01*
Y103543D01*
D02*
G37*
G36*
X268012Y101950D02*
Y99311D01*
X270651D01*
X270634Y99437D01*
X270282Y100289D01*
X269721Y101020D01*
X268989Y101581D01*
X268138Y101934D01*
X268012Y101950D01*
D02*
G37*
G36*
X266437D02*
X266311Y101934D01*
X265459Y101581D01*
X264728Y101020D01*
X264167Y100289D01*
X263814Y99437D01*
X263798Y99311D01*
X266437D01*
Y101950D01*
D02*
G37*
G36*
X294094Y97915D02*
Y95276D01*
X296734D01*
X296717Y95402D01*
X296364Y96253D01*
X295803Y96984D01*
X295072Y97545D01*
X294221Y97898D01*
X294094Y97915D01*
D02*
G37*
G36*
X292520D02*
X292393Y97898D01*
X291542Y97545D01*
X290811Y96984D01*
X290250Y96253D01*
X289897Y95402D01*
X289880Y95276D01*
X292520D01*
Y97915D01*
D02*
G37*
G36*
X18504D02*
Y95276D01*
X21143D01*
X21126Y95402D01*
X20774Y96253D01*
X20213Y96984D01*
X19482Y97545D01*
X18630Y97898D01*
X18504Y97915D01*
D02*
G37*
G36*
X16929D02*
X16803Y97898D01*
X15951Y97545D01*
X15220Y96984D01*
X14659Y96253D01*
X14307Y95402D01*
X14290Y95276D01*
X16929D01*
Y97915D01*
D02*
G37*
G36*
X270651Y97736D02*
X268012D01*
Y95097D01*
X268138Y95114D01*
X268989Y95466D01*
X269721Y96027D01*
X270282Y96759D01*
X270634Y97610D01*
X270651Y97736D01*
D02*
G37*
G36*
X266437D02*
X263798D01*
X263814Y97610D01*
X264167Y96759D01*
X264728Y96027D01*
X265459Y95466D01*
X266311Y95114D01*
X266437Y95097D01*
Y97736D01*
D02*
G37*
G36*
X296734Y93701D02*
X294094D01*
Y91062D01*
X294221Y91078D01*
X295072Y91431D01*
X295803Y91992D01*
X296364Y92723D01*
X296717Y93575D01*
X296734Y93701D01*
D02*
G37*
G36*
X292520D02*
X289880D01*
X289897Y93575D01*
X290250Y92723D01*
X290811Y91992D01*
X291542Y91431D01*
X292393Y91078D01*
X292520Y91062D01*
Y93701D01*
D02*
G37*
G36*
X21143D02*
X18504D01*
Y91062D01*
X18630Y91078D01*
X19482Y91431D01*
X20213Y91992D01*
X20774Y92723D01*
X21126Y93575D01*
X21143Y93701D01*
D02*
G37*
G36*
X16929D02*
X14290D01*
X14307Y93575D01*
X14659Y92723D01*
X15220Y91992D01*
X15951Y91431D01*
X16803Y91078D01*
X16929Y91062D01*
Y93701D01*
D02*
G37*
G36*
X123622Y91320D02*
Y88681D01*
X126261D01*
X126245Y88807D01*
X125892Y89659D01*
X125331Y90390D01*
X124600Y90951D01*
X123748Y91304D01*
X123622Y91320D01*
D02*
G37*
G36*
X122047D02*
X121921Y91304D01*
X121070Y90951D01*
X120338Y90390D01*
X119777Y89659D01*
X119425Y88807D01*
X119408Y88681D01*
X122047D01*
Y91320D01*
D02*
G37*
G36*
X284252Y90041D02*
Y87402D01*
X286891D01*
X286875Y87528D01*
X286522Y88379D01*
X285961Y89110D01*
X285230Y89671D01*
X284378Y90024D01*
X284252Y90041D01*
D02*
G37*
G36*
X282677D02*
X282551Y90024D01*
X281699Y89671D01*
X280968Y89110D01*
X280407Y88379D01*
X280055Y87528D01*
X280038Y87402D01*
X282677D01*
Y90041D01*
D02*
G37*
G36*
X126261Y87106D02*
X123622D01*
Y84467D01*
X123748Y84484D01*
X124600Y84837D01*
X125331Y85397D01*
X125892Y86129D01*
X126245Y86980D01*
X126261Y87106D01*
D02*
G37*
G36*
X122047D02*
X119408D01*
X119425Y86980D01*
X119777Y86129D01*
X120338Y85397D01*
X121070Y84837D01*
X121921Y84484D01*
X122047Y84467D01*
Y87106D01*
D02*
G37*
G36*
X286891Y85827D02*
X284252D01*
Y83188D01*
X284378Y83204D01*
X285230Y83557D01*
X285961Y84118D01*
X286522Y84849D01*
X286875Y85701D01*
X286891Y85827D01*
D02*
G37*
G36*
X282677D02*
X280038D01*
X280055Y85701D01*
X280407Y84849D01*
X280968Y84118D01*
X281699Y83557D01*
X282551Y83204D01*
X282677Y83188D01*
Y85827D01*
D02*
G37*
G36*
X318898Y84726D02*
Y82087D01*
X321537D01*
X321520Y82213D01*
X321167Y83064D01*
X320606Y83795D01*
X319875Y84356D01*
X319024Y84709D01*
X318898Y84726D01*
D02*
G37*
G36*
X317323D02*
X317197Y84709D01*
X316345Y84356D01*
X315614Y83795D01*
X315053Y83064D01*
X314700Y82213D01*
X314684Y82087D01*
X317323D01*
Y84726D01*
D02*
G37*
G36*
X321537Y80512D02*
X318898D01*
Y77873D01*
X319024Y77889D01*
X319875Y78242D01*
X320606Y78803D01*
X321167Y79534D01*
X321520Y80386D01*
X321537Y80512D01*
D02*
G37*
G36*
X317323D02*
X314684D01*
X314700Y80386D01*
X315053Y79534D01*
X315614Y78803D01*
X316345Y78242D01*
X317197Y77889D01*
X317323Y77873D01*
Y80512D01*
D02*
G37*
G36*
X240945Y91000D02*
X238935Y90842D01*
X236974Y90371D01*
X235111Y89600D01*
X233391Y88546D01*
X231858Y87236D01*
X230549Y85703D01*
X229495Y83984D01*
X228723Y82121D01*
X228253Y80160D01*
X228094Y78150D01*
X228253Y76139D01*
X228723Y74178D01*
X229495Y72316D01*
X230549Y70596D01*
X231858Y69063D01*
X233391Y67753D01*
X235111Y66700D01*
X236974Y65928D01*
X238935Y65457D01*
X240945Y65299D01*
X242955Y65457D01*
X244916Y65928D01*
X246779Y66700D01*
X248498Y67753D01*
X250032Y69063D01*
X251341Y70596D01*
X252395Y72316D01*
X253167Y74178D01*
X253637Y76139D01*
X253796Y78150D01*
X253637Y80160D01*
X253167Y82121D01*
X252395Y83984D01*
X251341Y85703D01*
X250032Y87236D01*
X248498Y88546D01*
X246779Y89600D01*
X244916Y90371D01*
X242955Y90842D01*
X240945Y91000D01*
D02*
G37*
G36*
X271457Y64942D02*
Y62303D01*
X274096D01*
X274079Y62429D01*
X273727Y63281D01*
X273165Y64012D01*
X272434Y64573D01*
X271583Y64926D01*
X271457Y64942D01*
D02*
G37*
G36*
X269882D02*
X269756Y64926D01*
X268904Y64573D01*
X268173Y64012D01*
X267612Y63281D01*
X267259Y62429D01*
X267243Y62303D01*
X269882D01*
Y64942D01*
D02*
G37*
G36*
X16535Y62482D02*
Y59842D01*
X19175D01*
X19158Y59969D01*
X18805Y60820D01*
X18244Y61551D01*
X17513Y62112D01*
X16662Y62465D01*
X16535Y62482D01*
D02*
G37*
G36*
X14961D02*
X14834Y62465D01*
X13983Y62112D01*
X13252Y61551D01*
X12691Y60820D01*
X12338Y59969D01*
X12321Y59842D01*
X14961D01*
Y62482D01*
D02*
G37*
G36*
X274096Y60728D02*
X271457D01*
Y58089D01*
X271583Y58106D01*
X272434Y58459D01*
X273165Y59020D01*
X273727Y59751D01*
X274079Y60602D01*
X274096Y60728D01*
D02*
G37*
G36*
X269882D02*
X267243D01*
X267259Y60602D01*
X267612Y59751D01*
X268173Y59020D01*
X268904Y58459D01*
X269756Y58106D01*
X269882Y58089D01*
Y60728D01*
D02*
G37*
G36*
X19175Y58268D02*
X16535D01*
Y55629D01*
X16662Y55645D01*
X17513Y55998D01*
X18244Y56559D01*
X18805Y57290D01*
X19158Y58141D01*
X19175Y58268D01*
D02*
G37*
G36*
X14961D02*
X12321D01*
X12338Y58141D01*
X12691Y57290D01*
X13252Y56559D01*
X13983Y55998D01*
X14834Y55645D01*
X14961Y55629D01*
Y58268D01*
D02*
G37*
G36*
X416437Y57560D02*
Y54921D01*
X419076D01*
X419060Y55048D01*
X418707Y55899D01*
X418146Y56630D01*
X417415Y57191D01*
X416563Y57544D01*
X416437Y57560D01*
D02*
G37*
G36*
X414862D02*
X414736Y57544D01*
X413884Y57191D01*
X413153Y56630D01*
X412592Y55899D01*
X412240Y55048D01*
X412223Y54921D01*
X414862D01*
Y57560D01*
D02*
G37*
G36*
X334646Y56478D02*
Y53839D01*
X337285D01*
X337268Y53965D01*
X336915Y54816D01*
X336354Y55547D01*
X335623Y56108D01*
X334772Y56461D01*
X334646Y56478D01*
D02*
G37*
G36*
X333071D02*
X332945Y56461D01*
X332093Y56108D01*
X331362Y55547D01*
X330801Y54816D01*
X330448Y53965D01*
X330432Y53839D01*
X333071D01*
Y56478D01*
D02*
G37*
G36*
X385827Y56281D02*
Y53642D01*
X388466D01*
X388449Y53768D01*
X388097Y54619D01*
X387536Y55351D01*
X386805Y55912D01*
X385953Y56264D01*
X385827Y56281D01*
D02*
G37*
G36*
X384252D02*
X384126Y56264D01*
X383274Y55912D01*
X382543Y55351D01*
X381982Y54619D01*
X381629Y53768D01*
X381613Y53642D01*
X384252D01*
Y56281D01*
D02*
G37*
G36*
X419076Y53347D02*
X416437D01*
Y50707D01*
X416563Y50724D01*
X417415Y51077D01*
X418146Y51638D01*
X418707Y52369D01*
X419060Y53220D01*
X419076Y53347D01*
D02*
G37*
G36*
X414862D02*
X412223D01*
X412240Y53220D01*
X412592Y52369D01*
X413153Y51638D01*
X413884Y51077D01*
X414736Y50724D01*
X414862Y50707D01*
Y53347D01*
D02*
G37*
G36*
X241732Y62592D02*
Y50591D01*
X253733D01*
X253637Y51813D01*
X253167Y53774D01*
X252395Y55637D01*
X251341Y57357D01*
X250032Y58890D01*
X248498Y60199D01*
X246779Y61253D01*
X244916Y62025D01*
X242955Y62496D01*
X241732Y62592D01*
D02*
G37*
G36*
X240158D02*
X238935Y62496D01*
X236974Y62025D01*
X235111Y61253D01*
X233391Y60199D01*
X231858Y58890D01*
X230549Y57357D01*
X229495Y55637D01*
X228723Y53774D01*
X228253Y51813D01*
X228156Y50591D01*
X240158D01*
Y62592D01*
D02*
G37*
G36*
X337285Y52264D02*
X334646D01*
Y49625D01*
X334772Y49641D01*
X335623Y49994D01*
X336354Y50555D01*
X336915Y51286D01*
X337268Y52138D01*
X337285Y52264D01*
D02*
G37*
G36*
X333071D02*
X330432D01*
X330448Y52138D01*
X330801Y51286D01*
X331362Y50555D01*
X332093Y49994D01*
X332945Y49641D01*
X333071Y49625D01*
Y52264D01*
D02*
G37*
G36*
X359055Y52245D02*
Y49606D01*
X361694D01*
X361678Y49733D01*
X361325Y50584D01*
X360764Y51315D01*
X360033Y51876D01*
X359181Y52229D01*
X359055Y52245D01*
D02*
G37*
G36*
X357480D02*
X357354Y52229D01*
X356503Y51876D01*
X355771Y51315D01*
X355210Y50584D01*
X354858Y49733D01*
X354841Y49606D01*
X357480D01*
Y52245D01*
D02*
G37*
G36*
X388466Y52067D02*
X385827D01*
Y49428D01*
X385953Y49444D01*
X386805Y49797D01*
X387536Y50358D01*
X388097Y51089D01*
X388449Y51941D01*
X388466Y52067D01*
D02*
G37*
G36*
X384252D02*
X381613D01*
X381629Y51941D01*
X381982Y51089D01*
X382543Y50358D01*
X383274Y49797D01*
X384126Y49444D01*
X384252Y49428D01*
Y52067D01*
D02*
G37*
G36*
X361694Y48031D02*
X359055D01*
Y45392D01*
X359181Y45409D01*
X360033Y45762D01*
X360764Y46323D01*
X361325Y47054D01*
X361678Y47905D01*
X361694Y48031D01*
D02*
G37*
G36*
X357480D02*
X354841D01*
X354858Y47905D01*
X355210Y47054D01*
X355771Y46323D01*
X356503Y45762D01*
X357354Y45409D01*
X357480Y45392D01*
Y48031D01*
D02*
G37*
G36*
X313681Y45848D02*
Y43209D01*
X316320D01*
X316304Y43335D01*
X315951Y44186D01*
X315390Y44918D01*
X314659Y45478D01*
X313807Y45831D01*
X313681Y45848D01*
D02*
G37*
G36*
X312106D02*
X311980Y45831D01*
X311129Y45478D01*
X310398Y44918D01*
X309837Y44186D01*
X309484Y43335D01*
X309467Y43209D01*
X312106D01*
Y45848D01*
D02*
G37*
G36*
X298425Y68461D02*
X296415Y68303D01*
X294454Y67832D01*
X292591Y67060D01*
X290872Y66007D01*
X289338Y64697D01*
X288029Y63164D01*
X286975Y61444D01*
X286204Y59581D01*
X285733Y57621D01*
X285575Y55610D01*
X285733Y53600D01*
X286204Y51639D01*
X286975Y49776D01*
X288029Y48057D01*
X289338Y46523D01*
X290872Y45214D01*
X292591Y44160D01*
X294454Y43389D01*
X296415Y42918D01*
X298425Y42760D01*
X300435Y42918D01*
X302396Y43389D01*
X304259Y44160D01*
X305979Y45214D01*
X307512Y46523D01*
X308822Y48057D01*
X309875Y49776D01*
X310647Y51639D01*
X311118Y53600D01*
X311276Y55610D01*
X311118Y57621D01*
X310647Y59581D01*
X309875Y61444D01*
X308822Y63164D01*
X307512Y64697D01*
X305979Y66007D01*
X304259Y67060D01*
X302396Y67832D01*
X300435Y68303D01*
X298425Y68461D01*
D02*
G37*
G36*
X316320Y41634D02*
X313681D01*
Y38995D01*
X313807Y39011D01*
X314659Y39364D01*
X315390Y39925D01*
X315951Y40656D01*
X316304Y41508D01*
X316320Y41634D01*
D02*
G37*
G36*
X312106D02*
X309467D01*
X309484Y41508D01*
X309837Y40656D01*
X310398Y39925D01*
X311129Y39364D01*
X311980Y39011D01*
X312106Y38995D01*
Y41634D01*
D02*
G37*
G36*
X410236Y40730D02*
Y38091D01*
X412875D01*
X412859Y38217D01*
X412506Y39068D01*
X411945Y39799D01*
X411214Y40360D01*
X410362Y40713D01*
X410236Y40730D01*
D02*
G37*
G36*
X408661D02*
X408535Y40713D01*
X407684Y40360D01*
X406953Y39799D01*
X406392Y39068D01*
X406039Y38217D01*
X406022Y38091D01*
X408661D01*
Y40730D01*
D02*
G37*
G36*
X253733Y49016D02*
X241732D01*
Y37014D01*
X242955Y37111D01*
X244916Y37582D01*
X246779Y38353D01*
X248498Y39407D01*
X250032Y40716D01*
X251341Y42250D01*
X252395Y43969D01*
X253167Y45832D01*
X253637Y47793D01*
X253733Y49016D01*
D02*
G37*
G36*
X240158D02*
X228156D01*
X228253Y47793D01*
X228723Y45832D01*
X229495Y43969D01*
X230549Y42250D01*
X231858Y40716D01*
X233391Y39407D01*
X235111Y38353D01*
X236974Y37582D01*
X238935Y37111D01*
X240158Y37014D01*
Y49016D01*
D02*
G37*
G36*
X207382Y39450D02*
Y36811D01*
X210021D01*
X210004Y36937D01*
X209652Y37789D01*
X209091Y38520D01*
X208360Y39081D01*
X207508Y39434D01*
X207382Y39450D01*
D02*
G37*
G36*
X205807D02*
X205681Y39434D01*
X204829Y39081D01*
X204098Y38520D01*
X203537Y37789D01*
X203185Y36937D01*
X203168Y36811D01*
X205807D01*
Y39450D01*
D02*
G37*
G36*
X268602Y39155D02*
Y36516D01*
X271241D01*
X271225Y36642D01*
X270872Y37494D01*
X270311Y38225D01*
X269580Y38786D01*
X268729Y39138D01*
X268602Y39155D01*
D02*
G37*
G36*
X267028D02*
X266901Y39138D01*
X266050Y38786D01*
X265319Y38225D01*
X264758Y37494D01*
X264405Y36642D01*
X264388Y36516D01*
X267028D01*
Y39155D01*
D02*
G37*
G36*
X412875Y36516D02*
X410236D01*
Y33877D01*
X410362Y33893D01*
X411214Y34246D01*
X411945Y34807D01*
X412506Y35538D01*
X412859Y36389D01*
X412875Y36516D01*
D02*
G37*
G36*
X408661D02*
X406022D01*
X406039Y36389D01*
X406392Y35538D01*
X406953Y34807D01*
X407684Y34246D01*
X408535Y33893D01*
X408661Y33877D01*
Y36516D01*
D02*
G37*
G36*
X179331Y35907D02*
Y33268D01*
X181970D01*
X181953Y33394D01*
X181600Y34245D01*
X181040Y34977D01*
X180308Y35537D01*
X179457Y35890D01*
X179331Y35907D01*
D02*
G37*
G36*
X177756D02*
X177630Y35890D01*
X176778Y35537D01*
X176047Y34977D01*
X175486Y34245D01*
X175133Y33394D01*
X175117Y33268D01*
X177756D01*
Y35907D01*
D02*
G37*
G36*
X210021Y35236D02*
X207382D01*
Y32597D01*
X207508Y32614D01*
X208360Y32966D01*
X209091Y33527D01*
X209652Y34258D01*
X210004Y35110D01*
X210021Y35236D01*
D02*
G37*
G36*
X205807D02*
X203168D01*
X203185Y35110D01*
X203537Y34258D01*
X204098Y33527D01*
X204829Y32966D01*
X205681Y32614D01*
X205807Y32597D01*
Y35236D01*
D02*
G37*
G36*
X86516Y35021D02*
Y32382D01*
X89155D01*
X89138Y32508D01*
X88786Y33360D01*
X88225Y34091D01*
X87493Y34652D01*
X86642Y35004D01*
X86516Y35021D01*
D02*
G37*
G36*
X84941D02*
X84815Y35004D01*
X83963Y34652D01*
X83232Y34091D01*
X82671Y33360D01*
X82318Y32508D01*
X82302Y32382D01*
X84941D01*
Y35021D01*
D02*
G37*
G36*
X18701D02*
Y32382D01*
X21340D01*
X21323Y32508D01*
X20971Y33360D01*
X20410Y34091D01*
X19679Y34652D01*
X18827Y35004D01*
X18701Y35021D01*
D02*
G37*
G36*
X17126D02*
X17000Y35004D01*
X16148Y34652D01*
X15417Y34091D01*
X14856Y33360D01*
X14503Y32508D01*
X14487Y32382D01*
X17126D01*
Y35021D01*
D02*
G37*
G36*
X271241Y34941D02*
X268602D01*
Y32302D01*
X268729Y32318D01*
X269580Y32671D01*
X270311Y33232D01*
X270872Y33963D01*
X271225Y34815D01*
X271241Y34941D01*
D02*
G37*
G36*
X267028D02*
X264388D01*
X264405Y34815D01*
X264758Y33963D01*
X265319Y33232D01*
X266050Y32671D01*
X266901Y32318D01*
X267028Y32302D01*
Y34941D01*
D02*
G37*
G36*
X181970Y31693D02*
X179331D01*
Y29054D01*
X179457Y29070D01*
X180308Y29423D01*
X181040Y29984D01*
X181600Y30715D01*
X181953Y31567D01*
X181970Y31693D01*
D02*
G37*
G36*
X177756D02*
X175117D01*
X175133Y31567D01*
X175486Y30715D01*
X176047Y29984D01*
X176778Y29423D01*
X177630Y29070D01*
X177756Y29054D01*
Y31693D01*
D02*
G37*
G36*
X89155Y30807D02*
X86516D01*
Y28168D01*
X86642Y28185D01*
X87493Y28537D01*
X88225Y29098D01*
X88786Y29829D01*
X89138Y30681D01*
X89155Y30807D01*
D02*
G37*
G36*
X84941D02*
X82302D01*
X82318Y30681D01*
X82671Y29829D01*
X83232Y29098D01*
X83963Y28537D01*
X84815Y28185D01*
X84941Y28168D01*
Y30807D01*
D02*
G37*
G36*
X299213Y40052D02*
Y28051D01*
X311214D01*
X311118Y29274D01*
X310647Y31235D01*
X309875Y33098D01*
X308822Y34817D01*
X307512Y36351D01*
X305979Y37660D01*
X304259Y38714D01*
X302396Y39485D01*
X300435Y39956D01*
X299213Y40052D01*
D02*
G37*
G36*
X297638D02*
X296415Y39956D01*
X294454Y39485D01*
X292591Y38714D01*
X290872Y37660D01*
X289338Y36351D01*
X288029Y34817D01*
X286975Y33098D01*
X286204Y31235D01*
X285733Y29274D01*
X285636Y28051D01*
X297638D01*
Y40052D01*
D02*
G37*
G36*
X384646Y37986D02*
Y25984D01*
X396647D01*
X396551Y27207D01*
X396080Y29168D01*
X395308Y31031D01*
X394255Y32750D01*
X392945Y34284D01*
X391412Y35593D01*
X389692Y36647D01*
X387829Y37418D01*
X385869Y37889D01*
X384646Y37986D01*
D02*
G37*
G36*
X383071D02*
X381848Y37889D01*
X379887Y37418D01*
X378024Y36647D01*
X376305Y35593D01*
X374771Y34284D01*
X373462Y32750D01*
X372408Y31031D01*
X371637Y29168D01*
X371166Y27207D01*
X371070Y25984D01*
X383071D01*
Y37986D01*
D02*
G37*
G36*
X243701Y22226D02*
Y19587D01*
X246340D01*
X246323Y19713D01*
X245971Y20564D01*
X245410Y21295D01*
X244678Y21857D01*
X243827Y22209D01*
X243701Y22226D01*
D02*
G37*
G36*
X242126D02*
X242000Y22209D01*
X241148Y21857D01*
X240417Y21295D01*
X239856Y20564D01*
X239504Y19713D01*
X239487Y19587D01*
X242126D01*
Y22226D01*
D02*
G37*
G36*
X138386Y19667D02*
Y17028D01*
X141025D01*
X141008Y17154D01*
X140656Y18005D01*
X140095Y18736D01*
X139364Y19297D01*
X138512Y19650D01*
X138386Y19667D01*
D02*
G37*
G36*
X136811D02*
X136685Y19650D01*
X135833Y19297D01*
X135102Y18736D01*
X134541Y18005D01*
X134188Y17154D01*
X134172Y17028D01*
X136811D01*
Y19667D01*
D02*
G37*
G36*
X246340Y18012D02*
X243701D01*
Y15373D01*
X243827Y15389D01*
X244678Y15742D01*
X245410Y16303D01*
X245971Y17034D01*
X246323Y17886D01*
X246340Y18012D01*
D02*
G37*
G36*
X242126D02*
X239487D01*
X239504Y17886D01*
X239856Y17034D01*
X240417Y16303D01*
X241148Y15742D01*
X242000Y15389D01*
X242126Y15373D01*
Y18012D01*
D02*
G37*
G36*
X311214Y26476D02*
X299213D01*
Y14475D01*
X300435Y14571D01*
X302396Y15042D01*
X304259Y15814D01*
X305979Y16867D01*
X307512Y18177D01*
X308822Y19710D01*
X309875Y21430D01*
X310647Y23293D01*
X311118Y25253D01*
X311214Y26476D01*
D02*
G37*
G36*
X297638D02*
X285636D01*
X285733Y25253D01*
X286204Y23293D01*
X286975Y21430D01*
X288029Y19710D01*
X289338Y18177D01*
X290872Y16867D01*
X292591Y15814D01*
X294454Y15042D01*
X296415Y14571D01*
X297638Y14475D01*
Y26476D01*
D02*
G37*
G36*
X141025Y15453D02*
X138386D01*
Y12814D01*
X138512Y12830D01*
X139364Y13183D01*
X140095Y13744D01*
X140656Y14475D01*
X141008Y15326D01*
X141025Y15453D01*
D02*
G37*
G36*
X136811D02*
X134172D01*
X134188Y15326D01*
X134541Y14475D01*
X135102Y13744D01*
X135833Y13183D01*
X136685Y12830D01*
X136811Y12814D01*
Y15453D01*
D02*
G37*
G36*
X355512Y38048D02*
X353502Y37889D01*
X351541Y37418D01*
X349678Y36647D01*
X347958Y35593D01*
X346425Y34284D01*
X345115Y32750D01*
X344062Y31031D01*
X343290Y29168D01*
X342819Y27207D01*
X342661Y25197D01*
X342819Y23187D01*
X343290Y21226D01*
X344062Y19363D01*
X345115Y17643D01*
X346425Y16110D01*
X347958Y14800D01*
X349678Y13747D01*
X351541Y12975D01*
X353502Y12504D01*
X355512Y12346D01*
X357522Y12504D01*
X359483Y12975D01*
X361346Y13747D01*
X363065Y14800D01*
X364599Y16110D01*
X365908Y17643D01*
X366962Y19363D01*
X367734Y21226D01*
X368204Y23187D01*
X368362Y25197D01*
X368204Y27207D01*
X367734Y29168D01*
X366962Y31031D01*
X365908Y32750D01*
X364599Y34284D01*
X363065Y35593D01*
X361346Y36647D01*
X359483Y37418D01*
X357522Y37889D01*
X355512Y38048D01*
D02*
G37*
G36*
X317618Y13663D02*
Y11024D01*
X320257D01*
X320241Y11150D01*
X319888Y12001D01*
X319327Y12732D01*
X318596Y13294D01*
X317744Y13646D01*
X317618Y13663D01*
D02*
G37*
G36*
X316043D02*
X315917Y13646D01*
X315066Y13294D01*
X314335Y12732D01*
X313773Y12001D01*
X313421Y11150D01*
X313404Y11024D01*
X316043D01*
Y13663D01*
D02*
G37*
G36*
X369587Y12974D02*
Y10335D01*
X372226D01*
X372209Y10461D01*
X371856Y11312D01*
X371295Y12043D01*
X370564Y12605D01*
X369713Y12957D01*
X369587Y12974D01*
D02*
G37*
G36*
X368012D02*
X367885Y12957D01*
X367034Y12605D01*
X366303Y12043D01*
X365742Y11312D01*
X365389Y10461D01*
X365373Y10335D01*
X368012D01*
Y12974D01*
D02*
G37*
G36*
X46457D02*
Y10335D01*
X49096D01*
X49079Y10461D01*
X48726Y11312D01*
X48166Y12043D01*
X47434Y12605D01*
X46583Y12957D01*
X46457Y12974D01*
D02*
G37*
G36*
X44882D02*
X44756Y12957D01*
X43904Y12605D01*
X43173Y12043D01*
X42612Y11312D01*
X42259Y10461D01*
X42243Y10335D01*
X44882D01*
Y12974D01*
D02*
G37*
G36*
X396647Y24409D02*
X383858D01*
X371070D01*
X371166Y23187D01*
X371637Y21226D01*
X372408Y19363D01*
X373462Y17643D01*
X374771Y16110D01*
X376305Y14800D01*
X378024Y13747D01*
X379887Y12975D01*
X381848Y12504D01*
X383645Y12363D01*
X383761Y12186D01*
X383856Y11860D01*
X383360Y11214D01*
X383007Y10362D01*
X382991Y10236D01*
X389844D01*
X389827Y10362D01*
X389475Y11214D01*
X388914Y11945D01*
X388182Y12506D01*
X388093Y12543D01*
Y13084D01*
X389692Y13747D01*
X391412Y14800D01*
X392945Y16110D01*
X394255Y17643D01*
X395308Y19363D01*
X396080Y21226D01*
X396551Y23187D01*
X396647Y24409D01*
D02*
G37*
G36*
X320257Y9449D02*
X317618D01*
Y6810D01*
X317744Y6826D01*
X318596Y7179D01*
X319327Y7740D01*
X319888Y8471D01*
X320241Y9323D01*
X320257Y9449D01*
D02*
G37*
G36*
X316043D02*
X313404D01*
X313421Y9323D01*
X313773Y8471D01*
X314335Y7740D01*
X315066Y7179D01*
X315917Y6826D01*
X316043Y6810D01*
Y9449D01*
D02*
G37*
G36*
X372226Y8760D02*
X369587D01*
Y6121D01*
X369713Y6137D01*
X370564Y6490D01*
X371295Y7051D01*
X371856Y7782D01*
X372209Y8634D01*
X372226Y8760D01*
D02*
G37*
G36*
X368012D02*
X365373D01*
X365389Y8634D01*
X365742Y7782D01*
X366303Y7051D01*
X367034Y6490D01*
X367885Y6137D01*
X368012Y6121D01*
Y8760D01*
D02*
G37*
G36*
X49096D02*
X46457D01*
Y6121D01*
X46583Y6137D01*
X47434Y6490D01*
X48166Y7051D01*
X48726Y7782D01*
X49079Y8634D01*
X49096Y8760D01*
D02*
G37*
G36*
X44882D02*
X42243D01*
X42259Y8634D01*
X42612Y7782D01*
X43173Y7051D01*
X43904Y6490D01*
X44756Y6137D01*
X44882Y6121D01*
Y8760D01*
D02*
G37*
G36*
X389844Y8661D02*
X387205D01*
Y6022D01*
X387331Y6039D01*
X388182Y6392D01*
X388914Y6953D01*
X389475Y7684D01*
X389827Y8535D01*
X389844Y8661D01*
D02*
G37*
G36*
X385630D02*
X382991D01*
X383007Y8535D01*
X383360Y7684D01*
X383921Y6953D01*
X384652Y6392D01*
X385504Y6039D01*
X385630Y6022D01*
Y8661D01*
D02*
G37*
%LPD*%
D45*
X358268Y62894D02*
Y104642D01*
X326035Y136874D02*
X358268Y104642D01*
X305819Y136874D02*
X326035D01*
D50*
X253937Y185039D02*
D03*
Y156693D02*
D03*
X42913Y206201D02*
D03*
X71260D02*
D03*
X240945Y49803D02*
D03*
Y78150D02*
D03*
X205807Y218406D02*
D03*
X177461D02*
D03*
X42913Y163287D02*
D03*
X71260D02*
D03*
X298425Y27264D02*
D03*
Y55610D02*
D03*
X383858Y25197D02*
D03*
X355512D02*
D03*
D51*
X37402Y224410D02*
D03*
X346457Y159449D02*
D03*
X124016Y210630D02*
D03*
X17717Y155512D02*
D03*
Y94488D02*
D03*
X15748Y59055D02*
D03*
X211516Y193602D02*
D03*
X193110Y239370D02*
D03*
X233563Y219980D02*
D03*
X102756Y164862D02*
D03*
X123425Y156201D02*
D03*
X156201Y193012D02*
D03*
X198130Y189567D02*
D03*
X205020Y137303D02*
D03*
X137598Y16240D02*
D03*
X122835Y87894D02*
D03*
X85728Y31594D02*
D03*
X45669Y9547D02*
D03*
X29823Y123917D02*
D03*
X54528Y184547D02*
D03*
X55216Y221752D02*
D03*
X27067Y184744D02*
D03*
X61614Y236319D02*
D03*
X228740Y168898D02*
D03*
X386417Y9449D02*
D03*
X409449Y37303D02*
D03*
X17913Y31594D02*
D03*
X110531Y115059D02*
D03*
X175295Y115354D02*
D03*
X280413Y174409D02*
D03*
X318110Y81299D02*
D03*
X358268Y48819D02*
D03*
X333858Y53051D02*
D03*
X312894Y42421D02*
D03*
X368799Y9547D02*
D03*
X415650Y54134D02*
D03*
X385039Y52854D02*
D03*
X316831Y10236D02*
D03*
X178543Y32480D02*
D03*
X206594Y36024D02*
D03*
X270669Y61516D02*
D03*
X267815Y35728D02*
D03*
X242913Y18799D02*
D03*
X254035Y211319D02*
D03*
X231102Y195965D02*
D03*
X358268Y62894D02*
D03*
X42717Y141732D02*
D03*
X90847Y232874D02*
D03*
X125295Y244094D02*
D03*
X220472Y234252D02*
D03*
X145669Y141732D02*
D03*
X228543Y144587D02*
D03*
X269685Y236221D02*
D03*
X307087Y234252D02*
D03*
X376181Y229528D02*
D03*
X415354Y202756D02*
D03*
X287402Y204724D02*
D03*
X324803Y200787D02*
D03*
X309055Y165354D02*
D03*
X379921Y196850D02*
D03*
X409449Y110236D02*
D03*
X364173Y104331D02*
D03*
X267224Y98524D02*
D03*
X283465Y86614D02*
D03*
X293307Y94488D02*
D03*
Y105610D02*
D03*
X314961Y104331D02*
D03*
X320866Y129921D02*
D03*
X283465Y147638D02*
D03*
X271063Y135138D02*
D03*
X271654Y120079D02*
D03*
X67028Y137697D02*
D03*
X104331Y137795D02*
D03*
X66437Y114272D02*
D03*
X101772Y199705D02*
D03*
X305819Y136874D02*
D03*
M02*
