%TF.GenerationSoftware,Altium Limited,Altium Designer,19.1.8 (144)*%
G04 Layer_Color=32768*
%FSLAX26Y26*%
%MOIN*%
%TF.FileFunction,Other,Mechanical_15*%
%TF.Part,Single*%
G01*
G75*
%TA.AperFunction,NonConductor*%
%ADD37C,0.003937*%
%ADD52C,0.001968*%
D37*
X1161417Y1334646D02*
Y1460630D01*
Y1334646D02*
X1417323D01*
Y1460630D01*
X1161417D02*
X1417323D01*
X1567913Y1358268D02*
X2237205D01*
X1567913D02*
Y1870079D01*
X2237205D01*
Y1358268D02*
Y1870079D01*
X2816772Y1312638D02*
Y1352008D01*
X2797087Y1332323D02*
X2836457D01*
X2886772Y1312638D02*
Y1352008D01*
X2867087Y1332323D02*
X2906457D01*
X2826772Y1132638D02*
Y1172008D01*
X2807087Y1152323D02*
X2846457D01*
X296260Y47244D02*
Y1110236D01*
X1654527D01*
Y47244D02*
Y1110236D01*
X296260Y47244D02*
X1654527D01*
X4271654Y708661D02*
Y1692913D01*
X3326772Y708661D02*
X4271654D01*
X3326772D02*
Y1692913D01*
X4271654D01*
X2732087Y1002323D02*
X2771457D01*
X2751772Y982638D02*
Y1022008D01*
X2807087Y1003740D02*
X2846457D01*
X2826772Y984055D02*
Y1023425D01*
X3479252Y577913D02*
X3518622D01*
X3498937Y558228D02*
Y597598D01*
X3404252Y577913D02*
X3443622D01*
X3423937Y558228D02*
Y597598D01*
X3071772Y1277638D02*
Y1317008D01*
X3052087Y1297323D02*
X3091457D01*
X3237087Y1167323D02*
X3276457D01*
X3256772Y1147638D02*
Y1187008D01*
D52*
X2781339Y1399252D02*
X2852205D01*
X2781339Y1265394D02*
X2852205D01*
Y1399252D01*
X2781339Y1265394D02*
Y1399252D01*
X2851339D02*
X2922205D01*
X2851339Y1265394D02*
X2922205D01*
Y1399252D01*
X2851339Y1265394D02*
Y1399252D01*
X2791339Y1085394D02*
X2862205D01*
X2791339Y1219252D02*
X2862205D01*
X2791339Y1085394D02*
Y1219252D01*
X2862205Y1085394D02*
Y1219252D01*
X2714370Y935394D02*
Y1069252D01*
X2789173Y935394D02*
Y1069252D01*
X2714370Y935394D02*
X2789173D01*
X2714370Y1069252D02*
X2789173D01*
X2789370Y936811D02*
Y1070669D01*
X2864173Y936811D02*
Y1070669D01*
X2789370Y936811D02*
X2864173D01*
X2789370Y1070669D02*
X2864173D01*
X3461535Y510984D02*
Y644842D01*
X3536339Y510984D02*
Y644842D01*
X3461535Y510984D02*
X3536339D01*
X3461535Y644842D02*
X3536339D01*
X3386535Y510984D02*
Y644842D01*
X3461339Y510984D02*
Y644842D01*
X3386535Y510984D02*
X3461339D01*
X3386535Y644842D02*
X3461339D01*
X3004843Y1259921D02*
X3138701D01*
X3004843Y1334724D02*
X3138701D01*
Y1259921D02*
Y1334724D01*
X3004843Y1259921D02*
Y1334724D01*
X3219370Y1100394D02*
Y1234252D01*
X3294173Y1100394D02*
Y1234252D01*
X3219370Y1100394D02*
X3294173D01*
X3219370Y1234252D02*
X3294173D01*
%TF.MD5,2b968baa7eb22a6ed810495feeed28a4*%
M02*
