%TF.GenerationSoftware,Altium Limited,Altium Designer,19.1.8 (144)*%
G04 Layer_Color=8421504*
%FSLAX26Y26*%
%MOIN*%
%TF.FileFunction,Paste,Top*%
%TF.Part,Single*%
G01*
G75*
%TA.AperFunction,SMDPad,CuDef*%
%ADD10R,0.059055X0.059843*%
%ADD11R,0.122047X0.086614*%
%ADD12R,0.057087X0.017716*%
%ADD13R,0.200000X0.327953*%
%ADD14R,0.075197X0.425197*%
%ADD15R,0.085039X0.042126*%
%ADD16R,0.051181X0.041339*%
%ADD17R,0.200787X0.700787*%
%ADD18R,0.216535X0.275591*%
%ADD19R,0.055118X0.041339*%
%ADD20R,0.078740X0.161417*%
%ADD21R,0.041339X0.055118*%
D10*
X1366142Y1397638D02*
D03*
D11*
X1240158D02*
D03*
D12*
X2973543Y1132323D02*
D03*
Y1157913D02*
D03*
Y1183504D02*
D03*
Y1209094D02*
D03*
X3146772D02*
D03*
Y1183504D02*
D03*
Y1157913D02*
D03*
Y1132323D02*
D03*
D13*
X2028543Y1618110D02*
D03*
D14*
X2162401D02*
D03*
D15*
X1646653Y1484252D02*
D03*
Y1551181D02*
D03*
Y1618110D02*
D03*
Y1685039D02*
D03*
Y1751968D02*
D03*
D16*
X2816772Y1368740D02*
D03*
Y1295906D02*
D03*
X2886772Y1368740D02*
D03*
Y1295906D02*
D03*
X2826772Y1115906D02*
D03*
Y1188740D02*
D03*
D17*
X434055Y578740D02*
D03*
X1536417D02*
D03*
D18*
X3799213Y1525591D02*
D03*
Y875984D02*
D03*
D19*
X2751772Y965905D02*
D03*
Y1038740D02*
D03*
X2826772Y967323D02*
D03*
Y1040157D02*
D03*
X3498937Y541496D02*
D03*
Y614331D02*
D03*
X3423937Y541496D02*
D03*
Y614331D02*
D03*
X3256772Y1130906D02*
D03*
Y1203740D02*
D03*
D20*
X1931102Y939961D02*
D03*
Y597441D02*
D03*
X1253937Y1934055D02*
D03*
Y2276575D02*
D03*
D21*
X3108189Y1297323D02*
D03*
X3035354D02*
D03*
%TF.MD5,a37aca50c9d4ec4834928ff0a70a2a60*%
M02*
