%TF.GenerationSoftware,Altium Limited,Altium Designer,19.1.8 (144)*%
G04 Layer_Color=0*
%FSLAX26Y26*%
%MOIN*%
%TF.FileFunction,Plated,1,2,PTH,Drill*%
%TF.Part,Single*%
G01*
G75*
%TA.AperFunction,ComponentDrill*%
%ADD54C,0.177165*%
%ADD55C,0.177165*%
%TA.AperFunction,OtherDrill,Free Pad (157.48mil,2342.52mil)*%
%ADD56C,0.157480*%
%TA.AperFunction,OtherDrill,Free Pad (157.48mil,157.48mil)*%
%ADD57C,0.157480*%
%TA.AperFunction,OtherDrill,Free Pad (4153.543mil,157.48mil)*%
%ADD58C,0.157480*%
%TA.AperFunction,OtherDrill,Free Pad (4153.543mil,2342.52mil)*%
%ADD59C,0.157480*%
%TA.AperFunction,ViaDrill,NotFilled*%
%ADD60C,0.027992*%
%ADD61C,0.028000*%
D54*
X2539370Y1850394D02*
D03*
Y1566929D02*
D03*
X2409449Y498031D02*
D03*
Y781496D02*
D03*
X2984252Y272638D02*
D03*
Y556102D02*
D03*
D55*
X429134Y2062008D02*
D03*
X712598D02*
D03*
X2058071Y2184055D02*
D03*
X1774606D02*
D03*
X429134Y1632874D02*
D03*
X712598D02*
D03*
X3838583Y251969D02*
D03*
X3555118D02*
D03*
D56*
X157480Y2342520D02*
D03*
D57*
Y157480D02*
D03*
D58*
X4153543D02*
D03*
D59*
Y2342520D02*
D03*
D60*
X374016Y2244095D02*
D03*
X3464567Y1594488D02*
D03*
X1240158Y2106299D02*
D03*
X177165Y1555118D02*
D03*
Y944882D02*
D03*
X157480Y590551D02*
D03*
X2115157Y1936024D02*
D03*
X1931102Y2393701D02*
D03*
X2335630Y2199803D02*
D03*
X1027559Y1648622D02*
D03*
X1234252Y1562008D02*
D03*
X1562008Y1930118D02*
D03*
X1981299Y1895669D02*
D03*
X2050197Y1373032D02*
D03*
X1375984Y162402D02*
D03*
X1228347Y878937D02*
D03*
X857284Y315945D02*
D03*
X456693Y95472D02*
D03*
X298228Y1239173D02*
D03*
X545276Y1845472D02*
D03*
X552165Y2217520D02*
D03*
X270669Y1847441D02*
D03*
X616142Y2363189D02*
D03*
X2287402Y1688976D02*
D03*
X3864173Y94488D02*
D03*
X4094488Y373031D02*
D03*
X179134Y315945D02*
D03*
X1105315Y1150591D02*
D03*
X1752953Y1153543D02*
D03*
X2804134Y1744094D02*
D03*
X3181102Y812992D02*
D03*
X3582677Y488189D02*
D03*
X3338583Y530512D02*
D03*
X3128937Y424213D02*
D03*
X3687992Y95472D02*
D03*
X4156496Y541339D02*
D03*
X3850394Y528543D02*
D03*
X3168307Y102362D02*
D03*
X1785433Y324803D02*
D03*
X2065945Y360236D02*
D03*
X2706693Y615158D02*
D03*
X2678150Y357284D02*
D03*
X2429134Y187992D02*
D03*
X2540354Y2113189D02*
D03*
X2311024Y1959646D02*
D03*
X427165Y1417323D02*
D03*
X908465Y2328740D02*
D03*
X1252953Y2440945D02*
D03*
X2204724Y2342520D02*
D03*
X1456693Y1417323D02*
D03*
X2285433Y1445866D02*
D03*
X2696850Y2362205D02*
D03*
X3070866Y2342520D02*
D03*
X3761811Y2295276D02*
D03*
X4153543Y2027559D02*
D03*
X2874016Y2047244D02*
D03*
X3248032Y2007874D02*
D03*
X3090551Y1653543D02*
D03*
X3799213Y1968504D02*
D03*
X4094488Y1102362D02*
D03*
X3641732Y1043307D02*
D03*
X2672244Y985236D02*
D03*
X2834646Y866142D02*
D03*
X2933071Y944882D02*
D03*
Y1056102D02*
D03*
X3149606Y1043307D02*
D03*
X3208661Y1299213D02*
D03*
X2834646Y1476378D02*
D03*
X2710630Y1351378D02*
D03*
X2716535Y1200787D02*
D03*
X670276Y1376968D02*
D03*
X1043307Y1377953D02*
D03*
X664370Y1142716D02*
D03*
X1017717Y1997047D02*
D03*
D61*
X3582677Y628937D02*
D03*
X3058189Y1368740D02*
D03*
%TF.MD5,95ddc67b3e37f895b56a914bea91f09d*%
M02*
