G04*
G04 #@! TF.GenerationSoftware,Altium Limited,Altium Designer,19.1.8 (144)*
G04*
G04 Layer_Color=65535*
%FSLAX25Y25*%
%MOIN*%
G70*
G01*
G75*
%ADD10C,0.01000*%
%ADD11C,0.03937*%
%ADD12C,0.00394*%
%ADD13C,0.00787*%
%ADD14C,0.00591*%
G36*
X343345Y227816D02*
X345099D01*
Y227524D01*
X346852D01*
Y227231D01*
X348606D01*
Y226939D01*
X350360D01*
Y226647D01*
X352113D01*
Y226355D01*
X350360D01*
Y226062D01*
X348606D01*
Y225770D01*
X346852D01*
Y225478D01*
X345099D01*
Y225185D01*
X343345D01*
Y224893D01*
X342761D01*
Y225185D01*
X341007D01*
Y225478D01*
X339253D01*
Y225770D01*
X337500D01*
Y226062D01*
X335746D01*
Y226355D01*
X333993D01*
Y226647D01*
X335746D01*
Y226939D01*
X337500D01*
Y227231D01*
X339253D01*
Y227524D01*
X341007D01*
Y227816D01*
X342761D01*
Y228108D01*
X343345D01*
Y227816D01*
D02*
G37*
G36*
X359420Y221094D02*
X359128D01*
Y220801D01*
X358836D01*
Y220509D01*
X358543D01*
Y220217D01*
X358251D01*
Y219925D01*
X357959D01*
Y219632D01*
Y219340D01*
X357666D01*
Y219048D01*
X357374D01*
Y218756D01*
X357082D01*
Y218463D01*
X356790D01*
Y218171D01*
X356497D01*
Y217879D01*
Y217586D01*
X356205D01*
Y217294D01*
X355913D01*
Y217002D01*
X355621D01*
Y216710D01*
X355328D01*
Y216417D01*
X355036D01*
Y216125D01*
Y215833D01*
X354744D01*
Y215541D01*
X354451D01*
Y215248D01*
X354159D01*
Y214956D01*
X353867D01*
Y214664D01*
X353575D01*
Y214371D01*
Y214079D01*
X353282D01*
Y213787D01*
X352990D01*
Y213495D01*
X352698D01*
Y213202D01*
Y212910D01*
Y212618D01*
X352406D01*
Y212326D01*
Y212033D01*
X352113D01*
Y211741D01*
Y211449D01*
Y211156D01*
X351821D01*
Y210864D01*
Y210572D01*
X351529D01*
Y210280D01*
Y209987D01*
Y209695D01*
X351237D01*
Y209403D01*
Y209110D01*
X350944D01*
Y208818D01*
Y208526D01*
Y208234D01*
X350652D01*
Y207941D01*
Y207649D01*
X350360D01*
Y207357D01*
Y207065D01*
Y206772D01*
X350067D01*
Y206480D01*
Y206188D01*
X349775D01*
Y205895D01*
Y205603D01*
Y205311D01*
X349483D01*
Y205019D01*
Y204726D01*
X349191D01*
Y204434D01*
Y204142D01*
Y203850D01*
X348898D01*
Y203557D01*
Y203265D01*
X348606D01*
Y202973D01*
Y202680D01*
Y202388D01*
X348314D01*
Y202096D01*
Y201804D01*
X348022D01*
Y201512D01*
Y201219D01*
Y200927D01*
X347729D01*
Y201219D01*
Y201512D01*
Y201804D01*
Y202096D01*
Y202388D01*
Y202680D01*
X348022D01*
Y202973D01*
Y203265D01*
Y203557D01*
Y203850D01*
Y204142D01*
Y204434D01*
X348314D01*
Y204726D01*
Y205019D01*
Y205311D01*
Y205603D01*
Y205895D01*
Y206188D01*
X348606D01*
Y206480D01*
Y206772D01*
Y207065D01*
Y207357D01*
Y207649D01*
X348898D01*
Y207941D01*
Y208234D01*
Y208526D01*
Y208818D01*
Y209110D01*
Y209403D01*
X349191D01*
Y209695D01*
Y209987D01*
Y210280D01*
Y210572D01*
Y210864D01*
Y211156D01*
X349483D01*
Y211449D01*
Y211741D01*
Y212033D01*
Y212326D01*
Y212618D01*
Y212910D01*
X349775D01*
Y213202D01*
Y213495D01*
Y213787D01*
Y214079D01*
Y214371D01*
Y214664D01*
X350067D01*
Y214956D01*
Y215248D01*
Y215541D01*
Y215833D01*
X350652D01*
Y216125D01*
X350944D01*
Y216417D01*
X351529D01*
Y216710D01*
X351821D01*
Y217002D01*
X352406D01*
Y217294D01*
X352698D01*
Y217586D01*
X353282D01*
Y217879D01*
X353867D01*
Y218171D01*
X354159D01*
Y218463D01*
X354744D01*
Y218756D01*
X355036D01*
Y219048D01*
X355621D01*
Y219340D01*
X355913D01*
Y219632D01*
X356497D01*
Y219925D01*
X357082D01*
Y220217D01*
X357374D01*
Y220509D01*
X357959D01*
Y220801D01*
X358251D01*
Y221094D01*
X358836D01*
Y221386D01*
X359420D01*
Y221094D01*
D02*
G37*
G36*
X327270D02*
X327855D01*
Y220801D01*
X328147D01*
Y220509D01*
X328732D01*
Y220217D01*
X329024D01*
Y219925D01*
X329608D01*
Y219632D01*
X329901D01*
Y219340D01*
X330485D01*
Y219048D01*
X331070D01*
Y218756D01*
X331362D01*
Y218463D01*
X331947D01*
Y218171D01*
X332239D01*
Y217879D01*
X332823D01*
Y217586D01*
X333116D01*
Y217294D01*
X333700D01*
Y217002D01*
X334285D01*
Y216710D01*
X334577D01*
Y216417D01*
X335162D01*
Y216125D01*
X335454D01*
Y215833D01*
X336038D01*
Y215541D01*
Y215248D01*
Y214956D01*
Y214664D01*
X336331D01*
Y214371D01*
Y214079D01*
Y213787D01*
Y213495D01*
Y213202D01*
Y212910D01*
X336623D01*
Y212618D01*
Y212326D01*
Y212033D01*
Y211741D01*
Y211449D01*
Y211156D01*
X336915D01*
Y210864D01*
Y210572D01*
Y210280D01*
Y209987D01*
Y209695D01*
Y209403D01*
X337208D01*
Y209110D01*
Y208818D01*
Y208526D01*
Y208234D01*
Y207941D01*
Y207649D01*
X337500D01*
Y207357D01*
Y207065D01*
Y206772D01*
Y206480D01*
Y206188D01*
Y205895D01*
X337792D01*
Y205603D01*
Y205311D01*
Y205019D01*
Y204726D01*
Y204434D01*
Y204142D01*
X338084D01*
Y203850D01*
Y203557D01*
Y203265D01*
Y202973D01*
Y202680D01*
Y202388D01*
X338377D01*
Y202096D01*
Y201804D01*
Y201512D01*
Y201219D01*
Y200927D01*
X338084D01*
Y201219D01*
Y201512D01*
X337792D01*
Y201804D01*
Y202096D01*
Y202388D01*
X337500D01*
Y202680D01*
Y202973D01*
X337208D01*
Y203265D01*
Y203557D01*
Y203850D01*
X336915D01*
Y204142D01*
Y204434D01*
X336623D01*
Y204726D01*
Y205019D01*
Y205311D01*
X336331D01*
Y205603D01*
Y205895D01*
X336038D01*
Y206188D01*
Y206480D01*
Y206772D01*
X335746D01*
Y207065D01*
Y207357D01*
X335454D01*
Y207649D01*
Y207941D01*
Y208234D01*
X335162D01*
Y208526D01*
Y208818D01*
X334869D01*
Y209110D01*
Y209403D01*
Y209695D01*
X334577D01*
Y209987D01*
Y210280D01*
X334285D01*
Y210572D01*
Y210864D01*
Y211156D01*
X333993D01*
Y211449D01*
Y211741D01*
X333700D01*
Y212033D01*
Y212326D01*
Y212618D01*
X333408D01*
Y212910D01*
Y213202D01*
X333116D01*
Y213495D01*
Y213787D01*
X332823D01*
Y214079D01*
X332531D01*
Y214371D01*
Y214664D01*
X332239D01*
Y214956D01*
X331947D01*
Y215248D01*
X331654D01*
Y215541D01*
X331362D01*
Y215833D01*
X331070D01*
Y216125D01*
Y216417D01*
X330778D01*
Y216710D01*
X330485D01*
Y217002D01*
X330193D01*
Y217294D01*
X329901D01*
Y217586D01*
X329608D01*
Y217879D01*
Y218171D01*
X329316D01*
Y218463D01*
X329024D01*
Y218756D01*
X328732D01*
Y219048D01*
X328439D01*
Y219340D01*
X328147D01*
Y219632D01*
Y219925D01*
X327855D01*
Y220217D01*
X327562D01*
Y220509D01*
X327270D01*
Y220801D01*
X326978D01*
Y221094D01*
X326686D01*
Y221386D01*
X327270D01*
Y221094D01*
D02*
G37*
G36*
X358543Y224601D02*
X357959D01*
Y224309D01*
X357666D01*
Y224016D01*
X357082D01*
Y223724D01*
X356790D01*
Y223432D01*
X356205D01*
Y223140D01*
X355913D01*
Y222847D01*
X355328D01*
Y222555D01*
X355036D01*
Y222263D01*
X354451D01*
Y221971D01*
X354159D01*
Y221678D01*
X353575D01*
Y221386D01*
X352990D01*
Y221094D01*
X352698D01*
Y220801D01*
X352113D01*
Y220509D01*
X351821D01*
Y220217D01*
X351237D01*
Y219925D01*
X350944D01*
Y219632D01*
X350360D01*
Y219340D01*
X350067D01*
Y219048D01*
X349483D01*
Y218756D01*
X349191D01*
Y218463D01*
X348606D01*
Y218171D01*
X348314D01*
Y217879D01*
X347729D01*
Y217586D01*
Y217294D01*
Y217002D01*
X347437D01*
Y216710D01*
Y216417D01*
Y216125D01*
Y215833D01*
Y215541D01*
Y215248D01*
X347145D01*
Y214956D01*
Y214664D01*
Y214371D01*
Y214079D01*
Y213787D01*
Y213495D01*
Y213202D01*
X346852D01*
Y212910D01*
Y212618D01*
Y212326D01*
Y212033D01*
Y211741D01*
Y211449D01*
X346560D01*
Y211156D01*
Y210864D01*
Y210572D01*
Y210280D01*
Y209987D01*
Y209695D01*
X346268D01*
Y209403D01*
Y209110D01*
Y208818D01*
Y208526D01*
Y208234D01*
Y207941D01*
Y207649D01*
X345976D01*
Y207357D01*
Y207065D01*
Y206772D01*
Y206480D01*
Y206188D01*
Y205895D01*
X345683D01*
Y205603D01*
Y205311D01*
Y205019D01*
Y204726D01*
Y204434D01*
Y204142D01*
Y203850D01*
X345391D01*
Y203557D01*
Y203265D01*
Y202973D01*
Y202680D01*
Y202388D01*
Y202096D01*
X345099D01*
Y201804D01*
Y201512D01*
Y201219D01*
Y200927D01*
Y200635D01*
Y200342D01*
X344807D01*
Y200050D01*
Y199758D01*
Y199466D01*
Y199173D01*
Y198881D01*
Y198589D01*
Y198296D01*
X344514D01*
Y198004D01*
Y197712D01*
Y197420D01*
Y197127D01*
Y196835D01*
Y196543D01*
X344222D01*
Y196835D01*
Y197127D01*
Y197420D01*
Y197712D01*
Y198004D01*
Y198296D01*
Y198589D01*
Y198881D01*
Y199173D01*
Y199466D01*
Y199758D01*
Y200050D01*
Y200342D01*
Y200635D01*
Y200927D01*
Y201219D01*
Y201512D01*
Y201804D01*
Y202096D01*
Y202388D01*
Y202680D01*
Y202973D01*
Y203265D01*
Y203557D01*
Y203850D01*
Y204142D01*
Y204434D01*
Y204726D01*
Y205019D01*
Y205311D01*
Y205603D01*
Y205895D01*
Y206188D01*
Y206480D01*
Y206772D01*
Y207065D01*
Y207357D01*
Y207649D01*
Y207941D01*
Y208234D01*
Y208526D01*
Y208818D01*
Y209110D01*
Y209403D01*
Y209695D01*
Y209987D01*
Y210280D01*
Y210572D01*
Y210864D01*
Y211156D01*
Y211449D01*
Y211741D01*
Y212033D01*
Y212326D01*
Y212618D01*
Y212910D01*
Y213202D01*
Y213495D01*
Y213787D01*
Y214079D01*
Y214371D01*
Y214664D01*
Y214956D01*
Y215248D01*
Y215541D01*
Y215833D01*
Y216125D01*
Y216417D01*
Y216710D01*
Y217002D01*
Y217294D01*
Y217586D01*
Y217879D01*
Y218171D01*
Y218463D01*
Y218756D01*
Y219048D01*
Y219340D01*
Y219632D01*
Y219925D01*
Y220217D01*
Y220509D01*
Y220801D01*
Y221094D01*
Y221386D01*
Y221678D01*
Y221971D01*
Y222263D01*
Y222555D01*
X344514D01*
Y222847D01*
X346268D01*
Y223140D01*
X348022D01*
Y223432D01*
X349775D01*
Y223724D01*
X351529D01*
Y224016D01*
X353282D01*
Y224309D01*
X355328D01*
Y224601D01*
X357082D01*
Y224893D01*
X358543D01*
Y224601D01*
D02*
G37*
G36*
X329024D02*
X330778D01*
Y224309D01*
X332531D01*
Y224016D01*
X334577D01*
Y223724D01*
X336331D01*
Y223432D01*
X338084D01*
Y223140D01*
X339838D01*
Y222847D01*
X341592D01*
Y222555D01*
X341884D01*
Y222263D01*
Y221971D01*
Y221678D01*
Y221386D01*
Y221094D01*
Y220801D01*
Y220509D01*
Y220217D01*
Y219925D01*
Y219632D01*
Y219340D01*
Y219048D01*
Y218756D01*
Y218463D01*
Y218171D01*
Y217879D01*
Y217586D01*
Y217294D01*
Y217002D01*
Y216710D01*
Y216417D01*
Y216125D01*
Y215833D01*
Y215541D01*
Y215248D01*
Y214956D01*
Y214664D01*
Y214371D01*
Y214079D01*
Y213787D01*
Y213495D01*
Y213202D01*
Y212910D01*
Y212618D01*
Y212326D01*
Y212033D01*
Y211741D01*
Y211449D01*
Y211156D01*
Y210864D01*
Y210572D01*
Y210280D01*
Y209987D01*
Y209695D01*
Y209403D01*
Y209110D01*
Y208818D01*
Y208526D01*
Y208234D01*
Y207941D01*
Y207649D01*
Y207357D01*
Y207065D01*
Y206772D01*
Y206480D01*
Y206188D01*
Y205895D01*
Y205603D01*
Y205311D01*
Y205019D01*
Y204726D01*
Y204434D01*
Y204142D01*
Y203850D01*
Y203557D01*
Y203265D01*
Y202973D01*
Y202680D01*
Y202388D01*
Y202096D01*
Y201804D01*
Y201512D01*
Y201219D01*
Y200927D01*
Y200635D01*
Y200342D01*
Y200050D01*
Y199758D01*
Y199466D01*
Y199173D01*
Y198881D01*
Y198589D01*
Y198296D01*
Y198004D01*
Y197712D01*
Y197420D01*
Y197127D01*
Y196835D01*
Y196543D01*
Y196251D01*
X341592D01*
Y196543D01*
Y196835D01*
Y197127D01*
Y197420D01*
Y197712D01*
Y198004D01*
Y198296D01*
X341299D01*
Y198589D01*
Y198881D01*
Y199173D01*
Y199466D01*
Y199758D01*
Y200050D01*
X341007D01*
Y200342D01*
Y200635D01*
Y200927D01*
Y201219D01*
Y201512D01*
Y201804D01*
Y202096D01*
X340715D01*
Y202388D01*
Y202680D01*
Y202973D01*
Y203265D01*
Y203557D01*
Y203850D01*
X340423D01*
Y204142D01*
Y204434D01*
Y204726D01*
Y205019D01*
Y205311D01*
Y205603D01*
X340130D01*
Y205895D01*
Y206188D01*
Y206480D01*
Y206772D01*
Y207065D01*
Y207357D01*
Y207649D01*
X339838D01*
Y207941D01*
Y208234D01*
Y208526D01*
Y208818D01*
Y209110D01*
Y209403D01*
X339546D01*
Y209695D01*
Y209987D01*
Y210280D01*
Y210572D01*
Y210864D01*
Y211156D01*
Y211449D01*
X339253D01*
Y211741D01*
Y212033D01*
Y212326D01*
Y212618D01*
Y212910D01*
Y213202D01*
X338961D01*
Y213495D01*
Y213787D01*
Y214079D01*
Y214371D01*
Y214664D01*
Y214956D01*
X338669D01*
Y215248D01*
Y215541D01*
Y215833D01*
Y216125D01*
Y216417D01*
Y216710D01*
Y217002D01*
X338377D01*
Y217294D01*
Y217586D01*
Y217879D01*
X337792D01*
Y218171D01*
X337500D01*
Y218463D01*
X336915D01*
Y218756D01*
X336623D01*
Y219048D01*
X336038D01*
Y219340D01*
X335746D01*
Y219632D01*
X335162D01*
Y219925D01*
X334869D01*
Y220217D01*
X334285D01*
Y220509D01*
X333700D01*
Y220801D01*
X333408D01*
Y221094D01*
X332823D01*
Y221386D01*
X332531D01*
Y221678D01*
X331947D01*
Y221971D01*
X331654D01*
Y222263D01*
X331070D01*
Y222555D01*
X330778D01*
Y222847D01*
X330193D01*
Y223140D01*
X329901D01*
Y223432D01*
X329316D01*
Y223724D01*
X329024D01*
Y224016D01*
X328439D01*
Y224309D01*
X328147D01*
Y224601D01*
X327562D01*
Y224893D01*
X329024D01*
Y224601D01*
D02*
G37*
G36*
X349566Y191163D02*
X349624D01*
X349763Y191149D01*
X349916Y191127D01*
X350076Y191090D01*
X350251Y191047D01*
X350419Y190988D01*
X350426D01*
X350441Y190981D01*
X350462Y190974D01*
X350491Y190959D01*
X350572Y190915D01*
X350674Y190864D01*
X350783Y190791D01*
X350900Y190704D01*
X351009Y190609D01*
X351111Y190492D01*
X351126Y190478D01*
X351155Y190434D01*
X351199Y190368D01*
X351257Y190274D01*
X351315Y190157D01*
X351381Y190011D01*
X351447Y189851D01*
X351498Y189669D01*
X350892Y189508D01*
Y189516D01*
X350885Y189523D01*
X350878Y189545D01*
X350871Y189574D01*
X350849Y189639D01*
X350819Y189727D01*
X350776Y189829D01*
X350725Y189924D01*
X350674Y190026D01*
X350608Y190113D01*
X350601Y190121D01*
X350579Y190150D01*
X350535Y190186D01*
X350484Y190237D01*
X350419Y190296D01*
X350331Y190354D01*
X350236Y190412D01*
X350127Y190463D01*
X350112Y190471D01*
X350076Y190485D01*
X350010Y190507D01*
X349923Y190536D01*
X349821Y190558D01*
X349704Y190580D01*
X349573Y190594D01*
X349434Y190602D01*
X349354D01*
X349318Y190594D01*
X349274D01*
X349165Y190587D01*
X349041Y190565D01*
X348902Y190543D01*
X348771Y190507D01*
X348640Y190456D01*
X348625Y190449D01*
X348582Y190434D01*
X348523Y190398D01*
X348450Y190361D01*
X348363Y190303D01*
X348268Y190245D01*
X348181Y190172D01*
X348100Y190092D01*
X348093Y190084D01*
X348064Y190055D01*
X348027Y190004D01*
X347984Y189946D01*
X347933Y189873D01*
X347882Y189785D01*
X347831Y189691D01*
X347780Y189588D01*
Y189581D01*
X347772Y189567D01*
X347765Y189545D01*
X347750Y189508D01*
X347736Y189465D01*
X347721Y189413D01*
X347699Y189355D01*
X347685Y189290D01*
X347648Y189137D01*
X347619Y188962D01*
X347597Y188779D01*
X347590Y188575D01*
Y188568D01*
Y188546D01*
Y188510D01*
X347597Y188466D01*
Y188408D01*
X347605Y188335D01*
X347612Y188262D01*
X347619Y188181D01*
X347648Y187999D01*
X347685Y187810D01*
X347743Y187620D01*
X347816Y187438D01*
Y187431D01*
X347831Y187416D01*
X347838Y187394D01*
X347860Y187365D01*
X347911Y187285D01*
X347991Y187183D01*
X348086Y187073D01*
X348202Y186964D01*
X348341Y186862D01*
X348494Y186767D01*
X348501D01*
X348516Y186760D01*
X348538Y186745D01*
X348574Y186731D01*
X348611Y186716D01*
X348662Y186702D01*
X348778Y186658D01*
X348924Y186621D01*
X349084Y186585D01*
X349259Y186556D01*
X349442Y186549D01*
X349515D01*
X349558Y186556D01*
X349602D01*
X349711Y186570D01*
X349843Y186585D01*
X349981Y186614D01*
X350134Y186658D01*
X350287Y186709D01*
X350295D01*
X350309Y186716D01*
X350324Y186723D01*
X350353Y186738D01*
X350433Y186775D01*
X350521Y186818D01*
X350623Y186869D01*
X350732Y186928D01*
X350834Y186993D01*
X350922Y187066D01*
Y188014D01*
X349434D01*
Y188612D01*
X351578D01*
Y186738D01*
X351570Y186731D01*
X351556Y186723D01*
X351527Y186702D01*
X351490Y186672D01*
X351447Y186643D01*
X351396Y186607D01*
X351330Y186563D01*
X351264Y186519D01*
X351111Y186425D01*
X350936Y186323D01*
X350754Y186228D01*
X350557Y186148D01*
X350550D01*
X350535Y186140D01*
X350506Y186133D01*
X350470Y186118D01*
X350419Y186104D01*
X350360Y186082D01*
X350295Y186067D01*
X350229Y186053D01*
X350069Y186016D01*
X349886Y185980D01*
X349690Y185958D01*
X349485Y185951D01*
X349413D01*
X349361Y185958D01*
X349296D01*
X349216Y185965D01*
X349128Y185980D01*
X349033Y185987D01*
X348822Y186031D01*
X348596Y186082D01*
X348363Y186162D01*
X348246Y186206D01*
X348130Y186264D01*
X348122Y186272D01*
X348100Y186279D01*
X348071Y186301D01*
X348027Y186323D01*
X347976Y186359D01*
X347925Y186396D01*
X347787Y186497D01*
X347641Y186629D01*
X347488Y186789D01*
X347342Y186971D01*
X347211Y187183D01*
Y187190D01*
X347196Y187212D01*
X347182Y187241D01*
X347160Y187292D01*
X347138Y187343D01*
X347116Y187416D01*
X347087Y187489D01*
X347058Y187576D01*
X347029Y187671D01*
X347000Y187781D01*
X346978Y187890D01*
X346956Y188007D01*
X346919Y188262D01*
X346905Y188531D01*
Y188539D01*
Y188568D01*
Y188604D01*
X346912Y188655D01*
Y188721D01*
X346919Y188801D01*
X346934Y188881D01*
X346941Y188976D01*
X346963Y189078D01*
X346978Y189188D01*
X347036Y189421D01*
X347109Y189661D01*
X347211Y189902D01*
X347218Y189909D01*
X347226Y189931D01*
X347240Y189960D01*
X347269Y190004D01*
X347299Y190062D01*
X347335Y190121D01*
X347437Y190259D01*
X347561Y190420D01*
X347714Y190573D01*
X347889Y190726D01*
X347991Y190791D01*
X348093Y190857D01*
X348100Y190864D01*
X348122Y190872D01*
X348151Y190886D01*
X348195Y190908D01*
X348253Y190930D01*
X348319Y190959D01*
X348392Y190988D01*
X348480Y191017D01*
X348574Y191047D01*
X348676Y191068D01*
X348786Y191097D01*
X348902Y191119D01*
X349157Y191156D01*
X349289Y191170D01*
X349522D01*
X349566Y191163D01*
D02*
G37*
G36*
X339294Y186038D02*
X338601D01*
X335963Y189997D01*
Y186038D01*
X335321D01*
Y191083D01*
X336006D01*
X338652Y187117D01*
Y191083D01*
X339294D01*
Y186038D01*
D02*
G37*
G36*
X342545D02*
X341846D01*
X339892Y191083D01*
X340621D01*
X341933Y187416D01*
Y187409D01*
X341940Y187394D01*
X341948Y187372D01*
X341962Y187343D01*
X341969Y187299D01*
X341984Y187256D01*
X342021Y187146D01*
X342064Y187022D01*
X342108Y186884D01*
X342196Y186592D01*
Y186600D01*
X342203Y186614D01*
X342210Y186636D01*
X342217Y186665D01*
X342239Y186745D01*
X342276Y186855D01*
X342312Y186979D01*
X342356Y187117D01*
X342407Y187263D01*
X342465Y187416D01*
X343836Y191083D01*
X344514D01*
X342545Y186038D01*
D02*
G37*
G36*
X353203Y186636D02*
X355689D01*
Y186038D01*
X352533D01*
Y191083D01*
X353203D01*
Y186636D01*
D02*
G37*
G36*
X332310Y191076D02*
X332456Y191068D01*
X332602Y191054D01*
X332748Y191032D01*
X332872Y191010D01*
X332879D01*
X332893Y191003D01*
X332915D01*
X332944Y190988D01*
X333025Y190966D01*
X333127Y190930D01*
X333243Y190879D01*
X333367Y190813D01*
X333491Y190740D01*
X333608Y190646D01*
X333615Y190638D01*
X333622Y190631D01*
X333644Y190609D01*
X333674Y190587D01*
X333746Y190514D01*
X333834Y190412D01*
X333929Y190288D01*
X334031Y190143D01*
X334125Y189975D01*
X334206Y189785D01*
Y189778D01*
X334213Y189763D01*
X334227Y189734D01*
X334235Y189691D01*
X334257Y189639D01*
X334271Y189581D01*
X334286Y189516D01*
X334308Y189435D01*
X334330Y189355D01*
X334344Y189260D01*
X334381Y189056D01*
X334402Y188830D01*
X334410Y188583D01*
Y188575D01*
Y188561D01*
Y188524D01*
Y188488D01*
X334402Y188437D01*
Y188378D01*
X334395Y188240D01*
X334373Y188080D01*
X334351Y187912D01*
X334315Y187737D01*
X334271Y187562D01*
Y187555D01*
X334264Y187540D01*
X334257Y187518D01*
X334249Y187489D01*
X334220Y187409D01*
X334176Y187307D01*
X334133Y187190D01*
X334074Y187073D01*
X334001Y186950D01*
X333929Y186833D01*
X333921Y186818D01*
X333892Y186782D01*
X333848Y186731D01*
X333790Y186665D01*
X333724Y186592D01*
X333644Y186519D01*
X333564Y186439D01*
X333469Y186374D01*
X333455Y186366D01*
X333426Y186344D01*
X333375Y186315D01*
X333302Y186279D01*
X333214Y186235D01*
X333112Y186199D01*
X332996Y186155D01*
X332864Y186118D01*
X332850D01*
X332828Y186111D01*
X332806Y186104D01*
X332733Y186097D01*
X332631Y186082D01*
X332514Y186067D01*
X332376Y186053D01*
X332223Y186046D01*
X332055Y186038D01*
X330240D01*
Y191083D01*
X332179D01*
X332310Y191076D01*
D02*
G37*
G36*
X343909Y184235D02*
X343289D01*
Y184942D01*
X343909D01*
Y184235D01*
D02*
G37*
G36*
X360041Y183630D02*
X360122Y183615D01*
X360216Y183586D01*
X360318Y183549D01*
X360435Y183498D01*
X360559Y183433D01*
X360333Y182864D01*
X360326Y182871D01*
X360297Y182886D01*
X360253Y182908D01*
X360194Y182930D01*
X360129Y182952D01*
X360049Y182974D01*
X359968Y182988D01*
X359888Y182995D01*
X359852D01*
X359815Y182988D01*
X359764Y182981D01*
X359713Y182966D01*
X359648Y182944D01*
X359582Y182915D01*
X359524Y182871D01*
X359517Y182864D01*
X359495Y182850D01*
X359473Y182820D01*
X359436Y182784D01*
X359400Y182733D01*
X359363Y182675D01*
X359327Y182609D01*
X359298Y182529D01*
X359291Y182514D01*
X359283Y182471D01*
X359269Y182405D01*
X359247Y182317D01*
X359225Y182208D01*
X359210Y182084D01*
X359203Y181953D01*
X359196Y181807D01*
Y179897D01*
X358576D01*
Y183557D01*
X359137D01*
Y183003D01*
X359145Y183010D01*
X359174Y183061D01*
X359210Y183127D01*
X359269Y183207D01*
X359327Y183287D01*
X359393Y183375D01*
X359458Y183447D01*
X359524Y183506D01*
X359531Y183513D01*
X359553Y183528D01*
X359597Y183549D01*
X359641Y183571D01*
X359699Y183593D01*
X359772Y183615D01*
X359845Y183630D01*
X359925Y183637D01*
X359976D01*
X360041Y183630D01*
D02*
G37*
G36*
X332522Y179897D02*
X331968D01*
Y180429D01*
X331960Y180422D01*
X331946Y180400D01*
X331924Y180371D01*
X331887Y180335D01*
X331844Y180291D01*
X331793Y180233D01*
X331734Y180182D01*
X331661Y180123D01*
X331581Y180065D01*
X331494Y180014D01*
X331399Y179963D01*
X331297Y179912D01*
X331180Y179875D01*
X331064Y179846D01*
X330932Y179824D01*
X330801Y179817D01*
X330750D01*
X330685Y179824D01*
X330604Y179832D01*
X330510Y179846D01*
X330408Y179868D01*
X330306Y179897D01*
X330196Y179941D01*
X330182Y179948D01*
X330152Y179963D01*
X330101Y179992D01*
X330043Y180028D01*
X329970Y180072D01*
X329905Y180123D01*
X329839Y180182D01*
X329781Y180247D01*
X329773Y180254D01*
X329759Y180283D01*
X329737Y180320D01*
X329708Y180378D01*
X329671Y180444D01*
X329642Y180524D01*
X329613Y180612D01*
X329591Y180706D01*
Y180714D01*
X329584Y180743D01*
X329576Y180787D01*
Y180845D01*
X329569Y180932D01*
X329562Y181027D01*
X329555Y181151D01*
Y181290D01*
Y183557D01*
X330174D01*
Y181523D01*
Y181516D01*
Y181501D01*
Y181479D01*
Y181443D01*
Y181362D01*
X330182Y181260D01*
Y181151D01*
X330189Y181042D01*
X330196Y180947D01*
X330211Y180867D01*
Y180859D01*
X330225Y180830D01*
X330240Y180787D01*
X330262Y180728D01*
X330298Y180670D01*
X330342Y180604D01*
X330393Y180546D01*
X330459Y180488D01*
X330466Y180480D01*
X330495Y180466D01*
X330532Y180444D01*
X330590Y180422D01*
X330655Y180393D01*
X330736Y180371D01*
X330823Y180356D01*
X330925Y180349D01*
X330976D01*
X331027Y180356D01*
X331093Y180364D01*
X331173Y180386D01*
X331260Y180408D01*
X331355Y180444D01*
X331450Y180488D01*
X331465Y180495D01*
X331494Y180517D01*
X331538Y180546D01*
X331589Y180590D01*
X331647Y180648D01*
X331705Y180714D01*
X331756Y180787D01*
X331800Y180874D01*
X331807Y180889D01*
X331815Y180918D01*
X331829Y180976D01*
X331851Y181056D01*
X331873Y181158D01*
X331887Y181282D01*
X331895Y181428D01*
X331902Y181596D01*
Y183557D01*
X332522D01*
Y179897D01*
D02*
G37*
G36*
X349398Y183134D02*
X349405Y183141D01*
X349420Y183156D01*
X349442Y183178D01*
X349478Y183214D01*
X349515Y183251D01*
X349566Y183294D01*
X349631Y183338D01*
X349697Y183389D01*
X349770Y183433D01*
X349850Y183476D01*
X350040Y183557D01*
X350142Y183593D01*
X350251Y183615D01*
X350368Y183630D01*
X350484Y183637D01*
X350550D01*
X350630Y183630D01*
X350725Y183615D01*
X350834Y183600D01*
X350951Y183571D01*
X351067Y183528D01*
X351184Y183476D01*
X351199Y183469D01*
X351235Y183447D01*
X351286Y183411D01*
X351352Y183360D01*
X351417Y183294D01*
X351490Y183221D01*
X351556Y183134D01*
X351614Y183032D01*
X351622Y183017D01*
X351636Y182981D01*
X351658Y182915D01*
X351680Y182820D01*
X351702Y182704D01*
X351724Y182565D01*
X351738Y182398D01*
X351745Y182208D01*
Y179897D01*
X351126D01*
Y182215D01*
Y182223D01*
Y182237D01*
Y182259D01*
Y182288D01*
X351118Y182369D01*
X351104Y182471D01*
X351075Y182580D01*
X351038Y182689D01*
X350987Y182799D01*
X350922Y182886D01*
X350914Y182893D01*
X350885Y182922D01*
X350841Y182959D01*
X350776Y182995D01*
X350696Y183039D01*
X350601Y183068D01*
X350484Y183098D01*
X350353Y183105D01*
X350309D01*
X350258Y183098D01*
X350185Y183090D01*
X350112Y183068D01*
X350025Y183046D01*
X349938Y183010D01*
X349843Y182959D01*
X349835Y182952D01*
X349806Y182930D01*
X349763Y182901D01*
X349711Y182857D01*
X349653Y182799D01*
X349595Y182733D01*
X349544Y182653D01*
X349500Y182565D01*
X349493Y182551D01*
X349485Y182522D01*
X349471Y182463D01*
X349449Y182390D01*
X349427Y182296D01*
X349413Y182179D01*
X349405Y182048D01*
X349398Y181895D01*
Y179897D01*
X348778D01*
Y184942D01*
X349398D01*
Y183134D01*
D02*
G37*
G36*
X343909Y179897D02*
X343289D01*
Y183557D01*
X343909D01*
Y179897D01*
D02*
G37*
G36*
X342502Y184344D02*
X339761D01*
Y182784D01*
X342130D01*
Y182186D01*
X339761D01*
Y179897D01*
X339090D01*
Y184942D01*
X342502D01*
Y184344D01*
D02*
G37*
G36*
X338018Y179897D02*
X337399D01*
Y184942D01*
X338018D01*
Y179897D01*
D02*
G37*
G36*
X328782Y184344D02*
X326041D01*
Y182784D01*
X328410D01*
Y182186D01*
X326041D01*
Y179897D01*
X325370D01*
Y184942D01*
X328782D01*
Y184344D01*
D02*
G37*
G36*
X353422Y183557D02*
X354049Y183557D01*
Y183076D01*
X353422Y183076D01*
Y180925D01*
Y180911D01*
Y180881D01*
Y180838D01*
X353429Y180787D01*
X353437Y180670D01*
X353444Y180619D01*
X353451Y180582D01*
X353458Y180568D01*
X353480Y180539D01*
X353510Y180502D01*
X353561Y180466D01*
X353575Y180458D01*
X353612Y180444D01*
X353677Y180429D01*
X353772Y180422D01*
X353845D01*
X353881Y180429D01*
X353932D01*
X353991Y180437D01*
X354049Y180444D01*
X354129Y179897D01*
X354115D01*
X354085Y179890D01*
X354034Y179883D01*
X353969Y179875D01*
X353896Y179861D01*
X353816Y179853D01*
X353655Y179846D01*
X353597D01*
X353539Y179853D01*
X353466Y179861D01*
X353378Y179868D01*
X353291Y179890D01*
X353211Y179912D01*
X353131Y179948D01*
X353123Y179955D01*
X353101Y179970D01*
X353072Y179992D01*
X353028Y180028D01*
X352992Y180065D01*
X352948Y180116D01*
X352905Y180167D01*
X352875Y180233D01*
Y180240D01*
X352861Y180269D01*
X352853Y180320D01*
X352839Y180393D01*
X352824Y180488D01*
X352817Y180546D01*
Y180612D01*
X352810Y180692D01*
X352802Y180772D01*
Y180859D01*
Y180962D01*
Y183076D01*
X352343D01*
Y183557D01*
X352802D01*
Y184461D01*
X353422Y184833D01*
Y183557D01*
D02*
G37*
G36*
X356280Y183630D02*
X356338Y183622D01*
X356411Y183608D01*
X356491Y183593D01*
X356586Y183571D01*
X356673Y183549D01*
X356775Y183513D01*
X356870Y183477D01*
X356972Y183425D01*
X357074Y183367D01*
X357176Y183302D01*
X357271Y183221D01*
X357359Y183134D01*
X357366Y183127D01*
X357381Y183112D01*
X357402Y183083D01*
X357432Y183039D01*
X357468Y182988D01*
X357505Y182930D01*
X357548Y182857D01*
X357592Y182769D01*
X357636Y182675D01*
X357679Y182573D01*
X357716Y182456D01*
X357752Y182332D01*
X357782Y182194D01*
X357803Y182048D01*
X357818Y181895D01*
X357825Y181727D01*
Y181720D01*
Y181691D01*
Y181640D01*
X357818Y181567D01*
X355084D01*
Y181559D01*
Y181537D01*
X355092Y181508D01*
Y181465D01*
X355099Y181413D01*
X355113Y181355D01*
X355135Y181224D01*
X355179Y181078D01*
X355237Y180918D01*
X355317Y180772D01*
X355419Y180641D01*
X355427D01*
X355434Y180626D01*
X355478Y180590D01*
X355543Y180539D01*
X355631Y180488D01*
X355748Y180429D01*
X355879Y180378D01*
X356025Y180342D01*
X356105Y180335D01*
X356192Y180327D01*
X356251D01*
X356316Y180335D01*
X356396Y180349D01*
X356484Y180371D01*
X356586Y180400D01*
X356681Y180444D01*
X356775Y180502D01*
X356783Y180509D01*
X356819Y180539D01*
X356863Y180582D01*
X356914Y180641D01*
X356972Y180721D01*
X357038Y180823D01*
X357103Y180940D01*
X357162Y181078D01*
X357803Y180998D01*
Y180991D01*
X357796Y180976D01*
X357789Y180947D01*
X357774Y180903D01*
X357752Y180859D01*
X357731Y180801D01*
X357672Y180677D01*
X357599Y180539D01*
X357497Y180393D01*
X357381Y180254D01*
X357235Y180123D01*
X357227D01*
X357213Y180109D01*
X357191Y180094D01*
X357162Y180072D01*
X357118Y180050D01*
X357074Y180028D01*
X357016Y179999D01*
X356950Y179970D01*
X356877Y179941D01*
X356805Y179912D01*
X356622Y179868D01*
X356418Y179832D01*
X356192Y179817D01*
X356112D01*
X356061Y179824D01*
X355995Y179832D01*
X355915Y179846D01*
X355828Y179861D01*
X355733Y179875D01*
X355529Y179934D01*
X355419Y179977D01*
X355317Y180021D01*
X355208Y180079D01*
X355106Y180145D01*
X355011Y180218D01*
X354917Y180305D01*
X354909Y180313D01*
X354895Y180327D01*
X354873Y180356D01*
X354844Y180400D01*
X354807Y180451D01*
X354771Y180509D01*
X354727Y180582D01*
X354683Y180663D01*
X354640Y180757D01*
X354596Y180859D01*
X354559Y180976D01*
X354523Y181100D01*
X354494Y181231D01*
X354472Y181377D01*
X354457Y181530D01*
X354450Y181691D01*
Y181698D01*
Y181734D01*
Y181778D01*
X354457Y181844D01*
X354465Y181924D01*
X354472Y182011D01*
X354486Y182113D01*
X354508Y182215D01*
X354567Y182449D01*
X354603Y182565D01*
X354647Y182689D01*
X354705Y182806D01*
X354771Y182915D01*
X354844Y183025D01*
X354924Y183127D01*
X354931Y183134D01*
X354946Y183149D01*
X354975Y183170D01*
X355011Y183207D01*
X355055Y183243D01*
X355113Y183287D01*
X355179Y183338D01*
X355259Y183382D01*
X355339Y183433D01*
X355434Y183477D01*
X355536Y183520D01*
X355645Y183557D01*
X355762Y183593D01*
X355886Y183615D01*
X356017Y183630D01*
X356156Y183637D01*
X356229D01*
X356280Y183630D01*
D02*
G37*
G36*
X335110Y183630D02*
X335168Y183622D01*
X335241Y183608D01*
X335321Y183593D01*
X335416Y183571D01*
X335503Y183549D01*
X335605Y183513D01*
X335700Y183476D01*
X335802Y183425D01*
X335904Y183367D01*
X336006Y183302D01*
X336101Y183221D01*
X336189Y183134D01*
X336196Y183127D01*
X336210Y183112D01*
X336232Y183083D01*
X336261Y183039D01*
X336298Y182988D01*
X336334Y182930D01*
X336378Y182857D01*
X336422Y182769D01*
X336466Y182675D01*
X336509Y182573D01*
X336546Y182456D01*
X336582Y182332D01*
X336611Y182194D01*
X336633Y182048D01*
X336648Y181895D01*
X336655Y181727D01*
Y181720D01*
Y181691D01*
Y181640D01*
X336648Y181567D01*
X333914D01*
Y181559D01*
Y181537D01*
X333921Y181508D01*
Y181465D01*
X333929Y181413D01*
X333943Y181355D01*
X333965Y181224D01*
X334009Y181078D01*
X334067Y180918D01*
X334147Y180772D01*
X334249Y180641D01*
X334257D01*
X334264Y180626D01*
X334308Y180590D01*
X334373Y180539D01*
X334461Y180488D01*
X334577Y180429D01*
X334709Y180378D01*
X334854Y180342D01*
X334935Y180335D01*
X335022Y180327D01*
X335080D01*
X335146Y180335D01*
X335226Y180349D01*
X335314Y180371D01*
X335416Y180400D01*
X335511Y180444D01*
X335605Y180502D01*
X335613Y180509D01*
X335649Y180539D01*
X335693Y180582D01*
X335744Y180641D01*
X335802Y180721D01*
X335868Y180823D01*
X335933Y180940D01*
X335992Y181078D01*
X336633Y180998D01*
Y180991D01*
X336626Y180976D01*
X336619Y180947D01*
X336604Y180903D01*
X336582Y180859D01*
X336560Y180801D01*
X336502Y180677D01*
X336429Y180539D01*
X336327Y180393D01*
X336210Y180254D01*
X336065Y180123D01*
X336057D01*
X336043Y180109D01*
X336021Y180094D01*
X335992Y180072D01*
X335948Y180050D01*
X335904Y180028D01*
X335846Y179999D01*
X335780Y179970D01*
X335707Y179941D01*
X335634Y179912D01*
X335452Y179868D01*
X335248Y179832D01*
X335022Y179817D01*
X334942D01*
X334891Y179824D01*
X334825Y179832D01*
X334745Y179846D01*
X334658Y179861D01*
X334563Y179875D01*
X334359Y179934D01*
X334249Y179977D01*
X334147Y180021D01*
X334038Y180079D01*
X333936Y180145D01*
X333841Y180218D01*
X333746Y180305D01*
X333739Y180313D01*
X333724Y180327D01*
X333703Y180356D01*
X333674Y180400D01*
X333637Y180451D01*
X333601Y180509D01*
X333557Y180582D01*
X333513Y180663D01*
X333469Y180757D01*
X333426Y180859D01*
X333389Y180976D01*
X333353Y181100D01*
X333324Y181231D01*
X333302Y181377D01*
X333287Y181530D01*
X333280Y181691D01*
Y181698D01*
Y181734D01*
Y181778D01*
X333287Y181844D01*
X333294Y181924D01*
X333302Y182011D01*
X333316Y182113D01*
X333338Y182215D01*
X333397Y182449D01*
X333433Y182565D01*
X333477Y182689D01*
X333535Y182806D01*
X333601Y182915D01*
X333674Y183025D01*
X333754Y183127D01*
X333761Y183134D01*
X333775Y183149D01*
X333805Y183170D01*
X333841Y183207D01*
X333885Y183243D01*
X333943Y183287D01*
X334009Y183338D01*
X334089Y183382D01*
X334169Y183433D01*
X334264Y183476D01*
X334366Y183520D01*
X334475Y183557D01*
X334592Y183593D01*
X334716Y183615D01*
X334847Y183630D01*
X334986Y183637D01*
X335059D01*
X335110Y183630D01*
D02*
G37*
G36*
X346307D02*
X346358Y183622D01*
X346424Y183608D01*
X346497Y183593D01*
X346577Y183571D01*
X346657Y183542D01*
X346744Y183506D01*
X346832Y183462D01*
X346927Y183411D01*
X347014Y183353D01*
X347102Y183280D01*
X347189Y183200D01*
X347269Y183105D01*
Y183557D01*
X347838D01*
Y180393D01*
Y180386D01*
Y180356D01*
Y180313D01*
Y180254D01*
X347831Y180189D01*
Y180109D01*
X347823Y180021D01*
X347816Y179926D01*
X347794Y179729D01*
X347765Y179525D01*
X347743Y179431D01*
X347721Y179343D01*
X347692Y179263D01*
X347663Y179190D01*
Y179183D01*
X347656Y179175D01*
X347626Y179132D01*
X347590Y179066D01*
X347532Y178986D01*
X347452Y178898D01*
X347357Y178804D01*
X347240Y178709D01*
X347109Y178629D01*
X347102D01*
X347094Y178621D01*
X347073Y178607D01*
X347043Y178600D01*
X347007Y178578D01*
X346963Y178563D01*
X346854Y178527D01*
X346723Y178483D01*
X346562Y178454D01*
X346380Y178425D01*
X346183Y178417D01*
X346117D01*
X346074Y178425D01*
X346015D01*
X345957Y178432D01*
X345884Y178439D01*
X345804Y178454D01*
X345636Y178490D01*
X345461Y178541D01*
X345286Y178614D01*
X345126Y178716D01*
X345119Y178724D01*
X345111Y178731D01*
X345060Y178774D01*
X345002Y178840D01*
X344929Y178935D01*
X344856Y179059D01*
X344791Y179212D01*
X344769Y179299D01*
X344754Y179394D01*
X344740Y179489D01*
Y179598D01*
X345345Y179518D01*
Y179504D01*
X345352Y179474D01*
X345367Y179423D01*
X345381Y179358D01*
X345410Y179292D01*
X345447Y179227D01*
X345491Y179161D01*
X345549Y179110D01*
X345564Y179103D01*
X345593Y179081D01*
X345644Y179051D01*
X345717Y179022D01*
X345804Y178986D01*
X345913Y178957D01*
X346045Y178935D01*
X346183Y178928D01*
X346256D01*
X346329Y178935D01*
X346431Y178949D01*
X346533Y178971D01*
X346642Y179000D01*
X346752Y179044D01*
X346847Y179103D01*
X346854Y179110D01*
X346883Y179132D01*
X346927Y179175D01*
X346978Y179227D01*
X347029Y179299D01*
X347080Y179380D01*
X347131Y179474D01*
X347167Y179584D01*
Y179591D01*
X347175Y179620D01*
X347182Y179678D01*
X347189Y179751D01*
X347196Y179802D01*
Y179861D01*
X347204Y179926D01*
Y179999D01*
Y180079D01*
X347211Y180174D01*
Y180269D01*
Y180378D01*
X347204Y180371D01*
X347189Y180356D01*
X347167Y180335D01*
X347138Y180305D01*
X347102Y180269D01*
X347051Y180225D01*
X346992Y180182D01*
X346934Y180138D01*
X346781Y180050D01*
X346613Y179970D01*
X346518Y179941D01*
X346416Y179919D01*
X346307Y179904D01*
X346198Y179897D01*
X346161D01*
X346125Y179904D01*
X346074D01*
X346008Y179912D01*
X345935Y179926D01*
X345855Y179941D01*
X345768Y179963D01*
X345673Y179992D01*
X345578Y180028D01*
X345483Y180072D01*
X345381Y180123D01*
X345286Y180189D01*
X345192Y180262D01*
X345104Y180342D01*
X345024Y180437D01*
X345017Y180444D01*
X345009Y180458D01*
X344988Y180495D01*
X344958Y180531D01*
X344929Y180590D01*
X344893Y180648D01*
X344856Y180721D01*
X344820Y180808D01*
X344783Y180896D01*
X344747Y180998D01*
X344710Y181100D01*
X344681Y181217D01*
X344630Y181465D01*
X344623Y181603D01*
X344616Y181741D01*
Y181749D01*
Y181763D01*
Y181793D01*
Y181829D01*
X344623Y181880D01*
Y181931D01*
X344638Y182062D01*
X344659Y182208D01*
X344696Y182369D01*
X344740Y182536D01*
X344805Y182704D01*
Y182711D01*
X344813Y182726D01*
X344827Y182748D01*
X344842Y182777D01*
X344885Y182857D01*
X344944Y182959D01*
X345024Y183068D01*
X345119Y183178D01*
X345228Y183294D01*
X345352Y183389D01*
X345359D01*
X345367Y183396D01*
X345389Y183411D01*
X345418Y183425D01*
X345491Y183469D01*
X345593Y183513D01*
X345717Y183557D01*
X345862Y183600D01*
X346023Y183630D01*
X346198Y183637D01*
X346263D01*
X346307Y183630D01*
D02*
G37*
%LPC*%
G36*
X332077Y190485D02*
X330911D01*
Y186636D01*
X332106D01*
X332157Y186643D01*
X332266Y186651D01*
X332390Y186658D01*
X332522Y186672D01*
X332653Y186694D01*
X332762Y186723D01*
X332777Y186731D01*
X332813Y186738D01*
X332864Y186760D01*
X332930Y186789D01*
X333003Y186833D01*
X333076Y186877D01*
X333149Y186928D01*
X333222Y186986D01*
X333229Y187001D01*
X333258Y187030D01*
X333302Y187081D01*
X333353Y187154D01*
X333411Y187248D01*
X333477Y187358D01*
X333535Y187482D01*
X333586Y187620D01*
Y187627D01*
X333593Y187642D01*
X333601Y187664D01*
X333608Y187693D01*
X333615Y187730D01*
X333630Y187781D01*
X333644Y187832D01*
X333659Y187890D01*
X333681Y188036D01*
X333703Y188203D01*
X333717Y188393D01*
X333724Y188597D01*
Y188604D01*
Y188634D01*
Y188670D01*
X333717Y188728D01*
Y188794D01*
X333710Y188867D01*
X333703Y188954D01*
X333695Y189042D01*
X333659Y189239D01*
X333615Y189443D01*
X333549Y189632D01*
X333506Y189727D01*
X333462Y189807D01*
Y189814D01*
X333448Y189829D01*
X333433Y189851D01*
X333418Y189880D01*
X333360Y189953D01*
X333287Y190041D01*
X333192Y190135D01*
X333083Y190230D01*
X332959Y190310D01*
X332828Y190376D01*
X332813Y190383D01*
X332777Y190390D01*
X332711Y190412D01*
X332616Y190434D01*
X332500Y190449D01*
X332354Y190471D01*
X332266Y190478D01*
X332172D01*
X332077Y190485D01*
D02*
G37*
G36*
X356163Y183127D02*
X356119D01*
X356090Y183119D01*
X356010Y183112D01*
X355915Y183090D01*
X355799Y183054D01*
X355675Y183003D01*
X355558Y182930D01*
X355441Y182835D01*
X355427Y182820D01*
X355398Y182784D01*
X355347Y182718D01*
X355296Y182631D01*
X355237Y182529D01*
X355186Y182398D01*
X355142Y182245D01*
X355121Y182077D01*
X357169D01*
Y182084D01*
Y182099D01*
X357162Y182121D01*
Y182150D01*
X357147Y182237D01*
X357125Y182332D01*
X357089Y182449D01*
X357052Y182558D01*
X356994Y182667D01*
X356929Y182762D01*
Y182769D01*
X356914Y182777D01*
X356877Y182820D01*
X356812Y182879D01*
X356724Y182944D01*
X356615Y183010D01*
X356484Y183068D01*
X356331Y183112D01*
X356251Y183119D01*
X356163Y183127D01*
D02*
G37*
G36*
X334993Y183127D02*
X334949D01*
X334920Y183119D01*
X334840Y183112D01*
X334745Y183090D01*
X334629Y183054D01*
X334505Y183003D01*
X334388Y182930D01*
X334271Y182835D01*
X334257Y182820D01*
X334227Y182784D01*
X334176Y182718D01*
X334125Y182631D01*
X334067Y182529D01*
X334016Y182398D01*
X333972Y182245D01*
X333950Y182077D01*
X335999D01*
Y182084D01*
Y182099D01*
X335992Y182121D01*
Y182150D01*
X335977Y182237D01*
X335955Y182332D01*
X335919Y182449D01*
X335882Y182558D01*
X335824Y182667D01*
X335758Y182762D01*
Y182769D01*
X335744Y182777D01*
X335707Y182820D01*
X335642Y182879D01*
X335554Y182944D01*
X335445Y183010D01*
X335314Y183068D01*
X335161Y183112D01*
X335080Y183119D01*
X334993Y183127D01*
D02*
G37*
G36*
X346322D02*
X346205D01*
X346176Y183119D01*
X346096Y183112D01*
X346001Y183083D01*
X345884Y183046D01*
X345768Y182981D01*
X345651Y182901D01*
X345593Y182842D01*
X345534Y182784D01*
Y182777D01*
X345520Y182769D01*
X345505Y182748D01*
X345491Y182718D01*
X345469Y182689D01*
X345447Y182645D01*
X345418Y182595D01*
X345396Y182536D01*
X345367Y182471D01*
X345338Y182390D01*
X345316Y182310D01*
X345294Y182223D01*
X345279Y182121D01*
X345265Y182019D01*
X345250Y181909D01*
Y181785D01*
Y181778D01*
Y181756D01*
Y181720D01*
X345257Y181669D01*
Y181610D01*
X345265Y181537D01*
X345286Y181384D01*
X345323Y181209D01*
X345367Y181042D01*
X345440Y180874D01*
X345483Y180801D01*
X345534Y180736D01*
X345549Y180721D01*
X345585Y180684D01*
X345644Y180633D01*
X345731Y180575D01*
X345833Y180509D01*
X345957Y180458D01*
X346096Y180422D01*
X346168Y180415D01*
X346249Y180408D01*
X346292D01*
X346322Y180415D01*
X346402Y180422D01*
X346504Y180451D01*
X346613Y180488D01*
X346737Y180546D01*
X346854Y180626D01*
X346912Y180677D01*
X346970Y180736D01*
Y180743D01*
X346985Y180750D01*
X347000Y180772D01*
X347014Y180801D01*
X347036Y180830D01*
X347065Y180874D01*
X347087Y180925D01*
X347116Y180991D01*
X347145Y181056D01*
X347167Y181129D01*
X347196Y181217D01*
X347218Y181311D01*
X347233Y181406D01*
X347247Y181516D01*
X347262Y181640D01*
Y181763D01*
Y181771D01*
Y181793D01*
Y181829D01*
X347255Y181873D01*
Y181931D01*
X347247Y181997D01*
X347226Y182142D01*
X347189Y182310D01*
X347138Y182478D01*
X347065Y182645D01*
X347014Y182718D01*
X346963Y182784D01*
Y182791D01*
X346949Y182799D01*
X346912Y182835D01*
X346847Y182893D01*
X346759Y182959D01*
X346657Y183017D01*
X346533Y183076D01*
X346394Y183112D01*
X346322Y183127D01*
D02*
G37*
%LPD*%
D10*
X303167Y121432D02*
G03*
X303167Y121432I-412J0D01*
G01*
X233937Y140039D02*
X273937D01*
X233937D02*
Y190039D01*
X248937Y205039D01*
X258937D01*
X273937Y190039D01*
Y140039D02*
Y190039D01*
X249937Y134055D02*
X257937D01*
X253937Y130055D02*
Y138055D01*
X87913Y186201D02*
Y226201D01*
X37913Y186201D02*
X87913D01*
X22913Y201201D02*
X37913Y186201D01*
X22913Y201201D02*
Y211201D01*
X37913Y226201D01*
X87913D01*
X93898Y202201D02*
Y210201D01*
X89898Y206201D02*
X97898D01*
X220945Y94803D02*
X260945D01*
Y44803D02*
Y94803D01*
X245945Y29803D02*
X260945Y44803D01*
X235945Y29803D02*
X245945D01*
X220945Y44803D02*
X235945Y29803D01*
X220945Y44803D02*
Y94803D01*
X236945Y100787D02*
X244945D01*
X240945Y96787D02*
Y104787D01*
X160807Y198406D02*
Y238405D01*
X210807D01*
X225807Y223406D01*
Y213405D02*
Y223406D01*
X210807Y198406D02*
X225807Y213405D01*
X160807Y198406D02*
X210807D01*
X154823Y214405D02*
Y222406D01*
X150823Y218406D02*
X158823D01*
X87913Y143287D02*
Y183287D01*
X37913Y143287D02*
X87913D01*
X22913Y158287D02*
X37913Y143287D01*
X22913Y158287D02*
Y168287D01*
X37913Y183287D01*
X87913D01*
X93898Y159287D02*
Y167287D01*
X89898Y163287D02*
X97898D01*
X278425Y72264D02*
X318425D01*
Y22264D02*
Y72264D01*
X303425Y7264D02*
X318425Y22264D01*
X293425Y7264D02*
X303425D01*
X278425Y22264D02*
X293425Y7264D01*
X278425Y22264D02*
Y72264D01*
X294425Y78248D02*
X302425D01*
X298425Y74248D02*
Y82248D01*
X338858Y5197D02*
Y45197D01*
X388858D01*
X403858Y30197D01*
Y20197D02*
Y30197D01*
X388858Y5197D02*
X403858Y20197D01*
X338858Y5197D02*
X388858D01*
X332874Y21197D02*
Y29197D01*
X328874Y25197D02*
X336874D01*
X301054Y111132D02*
Y122232D01*
Y111132D02*
X310854D01*
Y123032D01*
X301054D02*
X310854D01*
X301054Y122232D02*
Y123032D01*
X98524Y107874D02*
X167224D01*
Y7874D02*
Y107874D01*
X29823Y7874D02*
X167224D01*
X29823D02*
Y107874D01*
X98524D01*
X423228Y120079D02*
Y169193D01*
X336614D02*
X423228D01*
X336614Y70079D02*
Y169193D01*
Y70079D02*
X423228D01*
Y120079D01*
X213583Y49508D02*
Y90847D01*
X173031Y49508D02*
X213583D01*
X200886Y103543D02*
X213583Y90847D01*
X186122Y103543D02*
X200886D01*
X173031Y49508D02*
Y89468D01*
Y90453D02*
X186122Y103543D01*
X173031Y89468D02*
Y90453D01*
X104921Y196555D02*
Y237894D01*
X145472D01*
X104921Y196555D02*
X117618Y183858D01*
X132382D01*
X145472Y197933D02*
Y237894D01*
X132382Y183858D02*
X145472Y196949D01*
Y197933D01*
X323436Y240416D02*
X322436Y241415D01*
X320437D01*
X319437Y240416D01*
Y239416D01*
X320437Y238416D01*
X322436D01*
X323436Y237417D01*
Y236417D01*
X322436Y235417D01*
X320437D01*
X319437Y236417D01*
X329434Y241415D02*
X325435D01*
Y235417D01*
X329434D01*
X325435Y238416D02*
X327434D01*
X331433Y235417D02*
Y241415D01*
X333433Y239416D01*
X335432Y241415D01*
Y235417D01*
X347428D02*
X343429D01*
X347428Y239416D01*
Y240416D01*
X346428Y241415D01*
X344429D01*
X343429Y240416D01*
X349427D02*
X350427Y241415D01*
X352426D01*
X353426Y240416D01*
Y236417D01*
X352426Y235417D01*
X350427D01*
X349427Y236417D01*
Y240416D01*
X359424Y235417D02*
X355425D01*
X359424Y239416D01*
Y240416D01*
X358424Y241415D01*
X356425D01*
X355425Y240416D01*
X361423D02*
X362423Y241415D01*
X364422D01*
X365422Y240416D01*
Y236417D01*
X364422Y235417D01*
X362423D01*
X361423Y236417D01*
Y240416D01*
X118110Y131982D02*
Y125984D01*
X121109D01*
X122109Y126984D01*
Y130983D01*
X121109Y131982D01*
X118110D01*
X124108Y130983D02*
X125108Y131982D01*
X127107D01*
X128107Y130983D01*
Y129983D01*
X127107Y128983D01*
X126108D01*
X127107D01*
X128107Y127984D01*
Y126984D01*
X127107Y125984D01*
X125108D01*
X124108Y126984D01*
X130106Y125984D02*
X132106D01*
X131106D01*
Y131982D01*
X130106Y130983D01*
X308163Y108268D02*
X303165D01*
X302165Y107268D01*
Y105269D01*
X303165Y104269D01*
X308163D01*
X307164Y102270D02*
X308163Y101270D01*
Y99271D01*
X307164Y98271D01*
X306164D01*
X305164Y99271D01*
Y100270D01*
Y99271D01*
X304165Y98271D01*
X303165D01*
X302165Y99271D01*
Y101270D01*
X303165Y102270D01*
X302165Y92273D02*
Y96272D01*
X306164Y92273D01*
X307164D01*
X308163Y93273D01*
Y95272D01*
X307164Y96272D01*
X174508Y193400D02*
Y188401D01*
X175507Y187402D01*
X177507D01*
X178507Y188401D01*
Y193400D01*
X180506Y192400D02*
X181506Y193400D01*
X183505D01*
X184505Y192400D01*
Y191400D01*
X183505Y190401D01*
X182505D01*
X183505D01*
X184505Y189401D01*
Y188401D01*
X183505Y187402D01*
X181506D01*
X180506Y188401D01*
X186504Y187402D02*
X188503D01*
X187504D01*
Y193400D01*
X186504Y192400D01*
X259646Y124311D02*
Y130309D01*
X262645D01*
X263644Y129309D01*
Y127310D01*
X262645Y126310D01*
X259646D01*
X261645D02*
X263644Y124311D01*
X265644Y129309D02*
X266643Y130309D01*
X268643D01*
X269642Y129309D01*
Y128310D01*
X268643Y127310D01*
X267643D01*
X268643D01*
X269642Y126310D01*
Y125311D01*
X268643Y124311D01*
X266643D01*
X265644Y125311D01*
X271642Y129309D02*
X272641Y130309D01*
X274641D01*
X275641Y129309D01*
Y128310D01*
X274641Y127310D01*
X273641D01*
X274641D01*
X275641Y126310D01*
Y125311D01*
X274641Y124311D01*
X272641D01*
X271642Y125311D01*
X291142Y144095D02*
Y150093D01*
X294141D01*
X295141Y149093D01*
Y147093D01*
X294141Y146094D01*
X291142D01*
X293141D02*
X295141Y144095D01*
X297140Y149093D02*
X298140Y150093D01*
X300139D01*
X301138Y149093D01*
Y148093D01*
X300139Y147093D01*
X299139D01*
X300139D01*
X301138Y146094D01*
Y145094D01*
X300139Y144095D01*
X298140D01*
X297140Y145094D01*
X307137Y144095D02*
X303138D01*
X307137Y148093D01*
Y149093D01*
X306137Y150093D01*
X304137D01*
X303138Y149093D01*
X260039Y106496D02*
Y112494D01*
X263038D01*
X264038Y111494D01*
Y109495D01*
X263038Y108495D01*
X260039D01*
X262039D02*
X264038Y106496D01*
X266037Y111494D02*
X267037Y112494D01*
X269037D01*
X270036Y111494D01*
Y110495D01*
X269037Y109495D01*
X268037D01*
X269037D01*
X270036Y108495D01*
Y107496D01*
X269037Y106496D01*
X267037D01*
X266037Y107496D01*
X272036Y106496D02*
X274035D01*
X273035D01*
Y112494D01*
X272036Y111494D01*
X213386Y24213D02*
Y30211D01*
X216385D01*
X217385Y29211D01*
Y27212D01*
X216385Y26212D01*
X213386D01*
X219384Y29211D02*
X220384Y30211D01*
X222383D01*
X223383Y29211D01*
Y28211D01*
X222383Y27212D01*
X221383D01*
X222383D01*
X223383Y26212D01*
Y25212D01*
X222383Y24213D01*
X220384D01*
X219384Y25212D01*
X225382Y30211D02*
X229381D01*
Y29211D01*
X225382Y25212D01*
Y24213D01*
X91240Y229035D02*
X97238D01*
Y226036D01*
X96238Y225037D01*
X94239D01*
X93239Y226036D01*
Y229035D01*
X96238Y223037D02*
X97238Y222038D01*
Y220038D01*
X96238Y219039D01*
X95239D01*
X94239Y220038D01*
Y221038D01*
Y220038D01*
X93239Y219039D01*
X92240D01*
X91240Y220038D01*
Y222038D01*
X92240Y223037D01*
X97238Y213041D02*
X96238Y215040D01*
X94239Y217039D01*
X92240D01*
X91240Y216040D01*
Y214040D01*
X92240Y213041D01*
X93239D01*
X94239Y214040D01*
Y217039D01*
X157480Y228445D02*
X151482D01*
Y231444D01*
X152482Y232444D01*
X154481D01*
X155481Y231444D01*
Y228445D01*
X152482Y234443D02*
X151482Y235443D01*
Y237442D01*
X152482Y238442D01*
X153482D01*
X154481Y237442D01*
Y236442D01*
Y237442D01*
X155481Y238442D01*
X156481D01*
X157480Y237442D01*
Y235443D01*
X156481Y234443D01*
X151482Y244440D02*
Y240441D01*
X154481D01*
X153482Y242440D01*
Y243440D01*
X154481Y244440D01*
X156481D01*
X157480Y243440D01*
Y241441D01*
X156481Y240441D01*
X268898Y5610D02*
Y11608D01*
X271897D01*
X272896Y10609D01*
Y8609D01*
X271897Y7610D01*
X268898D01*
X274896Y10609D02*
X275895Y11608D01*
X277895D01*
X278894Y10609D01*
Y9609D01*
X277895Y8609D01*
X276895D01*
X277895D01*
X278894Y7610D01*
Y6610D01*
X277895Y5610D01*
X275895D01*
X274896Y6610D01*
X283893Y5610D02*
Y11608D01*
X280894Y8609D01*
X284893D01*
X97047Y171260D02*
X91049D01*
Y174259D01*
X92049Y175259D01*
X94048D01*
X95048Y174259D01*
Y171260D01*
X92049Y177258D02*
X91049Y178258D01*
Y180257D01*
X92049Y181257D01*
X93049D01*
X94048Y180257D01*
Y179257D01*
Y180257D01*
X95048Y181257D01*
X96048D01*
X97047Y180257D01*
Y178258D01*
X96048Y177258D01*
X92049Y183256D02*
X91049Y184256D01*
Y186255D01*
X92049Y187255D01*
X93049D01*
X94048Y186255D01*
Y185255D01*
Y186255D01*
X95048Y187255D01*
X96048D01*
X97047Y186255D01*
Y184256D01*
X96048Y183256D01*
X392913Y45472D02*
Y51471D01*
X395912D01*
X396912Y50471D01*
Y48472D01*
X395912Y47472D01*
X392913D01*
X398911Y50471D02*
X399911Y51471D01*
X401910D01*
X402910Y50471D01*
Y49471D01*
X401910Y48472D01*
X400911D01*
X401910D01*
X402910Y47472D01*
Y46472D01*
X401910Y45472D01*
X399911D01*
X398911Y46472D01*
X408908Y45472D02*
X404910D01*
X408908Y49471D01*
Y50471D01*
X407908Y51471D01*
X405909D01*
X404910Y50471D01*
X265748Y204724D02*
Y210722D01*
X268747D01*
X269747Y209723D01*
Y207723D01*
X268747Y206724D01*
X265748D01*
X271746Y209723D02*
X272746Y210722D01*
X274745D01*
X275745Y209723D01*
Y208723D01*
X274745Y207723D01*
X273745D01*
X274745D01*
X275745Y206724D01*
Y205724D01*
X274745Y204724D01*
X272746D01*
X271746Y205724D01*
X277744Y204724D02*
X279744D01*
X278744D01*
Y210722D01*
X277744Y209723D01*
X44650Y121187D02*
Y115189D01*
X48648D01*
X50648Y120187D02*
X51647Y121187D01*
X53647D01*
X54646Y120187D01*
Y119188D01*
X53647Y118188D01*
X52647D01*
X53647D01*
X54646Y117188D01*
Y116189D01*
X53647Y115189D01*
X51647D01*
X50648Y116189D01*
X60644Y115189D02*
X56646D01*
X60644Y119188D01*
Y120187D01*
X59645Y121187D01*
X57645D01*
X56646Y120187D01*
X384744Y179128D02*
Y173130D01*
X388743D01*
X390742Y178128D02*
X391742Y179128D01*
X393741D01*
X394741Y178128D01*
Y177129D01*
X393741Y176129D01*
X392741D01*
X393741D01*
X394741Y175129D01*
Y174130D01*
X393741Y173130D01*
X391742D01*
X390742Y174130D01*
X396740Y173130D02*
X398740D01*
X397740D01*
Y179128D01*
X396740Y178128D01*
X272223Y87045D02*
X273222Y88044D01*
Y90044D01*
X272223Y91043D01*
X268224D01*
X267224Y90044D01*
Y88044D01*
X268224Y87045D01*
X272223Y85045D02*
X273222Y84046D01*
Y82046D01*
X272223Y81046D01*
X271223D01*
X270223Y82046D01*
Y83046D01*
Y82046D01*
X269224Y81046D01*
X268224D01*
X267224Y82046D01*
Y84046D01*
X268224Y85045D01*
X272223Y79047D02*
X273222Y78048D01*
Y76048D01*
X272223Y75049D01*
X271223D01*
X270223Y76048D01*
X269224Y75049D01*
X268224D01*
X267224Y76048D01*
Y78048D01*
X268224Y79047D01*
X269224D01*
X270223Y78048D01*
X271223Y79047D01*
X272223D01*
X270223Y78048D02*
Y76048D01*
X293369Y89250D02*
X292369Y90250D01*
X290370D01*
X289370Y89250D01*
Y85252D01*
X290370Y84252D01*
X292369D01*
X293369Y85252D01*
X295368Y89250D02*
X296368Y90250D01*
X298367D01*
X299367Y89250D01*
Y88251D01*
X298367Y87251D01*
X297368D01*
X298367D01*
X299367Y86251D01*
Y85252D01*
X298367Y84252D01*
X296368D01*
X295368Y85252D01*
X301366Y90250D02*
X305365D01*
Y89250D01*
X301366Y85252D01*
Y84252D01*
X366007Y58050D02*
X365007Y59049D01*
X363008D01*
X362008Y58050D01*
Y54051D01*
X363008Y53051D01*
X365007D01*
X366007Y54051D01*
X368006Y58050D02*
X369006Y59049D01*
X371005D01*
X372005Y58050D01*
Y57050D01*
X371005Y56050D01*
X370005D01*
X371005D01*
X372005Y55050D01*
Y54051D01*
X371005Y53051D01*
X369006D01*
X368006Y54051D01*
X378003Y59049D02*
X376003Y58050D01*
X374004Y56050D01*
Y54051D01*
X375004Y53051D01*
X377003D01*
X378003Y54051D01*
Y55050D01*
X377003Y56050D01*
X374004D01*
X330786Y72576D02*
X331785Y73576D01*
Y75575D01*
X330786Y76575D01*
X326787D01*
X325787Y75575D01*
Y73576D01*
X326787Y72576D01*
X330786Y70577D02*
X331785Y69577D01*
Y67578D01*
X330786Y66578D01*
X329786D01*
X328786Y67578D01*
Y68577D01*
Y67578D01*
X327787Y66578D01*
X326787D01*
X325787Y67578D01*
Y69577D01*
X326787Y70577D01*
X331785Y60580D02*
Y64579D01*
X328786D01*
X329786Y62579D01*
Y61580D01*
X328786Y60580D01*
X326787D01*
X325787Y61580D01*
Y63579D01*
X326787Y64579D01*
X189270Y112546D02*
X188271Y113545D01*
X186271D01*
X185272Y112546D01*
Y108547D01*
X186271Y107547D01*
X188271D01*
X189270Y108547D01*
X191270Y112546D02*
X192269Y113545D01*
X194269D01*
X195268Y112546D01*
Y111546D01*
X194269Y110546D01*
X193269D01*
X194269D01*
X195268Y109547D01*
Y108547D01*
X194269Y107547D01*
X192269D01*
X191270Y108547D01*
X200267Y107547D02*
Y113545D01*
X197268Y110546D01*
X201267D01*
X318861Y141809D02*
X317861Y142809D01*
X315862D01*
X314862Y141809D01*
Y137811D01*
X315862Y136811D01*
X317861D01*
X318861Y137811D01*
X320860Y141809D02*
X321860Y142809D01*
X323859D01*
X324859Y141809D01*
Y140810D01*
X323859Y139810D01*
X322860D01*
X323859D01*
X324859Y138810D01*
Y137811D01*
X323859Y136811D01*
X321860D01*
X320860Y137811D01*
X326858Y141809D02*
X327858Y142809D01*
X329857D01*
X330857Y141809D01*
Y140810D01*
X329857Y139810D01*
X328858D01*
X329857D01*
X330857Y138810D01*
Y137811D01*
X329857Y136811D01*
X327858D01*
X326858Y137811D01*
X135667Y175218D02*
X136666Y174218D01*
X138666D01*
X139665Y175218D01*
Y179217D01*
X138666Y180217D01*
X136666D01*
X135667Y179217D01*
X133667Y175218D02*
X132668Y174218D01*
X130668D01*
X129669Y175218D01*
Y176218D01*
X130668Y177217D01*
X131668D01*
X130668D01*
X129669Y178217D01*
Y179217D01*
X130668Y180217D01*
X132668D01*
X133667Y179217D01*
X123670Y180217D02*
X127669D01*
X123670Y176218D01*
Y175218D01*
X124670Y174218D01*
X126670D01*
X127669Y175218D01*
X324176Y106179D02*
X323176Y107179D01*
X321177D01*
X320177Y106179D01*
Y102181D01*
X321177Y101181D01*
X323176D01*
X324176Y102181D01*
X326175Y106179D02*
X327175Y107179D01*
X329174D01*
X330174Y106179D01*
Y105180D01*
X329174Y104180D01*
X328175D01*
X329174D01*
X330174Y103180D01*
Y102181D01*
X329174Y101181D01*
X327175D01*
X326175Y102181D01*
X332173Y101181D02*
X334173D01*
X333173D01*
Y107179D01*
X332173Y106179D01*
D11*
X168996Y181102D02*
D03*
D12*
X132677Y134252D02*
Y145276D01*
X116929Y134252D02*
Y145276D01*
Y134252D02*
X140551D01*
Y145276D01*
X116929D02*
X140551D01*
D13*
X172205Y138484D02*
Y185236D01*
Y138484D02*
X222441D01*
Y185236D01*
X191043D02*
X222441D01*
X172205D02*
X191043D01*
D14*
X181693Y14893D02*
X183530D01*
X182611D01*
Y12138D01*
X184448Y14893D02*
Y12138D01*
X185825D01*
X186285Y12597D01*
Y13056D01*
X185825Y13515D01*
X184448D01*
X185825D01*
X186285Y13974D01*
Y14434D01*
X185825Y14893D01*
X184448D01*
X189958Y12138D02*
Y14893D01*
X191335D01*
X191795Y14434D01*
Y13515D01*
X191335Y13056D01*
X189958D01*
X193172Y12138D02*
X194090D01*
X194550Y12597D01*
Y13515D01*
X194090Y13974D01*
X193172D01*
X192713Y13515D01*
Y12597D01*
X193172Y12138D01*
X195468Y13974D02*
Y12597D01*
X195927Y12138D01*
X196386Y12597D01*
X196845Y12138D01*
X197305Y12597D01*
Y13974D01*
X199601Y12138D02*
X198682D01*
X198223Y12597D01*
Y13515D01*
X198682Y13974D01*
X199601D01*
X200060Y13515D01*
Y13056D01*
X198223D01*
X200978Y13974D02*
Y12138D01*
Y13056D01*
X201437Y13515D01*
X201896Y13974D01*
X202356D01*
X208325Y14434D02*
X207866Y14893D01*
X206947D01*
X206488Y14434D01*
Y13974D01*
X206947Y13515D01*
X207866D01*
X208325Y13056D01*
Y12597D01*
X207866Y12138D01*
X206947D01*
X206488Y12597D01*
X209243Y13974D02*
Y12597D01*
X209702Y12138D01*
X211080D01*
Y13974D01*
X211998Y11219D02*
Y13974D01*
X213376D01*
X213835Y13515D01*
Y12597D01*
X213376Y12138D01*
X211998D01*
X214753Y11219D02*
Y13974D01*
X216131D01*
X216590Y13515D01*
Y12597D01*
X216131Y12138D01*
X214753D01*
X217508D02*
X218426D01*
X217967D01*
Y14893D01*
X217508D01*
X219804Y13974D02*
Y12597D01*
X220263Y12138D01*
X221641D01*
Y11678D01*
X221182Y11219D01*
X220722D01*
X221641Y12138D02*
Y13974D01*
X181693Y8333D02*
X182611Y6496D01*
X183530Y8333D01*
X184448Y6496D02*
X185366D01*
X184907D01*
Y9251D01*
X184448Y8792D01*
X186744Y6496D02*
Y6955D01*
X187203D01*
Y6496D01*
X186744D01*
X189040Y8792D02*
X189499Y9251D01*
X190417D01*
X190876Y8792D01*
Y6955D01*
X190417Y6496D01*
X189499D01*
X189040Y6955D01*
Y8792D01*
M02*
