%TF.GenerationSoftware,Altium Limited,Altium Designer,19.1.8 (144)*%
G04 Layer_Color=16711935*
%FSLAX26Y26*%
%MOIN*%
%TF.FileFunction,Other,Mechanical_13*%
%TF.Part,Single*%
G01*
G75*
%TA.AperFunction,NonConductor*%
%ADD35C,0.010000*%
%TA.AperFunction,OtherPad,Free Pad (1689.961mil,1811.024mil)*%
%ADD36C,0.039370*%
%TA.AperFunction,NonConductor*%
%ADD37C,0.003937*%
%ADD38C,0.007874*%
D35*
X382874Y1078740D02*
X985236D01*
X382874Y78740D02*
Y1078740D01*
Y78740D02*
X1587598D01*
Y1078740D01*
X985236D02*
X1587598D01*
X4232283Y755905D02*
Y1200787D01*
X3366142Y755905D02*
X4232283D01*
X3366142D02*
Y1645669D01*
X4232283D01*
Y1200787D02*
Y1645669D01*
D36*
X1689961Y1811024D02*
D03*
D37*
X1169291Y1452756D02*
X1405512D01*
Y1342520D02*
Y1452756D01*
X1169291Y1342520D02*
X1405512D01*
X1169291D02*
Y1452756D01*
X1326772Y1342520D02*
Y1452756D01*
X2791969Y1374646D02*
X2841575D01*
X2791969Y1290000D02*
X2841575D01*
Y1374646D01*
X2791969Y1290000D02*
Y1374646D01*
X2861969D02*
X2911575D01*
X2861969Y1290000D02*
X2911575D01*
Y1374646D01*
X2861969Y1290000D02*
Y1374646D01*
X2801968Y1110000D02*
X2851575D01*
X2801968Y1194646D02*
X2851575D01*
X2801968Y1110000D02*
Y1194646D01*
X2851575Y1110000D02*
Y1194646D01*
X2726969Y960000D02*
Y1044646D01*
X2776575Y960000D02*
Y1044646D01*
X2726969Y960000D02*
X2776575D01*
X2726969Y1044646D02*
X2776575D01*
X2801969Y961417D02*
Y1046063D01*
X2851575Y961417D02*
Y1046063D01*
X2801969Y961417D02*
X2851575D01*
X2801969Y1046063D02*
X2851575D01*
X3474134Y535590D02*
Y620236D01*
X3523740Y535590D02*
Y620236D01*
X3474134Y535590D02*
X3523740D01*
X3474134Y620236D02*
X3523740D01*
X3399134Y535590D02*
Y620236D01*
X3448740Y535590D02*
Y620236D01*
X3399134Y535590D02*
X3448740D01*
X3399134Y620236D02*
X3448740D01*
X3029449Y1272520D02*
X3114095D01*
X3029449Y1322126D02*
X3114095D01*
Y1272520D02*
Y1322126D01*
X3029449Y1272520D02*
Y1322126D01*
X3231969Y1125000D02*
Y1209646D01*
X3281575Y1125000D02*
Y1209646D01*
X3231969Y1125000D02*
X3281575D01*
X3231969Y1209646D02*
X3281575D01*
X1788386Y1649597D02*
Y1626639D01*
X1792977Y1622047D01*
X1802161D01*
X1806753Y1626639D01*
Y1649597D01*
X1815936Y1645006D02*
X1820528Y1649597D01*
X1829711D01*
X1834303Y1645006D01*
Y1640414D01*
X1829711Y1635822D01*
X1825119D01*
X1829711D01*
X1834303Y1631231D01*
Y1626639D01*
X1829711Y1622047D01*
X1820528D01*
X1815936Y1626639D01*
X1843486Y1622047D02*
X1852670D01*
X1848078D01*
Y1649597D01*
X1843486Y1645006D01*
X827756Y685031D02*
Y657480D01*
X846123D01*
X855306Y680439D02*
X859898Y685031D01*
X869081D01*
X873673Y680439D01*
Y675847D01*
X869081Y671255D01*
X864490D01*
X869081D01*
X873673Y666664D01*
Y662072D01*
X869081Y657480D01*
X859898D01*
X855306Y662072D01*
X901223Y657480D02*
X882856D01*
X901223Y675847D01*
Y680439D01*
X896631Y685031D01*
X887448D01*
X882856Y680439D01*
X3858259Y1318898D02*
X3830709D01*
Y1300531D01*
X3853667Y1291347D02*
X3858259Y1286756D01*
Y1277572D01*
X3853667Y1272981D01*
X3849075D01*
X3844484Y1277572D01*
Y1282164D01*
Y1277572D01*
X3839892Y1272981D01*
X3835300D01*
X3830709Y1277572D01*
Y1286756D01*
X3835300Y1291347D01*
X3830709Y1263797D02*
Y1254614D01*
Y1259206D01*
X3858259D01*
X3853667Y1263797D01*
D38*
X1722047Y1785433D02*
X1938976D01*
X2122441D01*
Y1450788D02*
Y1785433D01*
X1722047Y1450788D02*
X2122441D01*
X1722047D02*
Y1785433D01*
%TF.MD5,8a04979a91d34a50e8754e311f34630c*%
M02*
