%TF.GenerationSoftware,Altium Limited,Altium Designer,19.1.8 (144)*%
G04 Layer_Color=65535*
%FSLAX26Y26*%
%MOIN*%
%TF.FileFunction,Legend,Top*%
%TF.Part,Single*%
G01*
G75*
%TA.AperFunction,NonConductor*%
%ADD35C,0.010000*%
%TA.AperFunction,OtherPad,Free Pad (1689.961mil,1811.024mil)*%
%ADD36C,0.039370*%
%TA.AperFunction,NonConductor*%
%ADD37C,0.003937*%
%ADD38C,0.007874*%
%ADD39C,0.005906*%
G36*
X3433452Y2278159D02*
X3450988D01*
Y2275236D01*
X3468525D01*
Y2272314D01*
X3486061D01*
Y2269391D01*
X3503597D01*
Y2266468D01*
X3521133D01*
Y2263545D01*
X3503597D01*
Y2260623D01*
X3486061D01*
Y2257700D01*
X3468525D01*
Y2254777D01*
X3450988D01*
Y2251854D01*
X3433452D01*
Y2248932D01*
X3427607D01*
Y2251854D01*
X3410070D01*
Y2254777D01*
X3392534D01*
Y2257700D01*
X3374998D01*
Y2260623D01*
X3357461D01*
Y2263545D01*
X3339925D01*
Y2266468D01*
X3357461D01*
Y2269391D01*
X3374998D01*
Y2272314D01*
X3392534D01*
Y2275236D01*
X3410070D01*
Y2278159D01*
X3427607D01*
Y2281082D01*
X3433452D01*
Y2278159D01*
D02*
G37*
G36*
X3594201Y2210936D02*
X3591279D01*
Y2208014D01*
X3588356D01*
Y2205091D01*
X3585433D01*
Y2202168D01*
X3582510D01*
Y2199246D01*
X3579588D01*
Y2196323D01*
Y2193400D01*
X3576665D01*
Y2190477D01*
X3573742D01*
Y2187555D01*
X3570820D01*
Y2184632D01*
X3567897D01*
Y2181709D01*
X3564974D01*
Y2178787D01*
Y2175864D01*
X3562052D01*
Y2172941D01*
X3559129D01*
Y2170019D01*
X3556206D01*
Y2167096D01*
X3553283D01*
Y2164173D01*
X3550361D01*
Y2161250D01*
Y2158328D01*
X3547438D01*
Y2155405D01*
X3544515D01*
Y2152482D01*
X3541593D01*
Y2149559D01*
X3538670D01*
Y2146637D01*
X3535747D01*
Y2143714D01*
Y2140791D01*
X3532824D01*
Y2137869D01*
X3529902D01*
Y2134946D01*
X3526979D01*
Y2132023D01*
Y2129100D01*
Y2126178D01*
X3524056D01*
Y2123255D01*
Y2120332D01*
X3521133D01*
Y2117410D01*
Y2114487D01*
Y2111564D01*
X3518211D01*
Y2108641D01*
Y2105719D01*
X3515288D01*
Y2102796D01*
Y2099873D01*
Y2096951D01*
X3512365D01*
Y2094028D01*
Y2091105D01*
X3509443D01*
Y2088182D01*
Y2085260D01*
Y2082337D01*
X3506520D01*
Y2079414D01*
Y2076492D01*
X3503597D01*
Y2073569D01*
Y2070646D01*
Y2067723D01*
X3500675D01*
Y2064801D01*
Y2061878D01*
X3497752D01*
Y2058955D01*
Y2056033D01*
Y2053110D01*
X3494829D01*
Y2050187D01*
Y2047264D01*
X3491906D01*
Y2044342D01*
Y2041419D01*
Y2038496D01*
X3488984D01*
Y2035574D01*
Y2032651D01*
X3486061D01*
Y2029728D01*
Y2026805D01*
Y2023883D01*
X3483138D01*
Y2020960D01*
Y2018037D01*
X3480215D01*
Y2015115D01*
Y2012192D01*
Y2009269D01*
X3477293D01*
Y2012192D01*
Y2015115D01*
Y2018037D01*
Y2020960D01*
Y2023883D01*
Y2026805D01*
X3480215D01*
Y2029728D01*
Y2032651D01*
Y2035574D01*
Y2038496D01*
Y2041419D01*
Y2044342D01*
X3483138D01*
Y2047264D01*
Y2050187D01*
Y2053110D01*
Y2056033D01*
Y2058955D01*
Y2061878D01*
X3486061D01*
Y2064801D01*
Y2067723D01*
Y2070646D01*
Y2073569D01*
Y2076492D01*
X3488984D01*
Y2079414D01*
Y2082337D01*
Y2085260D01*
Y2088182D01*
Y2091105D01*
Y2094028D01*
X3491906D01*
Y2096951D01*
Y2099873D01*
Y2102796D01*
Y2105719D01*
Y2108641D01*
Y2111564D01*
X3494829D01*
Y2114487D01*
Y2117410D01*
Y2120332D01*
Y2123255D01*
Y2126178D01*
Y2129100D01*
X3497752D01*
Y2132023D01*
Y2134946D01*
Y2137869D01*
Y2140791D01*
Y2143714D01*
Y2146637D01*
X3500675D01*
Y2149559D01*
Y2152482D01*
Y2155405D01*
Y2158328D01*
X3506520D01*
Y2161250D01*
X3509443D01*
Y2164173D01*
X3515288D01*
Y2167096D01*
X3518211D01*
Y2170019D01*
X3524056D01*
Y2172941D01*
X3526979D01*
Y2175864D01*
X3532824D01*
Y2178787D01*
X3538670D01*
Y2181709D01*
X3541593D01*
Y2184632D01*
X3547438D01*
Y2187555D01*
X3550361D01*
Y2190477D01*
X3556206D01*
Y2193400D01*
X3559129D01*
Y2196323D01*
X3564974D01*
Y2199246D01*
X3570820D01*
Y2202168D01*
X3573742D01*
Y2205091D01*
X3579588D01*
Y2208014D01*
X3582510D01*
Y2210936D01*
X3588356D01*
Y2213859D01*
X3594201D01*
Y2210936D01*
D02*
G37*
G36*
X3272703D02*
X3278548D01*
Y2208014D01*
X3281471D01*
Y2205091D01*
X3287316D01*
Y2202168D01*
X3290239D01*
Y2199246D01*
X3296084D01*
Y2196323D01*
X3299007D01*
Y2193400D01*
X3304853D01*
Y2190477D01*
X3310698D01*
Y2187555D01*
X3313621D01*
Y2184632D01*
X3319466D01*
Y2181709D01*
X3322389D01*
Y2178787D01*
X3328234D01*
Y2175864D01*
X3331157D01*
Y2172941D01*
X3337003D01*
Y2170019D01*
X3342848D01*
Y2167096D01*
X3345771D01*
Y2164173D01*
X3351616D01*
Y2161250D01*
X3354539D01*
Y2158328D01*
X3360384D01*
Y2155405D01*
Y2152482D01*
Y2149559D01*
Y2146637D01*
X3363307D01*
Y2143714D01*
Y2140791D01*
Y2137869D01*
Y2134946D01*
Y2132023D01*
Y2129100D01*
X3366230D01*
Y2126178D01*
Y2123255D01*
Y2120332D01*
Y2117410D01*
Y2114487D01*
Y2111564D01*
X3369152D01*
Y2108641D01*
Y2105719D01*
Y2102796D01*
Y2099873D01*
Y2096951D01*
Y2094028D01*
X3372075D01*
Y2091105D01*
Y2088182D01*
Y2085260D01*
Y2082337D01*
Y2079414D01*
Y2076492D01*
X3374998D01*
Y2073569D01*
Y2070646D01*
Y2067723D01*
Y2064801D01*
Y2061878D01*
Y2058955D01*
X3377921D01*
Y2056033D01*
Y2053110D01*
Y2050187D01*
Y2047264D01*
Y2044342D01*
Y2041419D01*
X3380843D01*
Y2038496D01*
Y2035574D01*
Y2032651D01*
Y2029728D01*
Y2026805D01*
Y2023883D01*
X3383766D01*
Y2020960D01*
Y2018037D01*
Y2015115D01*
Y2012192D01*
Y2009269D01*
X3380843D01*
Y2012192D01*
Y2015115D01*
X3377921D01*
Y2018037D01*
Y2020960D01*
Y2023883D01*
X3374998D01*
Y2026805D01*
Y2029728D01*
X3372075D01*
Y2032651D01*
Y2035574D01*
Y2038496D01*
X3369152D01*
Y2041419D01*
Y2044342D01*
X3366230D01*
Y2047264D01*
Y2050187D01*
Y2053110D01*
X3363307D01*
Y2056033D01*
Y2058955D01*
X3360384D01*
Y2061878D01*
Y2064801D01*
Y2067723D01*
X3357461D01*
Y2070646D01*
Y2073569D01*
X3354539D01*
Y2076492D01*
Y2079414D01*
Y2082337D01*
X3351616D01*
Y2085260D01*
Y2088182D01*
X3348693D01*
Y2091105D01*
Y2094028D01*
Y2096951D01*
X3345771D01*
Y2099873D01*
Y2102796D01*
X3342848D01*
Y2105719D01*
Y2108641D01*
Y2111564D01*
X3339925D01*
Y2114487D01*
Y2117410D01*
X3337003D01*
Y2120332D01*
Y2123255D01*
Y2126178D01*
X3334080D01*
Y2129100D01*
Y2132023D01*
X3331157D01*
Y2134946D01*
Y2137869D01*
X3328234D01*
Y2140791D01*
X3325312D01*
Y2143714D01*
Y2146637D01*
X3322389D01*
Y2149559D01*
X3319466D01*
Y2152482D01*
X3316544D01*
Y2155405D01*
X3313621D01*
Y2158328D01*
X3310698D01*
Y2161250D01*
Y2164173D01*
X3307775D01*
Y2167096D01*
X3304853D01*
Y2170019D01*
X3301930D01*
Y2172941D01*
X3299007D01*
Y2175864D01*
X3296084D01*
Y2178787D01*
Y2181709D01*
X3293162D01*
Y2184632D01*
X3290239D01*
Y2187555D01*
X3287316D01*
Y2190477D01*
X3284394D01*
Y2193400D01*
X3281471D01*
Y2196323D01*
Y2199246D01*
X3278548D01*
Y2202168D01*
X3275625D01*
Y2205091D01*
X3272703D01*
Y2208014D01*
X3269780D01*
Y2210936D01*
X3266857D01*
Y2213859D01*
X3272703D01*
Y2210936D01*
D02*
G37*
G36*
X3585433Y2246009D02*
X3579588D01*
Y2243086D01*
X3576665D01*
Y2240164D01*
X3570820D01*
Y2237241D01*
X3567897D01*
Y2234318D01*
X3562052D01*
Y2231396D01*
X3559129D01*
Y2228473D01*
X3553283D01*
Y2225550D01*
X3550361D01*
Y2222627D01*
X3544515D01*
Y2219705D01*
X3541593D01*
Y2216782D01*
X3535747D01*
Y2213859D01*
X3529902D01*
Y2210936D01*
X3526979D01*
Y2208014D01*
X3521133D01*
Y2205091D01*
X3518211D01*
Y2202168D01*
X3512365D01*
Y2199246D01*
X3509443D01*
Y2196323D01*
X3503597D01*
Y2193400D01*
X3500675D01*
Y2190477D01*
X3494829D01*
Y2187555D01*
X3491906D01*
Y2184632D01*
X3486061D01*
Y2181709D01*
X3483138D01*
Y2178787D01*
X3477293D01*
Y2175864D01*
Y2172941D01*
Y2170019D01*
X3474370D01*
Y2167096D01*
Y2164173D01*
Y2161250D01*
Y2158328D01*
Y2155405D01*
Y2152482D01*
X3471447D01*
Y2149559D01*
Y2146637D01*
Y2143714D01*
Y2140791D01*
Y2137869D01*
Y2134946D01*
Y2132023D01*
X3468525D01*
Y2129100D01*
Y2126178D01*
Y2123255D01*
Y2120332D01*
Y2117410D01*
Y2114487D01*
X3465602D01*
Y2111564D01*
Y2108641D01*
Y2105719D01*
Y2102796D01*
Y2099873D01*
Y2096951D01*
X3462679D01*
Y2094028D01*
Y2091105D01*
Y2088182D01*
Y2085260D01*
Y2082337D01*
Y2079414D01*
Y2076492D01*
X3459756D01*
Y2073569D01*
Y2070646D01*
Y2067723D01*
Y2064801D01*
Y2061878D01*
Y2058955D01*
X3456834D01*
Y2056033D01*
Y2053110D01*
Y2050187D01*
Y2047264D01*
Y2044342D01*
Y2041419D01*
Y2038496D01*
X3453911D01*
Y2035574D01*
Y2032651D01*
Y2029728D01*
Y2026805D01*
Y2023883D01*
Y2020960D01*
X3450988D01*
Y2018037D01*
Y2015115D01*
Y2012192D01*
Y2009269D01*
Y2006346D01*
Y2003424D01*
X3448066D01*
Y2000501D01*
Y1997578D01*
Y1994656D01*
Y1991733D01*
Y1988810D01*
Y1985888D01*
Y1982965D01*
X3445143D01*
Y1980042D01*
Y1977119D01*
Y1974197D01*
Y1971274D01*
Y1968351D01*
Y1965428D01*
X3442220D01*
Y1968351D01*
Y1971274D01*
Y1974197D01*
Y1977119D01*
Y1980042D01*
Y1982965D01*
Y1985888D01*
Y1988810D01*
Y1991733D01*
Y1994656D01*
Y1997578D01*
Y2000501D01*
Y2003424D01*
Y2006346D01*
Y2009269D01*
Y2012192D01*
Y2015115D01*
Y2018037D01*
Y2020960D01*
Y2023883D01*
Y2026805D01*
Y2029728D01*
Y2032651D01*
Y2035574D01*
Y2038496D01*
Y2041419D01*
Y2044342D01*
Y2047264D01*
Y2050187D01*
Y2053110D01*
Y2056033D01*
Y2058955D01*
Y2061878D01*
Y2064801D01*
Y2067723D01*
Y2070646D01*
Y2073569D01*
Y2076492D01*
Y2079414D01*
Y2082337D01*
Y2085260D01*
Y2088182D01*
Y2091105D01*
Y2094028D01*
Y2096951D01*
Y2099873D01*
Y2102796D01*
Y2105719D01*
Y2108641D01*
Y2111564D01*
Y2114487D01*
Y2117410D01*
Y2120332D01*
Y2123255D01*
Y2126178D01*
Y2129100D01*
Y2132023D01*
Y2134946D01*
Y2137869D01*
Y2140791D01*
Y2143714D01*
Y2146637D01*
Y2149559D01*
Y2152482D01*
Y2155405D01*
Y2158328D01*
Y2161250D01*
Y2164173D01*
Y2167096D01*
Y2170019D01*
Y2172941D01*
Y2175864D01*
Y2178787D01*
Y2181709D01*
Y2184632D01*
Y2187555D01*
Y2190477D01*
Y2193400D01*
Y2196323D01*
Y2199246D01*
Y2202168D01*
Y2205091D01*
Y2208014D01*
Y2210936D01*
Y2213859D01*
Y2216782D01*
Y2219705D01*
Y2222627D01*
Y2225550D01*
X3445143D01*
Y2228473D01*
X3462679D01*
Y2231396D01*
X3480215D01*
Y2234318D01*
X3497752D01*
Y2237241D01*
X3515288D01*
Y2240164D01*
X3532824D01*
Y2243086D01*
X3553283D01*
Y2246009D01*
X3570820D01*
Y2248932D01*
X3585433D01*
Y2246009D01*
D02*
G37*
G36*
X3290239D02*
X3307775D01*
Y2243086D01*
X3325312D01*
Y2240164D01*
X3345771D01*
Y2237241D01*
X3363307D01*
Y2234318D01*
X3380843D01*
Y2231396D01*
X3398380D01*
Y2228473D01*
X3415916D01*
Y2225550D01*
X3418838D01*
Y2222627D01*
Y2219705D01*
Y2216782D01*
Y2213859D01*
Y2210936D01*
Y2208014D01*
Y2205091D01*
Y2202168D01*
Y2199246D01*
Y2196323D01*
Y2193400D01*
Y2190477D01*
Y2187555D01*
Y2184632D01*
Y2181709D01*
Y2178787D01*
Y2175864D01*
Y2172941D01*
Y2170019D01*
Y2167096D01*
Y2164173D01*
Y2161250D01*
Y2158328D01*
Y2155405D01*
Y2152482D01*
Y2149559D01*
Y2146637D01*
Y2143714D01*
Y2140791D01*
Y2137869D01*
Y2134946D01*
Y2132023D01*
Y2129100D01*
Y2126178D01*
Y2123255D01*
Y2120332D01*
Y2117410D01*
Y2114487D01*
Y2111564D01*
Y2108641D01*
Y2105719D01*
Y2102796D01*
Y2099873D01*
Y2096951D01*
Y2094028D01*
Y2091105D01*
Y2088182D01*
Y2085260D01*
Y2082337D01*
Y2079414D01*
Y2076492D01*
Y2073569D01*
Y2070646D01*
Y2067723D01*
Y2064801D01*
Y2061878D01*
Y2058955D01*
Y2056033D01*
Y2053110D01*
Y2050187D01*
Y2047264D01*
Y2044342D01*
Y2041419D01*
Y2038496D01*
Y2035574D01*
Y2032651D01*
Y2029728D01*
Y2026805D01*
Y2023883D01*
Y2020960D01*
Y2018037D01*
Y2015115D01*
Y2012192D01*
Y2009269D01*
Y2006346D01*
Y2003424D01*
Y2000501D01*
Y1997578D01*
Y1994656D01*
Y1991733D01*
Y1988810D01*
Y1985888D01*
Y1982965D01*
Y1980042D01*
Y1977119D01*
Y1974197D01*
Y1971274D01*
Y1968351D01*
Y1965428D01*
Y1962506D01*
X3415916D01*
Y1965428D01*
Y1968351D01*
Y1971274D01*
Y1974197D01*
Y1977119D01*
Y1980042D01*
Y1982965D01*
X3412993D01*
Y1985888D01*
Y1988810D01*
Y1991733D01*
Y1994656D01*
Y1997578D01*
Y2000501D01*
X3410070D01*
Y2003424D01*
Y2006346D01*
Y2009269D01*
Y2012192D01*
Y2015115D01*
Y2018037D01*
Y2020960D01*
X3407148D01*
Y2023883D01*
Y2026805D01*
Y2029728D01*
Y2032651D01*
Y2035574D01*
Y2038496D01*
X3404225D01*
Y2041419D01*
Y2044342D01*
Y2047264D01*
Y2050187D01*
Y2053110D01*
Y2056033D01*
X3401302D01*
Y2058955D01*
Y2061878D01*
Y2064801D01*
Y2067723D01*
Y2070646D01*
Y2073569D01*
Y2076492D01*
X3398380D01*
Y2079414D01*
Y2082337D01*
Y2085260D01*
Y2088182D01*
Y2091105D01*
Y2094028D01*
X3395457D01*
Y2096951D01*
Y2099873D01*
Y2102796D01*
Y2105719D01*
Y2108641D01*
Y2111564D01*
Y2114487D01*
X3392534D01*
Y2117410D01*
Y2120332D01*
Y2123255D01*
Y2126178D01*
Y2129100D01*
Y2132023D01*
X3389611D01*
Y2134946D01*
Y2137869D01*
Y2140791D01*
Y2143714D01*
Y2146637D01*
Y2149559D01*
X3386689D01*
Y2152482D01*
Y2155405D01*
Y2158328D01*
Y2161250D01*
Y2164173D01*
Y2167096D01*
Y2170019D01*
X3383766D01*
Y2172941D01*
Y2175864D01*
Y2178787D01*
X3377921D01*
Y2181709D01*
X3374998D01*
Y2184632D01*
X3369152D01*
Y2187555D01*
X3366230D01*
Y2190477D01*
X3360384D01*
Y2193400D01*
X3357461D01*
Y2196323D01*
X3351616D01*
Y2199246D01*
X3348693D01*
Y2202168D01*
X3342848D01*
Y2205091D01*
X3337003D01*
Y2208014D01*
X3334080D01*
Y2210936D01*
X3328234D01*
Y2213859D01*
X3325312D01*
Y2216782D01*
X3319466D01*
Y2219705D01*
X3316544D01*
Y2222627D01*
X3310698D01*
Y2225550D01*
X3307775D01*
Y2228473D01*
X3301930D01*
Y2231396D01*
X3299007D01*
Y2234318D01*
X3293162D01*
Y2237241D01*
X3290239D01*
Y2240164D01*
X3284394D01*
Y2243086D01*
X3281471D01*
Y2246009D01*
X3275625D01*
Y2248932D01*
X3290239D01*
Y2246009D01*
D02*
G37*
G36*
X3495657Y1911631D02*
X3496240D01*
X3497625Y1911486D01*
X3499156Y1911267D01*
X3500760Y1910902D01*
X3502509Y1910465D01*
X3504186Y1909882D01*
X3504259D01*
X3504405Y1909809D01*
X3504623Y1909736D01*
X3504915Y1909590D01*
X3505717Y1909153D01*
X3506738Y1908642D01*
X3507831Y1907913D01*
X3508997Y1907039D01*
X3510091Y1906091D01*
X3511111Y1904925D01*
X3511257Y1904779D01*
X3511549Y1904341D01*
X3511986Y1903685D01*
X3512570Y1902737D01*
X3513153Y1901571D01*
X3513809Y1900113D01*
X3514465Y1898509D01*
X3514975Y1896687D01*
X3508925Y1895083D01*
Y1895156D01*
X3508852Y1895229D01*
X3508779Y1895447D01*
X3508706Y1895739D01*
X3508487Y1896395D01*
X3508195Y1897270D01*
X3507758Y1898291D01*
X3507248Y1899238D01*
X3506738Y1900259D01*
X3506081Y1901134D01*
X3506008Y1901207D01*
X3505790Y1901498D01*
X3505352Y1901863D01*
X3504842Y1902373D01*
X3504186Y1902956D01*
X3503311Y1903539D01*
X3502363Y1904123D01*
X3501270Y1904633D01*
X3501124Y1904706D01*
X3500760Y1904852D01*
X3500104Y1905070D01*
X3499229Y1905362D01*
X3498208Y1905581D01*
X3497042Y1905799D01*
X3495730Y1905945D01*
X3494345Y1906018D01*
X3493543D01*
X3493178Y1905945D01*
X3492741D01*
X3491647Y1905872D01*
X3490408Y1905653D01*
X3489023Y1905435D01*
X3487711Y1905070D01*
X3486398Y1904560D01*
X3486253Y1904487D01*
X3485815Y1904341D01*
X3485232Y1903977D01*
X3484503Y1903612D01*
X3483628Y1903029D01*
X3482680Y1902446D01*
X3481806Y1901717D01*
X3481004Y1900915D01*
X3480931Y1900842D01*
X3480639Y1900551D01*
X3480275Y1900040D01*
X3479837Y1899457D01*
X3479327Y1898728D01*
X3478817Y1897853D01*
X3478307Y1896906D01*
X3477796Y1895885D01*
Y1895812D01*
X3477723Y1895666D01*
X3477650Y1895447D01*
X3477505Y1895083D01*
X3477359Y1894646D01*
X3477213Y1894135D01*
X3476994Y1893552D01*
X3476849Y1892896D01*
X3476484Y1891365D01*
X3476192Y1889616D01*
X3475974Y1887793D01*
X3475901Y1885752D01*
Y1885679D01*
Y1885460D01*
Y1885096D01*
X3475974Y1884658D01*
Y1884075D01*
X3476047Y1883346D01*
X3476119Y1882617D01*
X3476192Y1881815D01*
X3476484Y1879993D01*
X3476849Y1878097D01*
X3477432Y1876202D01*
X3478161Y1874379D01*
Y1874306D01*
X3478307Y1874161D01*
X3478379Y1873942D01*
X3478598Y1873650D01*
X3479108Y1872849D01*
X3479910Y1871828D01*
X3480858Y1870734D01*
X3482024Y1869641D01*
X3483410Y1868620D01*
X3484940Y1867673D01*
X3485013D01*
X3485159Y1867600D01*
X3485378Y1867454D01*
X3485742Y1867308D01*
X3486107Y1867162D01*
X3486617Y1867016D01*
X3487784Y1866579D01*
X3489242Y1866215D01*
X3490845Y1865850D01*
X3492595Y1865559D01*
X3494417Y1865486D01*
X3495146D01*
X3495584Y1865559D01*
X3496021D01*
X3497115Y1865704D01*
X3498427Y1865850D01*
X3499812Y1866142D01*
X3501343Y1866579D01*
X3502874Y1867089D01*
X3502947D01*
X3503093Y1867162D01*
X3503238Y1867235D01*
X3503530Y1867381D01*
X3504332Y1867745D01*
X3505207Y1868183D01*
X3506227Y1868693D01*
X3507321Y1869276D01*
X3508341Y1869932D01*
X3509216Y1870661D01*
Y1880139D01*
X3494345D01*
Y1886116D01*
X3515777D01*
Y1867381D01*
X3515704Y1867308D01*
X3515558Y1867235D01*
X3515267Y1867016D01*
X3514902Y1866725D01*
X3514465Y1866433D01*
X3513955Y1866069D01*
X3513298Y1865631D01*
X3512642Y1865194D01*
X3511111Y1864246D01*
X3509362Y1863226D01*
X3507539Y1862278D01*
X3505571Y1861476D01*
X3505498D01*
X3505352Y1861403D01*
X3505061Y1861330D01*
X3504696Y1861185D01*
X3504186Y1861039D01*
X3503603Y1860820D01*
X3502947Y1860674D01*
X3502291Y1860528D01*
X3500687Y1860164D01*
X3498864Y1859799D01*
X3496896Y1859581D01*
X3494855Y1859508D01*
X3494126D01*
X3493615Y1859581D01*
X3492959D01*
X3492157Y1859654D01*
X3491283Y1859799D01*
X3490335Y1859872D01*
X3488221Y1860310D01*
X3485961Y1860820D01*
X3483628Y1861622D01*
X3482462Y1862059D01*
X3481295Y1862642D01*
X3481222Y1862715D01*
X3481004Y1862788D01*
X3480712Y1863007D01*
X3480275Y1863226D01*
X3479765Y1863590D01*
X3479254Y1863955D01*
X3477869Y1864975D01*
X3476411Y1866287D01*
X3474880Y1867891D01*
X3473422Y1869714D01*
X3472110Y1871828D01*
Y1871901D01*
X3471964Y1872120D01*
X3471818Y1872411D01*
X3471600Y1872921D01*
X3471381Y1873432D01*
X3471162Y1874161D01*
X3470871Y1874890D01*
X3470579Y1875764D01*
X3470287Y1876712D01*
X3469996Y1877806D01*
X3469777Y1878899D01*
X3469559Y1880066D01*
X3469194Y1882617D01*
X3469048Y1885314D01*
Y1885387D01*
Y1885679D01*
Y1886043D01*
X3469121Y1886554D01*
Y1887210D01*
X3469194Y1888012D01*
X3469340Y1888814D01*
X3469413Y1889761D01*
X3469631Y1890782D01*
X3469777Y1891875D01*
X3470360Y1894208D01*
X3471089Y1896614D01*
X3472110Y1899020D01*
X3472183Y1899092D01*
X3472256Y1899311D01*
X3472402Y1899603D01*
X3472693Y1900040D01*
X3472985Y1900623D01*
X3473349Y1901207D01*
X3474370Y1902592D01*
X3475609Y1904196D01*
X3477140Y1905726D01*
X3478890Y1907257D01*
X3479910Y1907913D01*
X3480931Y1908570D01*
X3481004Y1908642D01*
X3481222Y1908715D01*
X3481514Y1908861D01*
X3481952Y1909080D01*
X3482535Y1909299D01*
X3483191Y1909590D01*
X3483920Y1909882D01*
X3484795Y1910173D01*
X3485742Y1910465D01*
X3486763Y1910684D01*
X3487856Y1910975D01*
X3489023Y1911194D01*
X3491574Y1911558D01*
X3492887Y1911704D01*
X3495219D01*
X3495657Y1911631D01*
D02*
G37*
G36*
X3392941Y1860383D02*
X3386015D01*
X3359625Y1899967D01*
Y1860383D01*
X3353210D01*
Y1910829D01*
X3360063D01*
X3386525Y1871172D01*
Y1910829D01*
X3392941D01*
Y1860383D01*
D02*
G37*
G36*
X3425454D02*
X3418456D01*
X3398918Y1910829D01*
X3406208D01*
X3419330Y1874161D01*
Y1874088D01*
X3419403Y1873942D01*
X3419476Y1873723D01*
X3419622Y1873432D01*
X3419695Y1872994D01*
X3419841Y1872557D01*
X3420205Y1871463D01*
X3420643Y1870224D01*
X3421080Y1868839D01*
X3421955Y1865923D01*
Y1865996D01*
X3422028Y1866142D01*
X3422101Y1866360D01*
X3422173Y1866652D01*
X3422392Y1867454D01*
X3422757Y1868547D01*
X3423121Y1869787D01*
X3423559Y1871172D01*
X3424069Y1872630D01*
X3424652Y1874161D01*
X3438357Y1910829D01*
X3445137D01*
X3425454Y1860383D01*
D02*
G37*
G36*
X3532034Y1866360D02*
X3556893D01*
Y1860383D01*
X3525327D01*
Y1910829D01*
X3532034D01*
Y1866360D01*
D02*
G37*
G36*
X3323102Y1910756D02*
X3324560Y1910684D01*
X3326018Y1910538D01*
X3327476Y1910319D01*
X3328716Y1910100D01*
X3328789D01*
X3328934Y1910027D01*
X3329153D01*
X3329445Y1909882D01*
X3330247Y1909663D01*
X3331267Y1909299D01*
X3332434Y1908788D01*
X3333673Y1908132D01*
X3334912Y1907403D01*
X3336079Y1906455D01*
X3336151Y1906382D01*
X3336224Y1906310D01*
X3336443Y1906091D01*
X3336735Y1905872D01*
X3337464Y1905143D01*
X3338338Y1904123D01*
X3339286Y1902883D01*
X3340307Y1901425D01*
X3341255Y1899749D01*
X3342056Y1897853D01*
Y1897780D01*
X3342129Y1897634D01*
X3342275Y1897343D01*
X3342348Y1896906D01*
X3342567Y1896395D01*
X3342713Y1895812D01*
X3342858Y1895156D01*
X3343077Y1894354D01*
X3343296Y1893552D01*
X3343441Y1892604D01*
X3343806Y1890563D01*
X3344025Y1888303D01*
X3344098Y1885825D01*
Y1885752D01*
Y1885606D01*
Y1885242D01*
Y1884877D01*
X3344025Y1884367D01*
Y1883784D01*
X3343952Y1882398D01*
X3343733Y1880795D01*
X3343514Y1879118D01*
X3343150Y1877368D01*
X3342713Y1875619D01*
Y1875546D01*
X3342640Y1875400D01*
X3342567Y1875181D01*
X3342494Y1874890D01*
X3342202Y1874088D01*
X3341765Y1873067D01*
X3341327Y1871901D01*
X3340744Y1870734D01*
X3340015Y1869495D01*
X3339286Y1868329D01*
X3339213Y1868183D01*
X3338922Y1867818D01*
X3338484Y1867308D01*
X3337901Y1866652D01*
X3337245Y1865923D01*
X3336443Y1865194D01*
X3335641Y1864392D01*
X3334693Y1863736D01*
X3334548Y1863663D01*
X3334256Y1863444D01*
X3333746Y1863153D01*
X3333017Y1862788D01*
X3332142Y1862351D01*
X3331121Y1861986D01*
X3329955Y1861549D01*
X3328643Y1861185D01*
X3328497D01*
X3328278Y1861112D01*
X3328060Y1861039D01*
X3327331Y1860966D01*
X3326310Y1860820D01*
X3325144Y1860674D01*
X3323758Y1860528D01*
X3322228Y1860456D01*
X3320551Y1860383D01*
X3302399D01*
Y1910829D01*
X3321790D01*
X3323102Y1910756D01*
D02*
G37*
G36*
X3439086Y1842347D02*
X3432890D01*
Y1849418D01*
X3439086D01*
Y1842347D01*
D02*
G37*
G36*
X3600414Y1836296D02*
X3601216Y1836151D01*
X3602164Y1835859D01*
X3603184Y1835495D01*
X3604351Y1834984D01*
X3605590Y1834328D01*
X3603330Y1828642D01*
X3603257Y1828715D01*
X3602965Y1828861D01*
X3602528Y1829079D01*
X3601945Y1829298D01*
X3601289Y1829517D01*
X3600487Y1829736D01*
X3599685Y1829881D01*
X3598883Y1829954D01*
X3598519D01*
X3598154Y1829881D01*
X3597644Y1829808D01*
X3597133Y1829663D01*
X3596477Y1829444D01*
X3595821Y1829152D01*
X3595238Y1828715D01*
X3595165Y1828642D01*
X3594947Y1828496D01*
X3594728Y1828205D01*
X3594363Y1827840D01*
X3593999Y1827330D01*
X3593634Y1826747D01*
X3593270Y1826091D01*
X3592978Y1825289D01*
X3592905Y1825143D01*
X3592832Y1824705D01*
X3592687Y1824049D01*
X3592468Y1823175D01*
X3592249Y1822081D01*
X3592103Y1820842D01*
X3592030Y1819530D01*
X3591958Y1818072D01*
Y1798972D01*
X3585761D01*
Y1835568D01*
X3591374D01*
Y1830027D01*
X3591447Y1830100D01*
X3591739Y1830610D01*
X3592103Y1831266D01*
X3592687Y1832068D01*
X3593270Y1832870D01*
X3593926Y1833745D01*
X3594582Y1834474D01*
X3595238Y1835057D01*
X3595311Y1835130D01*
X3595530Y1835276D01*
X3595967Y1835495D01*
X3596405Y1835713D01*
X3596988Y1835932D01*
X3597717Y1836151D01*
X3598446Y1836296D01*
X3599248Y1836369D01*
X3599758D01*
X3600414Y1836296D01*
D02*
G37*
G36*
X3325216Y1798972D02*
X3319676D01*
Y1804293D01*
X3319603Y1804220D01*
X3319457Y1804002D01*
X3319239Y1803710D01*
X3318874Y1803346D01*
X3318437Y1802908D01*
X3317927Y1802325D01*
X3317343Y1801815D01*
X3316614Y1801232D01*
X3315812Y1800648D01*
X3314938Y1800138D01*
X3313990Y1799628D01*
X3312969Y1799117D01*
X3311803Y1798753D01*
X3310637Y1798461D01*
X3309324Y1798243D01*
X3308012Y1798170D01*
X3307502D01*
X3306846Y1798243D01*
X3306044Y1798315D01*
X3305096Y1798461D01*
X3304075Y1798680D01*
X3303055Y1798972D01*
X3301961Y1799409D01*
X3301816Y1799482D01*
X3301524Y1799628D01*
X3301014Y1799919D01*
X3300430Y1800284D01*
X3299702Y1800721D01*
X3299045Y1801232D01*
X3298389Y1801815D01*
X3297806Y1802471D01*
X3297733Y1802544D01*
X3297587Y1802835D01*
X3297369Y1803200D01*
X3297077Y1803783D01*
X3296713Y1804439D01*
X3296421Y1805241D01*
X3296129Y1806116D01*
X3295911Y1807063D01*
Y1807136D01*
X3295838Y1807428D01*
X3295765Y1807865D01*
Y1808449D01*
X3295692Y1809323D01*
X3295619Y1810271D01*
X3295546Y1811510D01*
Y1812896D01*
Y1835567D01*
X3301743D01*
Y1815228D01*
Y1815155D01*
Y1815010D01*
Y1814791D01*
Y1814426D01*
Y1813624D01*
X3301816Y1812604D01*
Y1811510D01*
X3301889Y1810417D01*
X3301961Y1809469D01*
X3302107Y1808667D01*
Y1808594D01*
X3302253Y1808303D01*
X3302399Y1807865D01*
X3302617Y1807282D01*
X3302982Y1806699D01*
X3303419Y1806043D01*
X3303930Y1805460D01*
X3304586Y1804877D01*
X3304659Y1804804D01*
X3304950Y1804658D01*
X3305315Y1804439D01*
X3305898Y1804220D01*
X3306554Y1803929D01*
X3307356Y1803710D01*
X3308231Y1803564D01*
X3309251Y1803491D01*
X3309762D01*
X3310272Y1803564D01*
X3310928Y1803637D01*
X3311730Y1803856D01*
X3312605Y1804075D01*
X3313552Y1804439D01*
X3314500Y1804877D01*
X3314646Y1804949D01*
X3314938Y1805168D01*
X3315375Y1805460D01*
X3315885Y1805897D01*
X3316468Y1806480D01*
X3317052Y1807136D01*
X3317562Y1807865D01*
X3317999Y1808740D01*
X3318072Y1808886D01*
X3318145Y1809178D01*
X3318291Y1809761D01*
X3318510Y1810563D01*
X3318728Y1811583D01*
X3318874Y1812823D01*
X3318947Y1814281D01*
X3319020Y1815957D01*
Y1835567D01*
X3325216D01*
Y1798972D01*
D02*
G37*
G36*
X3493980Y1831339D02*
X3494053Y1831412D01*
X3494199Y1831558D01*
X3494417Y1831777D01*
X3494782Y1832141D01*
X3495146Y1832506D01*
X3495657Y1832943D01*
X3496313Y1833380D01*
X3496969Y1833891D01*
X3497698Y1834328D01*
X3498500Y1834765D01*
X3500395Y1835567D01*
X3501416Y1835932D01*
X3502509Y1836151D01*
X3503676Y1836296D01*
X3504842Y1836369D01*
X3505498D01*
X3506300Y1836296D01*
X3507248Y1836151D01*
X3508341Y1836005D01*
X3509508Y1835713D01*
X3510674Y1835276D01*
X3511840Y1834765D01*
X3511986Y1834693D01*
X3512351Y1834474D01*
X3512861Y1834109D01*
X3513517Y1833599D01*
X3514173Y1832943D01*
X3514902Y1832214D01*
X3515558Y1831339D01*
X3516142Y1830319D01*
X3516215Y1830173D01*
X3516360Y1829808D01*
X3516579Y1829152D01*
X3516798Y1828205D01*
X3517016Y1827038D01*
X3517235Y1825653D01*
X3517381Y1823976D01*
X3517454Y1822081D01*
Y1798972D01*
X3511257D01*
Y1822154D01*
Y1822227D01*
Y1822372D01*
Y1822591D01*
Y1822883D01*
X3511184Y1823685D01*
X3511039Y1824705D01*
X3510747Y1825799D01*
X3510383Y1826892D01*
X3509872Y1827986D01*
X3509216Y1828861D01*
X3509143Y1828934D01*
X3508852Y1829225D01*
X3508414Y1829590D01*
X3507758Y1829954D01*
X3506956Y1830391D01*
X3506008Y1830683D01*
X3504842Y1830975D01*
X3503530Y1831048D01*
X3503093D01*
X3502582Y1830975D01*
X3501853Y1830902D01*
X3501124Y1830683D01*
X3500249Y1830464D01*
X3499375Y1830100D01*
X3498427Y1829590D01*
X3498354Y1829517D01*
X3498062Y1829298D01*
X3497625Y1829006D01*
X3497115Y1828569D01*
X3496532Y1827986D01*
X3495948Y1827330D01*
X3495438Y1826528D01*
X3495001Y1825653D01*
X3494928Y1825507D01*
X3494855Y1825216D01*
X3494709Y1824632D01*
X3494490Y1823903D01*
X3494272Y1822956D01*
X3494126Y1821789D01*
X3494053Y1820477D01*
X3493980Y1818946D01*
Y1798972D01*
X3487784D01*
Y1849418D01*
X3493980D01*
Y1831339D01*
D02*
G37*
G36*
X3439086Y1798972D02*
X3432890D01*
Y1835567D01*
X3439086D01*
Y1798972D01*
D02*
G37*
G36*
X3425017Y1843441D02*
X3397606D01*
Y1827840D01*
X3421299D01*
Y1821862D01*
X3397606D01*
Y1798972D01*
X3390899D01*
Y1849418D01*
X3425017D01*
Y1843441D01*
D02*
G37*
G36*
X3380183Y1798972D02*
X3373987D01*
Y1849418D01*
X3380183D01*
Y1798972D01*
D02*
G37*
G36*
X3287819Y1843441D02*
X3260408D01*
Y1827840D01*
X3284101D01*
Y1821862D01*
X3260408D01*
Y1798972D01*
X3253702D01*
Y1849418D01*
X3287819D01*
Y1843441D01*
D02*
G37*
G36*
X3534221Y1835567D02*
X3540490Y1835568D01*
Y1830756D01*
X3534221Y1830756D01*
Y1809251D01*
Y1809105D01*
Y1808813D01*
Y1808376D01*
X3534294Y1807865D01*
X3534367Y1806699D01*
X3534439Y1806189D01*
X3534512Y1805824D01*
X3534585Y1805678D01*
X3534804Y1805387D01*
X3535096Y1805022D01*
X3535606Y1804658D01*
X3535752Y1804585D01*
X3536116Y1804439D01*
X3536772Y1804293D01*
X3537720Y1804220D01*
X3538449D01*
X3538814Y1804293D01*
X3539324D01*
X3539907Y1804366D01*
X3540490Y1804439D01*
X3541292Y1798972D01*
X3541146D01*
X3540855Y1798899D01*
X3540344Y1798826D01*
X3539688Y1798753D01*
X3538959Y1798607D01*
X3538157Y1798534D01*
X3536554Y1798461D01*
X3535970D01*
X3535387Y1798534D01*
X3534658Y1798607D01*
X3533783Y1798680D01*
X3532909Y1798899D01*
X3532107Y1799117D01*
X3531305Y1799482D01*
X3531232Y1799555D01*
X3531013Y1799701D01*
X3530722Y1799919D01*
X3530284Y1800284D01*
X3529920Y1800648D01*
X3529482Y1801159D01*
X3529045Y1801669D01*
X3528753Y1802325D01*
Y1802398D01*
X3528608Y1802689D01*
X3528535Y1803200D01*
X3528389Y1803929D01*
X3528243Y1804877D01*
X3528170Y1805460D01*
Y1806116D01*
X3528097Y1806918D01*
X3528024Y1807720D01*
Y1808594D01*
Y1809615D01*
Y1830756D01*
X3523432D01*
Y1835567D01*
X3528024D01*
Y1844607D01*
X3534221Y1848325D01*
Y1835567D01*
D02*
G37*
G36*
X3562798Y1836296D02*
X3563381Y1836224D01*
X3564110Y1836078D01*
X3564912Y1835932D01*
X3565859Y1835713D01*
X3566734Y1835495D01*
X3567755Y1835130D01*
X3568702Y1834766D01*
X3569723Y1834255D01*
X3570744Y1833672D01*
X3571764Y1833016D01*
X3572712Y1832214D01*
X3573587Y1831339D01*
X3573660Y1831266D01*
X3573805Y1831121D01*
X3574024Y1830829D01*
X3574316Y1830392D01*
X3574680Y1829881D01*
X3575045Y1829298D01*
X3575482Y1828569D01*
X3575920Y1827694D01*
X3576357Y1826747D01*
X3576794Y1825726D01*
X3577159Y1824560D01*
X3577523Y1823320D01*
X3577815Y1821935D01*
X3578034Y1820477D01*
X3578180Y1818946D01*
X3578252Y1817270D01*
Y1817197D01*
Y1816905D01*
Y1816395D01*
X3578180Y1815666D01*
X3550842D01*
Y1815593D01*
Y1815374D01*
X3550915Y1815083D01*
Y1814645D01*
X3550988Y1814135D01*
X3551134Y1813552D01*
X3551352Y1812239D01*
X3551790Y1810782D01*
X3552373Y1809178D01*
X3553175Y1807720D01*
X3554195Y1806408D01*
X3554268D01*
X3554341Y1806262D01*
X3554779Y1805897D01*
X3555435Y1805387D01*
X3556309Y1804877D01*
X3557476Y1804293D01*
X3558788Y1803783D01*
X3560246Y1803419D01*
X3561048Y1803346D01*
X3561923Y1803273D01*
X3562506D01*
X3563162Y1803346D01*
X3563964Y1803492D01*
X3564839Y1803710D01*
X3565859Y1804002D01*
X3566807Y1804439D01*
X3567755Y1805022D01*
X3567828Y1805095D01*
X3568192Y1805387D01*
X3568630Y1805824D01*
X3569140Y1806408D01*
X3569723Y1807209D01*
X3570379Y1808230D01*
X3571035Y1809396D01*
X3571619Y1810782D01*
X3578034Y1809980D01*
Y1809907D01*
X3577961Y1809761D01*
X3577888Y1809469D01*
X3577742Y1809032D01*
X3577523Y1808594D01*
X3577305Y1808011D01*
X3576722Y1806772D01*
X3575992Y1805387D01*
X3574972Y1803929D01*
X3573805Y1802544D01*
X3572347Y1801232D01*
X3572275D01*
X3572129Y1801086D01*
X3571910Y1800940D01*
X3571619Y1800721D01*
X3571181Y1800503D01*
X3570744Y1800284D01*
X3570160Y1799992D01*
X3569504Y1799701D01*
X3568775Y1799409D01*
X3568046Y1799118D01*
X3566224Y1798680D01*
X3564183Y1798316D01*
X3561923Y1798170D01*
X3561121D01*
X3560611Y1798243D01*
X3559954Y1798316D01*
X3559153Y1798461D01*
X3558278Y1798607D01*
X3557330Y1798753D01*
X3555289Y1799336D01*
X3554195Y1799774D01*
X3553175Y1800211D01*
X3552081Y1800794D01*
X3551061Y1801450D01*
X3550113Y1802179D01*
X3549165Y1803054D01*
X3549092Y1803127D01*
X3548947Y1803273D01*
X3548728Y1803564D01*
X3548436Y1804002D01*
X3548072Y1804512D01*
X3547707Y1805095D01*
X3547270Y1805824D01*
X3546832Y1806626D01*
X3546395Y1807574D01*
X3545958Y1808594D01*
X3545593Y1809761D01*
X3545229Y1811000D01*
X3544937Y1812312D01*
X3544718Y1813770D01*
X3544573Y1815301D01*
X3544500Y1816905D01*
Y1816978D01*
Y1817342D01*
Y1817780D01*
X3544573Y1818436D01*
X3544646Y1819238D01*
X3544718Y1820113D01*
X3544864Y1821133D01*
X3545083Y1822154D01*
X3545666Y1824487D01*
X3546031Y1825653D01*
X3546468Y1826892D01*
X3547051Y1828059D01*
X3547707Y1829152D01*
X3548436Y1830246D01*
X3549238Y1831266D01*
X3549311Y1831339D01*
X3549457Y1831485D01*
X3549749Y1831704D01*
X3550113Y1832068D01*
X3550550Y1832433D01*
X3551134Y1832870D01*
X3551790Y1833380D01*
X3552592Y1833818D01*
X3553394Y1834328D01*
X3554341Y1834766D01*
X3555362Y1835203D01*
X3556455Y1835568D01*
X3557622Y1835932D01*
X3558861Y1836151D01*
X3560173Y1836296D01*
X3561558Y1836369D01*
X3562287D01*
X3562798Y1836296D01*
D02*
G37*
G36*
X3351096Y1836296D02*
X3351679Y1836224D01*
X3352408Y1836078D01*
X3353210Y1835932D01*
X3354158Y1835713D01*
X3355033Y1835495D01*
X3356053Y1835130D01*
X3357001Y1834765D01*
X3358021Y1834255D01*
X3359042Y1833672D01*
X3360063Y1833016D01*
X3361010Y1832214D01*
X3361885Y1831339D01*
X3361958Y1831266D01*
X3362104Y1831120D01*
X3362323Y1830829D01*
X3362614Y1830391D01*
X3362979Y1829881D01*
X3363343Y1829298D01*
X3363781Y1828569D01*
X3364218Y1827694D01*
X3364655Y1826746D01*
X3365093Y1825726D01*
X3365457Y1824560D01*
X3365822Y1823320D01*
X3366113Y1821935D01*
X3366332Y1820477D01*
X3366478Y1818946D01*
X3366551Y1817270D01*
Y1817197D01*
Y1816905D01*
Y1816395D01*
X3366478Y1815666D01*
X3339140D01*
Y1815593D01*
Y1815374D01*
X3339213Y1815082D01*
Y1814645D01*
X3339286Y1814135D01*
X3339432Y1813552D01*
X3339651Y1812239D01*
X3340088Y1810781D01*
X3340671Y1809178D01*
X3341473Y1807720D01*
X3342494Y1806407D01*
X3342567D01*
X3342640Y1806262D01*
X3343077Y1805897D01*
X3343733Y1805387D01*
X3344608Y1804877D01*
X3345774Y1804293D01*
X3347086Y1803783D01*
X3348544Y1803418D01*
X3349346Y1803346D01*
X3350221Y1803273D01*
X3350804D01*
X3351461Y1803346D01*
X3352262Y1803491D01*
X3353137Y1803710D01*
X3354158Y1804002D01*
X3355106Y1804439D01*
X3356053Y1805022D01*
X3356126Y1805095D01*
X3356491Y1805387D01*
X3356928Y1805824D01*
X3357438Y1806407D01*
X3358021Y1807209D01*
X3358678Y1808230D01*
X3359334Y1809396D01*
X3359917Y1810781D01*
X3366332Y1809979D01*
Y1809907D01*
X3366259Y1809761D01*
X3366186Y1809469D01*
X3366041Y1809032D01*
X3365822Y1808594D01*
X3365603Y1808011D01*
X3365020Y1806772D01*
X3364291Y1805387D01*
X3363270Y1803929D01*
X3362104Y1802544D01*
X3360646Y1801232D01*
X3360573D01*
X3360427Y1801086D01*
X3360209Y1800940D01*
X3359917Y1800721D01*
X3359479Y1800503D01*
X3359042Y1800284D01*
X3358459Y1799992D01*
X3357803Y1799701D01*
X3357074Y1799409D01*
X3356345Y1799117D01*
X3354522Y1798680D01*
X3352481Y1798315D01*
X3350221Y1798170D01*
X3349419D01*
X3348909Y1798243D01*
X3348253Y1798315D01*
X3347451Y1798461D01*
X3346576Y1798607D01*
X3345628Y1798753D01*
X3343587Y1799336D01*
X3342494Y1799774D01*
X3341473Y1800211D01*
X3340380Y1800794D01*
X3339359Y1801450D01*
X3338411Y1802179D01*
X3337464Y1803054D01*
X3337391Y1803127D01*
X3337245Y1803273D01*
X3337026Y1803564D01*
X3336735Y1804002D01*
X3336370Y1804512D01*
X3336006Y1805095D01*
X3335568Y1805824D01*
X3335131Y1806626D01*
X3334693Y1807574D01*
X3334256Y1808594D01*
X3333892Y1809761D01*
X3333527Y1811000D01*
X3333235Y1812312D01*
X3333017Y1813770D01*
X3332871Y1815301D01*
X3332798Y1816905D01*
Y1816978D01*
Y1817342D01*
Y1817780D01*
X3332871Y1818436D01*
X3332944Y1819238D01*
X3333017Y1820113D01*
X3333163Y1821133D01*
X3333381Y1822154D01*
X3333965Y1824487D01*
X3334329Y1825653D01*
X3334766Y1826892D01*
X3335350Y1828059D01*
X3336006Y1829152D01*
X3336735Y1830246D01*
X3337537Y1831266D01*
X3337610Y1831339D01*
X3337755Y1831485D01*
X3338047Y1831704D01*
X3338411Y1832068D01*
X3338849Y1832433D01*
X3339432Y1832870D01*
X3340088Y1833380D01*
X3340890Y1833818D01*
X3341692Y1834328D01*
X3342640Y1834765D01*
X3343660Y1835203D01*
X3344754Y1835567D01*
X3345920Y1835932D01*
X3347159Y1836151D01*
X3348472Y1836296D01*
X3349857Y1836369D01*
X3350586D01*
X3351096Y1836296D01*
D02*
G37*
G36*
X3463070D02*
X3463581Y1836224D01*
X3464237Y1836078D01*
X3464966Y1835932D01*
X3465768Y1835713D01*
X3466570Y1835422D01*
X3467444Y1835057D01*
X3468319Y1834620D01*
X3469267Y1834109D01*
X3470142Y1833526D01*
X3471017Y1832797D01*
X3471891Y1831995D01*
X3472693Y1831048D01*
Y1835567D01*
X3478379D01*
Y1803929D01*
Y1803856D01*
Y1803564D01*
Y1803127D01*
Y1802544D01*
X3478307Y1801888D01*
Y1801086D01*
X3478234Y1800211D01*
X3478161Y1799263D01*
X3477942Y1797295D01*
X3477650Y1795254D01*
X3477432Y1794306D01*
X3477213Y1793431D01*
X3476921Y1792629D01*
X3476630Y1791900D01*
Y1791827D01*
X3476557Y1791755D01*
X3476265Y1791317D01*
X3475901Y1790661D01*
X3475318Y1789859D01*
X3474516Y1788984D01*
X3473568Y1788037D01*
X3472402Y1787089D01*
X3471089Y1786287D01*
X3471017D01*
X3470944Y1786214D01*
X3470725Y1786068D01*
X3470433Y1785995D01*
X3470069Y1785777D01*
X3469631Y1785631D01*
X3468538Y1785266D01*
X3467226Y1784829D01*
X3465622Y1784537D01*
X3463799Y1784246D01*
X3461831Y1784173D01*
X3461175D01*
X3460738Y1784246D01*
X3460154D01*
X3459571Y1784319D01*
X3458842Y1784392D01*
X3458040Y1784537D01*
X3456364Y1784902D01*
X3454614Y1785412D01*
X3452864Y1786141D01*
X3451261Y1787162D01*
X3451188Y1787235D01*
X3451115Y1787308D01*
X3450604Y1787745D01*
X3450021Y1788401D01*
X3449292Y1789349D01*
X3448563Y1790588D01*
X3447907Y1792119D01*
X3447689Y1792994D01*
X3447543Y1793941D01*
X3447397Y1794889D01*
Y1795983D01*
X3453448Y1795181D01*
Y1795035D01*
X3453521Y1794743D01*
X3453666Y1794233D01*
X3453812Y1793577D01*
X3454104Y1792921D01*
X3454468Y1792265D01*
X3454906Y1791609D01*
X3455489Y1791098D01*
X3455635Y1791025D01*
X3455926Y1790807D01*
X3456436Y1790515D01*
X3457166Y1790224D01*
X3458040Y1789859D01*
X3459134Y1789568D01*
X3460446Y1789349D01*
X3461831Y1789276D01*
X3462560D01*
X3463289Y1789349D01*
X3464310Y1789495D01*
X3465330Y1789713D01*
X3466424Y1790005D01*
X3467517Y1790442D01*
X3468465Y1791025D01*
X3468538Y1791098D01*
X3468829Y1791317D01*
X3469267Y1791755D01*
X3469777Y1792265D01*
X3470287Y1792994D01*
X3470798Y1793796D01*
X3471308Y1794743D01*
X3471673Y1795837D01*
Y1795910D01*
X3471745Y1796201D01*
X3471818Y1796785D01*
X3471891Y1797514D01*
X3471964Y1798024D01*
Y1798607D01*
X3472037Y1799263D01*
Y1799992D01*
Y1800794D01*
X3472110Y1801742D01*
Y1802689D01*
Y1803783D01*
X3472037Y1803710D01*
X3471891Y1803564D01*
X3471673Y1803346D01*
X3471381Y1803054D01*
X3471017Y1802689D01*
X3470506Y1802252D01*
X3469923Y1801815D01*
X3469340Y1801377D01*
X3467809Y1800503D01*
X3466132Y1799701D01*
X3465184Y1799409D01*
X3464164Y1799190D01*
X3463070Y1799044D01*
X3461977Y1798972D01*
X3461612D01*
X3461248Y1799044D01*
X3460738D01*
X3460081Y1799117D01*
X3459352Y1799263D01*
X3458551Y1799409D01*
X3457676Y1799628D01*
X3456728Y1799919D01*
X3455780Y1800284D01*
X3454833Y1800721D01*
X3453812Y1801232D01*
X3452864Y1801888D01*
X3451917Y1802617D01*
X3451042Y1803418D01*
X3450240Y1804366D01*
X3450167Y1804439D01*
X3450094Y1804585D01*
X3449876Y1804949D01*
X3449584Y1805314D01*
X3449292Y1805897D01*
X3448928Y1806480D01*
X3448563Y1807209D01*
X3448199Y1808084D01*
X3447834Y1808959D01*
X3447470Y1809979D01*
X3447105Y1811000D01*
X3446814Y1812167D01*
X3446303Y1814645D01*
X3446231Y1816030D01*
X3446158Y1817415D01*
Y1817488D01*
Y1817634D01*
Y1817926D01*
Y1818290D01*
X3446231Y1818800D01*
Y1819311D01*
X3446376Y1820623D01*
X3446595Y1822081D01*
X3446959Y1823685D01*
X3447397Y1825361D01*
X3448053Y1827038D01*
Y1827111D01*
X3448126Y1827257D01*
X3448272Y1827476D01*
X3448418Y1827767D01*
X3448855Y1828569D01*
X3449438Y1829590D01*
X3450240Y1830683D01*
X3451188Y1831777D01*
X3452281Y1832943D01*
X3453521Y1833891D01*
X3453593D01*
X3453666Y1833964D01*
X3453885Y1834109D01*
X3454177Y1834255D01*
X3454906Y1834693D01*
X3455926Y1835130D01*
X3457166Y1835567D01*
X3458624Y1836005D01*
X3460227Y1836296D01*
X3461977Y1836369D01*
X3462633D01*
X3463070Y1836296D01*
D02*
G37*
%LPC*%
G36*
X3320770Y1904852D02*
X3309106D01*
Y1866360D01*
X3321061D01*
X3321572Y1866433D01*
X3322665Y1866506D01*
X3323904Y1866579D01*
X3325216Y1866725D01*
X3326529Y1866944D01*
X3327622Y1867235D01*
X3327768Y1867308D01*
X3328133Y1867381D01*
X3328643Y1867600D01*
X3329299Y1867891D01*
X3330028Y1868329D01*
X3330757Y1868766D01*
X3331486Y1869276D01*
X3332215Y1869860D01*
X3332288Y1870005D01*
X3332579Y1870297D01*
X3333017Y1870807D01*
X3333527Y1871536D01*
X3334110Y1872484D01*
X3334766Y1873578D01*
X3335350Y1874817D01*
X3335860Y1876202D01*
Y1876275D01*
X3335933Y1876421D01*
X3336006Y1876639D01*
X3336079Y1876931D01*
X3336151Y1877295D01*
X3336297Y1877806D01*
X3336443Y1878316D01*
X3336589Y1878899D01*
X3336808Y1880357D01*
X3337026Y1882034D01*
X3337172Y1883929D01*
X3337245Y1885970D01*
Y1886043D01*
Y1886335D01*
Y1886699D01*
X3337172Y1887283D01*
Y1887939D01*
X3337099Y1888668D01*
X3337026Y1889543D01*
X3336953Y1890417D01*
X3336589Y1892386D01*
X3336151Y1894427D01*
X3335495Y1896322D01*
X3335058Y1897270D01*
X3334621Y1898072D01*
Y1898145D01*
X3334475Y1898291D01*
X3334329Y1898509D01*
X3334183Y1898801D01*
X3333600Y1899530D01*
X3332871Y1900405D01*
X3331923Y1901352D01*
X3330830Y1902300D01*
X3329590Y1903102D01*
X3328278Y1903758D01*
X3328133Y1903831D01*
X3327768Y1903904D01*
X3327112Y1904123D01*
X3326164Y1904341D01*
X3324998Y1904487D01*
X3323540Y1904706D01*
X3322665Y1904779D01*
X3321717D01*
X3320770Y1904852D01*
D02*
G37*
G36*
X3561631Y1831266D02*
X3561194D01*
X3560902Y1831194D01*
X3560100Y1831121D01*
X3559153Y1830902D01*
X3557986Y1830537D01*
X3556747Y1830027D01*
X3555581Y1829298D01*
X3554414Y1828350D01*
X3554268Y1828205D01*
X3553977Y1827840D01*
X3553466Y1827184D01*
X3552956Y1826309D01*
X3552373Y1825289D01*
X3551863Y1823976D01*
X3551425Y1822446D01*
X3551206Y1820769D01*
X3571691D01*
Y1820842D01*
Y1820987D01*
X3571619Y1821206D01*
Y1821498D01*
X3571473Y1822373D01*
X3571254Y1823320D01*
X3570890Y1824487D01*
X3570525Y1825580D01*
X3569942Y1826674D01*
X3569286Y1827621D01*
Y1827694D01*
X3569140Y1827767D01*
X3568775Y1828205D01*
X3568119Y1828788D01*
X3567244Y1829444D01*
X3566151Y1830100D01*
X3564839Y1830683D01*
X3563308Y1831121D01*
X3562506Y1831194D01*
X3561631Y1831266D01*
D02*
G37*
G36*
X3349930Y1831266D02*
X3349492D01*
X3349201Y1831193D01*
X3348399Y1831120D01*
X3347451Y1830902D01*
X3346285Y1830537D01*
X3345045Y1830027D01*
X3343879Y1829298D01*
X3342713Y1828350D01*
X3342567Y1828205D01*
X3342275Y1827840D01*
X3341765Y1827184D01*
X3341255Y1826309D01*
X3340671Y1825289D01*
X3340161Y1823976D01*
X3339724Y1822445D01*
X3339505Y1820769D01*
X3359990D01*
Y1820842D01*
Y1820987D01*
X3359917Y1821206D01*
Y1821498D01*
X3359771Y1822372D01*
X3359552Y1823320D01*
X3359188Y1824487D01*
X3358823Y1825580D01*
X3358240Y1826674D01*
X3357584Y1827621D01*
Y1827694D01*
X3357438Y1827767D01*
X3357074Y1828205D01*
X3356418Y1828788D01*
X3355543Y1829444D01*
X3354449Y1830100D01*
X3353137Y1830683D01*
X3351606Y1831120D01*
X3350804Y1831193D01*
X3349930Y1831266D01*
D02*
G37*
G36*
X3463216D02*
X3462050D01*
X3461758Y1831193D01*
X3460956Y1831120D01*
X3460009Y1830829D01*
X3458842Y1830464D01*
X3457676Y1829808D01*
X3456509Y1829006D01*
X3455926Y1828423D01*
X3455343Y1827840D01*
Y1827767D01*
X3455197Y1827694D01*
X3455051Y1827476D01*
X3454906Y1827184D01*
X3454687Y1826892D01*
X3454468Y1826455D01*
X3454177Y1825945D01*
X3453958Y1825361D01*
X3453666Y1824705D01*
X3453375Y1823903D01*
X3453156Y1823101D01*
X3452937Y1822227D01*
X3452791Y1821206D01*
X3452646Y1820186D01*
X3452500Y1819092D01*
Y1817853D01*
Y1817780D01*
Y1817561D01*
Y1817197D01*
X3452573Y1816686D01*
Y1816103D01*
X3452646Y1815374D01*
X3452864Y1813843D01*
X3453229Y1812094D01*
X3453666Y1810417D01*
X3454395Y1808740D01*
X3454833Y1808011D01*
X3455343Y1807355D01*
X3455489Y1807209D01*
X3455853Y1806845D01*
X3456436Y1806334D01*
X3457311Y1805751D01*
X3458332Y1805095D01*
X3459571Y1804585D01*
X3460956Y1804220D01*
X3461685Y1804148D01*
X3462487Y1804075D01*
X3462925D01*
X3463216Y1804148D01*
X3464018Y1804220D01*
X3465039Y1804512D01*
X3466132Y1804877D01*
X3467372Y1805460D01*
X3468538Y1806262D01*
X3469121Y1806772D01*
X3469704Y1807355D01*
Y1807428D01*
X3469850Y1807501D01*
X3469996Y1807720D01*
X3470142Y1808011D01*
X3470360Y1808303D01*
X3470652Y1808740D01*
X3470871Y1809251D01*
X3471162Y1809907D01*
X3471454Y1810563D01*
X3471673Y1811292D01*
X3471964Y1812167D01*
X3472183Y1813114D01*
X3472329Y1814062D01*
X3472474Y1815155D01*
X3472620Y1816395D01*
Y1817634D01*
Y1817707D01*
Y1817926D01*
Y1818290D01*
X3472547Y1818727D01*
Y1819311D01*
X3472474Y1819967D01*
X3472256Y1821425D01*
X3471891Y1823101D01*
X3471381Y1824778D01*
X3470652Y1826455D01*
X3470142Y1827184D01*
X3469631Y1827840D01*
Y1827913D01*
X3469486Y1827986D01*
X3469121Y1828350D01*
X3468465Y1828934D01*
X3467590Y1829590D01*
X3466570Y1830173D01*
X3465330Y1830756D01*
X3463945Y1831120D01*
X3463216Y1831266D01*
D02*
G37*
%LPD*%
D35*
X3031666Y1214323D02*
G03*
X3031666Y1214323I-4123J0D01*
G01*
X2339370Y1400394D02*
X2739370D01*
X2339370D02*
Y1900394D01*
X2489370Y2050394D01*
X2589370D01*
X2739370Y1900394D01*
Y1400394D02*
Y1900394D01*
X2499370Y1340551D02*
X2579370D01*
X2539370Y1300551D02*
Y1380551D01*
X879134Y1862008D02*
Y2262008D01*
X379134Y1862008D02*
X879134D01*
X229134Y2012008D02*
X379134Y1862008D01*
X229134Y2012008D02*
Y2112008D01*
X379134Y2262008D01*
X879134D01*
X938976Y2022008D02*
Y2102008D01*
X898976Y2062008D02*
X978976D01*
X2209449Y948032D02*
X2609449D01*
Y448031D02*
Y948032D01*
X2459449Y298031D02*
X2609449Y448031D01*
X2359449Y298031D02*
X2459449D01*
X2209449Y448031D02*
X2359449Y298031D01*
X2209449Y448031D02*
Y948032D01*
X2369449Y1007874D02*
X2449449D01*
X2409449Y967874D02*
Y1047874D01*
X1608071Y1984055D02*
Y2384055D01*
X2108071D01*
X2258071Y2234055D01*
Y2134055D02*
Y2234055D01*
X2108071Y1984055D02*
X2258071Y2134055D01*
X1608071Y1984055D02*
X2108071D01*
X1548228Y2144055D02*
Y2224055D01*
X1508228Y2184055D02*
X1588228D01*
X879134Y1432874D02*
Y1832874D01*
X379134Y1432874D02*
X879134D01*
X229134Y1582874D02*
X379134Y1432874D01*
X229134Y1582874D02*
Y1682874D01*
X379134Y1832874D01*
X879134D01*
X938976Y1592874D02*
Y1672874D01*
X898976Y1632874D02*
X978976D01*
X2784252Y722638D02*
X3184252D01*
Y222638D02*
Y722638D01*
X3034252Y72638D02*
X3184252Y222638D01*
X2934252Y72638D02*
X3034252D01*
X2784252Y222638D02*
X2934252Y72638D01*
X2784252Y222638D02*
Y722638D01*
X2944252Y782480D02*
X3024252D01*
X2984252Y742480D02*
Y822480D01*
X3388583Y51968D02*
Y451969D01*
X3888583D01*
X4038583Y301969D01*
Y201969D02*
Y301969D01*
X3888583Y51968D02*
X4038583Y201969D01*
X3388583Y51968D02*
X3888583D01*
X3328740Y211969D02*
Y291969D01*
X3288740Y251969D02*
X3368740D01*
X3010543Y1111323D02*
Y1222323D01*
Y1111323D02*
X3108543D01*
Y1230323D01*
X3010543D02*
X3108543D01*
X3010543Y1222323D02*
Y1230323D01*
X985236Y1078740D02*
X1672244D01*
Y78740D02*
Y1078740D01*
X298228Y78740D02*
X1672244D01*
X298228D02*
Y1078740D01*
X985236D01*
X4232283Y1200787D02*
Y1691929D01*
X3366142D02*
X4232283D01*
X3366142Y700787D02*
Y1691929D01*
Y700787D02*
X4232283D01*
Y1200787D01*
X2135827Y495079D02*
Y908465D01*
X1730315Y495079D02*
X2135827D01*
X2008858Y1035433D02*
X2135827Y908465D01*
X1861220Y1035433D02*
X2008858D01*
X1730315Y495079D02*
Y894685D01*
Y904528D02*
X1861220Y1035433D01*
X1730315Y894685D02*
Y904528D01*
X1049213Y1965551D02*
Y2378937D01*
X1454724D01*
X1049213Y1965551D02*
X1176181Y1838583D01*
X1323819D01*
X1454724Y1979331D02*
Y2378937D01*
X1323819Y1838583D02*
X1454724Y1969488D01*
Y1979331D01*
X3234357Y2404157D02*
X3224360Y2414154D01*
X3204367D01*
X3194370Y2404157D01*
Y2394160D01*
X3204367Y2384163D01*
X3224360D01*
X3234357Y2374167D01*
Y2364170D01*
X3224360Y2354173D01*
X3204367D01*
X3194370Y2364170D01*
X3294338Y2414154D02*
X3254351D01*
Y2354173D01*
X3294338D01*
X3254351Y2384163D02*
X3274344D01*
X3314331Y2354173D02*
Y2414154D01*
X3334325Y2394160D01*
X3354318Y2414154D01*
Y2354173D01*
X3474280D02*
X3434293D01*
X3474280Y2394160D01*
Y2404157D01*
X3464283Y2414154D01*
X3444289D01*
X3434293Y2404157D01*
X3494273D02*
X3504270Y2414154D01*
X3524263D01*
X3534260Y2404157D01*
Y2364170D01*
X3524263Y2354173D01*
X3504270D01*
X3494273Y2364170D01*
Y2404157D01*
X3594241Y2354173D02*
X3554254D01*
X3594241Y2394160D01*
Y2404157D01*
X3584244Y2414154D01*
X3564251D01*
X3554254Y2404157D01*
X3614234D02*
X3624231Y2414154D01*
X3644225D01*
X3654221Y2404157D01*
Y2364170D01*
X3644225Y2354173D01*
X3624231D01*
X3614234Y2364170D01*
Y2404157D01*
X1181102Y1319823D02*
Y1259842D01*
X1211093D01*
X1221090Y1269839D01*
Y1309826D01*
X1211093Y1319823D01*
X1181102D01*
X1241083Y1309826D02*
X1251080Y1319823D01*
X1271073D01*
X1281070Y1309826D01*
Y1299830D01*
X1271073Y1289833D01*
X1261076D01*
X1271073D01*
X1281070Y1279836D01*
Y1269839D01*
X1271073Y1259842D01*
X1251080D01*
X1241083Y1269839D01*
X1301064Y1259842D02*
X1321057D01*
X1311060D01*
Y1319823D01*
X1301064Y1309826D01*
X3081634Y1082677D02*
X3031650D01*
X3021654Y1072680D01*
Y1052687D01*
X3031650Y1042690D01*
X3081634D01*
X3071637Y1022697D02*
X3081634Y1012700D01*
Y992706D01*
X3071637Y982710D01*
X3061641D01*
X3051644Y992706D01*
Y1002703D01*
Y992706D01*
X3041647Y982710D01*
X3031650D01*
X3021654Y992706D01*
Y1012700D01*
X3031650Y1022697D01*
X3021654Y922729D02*
Y962716D01*
X3061641Y922729D01*
X3071637D01*
X3081634Y932726D01*
Y952719D01*
X3071637Y962716D01*
X1745079Y1933996D02*
Y1884013D01*
X1755075Y1874016D01*
X1775069D01*
X1785066Y1884013D01*
Y1933996D01*
X1805059Y1924000D02*
X1815056Y1933996D01*
X1835050D01*
X1845046Y1924000D01*
Y1914003D01*
X1835050Y1904006D01*
X1825053D01*
X1835050D01*
X1845046Y1894009D01*
Y1884013D01*
X1835050Y1874016D01*
X1815056D01*
X1805059Y1884013D01*
X1865040Y1874016D02*
X1885033D01*
X1875037D01*
Y1933996D01*
X1865040Y1924000D01*
X2596457Y1243110D02*
Y1303091D01*
X2626447D01*
X2636444Y1293094D01*
Y1273101D01*
X2626447Y1263104D01*
X2596457D01*
X2616450D02*
X2636444Y1243110D01*
X2656437Y1293094D02*
X2666434Y1303091D01*
X2686428D01*
X2696424Y1293094D01*
Y1283097D01*
X2686428Y1273101D01*
X2676431D01*
X2686428D01*
X2696424Y1263104D01*
Y1253107D01*
X2686428Y1243110D01*
X2666434D01*
X2656437Y1253107D01*
X2716418Y1293094D02*
X2726415Y1303091D01*
X2746408D01*
X2756405Y1293094D01*
Y1283097D01*
X2746408Y1273101D01*
X2736411D01*
X2746408D01*
X2756405Y1263104D01*
Y1253107D01*
X2746408Y1243110D01*
X2726415D01*
X2716418Y1253107D01*
X2911417Y1440945D02*
Y1500926D01*
X2941408D01*
X2951405Y1490929D01*
Y1470935D01*
X2941408Y1460938D01*
X2911417D01*
X2931411D02*
X2951405Y1440945D01*
X2971398Y1490929D02*
X2981395Y1500926D01*
X3001388D01*
X3011385Y1490929D01*
Y1480932D01*
X3001388Y1470935D01*
X2991392D01*
X3001388D01*
X3011385Y1460938D01*
Y1450942D01*
X3001388Y1440945D01*
X2981395D01*
X2971398Y1450942D01*
X3071366Y1440945D02*
X3031379D01*
X3071366Y1480932D01*
Y1490929D01*
X3061369Y1500926D01*
X3041375D01*
X3031379Y1490929D01*
X2600394Y1064961D02*
Y1124941D01*
X2630384D01*
X2640381Y1114944D01*
Y1094951D01*
X2630384Y1084954D01*
X2600394D01*
X2620387D02*
X2640381Y1064961D01*
X2660374Y1114944D02*
X2670371Y1124941D01*
X2690365D01*
X2700361Y1114944D01*
Y1104948D01*
X2690365Y1094951D01*
X2680368D01*
X2690365D01*
X2700361Y1084954D01*
Y1074957D01*
X2690365Y1064961D01*
X2670371D01*
X2660374Y1074957D01*
X2720355Y1064961D02*
X2740348D01*
X2730352D01*
Y1124941D01*
X2720355Y1114944D01*
X2133858Y242126D02*
Y302107D01*
X2163849D01*
X2173845Y292110D01*
Y272116D01*
X2163849Y262120D01*
X2133858D01*
X2193839Y292110D02*
X2203836Y302107D01*
X2223829D01*
X2233826Y292110D01*
Y282113D01*
X2223829Y272116D01*
X2213832D01*
X2223829D01*
X2233826Y262120D01*
Y252123D01*
X2223829Y242126D01*
X2203836D01*
X2193839Y252123D01*
X2253819Y302107D02*
X2293807D01*
Y292110D01*
X2253819Y252123D01*
Y242126D01*
X912402Y2290354D02*
X972382D01*
Y2260364D01*
X962385Y2250367D01*
X942392D01*
X932395Y2260364D01*
Y2290354D01*
X962385Y2230374D02*
X972382Y2220377D01*
Y2200383D01*
X962385Y2190387D01*
X952389D01*
X942392Y2200383D01*
Y2210380D01*
Y2200383D01*
X932395Y2190387D01*
X922398D01*
X912402Y2200383D01*
Y2220377D01*
X922398Y2230374D01*
X972382Y2130406D02*
X962385Y2150400D01*
X942392Y2170393D01*
X922398D01*
X912402Y2160396D01*
Y2140403D01*
X922398Y2130406D01*
X932395D01*
X942392Y2140403D01*
Y2170393D01*
X1574803Y2284449D02*
X1514822D01*
Y2314439D01*
X1524819Y2324436D01*
X1544813D01*
X1554810Y2314439D01*
Y2284449D01*
X1524819Y2344429D02*
X1514822Y2354426D01*
Y2374420D01*
X1524819Y2384416D01*
X1534816D01*
X1544813Y2374420D01*
Y2364423D01*
Y2374420D01*
X1554810Y2384416D01*
X1564806D01*
X1574803Y2374420D01*
Y2354426D01*
X1564806Y2344429D01*
X1514822Y2444397D02*
Y2404410D01*
X1544813D01*
X1534816Y2424403D01*
Y2434400D01*
X1544813Y2444397D01*
X1564806D01*
X1574803Y2434400D01*
Y2414407D01*
X1564806Y2404410D01*
X2688977Y56102D02*
Y116083D01*
X2718967D01*
X2728964Y106086D01*
Y86093D01*
X2718967Y76096D01*
X2688977D01*
X2748957Y106086D02*
X2758954Y116083D01*
X2778947D01*
X2788944Y106086D01*
Y96090D01*
X2778947Y86093D01*
X2768951D01*
X2778947D01*
X2788944Y76096D01*
Y66099D01*
X2778947Y56102D01*
X2758954D01*
X2748957Y66099D01*
X2838928Y56102D02*
Y116083D01*
X2808938Y86093D01*
X2848925D01*
X970472Y1712598D02*
X910492D01*
Y1742589D01*
X920489Y1752585D01*
X940482D01*
X950479Y1742589D01*
Y1712598D01*
X920489Y1772579D02*
X910492Y1782576D01*
Y1802569D01*
X920489Y1812566D01*
X930485D01*
X940482Y1802569D01*
Y1792572D01*
Y1802569D01*
X950479Y1812566D01*
X960476D01*
X970472Y1802569D01*
Y1782576D01*
X960476Y1772579D01*
X920489Y1832560D02*
X910492Y1842556D01*
Y1862550D01*
X920489Y1872547D01*
X930485D01*
X940482Y1862550D01*
Y1852553D01*
Y1862550D01*
X950479Y1872547D01*
X960476D01*
X970472Y1862550D01*
Y1842556D01*
X960476Y1832560D01*
X3929134Y454724D02*
Y514705D01*
X3959124D01*
X3969121Y504708D01*
Y484715D01*
X3959124Y474718D01*
X3929134D01*
X3989115Y504708D02*
X3999111Y514705D01*
X4019105D01*
X4029102Y504708D01*
Y494712D01*
X4019105Y484715D01*
X4009108D01*
X4019105D01*
X4029102Y474718D01*
Y464721D01*
X4019105Y454724D01*
X3999111D01*
X3989115Y464721D01*
X4089082Y454724D02*
X4049095D01*
X4089082Y494712D01*
Y504708D01*
X4079085Y514705D01*
X4059092D01*
X4049095Y504708D01*
X2657480Y2047244D02*
Y2107225D01*
X2687471D01*
X2697467Y2097228D01*
Y2077234D01*
X2687471Y2067238D01*
X2657480D01*
X2717461Y2097228D02*
X2727458Y2107225D01*
X2747451D01*
X2757448Y2097228D01*
Y2087231D01*
X2747451Y2077234D01*
X2737454D01*
X2747451D01*
X2757448Y2067238D01*
Y2057241D01*
X2747451Y2047244D01*
X2727458D01*
X2717461Y2057241D01*
X2777441Y2047244D02*
X2797435D01*
X2787438D01*
Y2107225D01*
X2777441Y2097228D01*
X446496Y1211870D02*
Y1151890D01*
X486483D01*
X506477Y1201874D02*
X516473Y1211870D01*
X536467D01*
X546464Y1201874D01*
Y1191877D01*
X536467Y1181880D01*
X526470D01*
X536467D01*
X546464Y1171883D01*
Y1161887D01*
X536467Y1151890D01*
X516473D01*
X506477Y1161887D01*
X606444Y1151890D02*
X566457D01*
X606444Y1191877D01*
Y1201874D01*
X596447Y1211870D01*
X576454D01*
X566457Y1201874D01*
X3847441Y1791280D02*
Y1731299D01*
X3887428D01*
X3907422Y1781283D02*
X3917418Y1791280D01*
X3937412D01*
X3947409Y1781283D01*
Y1771286D01*
X3937412Y1761290D01*
X3927415D01*
X3937412D01*
X3947409Y1751293D01*
Y1741296D01*
X3937412Y1731299D01*
X3917418D01*
X3907422Y1741296D01*
X3967402Y1731299D02*
X3987396D01*
X3977399D01*
Y1791280D01*
X3967402Y1781283D01*
X2722228Y870446D02*
X2732225Y880443D01*
Y900436D01*
X2722228Y910433D01*
X2682241D01*
X2672244Y900436D01*
Y880443D01*
X2682241Y870446D01*
X2722228Y850452D02*
X2732225Y840456D01*
Y820462D01*
X2722228Y810465D01*
X2712231D01*
X2702234Y820462D01*
Y830459D01*
Y820462D01*
X2692238Y810465D01*
X2682241D01*
X2672244Y820462D01*
Y840456D01*
X2682241Y850452D01*
X2722228Y790472D02*
X2732225Y780475D01*
Y760482D01*
X2722228Y750485D01*
X2712231D01*
X2702234Y760482D01*
X2692238Y750485D01*
X2682241D01*
X2672244Y760482D01*
Y780475D01*
X2682241Y790472D01*
X2692238D01*
X2702234Y780475D01*
X2712231Y790472D01*
X2722228D01*
X2702234Y780475D02*
Y760482D01*
X2933688Y892504D02*
X2923691Y902500D01*
X2903698D01*
X2893701Y892504D01*
Y852516D01*
X2903698Y842520D01*
X2923691D01*
X2933688Y852516D01*
X2953681Y892504D02*
X2963678Y902500D01*
X2983672D01*
X2993669Y892504D01*
Y882507D01*
X2983672Y872510D01*
X2973675D01*
X2983672D01*
X2993669Y862513D01*
Y852516D01*
X2983672Y842520D01*
X2963678D01*
X2953681Y852516D01*
X3013662Y902500D02*
X3053649D01*
Y892504D01*
X3013662Y852516D01*
Y842520D01*
X3660066Y580496D02*
X3650069Y590492D01*
X3630076D01*
X3620079Y580496D01*
Y540509D01*
X3630076Y530512D01*
X3650069D01*
X3660066Y540509D01*
X3680059Y580496D02*
X3690056Y590492D01*
X3710050D01*
X3720046Y580496D01*
Y570499D01*
X3710050Y560502D01*
X3700053D01*
X3710050D01*
X3720046Y550505D01*
Y540509D01*
X3710050Y530512D01*
X3690056D01*
X3680059Y540509D01*
X3780027Y590492D02*
X3760034Y580496D01*
X3740040Y560502D01*
Y540509D01*
X3750037Y530512D01*
X3770030D01*
X3780027Y540509D01*
Y550505D01*
X3770030Y560502D01*
X3740040D01*
X3307858Y725761D02*
X3317855Y735758D01*
Y755751D01*
X3307858Y765748D01*
X3267871D01*
X3257874Y755751D01*
Y735758D01*
X3267871Y725761D01*
X3307858Y705767D02*
X3317855Y695771D01*
Y675777D01*
X3307858Y665780D01*
X3297861D01*
X3287864Y675777D01*
Y685774D01*
Y675777D01*
X3277867Y665780D01*
X3267871D01*
X3257874Y675777D01*
Y695771D01*
X3267871Y705767D01*
X3317855Y605800D02*
Y645787D01*
X3287864D01*
X3297861Y625793D01*
Y615797D01*
X3287864Y605800D01*
X3267871D01*
X3257874Y615797D01*
Y635790D01*
X3267871Y645787D01*
X1892704Y1125456D02*
X1882707Y1135453D01*
X1862713D01*
X1852717Y1125456D01*
Y1085469D01*
X1862713Y1075472D01*
X1882707D01*
X1892704Y1085469D01*
X1912697Y1125456D02*
X1922694Y1135453D01*
X1942688D01*
X1952684Y1125456D01*
Y1115459D01*
X1942688Y1105463D01*
X1932691D01*
X1942688D01*
X1952684Y1095466D01*
Y1085469D01*
X1942688Y1075472D01*
X1922694D01*
X1912697Y1085469D01*
X2002668Y1075472D02*
Y1135453D01*
X1972678Y1105463D01*
X2012665D01*
X3188609Y1418094D02*
X3178612Y1428091D01*
X3158619D01*
X3148622Y1418094D01*
Y1378107D01*
X3158619Y1368110D01*
X3178612D01*
X3188609Y1378107D01*
X3208603Y1418094D02*
X3218599Y1428091D01*
X3238593D01*
X3248590Y1418094D01*
Y1408097D01*
X3238593Y1398101D01*
X3228596D01*
X3238593D01*
X3248590Y1388104D01*
Y1378107D01*
X3238593Y1368110D01*
X3218599D01*
X3208603Y1378107D01*
X3268583Y1418094D02*
X3278580Y1428091D01*
X3298574D01*
X3308570Y1418094D01*
Y1408097D01*
X3298574Y1398101D01*
X3288577D01*
X3298574D01*
X3308570Y1388104D01*
Y1378107D01*
X3298574Y1368110D01*
X3278580D01*
X3268583Y1378107D01*
X1356666Y1752182D02*
X1366663Y1742185D01*
X1386657D01*
X1396653Y1752182D01*
Y1792169D01*
X1386657Y1802165D01*
X1366663D01*
X1356666Y1792169D01*
X1336673Y1752182D02*
X1326676Y1742185D01*
X1306683D01*
X1296686Y1752182D01*
Y1762178D01*
X1306683Y1772175D01*
X1316679D01*
X1306683D01*
X1296686Y1782172D01*
Y1792169D01*
X1306683Y1802165D01*
X1326676D01*
X1336673Y1792169D01*
X1236705Y1802165D02*
X1276692D01*
X1236705Y1762178D01*
Y1752182D01*
X1246702Y1742185D01*
X1266696D01*
X1276692Y1752182D01*
X3241759Y1061795D02*
X3231762Y1071792D01*
X3211769D01*
X3201772Y1061795D01*
Y1021808D01*
X3211769Y1011811D01*
X3231762D01*
X3241759Y1021808D01*
X3261752Y1061795D02*
X3271749Y1071792D01*
X3291743D01*
X3301739Y1061795D01*
Y1051798D01*
X3291743Y1041801D01*
X3281746D01*
X3291743D01*
X3301739Y1031804D01*
Y1021808D01*
X3291743Y1011811D01*
X3271749D01*
X3261752Y1021808D01*
X3321733Y1011811D02*
X3341726D01*
X3331730D01*
Y1071792D01*
X3321733Y1061795D01*
D36*
X1689961Y1811024D02*
D03*
D37*
X1326772Y1342520D02*
Y1452756D01*
X1169291Y1342520D02*
Y1452756D01*
Y1342520D02*
X1405512D01*
Y1452756D01*
X1169291D02*
X1405512D01*
D38*
X1722047Y1384842D02*
Y1852362D01*
Y1384842D02*
X2224409D01*
Y1852362D01*
X1910433D02*
X2224409D01*
X1722047D02*
X1910433D01*
D39*
X1816929Y148927D02*
X1835296D01*
X1826112D01*
Y121377D01*
X1844479Y148927D02*
Y121377D01*
X1858254D01*
X1862846Y125969D01*
Y130560D01*
X1858254Y135152D01*
X1844479D01*
X1858254D01*
X1862846Y139744D01*
Y144336D01*
X1858254Y148927D01*
X1844479D01*
X1899580Y121377D02*
Y148927D01*
X1913355D01*
X1917946Y144336D01*
Y135152D01*
X1913355Y130560D01*
X1899580D01*
X1931722Y121377D02*
X1940905D01*
X1945497Y125969D01*
Y135152D01*
X1940905Y139744D01*
X1931722D01*
X1927130Y135152D01*
Y125969D01*
X1931722Y121377D01*
X1954680Y139744D02*
Y125969D01*
X1959272Y121377D01*
X1963863Y125969D01*
X1968455Y121377D01*
X1973047Y125969D01*
Y139744D01*
X1996005Y121377D02*
X1986822D01*
X1982230Y125969D01*
Y135152D01*
X1986822Y139744D01*
X1996005D01*
X2000597Y135152D01*
Y130560D01*
X1982230D01*
X2009780Y139744D02*
Y121377D01*
Y130560D01*
X2014372Y135152D01*
X2018964Y139744D01*
X2023555D01*
X2083248Y144336D02*
X2078656Y148927D01*
X2069472D01*
X2064881Y144336D01*
Y139744D01*
X2069472Y135152D01*
X2078656D01*
X2083248Y130560D01*
Y125969D01*
X2078656Y121377D01*
X2069472D01*
X2064881Y125969D01*
X2092431Y139744D02*
Y125969D01*
X2097023Y121377D01*
X2110798D01*
Y139744D01*
X2119981Y112194D02*
Y139744D01*
X2133756D01*
X2138348Y135152D01*
Y125969D01*
X2133756Y121377D01*
X2119981D01*
X2147531Y112194D02*
Y139744D01*
X2161307D01*
X2165898Y135152D01*
Y125969D01*
X2161307Y121377D01*
X2147531D01*
X2175082D02*
X2184265D01*
X2179673D01*
Y148927D01*
X2175082D01*
X2198040Y139744D02*
Y125969D01*
X2202632Y121377D01*
X2216407D01*
Y116785D01*
X2211815Y112194D01*
X2207224D01*
X2216407Y121377D02*
Y139744D01*
X1816929Y83327D02*
X1826112Y64960D01*
X1835296Y83327D01*
X1844479Y64960D02*
X1853663D01*
X1849071D01*
Y92511D01*
X1844479Y87919D01*
X1867438Y64960D02*
Y69552D01*
X1872029D01*
Y64960D01*
X1867438D01*
X1890396Y87919D02*
X1894988Y92511D01*
X1904171D01*
X1908763Y87919D01*
Y69552D01*
X1904171Y64960D01*
X1894988D01*
X1890396Y69552D01*
Y87919D01*
%TF.MD5,3d68110c968e40bdc8cf4602f11f8c8a*%
M02*
