M48
;Layer_Color=9474304
;FILE_FORMAT=2:5
INCH,LZ
;TYPE=PLATED
T1F00S00C0.02799
T2F00S00C0.02800
T3F00S00C0.15748
T4F00S00C0.17717
%
T01
X0368799Y0009547
X0386417Y0009449
X0385039Y0052854
X0358268Y0048819
X0409449Y0037303
X041565Y0054134
X0333858Y0053051
X0312894Y0042421
X0316831Y0010236
X031811Y0081299
X0293307Y0094488
X0283465Y0086614
X0267224Y0098524
X0270669Y0061516
X0267815Y0035728
X0242913Y0018799
X0206594Y0036024
X0178543Y003248
X0137598Y001624
X0085728Y0031594
X0045669Y0009547
X0122835Y0087894
X0017717Y0094488
X0015748Y0059055
X0017913Y0031594
X0029823Y0123917
X0042717Y0141732
X0017717Y0155512
X0027067Y0184744
X0037402Y022441
X0055216Y0221752
X0061614Y0236319
X0090847Y0232874
X0101772Y0199705
X0124016Y021063
X0125295Y0244094
X019311Y023937
X019813Y0189567
X0156201Y0193012
X0145669Y0141732
X0123425Y0156201
X0102756Y0164862
X0104331Y0137795
X0110531Y0115059
X0066437Y0114272
X0067028Y0137697
X0054528Y0184547
X0175295Y0115354
X020502Y0137303
X0228543Y0144587
X022874Y0168898
X0231102Y0195965
X0211516Y0193602
X0233563Y021998
X0220472Y0234252
X0269685Y0236221
X0307087Y0234252
X0287402Y0204724
X0280413Y0174409
X0283465Y0147638
X0271063Y0135138
X0271654Y0120079
X0293307Y010561
X0314961Y0104331
X0320866Y0129921
X0309055Y0165354
X0346457Y0159449
X0324803Y0200787
X0254035Y0211319
X0376181Y0229528
X0379921Y019685
X0415354Y0202756
X0409449Y0110236
X0364173Y0104331
T02
X0358268Y0062894
X0305819Y0136874
T03
X0415354Y0015748
X0015748
Y0234252
X0415354
T04
X0383858Y0025197
X0355512
X0298425Y0027264
Y005561
X0240945Y0049803
Y007815
X0042913Y0163287
Y0206201
X007126
Y0163287
X0177461Y0218406
X0205807
X0253937Y0185039
Y0156693
M30
