M48
;Layer_Color=9474304
;FILE_FORMAT=2:5
INCH,TZ
;TYPE=PLATED
T1F00S00C0.02799
T2F00S00C0.02800
T3F00S00C0.15748
T4F00S00C0.17717
%
T01
X368799Y9547
X386417Y9449
X385039Y52854
X358268Y48819
X409449Y37303
X415650Y54134
X333858Y53051
X312894Y42421
X316831Y10236
X318110Y81299
X293307Y94488
X283465Y86614
X267224Y98524
X270669Y61516
X267815Y35728
X242913Y18799
X206594Y36024
X178543Y32480
X137598Y16240
X85728Y31594
X45669Y9547
X122835Y87894
X17717Y94488
X15748Y59055
X17913Y31594
X29823Y123917
X42717Y141732
X17717Y155512
X27067Y184744
X37402Y224410
X55216Y221752
X61614Y236319
X90847Y232874
X101772Y199705
X124016Y210630
X125295Y244094
X193110Y239370
X198130Y189567
X156201Y193012
X145669Y141732
X123425Y156201
X102756Y164862
X104331Y137795
X110531Y115059
X66437Y114272
X67028Y137697
X54528Y184547
X175295Y115354
X205020Y137303
X228543Y144587
X228740Y168898
X231102Y195965
X211516Y193602
X233563Y219980
X220472Y234252
X269685Y236221
X307087Y234252
X287402Y204724
X280413Y174409
X283465Y147638
X271063Y135138
X271654Y120079
X293307Y105610
X314961Y104331
X320866Y129921
X309055Y165354
X346457Y159449
X324803Y200787
X254035Y211319
X376181Y229528
X379921Y196850
X415354Y202756
X409449Y110236
X364173Y104331
T02
X358268Y62894
X305819Y136874
T03
X415354Y15748
X15748
Y234252
X415354
T04
X383858Y25197
X355512
X298425Y27264
Y55610
X240945Y49803
Y78150
X42913Y163287
Y206201
X71260
Y163287
X177461Y218406
X205807
X253937Y185039
Y156693
M30
