%TF.GenerationSoftware,Altium Limited,Altium Designer,19.1.8 (144)*%
G04 Layer_Color=2752767*
%FSLAX26Y26*%
%MOIN*%
%TF.FileFunction,Drawing*%
%TF.Part,Single*%
G01*
G75*
%TA.AperFunction,NonConductor*%
%ADD63C,0.005000*%
%ADD64C,0.006667*%
D63*
X2519370Y1830394D02*
Y1870394D01*
X2559370D01*
Y1830394D01*
X2519370D01*
Y1546929D02*
Y1586929D01*
X2559370D01*
Y1546929D01*
X2519370D01*
X409134Y2042008D02*
Y2082008D01*
X449134D01*
Y2042008D01*
X409134D01*
X692598D02*
Y2082008D01*
X732598D01*
Y2042008D01*
X692598D01*
X2389449Y478031D02*
Y518032D01*
X2429449D01*
Y478031D01*
X2389449D01*
Y761496D02*
Y801496D01*
X2429449D01*
Y761496D01*
X2389449D01*
X2038071Y2164055D02*
Y2204055D01*
X2078071D01*
Y2164055D01*
X2038071D01*
X1754606D02*
Y2204055D01*
X1794606D01*
Y2164055D01*
X1754606D01*
X409134Y1612874D02*
Y1652874D01*
X449134D01*
Y1612874D01*
X409134D01*
X692598D02*
Y1652874D01*
X732598D01*
Y1612874D01*
X692598D01*
X2964252Y252638D02*
Y292638D01*
X3004252D01*
Y252638D01*
X2964252D01*
Y536102D02*
Y576102D01*
X3004252D01*
Y536102D01*
X2964252D01*
X3818583Y231969D02*
Y271969D01*
X3858583D01*
Y231969D01*
X3818583D01*
X3535118D02*
Y271969D01*
X3575118D01*
Y231969D01*
X3535118D01*
X374016Y2224095D02*
X354016Y2264095D01*
X394016D01*
X374016Y2224095D01*
X3464567Y1574488D02*
X3444567Y1614488D01*
X3484567D01*
X3464567Y1574488D01*
X1240158Y2086299D02*
X1220158Y2126299D01*
X1260158D01*
X1240158Y2086299D01*
X177165Y1535118D02*
X157165Y1575118D01*
X197165D01*
X177165Y1535118D01*
Y924882D02*
X157165Y964882D01*
X197165D01*
X177165Y924882D01*
X157480Y570551D02*
X137480Y610551D01*
X177480D01*
X157480Y570551D01*
X2115157Y1916024D02*
X2095157Y1956024D01*
X2135157D01*
X2115157Y1916024D01*
X1931102Y2373701D02*
X1911102Y2413701D01*
X1951102D01*
X1931102Y2373701D01*
X2335630Y2179803D02*
X2315630Y2219803D01*
X2355630D01*
X2335630Y2179803D01*
X1027559Y1628622D02*
X1007559Y1668622D01*
X1047559D01*
X1027559Y1628622D01*
X1234252Y1542008D02*
X1214252Y1582008D01*
X1254252D01*
X1234252Y1542008D01*
X1562008Y1910118D02*
X1542008Y1950118D01*
X1582008D01*
X1562008Y1910118D01*
X1981299Y1875669D02*
X1961299Y1915669D01*
X2001299D01*
X1981299Y1875669D01*
X2050197Y1353032D02*
X2030197Y1393032D01*
X2070197D01*
X2050197Y1353032D01*
X1375984Y142402D02*
X1355984Y182402D01*
X1395984D01*
X1375984Y142402D01*
X1228347Y858937D02*
X1208347Y898937D01*
X1248347D01*
X1228347Y858937D01*
X857284Y295945D02*
X837284Y335945D01*
X877284D01*
X857284Y295945D01*
X456693Y75472D02*
X436693Y115472D01*
X476693D01*
X456693Y75472D01*
X298228Y1219173D02*
X278228Y1259173D01*
X318228D01*
X298228Y1219173D01*
X545276Y1825472D02*
X525276Y1865472D01*
X565276D01*
X545276Y1825472D01*
X552165Y2197520D02*
X532165Y2237520D01*
X572165D01*
X552165Y2197520D01*
X270669Y1827441D02*
X250669Y1867441D01*
X290669D01*
X270669Y1827441D01*
X616142Y2343189D02*
X596142Y2383189D01*
X636142D01*
X616142Y2343189D01*
X2287402Y1668976D02*
X2267402Y1708976D01*
X2307402D01*
X2287402Y1668976D01*
X3864173Y74488D02*
X3844173Y114488D01*
X3884173D01*
X3864173Y74488D01*
X4094488Y353031D02*
X4074488Y393031D01*
X4114488D01*
X4094488Y353031D01*
X179134Y295945D02*
X159134Y335945D01*
X199134D01*
X179134Y295945D01*
X1105315Y1130591D02*
X1085315Y1170591D01*
X1125315D01*
X1105315Y1130591D01*
X1752953Y1133543D02*
X1732953Y1173543D01*
X1772953D01*
X1752953Y1133543D01*
X2804134Y1724094D02*
X2784134Y1764094D01*
X2824134D01*
X2804134Y1724094D01*
X3181102Y792992D02*
X3161102Y832992D01*
X3201102D01*
X3181102Y792992D01*
X3582677Y468189D02*
X3562677Y508189D01*
X3602677D01*
X3582677Y468189D01*
X3338583Y510512D02*
X3318583Y550512D01*
X3358583D01*
X3338583Y510512D01*
X3128937Y404213D02*
X3108937Y444213D01*
X3148937D01*
X3128937Y404213D01*
X3687992Y75472D02*
X3667992Y115472D01*
X3707992D01*
X3687992Y75472D01*
X4156496Y521339D02*
X4136496Y561339D01*
X4176496D01*
X4156496Y521339D01*
X3850394Y508543D02*
X3830394Y548543D01*
X3870394D01*
X3850394Y508543D01*
X3168307Y82362D02*
X3148307Y122362D01*
X3188307D01*
X3168307Y82362D01*
X1785433Y304803D02*
X1765433Y344803D01*
X1805433D01*
X1785433Y304803D01*
X2065945Y340236D02*
X2045945Y380236D01*
X2085945D01*
X2065945Y340236D01*
X2706693Y595158D02*
X2686693Y635158D01*
X2726693D01*
X2706693Y595158D01*
X2678150Y337284D02*
X2658150Y377284D01*
X2698150D01*
X2678150Y337284D01*
X2429134Y167992D02*
X2409134Y207992D01*
X2449134D01*
X2429134Y167992D01*
X2540354Y2093189D02*
X2520354Y2133189D01*
X2560354D01*
X2540354Y2093189D01*
X2311024Y1939646D02*
X2291024Y1979646D01*
X2331024D01*
X2311024Y1939646D01*
X3582677Y608937D02*
X3592677Y618937D01*
X3602677D01*
X3592677Y628937D01*
X3602677Y638937D01*
X3592677D01*
X3582677Y648937D01*
X3572677Y638937D01*
X3562677D01*
X3572677Y628937D01*
X3562677Y618937D01*
X3572677D01*
X3582677Y608937D01*
X427165Y1397323D02*
X407165Y1437323D01*
X447165D01*
X427165Y1397323D01*
X908465Y2308740D02*
X888465Y2348740D01*
X928465D01*
X908465Y2308740D01*
X1252953Y2420945D02*
X1232953Y2460945D01*
X1272953D01*
X1252953Y2420945D01*
X2204724Y2322520D02*
X2184724Y2362520D01*
X2224724D01*
X2204724Y2322520D01*
X1456693Y1397323D02*
X1436693Y1437323D01*
X1476693D01*
X1456693Y1397323D01*
X2285433Y1425866D02*
X2265433Y1465866D01*
X2305433D01*
X2285433Y1425866D01*
X2696850Y2342205D02*
X2676850Y2382205D01*
X2716850D01*
X2696850Y2342205D01*
X3070866Y2322520D02*
X3050866Y2362520D01*
X3090866D01*
X3070866Y2322520D01*
X3761811Y2275276D02*
X3741811Y2315276D01*
X3781811D01*
X3761811Y2275276D01*
X4153543Y2007559D02*
X4133543Y2047559D01*
X4173543D01*
X4153543Y2007559D01*
X2874016Y2027244D02*
X2854016Y2067244D01*
X2894016D01*
X2874016Y2027244D01*
X3248032Y1987874D02*
X3228032Y2027874D01*
X3268032D01*
X3248032Y1987874D01*
X3090551Y1633543D02*
X3070551Y1673543D01*
X3110551D01*
X3090551Y1633543D01*
X3799213Y1948504D02*
X3779213Y1988504D01*
X3819213D01*
X3799213Y1948504D01*
X4094488Y1082362D02*
X4074488Y1122362D01*
X4114488D01*
X4094488Y1082362D01*
X3641732Y1023307D02*
X3621732Y1063307D01*
X3661732D01*
X3641732Y1023307D01*
X2672244Y965236D02*
X2652244Y1005236D01*
X2692244D01*
X2672244Y965236D01*
X2834646Y846142D02*
X2814646Y886142D01*
X2854646D01*
X2834646Y846142D01*
X2933071Y924882D02*
X2913071Y964882D01*
X2953071D01*
X2933071Y924882D01*
Y1036102D02*
X2913071Y1076102D01*
X2953071D01*
X2933071Y1036102D01*
X3149606Y1023307D02*
X3129606Y1063307D01*
X3169606D01*
X3149606Y1023307D01*
X3208661Y1279213D02*
X3188661Y1319213D01*
X3228661D01*
X3208661Y1279213D01*
X2834646Y1456378D02*
X2814646Y1496378D01*
X2854646D01*
X2834646Y1456378D01*
X2710630Y1331378D02*
X2690630Y1371378D01*
X2730630D01*
X2710630Y1331378D01*
X2716535Y1180787D02*
X2696535Y1220787D01*
X2736535D01*
X2716535Y1180787D01*
X670276Y1356968D02*
X650276Y1396968D01*
X690276D01*
X670276Y1356968D01*
X1043307Y1357953D02*
X1023307Y1397953D01*
X1063307D01*
X1043307Y1357953D01*
X664370Y1122716D02*
X644370Y1162716D01*
X684370D01*
X664370Y1122716D01*
X1017717Y1977047D02*
X997717Y2017047D01*
X1037717D01*
X1017717Y1977047D01*
X3058189Y1348740D02*
X3068189Y1358740D01*
X3078189D01*
X3068189Y1368740D01*
X3078189Y1378740D01*
X3068189D01*
X3058189Y1388740D01*
X3048189Y1378740D01*
X3038189D01*
X3048189Y1368740D01*
X3038189Y1358740D01*
X3048189D01*
X3058189Y1348740D01*
D64*
X177480Y2342520D02*
G03*
X177480Y2342520I-20000J0D01*
G01*
Y157480D02*
G03*
X177480Y157480I-20000J0D01*
G01*
X4173543D02*
G03*
X4173543Y157480I-20000J0D01*
G01*
Y2342520D02*
G03*
X4173543Y2342520I-20000J0D01*
G01*
%TF.MD5,99363c2758ce944241a1fef54dab9a21*%
M02*
