%TF.GenerationSoftware,Altium Limited,Altium Designer,19.1.8 (144)*%
G04 Layer_Color=128*
%FSLAX26Y26*%
%MOIN*%
%TF.FileFunction,Drillmap*%
%TF.Part,Single*%
G01*
G75*
%TA.AperFunction,NonConductor*%
%ADD63C,0.005000*%
D63*
X2450787Y1850394D02*
X2627953D01*
X2539370Y1761811D02*
Y1938976D01*
X2450787Y1566929D02*
X2627953D01*
X2539370Y1478346D02*
Y1655512D01*
X340551Y2062008D02*
X517717D01*
X429134Y1973425D02*
Y2150591D01*
X624016Y2062008D02*
X801181D01*
X712598Y1973425D02*
Y2150591D01*
X2320866Y498031D02*
X2498032D01*
X2409449Y409449D02*
Y586614D01*
X2320866Y781496D02*
X2498032D01*
X2409449Y692913D02*
Y870079D01*
X1969488Y2184055D02*
X2146654D01*
X2058071Y2095472D02*
Y2272638D01*
X1686024Y2184055D02*
X1863189D01*
X1774606Y2095472D02*
Y2272638D01*
X340551Y1632874D02*
X517717D01*
X429134Y1544291D02*
Y1721457D01*
X624016Y1632874D02*
X801181D01*
X712598Y1544291D02*
Y1721457D01*
X2895669Y272638D02*
X3072835D01*
X2984252Y184055D02*
Y361221D01*
X2895669Y556102D02*
X3072835D01*
X2984252Y467520D02*
Y644685D01*
X3750000Y251969D02*
X3927165D01*
X3838583Y163386D02*
Y340551D01*
X3466535Y251969D02*
X3643701D01*
X3555118Y163386D02*
Y340551D01*
X78740Y2342520D02*
X236220D01*
X157480Y2263780D02*
Y2421260D01*
X78740Y157480D02*
X236220D01*
X157480Y78740D02*
Y236220D01*
X4074803Y157480D02*
X4232283D01*
X4153543Y78740D02*
Y236220D01*
X4074803Y2342520D02*
X4232283D01*
X4153543Y2263780D02*
Y2421260D01*
X360020Y2244095D02*
X388012D01*
X374016Y2230099D02*
Y2258090D01*
X3450571Y1594488D02*
X3478563D01*
X3464567Y1580492D02*
Y1608484D01*
X1226161Y2106299D02*
X1254153D01*
X1240158Y2092303D02*
Y2120295D01*
X163169Y1555118D02*
X191161D01*
X177165Y1541122D02*
Y1569114D01*
X163169Y944882D02*
X191161D01*
X177165Y930886D02*
Y958878D01*
X143484Y590551D02*
X171476D01*
X157480Y576555D02*
Y604547D01*
X2101162Y1936024D02*
X2129153D01*
X2115157Y1922028D02*
Y1950020D01*
X1917106Y2393701D02*
X1945098D01*
X1931102Y2379705D02*
Y2407697D01*
X2321634Y2199803D02*
X2349626D01*
X2335630Y2185807D02*
Y2213799D01*
X1013563Y1648622D02*
X1041555D01*
X1027559Y1634626D02*
Y1662618D01*
X1220256Y1562008D02*
X1248248D01*
X1234252Y1548012D02*
Y1576004D01*
X1548012Y1930118D02*
X1576004D01*
X1562008Y1916122D02*
Y1944114D01*
X1967303Y1895669D02*
X1995295D01*
X1981299Y1881673D02*
Y1909665D01*
X2036201Y1373032D02*
X2064193D01*
X2050197Y1359035D02*
Y1387027D01*
X1361988Y162402D02*
X1389980D01*
X1375984Y148406D02*
Y176398D01*
X1214351Y878937D02*
X1242342D01*
X1228347Y864941D02*
Y892933D01*
X843288Y315945D02*
X871279D01*
X857284Y301949D02*
Y329941D01*
X442697Y95472D02*
X470689D01*
X456693Y81476D02*
Y109468D01*
X284232Y1239173D02*
X312224D01*
X298228Y1225177D02*
Y1253169D01*
X531280Y1845472D02*
X559272D01*
X545276Y1831476D02*
Y1859468D01*
X538169Y2217520D02*
X566161D01*
X552165Y2203524D02*
Y2231516D01*
X256673Y1847441D02*
X284665D01*
X270669Y1833445D02*
Y1861437D01*
X602146Y2363189D02*
X630138D01*
X616142Y2349193D02*
Y2377185D01*
X2273406Y1688976D02*
X2301398D01*
X2287402Y1674980D02*
Y1702972D01*
X3850177Y94488D02*
X3878169D01*
X3864173Y80492D02*
Y108484D01*
X4080492Y373031D02*
X4108484D01*
X4094488Y359036D02*
Y387027D01*
X165138Y315945D02*
X193130D01*
X179134Y301949D02*
Y329941D01*
X1091319Y1150591D02*
X1119311D01*
X1105315Y1136595D02*
Y1164587D01*
X1738957Y1153543D02*
X1766949D01*
X1752953Y1139547D02*
Y1167539D01*
X2790138Y1744094D02*
X2818130D01*
X2804134Y1730099D02*
Y1758091D01*
X3167106Y812992D02*
X3195098D01*
X3181102Y798996D02*
Y826988D01*
X3568681Y488189D02*
X3596673D01*
X3582677Y474193D02*
Y502185D01*
X3324587Y530512D02*
X3352579D01*
X3338583Y516516D02*
Y544508D01*
X3114941Y424213D02*
X3142933D01*
X3128937Y410217D02*
Y438209D01*
X3673996Y95472D02*
X3701988D01*
X3687992Y81476D02*
Y109468D01*
X4142500Y541339D02*
X4170492D01*
X4156496Y527343D02*
Y555335D01*
X3836398Y528543D02*
X3864390D01*
X3850394Y514547D02*
Y542539D01*
X3154311Y102362D02*
X3182303D01*
X3168307Y88366D02*
Y116358D01*
X1771437Y324803D02*
X1799429D01*
X1785433Y310807D02*
Y338799D01*
X2051949Y360236D02*
X2079941D01*
X2065945Y346240D02*
Y374232D01*
X2692697Y615158D02*
X2720689D01*
X2706693Y601162D02*
Y629154D01*
X2664154Y357284D02*
X2692146D01*
X2678150Y343288D02*
Y371279D01*
X2415138Y187992D02*
X2443130D01*
X2429134Y173996D02*
Y201988D01*
X2526358Y2113189D02*
X2554350D01*
X2540354Y2099193D02*
Y2127185D01*
X2297028Y1959646D02*
X2325020D01*
X2311024Y1945650D02*
Y1973642D01*
X3568677Y628937D02*
X3596677D01*
X3582677Y614937D02*
Y642937D01*
X413169Y1417323D02*
X441161D01*
X427165Y1403327D02*
Y1431319D01*
X894469Y2328740D02*
X922461D01*
X908465Y2314744D02*
Y2342736D01*
X1238957Y2440945D02*
X1266949D01*
X1252953Y2426949D02*
Y2454941D01*
X2190728Y2342520D02*
X2218720D01*
X2204724Y2328524D02*
Y2356516D01*
X1442697Y1417323D02*
X1470689D01*
X1456693Y1403327D02*
Y1431319D01*
X2271437Y1445866D02*
X2299429D01*
X2285433Y1431870D02*
Y1459862D01*
X2682854Y2362205D02*
X2710846D01*
X2696850Y2348209D02*
Y2376201D01*
X3056870Y2342520D02*
X3084862D01*
X3070866Y2328524D02*
Y2356516D01*
X3747815Y2295276D02*
X3775807D01*
X3761811Y2281280D02*
Y2309272D01*
X4139547Y2027559D02*
X4167539D01*
X4153543Y2013563D02*
Y2041555D01*
X2860020Y2047244D02*
X2888012D01*
X2874016Y2033248D02*
Y2061240D01*
X3234035Y2007874D02*
X3262028D01*
X3248032Y1993878D02*
Y2021870D01*
X3076555Y1653543D02*
X3104547D01*
X3090551Y1639547D02*
Y1667539D01*
X3785217Y1968504D02*
X3813209D01*
X3799213Y1954508D02*
Y1982500D01*
X4080492Y1102362D02*
X4108484D01*
X4094488Y1088366D02*
Y1116358D01*
X3627736Y1043307D02*
X3655728D01*
X3641732Y1029311D02*
Y1057303D01*
X2658248Y985236D02*
X2686240D01*
X2672244Y971240D02*
Y999232D01*
X2820650Y866142D02*
X2848642D01*
X2834646Y852146D02*
Y880138D01*
X2919075Y944882D02*
X2947067D01*
X2933071Y930886D02*
Y958878D01*
X2919075Y1056102D02*
X2947067D01*
X2933071Y1042106D02*
Y1070098D01*
X3135610Y1043307D02*
X3163602D01*
X3149606Y1029311D02*
Y1057303D01*
X3194665Y1299213D02*
X3222657D01*
X3208661Y1285217D02*
Y1313209D01*
X2820650Y1476378D02*
X2848642D01*
X2834646Y1462382D02*
Y1490374D01*
X2696634Y1351378D02*
X2724626D01*
X2710630Y1337382D02*
Y1365374D01*
X2702539Y1200787D02*
X2730532D01*
X2716535Y1186791D02*
Y1214783D01*
X656280Y1376968D02*
X684272D01*
X670276Y1362973D02*
Y1390965D01*
X1029311Y1377953D02*
X1057303D01*
X1043307Y1363957D02*
Y1391949D01*
X650374Y1142716D02*
X678366D01*
X664370Y1128720D02*
Y1156713D01*
X1003721Y1997047D02*
X1031713D01*
X1017717Y1983051D02*
Y2011043D01*
X3044189Y1368740D02*
X3072189D01*
X3058189Y1354740D02*
Y1382740D01*
%TF.MD5,92d15014616ac599690f2be1fd438391*%
M02*
