G04*
G04 #@! TF.GenerationSoftware,Altium Limited,Altium Designer,19.1.8 (144)*
G04*
G04 Layer_Color=8388736*
%FSLAX25Y25*%
%MOIN*%
G70*
G01*
G75*
%ADD27R,0.06706X0.06784*%
%ADD28R,0.13005X0.09461*%
%ADD29R,0.06102X0.02165*%
%ADD30R,0.20800X0.33595*%
%ADD31R,0.08320X0.43320*%
%ADD32R,0.09304X0.05013*%
%ADD33R,0.05918X0.04934*%
%ADD34R,0.20879X0.70879*%
%ADD35R,0.22453X0.28359*%
%ADD36R,0.06312X0.04934*%
%ADD37R,0.08674X0.16942*%
%ADD38R,0.04934X0.06312*%
%ADD39C,0.24422*%
%ADD40C,0.00800*%
%ADD41C,0.05800*%
D27*
X136614Y139764D02*
D03*
D28*
X124016D02*
D03*
D29*
X297354Y113232D02*
D03*
Y115791D02*
D03*
Y118350D02*
D03*
Y120909D02*
D03*
X314677D02*
D03*
Y118350D02*
D03*
Y115791D02*
D03*
Y113232D02*
D03*
D30*
X202854Y161811D02*
D03*
D31*
X216240D02*
D03*
D32*
X164665Y148425D02*
D03*
Y155118D02*
D03*
Y161811D02*
D03*
Y168504D02*
D03*
Y175197D02*
D03*
D33*
X281677Y136874D02*
D03*
Y129591D02*
D03*
X288677Y136874D02*
D03*
Y129591D02*
D03*
X282677Y111591D02*
D03*
Y118874D02*
D03*
D34*
X43406Y57874D02*
D03*
X153642D02*
D03*
D35*
X379921Y152559D02*
D03*
Y87598D02*
D03*
D36*
X275177Y96591D02*
D03*
Y103874D02*
D03*
X282677Y96732D02*
D03*
Y104016D02*
D03*
X349894Y54150D02*
D03*
Y61433D02*
D03*
X342394Y54150D02*
D03*
Y61433D02*
D03*
X325677Y113091D02*
D03*
Y120374D02*
D03*
D37*
X193110Y93996D02*
D03*
Y59744D02*
D03*
X125394Y193405D02*
D03*
Y227658D02*
D03*
D38*
X310819Y129732D02*
D03*
X303535D02*
D03*
D39*
X253937Y185039D02*
D03*
Y156693D02*
D03*
X42913Y206201D02*
D03*
X71260D02*
D03*
X240945Y49803D02*
D03*
Y78150D02*
D03*
X205807Y218406D02*
D03*
X177461D02*
D03*
X42913Y163287D02*
D03*
X71260D02*
D03*
X298425Y27264D02*
D03*
Y55610D02*
D03*
X383858Y25197D02*
D03*
X355512D02*
D03*
D40*
X15748Y234252D02*
D03*
Y15748D02*
D03*
X415354D02*
D03*
Y234252D02*
D03*
D41*
X37402Y224410D02*
D03*
X346457Y159449D02*
D03*
X124016Y210630D02*
D03*
X17717Y155512D02*
D03*
Y94488D02*
D03*
X15748Y59055D02*
D03*
X211516Y193602D02*
D03*
X193110Y239370D02*
D03*
X233563Y219980D02*
D03*
X102756Y164862D02*
D03*
X123425Y156201D02*
D03*
X156201Y193012D02*
D03*
X198130Y189567D02*
D03*
X205020Y137303D02*
D03*
X137598Y16240D02*
D03*
X122835Y87894D02*
D03*
X85728Y31594D02*
D03*
X45669Y9547D02*
D03*
X29823Y123917D02*
D03*
X54528Y184547D02*
D03*
X55216Y221752D02*
D03*
X27067Y184744D02*
D03*
X61614Y236319D02*
D03*
X228740Y168898D02*
D03*
X386417Y9449D02*
D03*
X409449Y37303D02*
D03*
X17913Y31594D02*
D03*
X110531Y115059D02*
D03*
X175295Y115354D02*
D03*
X280413Y174409D02*
D03*
X318110Y81299D02*
D03*
X358268Y48819D02*
D03*
X333858Y53051D02*
D03*
X312894Y42421D02*
D03*
X368799Y9547D02*
D03*
X415650Y54134D02*
D03*
X385039Y52854D02*
D03*
X316831Y10236D02*
D03*
X178543Y32480D02*
D03*
X206594Y36024D02*
D03*
X270669Y61516D02*
D03*
X267815Y35728D02*
D03*
X242913Y18799D02*
D03*
X254035Y211319D02*
D03*
X231102Y195965D02*
D03*
X358268Y62894D02*
D03*
X42717Y141732D02*
D03*
X90847Y232874D02*
D03*
X125295Y244094D02*
D03*
X220472Y234252D02*
D03*
X145669Y141732D02*
D03*
X228543Y144587D02*
D03*
X269685Y236221D02*
D03*
X307087Y234252D02*
D03*
X376181Y229528D02*
D03*
X415354Y202756D02*
D03*
X287402Y204724D02*
D03*
X324803Y200787D02*
D03*
X309055Y165354D02*
D03*
X379921Y196850D02*
D03*
X409449Y110236D02*
D03*
X364173Y104331D02*
D03*
X267224Y98524D02*
D03*
X283465Y86614D02*
D03*
X293307Y94488D02*
D03*
Y105610D02*
D03*
X314961Y104331D02*
D03*
X320866Y129921D02*
D03*
X283465Y147638D02*
D03*
X271063Y135138D02*
D03*
X271654Y120079D02*
D03*
X67028Y137697D02*
D03*
X104331Y137795D02*
D03*
X66437Y114272D02*
D03*
X101772Y199705D02*
D03*
X305819Y136874D02*
D03*
M02*
