%TF.GenerationSoftware,Altium Limited,Altium Designer,19.1.8 (144)*%
G04 Layer_Physical_Order=2*
G04 Layer_Color=16711680*
%FSLAX26Y26*%
%MOIN*%
%TF.FileFunction,Copper,L2,Bot,Signal*%
%TF.Part,Single*%
G01*
G75*
%TA.AperFunction,Conductor*%
%ADD25C,0.023622*%
%TA.AperFunction,ComponentPad*%
%ADD30C,0.236220*%
%TA.AperFunction,ViaPad*%
%ADD31C,0.050000*%
G36*
X4015748Y2204724D02*
X4311024D01*
Y295276D01*
X4015748D01*
Y0D01*
X295276D01*
Y295276D01*
X213221D01*
X210527Y300276D01*
X213233Y306808D01*
X213399Y308071D01*
X144869D01*
X145035Y306808D01*
X147741Y300276D01*
X145047Y295276D01*
X0D01*
Y2204724D01*
X295276D01*
Y2500000D01*
X4015748D01*
Y2204724D01*
D02*
G37*
%LPC*%
G36*
X1260827Y2475210D02*
Y2448819D01*
X1287218D01*
X1287052Y2450082D01*
X1283525Y2458596D01*
X1277915Y2465907D01*
X1270604Y2471517D01*
X1262090Y2475044D01*
X1260827Y2475210D01*
D02*
G37*
G36*
X1245079D02*
X1243816Y2475044D01*
X1235302Y2471517D01*
X1227991Y2465907D01*
X1222380Y2458596D01*
X1218854Y2450082D01*
X1218687Y2448819D01*
X1245079D01*
Y2475210D01*
D02*
G37*
G36*
X1287218Y2433071D02*
X1260827D01*
Y2406680D01*
X1262090Y2406846D01*
X1270604Y2410372D01*
X1277915Y2415983D01*
X1283525Y2423294D01*
X1287052Y2431808D01*
X1287218Y2433071D01*
D02*
G37*
G36*
X1245079D02*
X1218687D01*
X1218854Y2431808D01*
X1222380Y2423294D01*
X1227991Y2415983D01*
X1235302Y2410372D01*
X1243816Y2406846D01*
X1245079Y2406680D01*
Y2433071D01*
D02*
G37*
G36*
X1938976Y2427966D02*
Y2401575D01*
X1965368D01*
X1965201Y2402838D01*
X1961675Y2411352D01*
X1956065Y2418663D01*
X1948753Y2424273D01*
X1940239Y2427800D01*
X1938976Y2427966D01*
D02*
G37*
G36*
X1923228D02*
X1921966Y2427800D01*
X1913451Y2424273D01*
X1906140Y2418663D01*
X1900530Y2411352D01*
X1897003Y2402838D01*
X1896837Y2401575D01*
X1923228D01*
Y2427966D01*
D02*
G37*
G36*
X624016Y2397454D02*
Y2371063D01*
X650407D01*
X650241Y2372326D01*
X646714Y2380840D01*
X641104Y2388151D01*
X633793Y2393761D01*
X625279Y2397288D01*
X624016Y2397454D01*
D02*
G37*
G36*
X608268D02*
X607005Y2397288D01*
X598491Y2393761D01*
X591179Y2388151D01*
X585569Y2380840D01*
X582043Y2372326D01*
X581876Y2371063D01*
X608268D01*
Y2397454D01*
D02*
G37*
G36*
X2704724Y2396470D02*
Y2370079D01*
X2731116D01*
X2730950Y2371341D01*
X2727423Y2379856D01*
X2721813Y2387167D01*
X2714501Y2392777D01*
X2705987Y2396304D01*
X2704724Y2396470D01*
D02*
G37*
G36*
X2688976D02*
X2687714Y2396304D01*
X2679199Y2392777D01*
X2671888Y2387167D01*
X2666278Y2379856D01*
X2662751Y2371341D01*
X2662585Y2370079D01*
X2688976D01*
Y2396470D01*
D02*
G37*
G36*
X1965368Y2385827D02*
X1938976D01*
Y2359435D01*
X1940239Y2359602D01*
X1948753Y2363128D01*
X1956065Y2368738D01*
X1961675Y2376050D01*
X1965201Y2384564D01*
X1965368Y2385827D01*
D02*
G37*
G36*
X1923228D02*
X1896837D01*
X1897003Y2384564D01*
X1900530Y2376050D01*
X1906140Y2368738D01*
X1913451Y2363128D01*
X1921966Y2359602D01*
X1923228Y2359435D01*
Y2385827D01*
D02*
G37*
G36*
X3078740Y2376785D02*
Y2350394D01*
X3105132D01*
X3104965Y2351657D01*
X3101439Y2360171D01*
X3095829Y2367482D01*
X3088517Y2373092D01*
X3080003Y2376619D01*
X3078740Y2376785D01*
D02*
G37*
G36*
X3062992D02*
X3061729Y2376619D01*
X3053215Y2373092D01*
X3045904Y2367482D01*
X3040294Y2360171D01*
X3036767Y2351657D01*
X3036601Y2350394D01*
X3062992D01*
Y2376785D01*
D02*
G37*
G36*
X2212598D02*
Y2350394D01*
X2238990D01*
X2238823Y2351657D01*
X2235297Y2360171D01*
X2229687Y2367482D01*
X2222375Y2373092D01*
X2213861Y2376619D01*
X2212598Y2376785D01*
D02*
G37*
G36*
X2196850D02*
X2195588Y2376619D01*
X2187073Y2373092D01*
X2179762Y2367482D01*
X2174152Y2360171D01*
X2170625Y2351657D01*
X2170459Y2350394D01*
X2196850D01*
Y2376785D01*
D02*
G37*
G36*
X916339Y2363006D02*
Y2336614D01*
X942730D01*
X942564Y2337877D01*
X939037Y2346391D01*
X933427Y2353702D01*
X926116Y2359313D01*
X917601Y2362839D01*
X916339Y2363006D01*
D02*
G37*
G36*
X900591D02*
X899328Y2362839D01*
X890814Y2359313D01*
X883502Y2353702D01*
X877892Y2346391D01*
X874365Y2337877D01*
X874199Y2336614D01*
X900591D01*
Y2363006D01*
D02*
G37*
G36*
X650407Y2355315D02*
X624016D01*
Y2328924D01*
X625279Y2329090D01*
X633793Y2332617D01*
X641104Y2338227D01*
X646714Y2345538D01*
X650241Y2354052D01*
X650407Y2355315D01*
D02*
G37*
G36*
X608268D02*
X581876D01*
X582043Y2354052D01*
X585569Y2345538D01*
X591179Y2338227D01*
X598491Y2332617D01*
X607005Y2329090D01*
X608268Y2328924D01*
Y2355315D01*
D02*
G37*
G36*
X2731116Y2354331D02*
X2704724D01*
Y2327939D01*
X2705987Y2328106D01*
X2714501Y2331632D01*
X2721813Y2337242D01*
X2727423Y2344554D01*
X2730950Y2353068D01*
X2731116Y2354331D01*
D02*
G37*
G36*
X2688976D02*
X2662585D01*
X2662751Y2353068D01*
X2666278Y2344554D01*
X2671888Y2337242D01*
X2679199Y2331632D01*
X2687714Y2328106D01*
X2688976Y2327939D01*
Y2354331D01*
D02*
G37*
G36*
X3105132Y2334646D02*
X3078740D01*
Y2308254D01*
X3080003Y2308421D01*
X3088517Y2311947D01*
X3095829Y2317557D01*
X3101439Y2324869D01*
X3104965Y2333383D01*
X3105132Y2334646D01*
D02*
G37*
G36*
X3062992D02*
X3036601D01*
X3036767Y2333383D01*
X3040294Y2324869D01*
X3045904Y2317557D01*
X3053215Y2311947D01*
X3061729Y2308421D01*
X3062992Y2308254D01*
Y2334646D01*
D02*
G37*
G36*
X2238990D02*
X2212598D01*
Y2308254D01*
X2213861Y2308421D01*
X2222375Y2311947D01*
X2229687Y2317557D01*
X2235297Y2324869D01*
X2238823Y2333383D01*
X2238990Y2334646D01*
D02*
G37*
G36*
X2196850D02*
X2170459D01*
X2170625Y2333383D01*
X2174152Y2324869D01*
X2179762Y2317557D01*
X2187073Y2311947D01*
X2195588Y2308421D01*
X2196850Y2308254D01*
Y2334646D01*
D02*
G37*
G36*
X3769685Y2329541D02*
Y2303150D01*
X3796077D01*
X3795910Y2304412D01*
X3792383Y2312927D01*
X3786773Y2320238D01*
X3779462Y2325848D01*
X3770948Y2329375D01*
X3769685Y2329541D01*
D02*
G37*
G36*
X3753937D02*
X3752674Y2329375D01*
X3744160Y2325848D01*
X3736849Y2320238D01*
X3731239Y2312927D01*
X3727712Y2304412D01*
X3727546Y2303150D01*
X3753937D01*
Y2329541D01*
D02*
G37*
G36*
X942730Y2320866D02*
X916339D01*
Y2294475D01*
X917601Y2294641D01*
X926116Y2298168D01*
X933427Y2303778D01*
X939037Y2311089D01*
X942564Y2319603D01*
X942730Y2320866D01*
D02*
G37*
G36*
X900591D02*
X874199D01*
X874365Y2319603D01*
X877892Y2311089D01*
X883502Y2303778D01*
X890814Y2298168D01*
X899328Y2294641D01*
X900591Y2294475D01*
Y2320866D01*
D02*
G37*
G36*
X3796077Y2287402D02*
X3769685D01*
Y2261010D01*
X3770948Y2261177D01*
X3779462Y2264703D01*
X3786773Y2270313D01*
X3792383Y2277625D01*
X3795910Y2286139D01*
X3796077Y2287402D01*
D02*
G37*
G36*
X3753937D02*
X3727546D01*
X3727712Y2286139D01*
X3731239Y2277625D01*
X3736849Y2270313D01*
X3744160Y2264703D01*
X3752674Y2261177D01*
X3753937Y2261010D01*
Y2287402D01*
D02*
G37*
G36*
X381890Y2278360D02*
Y2251968D01*
X408281D01*
X408115Y2253231D01*
X404588Y2261745D01*
X398978Y2269057D01*
X391667Y2274667D01*
X383152Y2278194D01*
X381890Y2278360D01*
D02*
G37*
G36*
X366142D02*
X364879Y2278194D01*
X356365Y2274667D01*
X349053Y2269057D01*
X343443Y2261745D01*
X339917Y2253231D01*
X339750Y2251968D01*
X366142D01*
Y2278360D01*
D02*
G37*
G36*
X560039Y2251785D02*
Y2225394D01*
X586431D01*
X586264Y2226657D01*
X582738Y2235171D01*
X577128Y2242482D01*
X569816Y2248092D01*
X561302Y2251619D01*
X560039Y2251785D01*
D02*
G37*
G36*
X544291D02*
X543029Y2251619D01*
X534514Y2248092D01*
X527203Y2242482D01*
X521593Y2235171D01*
X518066Y2226657D01*
X517900Y2225394D01*
X544291D01*
Y2251785D01*
D02*
G37*
G36*
X408281Y2236220D02*
X381890D01*
Y2209829D01*
X383152Y2209995D01*
X391667Y2213522D01*
X398978Y2219132D01*
X404588Y2226443D01*
X408115Y2234958D01*
X408281Y2236220D01*
D02*
G37*
G36*
X366142D02*
X339750D01*
X339917Y2234958D01*
X343443Y2226443D01*
X349053Y2219132D01*
X356365Y2213522D01*
X364879Y2209995D01*
X366142Y2209829D01*
Y2236220D01*
D02*
G37*
G36*
X2343504Y2234068D02*
Y2207677D01*
X2369895D01*
X2369729Y2208940D01*
X2366202Y2217454D01*
X2360592Y2224765D01*
X2353281Y2230376D01*
X2344767Y2233902D01*
X2343504Y2234068D01*
D02*
G37*
G36*
X2327756D02*
X2326493Y2233902D01*
X2317979Y2230376D01*
X2310668Y2224765D01*
X2305057Y2217454D01*
X2301531Y2208940D01*
X2301365Y2207677D01*
X2327756D01*
Y2234068D01*
D02*
G37*
G36*
X586431Y2209646D02*
X560039D01*
Y2183254D01*
X561302Y2183421D01*
X569816Y2186947D01*
X577128Y2192557D01*
X582738Y2199869D01*
X586264Y2208383D01*
X586431Y2209646D01*
D02*
G37*
G36*
X544291D02*
X517900D01*
X518066Y2208383D01*
X521593Y2199869D01*
X527203Y2192557D01*
X534514Y2186947D01*
X543029Y2183421D01*
X544291Y2183254D01*
Y2209646D01*
D02*
G37*
G36*
X2369895Y2191929D02*
X2343504D01*
Y2165538D01*
X2344767Y2165704D01*
X2353281Y2169231D01*
X2360592Y2174841D01*
X2366202Y2182152D01*
X2369729Y2190666D01*
X2369895Y2191929D01*
D02*
G37*
G36*
X2327756D02*
X2301365D01*
X2301531Y2190666D01*
X2305057Y2182152D01*
X2310668Y2174841D01*
X2317979Y2169231D01*
X2326493Y2165704D01*
X2327756Y2165538D01*
Y2191929D01*
D02*
G37*
G36*
X2548228Y2147454D02*
Y2121063D01*
X2574620D01*
X2574454Y2122326D01*
X2570927Y2130840D01*
X2565317Y2138151D01*
X2558005Y2143761D01*
X2549491Y2147288D01*
X2548228Y2147454D01*
D02*
G37*
G36*
X2532480D02*
X2531218Y2147288D01*
X2522703Y2143761D01*
X2515392Y2138151D01*
X2509782Y2130840D01*
X2506255Y2122326D01*
X2506089Y2121063D01*
X2532480D01*
Y2147454D01*
D02*
G37*
G36*
X1248032Y2140565D02*
Y2114173D01*
X1274423D01*
X1274257Y2115436D01*
X1270730Y2123950D01*
X1265120Y2131262D01*
X1257809Y2136872D01*
X1249294Y2140398D01*
X1248032Y2140565D01*
D02*
G37*
G36*
X1232284D02*
X1231021Y2140398D01*
X1222506Y2136872D01*
X1215195Y2131262D01*
X1209585Y2123950D01*
X1206058Y2115436D01*
X1205892Y2114173D01*
X1232284D01*
Y2140565D01*
D02*
G37*
G36*
X2574620Y2105315D02*
X2548228D01*
Y2078924D01*
X2549491Y2079090D01*
X2558005Y2082617D01*
X2565317Y2088227D01*
X2570927Y2095538D01*
X2574454Y2104052D01*
X2574620Y2105315D01*
D02*
G37*
G36*
X2532480D02*
X2506089D01*
X2506255Y2104052D01*
X2509782Y2095538D01*
X2515392Y2088227D01*
X2522703Y2082617D01*
X2531218Y2079090D01*
X2532480Y2078924D01*
Y2105315D01*
D02*
G37*
G36*
X1274423Y2098425D02*
X1248032D01*
Y2072034D01*
X1249294Y2072200D01*
X1257809Y2075727D01*
X1265120Y2081337D01*
X1270730Y2088648D01*
X1274257Y2097162D01*
X1274423Y2098425D01*
D02*
G37*
G36*
X1232284D02*
X1205892D01*
X1206058Y2097162D01*
X1209585Y2088648D01*
X1215195Y2081337D01*
X1222506Y2075727D01*
X1231021Y2072200D01*
X1232284Y2072034D01*
Y2098425D01*
D02*
G37*
G36*
X437008Y2189894D02*
Y2069882D01*
X557020D01*
X556058Y2082111D01*
X551351Y2101718D01*
X543634Y2120349D01*
X533098Y2137542D01*
X520002Y2152876D01*
X504668Y2165972D01*
X487474Y2176508D01*
X468844Y2184225D01*
X449237Y2188932D01*
X437008Y2189894D01*
D02*
G37*
G36*
X421260D02*
X409031Y2188932D01*
X389423Y2184225D01*
X370793Y2176508D01*
X353600Y2165972D01*
X338266Y2152876D01*
X325170Y2137542D01*
X314634Y2120349D01*
X306917Y2101718D01*
X302210Y2082111D01*
X301247Y2069882D01*
X421260D01*
Y2189894D01*
D02*
G37*
G36*
X2058071Y2312561D02*
X2037968Y2310979D01*
X2018360Y2306272D01*
X1999730Y2298555D01*
X1982537Y2288019D01*
X1967203Y2274923D01*
X1954107Y2259589D01*
X1943571Y2242396D01*
X1935854Y2223766D01*
X1931147Y2204158D01*
X1929565Y2184055D01*
X1931147Y2163952D01*
X1935854Y2144345D01*
X1943571Y2125715D01*
X1954107Y2108521D01*
X1967203Y2093187D01*
X1982537Y2080091D01*
X1999730Y2069555D01*
X2018360Y2061838D01*
X2037968Y2057131D01*
X2058071Y2055549D01*
X2078174Y2057131D01*
X2097782Y2061838D01*
X2116412Y2069555D01*
X2133605Y2080091D01*
X2148939Y2093187D01*
X2162035Y2108521D01*
X2172571Y2125715D01*
X2180288Y2144345D01*
X2184995Y2163952D01*
X2186577Y2184055D01*
X2184995Y2204158D01*
X2180288Y2223766D01*
X2172571Y2242396D01*
X2162035Y2259589D01*
X2148939Y2274923D01*
X2133605Y2288019D01*
X2116412Y2298555D01*
X2097782Y2306272D01*
X2078174Y2310979D01*
X2058071Y2312561D01*
D02*
G37*
G36*
X1774606D02*
X1754504Y2310979D01*
X1734896Y2306272D01*
X1716266Y2298555D01*
X1699072Y2288019D01*
X1683739Y2274923D01*
X1670642Y2259589D01*
X1660106Y2242396D01*
X1652389Y2223766D01*
X1647682Y2204158D01*
X1646100Y2184055D01*
X1647682Y2163952D01*
X1652389Y2144345D01*
X1660106Y2125715D01*
X1670642Y2108521D01*
X1683739Y2093187D01*
X1699072Y2080091D01*
X1716266Y2069555D01*
X1734896Y2061838D01*
X1754504Y2057131D01*
X1774606Y2055549D01*
X1794709Y2057131D01*
X1814317Y2061838D01*
X1832947Y2069555D01*
X1850140Y2080091D01*
X1865474Y2093187D01*
X1878570Y2108521D01*
X1889106Y2125715D01*
X1896823Y2144345D01*
X1901531Y2163952D01*
X1903113Y2184055D01*
X1901531Y2204158D01*
X1896823Y2223766D01*
X1889106Y2242396D01*
X1878570Y2259589D01*
X1865474Y2274923D01*
X1850140Y2288019D01*
X1832947Y2298555D01*
X1814317Y2306272D01*
X1794709Y2310979D01*
X1774606Y2312561D01*
D02*
G37*
G36*
X2881890Y2081510D02*
Y2055118D01*
X2908281D01*
X2908115Y2056381D01*
X2904588Y2064895D01*
X2898978Y2072206D01*
X2891667Y2077816D01*
X2883153Y2081343D01*
X2881890Y2081510D01*
D02*
G37*
G36*
X2866142D02*
X2864879Y2081343D01*
X2856365Y2077816D01*
X2849053Y2072206D01*
X2843443Y2064895D01*
X2839917Y2056381D01*
X2839750Y2055118D01*
X2866142D01*
Y2081510D01*
D02*
G37*
G36*
X4161417Y2061825D02*
Y2035433D01*
X4187809D01*
X4187642Y2036696D01*
X4184116Y2045210D01*
X4178506Y2052521D01*
X4171194Y2058131D01*
X4162680Y2061658D01*
X4161417Y2061825D01*
D02*
G37*
G36*
X4145669D02*
X4144407Y2061658D01*
X4135892Y2058131D01*
X4128581Y2052521D01*
X4122971Y2045210D01*
X4119444Y2036696D01*
X4119278Y2035433D01*
X4145669D01*
Y2061825D01*
D02*
G37*
G36*
X3255905Y2042139D02*
Y2015748D01*
X3282297D01*
X3282131Y2017011D01*
X3278604Y2025525D01*
X3272994Y2032836D01*
X3265682Y2038446D01*
X3257168Y2041973D01*
X3255905Y2042139D01*
D02*
G37*
G36*
X3240157D02*
X3238895Y2041973D01*
X3230381Y2038446D01*
X3223069Y2032836D01*
X3217459Y2025525D01*
X3213932Y2017011D01*
X3213766Y2015748D01*
X3240157D01*
Y2042139D01*
D02*
G37*
G36*
X2908281Y2039370D02*
X2881890D01*
Y2012979D01*
X2883153Y2013145D01*
X2891667Y2016672D01*
X2898978Y2022282D01*
X2904588Y2029593D01*
X2908115Y2038107D01*
X2908281Y2039370D01*
D02*
G37*
G36*
X2866142D02*
X2839750D01*
X2839917Y2038107D01*
X2843443Y2029593D01*
X2849053Y2022282D01*
X2856365Y2016672D01*
X2864879Y2013145D01*
X2866142Y2012979D01*
Y2039370D01*
D02*
G37*
G36*
X1025591Y2031313D02*
Y2004921D01*
X1051982D01*
X1051816Y2006184D01*
X1048289Y2014698D01*
X1042679Y2022009D01*
X1035368Y2027620D01*
X1026853Y2031146D01*
X1025591Y2031313D01*
D02*
G37*
G36*
X1009843D02*
X1008580Y2031146D01*
X1000066Y2027620D01*
X992754Y2022009D01*
X987144Y2014698D01*
X983617Y2006184D01*
X983451Y2004921D01*
X1009843D01*
Y2031313D01*
D02*
G37*
G36*
X4187809Y2019685D02*
X4161417D01*
Y1993294D01*
X4162680Y1993460D01*
X4171194Y1996987D01*
X4178506Y2002597D01*
X4184116Y2009908D01*
X4187642Y2018422D01*
X4187809Y2019685D01*
D02*
G37*
G36*
X4145669D02*
X4119278D01*
X4119444Y2018422D01*
X4122971Y2009908D01*
X4128581Y2002597D01*
X4135892Y1996987D01*
X4144407Y1993460D01*
X4145669Y1993294D01*
Y2019685D01*
D02*
G37*
G36*
X3807087Y2002769D02*
Y1976378D01*
X3833478D01*
X3833312Y1977641D01*
X3829785Y1986155D01*
X3824175Y1993466D01*
X3816864Y1999076D01*
X3808349Y2002603D01*
X3807087Y2002769D01*
D02*
G37*
G36*
X3791339D02*
X3790076Y2002603D01*
X3781562Y1999076D01*
X3774250Y1993466D01*
X3768640Y1986155D01*
X3765113Y1977641D01*
X3764947Y1976378D01*
X3791339D01*
Y2002769D01*
D02*
G37*
G36*
X3282297Y2000000D02*
X3255905D01*
Y1973609D01*
X3257168Y1973775D01*
X3265682Y1977302D01*
X3272994Y1982912D01*
X3278604Y1990223D01*
X3282131Y1998737D01*
X3282297Y2000000D01*
D02*
G37*
G36*
X3240157D02*
X3213766D01*
X3213932Y1998737D01*
X3217459Y1990223D01*
X3223069Y1982912D01*
X3230381Y1977302D01*
X3238895Y1973775D01*
X3240157Y1973609D01*
Y2000000D01*
D02*
G37*
G36*
X2318898Y1993911D02*
Y1967520D01*
X2345289D01*
X2345123Y1968783D01*
X2341596Y1977297D01*
X2335986Y1984608D01*
X2328675Y1990218D01*
X2320160Y1993745D01*
X2318898Y1993911D01*
D02*
G37*
G36*
X2303150D02*
X2301887Y1993745D01*
X2293373Y1990218D01*
X2286061Y1984608D01*
X2280451Y1977297D01*
X2276925Y1968783D01*
X2276758Y1967520D01*
X2303150D01*
Y1993911D01*
D02*
G37*
G36*
X1051982Y1989173D02*
X1025591D01*
Y1962782D01*
X1026853Y1962948D01*
X1035368Y1966475D01*
X1042679Y1972085D01*
X1048289Y1979396D01*
X1051816Y1987910D01*
X1051982Y1989173D01*
D02*
G37*
G36*
X1009843D02*
X983451D01*
X983617Y1987910D01*
X987144Y1979396D01*
X992754Y1972085D01*
X1000066Y1966475D01*
X1008580Y1962948D01*
X1009843Y1962782D01*
Y1989173D01*
D02*
G37*
G36*
X2123032Y1970289D02*
Y1943898D01*
X2149423D01*
X2149257Y1945160D01*
X2145730Y1953675D01*
X2140120Y1960986D01*
X2132809Y1966596D01*
X2124294Y1970123D01*
X2123032Y1970289D01*
D02*
G37*
G36*
X2107284D02*
X2106021Y1970123D01*
X2097506Y1966596D01*
X2090195Y1960986D01*
X2084585Y1953675D01*
X2081058Y1945160D01*
X2080892Y1943898D01*
X2107284D01*
Y1970289D01*
D02*
G37*
G36*
X1569882Y1964383D02*
Y1937992D01*
X1596273D01*
X1596107Y1939255D01*
X1592580Y1947769D01*
X1586970Y1955080D01*
X1579659Y1960690D01*
X1571145Y1964217D01*
X1569882Y1964383D01*
D02*
G37*
G36*
X1554134D02*
X1552871Y1964217D01*
X1544357Y1960690D01*
X1537046Y1955080D01*
X1531436Y1947769D01*
X1527909Y1939255D01*
X1527743Y1937992D01*
X1554134D01*
Y1964383D01*
D02*
G37*
G36*
X3833478Y1960630D02*
X3807087D01*
Y1934238D01*
X3808349Y1934405D01*
X3816864Y1937931D01*
X3824175Y1943542D01*
X3829785Y1950853D01*
X3833312Y1959367D01*
X3833478Y1960630D01*
D02*
G37*
G36*
X3791339D02*
X3764947D01*
X3765113Y1959367D01*
X3768640Y1950853D01*
X3774250Y1943542D01*
X3781562Y1937931D01*
X3790076Y1934405D01*
X3791339Y1934238D01*
Y1960630D01*
D02*
G37*
G36*
X421260Y2054134D02*
X301247D01*
X302210Y2041905D01*
X306917Y2022297D01*
X314634Y2003667D01*
X325170Y1986474D01*
X338266Y1971140D01*
X353600Y1958044D01*
X370793Y1947508D01*
X389423Y1939791D01*
X409031Y1935084D01*
X421260Y1934121D01*
Y2054134D01*
D02*
G37*
G36*
X557020D02*
X437008D01*
Y1934121D01*
X449237Y1935084D01*
X468844Y1939791D01*
X487474Y1947508D01*
X504668Y1958044D01*
X520002Y1971140D01*
X533098Y1986474D01*
X543634Y2003667D01*
X551351Y2022297D01*
X556058Y2041905D01*
X557020Y2054134D01*
D02*
G37*
G36*
X712598Y2190514D02*
X692496Y2188932D01*
X672888Y2184225D01*
X654258Y2176508D01*
X637064Y2165972D01*
X621731Y2152876D01*
X608635Y2137542D01*
X598098Y2120349D01*
X590382Y2101718D01*
X585674Y2082111D01*
X584092Y2062008D01*
X585674Y2041905D01*
X590382Y2022297D01*
X598098Y2003667D01*
X608635Y1986474D01*
X621731Y1971140D01*
X637064Y1958044D01*
X654258Y1947508D01*
X672888Y1939791D01*
X692496Y1935084D01*
X712598Y1933502D01*
X732701Y1935084D01*
X752309Y1939791D01*
X770939Y1947508D01*
X788133Y1958044D01*
X803466Y1971140D01*
X816562Y1986474D01*
X827098Y2003667D01*
X834815Y2022297D01*
X839523Y2041905D01*
X841105Y2062008D01*
X839523Y2082111D01*
X834815Y2101718D01*
X827098Y2120349D01*
X816562Y2137542D01*
X803466Y2152876D01*
X788133Y2165972D01*
X770939Y2176508D01*
X752309Y2184225D01*
X732701Y2188932D01*
X712598Y2190514D01*
D02*
G37*
G36*
X2345289Y1951772D02*
X2318898D01*
Y1925380D01*
X2320160Y1925547D01*
X2328675Y1929073D01*
X2335986Y1934683D01*
X2341596Y1941995D01*
X2345123Y1950509D01*
X2345289Y1951772D01*
D02*
G37*
G36*
X2303150D02*
X2276758D01*
X2276925Y1950509D01*
X2280451Y1941995D01*
X2286061Y1934683D01*
X2293373Y1929073D01*
X2301887Y1925547D01*
X2303150Y1925380D01*
Y1951772D01*
D02*
G37*
G36*
X1989173Y1929935D02*
Y1903543D01*
X2015565D01*
X2015398Y1904806D01*
X2011872Y1913320D01*
X2006262Y1920632D01*
X1998950Y1926242D01*
X1990436Y1929768D01*
X1989173Y1929935D01*
D02*
G37*
G36*
X1973425D02*
X1972162Y1929768D01*
X1963648Y1926242D01*
X1956337Y1920632D01*
X1950727Y1913320D01*
X1947200Y1904806D01*
X1947034Y1903543D01*
X1973425D01*
Y1929935D01*
D02*
G37*
G36*
X2149423Y1928150D02*
X2123032D01*
Y1901758D01*
X2124294Y1901925D01*
X2132809Y1905451D01*
X2140120Y1911061D01*
X2145730Y1918373D01*
X2149257Y1926887D01*
X2149423Y1928150D01*
D02*
G37*
G36*
X2107284D02*
X2080892D01*
X2081058Y1926887D01*
X2084585Y1918373D01*
X2090195Y1911061D01*
X2097506Y1905451D01*
X2106021Y1901925D01*
X2107284Y1901758D01*
Y1928150D01*
D02*
G37*
G36*
X1596273Y1922244D02*
X1569882D01*
Y1895853D01*
X1571145Y1896019D01*
X1579659Y1899546D01*
X1586970Y1905156D01*
X1592580Y1912467D01*
X1596107Y1920981D01*
X1596273Y1922244D01*
D02*
G37*
G36*
X1554134D02*
X1527743D01*
X1527909Y1920981D01*
X1531436Y1912467D01*
X1537046Y1905156D01*
X1544357Y1899546D01*
X1552871Y1896019D01*
X1554134Y1895853D01*
Y1922244D01*
D02*
G37*
G36*
X2015565Y1887795D02*
X1989173D01*
Y1861404D01*
X1990436Y1861570D01*
X1998950Y1865097D01*
X2006262Y1870707D01*
X2011872Y1878018D01*
X2015398Y1886533D01*
X2015565Y1887795D01*
D02*
G37*
G36*
X1973425D02*
X1947034D01*
X1947200Y1886533D01*
X1950727Y1878018D01*
X1956337Y1870707D01*
X1963648Y1865097D01*
X1972162Y1861570D01*
X1973425Y1861404D01*
Y1887795D01*
D02*
G37*
G36*
X2547244Y1978280D02*
Y1858267D01*
X2667257D01*
X2666294Y1870496D01*
X2661587Y1890104D01*
X2653870Y1908734D01*
X2643334Y1925928D01*
X2630238Y1941261D01*
X2614904Y1954358D01*
X2597711Y1964894D01*
X2579081Y1972611D01*
X2559473Y1977318D01*
X2547244Y1978280D01*
D02*
G37*
G36*
X2531496D02*
X2519267Y1977318D01*
X2499660Y1972611D01*
X2481030Y1964894D01*
X2463836Y1954358D01*
X2448502Y1941261D01*
X2435406Y1925928D01*
X2424870Y1908734D01*
X2417153Y1890104D01*
X2412446Y1870496D01*
X2411483Y1858267D01*
X2531496D01*
Y1978280D01*
D02*
G37*
G36*
X278543Y1881706D02*
Y1855315D01*
X304935D01*
X304768Y1856578D01*
X301242Y1865092D01*
X295632Y1872403D01*
X288320Y1878013D01*
X279806Y1881540D01*
X278543Y1881706D01*
D02*
G37*
G36*
X262795D02*
X261533Y1881540D01*
X253018Y1878013D01*
X245707Y1872403D01*
X240097Y1865092D01*
X236570Y1856578D01*
X236404Y1855315D01*
X262795D01*
Y1881706D01*
D02*
G37*
G36*
X553150Y1879738D02*
Y1853346D01*
X579541D01*
X579375Y1854609D01*
X575848Y1863123D01*
X570238Y1870435D01*
X562927Y1876045D01*
X554412Y1879572D01*
X553150Y1879738D01*
D02*
G37*
G36*
X537402D02*
X536139Y1879572D01*
X527625Y1876045D01*
X520313Y1870435D01*
X514703Y1863123D01*
X511176Y1854609D01*
X511010Y1853346D01*
X537402D01*
Y1879738D01*
D02*
G37*
G36*
X304935Y1839567D02*
X278543D01*
Y1813176D01*
X279806Y1813342D01*
X288320Y1816869D01*
X295632Y1822479D01*
X301242Y1829790D01*
X304768Y1838304D01*
X304935Y1839567D01*
D02*
G37*
G36*
X262795D02*
X236404D01*
X236570Y1838304D01*
X240097Y1829790D01*
X245707Y1822479D01*
X253018Y1816869D01*
X261533Y1813342D01*
X262795Y1813176D01*
Y1839567D01*
D02*
G37*
G36*
X579541Y1837598D02*
X553150D01*
Y1811207D01*
X554412Y1811373D01*
X562927Y1814900D01*
X570238Y1820510D01*
X575848Y1827821D01*
X579375Y1836336D01*
X579541Y1837598D01*
D02*
G37*
G36*
X537402D02*
X511010D01*
X511176Y1836336D01*
X514703Y1827821D01*
X520313Y1820510D01*
X527625Y1814900D01*
X536139Y1811373D01*
X537402Y1811207D01*
Y1837598D01*
D02*
G37*
G36*
X2812008Y1778360D02*
Y1751968D01*
X2838399D01*
X2838233Y1753231D01*
X2834706Y1761745D01*
X2829096Y1769057D01*
X2821785Y1774667D01*
X2813271Y1778194D01*
X2812008Y1778360D01*
D02*
G37*
G36*
X2796260D02*
X2794997Y1778194D01*
X2786483Y1774667D01*
X2779172Y1769057D01*
X2773561Y1761745D01*
X2770035Y1753231D01*
X2769869Y1751968D01*
X2796260D01*
Y1778360D01*
D02*
G37*
G36*
X2667257Y1842520D02*
X2547244D01*
Y1722507D01*
X2559473Y1723469D01*
X2579081Y1728177D01*
X2597711Y1735894D01*
X2614904Y1746430D01*
X2630238Y1759526D01*
X2643334Y1774860D01*
X2653870Y1792053D01*
X2661587Y1810683D01*
X2666294Y1830291D01*
X2667257Y1842520D01*
D02*
G37*
G36*
X2531496D02*
X2411483D01*
X2412446Y1830291D01*
X2417153Y1810683D01*
X2424870Y1792053D01*
X2435406Y1774860D01*
X2448502Y1759526D01*
X2463836Y1746430D01*
X2481030Y1735894D01*
X2499660Y1728177D01*
X2519267Y1723469D01*
X2531496Y1722507D01*
Y1842520D01*
D02*
G37*
G36*
X2838399Y1736220D02*
X2812008D01*
Y1709829D01*
X2813271Y1709995D01*
X2821785Y1713522D01*
X2829096Y1719132D01*
X2834706Y1726444D01*
X2838233Y1734958D01*
X2838399Y1736220D01*
D02*
G37*
G36*
X2796260D02*
X2769869D01*
X2770035Y1734958D01*
X2773561Y1726444D01*
X2779172Y1719132D01*
X2786483Y1713522D01*
X2794997Y1709995D01*
X2796260Y1709829D01*
Y1736220D01*
D02*
G37*
G36*
X2295276Y1723242D02*
Y1696850D01*
X2321667D01*
X2321501Y1698113D01*
X2317974Y1706627D01*
X2312364Y1713939D01*
X2305053Y1719549D01*
X2296538Y1723075D01*
X2295276Y1723242D01*
D02*
G37*
G36*
X2279528D02*
X2278265Y1723075D01*
X2269751Y1719549D01*
X2262439Y1713939D01*
X2256829Y1706627D01*
X2253302Y1698113D01*
X2253136Y1696850D01*
X2279528D01*
Y1723242D01*
D02*
G37*
G36*
X3098425Y1687809D02*
Y1661417D01*
X3124817D01*
X3124650Y1662680D01*
X3121124Y1671194D01*
X3115514Y1678506D01*
X3108202Y1684116D01*
X3099688Y1687642D01*
X3098425Y1687809D01*
D02*
G37*
G36*
X3082677D02*
X3081414Y1687642D01*
X3072900Y1684116D01*
X3065589Y1678506D01*
X3059979Y1671194D01*
X3056452Y1662680D01*
X3056286Y1661417D01*
X3082677D01*
Y1687809D01*
D02*
G37*
G36*
X1035433Y1682887D02*
Y1656496D01*
X1061824D01*
X1061658Y1657759D01*
X1058131Y1666273D01*
X1052521Y1673584D01*
X1045210Y1679194D01*
X1036696Y1682721D01*
X1035433Y1682887D01*
D02*
G37*
G36*
X1019685D02*
X1018422Y1682721D01*
X1009908Y1679194D01*
X1002597Y1673584D01*
X996987Y1666273D01*
X993460Y1657759D01*
X993294Y1656496D01*
X1019685D01*
Y1682887D01*
D02*
G37*
G36*
X2321667Y1681102D02*
X2295276D01*
Y1654711D01*
X2296538Y1654877D01*
X2305053Y1658404D01*
X2312364Y1664014D01*
X2317974Y1671325D01*
X2321501Y1679840D01*
X2321667Y1681102D01*
D02*
G37*
G36*
X2279528D02*
X2253136D01*
X2253302Y1679840D01*
X2256829Y1671325D01*
X2262439Y1664014D01*
X2269751Y1658404D01*
X2278265Y1654877D01*
X2279528Y1654711D01*
Y1681102D01*
D02*
G37*
G36*
X437008Y1760761D02*
Y1640748D01*
X557020D01*
X556058Y1652977D01*
X551351Y1672585D01*
X543634Y1691215D01*
X533098Y1708408D01*
X520002Y1723742D01*
X504668Y1736838D01*
X487474Y1747374D01*
X468844Y1755091D01*
X449237Y1759798D01*
X437008Y1760761D01*
D02*
G37*
G36*
X421260D02*
X409031Y1759798D01*
X389423Y1755091D01*
X370793Y1747374D01*
X353600Y1736838D01*
X338266Y1723742D01*
X325170Y1708408D01*
X314634Y1691215D01*
X306917Y1672585D01*
X302210Y1652977D01*
X301247Y1640748D01*
X421260D01*
Y1760761D01*
D02*
G37*
G36*
X3124817Y1645669D02*
X3098425D01*
Y1619278D01*
X3099688Y1619444D01*
X3108202Y1622971D01*
X3115514Y1628581D01*
X3121124Y1635892D01*
X3124650Y1644407D01*
X3124817Y1645669D01*
D02*
G37*
G36*
X3082677D02*
X3056286D01*
X3056452Y1644407D01*
X3059979Y1635892D01*
X3065589Y1628581D01*
X3072900Y1622971D01*
X3081414Y1619444D01*
X3082677Y1619278D01*
Y1645669D01*
D02*
G37*
G36*
X1061824Y1640748D02*
X1035433D01*
Y1614357D01*
X1036696Y1614523D01*
X1045210Y1618050D01*
X1052521Y1623660D01*
X1058131Y1630971D01*
X1061658Y1639485D01*
X1061824Y1640748D01*
D02*
G37*
G36*
X1019685D02*
X993294D01*
X993460Y1639485D01*
X996987Y1630971D01*
X1002597Y1623660D01*
X1009908Y1618050D01*
X1018422Y1614523D01*
X1019685Y1614357D01*
Y1640748D01*
D02*
G37*
G36*
X3472441Y1628754D02*
Y1602362D01*
X3498832D01*
X3498666Y1603625D01*
X3495139Y1612139D01*
X3489529Y1619450D01*
X3482218Y1625061D01*
X3473704Y1628587D01*
X3472441Y1628754D01*
D02*
G37*
G36*
X3456693D02*
X3455430Y1628587D01*
X3446916Y1625061D01*
X3439605Y1619450D01*
X3433994Y1612139D01*
X3430468Y1603625D01*
X3430302Y1602362D01*
X3456693D01*
Y1628754D01*
D02*
G37*
G36*
X1242126Y1596273D02*
Y1569882D01*
X1268517D01*
X1268351Y1571145D01*
X1264824Y1579659D01*
X1259214Y1586970D01*
X1251903Y1592580D01*
X1243389Y1596107D01*
X1242126Y1596273D01*
D02*
G37*
G36*
X1226378D02*
X1225115Y1596107D01*
X1216601Y1592580D01*
X1209290Y1586970D01*
X1203680Y1579659D01*
X1200153Y1571145D01*
X1199987Y1569882D01*
X1226378D01*
Y1596273D01*
D02*
G37*
G36*
X185039Y1589383D02*
Y1562992D01*
X211431D01*
X211264Y1564255D01*
X207738Y1572769D01*
X202128Y1580080D01*
X194816Y1585690D01*
X186302Y1589217D01*
X185039Y1589383D01*
D02*
G37*
G36*
X169291D02*
X168029Y1589217D01*
X159514Y1585690D01*
X152203Y1580080D01*
X146593Y1572769D01*
X143066Y1564255D01*
X142900Y1562992D01*
X169291D01*
Y1589383D01*
D02*
G37*
G36*
X3498832Y1586614D02*
X3472441D01*
Y1560223D01*
X3473704Y1560389D01*
X3482218Y1563916D01*
X3489529Y1569526D01*
X3495139Y1576837D01*
X3498666Y1585351D01*
X3498832Y1586614D01*
D02*
G37*
G36*
X3456693D02*
X3430302D01*
X3430468Y1585351D01*
X3433994Y1576837D01*
X3439605Y1569526D01*
X3446916Y1563916D01*
X3455430Y1560389D01*
X3456693Y1560223D01*
Y1586614D01*
D02*
G37*
G36*
X1268517Y1554134D02*
X1242126D01*
Y1527743D01*
X1243389Y1527909D01*
X1251903Y1531436D01*
X1259214Y1537046D01*
X1264824Y1544357D01*
X1268351Y1552871D01*
X1268517Y1554134D01*
D02*
G37*
G36*
X1226378D02*
X1199987D01*
X1200153Y1552871D01*
X1203680Y1544357D01*
X1209290Y1537046D01*
X1216601Y1531436D01*
X1225115Y1527909D01*
X1226378Y1527743D01*
Y1554134D01*
D02*
G37*
G36*
X211431Y1547244D02*
X185039D01*
Y1520853D01*
X186302Y1521019D01*
X194816Y1524546D01*
X202128Y1530156D01*
X207738Y1537467D01*
X211264Y1545981D01*
X211431Y1547244D01*
D02*
G37*
G36*
X169291D02*
X142900D01*
X143066Y1545981D01*
X146593Y1537467D01*
X152203Y1530156D01*
X159514Y1524546D01*
X168029Y1521019D01*
X169291Y1520853D01*
Y1547244D01*
D02*
G37*
G36*
X557020Y1625000D02*
X437008D01*
Y1504987D01*
X449237Y1505950D01*
X468844Y1510657D01*
X487474Y1518374D01*
X504668Y1528910D01*
X520002Y1542006D01*
X533098Y1557340D01*
X543634Y1574533D01*
X551351Y1593163D01*
X556058Y1612771D01*
X557020Y1625000D01*
D02*
G37*
G36*
X421260D02*
X301247D01*
X302210Y1612771D01*
X306917Y1593163D01*
X314634Y1574533D01*
X325170Y1557340D01*
X338266Y1542006D01*
X353600Y1528910D01*
X370793Y1518374D01*
X389423Y1510657D01*
X409031Y1505950D01*
X421260Y1504987D01*
Y1625000D01*
D02*
G37*
G36*
X712598Y1761380D02*
X692496Y1759798D01*
X672888Y1755091D01*
X654258Y1747374D01*
X637064Y1736838D01*
X621731Y1723742D01*
X608635Y1708408D01*
X598098Y1691215D01*
X590382Y1672585D01*
X585674Y1652977D01*
X584092Y1632874D01*
X585674Y1612771D01*
X590382Y1593163D01*
X598098Y1574533D01*
X608635Y1557340D01*
X621731Y1542006D01*
X637064Y1528910D01*
X654258Y1518374D01*
X672888Y1510657D01*
X692496Y1505950D01*
X712598Y1504368D01*
X732701Y1505950D01*
X752309Y1510657D01*
X770939Y1518374D01*
X788133Y1528910D01*
X803466Y1542006D01*
X816562Y1557340D01*
X827098Y1574533D01*
X834815Y1593163D01*
X839523Y1612771D01*
X841105Y1632874D01*
X839523Y1652977D01*
X834815Y1672585D01*
X827098Y1691215D01*
X816562Y1708408D01*
X803466Y1723742D01*
X788133Y1736838D01*
X770939Y1747374D01*
X752309Y1755091D01*
X732701Y1759798D01*
X712598Y1761380D01*
D02*
G37*
G36*
X2842520Y1510643D02*
Y1484252D01*
X2868911D01*
X2868745Y1485515D01*
X2865218Y1494029D01*
X2859608Y1501340D01*
X2852297Y1506950D01*
X2843782Y1510477D01*
X2842520Y1510643D01*
D02*
G37*
G36*
X2826772D02*
X2825509Y1510477D01*
X2816995Y1506950D01*
X2809683Y1501340D01*
X2804073Y1494029D01*
X2800547Y1485515D01*
X2800380Y1484252D01*
X2826772D01*
Y1510643D01*
D02*
G37*
G36*
X2293307Y1480131D02*
Y1453740D01*
X2319698D01*
X2319532Y1455003D01*
X2316006Y1463517D01*
X2310395Y1470828D01*
X2303084Y1476438D01*
X2294570Y1479965D01*
X2293307Y1480131D01*
D02*
G37*
G36*
X2277559D02*
X2276296Y1479965D01*
X2267782Y1476438D01*
X2260471Y1470828D01*
X2254861Y1463517D01*
X2251334Y1455003D01*
X2251168Y1453740D01*
X2277559D01*
Y1480131D01*
D02*
G37*
G36*
X2868911Y1468504D02*
X2842520D01*
Y1442113D01*
X2843782Y1442279D01*
X2852297Y1445806D01*
X2859608Y1451416D01*
X2865218Y1458727D01*
X2868745Y1467241D01*
X2868911Y1468504D01*
D02*
G37*
G36*
X2826772D02*
X2800380D01*
X2800547Y1467241D01*
X2804073Y1458727D01*
X2809683Y1451416D01*
X2816995Y1445806D01*
X2825509Y1442279D01*
X2826772Y1442113D01*
Y1468504D01*
D02*
G37*
G36*
X2539370Y1695435D02*
X2519267Y1693853D01*
X2499660Y1689146D01*
X2481030Y1681429D01*
X2463836Y1670893D01*
X2448502Y1657797D01*
X2435406Y1642463D01*
X2424870Y1625270D01*
X2417153Y1606640D01*
X2412446Y1587032D01*
X2410864Y1566929D01*
X2412446Y1546826D01*
X2417153Y1527218D01*
X2424870Y1508589D01*
X2435406Y1491395D01*
X2448502Y1476061D01*
X2463836Y1462965D01*
X2481030Y1452429D01*
X2499660Y1444712D01*
X2519267Y1440005D01*
X2539370Y1438423D01*
X2559473Y1440005D01*
X2579081Y1444712D01*
X2597711Y1452429D01*
X2614904Y1462965D01*
X2630238Y1476061D01*
X2643334Y1491395D01*
X2653870Y1508589D01*
X2661587Y1527218D01*
X2666294Y1546826D01*
X2667876Y1566929D01*
X2666294Y1587032D01*
X2661587Y1606640D01*
X2653870Y1625270D01*
X2643334Y1642463D01*
X2630238Y1657797D01*
X2614904Y1670893D01*
X2597711Y1681429D01*
X2579081Y1689146D01*
X2559473Y1693853D01*
X2539370Y1695435D01*
D02*
G37*
G36*
X1464567Y1451588D02*
Y1425197D01*
X1490958D01*
X1490792Y1426460D01*
X1487265Y1434974D01*
X1481655Y1442285D01*
X1474344Y1447895D01*
X1465830Y1451422D01*
X1464567Y1451588D01*
D02*
G37*
G36*
X1448819D02*
X1447556Y1451422D01*
X1439042Y1447895D01*
X1431731Y1442285D01*
X1426120Y1434974D01*
X1422594Y1426460D01*
X1422428Y1425197D01*
X1448819D01*
Y1451588D01*
D02*
G37*
G36*
X435039D02*
Y1425197D01*
X461431D01*
X461264Y1426460D01*
X457738Y1434974D01*
X452128Y1442285D01*
X444816Y1447895D01*
X436302Y1451422D01*
X435039Y1451588D01*
D02*
G37*
G36*
X419291D02*
X418029Y1451422D01*
X409514Y1447895D01*
X402203Y1442285D01*
X396593Y1434974D01*
X393066Y1426460D01*
X392900Y1425197D01*
X419291D01*
Y1451588D01*
D02*
G37*
G36*
X2319698Y1437992D02*
X2293307D01*
Y1411601D01*
X2294570Y1411767D01*
X2303084Y1415294D01*
X2310395Y1420904D01*
X2316006Y1428215D01*
X2319532Y1436729D01*
X2319698Y1437992D01*
D02*
G37*
G36*
X2277559D02*
X2251168D01*
X2251334Y1436729D01*
X2254861Y1428215D01*
X2260471Y1420904D01*
X2267782Y1415294D01*
X2276296Y1411767D01*
X2277559Y1411601D01*
Y1437992D01*
D02*
G37*
G36*
X1051181Y1412218D02*
Y1385827D01*
X1077572D01*
X1077406Y1387090D01*
X1073880Y1395604D01*
X1068269Y1402915D01*
X1060958Y1408525D01*
X1052444Y1412052D01*
X1051181Y1412218D01*
D02*
G37*
G36*
X1035433D02*
X1034170Y1412052D01*
X1025656Y1408525D01*
X1018345Y1402915D01*
X1012735Y1395604D01*
X1009208Y1387090D01*
X1009042Y1385827D01*
X1035433D01*
Y1412218D01*
D02*
G37*
G36*
X678150Y1411234D02*
Y1384842D01*
X704541D01*
X704375Y1386105D01*
X700848Y1394620D01*
X695238Y1401931D01*
X687927Y1407541D01*
X679412Y1411068D01*
X678150Y1411234D01*
D02*
G37*
G36*
X662402D02*
X661139Y1411068D01*
X652625Y1407541D01*
X645313Y1401931D01*
X639703Y1394620D01*
X636177Y1386105D01*
X636010Y1384842D01*
X662402D01*
Y1411234D01*
D02*
G37*
G36*
X461431Y1409449D02*
X435039D01*
Y1383057D01*
X436302Y1383224D01*
X444816Y1386750D01*
X452128Y1392361D01*
X457738Y1399672D01*
X461264Y1408186D01*
X461431Y1409449D01*
D02*
G37*
G36*
X419291D02*
X392900D01*
X393066Y1408186D01*
X396593Y1399672D01*
X402203Y1392361D01*
X409514Y1386750D01*
X418029Y1383224D01*
X419291Y1383057D01*
Y1409449D01*
D02*
G37*
G36*
X1490958D02*
X1464567D01*
Y1383057D01*
X1465830Y1383224D01*
X1474344Y1386750D01*
X1481655Y1392361D01*
X1487265Y1399672D01*
X1490792Y1408186D01*
X1490958Y1409449D01*
D02*
G37*
G36*
X1448819D02*
X1422428D01*
X1422594Y1408186D01*
X1426120Y1399672D01*
X1431731Y1392361D01*
X1439042Y1386750D01*
X1447556Y1383224D01*
X1448819Y1383057D01*
Y1409449D01*
D02*
G37*
G36*
X2058071Y1407297D02*
Y1380906D01*
X2084462D01*
X2084296Y1382168D01*
X2080769Y1390682D01*
X2075159Y1397994D01*
X2067848Y1403604D01*
X2059334Y1407131D01*
X2058071Y1407297D01*
D02*
G37*
G36*
X2042323D02*
X2041060Y1407131D01*
X2032546Y1403604D01*
X2025235Y1397994D01*
X2019624Y1390682D01*
X2016098Y1382168D01*
X2015931Y1380906D01*
X2042323D01*
Y1407297D01*
D02*
G37*
G36*
X2718504Y1385643D02*
Y1359252D01*
X2744895D01*
X2744729Y1360515D01*
X2741202Y1369029D01*
X2735592Y1376340D01*
X2728281Y1381950D01*
X2719767Y1385477D01*
X2718504Y1385643D01*
D02*
G37*
G36*
X2702756D02*
X2701493Y1385477D01*
X2692979Y1381950D01*
X2685668Y1376340D01*
X2680057Y1369029D01*
X2676531Y1360515D01*
X2676365Y1359252D01*
X2702756D01*
Y1385643D01*
D02*
G37*
G36*
X1077572Y1370079D02*
X1051181D01*
Y1343687D01*
X1052444Y1343854D01*
X1060958Y1347380D01*
X1068269Y1352991D01*
X1073880Y1360302D01*
X1077406Y1368816D01*
X1077572Y1370079D01*
D02*
G37*
G36*
X1035433D02*
X1009042D01*
X1009208Y1368816D01*
X1012735Y1360302D01*
X1018345Y1352991D01*
X1025656Y1347380D01*
X1034170Y1343854D01*
X1035433Y1343687D01*
Y1370079D01*
D02*
G37*
G36*
X704541Y1369094D02*
X678150D01*
Y1342703D01*
X679412Y1342869D01*
X687927Y1346396D01*
X695238Y1352006D01*
X700848Y1359318D01*
X704375Y1367832D01*
X704541Y1369094D01*
D02*
G37*
G36*
X662402D02*
X636010D01*
X636177Y1367832D01*
X639703Y1359318D01*
X645313Y1352006D01*
X652625Y1346396D01*
X661139Y1342869D01*
X662402Y1342703D01*
Y1369094D01*
D02*
G37*
G36*
X2084462Y1365158D02*
X2058071D01*
Y1338766D01*
X2059334Y1338932D01*
X2067848Y1342459D01*
X2075159Y1348069D01*
X2080769Y1355380D01*
X2084296Y1363895D01*
X2084462Y1365158D01*
D02*
G37*
G36*
X2042323D02*
X2015931D01*
X2016098Y1363895D01*
X2019624Y1355380D01*
X2025235Y1348069D01*
X2032546Y1342459D01*
X2041060Y1338932D01*
X2042323Y1338766D01*
Y1365158D01*
D02*
G37*
G36*
X2744895Y1343504D02*
X2718504D01*
Y1317113D01*
X2719767Y1317279D01*
X2728281Y1320806D01*
X2735592Y1326416D01*
X2741202Y1333727D01*
X2744729Y1342241D01*
X2744895Y1343504D01*
D02*
G37*
G36*
X2702756D02*
X2676365D01*
X2676531Y1342241D01*
X2680057Y1333727D01*
X2685668Y1326416D01*
X2692979Y1320806D01*
X2701493Y1317279D01*
X2702756Y1317113D01*
Y1343504D01*
D02*
G37*
G36*
X3216535Y1333478D02*
Y1307087D01*
X3242927D01*
X3242760Y1308349D01*
X3239234Y1316864D01*
X3233624Y1324175D01*
X3226312Y1329785D01*
X3217798Y1333312D01*
X3216535Y1333478D01*
D02*
G37*
G36*
X3200787D02*
X3199525Y1333312D01*
X3191010Y1329785D01*
X3183699Y1324175D01*
X3178089Y1316864D01*
X3174562Y1308349D01*
X3174396Y1307087D01*
X3200787D01*
Y1333478D01*
D02*
G37*
G36*
X3242927Y1291339D02*
X3216535D01*
Y1264947D01*
X3217798Y1265113D01*
X3226312Y1268640D01*
X3233624Y1274250D01*
X3239234Y1281562D01*
X3242760Y1290076D01*
X3242927Y1291339D01*
D02*
G37*
G36*
X3200787D02*
X3174396D01*
X3174562Y1290076D01*
X3178089Y1281562D01*
X3183699Y1274250D01*
X3191010Y1268640D01*
X3199525Y1265113D01*
X3200787Y1264947D01*
Y1291339D01*
D02*
G37*
G36*
X306102Y1273439D02*
Y1247047D01*
X332494D01*
X332327Y1248310D01*
X328801Y1256824D01*
X323191Y1264136D01*
X315879Y1269746D01*
X307365Y1273272D01*
X306102Y1273439D01*
D02*
G37*
G36*
X290354D02*
X289092Y1273272D01*
X280577Y1269746D01*
X273266Y1264136D01*
X267656Y1256824D01*
X264129Y1248310D01*
X263963Y1247047D01*
X290354D01*
Y1273439D01*
D02*
G37*
G36*
X2724410Y1235053D02*
Y1208661D01*
X2750801D01*
X2750635Y1209924D01*
X2747108Y1218438D01*
X2741498Y1225750D01*
X2734186Y1231360D01*
X2725672Y1234887D01*
X2724410Y1235053D01*
D02*
G37*
G36*
X2708662D02*
X2707399Y1234887D01*
X2698885Y1231360D01*
X2691573Y1225750D01*
X2685963Y1218438D01*
X2682436Y1209924D01*
X2682270Y1208661D01*
X2708662D01*
Y1235053D01*
D02*
G37*
G36*
X332494Y1231299D02*
X306102D01*
Y1204908D01*
X307365Y1205074D01*
X315879Y1208601D01*
X323191Y1214211D01*
X328801Y1221522D01*
X332327Y1230036D01*
X332494Y1231299D01*
D02*
G37*
G36*
X290354D02*
X263963D01*
X264129Y1230036D01*
X267656Y1221522D01*
X273266Y1214211D01*
X280577Y1208601D01*
X289092Y1205074D01*
X290354Y1204908D01*
Y1231299D01*
D02*
G37*
G36*
X2750801Y1192913D02*
X2724410D01*
Y1166522D01*
X2725672Y1166688D01*
X2734186Y1170215D01*
X2741498Y1175825D01*
X2747108Y1183136D01*
X2750635Y1191651D01*
X2750801Y1192913D01*
D02*
G37*
G36*
X2708662D02*
X2682270D01*
X2682436Y1191651D01*
X2685963Y1183136D01*
X2691573Y1175825D01*
X2698885Y1170215D01*
X2707399Y1166688D01*
X2708662Y1166522D01*
Y1192913D01*
D02*
G37*
G36*
X1760827Y1187809D02*
Y1161417D01*
X1787218D01*
X1787052Y1162680D01*
X1783525Y1171194D01*
X1777915Y1178506D01*
X1770604Y1184116D01*
X1762090Y1187642D01*
X1760827Y1187809D01*
D02*
G37*
G36*
X1745079D02*
X1743816Y1187642D01*
X1735302Y1184116D01*
X1727991Y1178506D01*
X1722380Y1171194D01*
X1718854Y1162680D01*
X1718687Y1161417D01*
X1745079D01*
Y1187809D01*
D02*
G37*
G36*
X1113189Y1184856D02*
Y1158465D01*
X1139580D01*
X1139414Y1159727D01*
X1135887Y1168242D01*
X1130277Y1175553D01*
X1122966Y1181163D01*
X1114452Y1184690D01*
X1113189Y1184856D01*
D02*
G37*
G36*
X1097441D02*
X1096178Y1184690D01*
X1087664Y1181163D01*
X1080353Y1175553D01*
X1074743Y1168242D01*
X1071216Y1159727D01*
X1071050Y1158465D01*
X1097441D01*
Y1184856D01*
D02*
G37*
G36*
X672244Y1176982D02*
Y1150591D01*
X698635D01*
X698469Y1151853D01*
X694942Y1160368D01*
X689332Y1167679D01*
X682021Y1173289D01*
X673507Y1176816D01*
X672244Y1176982D01*
D02*
G37*
G36*
X656496D02*
X655233Y1176816D01*
X646719Y1173289D01*
X639408Y1167679D01*
X633798Y1160368D01*
X630271Y1151853D01*
X630105Y1150591D01*
X656496D01*
Y1176982D01*
D02*
G37*
G36*
X1787218Y1145669D02*
X1760827D01*
Y1119278D01*
X1762090Y1119444D01*
X1770604Y1122971D01*
X1777915Y1128581D01*
X1783525Y1135892D01*
X1787052Y1144407D01*
X1787218Y1145669D01*
D02*
G37*
G36*
X1745079D02*
X1718687D01*
X1718854Y1144407D01*
X1722380Y1135892D01*
X1727991Y1128581D01*
X1735302Y1122971D01*
X1743816Y1119444D01*
X1745079Y1119278D01*
Y1145669D01*
D02*
G37*
G36*
X1139580Y1142717D02*
X1113189D01*
Y1116325D01*
X1114452Y1116492D01*
X1122966Y1120018D01*
X1130277Y1125628D01*
X1135887Y1132940D01*
X1139414Y1141454D01*
X1139580Y1142717D01*
D02*
G37*
G36*
X1097441D02*
X1071050D01*
X1071216Y1141454D01*
X1074743Y1132940D01*
X1080353Y1125628D01*
X1087664Y1120018D01*
X1096178Y1116492D01*
X1097441Y1116325D01*
Y1142717D01*
D02*
G37*
G36*
X4102362Y1136628D02*
Y1110236D01*
X4128754D01*
X4128587Y1111499D01*
X4125061Y1120013D01*
X4119450Y1127324D01*
X4112139Y1132935D01*
X4103625Y1136461D01*
X4102362Y1136628D01*
D02*
G37*
G36*
X4086614D02*
X4085351Y1136461D01*
X4076837Y1132935D01*
X4069526Y1127324D01*
X4063916Y1120013D01*
X4060389Y1111499D01*
X4060223Y1110236D01*
X4086614D01*
Y1136628D01*
D02*
G37*
G36*
X698635Y1134842D02*
X672244D01*
Y1108451D01*
X673507Y1108617D01*
X682021Y1112144D01*
X689332Y1117754D01*
X694942Y1125065D01*
X698469Y1133580D01*
X698635Y1134842D01*
D02*
G37*
G36*
X656496D02*
X630105D01*
X630271Y1133580D01*
X633798Y1125065D01*
X639408Y1117754D01*
X646719Y1112144D01*
X655233Y1108617D01*
X656496Y1108451D01*
Y1134842D01*
D02*
G37*
G36*
X4128754Y1094488D02*
X4102362D01*
Y1068097D01*
X4103625Y1068263D01*
X4112139Y1071790D01*
X4119450Y1077400D01*
X4125061Y1084711D01*
X4128587Y1093225D01*
X4128754Y1094488D01*
D02*
G37*
G36*
X4086614D02*
X4060223D01*
X4060389Y1093225D01*
X4063916Y1084711D01*
X4069526Y1077400D01*
X4076837Y1071790D01*
X4085351Y1068263D01*
X4086614Y1068097D01*
Y1094488D01*
D02*
G37*
G36*
X2940945Y1090368D02*
Y1063976D01*
X2967336D01*
X2967170Y1065239D01*
X2963643Y1073753D01*
X2958033Y1081065D01*
X2950722Y1086675D01*
X2942208Y1090201D01*
X2940945Y1090368D01*
D02*
G37*
G36*
X2925197D02*
X2923934Y1090201D01*
X2915420Y1086675D01*
X2908109Y1081065D01*
X2902499Y1073753D01*
X2898972Y1065239D01*
X2898805Y1063976D01*
X2925197D01*
Y1090368D01*
D02*
G37*
G36*
X3649606Y1077572D02*
Y1051181D01*
X3675998D01*
X3675831Y1052444D01*
X3672305Y1060958D01*
X3666695Y1068269D01*
X3659383Y1073880D01*
X3650869Y1077406D01*
X3649606Y1077572D01*
D02*
G37*
G36*
X3157480D02*
Y1051181D01*
X3183872D01*
X3183705Y1052444D01*
X3180179Y1060958D01*
X3174569Y1068269D01*
X3167257Y1073880D01*
X3158743Y1077406D01*
X3157480Y1077572D01*
D02*
G37*
G36*
X3141732D02*
X3140470Y1077406D01*
X3131955Y1073880D01*
X3124644Y1068269D01*
X3119034Y1060958D01*
X3115507Y1052444D01*
X3115341Y1051181D01*
X3141732D01*
Y1077572D01*
D02*
G37*
G36*
X2967336Y1048228D02*
X2940945D01*
Y1021837D01*
X2942208Y1022003D01*
X2950722Y1025530D01*
X2958033Y1031140D01*
X2963643Y1038451D01*
X2967170Y1046966D01*
X2967336Y1048228D01*
D02*
G37*
G36*
X2925197D02*
X2898805D01*
X2898972Y1046966D01*
X2902499Y1038451D01*
X2908109Y1031140D01*
X2915420Y1025530D01*
X2923934Y1022003D01*
X2925197Y1021837D01*
Y1048228D01*
D02*
G37*
G36*
X3675998Y1035433D02*
X3649606D01*
Y1009042D01*
X3650869Y1009208D01*
X3659383Y1012735D01*
X3666695Y1018345D01*
X3672305Y1025656D01*
X3675831Y1034170D01*
X3675998Y1035433D01*
D02*
G37*
G36*
X3058189Y1404042D02*
X3049052Y1402839D01*
X3040538Y1399312D01*
X3033227Y1393702D01*
X3027617Y1386391D01*
X3024090Y1377877D01*
X3022887Y1368740D01*
X3024090Y1359603D01*
X3027617Y1351089D01*
X3033227Y1343778D01*
X3040538Y1338168D01*
X3049052Y1334641D01*
X3058189Y1333438D01*
X3067326Y1334641D01*
X3075840Y1338168D01*
X3083151Y1343778D01*
X3085242Y1346502D01*
X3251143D01*
X3560439Y1037206D01*
Y655990D01*
X3557715Y653899D01*
X3552105Y646588D01*
X3548578Y638074D01*
X3547375Y628937D01*
X3548578Y619800D01*
X3552105Y611286D01*
X3557715Y603975D01*
X3565026Y598365D01*
X3573540Y594838D01*
X3582677Y593635D01*
X3591814Y594838D01*
X3600328Y598365D01*
X3607640Y603975D01*
X3613250Y611286D01*
X3616776Y619800D01*
X3617979Y628937D01*
X3616776Y638074D01*
X3613250Y646588D01*
X3607640Y653899D01*
X3604916Y655990D01*
Y1027666D01*
X3609916Y1028660D01*
X3611160Y1025656D01*
X3616770Y1018345D01*
X3624081Y1012735D01*
X3632595Y1009208D01*
X3633858Y1009042D01*
Y1043307D01*
Y1077572D01*
X3632595Y1077406D01*
X3624081Y1073880D01*
X3616770Y1068269D01*
X3611160Y1060958D01*
X3608431Y1054371D01*
X3603231Y1054883D01*
X3603223Y1054928D01*
X3598402Y1062142D01*
X3598402Y1062142D01*
X3276079Y1384465D01*
X3268865Y1389286D01*
X3260354Y1390978D01*
X3260354Y1390978D01*
X3085242D01*
X3083151Y1393702D01*
X3075840Y1399312D01*
X3067326Y1402839D01*
X3058189Y1404042D01*
D02*
G37*
G36*
X3183872Y1035433D02*
X3157480D01*
Y1009042D01*
X3158743Y1009208D01*
X3167257Y1012735D01*
X3174569Y1018345D01*
X3180179Y1025656D01*
X3183705Y1034170D01*
X3183872Y1035433D01*
D02*
G37*
G36*
X3141732D02*
X3115341D01*
X3115507Y1034170D01*
X3119034Y1025656D01*
X3124644Y1018345D01*
X3131955Y1012735D01*
X3140470Y1009208D01*
X3141732Y1009042D01*
Y1035433D01*
D02*
G37*
G36*
X2680118Y1019502D02*
Y993110D01*
X2706510D01*
X2706343Y994373D01*
X2702816Y1002887D01*
X2697206Y1010198D01*
X2689895Y1015809D01*
X2681381Y1019335D01*
X2680118Y1019502D01*
D02*
G37*
G36*
X2664370D02*
X2663107Y1019335D01*
X2654593Y1015809D01*
X2647282Y1010198D01*
X2641672Y1002887D01*
X2638145Y994373D01*
X2637979Y993110D01*
X2664370D01*
Y1019502D01*
D02*
G37*
G36*
X2940945Y979147D02*
Y952756D01*
X2967336D01*
X2967170Y954019D01*
X2963643Y962533D01*
X2958033Y969844D01*
X2950722Y975454D01*
X2942208Y978981D01*
X2940945Y979147D01*
D02*
G37*
G36*
X2925197D02*
X2923934Y978981D01*
X2915420Y975454D01*
X2908109Y969844D01*
X2902499Y962533D01*
X2898972Y954019D01*
X2898805Y952756D01*
X2925197D01*
Y979147D01*
D02*
G37*
G36*
X185039D02*
Y952756D01*
X211431D01*
X211264Y954019D01*
X207738Y962533D01*
X202128Y969844D01*
X194816Y975454D01*
X186302Y978981D01*
X185039Y979147D01*
D02*
G37*
G36*
X169291D02*
X168029Y978981D01*
X159514Y975454D01*
X152203Y969844D01*
X146593Y962533D01*
X143066Y954019D01*
X142900Y952756D01*
X169291D01*
Y979147D01*
D02*
G37*
G36*
X2706510Y977362D02*
X2680118D01*
Y950971D01*
X2681381Y951137D01*
X2689895Y954664D01*
X2697206Y960274D01*
X2702816Y967585D01*
X2706343Y976099D01*
X2706510Y977362D01*
D02*
G37*
G36*
X2664370D02*
X2637979D01*
X2638145Y976099D01*
X2641672Y967585D01*
X2647282Y960274D01*
X2654593Y954664D01*
X2663107Y951137D01*
X2664370Y950971D01*
Y977362D01*
D02*
G37*
G36*
X2967336Y937008D02*
X2940945D01*
Y910616D01*
X2942208Y910783D01*
X2950722Y914309D01*
X2958033Y919920D01*
X2963643Y927231D01*
X2967170Y935745D01*
X2967336Y937008D01*
D02*
G37*
G36*
X2925197D02*
X2898805D01*
X2898972Y935745D01*
X2902499Y927231D01*
X2908109Y919920D01*
X2915420Y914309D01*
X2923934Y910783D01*
X2925197Y910616D01*
Y937008D01*
D02*
G37*
G36*
X211431D02*
X185039D01*
Y910616D01*
X186302Y910783D01*
X194816Y914309D01*
X202128Y919920D01*
X207738Y927231D01*
X211264Y935745D01*
X211431Y937008D01*
D02*
G37*
G36*
X169291D02*
X142900D01*
X143066Y935745D01*
X146593Y927231D01*
X152203Y919920D01*
X159514Y914309D01*
X168029Y910783D01*
X169291Y910616D01*
Y937008D01*
D02*
G37*
G36*
X1236220Y913202D02*
Y886811D01*
X1262612D01*
X1262446Y888074D01*
X1258919Y896588D01*
X1253309Y903899D01*
X1245997Y909509D01*
X1237483Y913036D01*
X1236220Y913202D01*
D02*
G37*
G36*
X1220473D02*
X1219210Y913036D01*
X1210696Y909509D01*
X1203384Y903899D01*
X1197774Y896588D01*
X1194247Y888074D01*
X1194081Y886811D01*
X1220473D01*
Y913202D01*
D02*
G37*
G36*
X2842520Y900407D02*
Y874016D01*
X2868911D01*
X2868745Y875279D01*
X2865218Y883793D01*
X2859608Y891104D01*
X2852297Y896714D01*
X2843782Y900241D01*
X2842520Y900407D01*
D02*
G37*
G36*
X2826772D02*
X2825509Y900241D01*
X2816995Y896714D01*
X2809683Y891104D01*
X2804073Y883793D01*
X2800547Y875279D01*
X2800380Y874016D01*
X2826772D01*
Y900407D01*
D02*
G37*
G36*
X1262612Y871063D02*
X1236220D01*
Y844672D01*
X1237483Y844838D01*
X1245997Y848365D01*
X1253309Y853975D01*
X1258919Y861286D01*
X1262446Y869800D01*
X1262612Y871063D01*
D02*
G37*
G36*
X1220473D02*
X1194081D01*
X1194247Y869800D01*
X1197774Y861286D01*
X1203384Y853975D01*
X1210696Y848365D01*
X1219210Y844838D01*
X1220473Y844672D01*
Y871063D01*
D02*
G37*
G36*
X2868911Y858268D02*
X2842520D01*
Y831876D01*
X2843782Y832043D01*
X2852297Y835569D01*
X2859608Y841179D01*
X2865218Y848491D01*
X2868745Y857005D01*
X2868911Y858268D01*
D02*
G37*
G36*
X2826772D02*
X2800380D01*
X2800547Y857005D01*
X2804073Y848491D01*
X2809683Y841179D01*
X2816995Y835569D01*
X2825509Y832043D01*
X2826772Y831876D01*
Y858268D01*
D02*
G37*
G36*
X3188976Y847258D02*
Y820866D01*
X3215368D01*
X3215202Y822129D01*
X3211675Y830643D01*
X3206065Y837954D01*
X3198753Y843564D01*
X3190239Y847091D01*
X3188976Y847258D01*
D02*
G37*
G36*
X3173228D02*
X3171966Y847091D01*
X3163451Y843564D01*
X3156140Y837954D01*
X3150530Y830643D01*
X3147003Y822129D01*
X3146837Y820866D01*
X3173228D01*
Y847258D01*
D02*
G37*
G36*
X3215368Y805118D02*
X3188976D01*
Y778727D01*
X3190239Y778893D01*
X3198753Y782420D01*
X3206065Y788030D01*
X3211675Y795341D01*
X3215202Y803855D01*
X3215368Y805118D01*
D02*
G37*
G36*
X3173228D02*
X3146837D01*
X3147003Y803855D01*
X3150530Y795341D01*
X3156140Y788030D01*
X3163451Y782420D01*
X3171966Y778893D01*
X3173228Y778727D01*
Y805118D01*
D02*
G37*
G36*
X2409449Y910002D02*
X2389346Y908420D01*
X2369738Y903713D01*
X2351108Y895996D01*
X2333915Y885460D01*
X2318581Y872364D01*
X2305485Y857030D01*
X2294949Y839837D01*
X2287232Y821207D01*
X2282525Y801599D01*
X2280943Y781496D01*
X2282525Y761393D01*
X2287232Y741785D01*
X2294949Y723155D01*
X2305485Y705962D01*
X2318581Y690628D01*
X2333915Y677532D01*
X2351108Y666996D01*
X2369738Y659279D01*
X2389346Y654572D01*
X2409449Y652990D01*
X2429552Y654572D01*
X2449159Y659279D01*
X2467789Y666996D01*
X2484983Y677532D01*
X2500316Y690628D01*
X2513413Y705962D01*
X2523949Y723155D01*
X2531666Y741785D01*
X2536373Y761393D01*
X2537955Y781496D01*
X2536373Y801599D01*
X2531666Y821207D01*
X2523949Y839837D01*
X2513413Y857030D01*
X2500316Y872364D01*
X2484983Y885460D01*
X2467789Y895996D01*
X2449159Y903713D01*
X2429552Y908420D01*
X2409449Y910002D01*
D02*
G37*
G36*
X2714567Y649423D02*
Y623032D01*
X2740958D01*
X2740792Y624294D01*
X2737265Y632808D01*
X2731655Y640120D01*
X2724344Y645730D01*
X2715830Y649257D01*
X2714567Y649423D01*
D02*
G37*
G36*
X2698819D02*
X2697556Y649257D01*
X2689042Y645730D01*
X2681731Y640120D01*
X2676120Y632808D01*
X2672594Y624294D01*
X2672427Y623032D01*
X2698819D01*
Y649423D01*
D02*
G37*
G36*
X165354Y624817D02*
Y598425D01*
X191746D01*
X191579Y599688D01*
X188053Y608202D01*
X182443Y615514D01*
X175131Y621124D01*
X166617Y624650D01*
X165354Y624817D01*
D02*
G37*
G36*
X149606D02*
X148344Y624650D01*
X139829Y621124D01*
X132518Y615514D01*
X126908Y608202D01*
X123381Y599688D01*
X123215Y598425D01*
X149606D01*
Y624817D01*
D02*
G37*
G36*
X2740958Y607284D02*
X2714567D01*
Y580892D01*
X2715830Y581058D01*
X2724344Y584585D01*
X2731655Y590195D01*
X2737265Y597506D01*
X2740792Y606021D01*
X2740958Y607284D01*
D02*
G37*
G36*
X2698819D02*
X2672427D01*
X2672594Y606021D01*
X2676120Y597506D01*
X2681731Y590195D01*
X2689042Y584585D01*
X2697556Y581058D01*
X2698819Y580892D01*
Y607284D01*
D02*
G37*
G36*
X191746Y582677D02*
X165354D01*
Y556286D01*
X166617Y556452D01*
X175131Y559979D01*
X182443Y565589D01*
X188053Y572900D01*
X191579Y581414D01*
X191746Y582677D01*
D02*
G37*
G36*
X149606D02*
X123215D01*
X123381Y581414D01*
X126908Y572900D01*
X132518Y565589D01*
X139829Y559979D01*
X148344Y556452D01*
X149606Y556286D01*
Y582677D01*
D02*
G37*
G36*
X4164370Y575604D02*
Y549213D01*
X4190761D01*
X4190595Y550475D01*
X4187069Y558990D01*
X4181458Y566301D01*
X4174147Y571911D01*
X4165633Y575438D01*
X4164370Y575604D01*
D02*
G37*
G36*
X4148622D02*
X4147359Y575438D01*
X4138845Y571911D01*
X4131534Y566301D01*
X4125924Y558990D01*
X4122397Y550475D01*
X4122231Y549213D01*
X4148622D01*
Y575604D01*
D02*
G37*
G36*
X3346457Y564777D02*
Y538386D01*
X3372848D01*
X3372682Y539649D01*
X3369155Y548163D01*
X3363545Y555474D01*
X3356234Y561084D01*
X3347720Y564611D01*
X3346457Y564777D01*
D02*
G37*
G36*
X3330709D02*
X3329446Y564611D01*
X3320932Y561084D01*
X3313620Y555474D01*
X3308010Y548163D01*
X3304484Y539649D01*
X3304317Y538386D01*
X3330709D01*
Y564777D01*
D02*
G37*
G36*
X3858268Y562809D02*
Y536417D01*
X3884659D01*
X3884493Y537680D01*
X3880966Y546194D01*
X3875356Y553506D01*
X3868045Y559116D01*
X3859530Y562642D01*
X3858268Y562809D01*
D02*
G37*
G36*
X3842520D02*
X3841257Y562642D01*
X3832743Y559116D01*
X3825431Y553506D01*
X3819821Y546194D01*
X3816295Y537680D01*
X3816128Y536417D01*
X3842520D01*
Y562809D01*
D02*
G37*
G36*
X4190761Y533465D02*
X4164370D01*
Y507073D01*
X4165633Y507240D01*
X4174147Y510766D01*
X4181458Y516376D01*
X4187069Y523688D01*
X4190595Y532202D01*
X4190761Y533465D01*
D02*
G37*
G36*
X4148622D02*
X4122231D01*
X4122397Y532202D01*
X4125924Y523688D01*
X4131534Y516376D01*
X4138845Y510766D01*
X4147359Y507240D01*
X4148622Y507073D01*
Y533465D01*
D02*
G37*
G36*
X2417323Y625918D02*
Y505906D01*
X2537335D01*
X2536373Y518134D01*
X2531666Y537742D01*
X2523949Y556372D01*
X2513413Y573566D01*
X2500316Y588899D01*
X2484983Y601995D01*
X2467789Y612532D01*
X2449159Y620248D01*
X2429552Y624956D01*
X2417323Y625918D01*
D02*
G37*
G36*
X2401575D02*
X2389346Y624956D01*
X2369738Y620248D01*
X2351108Y612532D01*
X2333915Y601995D01*
X2318581Y588899D01*
X2305485Y573566D01*
X2294949Y556372D01*
X2287232Y537742D01*
X2282525Y518134D01*
X2281562Y505906D01*
X2401575D01*
Y625918D01*
D02*
G37*
G36*
X3372848Y522638D02*
X3346457D01*
Y496246D01*
X3347720Y496413D01*
X3356234Y499939D01*
X3363545Y505550D01*
X3369155Y512861D01*
X3372682Y521375D01*
X3372848Y522638D01*
D02*
G37*
G36*
X3330709D02*
X3304317D01*
X3304484Y521375D01*
X3308010Y512861D01*
X3313620Y505550D01*
X3320932Y499939D01*
X3329446Y496413D01*
X3330709Y496246D01*
Y522638D01*
D02*
G37*
G36*
X3590551Y522454D02*
Y496063D01*
X3616943D01*
X3616776Y497326D01*
X3613250Y505840D01*
X3607640Y513151D01*
X3600328Y518761D01*
X3591814Y522288D01*
X3590551Y522454D01*
D02*
G37*
G36*
X3574803D02*
X3573540Y522288D01*
X3565026Y518761D01*
X3557715Y513151D01*
X3552105Y505840D01*
X3548578Y497326D01*
X3548412Y496063D01*
X3574803D01*
Y522454D01*
D02*
G37*
G36*
X3884659Y520669D02*
X3858268D01*
Y494278D01*
X3859530Y494444D01*
X3868045Y497971D01*
X3875356Y503581D01*
X3880966Y510892D01*
X3884493Y519407D01*
X3884659Y520669D01*
D02*
G37*
G36*
X3842520D02*
X3816128D01*
X3816295Y519407D01*
X3819821Y510892D01*
X3825431Y503581D01*
X3832743Y497971D01*
X3841257Y494444D01*
X3842520Y494278D01*
Y520669D01*
D02*
G37*
G36*
X3616943Y480315D02*
X3590551D01*
Y453924D01*
X3591814Y454090D01*
X3600328Y457617D01*
X3607640Y463227D01*
X3613250Y470538D01*
X3616776Y479052D01*
X3616943Y480315D01*
D02*
G37*
G36*
X3574803D02*
X3548412D01*
X3548578Y479052D01*
X3552105Y470538D01*
X3557715Y463227D01*
X3565026Y457617D01*
X3573540Y454090D01*
X3574803Y453924D01*
Y480315D01*
D02*
G37*
G36*
X3136811Y458478D02*
Y432087D01*
X3163202D01*
X3163036Y433349D01*
X3159509Y441864D01*
X3153899Y449175D01*
X3146588Y454785D01*
X3138074Y458312D01*
X3136811Y458478D01*
D02*
G37*
G36*
X3121063D02*
X3119800Y458312D01*
X3111286Y454785D01*
X3103975Y449175D01*
X3098365Y441864D01*
X3094838Y433349D01*
X3094672Y432087D01*
X3121063D01*
Y458478D01*
D02*
G37*
G36*
X2984252Y684609D02*
X2964149Y683027D01*
X2944541Y678319D01*
X2925911Y670602D01*
X2908718Y660066D01*
X2893384Y646970D01*
X2880288Y631636D01*
X2869752Y614443D01*
X2862035Y595813D01*
X2857328Y576205D01*
X2855746Y556102D01*
X2857328Y536000D01*
X2862035Y516392D01*
X2869752Y497762D01*
X2880288Y480568D01*
X2893384Y465235D01*
X2908718Y452139D01*
X2925911Y441602D01*
X2944541Y433886D01*
X2964149Y429178D01*
X2984252Y427596D01*
X3004355Y429178D01*
X3023963Y433886D01*
X3042593Y441602D01*
X3059786Y452139D01*
X3075120Y465235D01*
X3088216Y480568D01*
X3098752Y497762D01*
X3106469Y516392D01*
X3111176Y536000D01*
X3112758Y556102D01*
X3111176Y576205D01*
X3106469Y595813D01*
X3098752Y614443D01*
X3088216Y631636D01*
X3075120Y646970D01*
X3059786Y660066D01*
X3042593Y670602D01*
X3023963Y678319D01*
X3004355Y683027D01*
X2984252Y684609D01*
D02*
G37*
G36*
X3163202Y416339D02*
X3136811D01*
Y389947D01*
X3138074Y390113D01*
X3146588Y393640D01*
X3153899Y399250D01*
X3159509Y406562D01*
X3163036Y415076D01*
X3163202Y416339D01*
D02*
G37*
G36*
X3121063D02*
X3094672D01*
X3094838Y415076D01*
X3098365Y406562D01*
X3103975Y399250D01*
X3111286Y393640D01*
X3119800Y390113D01*
X3121063Y389947D01*
Y416339D01*
D02*
G37*
G36*
X4102362Y407297D02*
Y380906D01*
X4128754D01*
X4128587Y382168D01*
X4125061Y390683D01*
X4119450Y397994D01*
X4112139Y403604D01*
X4103625Y407131D01*
X4102362Y407297D01*
D02*
G37*
G36*
X4086614D02*
X4085351Y407131D01*
X4076837Y403604D01*
X4069526Y397994D01*
X4063916Y390683D01*
X4060389Y382168D01*
X4060223Y380906D01*
X4086614D01*
Y407297D01*
D02*
G37*
G36*
X2537335Y490158D02*
X2417323D01*
Y370145D01*
X2429552Y371107D01*
X2449159Y375815D01*
X2467789Y383531D01*
X2484983Y394068D01*
X2500316Y407164D01*
X2513413Y422497D01*
X2523949Y439691D01*
X2531666Y458321D01*
X2536373Y477929D01*
X2537335Y490158D01*
D02*
G37*
G36*
X2401575D02*
X2281562D01*
X2282525Y477929D01*
X2287232Y458321D01*
X2294949Y439691D01*
X2305485Y422497D01*
X2318581Y407164D01*
X2333915Y394068D01*
X2351108Y383531D01*
X2369738Y375815D01*
X2389346Y371107D01*
X2401575Y370145D01*
Y490158D01*
D02*
G37*
G36*
X2073819Y394502D02*
Y368110D01*
X2100210D01*
X2100044Y369373D01*
X2096517Y377887D01*
X2090907Y385199D01*
X2083596Y390809D01*
X2075082Y394335D01*
X2073819Y394502D01*
D02*
G37*
G36*
X2058071D02*
X2056808Y394335D01*
X2048294Y390809D01*
X2040983Y385199D01*
X2035372Y377887D01*
X2031846Y369373D01*
X2031679Y368110D01*
X2058071D01*
Y394502D01*
D02*
G37*
G36*
X2686024Y391549D02*
Y365158D01*
X2712415D01*
X2712249Y366420D01*
X2708722Y374935D01*
X2703112Y382246D01*
X2695801Y387856D01*
X2687286Y391383D01*
X2686024Y391549D01*
D02*
G37*
G36*
X2670276D02*
X2669013Y391383D01*
X2660499Y387856D01*
X2653187Y382246D01*
X2647577Y374935D01*
X2644050Y366420D01*
X2643884Y365158D01*
X2670276D01*
Y391549D01*
D02*
G37*
G36*
X4128754Y365158D02*
X4102362D01*
Y338766D01*
X4103625Y338932D01*
X4112139Y342459D01*
X4119450Y348069D01*
X4125061Y355380D01*
X4128587Y363895D01*
X4128754Y365158D01*
D02*
G37*
G36*
X4086614D02*
X4060223D01*
X4060389Y363895D01*
X4063916Y355380D01*
X4069526Y348069D01*
X4076837Y342459D01*
X4085351Y338932D01*
X4086614Y338766D01*
Y365158D01*
D02*
G37*
G36*
X1793307Y359068D02*
Y332677D01*
X1819698D01*
X1819532Y333940D01*
X1816005Y342454D01*
X1810395Y349765D01*
X1803084Y355375D01*
X1794570Y358902D01*
X1793307Y359068D01*
D02*
G37*
G36*
X1777559D02*
X1776296Y358902D01*
X1767782Y355375D01*
X1760471Y349765D01*
X1754861Y342454D01*
X1751334Y333940D01*
X1751168Y332677D01*
X1777559D01*
Y359068D01*
D02*
G37*
G36*
X2100210Y352362D02*
X2073819D01*
Y325971D01*
X2075082Y326137D01*
X2083596Y329664D01*
X2090907Y335274D01*
X2096517Y342585D01*
X2100044Y351099D01*
X2100210Y352362D01*
D02*
G37*
G36*
X2058071D02*
X2031679D01*
X2031846Y351099D01*
X2035372Y342585D01*
X2040983Y335274D01*
X2048294Y329664D01*
X2056808Y326137D01*
X2058071Y325971D01*
Y352362D01*
D02*
G37*
G36*
X865158Y350210D02*
Y323819D01*
X891549D01*
X891383Y325082D01*
X887856Y333596D01*
X882246Y340907D01*
X874934Y346517D01*
X866420Y350044D01*
X865158Y350210D01*
D02*
G37*
G36*
X849409D02*
X848147Y350044D01*
X839633Y346517D01*
X832321Y340907D01*
X826711Y333596D01*
X823184Y325082D01*
X823018Y323819D01*
X849409D01*
Y350210D01*
D02*
G37*
G36*
X187008D02*
Y323819D01*
X213399D01*
X213233Y325082D01*
X209706Y333596D01*
X204096Y340907D01*
X196785Y346517D01*
X188271Y350044D01*
X187008Y350210D01*
D02*
G37*
G36*
X171260D02*
X169997Y350044D01*
X161483Y346517D01*
X154172Y340907D01*
X148561Y333596D01*
X145035Y325082D01*
X144869Y323819D01*
X171260D01*
Y350210D01*
D02*
G37*
G36*
X2712415Y349409D02*
X2686024D01*
Y323018D01*
X2687286Y323184D01*
X2695801Y326711D01*
X2703112Y332321D01*
X2708722Y339632D01*
X2712249Y348147D01*
X2712415Y349409D01*
D02*
G37*
G36*
X2670276D02*
X2643884D01*
X2644050Y348147D01*
X2647577Y339632D01*
X2653187Y332321D01*
X2660499Y326711D01*
X2669013Y323184D01*
X2670276Y323018D01*
Y349409D01*
D02*
G37*
G36*
X1819698Y316929D02*
X1793307D01*
Y290538D01*
X1794570Y290704D01*
X1803084Y294231D01*
X1810395Y299841D01*
X1816005Y307152D01*
X1819532Y315666D01*
X1819698Y316929D01*
D02*
G37*
G36*
X1777559D02*
X1751168D01*
X1751334Y315666D01*
X1754861Y307152D01*
X1760471Y299841D01*
X1767782Y294231D01*
X1776296Y290704D01*
X1777559Y290538D01*
Y316929D01*
D02*
G37*
G36*
X891549Y308071D02*
X865158D01*
Y281680D01*
X866420Y281846D01*
X874934Y285373D01*
X882246Y290983D01*
X887856Y298294D01*
X891383Y306808D01*
X891549Y308071D01*
D02*
G37*
G36*
X849409D02*
X823018D01*
X823184Y306808D01*
X826711Y298294D01*
X832321Y290983D01*
X839633Y285373D01*
X848147Y281846D01*
X849409Y281680D01*
Y308071D01*
D02*
G37*
G36*
X2992126Y400524D02*
Y280512D01*
X3112139D01*
X3111176Y292741D01*
X3106469Y312348D01*
X3098752Y330978D01*
X3088216Y348172D01*
X3075120Y363505D01*
X3059786Y376602D01*
X3042593Y387138D01*
X3023963Y394855D01*
X3004355Y399562D01*
X2992126Y400524D01*
D02*
G37*
G36*
X2976378D02*
X2964149Y399562D01*
X2944541Y394855D01*
X2925911Y387138D01*
X2908718Y376602D01*
X2893384Y363505D01*
X2880288Y348172D01*
X2869752Y330978D01*
X2862035Y312348D01*
X2857328Y292741D01*
X2856365Y280512D01*
X2976378D01*
Y400524D01*
D02*
G37*
G36*
X3846457Y379855D02*
Y259842D01*
X3966469D01*
X3965507Y272071D01*
X3960800Y291679D01*
X3953083Y310309D01*
X3942546Y327503D01*
X3929450Y342836D01*
X3914117Y355932D01*
X3896923Y366469D01*
X3878293Y374185D01*
X3858686Y378893D01*
X3846457Y379855D01*
D02*
G37*
G36*
X3830709D02*
X3818480Y378893D01*
X3798872Y374185D01*
X3780242Y366469D01*
X3763049Y355932D01*
X3747715Y342836D01*
X3734619Y327503D01*
X3724083Y310309D01*
X3716366Y291679D01*
X3711659Y272071D01*
X3710696Y259842D01*
X3830709D01*
Y379855D01*
D02*
G37*
G36*
X2437008Y222257D02*
Y195866D01*
X2463399D01*
X2463233Y197129D01*
X2459706Y205643D01*
X2454096Y212954D01*
X2446785Y218565D01*
X2438271Y222091D01*
X2437008Y222257D01*
D02*
G37*
G36*
X2421260D02*
X2419997Y222091D01*
X2411483Y218565D01*
X2404172Y212954D01*
X2398561Y205643D01*
X2395035Y197129D01*
X2394869Y195866D01*
X2421260D01*
Y222257D01*
D02*
G37*
G36*
X1383858Y196667D02*
Y170276D01*
X1410250D01*
X1410083Y171538D01*
X1406557Y180053D01*
X1400947Y187364D01*
X1393635Y192974D01*
X1385121Y196501D01*
X1383858Y196667D01*
D02*
G37*
G36*
X1368110D02*
X1366848Y196501D01*
X1358333Y192974D01*
X1351022Y187364D01*
X1345412Y180053D01*
X1341885Y171538D01*
X1341719Y170276D01*
X1368110D01*
Y196667D01*
D02*
G37*
G36*
X2463399Y180118D02*
X2437008D01*
Y153727D01*
X2438271Y153893D01*
X2446785Y157420D01*
X2454096Y163030D01*
X2459706Y170341D01*
X2463233Y178855D01*
X2463399Y180118D01*
D02*
G37*
G36*
X2421260D02*
X2394869D01*
X2395035Y178855D01*
X2398561Y170341D01*
X2404172Y163030D01*
X2411483Y157420D01*
X2419997Y153893D01*
X2421260Y153727D01*
Y180118D01*
D02*
G37*
G36*
X3112139Y264764D02*
X2992126D01*
Y144751D01*
X3004355Y145714D01*
X3023963Y150421D01*
X3042593Y158138D01*
X3059786Y168674D01*
X3075120Y181770D01*
X3088216Y197104D01*
X3098752Y214297D01*
X3106469Y232927D01*
X3111176Y252535D01*
X3112139Y264764D01*
D02*
G37*
G36*
X2976378D02*
X2856365D01*
X2857328Y252535D01*
X2862035Y232927D01*
X2869752Y214297D01*
X2880288Y197104D01*
X2893384Y181770D01*
X2908718Y168674D01*
X2925911Y158138D01*
X2944541Y150421D01*
X2964149Y145714D01*
X2976378Y144751D01*
Y264764D01*
D02*
G37*
G36*
X1410250Y154528D02*
X1383858D01*
Y128136D01*
X1385121Y128303D01*
X1393635Y131829D01*
X1400947Y137439D01*
X1406557Y144751D01*
X1410083Y153265D01*
X1410250Y154528D01*
D02*
G37*
G36*
X1368110D02*
X1341719D01*
X1341885Y153265D01*
X1345412Y144751D01*
X1351022Y137439D01*
X1358333Y131829D01*
X1366848Y128303D01*
X1368110Y128136D01*
Y154528D01*
D02*
G37*
G36*
X3555118Y380475D02*
X3535015Y378893D01*
X3515407Y374185D01*
X3496778Y366469D01*
X3479584Y355932D01*
X3464250Y342836D01*
X3451154Y327503D01*
X3440618Y310309D01*
X3432901Y291679D01*
X3428194Y272071D01*
X3426612Y251969D01*
X3428194Y231866D01*
X3432901Y212258D01*
X3440618Y193628D01*
X3451154Y176434D01*
X3464250Y161101D01*
X3479584Y148005D01*
X3496778Y137469D01*
X3515407Y129752D01*
X3535015Y125044D01*
X3555118Y123462D01*
X3575221Y125044D01*
X3594829Y129752D01*
X3613459Y137469D01*
X3630652Y148005D01*
X3645986Y161101D01*
X3659082Y176434D01*
X3669618Y193628D01*
X3677335Y212258D01*
X3682042Y231866D01*
X3683624Y251969D01*
X3682042Y272071D01*
X3677335Y291679D01*
X3669618Y310309D01*
X3659082Y327503D01*
X3645986Y342836D01*
X3630652Y355932D01*
X3613459Y366469D01*
X3594829Y374185D01*
X3575221Y378893D01*
X3555118Y380475D01*
D02*
G37*
G36*
X3176181Y136628D02*
Y110236D01*
X3202573D01*
X3202406Y111499D01*
X3198880Y120013D01*
X3193269Y127325D01*
X3185958Y132935D01*
X3177444Y136461D01*
X3176181Y136628D01*
D02*
G37*
G36*
X3160433D02*
X3159170Y136461D01*
X3150656Y132935D01*
X3143345Y127325D01*
X3137735Y120013D01*
X3134208Y111499D01*
X3134042Y110236D01*
X3160433D01*
Y136628D01*
D02*
G37*
G36*
X3695866Y129738D02*
Y103346D01*
X3722258D01*
X3722091Y104609D01*
X3718565Y113123D01*
X3712954Y120435D01*
X3705643Y126045D01*
X3697129Y129571D01*
X3695866Y129738D01*
D02*
G37*
G36*
X3680118D02*
X3678855Y129571D01*
X3670341Y126045D01*
X3663030Y120435D01*
X3657420Y113123D01*
X3653893Y104609D01*
X3653727Y103346D01*
X3680118D01*
Y129738D01*
D02*
G37*
G36*
X464567D02*
Y103346D01*
X490958D01*
X490792Y104609D01*
X487265Y113123D01*
X481655Y120435D01*
X474344Y126045D01*
X465830Y129571D01*
X464567Y129738D01*
D02*
G37*
G36*
X448819D02*
X447556Y129571D01*
X439042Y126045D01*
X431731Y120435D01*
X426120Y113123D01*
X422594Y104609D01*
X422428Y103346D01*
X448819D01*
Y129738D01*
D02*
G37*
G36*
X3966469Y244094D02*
X3838583D01*
X3710696D01*
X3711659Y231866D01*
X3716366Y212258D01*
X3724083Y193628D01*
X3734619Y176434D01*
X3747715Y161101D01*
X3763049Y148005D01*
X3780242Y137469D01*
X3798872Y129752D01*
X3818480Y125044D01*
X3836445Y123630D01*
X3837614Y121864D01*
X3838555Y118596D01*
X3833601Y112139D01*
X3830074Y103625D01*
X3829908Y102362D01*
X3898439D01*
X3898272Y103625D01*
X3894746Y112139D01*
X3889136Y119451D01*
X3881824Y125061D01*
X3880929Y125431D01*
Y130843D01*
X3896923Y137469D01*
X3914117Y148005D01*
X3929450Y161101D01*
X3942546Y176434D01*
X3953083Y193628D01*
X3960800Y212258D01*
X3965507Y231866D01*
X3966469Y244094D01*
D02*
G37*
G36*
X3202573Y94488D02*
X3176181D01*
Y68097D01*
X3177444Y68263D01*
X3185958Y71790D01*
X3193269Y77400D01*
X3198880Y84711D01*
X3202406Y93225D01*
X3202573Y94488D01*
D02*
G37*
G36*
X3160433D02*
X3134042D01*
X3134208Y93225D01*
X3137735Y84711D01*
X3143345Y77400D01*
X3150656Y71790D01*
X3159170Y68263D01*
X3160433Y68097D01*
Y94488D01*
D02*
G37*
G36*
X3722258Y87598D02*
X3695866D01*
Y61207D01*
X3697129Y61373D01*
X3705643Y64900D01*
X3712954Y70510D01*
X3718565Y77821D01*
X3722091Y86336D01*
X3722258Y87598D01*
D02*
G37*
G36*
X3680118D02*
X3653727D01*
X3653893Y86336D01*
X3657420Y77821D01*
X3663030Y70510D01*
X3670341Y64900D01*
X3678855Y61373D01*
X3680118Y61207D01*
Y87598D01*
D02*
G37*
G36*
X490958D02*
X464567D01*
Y61207D01*
X465830Y61373D01*
X474344Y64900D01*
X481655Y70510D01*
X487265Y77821D01*
X490792Y86336D01*
X490958Y87598D01*
D02*
G37*
G36*
X448819D02*
X422428D01*
X422594Y86336D01*
X426120Y77821D01*
X431731Y70510D01*
X439042Y64900D01*
X447556Y61373D01*
X448819Y61207D01*
Y87598D01*
D02*
G37*
G36*
X3898439Y86614D02*
X3872047D01*
Y60223D01*
X3873310Y60389D01*
X3881824Y63916D01*
X3889136Y69526D01*
X3894746Y76837D01*
X3898272Y85351D01*
X3898439Y86614D01*
D02*
G37*
G36*
X3856299D02*
X3829908D01*
X3830074Y85351D01*
X3833601Y76837D01*
X3839211Y69526D01*
X3846522Y63916D01*
X3855037Y60389D01*
X3856299Y60223D01*
Y86614D01*
D02*
G37*
%LPD*%
D25*
X3582677Y628937D02*
Y1046417D01*
X3260354Y1368740D02*
X3582677Y1046417D01*
X3058189Y1368740D02*
X3260354D01*
D30*
X2539370Y1850394D02*
D03*
Y1566929D02*
D03*
X429134Y2062008D02*
D03*
X712598D02*
D03*
X2409449Y498031D02*
D03*
Y781496D02*
D03*
X2058071Y2184055D02*
D03*
X1774606D02*
D03*
X429134Y1632874D02*
D03*
X712598D02*
D03*
X2984252Y272638D02*
D03*
Y556102D02*
D03*
X3838583Y251969D02*
D03*
X3555118D02*
D03*
D31*
X374016Y2244095D02*
D03*
X3464567Y1594488D02*
D03*
X1240158Y2106299D02*
D03*
X177165Y1555118D02*
D03*
Y944882D02*
D03*
X157480Y590551D02*
D03*
X2115157Y1936024D02*
D03*
X1931102Y2393701D02*
D03*
X2335630Y2199803D02*
D03*
X1027559Y1648622D02*
D03*
X1234252Y1562008D02*
D03*
X1562008Y1930118D02*
D03*
X1981299Y1895669D02*
D03*
X2050197Y1373032D02*
D03*
X1375984Y162402D02*
D03*
X1228347Y878937D02*
D03*
X857284Y315945D02*
D03*
X456693Y95472D02*
D03*
X298228Y1239173D02*
D03*
X545276Y1845472D02*
D03*
X552165Y2217520D02*
D03*
X270669Y1847441D02*
D03*
X616142Y2363189D02*
D03*
X2287402Y1688976D02*
D03*
X3864173Y94488D02*
D03*
X4094488Y373031D02*
D03*
X179134Y315945D02*
D03*
X1105315Y1150591D02*
D03*
X1752953Y1153543D02*
D03*
X2804134Y1744094D02*
D03*
X3181102Y812992D02*
D03*
X3582677Y488189D02*
D03*
X3338583Y530512D02*
D03*
X3128937Y424213D02*
D03*
X3687992Y95472D02*
D03*
X4156496Y541339D02*
D03*
X3850394Y528543D02*
D03*
X3168307Y102362D02*
D03*
X1785433Y324803D02*
D03*
X2065945Y360236D02*
D03*
X2706693Y615158D02*
D03*
X2678150Y357284D02*
D03*
X2429134Y187992D02*
D03*
X2540354Y2113189D02*
D03*
X2311024Y1959646D02*
D03*
X3582677Y628937D02*
D03*
X427165Y1417323D02*
D03*
X908465Y2328740D02*
D03*
X1252953Y2440945D02*
D03*
X2204724Y2342520D02*
D03*
X1456693Y1417323D02*
D03*
X2285433Y1445866D02*
D03*
X2696850Y2362205D02*
D03*
X3070866Y2342520D02*
D03*
X3761811Y2295276D02*
D03*
X4153543Y2027559D02*
D03*
X2874016Y2047244D02*
D03*
X3248032Y2007874D02*
D03*
X3090551Y1653543D02*
D03*
X3799213Y1968504D02*
D03*
X4094488Y1102362D02*
D03*
X3641732Y1043307D02*
D03*
X2672244Y985236D02*
D03*
X2834646Y866142D02*
D03*
X2933071Y944882D02*
D03*
Y1056102D02*
D03*
X3149606Y1043307D02*
D03*
X3208661Y1299213D02*
D03*
X2834646Y1476378D02*
D03*
X2710630Y1351378D02*
D03*
X2716535Y1200787D02*
D03*
X670276Y1376968D02*
D03*
X1043307Y1377953D02*
D03*
X664370Y1142716D02*
D03*
X1017717Y1997047D02*
D03*
X3058189Y1368740D02*
D03*
%TF.MD5,09ec9885fdcabe41e282d62caa35cb3b*%
M02*
