G04*
G04 #@! TF.GenerationSoftware,Altium Limited,Altium Designer,19.1.8 (144)*
G04*
G04 Layer_Color=32768*
%FSLAX25Y25*%
%MOIN*%
G70*
G01*
G75*
%ADD11C,0.01000*%
D11*
X125275Y7402D02*
Y17402D01*
X105275D02*
X125275D01*
X105275Y7402D02*
Y17402D01*
Y7402D02*
X125275D01*
X93149Y7205D02*
Y17205D01*
X73149D02*
X93149D01*
X73149Y7205D02*
Y17205D01*
Y7205D02*
X93149D01*
X60964Y7402D02*
Y17402D01*
X40964D02*
X60964D01*
X40964Y7402D02*
Y17402D01*
Y7402D02*
X60964D01*
X13504Y55689D02*
X23504D01*
X13504Y25688D02*
Y55689D01*
Y25688D02*
X23504D01*
Y55689D01*
X13504Y99980D02*
X23504D01*
X13504Y69980D02*
Y99980D01*
Y69980D02*
X23504D01*
Y99980D01*
X23996Y115019D02*
Y155020D01*
X13996D02*
X23996D01*
X13996Y115019D02*
X23996D01*
X13996D02*
Y155020D01*
X105347Y352500D02*
Y392500D01*
X152638Y302087D02*
Y332087D01*
X142638D02*
X152638D01*
X132638D02*
X142638D01*
X132638Y302087D02*
Y332087D01*
Y282087D02*
X142638D01*
X132638D02*
Y312087D01*
X142638Y282087D02*
X152638D01*
Y312087D01*
X32559Y302244D02*
Y332245D01*
X22559D02*
X32559D01*
X12559D02*
X22559D01*
X12559Y302244D02*
Y332245D01*
Y282244D02*
X22559D01*
X12559D02*
Y312245D01*
X22559Y282244D02*
X32559D01*
Y312245D01*
M02*
