G04*
G04 #@! TF.GenerationSoftware,Altium Limited,Altium Designer,19.1.8 (144)*
G04*
G04 Layer_Color=65535*
%FSLAX25Y25*%
%MOIN*%
G70*
G01*
G75*
%ADD10C,0.00787*%
%ADD11C,0.01000*%
%ADD12C,0.00591*%
G36*
X119064Y368183D02*
X119356D01*
Y367891D01*
X119648D01*
Y367598D01*
X119941D01*
Y367306D01*
X120233D01*
Y367014D01*
X120817D01*
Y366722D01*
X121110D01*
Y366429D01*
X121402D01*
Y366137D01*
X121694D01*
Y365845D01*
X121987D01*
Y365552D01*
X122571D01*
Y365260D01*
X122863D01*
Y364968D01*
X123156D01*
Y364676D01*
X123448D01*
Y364383D01*
X123740D01*
Y364091D01*
X124325D01*
Y363799D01*
X124617D01*
Y363507D01*
X124909D01*
Y363214D01*
X125201D01*
Y362922D01*
X125494D01*
Y362630D01*
X126078D01*
Y362338D01*
X126371D01*
Y362045D01*
X126663D01*
Y361753D01*
X127540D01*
Y361461D01*
X128124D01*
Y361169D01*
X129001D01*
Y360876D01*
X129586D01*
Y360584D01*
X130462D01*
Y360292D01*
X131047D01*
Y359999D01*
X131924D01*
Y359707D01*
X132508D01*
Y359415D01*
X133385D01*
Y359123D01*
X133970D01*
Y358830D01*
X134846D01*
Y358538D01*
X135431D01*
Y358246D01*
X136308D01*
Y357954D01*
X136892D01*
Y357661D01*
X137769D01*
Y357369D01*
X138354D01*
Y357077D01*
X139231D01*
Y356784D01*
X137477D01*
Y357077D01*
X135723D01*
Y357369D01*
X133970D01*
Y357661D01*
X132508D01*
Y357954D01*
X130755D01*
Y358246D01*
X129001D01*
Y358538D01*
X127248D01*
Y358830D01*
X125494D01*
Y359123D01*
X124325D01*
Y359707D01*
X124032D01*
Y359999D01*
X123740D01*
Y360584D01*
X123448D01*
Y360876D01*
X123156D01*
Y361461D01*
X122863D01*
Y361753D01*
X122571D01*
Y362338D01*
X122279D01*
Y362922D01*
X121987D01*
Y363214D01*
X121694D01*
Y363799D01*
X121402D01*
Y364091D01*
X121110D01*
Y364676D01*
X120817D01*
Y364968D01*
X120525D01*
Y365552D01*
X120233D01*
Y366137D01*
X119941D01*
Y366429D01*
X119648D01*
Y367014D01*
X119356D01*
Y367306D01*
X119064D01*
Y367891D01*
X118772D01*
Y368475D01*
X119064D01*
Y368183D01*
D02*
G37*
G36*
X115557Y367014D02*
X115849D01*
Y366722D01*
X116141D01*
Y366137D01*
X116433D01*
Y365845D01*
X116726D01*
Y365260D01*
X117018D01*
Y364968D01*
X117310D01*
Y364383D01*
X117603D01*
Y364091D01*
X117895D01*
Y363507D01*
X118187D01*
Y363214D01*
X118479D01*
Y362630D01*
X118772D01*
Y362045D01*
X119064D01*
Y361753D01*
X119356D01*
Y361169D01*
X119648D01*
Y360876D01*
X119941D01*
Y360292D01*
X120233D01*
Y359999D01*
X120525D01*
Y359415D01*
X120817D01*
Y359123D01*
X121110D01*
Y358538D01*
X121402D01*
Y358246D01*
X121694D01*
Y357661D01*
X121987D01*
Y357369D01*
X122279D01*
Y356784D01*
X123156D01*
Y356492D01*
X124909D01*
Y356200D01*
X126955D01*
Y355908D01*
X128709D01*
Y355615D01*
X130462D01*
Y355323D01*
X132508D01*
Y355031D01*
X134262D01*
Y354738D01*
X136308D01*
Y354446D01*
X138061D01*
Y354154D01*
X139815D01*
Y353862D01*
X141861D01*
Y353569D01*
X143615D01*
Y353277D01*
X117603D01*
Y353569D01*
X117310D01*
Y355323D01*
X117018D01*
Y357077D01*
X116726D01*
Y358830D01*
X116433D01*
Y360584D01*
X116141D01*
Y362338D01*
X115849D01*
Y364383D01*
X115557D01*
Y366137D01*
X115264D01*
Y367598D01*
X115557D01*
Y367014D01*
D02*
G37*
G36*
X113803Y359415D02*
X114095D01*
Y357661D01*
X114388D01*
Y355908D01*
X114680D01*
Y354154D01*
X114972D01*
Y352400D01*
X115264D01*
Y351816D01*
X114972D01*
Y350062D01*
X114680D01*
Y348308D01*
X114388D01*
Y346555D01*
X114095D01*
Y344801D01*
X113803D01*
Y343048D01*
X113511D01*
Y344801D01*
X113218D01*
Y346555D01*
X112926D01*
Y348308D01*
X112634D01*
Y350062D01*
X112342D01*
Y351816D01*
X112049D01*
Y352400D01*
X112342D01*
Y354154D01*
X112634D01*
Y355908D01*
X112926D01*
Y357661D01*
X113218D01*
Y359415D01*
X113511D01*
Y361169D01*
X113803D01*
Y359415D01*
D02*
G37*
G36*
X143907Y350647D02*
X141861D01*
Y350354D01*
X140107D01*
Y350062D01*
X138061D01*
Y349770D01*
X136308D01*
Y349478D01*
X134554D01*
Y349185D01*
X132508D01*
Y348893D01*
X130755D01*
Y348601D01*
X128709D01*
Y348308D01*
X126955D01*
Y348016D01*
X125201D01*
Y347724D01*
X123156D01*
Y347432D01*
X122279D01*
Y346847D01*
X121987D01*
Y346555D01*
X121694D01*
Y345970D01*
X121402D01*
Y345678D01*
X121110D01*
Y345093D01*
X120817D01*
Y344801D01*
X120525D01*
Y344217D01*
X120233D01*
Y343924D01*
X119941D01*
Y343340D01*
X119648D01*
Y342755D01*
X119356D01*
Y342463D01*
X119064D01*
Y341879D01*
X118772D01*
Y341586D01*
X118479D01*
Y341002D01*
X118187D01*
Y340709D01*
X117895D01*
Y340125D01*
X117603D01*
Y339833D01*
X117310D01*
Y339248D01*
X117018D01*
Y338956D01*
X116726D01*
Y338371D01*
X116433D01*
Y338079D01*
X116141D01*
Y337494D01*
X115849D01*
Y337202D01*
X115557D01*
Y336618D01*
X115264D01*
Y338079D01*
X115557D01*
Y339833D01*
X115849D01*
Y341586D01*
X116141D01*
Y343632D01*
X116433D01*
Y345386D01*
X116726D01*
Y347139D01*
X117018D01*
Y348893D01*
X117310D01*
Y350647D01*
X117603D01*
Y350939D01*
X143907D01*
Y350647D01*
D02*
G37*
G36*
X139231Y347139D02*
X138646D01*
Y346847D01*
X137769D01*
Y346555D01*
X137185D01*
Y346263D01*
X136308D01*
Y345970D01*
X135723D01*
Y345678D01*
X134846D01*
Y345386D01*
X134262D01*
Y345093D01*
X133385D01*
Y344801D01*
X132801D01*
Y344509D01*
X131924D01*
Y344217D01*
X131339D01*
Y343924D01*
X130462D01*
Y343632D01*
X129878D01*
Y343340D01*
X129001D01*
Y343048D01*
X128417D01*
Y342755D01*
X127540D01*
Y342463D01*
X126955D01*
Y342171D01*
X126371D01*
Y341879D01*
X126078D01*
Y341586D01*
X125494D01*
Y341294D01*
X125201D01*
Y341002D01*
X124909D01*
Y340709D01*
X124617D01*
Y340417D01*
X124325D01*
Y340125D01*
X123740D01*
Y339833D01*
X123448D01*
Y339540D01*
X123156D01*
Y339248D01*
X122863D01*
Y338956D01*
X122571D01*
Y338664D01*
X121987D01*
Y338371D01*
X121694D01*
Y338079D01*
X121402D01*
Y337787D01*
X121110D01*
Y337494D01*
X120817D01*
Y337202D01*
X120233D01*
Y336910D01*
X119941D01*
Y336618D01*
X119648D01*
Y336325D01*
X119356D01*
Y336033D01*
X119064D01*
Y335741D01*
X118772D01*
Y336325D01*
X119064D01*
Y336910D01*
X119356D01*
Y337202D01*
X119648D01*
Y337787D01*
X119941D01*
Y338079D01*
X120233D01*
Y338664D01*
X120525D01*
Y338956D01*
X120817D01*
Y339540D01*
X121110D01*
Y340125D01*
X121402D01*
Y340417D01*
X121694D01*
Y341002D01*
X121987D01*
Y341294D01*
X122279D01*
Y341879D01*
X122571D01*
Y342171D01*
X122863D01*
Y342755D01*
X123156D01*
Y343340D01*
X123448D01*
Y343632D01*
X123740D01*
Y344217D01*
X124032D01*
Y344509D01*
X124325D01*
Y345093D01*
X125494D01*
Y345386D01*
X127248D01*
Y345678D01*
X129001D01*
Y345970D01*
X130755D01*
Y346263D01*
X132508D01*
Y346555D01*
X134262D01*
Y346847D01*
X136016D01*
Y347139D01*
X137769D01*
Y347432D01*
X139231D01*
Y347139D01*
D02*
G37*
G36*
X156183Y370124D02*
X156176Y370117D01*
X156161Y370088D01*
X156139Y370044D01*
X156117Y369986D01*
X156096Y369920D01*
X156074Y369840D01*
X156059Y369760D01*
X156052Y369680D01*
Y369643D01*
X156059Y369607D01*
X156066Y369556D01*
X156081Y369505D01*
X156103Y369439D01*
X156132Y369373D01*
X156176Y369315D01*
X156183Y369308D01*
X156198Y369286D01*
X156227Y369264D01*
X156263Y369228D01*
X156314Y369191D01*
X156373Y369155D01*
X156438Y369118D01*
X156518Y369089D01*
X156533Y369082D01*
X156577Y369075D01*
X156642Y369060D01*
X156730Y369038D01*
X156839Y369016D01*
X156963Y369002D01*
X157094Y368994D01*
X157240Y368987D01*
X159150D01*
Y368368D01*
X155491D01*
Y368929D01*
X156044D01*
X156037Y368936D01*
X155986Y368965D01*
X155921Y369002D01*
X155840Y369060D01*
X155760Y369118D01*
X155673Y369184D01*
X155600Y369250D01*
X155542Y369315D01*
X155534Y369322D01*
X155520Y369344D01*
X155498Y369388D01*
X155476Y369432D01*
X155454Y369490D01*
X155432Y369563D01*
X155418Y369636D01*
X155410Y369716D01*
Y369767D01*
X155418Y369833D01*
X155432Y369913D01*
X155461Y370008D01*
X155498Y370110D01*
X155549Y370226D01*
X155614Y370350D01*
X156183Y370124D01*
D02*
G37*
G36*
X157481Y367609D02*
Y364876D01*
X157488D01*
X157510D01*
X157539Y364883D01*
X157583D01*
X157634Y364890D01*
X157692Y364905D01*
X157823Y364927D01*
X157969Y364970D01*
X158129Y365029D01*
X158275Y365109D01*
X158406Y365211D01*
Y365218D01*
X158421Y365226D01*
X158458Y365269D01*
X158509Y365335D01*
X158560Y365422D01*
X158618Y365539D01*
X158669Y365670D01*
X158705Y365816D01*
X158713Y365896D01*
X158720Y365984D01*
Y366042D01*
X158713Y366108D01*
X158698Y366188D01*
X158676Y366275D01*
X158647Y366377D01*
X158603Y366472D01*
X158545Y366567D01*
X158538Y366574D01*
X158509Y366611D01*
X158465Y366654D01*
X158406Y366705D01*
X158326Y366764D01*
X158224Y366829D01*
X158108Y366895D01*
X157969Y366953D01*
X158049Y367595D01*
X158056D01*
X158071Y367587D01*
X158100Y367580D01*
X158144Y367565D01*
X158188Y367544D01*
X158246Y367522D01*
X158370Y367463D01*
X158509Y367391D01*
X158654Y367288D01*
X158793Y367172D01*
X158924Y367026D01*
Y367019D01*
X158939Y367004D01*
X158953Y366982D01*
X158975Y366953D01*
X158997Y366910D01*
X159019Y366866D01*
X159048Y366807D01*
X159077Y366742D01*
X159106Y366669D01*
X159135Y366596D01*
X159179Y366414D01*
X159216Y366210D01*
X159230Y365984D01*
Y365903D01*
X159223Y365852D01*
X159216Y365787D01*
X159201Y365707D01*
X159186Y365619D01*
X159172Y365524D01*
X159114Y365320D01*
X159070Y365211D01*
X159026Y365109D01*
X158968Y365000D01*
X158902Y364897D01*
X158829Y364803D01*
X158742Y364708D01*
X158735Y364701D01*
X158720Y364686D01*
X158691Y364664D01*
X158647Y364635D01*
X158596Y364598D01*
X158538Y364562D01*
X158465Y364518D01*
X158385Y364475D01*
X158290Y364431D01*
X158188Y364387D01*
X158071Y364351D01*
X157947Y364314D01*
X157816Y364285D01*
X157670Y364263D01*
X157517Y364249D01*
X157357Y364241D01*
X157349D01*
X157313D01*
X157269D01*
X157204Y364249D01*
X157123Y364256D01*
X157036Y364263D01*
X156934Y364278D01*
X156832Y364300D01*
X156599Y364358D01*
X156482Y364394D01*
X156358Y364438D01*
X156241Y364496D01*
X156132Y364562D01*
X156023Y364635D01*
X155921Y364715D01*
X155913Y364722D01*
X155899Y364737D01*
X155877Y364766D01*
X155840Y364803D01*
X155804Y364846D01*
X155760Y364905D01*
X155709Y364970D01*
X155665Y365051D01*
X155614Y365131D01*
X155571Y365226D01*
X155527Y365328D01*
X155491Y365437D01*
X155454Y365553D01*
X155432Y365677D01*
X155418Y365809D01*
X155410Y365947D01*
Y366020D01*
X155418Y366071D01*
X155425Y366129D01*
X155439Y366202D01*
X155454Y366283D01*
X155476Y366377D01*
X155498Y366465D01*
X155534Y366567D01*
X155571Y366662D01*
X155622Y366764D01*
X155680Y366866D01*
X155746Y366968D01*
X155826Y367062D01*
X155913Y367150D01*
X155921Y367157D01*
X155935Y367172D01*
X155964Y367194D01*
X156008Y367223D01*
X156059Y367259D01*
X156117Y367296D01*
X156190Y367340D01*
X156278Y367383D01*
X156373Y367427D01*
X156475Y367471D01*
X156591Y367507D01*
X156715Y367544D01*
X156854Y367573D01*
X157000Y367595D01*
X157153Y367609D01*
X157320Y367617D01*
X157327D01*
X157357D01*
X157408D01*
X157481Y367609D01*
D02*
G37*
G36*
X159150Y363906D02*
X159157Y363877D01*
X159165Y363826D01*
X159172Y363760D01*
X159186Y363687D01*
X159194Y363607D01*
X159201Y363447D01*
Y363388D01*
X159194Y363330D01*
X159186Y363257D01*
X159179Y363170D01*
X159157Y363082D01*
X159135Y363002D01*
X159099Y362922D01*
X159092Y362914D01*
X159077Y362893D01*
X159055Y362863D01*
X159019Y362820D01*
X158982Y362783D01*
X158931Y362740D01*
X158880Y362696D01*
X158815Y362667D01*
X158807D01*
X158778Y362652D01*
X158727Y362645D01*
X158654Y362630D01*
X158560Y362616D01*
X158501Y362608D01*
X158436D01*
X158355Y362601D01*
X158275Y362594D01*
X158188D01*
X158086D01*
X155972D01*
Y362135D01*
X155491D01*
Y362594D01*
X154587D01*
X154215Y363213D01*
X155491D01*
Y363840D01*
X155972D01*
Y363213D01*
X158122D01*
X158137D01*
X158166D01*
X158210D01*
X158261Y363221D01*
X158377Y363228D01*
X158428Y363235D01*
X158465Y363243D01*
X158479Y363250D01*
X158509Y363272D01*
X158545Y363301D01*
X158581Y363352D01*
X158589Y363367D01*
X158603Y363403D01*
X158618Y363469D01*
X158625Y363563D01*
Y363636D01*
X158618Y363673D01*
Y363724D01*
X158611Y363782D01*
X158603Y363840D01*
X159150Y363921D01*
Y363906D01*
D02*
G37*
G36*
X153009Y362324D02*
X147964D01*
Y362995D01*
X152411D01*
Y365481D01*
X153009D01*
Y362324D01*
D02*
G37*
G36*
X159150Y360917D02*
X156832D01*
X156825D01*
X156810D01*
X156788D01*
X156759D01*
X156679Y360910D01*
X156577Y360895D01*
X156467Y360866D01*
X156358Y360830D01*
X156249Y360779D01*
X156161Y360713D01*
X156154Y360706D01*
X156125Y360677D01*
X156088Y360633D01*
X156052Y360567D01*
X156008Y360487D01*
X155979Y360392D01*
X155950Y360276D01*
X155942Y360144D01*
Y360101D01*
X155950Y360050D01*
X155957Y359977D01*
X155979Y359904D01*
X156001Y359816D01*
X156037Y359729D01*
X156088Y359634D01*
X156096Y359627D01*
X156117Y359598D01*
X156147Y359554D01*
X156190Y359503D01*
X156249Y359444D01*
X156314Y359386D01*
X156394Y359335D01*
X156482Y359291D01*
X156497Y359284D01*
X156526Y359277D01*
X156584Y359262D01*
X156657Y359240D01*
X156752Y359219D01*
X156868Y359204D01*
X157000Y359197D01*
X157153Y359189D01*
X159150D01*
Y358570D01*
X154105D01*
Y359189D01*
X155913D01*
X155906Y359197D01*
X155891Y359211D01*
X155870Y359233D01*
X155833Y359269D01*
X155797Y359306D01*
X155753Y359357D01*
X155709Y359423D01*
X155658Y359488D01*
X155614Y359561D01*
X155571Y359641D01*
X155491Y359831D01*
X155454Y359933D01*
X155432Y360042D01*
X155418Y360159D01*
X155410Y360276D01*
Y360341D01*
X155418Y360421D01*
X155432Y360516D01*
X155447Y360626D01*
X155476Y360742D01*
X155520Y360859D01*
X155571Y360975D01*
X155578Y360990D01*
X155600Y361026D01*
X155636Y361077D01*
X155687Y361143D01*
X155753Y361209D01*
X155826Y361282D01*
X155913Y361347D01*
X156015Y361405D01*
X156030Y361413D01*
X156066Y361427D01*
X156132Y361449D01*
X156227Y361471D01*
X156343Y361493D01*
X156482Y361515D01*
X156650Y361529D01*
X156839Y361537D01*
X159150D01*
Y360917D01*
D02*
G37*
G36*
X152316Y361362D02*
X152324Y361347D01*
X152346Y361318D01*
X152375Y361282D01*
X152404Y361238D01*
X152440Y361187D01*
X152484Y361121D01*
X152528Y361056D01*
X152623Y360903D01*
X152725Y360728D01*
X152819Y360545D01*
X152900Y360349D01*
Y360341D01*
X152907Y360327D01*
X152914Y360297D01*
X152929Y360261D01*
X152943Y360210D01*
X152965Y360152D01*
X152980Y360086D01*
X152994Y360020D01*
X153031Y359860D01*
X153067Y359678D01*
X153089Y359481D01*
X153096Y359277D01*
Y359204D01*
X153089Y359153D01*
Y359087D01*
X153082Y359007D01*
X153067Y358920D01*
X153060Y358825D01*
X153016Y358613D01*
X152965Y358387D01*
X152885Y358154D01*
X152841Y358037D01*
X152783Y357921D01*
X152776Y357914D01*
X152768Y357892D01*
X152746Y357863D01*
X152725Y357819D01*
X152688Y357768D01*
X152652Y357717D01*
X152550Y357578D01*
X152418Y357433D01*
X152258Y357279D01*
X152076Y357134D01*
X151864Y357002D01*
X151857D01*
X151835Y356988D01*
X151806Y356973D01*
X151755Y356951D01*
X151704Y356929D01*
X151631Y356908D01*
X151558Y356878D01*
X151471Y356849D01*
X151376Y356820D01*
X151267Y356791D01*
X151157Y356769D01*
X151041Y356747D01*
X150786Y356711D01*
X150516Y356696D01*
X150508D01*
X150479D01*
X150443D01*
X150392Y356703D01*
X150326D01*
X150246Y356711D01*
X150166Y356725D01*
X150071Y356733D01*
X149969Y356754D01*
X149860Y356769D01*
X149626Y356827D01*
X149386Y356900D01*
X149145Y357002D01*
X149138Y357010D01*
X149116Y357017D01*
X149087Y357031D01*
X149043Y357061D01*
X148985Y357090D01*
X148926Y357126D01*
X148788Y357228D01*
X148628Y357352D01*
X148475Y357505D01*
X148321Y357680D01*
X148256Y357782D01*
X148190Y357884D01*
X148183Y357892D01*
X148176Y357914D01*
X148161Y357943D01*
X148139Y357986D01*
X148117Y358045D01*
X148088Y358110D01*
X148059Y358183D01*
X148030Y358271D01*
X148001Y358366D01*
X147979Y358468D01*
X147950Y358577D01*
X147928Y358694D01*
X147891Y358949D01*
X147877Y359080D01*
Y359313D01*
X147884Y359357D01*
Y359415D01*
X147899Y359554D01*
X147921Y359707D01*
X147957Y359867D01*
X148001Y360042D01*
X148059Y360210D01*
Y360217D01*
X148066Y360232D01*
X148074Y360254D01*
X148088Y360283D01*
X148132Y360363D01*
X148183Y360465D01*
X148256Y360574D01*
X148343Y360691D01*
X148438Y360800D01*
X148555Y360903D01*
X148569Y360917D01*
X148613Y360946D01*
X148679Y360990D01*
X148774Y361048D01*
X148890Y361107D01*
X149036Y361172D01*
X149196Y361238D01*
X149379Y361289D01*
X149539Y360684D01*
X149532D01*
X149524Y360677D01*
X149503Y360669D01*
X149473Y360662D01*
X149408Y360640D01*
X149320Y360611D01*
X149218Y360567D01*
X149123Y360516D01*
X149021Y360465D01*
X148934Y360400D01*
X148926Y360392D01*
X148897Y360370D01*
X148861Y360327D01*
X148810Y360276D01*
X148752Y360210D01*
X148693Y360122D01*
X148635Y360028D01*
X148584Y359918D01*
X148577Y359904D01*
X148562Y359867D01*
X148540Y359802D01*
X148511Y359714D01*
X148489Y359612D01*
X148467Y359495D01*
X148453Y359364D01*
X148445Y359226D01*
Y359146D01*
X148453Y359109D01*
Y359065D01*
X148460Y358956D01*
X148482Y358832D01*
X148504Y358694D01*
X148540Y358562D01*
X148591Y358431D01*
X148599Y358417D01*
X148613Y358373D01*
X148650Y358314D01*
X148686Y358242D01*
X148744Y358154D01*
X148803Y358059D01*
X148875Y357972D01*
X148956Y357892D01*
X148963Y357884D01*
X148992Y357855D01*
X149043Y357819D01*
X149101Y357775D01*
X149174Y357724D01*
X149262Y357673D01*
X149357Y357622D01*
X149459Y357571D01*
X149466D01*
X149481Y357564D01*
X149503Y357556D01*
X149539Y357542D01*
X149583Y357527D01*
X149634Y357513D01*
X149692Y357491D01*
X149758Y357476D01*
X149911Y357440D01*
X150086Y357411D01*
X150268Y357389D01*
X150472Y357381D01*
X150479D01*
X150501D01*
X150538D01*
X150581Y357389D01*
X150640D01*
X150713Y357396D01*
X150786Y357403D01*
X150866Y357411D01*
X151048Y357440D01*
X151237Y357476D01*
X151427Y357535D01*
X151609Y357607D01*
X151617D01*
X151631Y357622D01*
X151653Y357629D01*
X151682Y357651D01*
X151762Y357702D01*
X151864Y357782D01*
X151974Y357877D01*
X152083Y357994D01*
X152185Y358132D01*
X152280Y358285D01*
Y358293D01*
X152287Y358307D01*
X152302Y358329D01*
X152316Y358366D01*
X152331Y358402D01*
X152346Y358453D01*
X152389Y358570D01*
X152426Y358716D01*
X152462Y358876D01*
X152491Y359051D01*
X152499Y359233D01*
Y359306D01*
X152491Y359350D01*
Y359394D01*
X152477Y359503D01*
X152462Y359634D01*
X152433Y359772D01*
X152389Y359926D01*
X152338Y360079D01*
Y360086D01*
X152331Y360101D01*
X152324Y360115D01*
X152309Y360144D01*
X152273Y360225D01*
X152229Y360312D01*
X152178Y360414D01*
X152120Y360523D01*
X152054Y360626D01*
X151981Y360713D01*
X151033D01*
Y359226D01*
X150436D01*
Y361369D01*
X152309D01*
X152316Y361362D01*
D02*
G37*
G36*
X158858Y357622D02*
X158939D01*
X159026Y357615D01*
X159121Y357607D01*
X159318Y357586D01*
X159522Y357556D01*
X159617Y357535D01*
X159704Y357513D01*
X159784Y357484D01*
X159857Y357454D01*
X159864D01*
X159872Y357447D01*
X159915Y357418D01*
X159981Y357381D01*
X160061Y357323D01*
X160149Y357243D01*
X160244Y357148D01*
X160338Y357031D01*
X160418Y356900D01*
Y356893D01*
X160426Y356886D01*
X160440Y356864D01*
X160448Y356835D01*
X160469Y356798D01*
X160484Y356754D01*
X160521Y356645D01*
X160564Y356514D01*
X160593Y356353D01*
X160623Y356171D01*
X160630Y355974D01*
Y355909D01*
X160623Y355865D01*
Y355807D01*
X160615Y355749D01*
X160608Y355676D01*
X160593Y355595D01*
X160557Y355428D01*
X160506Y355253D01*
X160433Y355078D01*
X160331Y354917D01*
X160324Y354910D01*
X160317Y354903D01*
X160273Y354852D01*
X160207Y354794D01*
X160112Y354721D01*
X159988Y354648D01*
X159835Y354582D01*
X159748Y354560D01*
X159653Y354546D01*
X159558Y354531D01*
X159449D01*
X159529Y355136D01*
X159544D01*
X159573Y355143D01*
X159624Y355158D01*
X159689Y355173D01*
X159755Y355202D01*
X159821Y355238D01*
X159886Y355282D01*
X159937Y355340D01*
X159945Y355355D01*
X159967Y355384D01*
X159996Y355435D01*
X160025Y355508D01*
X160061Y355595D01*
X160090Y355705D01*
X160112Y355836D01*
X160120Y355974D01*
Y356047D01*
X160112Y356120D01*
X160098Y356222D01*
X160076Y356324D01*
X160047Y356434D01*
X160003Y356543D01*
X159945Y356638D01*
X159937Y356645D01*
X159915Y356674D01*
X159872Y356718D01*
X159821Y356769D01*
X159748Y356820D01*
X159668Y356871D01*
X159573Y356922D01*
X159464Y356959D01*
X159456D01*
X159427Y356966D01*
X159369Y356973D01*
X159296Y356980D01*
X159245Y356988D01*
X159186D01*
X159121Y356995D01*
X159048D01*
X158968D01*
X158873Y357002D01*
X158778D01*
X158669D01*
X158676Y356995D01*
X158691Y356980D01*
X158713Y356959D01*
X158742Y356929D01*
X158778Y356893D01*
X158822Y356842D01*
X158866Y356784D01*
X158909Y356725D01*
X158997Y356572D01*
X159077Y356405D01*
X159106Y356310D01*
X159128Y356208D01*
X159143Y356098D01*
X159150Y355989D01*
Y355953D01*
X159143Y355916D01*
Y355865D01*
X159135Y355800D01*
X159121Y355727D01*
X159106Y355646D01*
X159084Y355559D01*
X159055Y355464D01*
X159019Y355369D01*
X158975Y355275D01*
X158924Y355173D01*
X158858Y355078D01*
X158785Y354983D01*
X158705Y354895D01*
X158611Y354815D01*
X158603Y354808D01*
X158589Y354801D01*
X158552Y354779D01*
X158516Y354750D01*
X158458Y354721D01*
X158399Y354684D01*
X158326Y354648D01*
X158239Y354611D01*
X158151Y354575D01*
X158049Y354538D01*
X157947Y354502D01*
X157831Y354473D01*
X157583Y354422D01*
X157444Y354414D01*
X157306Y354407D01*
X157298D01*
X157284D01*
X157255D01*
X157218D01*
X157167Y354414D01*
X157116D01*
X156985Y354429D01*
X156839Y354451D01*
X156679Y354487D01*
X156511Y354531D01*
X156343Y354597D01*
X156336D01*
X156322Y354604D01*
X156300Y354619D01*
X156271Y354633D01*
X156190Y354677D01*
X156088Y354735D01*
X155979Y354815D01*
X155870Y354910D01*
X155753Y355019D01*
X155658Y355143D01*
Y355151D01*
X155651Y355158D01*
X155636Y355180D01*
X155622Y355209D01*
X155578Y355282D01*
X155534Y355384D01*
X155491Y355508D01*
X155447Y355654D01*
X155418Y355814D01*
X155410Y355989D01*
Y356055D01*
X155418Y356098D01*
X155425Y356149D01*
X155439Y356215D01*
X155454Y356288D01*
X155476Y356368D01*
X155505Y356448D01*
X155542Y356536D01*
X155585Y356623D01*
X155636Y356718D01*
X155695Y356805D01*
X155768Y356893D01*
X155848Y356980D01*
X155942Y357061D01*
X155491D01*
Y357629D01*
X158654D01*
X158662D01*
X158691D01*
X158735D01*
X158793D01*
X158858Y357622D01*
D02*
G37*
G36*
X159150Y353080D02*
X155491D01*
Y353700D01*
X159150D01*
Y353080D01*
D02*
G37*
G36*
X154813D02*
X154105D01*
Y353700D01*
X154813D01*
Y353080D01*
D02*
G37*
G36*
X153009Y352337D02*
Y351637D01*
X147964Y349683D01*
Y350412D01*
X151631Y351724D01*
X151638D01*
X151653Y351732D01*
X151675Y351739D01*
X151704Y351753D01*
X151748Y351761D01*
X151792Y351775D01*
X151901Y351812D01*
X152025Y351856D01*
X152163Y351899D01*
X152455Y351987D01*
X152448D01*
X152433Y351994D01*
X152411Y352001D01*
X152382Y352009D01*
X152302Y352031D01*
X152192Y352067D01*
X152068Y352103D01*
X151930Y352147D01*
X151784Y352198D01*
X151631Y352257D01*
X147964Y353627D01*
Y354305D01*
X153009Y352337D01*
D02*
G37*
G36*
X154703Y349552D02*
X156263D01*
Y351921D01*
X156861D01*
Y349552D01*
X159150D01*
Y348881D01*
X154105D01*
Y352293D01*
X154703D01*
Y349552D01*
D02*
G37*
G36*
X159150Y347190D02*
X154105D01*
Y347810D01*
X159150D01*
Y347190D01*
D02*
G37*
G36*
X153009Y348393D02*
X149050Y345754D01*
X153009D01*
Y345112D01*
X147964D01*
Y345798D01*
X151930Y348444D01*
X147964D01*
Y349085D01*
X153009D01*
Y348393D01*
D02*
G37*
G36*
X157481Y346439D02*
Y343705D01*
X157488D01*
X157510D01*
X157539Y343713D01*
X157583D01*
X157634Y343720D01*
X157692Y343735D01*
X157823Y343756D01*
X157969Y343800D01*
X158129Y343859D01*
X158275Y343939D01*
X158406Y344041D01*
Y344048D01*
X158421Y344055D01*
X158458Y344099D01*
X158509Y344165D01*
X158560Y344252D01*
X158618Y344369D01*
X158669Y344500D01*
X158705Y344646D01*
X158713Y344726D01*
X158720Y344813D01*
Y344872D01*
X158713Y344937D01*
X158698Y345018D01*
X158676Y345105D01*
X158647Y345207D01*
X158603Y345302D01*
X158545Y345397D01*
X158538Y345404D01*
X158509Y345440D01*
X158465Y345484D01*
X158406Y345535D01*
X158326Y345594D01*
X158224Y345659D01*
X158108Y345725D01*
X157969Y345783D01*
X158049Y346425D01*
X158056D01*
X158071Y346417D01*
X158100Y346410D01*
X158144Y346395D01*
X158188Y346374D01*
X158246Y346352D01*
X158370Y346293D01*
X158509Y346220D01*
X158654Y346118D01*
X158793Y346002D01*
X158924Y345856D01*
Y345849D01*
X158939Y345834D01*
X158953Y345812D01*
X158975Y345783D01*
X158997Y345739D01*
X159019Y345696D01*
X159048Y345637D01*
X159077Y345572D01*
X159106Y345499D01*
X159135Y345426D01*
X159179Y345244D01*
X159216Y345039D01*
X159230Y344813D01*
Y344733D01*
X159223Y344682D01*
X159216Y344617D01*
X159201Y344536D01*
X159186Y344449D01*
X159172Y344354D01*
X159114Y344150D01*
X159070Y344041D01*
X159026Y343939D01*
X158968Y343829D01*
X158902Y343727D01*
X158829Y343633D01*
X158742Y343538D01*
X158735Y343530D01*
X158720Y343516D01*
X158691Y343494D01*
X158647Y343465D01*
X158596Y343428D01*
X158538Y343392D01*
X158465Y343348D01*
X158385Y343304D01*
X158290Y343261D01*
X158188Y343217D01*
X158071Y343180D01*
X157947Y343144D01*
X157816Y343115D01*
X157670Y343093D01*
X157517Y343078D01*
X157357Y343071D01*
X157349D01*
X157313D01*
X157269D01*
X157204Y343078D01*
X157123Y343086D01*
X157036Y343093D01*
X156934Y343108D01*
X156832Y343129D01*
X156599Y343188D01*
X156482Y343224D01*
X156358Y343268D01*
X156241Y343326D01*
X156132Y343392D01*
X156023Y343465D01*
X155921Y343545D01*
X155913Y343552D01*
X155899Y343567D01*
X155877Y343596D01*
X155840Y343633D01*
X155804Y343676D01*
X155760Y343735D01*
X155709Y343800D01*
X155665Y343880D01*
X155614Y343960D01*
X155571Y344055D01*
X155527Y344157D01*
X155491Y344267D01*
X155454Y344383D01*
X155432Y344507D01*
X155418Y344638D01*
X155410Y344777D01*
Y344850D01*
X155418Y344901D01*
X155425Y344959D01*
X155439Y345032D01*
X155454Y345112D01*
X155476Y345207D01*
X155498Y345295D01*
X155534Y345397D01*
X155571Y345491D01*
X155622Y345594D01*
X155680Y345696D01*
X155746Y345798D01*
X155826Y345892D01*
X155913Y345980D01*
X155921Y345987D01*
X155935Y346002D01*
X155964Y346024D01*
X156008Y346053D01*
X156059Y346089D01*
X156117Y346126D01*
X156190Y346169D01*
X156278Y346213D01*
X156373Y346257D01*
X156475Y346301D01*
X156591Y346337D01*
X156715Y346374D01*
X156854Y346403D01*
X157000Y346425D01*
X157153Y346439D01*
X157320Y346446D01*
X157327D01*
X157357D01*
X157408D01*
X157481Y346439D01*
D02*
G37*
G36*
X150610Y344194D02*
X150669D01*
X150807Y344186D01*
X150968Y344165D01*
X151135Y344143D01*
X151310Y344106D01*
X151485Y344063D01*
X151493D01*
X151507Y344055D01*
X151529Y344048D01*
X151558Y344041D01*
X151638Y344012D01*
X151741Y343968D01*
X151857Y343924D01*
X151974Y343866D01*
X152098Y343793D01*
X152214Y343720D01*
X152229Y343713D01*
X152265Y343684D01*
X152316Y343640D01*
X152382Y343581D01*
X152455Y343516D01*
X152528Y343436D01*
X152608Y343355D01*
X152674Y343261D01*
X152681Y343246D01*
X152703Y343217D01*
X152732Y343166D01*
X152768Y343093D01*
X152812Y343005D01*
X152849Y342903D01*
X152892Y342787D01*
X152929Y342656D01*
Y342641D01*
X152936Y342619D01*
X152943Y342597D01*
X152951Y342524D01*
X152965Y342422D01*
X152980Y342306D01*
X152994Y342167D01*
X153002Y342014D01*
X153009Y341846D01*
Y340031D01*
X147964D01*
Y341970D01*
X147972Y342102D01*
X147979Y342247D01*
X147993Y342393D01*
X148015Y342539D01*
X148037Y342663D01*
Y342670D01*
X148045Y342685D01*
Y342707D01*
X148059Y342736D01*
X148081Y342816D01*
X148117Y342918D01*
X148168Y343035D01*
X148234Y343159D01*
X148307Y343283D01*
X148402Y343399D01*
X148409Y343407D01*
X148416Y343414D01*
X148438Y343436D01*
X148460Y343465D01*
X148533Y343538D01*
X148635Y343625D01*
X148759Y343720D01*
X148905Y343822D01*
X149072Y343917D01*
X149262Y343997D01*
X149269D01*
X149284Y344004D01*
X149313Y344019D01*
X149357Y344026D01*
X149408Y344048D01*
X149466Y344063D01*
X149532Y344077D01*
X149612Y344099D01*
X149692Y344121D01*
X149787Y344135D01*
X149991Y344172D01*
X150217Y344194D01*
X150465Y344201D01*
X150472D01*
X150487D01*
X150523D01*
X150559D01*
X150610Y344194D01*
D02*
G37*
G36*
X159150Y341759D02*
X158618D01*
X158625Y341752D01*
X158647Y341737D01*
X158676Y341715D01*
X158713Y341679D01*
X158756Y341635D01*
X158815Y341584D01*
X158866Y341526D01*
X158924Y341453D01*
X158982Y341373D01*
X159033Y341285D01*
X159084Y341190D01*
X159135Y341088D01*
X159172Y340972D01*
X159201Y340855D01*
X159223Y340724D01*
X159230Y340593D01*
Y340542D01*
X159223Y340476D01*
X159216Y340396D01*
X159201Y340301D01*
X159179Y340199D01*
X159150Y340097D01*
X159106Y339987D01*
X159099Y339973D01*
X159084Y339944D01*
X159055Y339893D01*
X159019Y339834D01*
X158975Y339761D01*
X158924Y339696D01*
X158866Y339630D01*
X158800Y339572D01*
X158793Y339565D01*
X158764Y339550D01*
X158727Y339528D01*
X158669Y339499D01*
X158603Y339463D01*
X158523Y339433D01*
X158436Y339404D01*
X158341Y339382D01*
X158334D01*
X158304Y339375D01*
X158261Y339368D01*
X158202D01*
X158115Y339360D01*
X158020Y339353D01*
X157896Y339346D01*
X157758D01*
X155491D01*
Y339966D01*
X157524D01*
X157532D01*
X157546D01*
X157568D01*
X157605D01*
X157685D01*
X157787Y339973D01*
X157896D01*
X158005Y339980D01*
X158100Y339987D01*
X158180Y340002D01*
X158188D01*
X158217Y340017D01*
X158261Y340031D01*
X158319Y340053D01*
X158377Y340090D01*
X158443Y340133D01*
X158501Y340184D01*
X158560Y340250D01*
X158567Y340257D01*
X158581Y340286D01*
X158603Y340323D01*
X158625Y340381D01*
X158654Y340447D01*
X158676Y340527D01*
X158691Y340614D01*
X158698Y340717D01*
Y340768D01*
X158691Y340819D01*
X158684Y340884D01*
X158662Y340964D01*
X158640Y341052D01*
X158603Y341147D01*
X158560Y341241D01*
X158552Y341256D01*
X158530Y341285D01*
X158501Y341329D01*
X158458Y341380D01*
X158399Y341438D01*
X158334Y341496D01*
X158261Y341547D01*
X158173Y341591D01*
X158159Y341599D01*
X158129Y341606D01*
X158071Y341620D01*
X157991Y341642D01*
X157889Y341664D01*
X157765Y341679D01*
X157619Y341686D01*
X157451Y341693D01*
X155491D01*
Y342313D01*
X159150D01*
Y341759D01*
D02*
G37*
G36*
X154703Y335832D02*
X156263D01*
Y338201D01*
X156861D01*
Y335832D01*
X159150D01*
Y335161D01*
X154105D01*
Y338573D01*
X154703D01*
Y335832D01*
D02*
G37*
%LPC*%
G36*
X156970Y366961D02*
X156963D01*
X156948D01*
X156927Y366953D01*
X156897D01*
X156810Y366939D01*
X156715Y366917D01*
X156599Y366880D01*
X156489Y366844D01*
X156380Y366786D01*
X156285Y366720D01*
X156278D01*
X156271Y366705D01*
X156227Y366669D01*
X156168Y366603D01*
X156103Y366516D01*
X156037Y366406D01*
X155979Y366275D01*
X155935Y366122D01*
X155928Y366042D01*
X155921Y365954D01*
Y365911D01*
X155928Y365882D01*
X155935Y365801D01*
X155957Y365707D01*
X155993Y365590D01*
X156044Y365466D01*
X156117Y365349D01*
X156212Y365233D01*
X156227Y365218D01*
X156263Y365189D01*
X156329Y365138D01*
X156416Y365087D01*
X156518Y365029D01*
X156650Y364978D01*
X156803Y364934D01*
X156970Y364912D01*
Y366961D01*
D02*
G37*
G36*
X157408Y357053D02*
X157284D01*
X157276D01*
X157255D01*
X157218D01*
X157175Y357046D01*
X157116D01*
X157051Y357039D01*
X156905Y357017D01*
X156737Y356980D01*
X156569Y356929D01*
X156402Y356856D01*
X156329Y356805D01*
X156263Y356754D01*
X156256D01*
X156249Y356740D01*
X156212Y356703D01*
X156154Y356638D01*
X156088Y356550D01*
X156030Y356448D01*
X155972Y356324D01*
X155935Y356186D01*
X155921Y356113D01*
Y355996D01*
X155928Y355967D01*
X155935Y355887D01*
X155964Y355792D01*
X156001Y355676D01*
X156066Y355559D01*
X156147Y355442D01*
X156205Y355384D01*
X156263Y355326D01*
X156271D01*
X156278Y355311D01*
X156300Y355296D01*
X156329Y355282D01*
X156358Y355260D01*
X156402Y355238D01*
X156453Y355209D01*
X156511Y355187D01*
X156577Y355158D01*
X156657Y355129D01*
X156737Y355107D01*
X156825Y355085D01*
X156927Y355070D01*
X157029Y355056D01*
X157138Y355041D01*
X157262D01*
X157269D01*
X157291D01*
X157327D01*
X157379Y355049D01*
X157437D01*
X157510Y355056D01*
X157663Y355078D01*
X157838Y355114D01*
X158005Y355158D01*
X158173Y355231D01*
X158246Y355275D01*
X158312Y355326D01*
X158326Y355340D01*
X158363Y355377D01*
X158414Y355435D01*
X158472Y355522D01*
X158538Y355625D01*
X158589Y355749D01*
X158625Y355887D01*
X158633Y355960D01*
X158640Y356040D01*
Y356084D01*
X158633Y356113D01*
X158625Y356193D01*
X158596Y356295D01*
X158560Y356405D01*
X158501Y356528D01*
X158421Y356645D01*
X158370Y356703D01*
X158312Y356762D01*
X158304D01*
X158297Y356776D01*
X158275Y356791D01*
X158246Y356805D01*
X158217Y356827D01*
X158173Y356856D01*
X158122Y356878D01*
X158056Y356908D01*
X157991Y356937D01*
X157918Y356959D01*
X157831Y356988D01*
X157736Y357010D01*
X157641Y357024D01*
X157532Y357039D01*
X157408Y357053D01*
D02*
G37*
G36*
X156970Y345790D02*
X156963D01*
X156948D01*
X156927Y345783D01*
X156897D01*
X156810Y345768D01*
X156715Y345747D01*
X156599Y345710D01*
X156489Y345674D01*
X156380Y345615D01*
X156285Y345550D01*
X156278D01*
X156271Y345535D01*
X156227Y345499D01*
X156168Y345433D01*
X156103Y345346D01*
X156037Y345236D01*
X155979Y345105D01*
X155935Y344952D01*
X155928Y344872D01*
X155921Y344784D01*
Y344741D01*
X155928Y344711D01*
X155935Y344631D01*
X155957Y344536D01*
X155993Y344420D01*
X156044Y344296D01*
X156117Y344179D01*
X156212Y344063D01*
X156227Y344048D01*
X156263Y344019D01*
X156329Y343968D01*
X156416Y343917D01*
X156518Y343859D01*
X156650Y343807D01*
X156803Y343764D01*
X156970Y343742D01*
Y345790D01*
D02*
G37*
G36*
X150450Y343516D02*
X150443D01*
X150414D01*
X150377D01*
X150319Y343509D01*
X150253D01*
X150180Y343501D01*
X150093Y343494D01*
X150005Y343487D01*
X149809Y343450D01*
X149604Y343407D01*
X149415Y343341D01*
X149320Y343297D01*
X149240Y343253D01*
X149233D01*
X149218Y343239D01*
X149196Y343224D01*
X149167Y343210D01*
X149094Y343151D01*
X149007Y343078D01*
X148912Y342984D01*
X148817Y342874D01*
X148737Y342750D01*
X148671Y342619D01*
X148664Y342605D01*
X148657Y342568D01*
X148635Y342502D01*
X148613Y342408D01*
X148599Y342291D01*
X148577Y342145D01*
X148569Y342058D01*
Y341963D01*
X148562Y341868D01*
Y340702D01*
X152411D01*
Y341898D01*
X152404Y341949D01*
X152397Y342058D01*
X152389Y342182D01*
X152375Y342313D01*
X152353Y342444D01*
X152324Y342554D01*
X152316Y342568D01*
X152309Y342605D01*
X152287Y342656D01*
X152258Y342721D01*
X152214Y342794D01*
X152171Y342867D01*
X152120Y342940D01*
X152061Y343013D01*
X152047Y343020D01*
X152017Y343049D01*
X151967Y343093D01*
X151894Y343144D01*
X151799Y343202D01*
X151690Y343268D01*
X151566Y343326D01*
X151427Y343377D01*
X151420D01*
X151405Y343385D01*
X151383Y343392D01*
X151354Y343399D01*
X151318Y343407D01*
X151267Y343421D01*
X151216Y343436D01*
X151157Y343450D01*
X151012Y343472D01*
X150844Y343494D01*
X150654Y343509D01*
X150450Y343516D01*
D02*
G37*
%LPD*%
D10*
X81230Y332520D02*
G03*
X83730Y332520I1250J0D01*
G01*
X87894Y269744D02*
Y274744D01*
X77894Y269744D02*
X87894D01*
X77894D02*
Y274744D01*
X47894Y34744D02*
Y274744D01*
Y34744D02*
X117894D01*
Y274744D01*
X47894D02*
X117894D01*
X78189Y292520D02*
Y332520D01*
Y292520D02*
X86772D01*
Y332520D01*
X83730D02*
X86772D01*
X78189D02*
X81230D01*
D11*
X138484Y62500D02*
Y143209D01*
X149508D01*
Y62500D02*
Y143209D01*
X138484Y62500D02*
X149508D01*
X140354Y244921D02*
X151378D01*
X140354Y164213D02*
Y244921D01*
Y164213D02*
X151378D01*
Y244921D01*
X105347Y352500D02*
Y392500D01*
X55347Y352500D02*
X105347D01*
X40347Y367500D02*
X55347Y352500D01*
X40347Y367500D02*
Y377500D01*
X55347Y392500D01*
X105347D01*
X111331Y368500D02*
Y376500D01*
X107331Y372500D02*
X115331D01*
X12992Y171968D02*
X24016D01*
Y252677D01*
X12992D02*
X24016D01*
X12992Y171968D02*
Y252677D01*
X156025Y288251D02*
X155026Y287251D01*
Y285252D01*
X156025Y284252D01*
X157025D01*
X158025Y285252D01*
Y287251D01*
X159024Y288251D01*
X160024D01*
X161024Y287251D01*
Y285252D01*
X160024Y284252D01*
X155026Y294249D02*
Y290250D01*
X161024D01*
Y294249D01*
X158025Y290250D02*
Y292249D01*
X161024Y296248D02*
X155026D01*
X157025Y298247D01*
X155026Y300247D01*
X161024D01*
Y312243D02*
Y308244D01*
X157025Y312243D01*
X156025D01*
X155026Y311243D01*
Y309244D01*
X156025Y308244D01*
Y314242D02*
X155026Y315242D01*
Y317241D01*
X156025Y318241D01*
X160024D01*
X161024Y317241D01*
Y315242D01*
X160024Y314242D01*
X156025D01*
X161024Y324239D02*
Y320240D01*
X157025Y324239D01*
X156025D01*
X155026Y323239D01*
Y321240D01*
X156025Y320240D01*
Y326238D02*
X155026Y327238D01*
Y329237D01*
X156025Y330237D01*
X160024D01*
X161024Y329237D01*
Y327238D01*
X160024Y326238D01*
X156025D01*
X46457Y343085D02*
Y338086D01*
X47456Y337087D01*
X49456D01*
X50455Y338086D01*
Y343085D01*
X56453D02*
X54454Y342085D01*
X52455Y340086D01*
Y338086D01*
X53454Y337087D01*
X55454D01*
X56453Y338086D01*
Y339086D01*
X55454Y340086D01*
X52455D01*
X62451Y337087D02*
X58453D01*
X62451Y341085D01*
Y342085D01*
X61452Y343085D01*
X59452D01*
X58453Y342085D01*
X46457Y291431D02*
Y286433D01*
X47456Y285433D01*
X49456D01*
X50455Y286433D01*
Y291431D01*
X56454D02*
X54454Y290431D01*
X52455Y288432D01*
Y286433D01*
X53454Y285433D01*
X55454D01*
X56454Y286433D01*
Y287432D01*
X55454Y288432D01*
X52455D01*
X58453Y285433D02*
X60452D01*
X59452D01*
Y291431D01*
X58453Y290431D01*
X110236Y299213D02*
Y305211D01*
X113235D01*
X114235Y304211D01*
Y302212D01*
X113235Y301212D01*
X110236D01*
X112236D02*
X114235Y299213D01*
X120233Y305211D02*
X118234Y304211D01*
X116234Y302212D01*
Y300212D01*
X117234Y299213D01*
X119233D01*
X120233Y300212D01*
Y301212D01*
X119233Y302212D01*
X116234D01*
X122232Y304211D02*
X123232Y305211D01*
X125231D01*
X126231Y304211D01*
Y303211D01*
X125231Y302212D01*
X124232D01*
X125231D01*
X126231Y301212D01*
Y300212D01*
X125231Y299213D01*
X123232D01*
X122232Y300212D01*
X35827Y300000D02*
Y305998D01*
X38826D01*
X39825Y304998D01*
Y302999D01*
X38826Y301999D01*
X35827D01*
X37826D02*
X39825Y300000D01*
X45823Y305998D02*
X43824Y304998D01*
X41825Y302999D01*
Y301000D01*
X42825Y300000D01*
X44824D01*
X45823Y301000D01*
Y301999D01*
X44824Y302999D01*
X41825D01*
X51822Y300000D02*
X47823D01*
X51822Y303999D01*
Y304998D01*
X50822Y305998D01*
X48823D01*
X47823Y304998D01*
X139764Y253543D02*
Y259541D01*
X142763D01*
X143763Y258542D01*
Y256542D01*
X142763Y255543D01*
X139764D01*
X141763D02*
X143763Y253543D01*
X149760Y259541D02*
X147761Y258542D01*
X145762Y256542D01*
Y254543D01*
X146762Y253543D01*
X148761D01*
X149760Y254543D01*
Y255543D01*
X148761Y256542D01*
X145762D01*
X151760Y253543D02*
X153759D01*
X152760D01*
Y259541D01*
X151760Y258542D01*
X110630Y283858D02*
Y289856D01*
X113629D01*
X114629Y288857D01*
Y286857D01*
X113629Y285858D01*
X110630D01*
X116628Y289856D02*
X120627D01*
Y288857D01*
X116628Y284858D01*
Y283858D01*
X126625D02*
X122626D01*
X126625Y287857D01*
Y288857D01*
X125625Y289856D01*
X123626D01*
X122626Y288857D01*
X13047Y335757D02*
Y341756D01*
X16046D01*
X17045Y340756D01*
Y338756D01*
X16046Y337757D01*
X13047D01*
X19045Y341756D02*
X23043D01*
Y340756D01*
X19045Y336757D01*
Y335757D01*
X25043D02*
X27042D01*
X26042D01*
Y341756D01*
X25043Y340756D01*
X11024Y156299D02*
Y162297D01*
X14023D01*
X15022Y161298D01*
Y159298D01*
X14023Y158299D01*
X11024D01*
X17022Y162297D02*
X21020D01*
Y161298D01*
X17022Y157299D01*
Y156299D01*
X23020Y161298D02*
X24019Y162297D01*
X26019D01*
X27018Y161298D01*
Y157299D01*
X26019Y156299D01*
X24019D01*
X23020Y157299D01*
Y161298D01*
X43307Y18504D02*
Y24502D01*
X46306D01*
X47306Y23502D01*
Y21503D01*
X46306Y20503D01*
X43307D01*
X53304Y24502D02*
X51305Y23502D01*
X49305Y21503D01*
Y19504D01*
X50305Y18504D01*
X52304D01*
X53304Y19504D01*
Y20503D01*
X52304Y21503D01*
X49305D01*
X55303Y19504D02*
X56303Y18504D01*
X58302D01*
X59302Y19504D01*
Y23502D01*
X58302Y24502D01*
X56303D01*
X55303Y23502D01*
Y22503D01*
X56303Y21503D01*
X59302D01*
X75984Y19408D02*
Y25406D01*
X78983D01*
X79983Y24407D01*
Y22407D01*
X78983Y21407D01*
X75984D01*
X85981Y25406D02*
X83982Y24407D01*
X81982Y22407D01*
Y20408D01*
X82982Y19408D01*
X84981D01*
X85981Y20408D01*
Y21407D01*
X84981Y22407D01*
X81982D01*
X87980Y24407D02*
X88980Y25406D01*
X90979D01*
X91979Y24407D01*
Y23407D01*
X90979Y22407D01*
X91979Y21407D01*
Y20408D01*
X90979Y19408D01*
X88980D01*
X87980Y20408D01*
Y21407D01*
X88980Y22407D01*
X87980Y23407D01*
Y24407D01*
X88980Y22407D02*
X90979D01*
X105118Y19291D02*
Y25289D01*
X108117D01*
X109117Y24290D01*
Y22290D01*
X108117Y21291D01*
X105118D01*
X115115Y25289D02*
X113116Y24290D01*
X111116Y22290D01*
Y20291D01*
X112116Y19291D01*
X114115D01*
X115115Y20291D01*
Y21291D01*
X114115Y22290D01*
X111116D01*
X117114Y25289D02*
X121113D01*
Y24290D01*
X117114Y20291D01*
Y19291D01*
X11024Y57087D02*
Y63085D01*
X14023D01*
X15022Y62085D01*
Y60086D01*
X14023Y59086D01*
X11024D01*
X21020Y63085D02*
X19021Y62085D01*
X17022Y60086D01*
Y58086D01*
X18021Y57087D01*
X20021D01*
X21020Y58086D01*
Y59086D01*
X20021Y60086D01*
X17022D01*
X27018Y63085D02*
X25019Y62085D01*
X23020Y60086D01*
Y58086D01*
X24019Y57087D01*
X26019D01*
X27018Y58086D01*
Y59086D01*
X26019Y60086D01*
X23020D01*
X11417Y102362D02*
Y108360D01*
X14416D01*
X15416Y107361D01*
Y105361D01*
X14416Y104362D01*
X11417D01*
X21414Y108360D02*
X19415Y107361D01*
X17415Y105361D01*
Y103362D01*
X18415Y102362D01*
X20414D01*
X21414Y103362D01*
Y104362D01*
X20414Y105361D01*
X17415D01*
X27412Y108360D02*
X23413D01*
Y105361D01*
X25413Y106361D01*
X26412D01*
X27412Y105361D01*
Y103362D01*
X26412Y102362D01*
X24413D01*
X23413Y103362D01*
X138583Y54331D02*
Y60329D01*
X141582D01*
X142581Y59329D01*
Y57330D01*
X141582Y56330D01*
X138583D01*
X148579Y60329D02*
X146580Y59329D01*
X144581Y57330D01*
Y55330D01*
X145580Y54331D01*
X147580D01*
X148579Y55330D01*
Y56330D01*
X147580Y57330D01*
X144581D01*
X153578Y54331D02*
Y60329D01*
X150579Y57330D01*
X154578D01*
X139764Y155905D02*
Y161904D01*
X142763D01*
X143763Y160904D01*
Y158905D01*
X142763Y157905D01*
X139764D01*
X149760Y161904D02*
X147761Y160904D01*
X145762Y158905D01*
Y156905D01*
X146762Y155905D01*
X148761D01*
X149760Y156905D01*
Y157905D01*
X148761Y158905D01*
X145762D01*
X151760Y160904D02*
X152760Y161904D01*
X154759D01*
X155759Y160904D01*
Y159904D01*
X154759Y158905D01*
X153759D01*
X154759D01*
X155759Y157905D01*
Y156905D01*
X154759Y155905D01*
X152760D01*
X151760Y156905D01*
X12654Y257030D02*
Y263028D01*
X15653D01*
X16653Y262029D01*
Y260029D01*
X15653Y259030D01*
X12654D01*
X22651Y263028D02*
X20651Y262029D01*
X18652Y260029D01*
Y258030D01*
X19652Y257030D01*
X21651D01*
X22651Y258030D01*
Y259030D01*
X21651Y260029D01*
X18652D01*
X28649Y257030D02*
X24650D01*
X28649Y261029D01*
Y262029D01*
X27649Y263028D01*
X25650D01*
X24650Y262029D01*
X110236Y387795D02*
Y393793D01*
X113235D01*
X114235Y392794D01*
Y390794D01*
X113235Y389795D01*
X110236D01*
X120233Y393793D02*
X118234Y392794D01*
X116234Y390794D01*
Y388795D01*
X117234Y387795D01*
X119233D01*
X120233Y388795D01*
Y389795D01*
X119233Y390794D01*
X116234D01*
X122232Y387795D02*
X124232D01*
X123232D01*
Y393793D01*
X122232Y392794D01*
X81459Y347912D02*
X80460Y348911D01*
X78460D01*
X77461Y347912D01*
Y343913D01*
X78460Y342913D01*
X80460D01*
X81459Y343913D01*
X87457Y348911D02*
X85458Y347912D01*
X83459Y345912D01*
Y343913D01*
X84458Y342913D01*
X86458D01*
X87457Y343913D01*
Y344913D01*
X86458Y345912D01*
X83459D01*
X89457Y347912D02*
X90456Y348911D01*
X92456D01*
X93455Y347912D01*
Y346912D01*
X92456Y345912D01*
X91456D01*
X92456D01*
X93455Y344913D01*
Y343913D01*
X92456Y342913D01*
X90456D01*
X89457Y343913D01*
X102482Y312660D02*
X101482Y311660D01*
Y309661D01*
X102482Y308661D01*
X106481D01*
X107480Y309661D01*
Y311660D01*
X106481Y312660D01*
X101482Y318658D02*
X102482Y316659D01*
X104481Y314660D01*
X106481D01*
X107480Y315659D01*
Y317658D01*
X106481Y318658D01*
X105481D01*
X104481Y317658D01*
Y314660D01*
X107480Y324656D02*
Y320657D01*
X103482Y324656D01*
X102482D01*
X101482Y323657D01*
Y321657D01*
X102482Y320657D01*
X143763Y275471D02*
X142763Y276470D01*
X140763D01*
X139764Y275471D01*
Y271472D01*
X140763Y270472D01*
X142763D01*
X143763Y271472D01*
X149760Y276470D02*
X147761Y275471D01*
X145762Y273471D01*
Y271472D01*
X146762Y270472D01*
X148761D01*
X149760Y271472D01*
Y272472D01*
X148761Y273471D01*
X145762D01*
X151760Y270472D02*
X153759D01*
X152760D01*
Y276470D01*
X151760Y275471D01*
D12*
X33268Y348099D02*
X31431D01*
X32349D01*
Y350854D01*
X30513Y348099D02*
Y350854D01*
X29135D01*
X28676Y350395D01*
Y349936D01*
X29135Y349477D01*
X30513D01*
X29135D01*
X28676Y349018D01*
Y348559D01*
X29135Y348099D01*
X30513D01*
X25003D02*
X23166D01*
X24084D01*
Y350854D01*
X20870D02*
X21789D01*
X22248Y350395D01*
Y349477D01*
X21789Y349018D01*
X20870D01*
X20411Y349477D01*
Y349936D01*
X22248D01*
X18115Y350854D02*
X19034D01*
X19493Y350395D01*
Y349477D01*
X19034Y349018D01*
X18115D01*
X17656Y349477D01*
Y349936D01*
X19493D01*
X16738Y350854D02*
Y349018D01*
X15360D01*
X14901Y349477D01*
Y350854D01*
X13983D02*
X12605D01*
X12146Y350395D01*
X12605Y349936D01*
X13523D01*
X13983Y349477D01*
X13523Y349018D01*
X12146D01*
X11228D02*
Y350395D01*
X10768Y350854D01*
X9391D01*
Y351314D01*
X9850Y351773D01*
X10309D01*
X9391Y350854D02*
Y349018D01*
X33268Y354659D02*
X32349Y356496D01*
X31431Y354659D01*
X30513Y356496D02*
X29594D01*
X30053D01*
Y353741D01*
X30513Y354200D01*
X28217Y356496D02*
Y356037D01*
X27758D01*
Y356496D01*
X28217D01*
X25921Y354200D02*
X25462Y353741D01*
X24543D01*
X24084Y354200D01*
Y356037D01*
X24543Y356496D01*
X25462D01*
X25921Y356037D01*
Y354200D01*
M02*
