%TF.GenerationSoftware,Altium Limited,Altium Designer,19.1.8 (144)*%
G04 Layer_Color=255*
%FSLAX26Y26*%
%MOIN*%
%TF.FileFunction,Pads,Top*%
%TF.Part,Single*%
G01*
G75*
%TA.AperFunction,SMDPad,CuDef*%
%ADD10R,0.041339X0.055118*%
%ADD11R,0.041339X0.051181*%
G04:AMPARAMS|DCode=12|XSize=51.181mil|YSize=41.339mil|CornerRadius=0mil|HoleSize=0mil|Usage=FLASHONLY|Rotation=315.000|XOffset=0mil|YOffset=0mil|HoleType=Round|Shape=Rectangle|*
%AMROTATEDRECTD12*
4,1,4,-0.032711,0.003480,-0.003480,0.032711,0.032711,-0.003480,0.003480,-0.032711,-0.032711,0.003480,0.0*
%
%ADD12ROTATEDRECTD12*%

%ADD13R,0.061024X0.023622*%
G04:AMPARAMS|DCode=14|XSize=51.181mil|YSize=41.339mil|CornerRadius=0mil|HoleSize=0mil|Usage=FLASHONLY|Rotation=225.000|XOffset=0mil|YOffset=0mil|HoleType=Round|Shape=Rectangle|*
%AMROTATEDRECTD14*
4,1,4,0.003480,0.032711,0.032711,0.003480,-0.003480,-0.032711,-0.032711,-0.003480,0.003480,0.032711,0.0*
%
%ADD14ROTATEDRECTD14*%

%TA.AperFunction,ComponentPad*%
%ADD18R,0.060000X0.060000*%
%ADD19C,0.060000*%
%ADD20R,0.060000X0.060000*%
%ADD21C,0.236220*%
%TA.AperFunction,ViaPad*%
%ADD22C,0.157480*%
D10*
X1078740Y3480315D02*
D03*
X1005906D02*
D03*
X1352362Y2696850D02*
D03*
X1279528D02*
D03*
X1099409Y3307087D02*
D03*
X1026575D02*
D03*
D11*
X1279528Y2598425D02*
D03*
X1352362D02*
D03*
D12*
X1187168Y3175357D02*
D03*
X1135666Y3123855D02*
D03*
D13*
X931102Y2950197D02*
D03*
Y3000197D02*
D03*
Y3050197D02*
D03*
Y3100197D02*
D03*
Y3150197D02*
D03*
Y3200197D02*
D03*
Y3250197D02*
D03*
Y3300197D02*
D03*
X718504Y2950197D02*
D03*
Y3000197D02*
D03*
Y3050197D02*
D03*
Y3100197D02*
D03*
Y3150197D02*
D03*
Y3200197D02*
D03*
Y3250197D02*
D03*
Y3300197D02*
D03*
D14*
X537562Y3104170D02*
D03*
X486060Y3155672D02*
D03*
D18*
X1439961Y680118D02*
D03*
X185039Y306890D02*
D03*
Y749803D02*
D03*
X189961Y1200197D02*
D03*
X1458661Y2394095D02*
D03*
X1376378Y3270866D02*
D03*
X185039Y1774803D02*
D03*
X175591Y3272441D02*
D03*
D19*
X1439961Y780118D02*
D03*
Y880118D02*
D03*
Y980118D02*
D03*
Y1080118D02*
D03*
Y1180118D02*
D03*
Y1280118D02*
D03*
Y1380118D02*
D03*
X1202756Y124016D02*
D03*
X881496Y122047D02*
D03*
X559646Y124016D02*
D03*
X185039Y406890D02*
D03*
Y506890D02*
D03*
Y849803D02*
D03*
Y949803D02*
D03*
X189961Y1500197D02*
D03*
Y1400197D02*
D03*
Y1300197D02*
D03*
X1128937Y1097441D02*
D03*
Y1197441D02*
D03*
Y1297441D02*
D03*
Y2697441D02*
D03*
Y2597441D02*
D03*
Y2497441D02*
D03*
X528937Y1297441D02*
D03*
X1128937Y997441D02*
D03*
Y897441D02*
D03*
Y797441D02*
D03*
Y697441D02*
D03*
Y597441D02*
D03*
Y497441D02*
D03*
Y397441D02*
D03*
X528937D02*
D03*
Y497441D02*
D03*
Y597441D02*
D03*
Y697441D02*
D03*
Y797441D02*
D03*
Y897441D02*
D03*
Y997441D02*
D03*
Y1097441D02*
D03*
Y1197441D02*
D03*
X1128937Y2397441D02*
D03*
Y2297441D02*
D03*
Y2197441D02*
D03*
Y2097441D02*
D03*
Y1997441D02*
D03*
Y1897441D02*
D03*
Y1797441D02*
D03*
Y1697441D02*
D03*
Y1597441D02*
D03*
Y1497441D02*
D03*
Y1397441D02*
D03*
X528937D02*
D03*
Y1497441D02*
D03*
Y1597441D02*
D03*
Y1697441D02*
D03*
Y1797441D02*
D03*
Y1897441D02*
D03*
Y1997441D02*
D03*
Y2097441D02*
D03*
Y2197441D02*
D03*
Y2297441D02*
D03*
Y2397441D02*
D03*
Y2497441D02*
D03*
Y2597441D02*
D03*
Y2697441D02*
D03*
X1458661Y1694094D02*
D03*
Y1794094D02*
D03*
Y1894094D02*
D03*
Y1994094D02*
D03*
Y2094095D02*
D03*
Y2194095D02*
D03*
Y2294095D02*
D03*
X1476378Y3270866D02*
D03*
Y3170866D02*
D03*
X1376378D02*
D03*
Y3070866D02*
D03*
Y2970866D02*
D03*
Y2870866D02*
D03*
X1476378Y3070866D02*
D03*
Y2970866D02*
D03*
Y2870866D02*
D03*
X185039Y2474803D02*
D03*
Y2374803D02*
D03*
Y2274803D02*
D03*
Y2174803D02*
D03*
Y2074803D02*
D03*
Y1974803D02*
D03*
Y1874803D02*
D03*
X275591Y3272441D02*
D03*
Y3172441D02*
D03*
X175591D02*
D03*
Y3072441D02*
D03*
Y2972441D02*
D03*
Y2872441D02*
D03*
X275591Y3072441D02*
D03*
Y2972441D02*
D03*
Y2872441D02*
D03*
D20*
X1102756Y124016D02*
D03*
X781496Y122047D02*
D03*
X459646Y124016D02*
D03*
D21*
X603465Y3725000D02*
D03*
X886929D02*
D03*
D22*
X1496063Y3838583D02*
D03*
X157480D02*
D03*
Y157480D02*
D03*
X1496063D02*
D03*
%TF.MD5,314f38187d10eb490e5c01ac3314d758*%
M02*
