%TF.GenerationSoftware,Altium Limited,Altium Designer,19.1.8 (144)*%
G04 Layer_Color=32768*
%FSLAX26Y26*%
%MOIN*%
%TF.FileFunction,Other,Mechanical_3*%
%TF.Part,Single*%
G01*
G75*
%TA.AperFunction,NonConductor*%
%ADD33C,0.010000*%
D33*
X1252749Y74016D02*
Y174016D01*
X1052749D02*
X1252749D01*
X1052749Y74016D02*
Y174016D01*
Y74016D02*
X1252749D01*
X931490Y72047D02*
Y172047D01*
X731490D02*
X931490D01*
X731490Y72047D02*
Y172047D01*
Y72047D02*
X931490D01*
X609639Y74016D02*
Y174016D01*
X409639D02*
X609639D01*
X409639Y74016D02*
Y174016D01*
Y74016D02*
X609639D01*
X135039Y556890D02*
X235039D01*
X135039Y256883D02*
Y556890D01*
Y256883D02*
X235039D01*
Y556890D01*
X135039Y999803D02*
X235039D01*
X135039Y699797D02*
Y999803D01*
Y699797D02*
X235039D01*
Y999803D01*
X239961Y1150190D02*
Y1550197D01*
X139961D02*
X239961D01*
X139961Y1150190D02*
X239961D01*
X139961D02*
Y1550197D01*
X1053465Y3525000D02*
Y3925000D01*
X1526378Y3020866D02*
Y3320872D01*
X1426378D02*
X1526378D01*
X1326378D02*
X1426378D01*
X1326378Y3020866D02*
Y3320872D01*
Y2820866D02*
X1426378D01*
X1326378D02*
Y3120872D01*
X1426378Y2820866D02*
X1526378D01*
Y3120872D01*
X325591Y3022441D02*
Y3322447D01*
X225591D02*
X325591D01*
X125591D02*
X225591D01*
X125591Y3022441D02*
Y3322447D01*
Y2822441D02*
X225591D01*
X125591D02*
Y3122447D01*
X225591Y2822441D02*
X325591D01*
Y3122447D01*
%TF.MD5,778df3f61b51c3bf5dc641729187c80a*%
M02*
