G04*
G04 #@! TF.GenerationSoftware,Altium Limited,Altium Designer,19.1.8 (144)*
G04*
G04 Layer_Color=16711935*
%FSLAX25Y25*%
%MOIN*%
G70*
G01*
G75*
%ADD23R,0.06800X0.06800*%
%ADD24C,0.06800*%
%ADD25R,0.06800X0.06800*%
%ADD26C,0.24422*%
%ADD27C,0.16548*%
%ADD28C,0.05800*%
%ADD29C,0.04343*%
D23*
X143996Y68012D02*
D03*
X18504Y30689D02*
D03*
Y74980D02*
D03*
X18996Y120020D02*
D03*
X145866Y239409D02*
D03*
X137638Y327087D02*
D03*
X18504Y177480D02*
D03*
X17559Y327244D02*
D03*
D24*
X143996Y78012D02*
D03*
Y88012D02*
D03*
Y98012D02*
D03*
Y108012D02*
D03*
Y118012D02*
D03*
Y128012D02*
D03*
Y138012D02*
D03*
X120276Y12402D02*
D03*
X88150Y12205D02*
D03*
X55965Y12402D02*
D03*
X18504Y40689D02*
D03*
Y50689D02*
D03*
Y84980D02*
D03*
Y94980D02*
D03*
X18996Y150020D02*
D03*
Y140020D02*
D03*
Y130020D02*
D03*
X112894Y109744D02*
D03*
Y119744D02*
D03*
Y129744D02*
D03*
Y269744D02*
D03*
Y259744D02*
D03*
Y249744D02*
D03*
X52894Y129744D02*
D03*
X112894Y99744D02*
D03*
Y89744D02*
D03*
Y79744D02*
D03*
Y69744D02*
D03*
Y59744D02*
D03*
Y49744D02*
D03*
Y39744D02*
D03*
X52894D02*
D03*
Y49744D02*
D03*
Y59744D02*
D03*
Y69744D02*
D03*
Y79744D02*
D03*
Y89744D02*
D03*
Y99744D02*
D03*
Y109744D02*
D03*
Y119744D02*
D03*
X112894Y239744D02*
D03*
Y229744D02*
D03*
Y219744D02*
D03*
Y209744D02*
D03*
Y199744D02*
D03*
Y189744D02*
D03*
Y179744D02*
D03*
Y169744D02*
D03*
Y159744D02*
D03*
Y149744D02*
D03*
Y139744D02*
D03*
X52894D02*
D03*
Y149744D02*
D03*
Y159744D02*
D03*
Y169744D02*
D03*
Y179744D02*
D03*
Y189744D02*
D03*
Y199744D02*
D03*
Y209744D02*
D03*
Y219744D02*
D03*
Y229744D02*
D03*
Y239744D02*
D03*
Y249744D02*
D03*
Y259744D02*
D03*
Y269744D02*
D03*
X145866Y169409D02*
D03*
Y179409D02*
D03*
Y189409D02*
D03*
Y199409D02*
D03*
Y209409D02*
D03*
Y219409D02*
D03*
Y229410D02*
D03*
X147638Y327087D02*
D03*
Y317087D02*
D03*
X137638D02*
D03*
Y307087D02*
D03*
Y297087D02*
D03*
Y287087D02*
D03*
X147638Y307087D02*
D03*
Y297087D02*
D03*
Y287087D02*
D03*
X18504Y247480D02*
D03*
Y237480D02*
D03*
Y227480D02*
D03*
Y217480D02*
D03*
Y207480D02*
D03*
Y197480D02*
D03*
Y187480D02*
D03*
X27559Y327244D02*
D03*
Y317244D02*
D03*
X17559D02*
D03*
Y307244D02*
D03*
Y297244D02*
D03*
Y287244D02*
D03*
X27559Y307244D02*
D03*
Y297244D02*
D03*
Y287244D02*
D03*
D25*
X110276Y12402D02*
D03*
X78150Y12205D02*
D03*
X45965Y12402D02*
D03*
D26*
X60347Y372500D02*
D03*
X88693D02*
D03*
D27*
X149606Y383858D02*
D03*
X15748D02*
D03*
Y15748D02*
D03*
X149606D02*
D03*
D28*
X68504Y259842D02*
D03*
X68110Y235039D02*
D03*
X87795Y219685D02*
D03*
X67716Y198425D02*
D03*
X89370Y187402D02*
D03*
X8661Y302756D02*
D03*
X57087Y298425D02*
D03*
X41339Y266142D02*
D03*
X47638Y279921D02*
D03*
X24409Y272441D02*
D03*
X7874Y233071D02*
D03*
X21654Y167323D02*
D03*
X40157Y144882D02*
D03*
X30709Y127953D02*
D03*
X28740Y90551D02*
D03*
X10630Y138976D02*
D03*
X11024Y113386D02*
D03*
X26772Y31496D02*
D03*
X18504Y66929D02*
D03*
X31890Y54724D02*
D03*
X81890Y161811D02*
D03*
X66929Y133071D02*
D03*
Y92126D02*
D03*
X67323Y51181D02*
D03*
X92520Y63386D02*
D03*
X48425Y28346D02*
D03*
X69685Y16535D02*
D03*
X106559Y30055D02*
D03*
X140945Y46063D02*
D03*
X125591Y73622D02*
D03*
X134646Y95669D02*
D03*
X154724Y97638D02*
D03*
X156693Y138189D02*
D03*
X128740Y120472D02*
D03*
X130709Y155905D02*
D03*
X134646Y201969D02*
D03*
X133465Y251181D02*
D03*
X143701Y264961D02*
D03*
X134646Y277953D02*
D03*
X128740Y294488D02*
D03*
X142520Y359055D02*
D03*
X108661Y357087D02*
D03*
X77953Y388583D02*
D03*
X124803Y381890D02*
D03*
X42126Y392913D02*
D03*
X14961Y358661D02*
D03*
X39370Y325984D02*
D03*
X96063Y277559D02*
D03*
X118504Y329528D02*
D03*
X82677Y321260D02*
D03*
X73622Y287795D02*
D03*
X60236Y348819D02*
D03*
X80709Y43307D02*
D03*
X92520Y250000D02*
D03*
X28605Y112205D02*
D03*
X92520Y90551D02*
D03*
Y173228D02*
D03*
X120423Y273465D02*
D03*
X100689Y340551D02*
D03*
X66437Y174213D02*
D03*
X92323Y161417D02*
D03*
X92421Y105217D02*
D03*
X126083Y180512D02*
D03*
X131890Y174508D02*
D03*
X126969Y93602D02*
D03*
X132972Y104429D02*
D03*
D29*
X100394Y302756D02*
D03*
M02*
