M48
;Layer_Color=9474304
;FILE_FORMAT=2:5
INCH,TZ
;TYPE=PLATED
T1F00S00C0.01575
T2F00S00C0.02799
T3F00S00C0.02800
T4F00S00C0.04000
T5F00S00C0.04016
T6F00S00C0.13780
T7F00S00C0.17717
%
T01
X100394Y302756
T02
X26772Y31496
X48425Y28346
X69685Y16535
X67323Y51181
X31890Y54724
X106559Y30055
X140945Y46063
X125591Y73622
X134646Y95669
X154724Y97638
X156693Y138189
X130709Y155905
X128740Y120472
X134646Y201969
X92520Y63386
X66929Y92126
X28740Y90551
X18504Y66929
X11024Y113386
X10630Y138976
X30709Y127953
X40157Y144882
X66929Y133071
X81890Y161811
X89370Y187402
X67716Y198425
X21654Y167323
X7874Y233071
X24409Y272441
X41339Y266142
X47638Y279921
X57087Y298425
X73622Y287795
X68504Y259842
X68110Y235039
X87795Y219685
X82677Y321260
X39370Y325984
X60236Y348819
X14961Y358661
X8661Y302756
X96063Y277559
X134646Y277953
X143701Y264961
X133465Y251181
X128740Y294488
X118504Y329528
X108661Y357087
X142520Y359055
X124803Y381890
X77953Y388583
X42126Y392913
T03
X80709Y43307
X92520Y90551
X92421Y105217
X132972Y104429
X126969Y93602
X131890Y174508
X126083Y180512
X92520Y173228
X92323Y161417
X66437Y174213
X28605Y112205
X92520Y250000
X120423Y273465
X100689Y340551
T04
X52894Y39744
Y49744
X112894
Y39744
Y59744
Y69744
Y79744
Y89744
Y99744
Y109744
Y119744
Y129744
Y139744
Y149744
Y159744
Y169744
Y179744
Y189744
Y199744
Y209744
X52894
Y199744
Y189744
Y179744
Y169744
Y159744
Y149744
Y139744
Y129744
Y119744
Y109744
Y99744
Y89744
Y79744
Y69744
Y59744
Y219744
Y229744
Y239744
Y249744
Y259744
Y269744
X112894
Y259744
Y249744
Y239744
Y229744
Y219744
T05
X18504Y30689
Y40689
Y50689
X45965Y12402
X55965
X78150Y12205
X88150
X110276Y12402
X120276
X143996Y68012
Y78012
Y88012
Y98012
Y108012
Y118012
Y128012
Y138012
X145866Y169409
Y179409
Y189409
Y199409
Y209409
X18504Y207480
Y197480
Y187480
Y177480
X18996Y150020
Y140020
Y130020
Y120020
X18504Y94980
Y84980
Y74980
Y217480
Y227480
Y237480
Y247480
X17559Y287244
Y297244
Y307244
Y317244
X27559
Y327244
X17559
X27559Y307244
Y297244
Y287244
X137638Y287087
Y297087
Y307087
Y317087
X147638
Y327087
X137638
X147638Y307087
Y297087
Y287087
X145866Y239409
Y229410
Y219409
T06
X15748Y15748
X149606
Y383858
X15748
T07
X60347Y372500
X88693
M30
