%TF.GenerationSoftware,Altium Limited,Altium Designer,19.1.8 (144)*%
G04 Layer_Color=16711935*
%FSLAX26Y26*%
%MOIN*%
%TF.FileFunction,Other,Mechanical_13*%
%TF.Part,Single*%
G01*
G75*
%TA.AperFunction,NonConductor*%
%ADD32C,0.007874*%
%ADD33C,0.010000*%
%ADD40C,0.003937*%
D32*
X812303Y3325197D02*
G03*
X837303Y3325197I12500J0D01*
G01*
X781890D02*
X812303D01*
X837303D02*
X867716D01*
Y2925197D02*
Y3325197D01*
X781890Y2925197D02*
X867716D01*
X781890D02*
Y3325197D01*
D33*
X1384842Y625000D02*
X1495079D01*
Y1432087D01*
X1384842D02*
X1495079D01*
X1384842Y625000D02*
Y1432087D01*
X1513780Y1642126D02*
Y2449213D01*
X1403543Y1642126D02*
X1513780D01*
X1403543D02*
Y2449213D01*
X1513780D01*
X129921Y1719685D02*
Y2526772D01*
X240157D01*
Y1719685D02*
Y2526772D01*
X129921Y1719685D02*
X240157D01*
D40*
X1084646Y3455512D02*
Y3505118D01*
X1000000Y3455512D02*
Y3505118D01*
Y3455512D02*
X1084646D01*
X1000000Y3505118D02*
X1084646D01*
X1273622Y2672047D02*
X1358268D01*
X1273622Y2721654D02*
X1358268D01*
Y2672047D02*
Y2721654D01*
X1273622Y2672047D02*
Y2721654D01*
Y2573622D02*
Y2623228D01*
X1358268Y2573622D02*
Y2623228D01*
X1273622D02*
X1358268D01*
X1273622Y2573622D02*
X1358268D01*
X1020669Y3282284D02*
X1105315D01*
X1020669Y3331890D02*
X1105315D01*
Y3282284D02*
Y3331890D01*
X1020669Y3282284D02*
Y3331890D01*
X1173806Y3197072D02*
X1208882Y3161994D01*
X1113952Y3137218D02*
X1149029Y3102141D01*
X1208882Y3161994D01*
X1113952Y3137218D02*
X1173806Y3197072D01*
X524199Y3082456D02*
X559276Y3117533D01*
X464346Y3142310D02*
X499423Y3177387D01*
X464346Y3142310D02*
X524199Y3082456D01*
X499423Y3177387D02*
X559276Y3117533D01*
%TF.MD5,fff9f14dbab5d746893f53fa69564af7*%
M02*
