G04*
G04 #@! TF.GenerationSoftware,Altium Limited,Altium Designer,19.1.8 (144)*
G04*
G04 Layer_Color=32768*
%FSLAX25Y25*%
%MOIN*%
G70*
G01*
G75*
%ADD40C,0.00394*%
%ADD41C,0.00197*%
D40*
X137303Y61319D02*
X150689D01*
X137303D02*
Y144390D01*
X150689D01*
Y61319D02*
Y144390D01*
X102264Y348031D02*
X106201D01*
X104232Y346063D02*
Y350000D01*
X131595Y267717D02*
Y271654D01*
X129626Y269685D02*
X133563D01*
X139173Y163031D02*
Y246102D01*
Y163031D02*
X152559D01*
Y246102D01*
X139173D02*
X152559D01*
X129626Y259842D02*
X133563D01*
X131595Y257874D02*
Y261811D01*
X106299Y328740D02*
Y332677D01*
X104331Y330709D02*
X108268D01*
X114750Y313569D02*
X117534Y316353D01*
X114750D02*
X117534Y313569D01*
X66850Y291020D02*
Y335020D01*
Y291020D02*
X97850D01*
Y335020D01*
X66850D02*
X97850D01*
X49789Y314384D02*
X52573Y311600D01*
X49789Y311600D02*
X52573Y314384D01*
X25197Y170787D02*
Y253858D01*
X11811D02*
X25197D01*
X11811Y170787D02*
Y253858D01*
Y170787D02*
X25197D01*
D41*
X110925Y344291D02*
Y351772D01*
X97539Y344291D02*
Y351772D01*
Y344291D02*
X110925D01*
X97539Y351772D02*
X110925D01*
X124902Y265945D02*
X138287D01*
X124902Y273425D02*
X138287D01*
Y265945D02*
Y273425D01*
X124902Y265945D02*
Y273425D01*
Y256299D02*
Y263386D01*
X138287Y256299D02*
Y263386D01*
X124902D02*
X138287D01*
X124902Y256299D02*
X138287D01*
X99606Y326969D02*
X112992D01*
X99606Y334449D02*
X112992D01*
Y326969D02*
Y334449D01*
X99606Y326969D02*
Y334449D01*
X118369Y322199D02*
X123380Y317188D01*
X108904Y312734D02*
X113915Y307722D01*
X123380Y317188D01*
X108904Y312734D02*
X118369Y322199D01*
X53408Y305754D02*
X58419Y310765D01*
X43943Y315219D02*
X48954Y320230D01*
X43943Y315219D02*
X53408Y305754D01*
X48954Y320230D02*
X58419Y310765D01*
M02*
