%TF.GenerationSoftware,Altium Limited,Altium Designer,19.1.8 (144)*%
G04 Layer_Physical_Order=1*
G04 Layer_Color=255*
%FSLAX26Y26*%
%MOIN*%
%TF.FileFunction,Copper,L1,Top,Signal*%
%TF.Part,Single*%
G01*
G75*
%TA.AperFunction,SMDPad,CuDef*%
%ADD10R,0.041339X0.055118*%
%ADD11R,0.041339X0.051181*%
G04:AMPARAMS|DCode=12|XSize=51.181mil|YSize=41.339mil|CornerRadius=0mil|HoleSize=0mil|Usage=FLASHONLY|Rotation=315.000|XOffset=0mil|YOffset=0mil|HoleType=Round|Shape=Rectangle|*
%AMROTATEDRECTD12*
4,1,4,-0.032711,0.003480,-0.003480,0.032711,0.032711,-0.003480,0.003480,-0.032711,-0.032711,0.003480,0.0*
%
%ADD12ROTATEDRECTD12*%

%ADD13R,0.061024X0.023622*%
G04:AMPARAMS|DCode=14|XSize=51.181mil|YSize=41.339mil|CornerRadius=0mil|HoleSize=0mil|Usage=FLASHONLY|Rotation=225.000|XOffset=0mil|YOffset=0mil|HoleType=Round|Shape=Rectangle|*
%AMROTATEDRECTD14*
4,1,4,0.003480,0.032711,0.032711,0.003480,-0.003480,-0.032711,-0.032711,-0.003480,0.003480,0.032711,0.0*
%
%ADD14ROTATEDRECTD14*%

%TA.AperFunction,Conductor*%
%ADD15C,0.015748*%
%ADD16C,0.023622*%
%ADD17C,0.031496*%
%TA.AperFunction,ComponentPad*%
%ADD18R,0.060000X0.060000*%
%ADD19C,0.060000*%
%ADD20R,0.060000X0.060000*%
%ADD21C,0.236220*%
%TA.AperFunction,ViaPad*%
%ADD22C,0.157480*%
%ADD23C,0.050000*%
%ADD24C,0.035433*%
G36*
X1377953Y3720472D02*
X1625984D01*
Y299213D01*
X1366142D01*
Y23622D01*
X287402D01*
Y248031D01*
X19685D01*
Y3720472D01*
X275591D01*
Y3984252D01*
X1377953D01*
Y3720472D01*
D02*
G37*
%LPC*%
G36*
X429134Y3963399D02*
Y3937008D01*
X455525D01*
X455359Y3938271D01*
X451832Y3946785D01*
X446222Y3954096D01*
X438911Y3959706D01*
X430397Y3963233D01*
X429134Y3963399D01*
D02*
G37*
G36*
X413386D02*
X412123Y3963233D01*
X403609Y3959706D01*
X396298Y3954096D01*
X390687Y3946785D01*
X387161Y3938271D01*
X386994Y3937008D01*
X413386D01*
Y3963399D01*
D02*
G37*
G36*
X455525Y3921260D02*
X429134D01*
Y3894869D01*
X430397Y3895035D01*
X438911Y3898561D01*
X446222Y3904172D01*
X451832Y3911483D01*
X455359Y3919997D01*
X455525Y3921260D01*
D02*
G37*
G36*
X413386D02*
X386994D01*
X387161Y3919997D01*
X390687Y3911483D01*
X396298Y3904172D01*
X403609Y3898561D01*
X412123Y3895035D01*
X413386Y3894869D01*
Y3921260D01*
D02*
G37*
G36*
X787402Y3920092D02*
Y3893701D01*
X813793D01*
X813627Y3894964D01*
X810100Y3903478D01*
X804490Y3910789D01*
X797179Y3916399D01*
X788664Y3919926D01*
X787402Y3920092D01*
D02*
G37*
G36*
X771654D02*
X770391Y3919926D01*
X761877Y3916399D01*
X754565Y3910789D01*
X748955Y3903478D01*
X745428Y3894964D01*
X745262Y3893701D01*
X771654D01*
Y3920092D01*
D02*
G37*
G36*
X813793Y3877953D02*
X787402D01*
Y3851561D01*
X788664Y3851728D01*
X797179Y3855254D01*
X804490Y3860865D01*
X810100Y3868176D01*
X813627Y3876690D01*
X813793Y3877953D01*
D02*
G37*
G36*
X771654D02*
X745262D01*
X745428Y3876690D01*
X748955Y3868176D01*
X754565Y3860865D01*
X761877Y3855254D01*
X770391Y3851728D01*
X771654Y3851561D01*
Y3877953D01*
D02*
G37*
G36*
X1255906Y3853163D02*
Y3826772D01*
X1282297D01*
X1282131Y3828034D01*
X1278604Y3836549D01*
X1272994Y3843860D01*
X1265682Y3849470D01*
X1257168Y3852997D01*
X1255906Y3853163D01*
D02*
G37*
G36*
X1240158D02*
X1238895Y3852997D01*
X1230380Y3849470D01*
X1223069Y3843860D01*
X1217459Y3836549D01*
X1213932Y3828034D01*
X1213766Y3826772D01*
X1240158D01*
Y3853163D01*
D02*
G37*
G36*
X1282297Y3811024D02*
X1255906D01*
Y3784632D01*
X1257168Y3784798D01*
X1265682Y3788325D01*
X1272994Y3793935D01*
X1278604Y3801247D01*
X1282131Y3809761D01*
X1282297Y3811024D01*
D02*
G37*
G36*
X1240158D02*
X1213766D01*
X1213932Y3809761D01*
X1217459Y3801247D01*
X1223069Y3793935D01*
X1230380Y3788325D01*
X1238895Y3784798D01*
X1240158Y3784632D01*
Y3811024D01*
D02*
G37*
G36*
X611339Y3852887D02*
Y3732874D01*
X731351D01*
X730389Y3745103D01*
X725681Y3764711D01*
X717965Y3783341D01*
X707428Y3800534D01*
X694332Y3815868D01*
X678999Y3828964D01*
X661805Y3839500D01*
X643175Y3847217D01*
X623567Y3851924D01*
X611339Y3852887D01*
D02*
G37*
G36*
X595591D02*
X583362Y3851924D01*
X563754Y3847217D01*
X545124Y3839500D01*
X527931Y3828964D01*
X512597Y3815868D01*
X499501Y3800534D01*
X488965Y3783341D01*
X481248Y3764711D01*
X476540Y3745103D01*
X475578Y3732874D01*
X595591D01*
Y3852887D01*
D02*
G37*
G36*
X1433071Y3624817D02*
Y3598425D01*
X1459462D01*
X1459296Y3599688D01*
X1455769Y3608202D01*
X1450159Y3615514D01*
X1442848Y3621124D01*
X1434334Y3624650D01*
X1433071Y3624817D01*
D02*
G37*
G36*
X1417323D02*
X1416060Y3624650D01*
X1407546Y3621124D01*
X1400235Y3615514D01*
X1394624Y3608202D01*
X1391098Y3599688D01*
X1390931Y3598425D01*
X1417323D01*
Y3624817D01*
D02*
G37*
G36*
X731351Y3717126D02*
X611339D01*
Y3597113D01*
X623567Y3598076D01*
X643175Y3602783D01*
X661805Y3610500D01*
X678999Y3621036D01*
X694332Y3634132D01*
X707428Y3649466D01*
X717965Y3666659D01*
X725681Y3685289D01*
X730389Y3704897D01*
X731351Y3717126D01*
D02*
G37*
G36*
X595591D02*
X475578D01*
X476540Y3704897D01*
X481248Y3685289D01*
X488965Y3666659D01*
X499501Y3649466D01*
X512597Y3634132D01*
X527931Y3621036D01*
X545124Y3610500D01*
X563754Y3602783D01*
X583362Y3598076D01*
X595591Y3597113D01*
Y3717126D01*
D02*
G37*
G36*
X157480Y3620880D02*
Y3594488D01*
X183872D01*
X183705Y3595751D01*
X180179Y3604265D01*
X174569Y3611577D01*
X167257Y3617187D01*
X158743Y3620713D01*
X157480Y3620880D01*
D02*
G37*
G36*
X141732D02*
X140470Y3620713D01*
X131955Y3617187D01*
X124644Y3611577D01*
X119034Y3604265D01*
X115507Y3595751D01*
X115341Y3594488D01*
X141732D01*
Y3620880D01*
D02*
G37*
G36*
X1094488Y3605131D02*
Y3578740D01*
X1120880D01*
X1120713Y3580003D01*
X1117187Y3588517D01*
X1111576Y3595828D01*
X1104265Y3601439D01*
X1095751Y3604965D01*
X1094488Y3605131D01*
D02*
G37*
G36*
X1078740D02*
X1077477Y3604965D01*
X1068963Y3601439D01*
X1061652Y3595828D01*
X1056042Y3588517D01*
X1052515Y3580003D01*
X1052349Y3578740D01*
X1078740D01*
Y3605131D01*
D02*
G37*
G36*
X1459462Y3582677D02*
X1433071D01*
Y3556286D01*
X1434334Y3556452D01*
X1442848Y3559979D01*
X1450159Y3565589D01*
X1455769Y3572900D01*
X1459296Y3581414D01*
X1459462Y3582677D01*
D02*
G37*
G36*
X1417323D02*
X1390931D01*
X1391098Y3581414D01*
X1394624Y3572900D01*
X1400235Y3565589D01*
X1407546Y3559979D01*
X1416060Y3556452D01*
X1417323Y3556286D01*
Y3582677D01*
D02*
G37*
G36*
X183872Y3578740D02*
X157480D01*
Y3552349D01*
X158743Y3552515D01*
X167257Y3556042D01*
X174569Y3561652D01*
X180179Y3568963D01*
X183705Y3577477D01*
X183872Y3578740D01*
D02*
G37*
G36*
X141732D02*
X115341D01*
X115507Y3577477D01*
X119034Y3568963D01*
X124644Y3561652D01*
X131955Y3556042D01*
X140470Y3552515D01*
X141732Y3552349D01*
Y3578740D01*
D02*
G37*
G36*
X1120880Y3562992D02*
X1094488D01*
Y3536601D01*
X1095751Y3536767D01*
X1104265Y3540294D01*
X1111576Y3545904D01*
X1117187Y3553215D01*
X1120713Y3561729D01*
X1120880Y3562992D01*
D02*
G37*
G36*
X1078740D02*
X1052349D01*
X1052515Y3561729D01*
X1056042Y3553215D01*
X1061652Y3545904D01*
X1068963Y3540294D01*
X1077477Y3536767D01*
X1078740Y3536601D01*
Y3562992D01*
D02*
G37*
G36*
X610236Y3522454D02*
Y3496063D01*
X636628D01*
X636461Y3497326D01*
X632935Y3505840D01*
X627324Y3513151D01*
X620013Y3518761D01*
X611499Y3522288D01*
X610236Y3522454D01*
D02*
G37*
G36*
X594488D02*
X593225Y3522288D01*
X584711Y3518761D01*
X577400Y3513151D01*
X571790Y3505840D01*
X568263Y3497326D01*
X568097Y3496063D01*
X594488D01*
Y3522454D01*
D02*
G37*
G36*
X1109409Y3517874D02*
X1086614D01*
Y3488189D01*
X1109409D01*
Y3517874D01*
D02*
G37*
G36*
X1070866D02*
X1048071D01*
Y3488189D01*
X1070866D01*
Y3517874D01*
D02*
G37*
G36*
X636628Y3480315D02*
X610236D01*
Y3453924D01*
X611499Y3454090D01*
X620013Y3457617D01*
X627324Y3463227D01*
X632935Y3470538D01*
X636461Y3479052D01*
X636628Y3480315D01*
D02*
G37*
G36*
X594488D02*
X568097D01*
X568263Y3479052D01*
X571790Y3470538D01*
X577400Y3463227D01*
X584711Y3457617D01*
X593225Y3454090D01*
X594488Y3453924D01*
Y3480315D01*
D02*
G37*
G36*
X1109409Y3472441D02*
X1086614D01*
Y3442756D01*
X1109409D01*
Y3472441D01*
D02*
G37*
G36*
X1070866D02*
X1048071D01*
Y3442756D01*
X1070866D01*
Y3472441D01*
D02*
G37*
G36*
X886929Y3853506D02*
X866826Y3851924D01*
X847219Y3847217D01*
X828589Y3839500D01*
X811395Y3828964D01*
X796062Y3815868D01*
X782965Y3800534D01*
X772429Y3783341D01*
X764712Y3764711D01*
X760005Y3745103D01*
X758423Y3725000D01*
X760005Y3704897D01*
X764712Y3685289D01*
X772429Y3666659D01*
X782965Y3649466D01*
X796062Y3634132D01*
X811395Y3621036D01*
X828589Y3610500D01*
X847219Y3602783D01*
X866826Y3598076D01*
X886929Y3596494D01*
X907032Y3598076D01*
X926640Y3602783D01*
X945270Y3610500D01*
X958255Y3618457D01*
X984652Y3592060D01*
Y3517874D01*
X975236D01*
Y3442756D01*
X984652D01*
Y3434408D01*
X958308Y3408065D01*
X288977D01*
X288976Y3408065D01*
X280466Y3406372D01*
X273252Y3401552D01*
X273251Y3401551D01*
X184141Y3312441D01*
X135591D01*
Y3232441D01*
X215591D01*
Y3280991D01*
X298188Y3363588D01*
X967519D01*
X967520Y3363588D01*
X976030Y3365281D01*
X977045Y3365959D01*
X980232Y3362076D01*
X940592Y3322435D01*
X931102D01*
X928954Y3322008D01*
X890591D01*
Y3278386D01*
X928954D01*
X931102Y3277959D01*
X949803D01*
X949803Y3277959D01*
X951952Y3278386D01*
X971614D01*
Y3290558D01*
X990905Y3309849D01*
X995905Y3307778D01*
X995905Y3269528D01*
X991364Y3268421D01*
X971614D01*
Y3272008D01*
X890591D01*
Y3228386D01*
X971614D01*
Y3231973D01*
X1112333D01*
X1152892Y3191414D01*
X1140315Y3178837D01*
X1190648Y3128504D01*
X1203225Y3141081D01*
X1227271Y3117035D01*
X1227271Y3117035D01*
X1238452Y3105854D01*
X1244365Y3101903D01*
X1251339Y3100516D01*
X1251339Y3100516D01*
X1342408D01*
X1344873Y3095516D01*
X1341438Y3091039D01*
X1340631Y3089090D01*
X1188651D01*
X1169943Y3107799D01*
X1182519Y3120376D01*
X1132187Y3170708D01*
X1119610Y3158131D01*
X1064658Y3213083D01*
X1058746Y3217034D01*
X1051772Y3218421D01*
X1051771Y3218421D01*
X971614D01*
Y3222008D01*
X890591D01*
Y3178386D01*
X971614D01*
Y3181973D01*
X1044223D01*
X1093837Y3132359D01*
X1088814Y3127335D01*
X1139146Y3077003D01*
X1144170Y3082026D01*
X1168216Y3057980D01*
X1168216Y3057980D01*
X1174128Y3054029D01*
X1181102Y3052642D01*
X1181103Y3052642D01*
X1340631D01*
X1341438Y3050693D01*
X1347850Y3042338D01*
X1356205Y3035926D01*
X1365936Y3031896D01*
X1376378Y3030521D01*
X1386820Y3031896D01*
X1396551Y3035926D01*
X1404906Y3042338D01*
X1411318Y3050693D01*
X1415349Y3060424D01*
X1416723Y3070866D01*
X1415349Y3081308D01*
X1411318Y3091039D01*
X1407883Y3095516D01*
X1410348Y3100516D01*
X1420955D01*
X1438215Y3083257D01*
X1437408Y3081308D01*
X1436033Y3070866D01*
X1437408Y3060424D01*
X1441438Y3050693D01*
X1447850Y3042338D01*
X1456205Y3035926D01*
X1465936Y3031896D01*
X1476378Y3030521D01*
X1486820Y3031896D01*
X1496551Y3035926D01*
X1504906Y3042338D01*
X1511318Y3050693D01*
X1515349Y3060424D01*
X1516723Y3070866D01*
X1515349Y3081308D01*
X1511318Y3091039D01*
X1504906Y3099394D01*
X1496551Y3105806D01*
X1486820Y3109837D01*
X1476378Y3111211D01*
X1465936Y3109837D01*
X1463987Y3109030D01*
X1441390Y3131627D01*
X1435478Y3135577D01*
X1428504Y3136964D01*
X1428504Y3136964D01*
X1405681D01*
X1404074Y3141699D01*
X1404906Y3142338D01*
X1411318Y3150693D01*
X1415349Y3160424D01*
X1416723Y3170866D01*
X1415349Y3181308D01*
X1411318Y3191039D01*
X1404906Y3199394D01*
X1396551Y3205806D01*
X1386820Y3209837D01*
X1376378Y3211211D01*
X1365936Y3209837D01*
X1356205Y3205806D01*
X1347850Y3199394D01*
X1341438Y3191039D01*
X1337408Y3181308D01*
X1336033Y3170866D01*
X1337408Y3160424D01*
X1341438Y3150693D01*
X1347850Y3142338D01*
X1348682Y3141699D01*
X1347075Y3136964D01*
X1258888D01*
X1253044Y3142808D01*
X1253044Y3142808D01*
X1228998Y3166854D01*
X1234021Y3171877D01*
X1183688Y3222210D01*
X1178665Y3217187D01*
X1132768Y3263083D01*
X1130405Y3264663D01*
X1130079Y3269528D01*
X1130079Y3270894D01*
Y3299212D01*
X1099409D01*
X1068740D01*
Y3273421D01*
X1068740Y3269528D01*
X1064198Y3268421D01*
X1061786D01*
X1057244Y3269528D01*
X1057244Y3273421D01*
Y3344646D01*
X1029128D01*
Y3357283D01*
X1029128Y3357284D01*
X1029128Y3357284D01*
Y3365028D01*
X1034128Y3367701D01*
X1037750Y3365281D01*
X1046260Y3363588D01*
X1252206D01*
X1336378Y3279416D01*
Y3230866D01*
X1416378D01*
Y3310866D01*
X1367828D01*
X1277142Y3401552D01*
X1269928Y3406372D01*
X1261417Y3408065D01*
X1261417Y3408065D01*
X1055471D01*
X1029128Y3434408D01*
Y3442756D01*
X1036575D01*
Y3517874D01*
X1029128D01*
Y3601271D01*
X1029128Y3601272D01*
X1027435Y3609782D01*
X1022615Y3616997D01*
X1022614Y3616997D01*
X990549Y3649063D01*
X990893Y3649466D01*
X1001429Y3666659D01*
X1009146Y3685289D01*
X1013853Y3704897D01*
X1015436Y3725000D01*
X1013853Y3745103D01*
X1009146Y3764711D01*
X1001429Y3783341D01*
X990893Y3800534D01*
X977797Y3815868D01*
X962463Y3828964D01*
X945270Y3839500D01*
X926640Y3847217D01*
X907032Y3851924D01*
X886929Y3853506D01*
D02*
G37*
G36*
X1130079Y3344646D02*
X1107283D01*
Y3314960D01*
X1130079D01*
Y3344646D01*
D02*
G37*
G36*
X1091535D02*
X1068740D01*
Y3314960D01*
X1091535D01*
Y3344646D01*
D02*
G37*
G36*
X1192913Y3329541D02*
Y3303150D01*
X1219305D01*
X1219139Y3304412D01*
X1215612Y3312927D01*
X1210002Y3320238D01*
X1202690Y3325848D01*
X1194176Y3329375D01*
X1192913Y3329541D01*
D02*
G37*
G36*
X1177165D02*
X1175903Y3329375D01*
X1167388Y3325848D01*
X1160077Y3320238D01*
X1154467Y3312927D01*
X1150940Y3304412D01*
X1150774Y3303150D01*
X1177165D01*
Y3329541D01*
D02*
G37*
G36*
X759016Y3322008D02*
X677992D01*
Y3318421D01*
X623032D01*
X616058Y3317034D01*
X610145Y3313083D01*
X610145Y3313083D01*
X494563Y3197502D01*
X489540Y3202525D01*
X439207Y3152192D01*
X444231Y3147169D01*
X387727Y3090665D01*
X311338D01*
X310531Y3092613D01*
X304119Y3100969D01*
X295763Y3107381D01*
X286033Y3111411D01*
X275591Y3112786D01*
X265149Y3111411D01*
X255418Y3107381D01*
X247062Y3100969D01*
X240651Y3092613D01*
X236620Y3082883D01*
X235245Y3072441D01*
X236620Y3061999D01*
X240651Y3052268D01*
X244086Y3047791D01*
X241620Y3042791D01*
X231013D01*
X213754Y3060050D01*
X214561Y3061999D01*
X215936Y3072441D01*
X214561Y3082883D01*
X210531Y3092613D01*
X204119Y3100969D01*
X195763Y3107381D01*
X186033Y3111411D01*
X175591Y3112786D01*
X165149Y3111411D01*
X155418Y3107381D01*
X147062Y3100969D01*
X140651Y3092613D01*
X136620Y3082883D01*
X135245Y3072441D01*
X136620Y3061999D01*
X140651Y3052268D01*
X147062Y3043912D01*
X155418Y3037501D01*
X165149Y3033470D01*
X175591Y3032096D01*
X186033Y3033470D01*
X187981Y3034278D01*
X210578Y3011681D01*
X210578Y3011680D01*
X216490Y3007730D01*
X223465Y3006343D01*
X223465Y3006343D01*
X246287D01*
X247895Y3001608D01*
X247062Y3000969D01*
X240651Y2992613D01*
X236620Y2982883D01*
X235245Y2972441D01*
X236620Y2961999D01*
X240651Y2952268D01*
X247062Y2943912D01*
X255418Y2937501D01*
X265149Y2933470D01*
X275591Y2932096D01*
X286033Y2933470D01*
X295763Y2937501D01*
X304119Y2943912D01*
X310531Y2952268D01*
X314561Y2961999D01*
X315936Y2972441D01*
X314561Y2982883D01*
X310531Y2992613D01*
X304119Y3000969D01*
X303287Y3001608D01*
X304894Y3006343D01*
X474173D01*
X474173Y3006343D01*
X481147Y3007730D01*
X487060Y3011680D01*
X533389Y3058010D01*
X534082Y3057318D01*
X584415Y3107650D01*
X583722Y3108343D01*
X673373Y3197994D01*
X677992Y3196080D01*
Y3178386D01*
X730318D01*
X731303Y3177008D01*
X728732Y3172008D01*
X677992D01*
Y3154159D01*
X657232Y3133398D01*
X653281Y3127486D01*
X651894Y3120512D01*
X651894Y3120511D01*
Y2755079D01*
X651894Y2755079D01*
X653281Y2748105D01*
X657232Y2742192D01*
X891004Y2508420D01*
X889895Y2500000D01*
X891098Y2490863D01*
X894625Y2482349D01*
X900235Y2475038D01*
X907546Y2469428D01*
X916060Y2465901D01*
X925197Y2464698D01*
X934334Y2465901D01*
X942848Y2469428D01*
X950159Y2475038D01*
X955769Y2482349D01*
X959296Y2490863D01*
X960499Y2500000D01*
X959296Y2509137D01*
X955769Y2517651D01*
X950159Y2524962D01*
X942848Y2530572D01*
X934334Y2534099D01*
X925197Y2535302D01*
X916777Y2534193D01*
X688342Y2762628D01*
Y2928386D01*
X710630D01*
Y2950197D01*
Y2972008D01*
X688342D01*
Y2978386D01*
X759016D01*
Y3022008D01*
X688342D01*
Y3028386D01*
X759016D01*
Y3072008D01*
X688342D01*
Y3078386D01*
X759016D01*
Y3122008D01*
X708276D01*
X705705Y3127008D01*
X706690Y3128386D01*
X759016D01*
Y3146080D01*
X763635Y3147994D01*
X797721Y3113908D01*
Y2769686D01*
X797721Y2769685D01*
X799108Y2762711D01*
X803058Y2756799D01*
X968980Y2590877D01*
X968981Y839174D01*
X968980Y839173D01*
X970368Y832199D01*
X974318Y826287D01*
X1090774Y709831D01*
X1089966Y707883D01*
X1088592Y697441D01*
X1089966Y686999D01*
X1090681Y685273D01*
X1086443Y682441D01*
X851059Y917824D01*
Y1293543D01*
X851059Y1293543D01*
X849672Y1300517D01*
X845721Y1306430D01*
X567101Y1585050D01*
X567908Y1586999D01*
X569282Y1597441D01*
X567908Y1607883D01*
X563877Y1617613D01*
X557465Y1625969D01*
X549110Y1632381D01*
X539379Y1636411D01*
X528937Y1637786D01*
X518495Y1636411D01*
X508764Y1632381D01*
X500409Y1625969D01*
X493997Y1617613D01*
X489966Y1607883D01*
X488592Y1597441D01*
X489966Y1586999D01*
X493997Y1577268D01*
X500409Y1568912D01*
X508764Y1562501D01*
X518495Y1558470D01*
X528937Y1557096D01*
X539379Y1558470D01*
X541327Y1559277D01*
X814610Y1285995D01*
Y1044073D01*
X809991Y1042160D01*
X567101Y1285050D01*
X567908Y1286999D01*
X569282Y1297441D01*
X567908Y1307883D01*
X563877Y1317613D01*
X557465Y1325969D01*
X549110Y1332381D01*
X539379Y1336411D01*
X528937Y1337786D01*
X518495Y1336411D01*
X508764Y1332381D01*
X500409Y1325969D01*
X493997Y1317613D01*
X489966Y1307883D01*
X488592Y1297441D01*
X489966Y1286999D01*
X493997Y1277268D01*
X500409Y1268912D01*
X508764Y1262501D01*
X518495Y1258470D01*
X528937Y1257096D01*
X539379Y1258470D01*
X541327Y1259277D01*
X788862Y1011743D01*
Y463204D01*
X782124Y458033D01*
X776514Y450722D01*
X772987Y442208D01*
X771785Y433071D01*
X772987Y423934D01*
X776514Y415420D01*
X782124Y408109D01*
X789436Y402498D01*
X797950Y398972D01*
X801314Y398529D01*
X803106Y393250D01*
X572036Y162179D01*
X570088Y162986D01*
X559646Y164361D01*
X549203Y162986D01*
X539473Y158956D01*
X531117Y152544D01*
X524706Y144188D01*
X520675Y134458D01*
X519300Y124016D01*
X520675Y113574D01*
X524706Y103843D01*
X531117Y95487D01*
X539473Y89076D01*
X549203Y85045D01*
X559646Y83671D01*
X570088Y85045D01*
X579818Y89076D01*
X588174Y95487D01*
X594586Y103843D01*
X598616Y113574D01*
X599991Y124016D01*
X598616Y134458D01*
X597809Y136406D01*
X1040620Y579217D01*
X1093190D01*
X1093997Y577268D01*
X1100409Y568913D01*
X1108764Y562501D01*
X1118495Y558470D01*
X1128937Y557096D01*
X1139379Y558470D01*
X1149110Y562501D01*
X1157465Y568913D01*
X1163877Y577268D01*
X1167908Y586999D01*
X1169282Y597441D01*
X1167908Y607883D01*
X1163877Y617614D01*
X1157465Y625969D01*
X1156633Y626608D01*
X1158240Y631343D01*
X1251476D01*
X1251476Y631343D01*
X1258450Y632730D01*
X1264363Y636680D01*
X1267450Y639768D01*
X1417834D01*
X1417835Y639768D01*
X1419596Y640118D01*
X1479961D01*
Y720118D01*
X1399961D01*
Y676216D01*
X1259901D01*
X1252927Y674829D01*
X1247015Y670879D01*
X1247015Y670878D01*
X1243928Y667791D01*
X1162907D01*
X1160442Y672791D01*
X1163877Y677268D01*
X1167908Y686999D01*
X1169282Y697441D01*
X1167908Y707883D01*
X1163877Y717614D01*
X1157465Y725969D01*
X1149110Y732381D01*
X1139379Y736411D01*
X1128937Y737786D01*
X1118495Y736411D01*
X1116546Y735604D01*
X1005429Y846722D01*
X1005429Y2598425D01*
X1005429Y2598425D01*
X1004042Y2605399D01*
X1000091Y2611312D01*
X1000091Y2611312D01*
X834169Y2777234D01*
Y3121456D01*
X834169Y3121457D01*
X832782Y3128431D01*
X828831Y3134343D01*
X828831Y3134343D01*
X759016Y3204159D01*
Y3222008D01*
X708276D01*
X705705Y3227008D01*
X706690Y3228386D01*
X759016D01*
Y3272008D01*
X677992D01*
Y3254159D01*
X557949Y3134116D01*
X541042Y3151023D01*
X490709Y3100691D01*
X507616Y3083783D01*
X466624Y3042791D01*
X309561D01*
X307095Y3047791D01*
X310531Y3052268D01*
X311338Y3054217D01*
X395275D01*
X395276Y3054217D01*
X402250Y3055604D01*
X408162Y3059554D01*
X470004Y3121396D01*
X482580Y3108819D01*
X532913Y3159152D01*
X520336Y3171729D01*
X630580Y3281973D01*
X677992D01*
Y3278386D01*
X759016D01*
Y3322008D01*
D02*
G37*
G36*
X401575Y3294108D02*
Y3267716D01*
X427966D01*
X427800Y3268979D01*
X424273Y3277494D01*
X418663Y3284805D01*
X411352Y3290415D01*
X402838Y3293942D01*
X401575Y3294108D01*
D02*
G37*
G36*
X385827D02*
X384564Y3293942D01*
X376050Y3290415D01*
X368738Y3284805D01*
X363128Y3277494D01*
X359602Y3268979D01*
X359435Y3267716D01*
X385827D01*
Y3294108D01*
D02*
G37*
G36*
X1219305Y3287402D02*
X1192913D01*
Y3261010D01*
X1194176Y3261177D01*
X1202690Y3264703D01*
X1210002Y3270313D01*
X1215612Y3277625D01*
X1219139Y3286139D01*
X1219305Y3287402D01*
D02*
G37*
G36*
X1177165D02*
X1150774D01*
X1150940Y3286139D01*
X1154467Y3277625D01*
X1160077Y3270313D01*
X1167388Y3264703D01*
X1175903Y3261177D01*
X1177165Y3261010D01*
Y3287402D01*
D02*
G37*
G36*
X275591Y3312786D02*
X265149Y3311411D01*
X255418Y3307381D01*
X247062Y3300969D01*
X240651Y3292613D01*
X236620Y3282883D01*
X235245Y3272441D01*
X236620Y3261999D01*
X240651Y3252268D01*
X247062Y3243912D01*
X255418Y3237501D01*
X265149Y3233470D01*
X275591Y3232096D01*
X286033Y3233470D01*
X295763Y3237501D01*
X304119Y3243912D01*
X310531Y3252268D01*
X314561Y3261999D01*
X315936Y3272441D01*
X314561Y3282883D01*
X310531Y3292613D01*
X304119Y3300969D01*
X295763Y3307381D01*
X286033Y3311411D01*
X275591Y3312786D01*
D02*
G37*
G36*
X1476378Y3311211D02*
X1465936Y3309837D01*
X1456205Y3305806D01*
X1447850Y3299394D01*
X1441438Y3291039D01*
X1437408Y3281308D01*
X1436033Y3270866D01*
X1437408Y3260424D01*
X1441438Y3250693D01*
X1447850Y3242338D01*
X1456205Y3235926D01*
X1465936Y3231896D01*
X1476378Y3230521D01*
X1486820Y3231896D01*
X1496551Y3235926D01*
X1504906Y3242338D01*
X1511318Y3250693D01*
X1515349Y3260424D01*
X1516723Y3270866D01*
X1515349Y3281308D01*
X1511318Y3291039D01*
X1504906Y3299394D01*
X1496551Y3305806D01*
X1486820Y3309837D01*
X1476378Y3311211D01*
D02*
G37*
G36*
X427966Y3251968D02*
X401575D01*
Y3225577D01*
X402838Y3225743D01*
X411352Y3229270D01*
X418663Y3234880D01*
X424273Y3242191D01*
X427800Y3250706D01*
X427966Y3251968D01*
D02*
G37*
G36*
X385827D02*
X359435D01*
X359602Y3250706D01*
X363128Y3242191D01*
X368738Y3234880D01*
X376050Y3229270D01*
X384564Y3225743D01*
X385827Y3225577D01*
Y3251968D01*
D02*
G37*
G36*
X834646Y3246864D02*
Y3220472D01*
X861037D01*
X860871Y3221735D01*
X857344Y3230249D01*
X851734Y3237561D01*
X844423Y3243171D01*
X835909Y3246698D01*
X834646Y3246864D01*
D02*
G37*
G36*
X818898D02*
X817635Y3246698D01*
X809121Y3243171D01*
X801809Y3237561D01*
X796199Y3230249D01*
X792673Y3221735D01*
X792506Y3220472D01*
X818898D01*
Y3246864D01*
D02*
G37*
G36*
X283464Y3211749D02*
Y3180315D01*
X314899D01*
X314561Y3182883D01*
X310531Y3192613D01*
X304119Y3200969D01*
X295763Y3207381D01*
X286033Y3211411D01*
X283464Y3211749D01*
D02*
G37*
G36*
X267716D02*
X265149Y3211411D01*
X255418Y3207381D01*
X247062Y3200969D01*
X240651Y3192613D01*
X236620Y3182883D01*
X236282Y3180315D01*
X267716D01*
Y3211749D01*
D02*
G37*
G36*
X1484252Y3210175D02*
Y3178740D01*
X1515687D01*
X1515349Y3181308D01*
X1511318Y3191039D01*
X1504906Y3199394D01*
X1496551Y3205806D01*
X1486820Y3209837D01*
X1484252Y3210175D01*
D02*
G37*
G36*
X1468504D02*
X1465936Y3209837D01*
X1456205Y3205806D01*
X1447850Y3199394D01*
X1441438Y3191039D01*
X1437408Y3181308D01*
X1437069Y3178740D01*
X1468504D01*
Y3210175D01*
D02*
G37*
G36*
X861037Y3204724D02*
X834646D01*
Y3178333D01*
X835909Y3178499D01*
X844423Y3182026D01*
X851734Y3187636D01*
X857344Y3194947D01*
X860871Y3203462D01*
X861037Y3204724D01*
D02*
G37*
G36*
X818898D02*
X792506D01*
X792673Y3203462D01*
X796199Y3194947D01*
X801809Y3187636D01*
X809121Y3182026D01*
X817635Y3178499D01*
X818898Y3178333D01*
Y3204724D01*
D02*
G37*
G36*
X267716Y3164567D02*
X236282D01*
X236620Y3161999D01*
X240651Y3152268D01*
X247062Y3143912D01*
X255418Y3137501D01*
X265149Y3133470D01*
X267716Y3133132D01*
Y3164567D01*
D02*
G37*
G36*
X314899D02*
X283464D01*
Y3133132D01*
X286033Y3133470D01*
X295763Y3137501D01*
X304119Y3143912D01*
X310531Y3152268D01*
X314561Y3161999D01*
X314899Y3164567D01*
D02*
G37*
G36*
X175591Y3212786D02*
X165149Y3211411D01*
X155418Y3207381D01*
X147062Y3200969D01*
X140651Y3192613D01*
X136620Y3182883D01*
X135245Y3172441D01*
X136620Y3161999D01*
X140651Y3152268D01*
X147062Y3143912D01*
X155418Y3137501D01*
X165149Y3133470D01*
X175591Y3132096D01*
X186033Y3133470D01*
X195763Y3137501D01*
X204119Y3143912D01*
X210531Y3152268D01*
X214561Y3161999D01*
X215936Y3172441D01*
X214561Y3182883D01*
X210531Y3192613D01*
X204119Y3200969D01*
X195763Y3207381D01*
X186033Y3211411D01*
X175591Y3212786D01*
D02*
G37*
G36*
X1515687Y3162992D02*
X1484252D01*
Y3131557D01*
X1486820Y3131896D01*
X1496551Y3135926D01*
X1504906Y3142338D01*
X1511318Y3150693D01*
X1515349Y3160424D01*
X1515687Y3162992D01*
D02*
G37*
G36*
X1468504D02*
X1437069D01*
X1437408Y3160424D01*
X1441438Y3150693D01*
X1447850Y3142338D01*
X1456205Y3135926D01*
X1465936Y3131896D01*
X1468504Y3131557D01*
Y3162992D01*
D02*
G37*
G36*
X923228Y3122008D02*
X890591D01*
Y3108071D01*
X923228D01*
Y3122008D01*
D02*
G37*
G36*
X971614Y3092323D02*
X938976D01*
Y3078386D01*
X971614D01*
Y3092323D01*
D02*
G37*
G36*
X923228D02*
X890591D01*
Y3078386D01*
X923228D01*
Y3092323D01*
D02*
G37*
G36*
X971614Y3172008D02*
X890591D01*
Y3128386D01*
X933278D01*
X935039Y3128036D01*
X935040Y3128036D01*
X961865D01*
X962552Y3127008D01*
X959880Y3122008D01*
X938976D01*
Y3108071D01*
X971614D01*
Y3115175D01*
X976234Y3117088D01*
X1033941Y3059381D01*
Y3040615D01*
X1028941Y3039621D01*
X1028147Y3041537D01*
X1023705Y3047327D01*
X1017915Y3051769D01*
X1011811Y3054298D01*
Y3027559D01*
Y3000820D01*
X1017915Y3003349D01*
X1023705Y3007791D01*
X1028147Y3013581D01*
X1028941Y3015497D01*
X1033941Y3014503D01*
X1033941Y874213D01*
X1033941Y874212D01*
X1035328Y867238D01*
X1039279Y861326D01*
X1090774Y809831D01*
X1089966Y807883D01*
X1088592Y797441D01*
X1089966Y786999D01*
X1093997Y777268D01*
X1100409Y768913D01*
X1108764Y762501D01*
X1118495Y758470D01*
X1128937Y757096D01*
X1139379Y758470D01*
X1149110Y762501D01*
X1157465Y768913D01*
X1163877Y777268D01*
X1167908Y786999D01*
X1169282Y797441D01*
X1167908Y807883D01*
X1163877Y817614D01*
X1157465Y825969D01*
X1149110Y832381D01*
X1139379Y836411D01*
X1128937Y837786D01*
X1118495Y836411D01*
X1116546Y835604D01*
X1070390Y881761D01*
X1070389Y3066929D01*
X1070390Y3066929D01*
X1069002Y3073903D01*
X1065052Y3079816D01*
X1065052Y3079816D01*
X985721Y3159146D01*
X979809Y3163097D01*
X972835Y3164484D01*
X971614Y3169225D01*
Y3172008D01*
D02*
G37*
G36*
X94488Y3061825D02*
Y3035433D01*
X120880D01*
X120713Y3036696D01*
X117187Y3045210D01*
X111576Y3052521D01*
X104265Y3058131D01*
X95751Y3061658D01*
X94488Y3061825D01*
D02*
G37*
G36*
X78740D02*
X77477Y3061658D01*
X68963Y3058131D01*
X61652Y3052521D01*
X56042Y3045210D01*
X52515Y3036696D01*
X52349Y3035433D01*
X78740D01*
Y3061825D01*
D02*
G37*
G36*
X971614Y3072008D02*
X890591D01*
Y3028386D01*
X969904D01*
X969904Y3028386D01*
X974536Y3027491D01*
X976555Y3023200D01*
X976934Y3020324D01*
X979727Y3013581D01*
X984169Y3007791D01*
X989959Y3003349D01*
X996063Y3000820D01*
Y3027559D01*
Y3054298D01*
X989959Y3051769D01*
X984169Y3047327D01*
X979727Y3041537D01*
X977648Y3036518D01*
X975444Y3032442D01*
X975443D01*
Y3032443D01*
X971625Y3032693D01*
X971614Y3032750D01*
X971614Y3033257D01*
Y3072008D01*
D02*
G37*
G36*
X120880Y3019685D02*
X94488D01*
Y2993294D01*
X95751Y2993460D01*
X104265Y2996987D01*
X111576Y3002597D01*
X117187Y3009908D01*
X120713Y3018422D01*
X120880Y3019685D01*
D02*
G37*
G36*
X78740D02*
X52349D01*
X52515Y3018422D01*
X56042Y3009908D01*
X61652Y3002597D01*
X68963Y2996987D01*
X77477Y2993460D01*
X78740Y2993294D01*
Y3019685D01*
D02*
G37*
G36*
X578740Y3018517D02*
Y2992126D01*
X605131D01*
X604965Y2993389D01*
X601438Y3001903D01*
X595828Y3009214D01*
X588517Y3014824D01*
X580003Y3018351D01*
X578740Y3018517D01*
D02*
G37*
G36*
X562992D02*
X561729Y3018351D01*
X553215Y3014824D01*
X545904Y3009214D01*
X540294Y3001903D01*
X536767Y2993389D01*
X536601Y2992126D01*
X562992D01*
Y3018517D01*
D02*
G37*
G36*
X971614Y3022008D02*
X890591D01*
Y2978386D01*
X971614D01*
Y3022008D01*
D02*
G37*
G36*
X759016Y2972008D02*
X726378D01*
Y2958071D01*
X759016D01*
Y2972008D01*
D02*
G37*
G36*
X1295276Y2979147D02*
Y2952756D01*
X1321667D01*
X1321501Y2954019D01*
X1317974Y2962533D01*
X1312364Y2969844D01*
X1305053Y2975454D01*
X1296538Y2978981D01*
X1295276Y2979147D01*
D02*
G37*
G36*
X1279528D02*
X1278265Y2978981D01*
X1269751Y2975454D01*
X1262439Y2969844D01*
X1256829Y2962533D01*
X1253303Y2954019D01*
X1253136Y2952756D01*
X1279528D01*
Y2979147D01*
D02*
G37*
G36*
X605131Y2976378D02*
X578740D01*
Y2949987D01*
X580003Y2950153D01*
X588517Y2953680D01*
X595828Y2959290D01*
X601438Y2966601D01*
X604965Y2975115D01*
X605131Y2976378D01*
D02*
G37*
G36*
X562992D02*
X536601D01*
X536767Y2975115D01*
X540294Y2966601D01*
X545904Y2959290D01*
X553215Y2953680D01*
X561729Y2950153D01*
X562992Y2949987D01*
Y2976378D01*
D02*
G37*
G36*
X175591Y3012786D02*
X165149Y3011411D01*
X155418Y3007381D01*
X147062Y3000969D01*
X140651Y2992613D01*
X136620Y2982883D01*
X135245Y2972441D01*
X136620Y2961999D01*
X140651Y2952268D01*
X147062Y2943912D01*
X155418Y2937501D01*
X165149Y2933470D01*
X175591Y2932096D01*
X186033Y2933470D01*
X195763Y2937501D01*
X204119Y2943912D01*
X210531Y2952268D01*
X214561Y2961999D01*
X215936Y2972441D01*
X214561Y2982883D01*
X210531Y2992613D01*
X204119Y3000969D01*
X195763Y3007381D01*
X186033Y3011411D01*
X175591Y3012786D01*
D02*
G37*
G36*
X1476378Y3011211D02*
X1465936Y3009837D01*
X1456205Y3005806D01*
X1447850Y2999394D01*
X1441438Y2991039D01*
X1437408Y2981308D01*
X1436033Y2970866D01*
X1437408Y2960424D01*
X1441438Y2950693D01*
X1447850Y2942338D01*
X1456205Y2935926D01*
X1465936Y2931896D01*
X1476378Y2930521D01*
X1486820Y2931896D01*
X1496551Y2935926D01*
X1504906Y2942338D01*
X1511318Y2950693D01*
X1515349Y2960424D01*
X1516723Y2970866D01*
X1515349Y2981308D01*
X1511318Y2991039D01*
X1504906Y2999394D01*
X1496551Y3005806D01*
X1486820Y3009837D01*
X1476378Y3011211D01*
D02*
G37*
G36*
X1376378D02*
X1365936Y3009837D01*
X1356205Y3005806D01*
X1347850Y2999394D01*
X1341438Y2991039D01*
X1337408Y2981308D01*
X1336033Y2970866D01*
X1337408Y2960424D01*
X1341438Y2950693D01*
X1347850Y2942338D01*
X1356205Y2935926D01*
X1365936Y2931896D01*
X1376378Y2930521D01*
X1386820Y2931896D01*
X1396551Y2935926D01*
X1404906Y2942338D01*
X1411318Y2950693D01*
X1415349Y2960424D01*
X1416723Y2970866D01*
X1415349Y2981308D01*
X1411318Y2991039D01*
X1404906Y2999394D01*
X1396551Y3005806D01*
X1386820Y3009837D01*
X1376378Y3011211D01*
D02*
G37*
G36*
X971614Y2972008D02*
X890591D01*
Y2928386D01*
X971614D01*
Y2972008D01*
D02*
G37*
G36*
X759016Y2942323D02*
X726378D01*
Y2928386D01*
X759016D01*
Y2942323D01*
D02*
G37*
G36*
X1321667Y2937008D02*
X1295276D01*
Y2910617D01*
X1296538Y2910783D01*
X1305053Y2914309D01*
X1312364Y2919920D01*
X1317974Y2927231D01*
X1321501Y2935745D01*
X1321667Y2937008D01*
D02*
G37*
G36*
X1279528D02*
X1253136D01*
X1253303Y2935745D01*
X1256829Y2927231D01*
X1262439Y2919920D01*
X1269751Y2914309D01*
X1278265Y2910783D01*
X1279528Y2910617D01*
Y2937008D01*
D02*
G37*
G36*
X744095Y2912218D02*
Y2885827D01*
X770486D01*
X770320Y2887090D01*
X766793Y2895604D01*
X761183Y2902915D01*
X753871Y2908525D01*
X745357Y2912052D01*
X744095Y2912218D01*
D02*
G37*
G36*
X728346D02*
X727084Y2912052D01*
X718569Y2908525D01*
X711258Y2902915D01*
X705648Y2895604D01*
X702121Y2887090D01*
X701955Y2885827D01*
X728346D01*
Y2912218D01*
D02*
G37*
G36*
X770486Y2870079D02*
X744095D01*
Y2843687D01*
X745357Y2843854D01*
X753871Y2847380D01*
X761183Y2852990D01*
X766793Y2860302D01*
X770320Y2868816D01*
X770486Y2870079D01*
D02*
G37*
G36*
X728346D02*
X701955D01*
X702121Y2868816D01*
X705648Y2860302D01*
X711258Y2852990D01*
X718569Y2847380D01*
X727084Y2843854D01*
X728346Y2843687D01*
Y2870079D01*
D02*
G37*
G36*
X275591Y2912786D02*
X265149Y2911411D01*
X255418Y2907381D01*
X247062Y2900969D01*
X240651Y2892613D01*
X236620Y2882883D01*
X235245Y2872441D01*
X236620Y2861999D01*
X240651Y2852268D01*
X247062Y2843912D01*
X255418Y2837501D01*
X265149Y2833470D01*
X275591Y2832096D01*
X286033Y2833470D01*
X295763Y2837501D01*
X304119Y2843912D01*
X310531Y2852268D01*
X314561Y2861999D01*
X315936Y2872441D01*
X314561Y2882883D01*
X310531Y2892613D01*
X304119Y2900969D01*
X295763Y2907381D01*
X286033Y2911411D01*
X275591Y2912786D01*
D02*
G37*
G36*
X175591D02*
X165149Y2911411D01*
X155418Y2907381D01*
X147062Y2900969D01*
X140651Y2892613D01*
X136620Y2882883D01*
X135245Y2872441D01*
X136620Y2861999D01*
X140651Y2852268D01*
X147062Y2843912D01*
X155418Y2837501D01*
X165149Y2833470D01*
X175591Y2832096D01*
X186033Y2833470D01*
X195763Y2837501D01*
X204119Y2843912D01*
X210531Y2852268D01*
X214561Y2861999D01*
X215936Y2872441D01*
X214561Y2882883D01*
X210531Y2892613D01*
X204119Y2900969D01*
X195763Y2907381D01*
X186033Y2911411D01*
X175591Y2912786D01*
D02*
G37*
G36*
X1476378Y2911211D02*
X1465936Y2909837D01*
X1456205Y2905806D01*
X1447850Y2899394D01*
X1441438Y2891039D01*
X1437408Y2881308D01*
X1436033Y2870866D01*
X1437408Y2860424D01*
X1441438Y2850693D01*
X1447850Y2842338D01*
X1456205Y2835926D01*
X1465936Y2831896D01*
X1476378Y2830521D01*
X1486820Y2831896D01*
X1496551Y2835926D01*
X1504906Y2842338D01*
X1511318Y2850693D01*
X1515349Y2860424D01*
X1516723Y2870866D01*
X1515349Y2881308D01*
X1511318Y2891039D01*
X1504906Y2899394D01*
X1496551Y2905806D01*
X1486820Y2909837D01*
X1476378Y2911211D01*
D02*
G37*
G36*
X1376378D02*
X1365936Y2909837D01*
X1356205Y2905806D01*
X1347850Y2899394D01*
X1341438Y2891039D01*
X1337408Y2881308D01*
X1336033Y2870866D01*
X1337408Y2860424D01*
X1341438Y2850693D01*
X1347850Y2842338D01*
X1356205Y2835926D01*
X1365936Y2831896D01*
X1376378Y2830521D01*
X1386820Y2831896D01*
X1396551Y2835926D01*
X1404906Y2842338D01*
X1411318Y2850693D01*
X1415349Y2860424D01*
X1416723Y2870866D01*
X1415349Y2881308D01*
X1411318Y2891039D01*
X1404906Y2899394D01*
X1396551Y2905806D01*
X1386820Y2909837D01*
X1376378Y2911211D01*
D02*
G37*
G36*
X484252Y2833478D02*
Y2807087D01*
X510643D01*
X510477Y2808349D01*
X506950Y2816864D01*
X501340Y2824175D01*
X494029Y2829785D01*
X485515Y2833312D01*
X484252Y2833478D01*
D02*
G37*
G36*
X468504D02*
X467241Y2833312D01*
X458727Y2829785D01*
X451416Y2824175D01*
X445806Y2816864D01*
X442279Y2808349D01*
X442113Y2807087D01*
X468504D01*
Y2833478D01*
D02*
G37*
G36*
X1354331Y2813793D02*
Y2787402D01*
X1380722D01*
X1380556Y2788664D01*
X1377029Y2797179D01*
X1371419Y2804490D01*
X1364108Y2810100D01*
X1355593Y2813627D01*
X1354331Y2813793D01*
D02*
G37*
G36*
X1338583D02*
X1337320Y2813627D01*
X1328806Y2810100D01*
X1321494Y2804490D01*
X1315884Y2797179D01*
X1312358Y2788664D01*
X1312191Y2787402D01*
X1338583D01*
Y2813793D01*
D02*
G37*
G36*
X968504Y2809856D02*
Y2783465D01*
X994895D01*
X994729Y2784727D01*
X991202Y2793242D01*
X985592Y2800553D01*
X978281Y2806163D01*
X969767Y2809690D01*
X968504Y2809856D01*
D02*
G37*
G36*
X952756D02*
X951493Y2809690D01*
X942979Y2806163D01*
X935668Y2800553D01*
X930058Y2793242D01*
X926531Y2784727D01*
X926365Y2783465D01*
X952756D01*
Y2809856D01*
D02*
G37*
G36*
X510643Y2791339D02*
X484252D01*
Y2764947D01*
X485515Y2765113D01*
X494029Y2768640D01*
X501340Y2774250D01*
X506950Y2781562D01*
X510477Y2790076D01*
X510643Y2791339D01*
D02*
G37*
G36*
X468504D02*
X442113D01*
X442279Y2790076D01*
X445806Y2781562D01*
X451416Y2774250D01*
X458727Y2768640D01*
X467241Y2765113D01*
X468504Y2764947D01*
Y2791339D01*
D02*
G37*
G36*
X1380722Y2771654D02*
X1354331D01*
Y2745262D01*
X1355593Y2745428D01*
X1364108Y2748955D01*
X1371419Y2754565D01*
X1377029Y2761877D01*
X1380556Y2770391D01*
X1380722Y2771654D01*
D02*
G37*
G36*
X1338583D02*
X1312191D01*
X1312358Y2770391D01*
X1315884Y2761877D01*
X1321494Y2754565D01*
X1328806Y2748955D01*
X1337320Y2745428D01*
X1338583Y2745262D01*
Y2771654D01*
D02*
G37*
G36*
X994895Y2767717D02*
X968504D01*
Y2741325D01*
X969767Y2741492D01*
X978281Y2745018D01*
X985592Y2750628D01*
X991202Y2757940D01*
X994729Y2766454D01*
X994895Y2767717D01*
D02*
G37*
G36*
X952756D02*
X926365D01*
X926531Y2766454D01*
X930058Y2757940D01*
X935668Y2750628D01*
X942979Y2745018D01*
X951493Y2741492D01*
X952756Y2741325D01*
Y2767717D01*
D02*
G37*
G36*
X251969Y2758675D02*
Y2732283D01*
X278360D01*
X278194Y2733546D01*
X274667Y2742060D01*
X269057Y2749372D01*
X261745Y2754982D01*
X253231Y2758508D01*
X251969Y2758675D01*
D02*
G37*
G36*
X236220D02*
X234958Y2758508D01*
X226444Y2754982D01*
X219132Y2749372D01*
X213522Y2742060D01*
X209995Y2733546D01*
X209829Y2732283D01*
X236220D01*
Y2758675D01*
D02*
G37*
G36*
X1204232Y2769948D02*
X1195096Y2768745D01*
X1186581Y2765218D01*
X1179270Y2759608D01*
X1173660Y2752297D01*
X1170133Y2743782D01*
X1168930Y2734646D01*
X1169379Y2731242D01*
X1163030Y2724893D01*
X1158041Y2725220D01*
X1157465Y2725969D01*
X1149110Y2732381D01*
X1139379Y2736411D01*
X1128937Y2737786D01*
X1118495Y2736411D01*
X1108764Y2732381D01*
X1100409Y2725969D01*
X1093997Y2717613D01*
X1089966Y2707883D01*
X1088592Y2697441D01*
X1089966Y2686999D01*
X1093997Y2677268D01*
X1100409Y2668912D01*
X1108764Y2662501D01*
X1118495Y2658470D01*
X1128937Y2657096D01*
X1139379Y2658470D01*
X1149110Y2662501D01*
X1157465Y2668912D01*
X1162065Y2674907D01*
X1166732D01*
X1166732Y2674907D01*
X1175243Y2676600D01*
X1182457Y2681421D01*
X1182457Y2681421D01*
X1200828Y2699792D01*
X1204232Y2699344D01*
X1207637Y2699792D01*
X1226007Y2681421D01*
X1226007Y2681421D01*
X1233222Y2676600D01*
X1241732Y2674907D01*
X1241733Y2674907D01*
X1248858D01*
Y2659291D01*
X1310197D01*
Y2734409D01*
X1248858D01*
Y2728002D01*
X1244239Y2726089D01*
X1239086Y2731242D01*
X1239534Y2734646D01*
X1238332Y2743782D01*
X1234805Y2752297D01*
X1229195Y2759608D01*
X1221883Y2765218D01*
X1213369Y2768745D01*
X1204232Y2769948D01*
D02*
G37*
G36*
X536811Y2736749D02*
Y2705315D01*
X568246D01*
X567908Y2707883D01*
X563877Y2717613D01*
X557465Y2725969D01*
X549110Y2732381D01*
X539379Y2736411D01*
X536811Y2736749D01*
D02*
G37*
G36*
X521063D02*
X518495Y2736411D01*
X508764Y2732381D01*
X500409Y2725969D01*
X493997Y2717613D01*
X489966Y2707883D01*
X489628Y2705315D01*
X521063D01*
Y2736749D01*
D02*
G37*
G36*
X1383032Y2734409D02*
X1360236D01*
Y2704724D01*
X1383032D01*
Y2734409D01*
D02*
G37*
G36*
X1344488D02*
X1321693D01*
Y2704724D01*
X1344488D01*
Y2734409D01*
D02*
G37*
G36*
X278360Y2716535D02*
X251969D01*
Y2690144D01*
X253231Y2690310D01*
X261745Y2693837D01*
X269057Y2699447D01*
X274667Y2706758D01*
X278194Y2715273D01*
X278360Y2716535D01*
D02*
G37*
G36*
X236220D02*
X209829D01*
X209995Y2715273D01*
X213522Y2706758D01*
X219132Y2699447D01*
X226444Y2693837D01*
X234958Y2690310D01*
X236220Y2690144D01*
Y2716535D01*
D02*
G37*
G36*
X421260Y2695683D02*
Y2669291D01*
X447651D01*
X447485Y2670554D01*
X443958Y2679068D01*
X438348Y2686380D01*
X431037Y2691990D01*
X422523Y2695516D01*
X421260Y2695683D01*
D02*
G37*
G36*
X405512D02*
X404249Y2695516D01*
X395735Y2691990D01*
X388423Y2686380D01*
X382813Y2679068D01*
X379287Y2670554D01*
X379120Y2669291D01*
X405512D01*
Y2695683D01*
D02*
G37*
G36*
X1383032Y2688976D02*
X1360236D01*
Y2659291D01*
X1383032D01*
Y2688976D01*
D02*
G37*
G36*
X1344488D02*
X1321693D01*
Y2659291D01*
X1344488D01*
Y2688976D01*
D02*
G37*
G36*
X568246Y2689567D02*
X536811D01*
Y2658132D01*
X539379Y2658470D01*
X549110Y2662501D01*
X557465Y2668912D01*
X563877Y2677268D01*
X567908Y2686999D01*
X568246Y2689567D01*
D02*
G37*
G36*
X521063D02*
X489628D01*
X489966Y2686999D01*
X493997Y2677268D01*
X500409Y2668912D01*
X508764Y2662501D01*
X518495Y2658470D01*
X521063Y2658132D01*
Y2689567D01*
D02*
G37*
G36*
X1444882Y2683872D02*
Y2657480D01*
X1471273D01*
X1471107Y2658743D01*
X1467580Y2667257D01*
X1461970Y2674569D01*
X1454659Y2680179D01*
X1446145Y2683705D01*
X1444882Y2683872D01*
D02*
G37*
G36*
X1429134D02*
X1427871Y2683705D01*
X1419357Y2680179D01*
X1412046Y2674569D01*
X1406436Y2667257D01*
X1402909Y2658743D01*
X1402743Y2657480D01*
X1429134D01*
Y2683872D01*
D02*
G37*
G36*
X447651Y2653543D02*
X421260D01*
Y2627152D01*
X422523Y2627318D01*
X431037Y2630845D01*
X438348Y2636455D01*
X443958Y2643766D01*
X447485Y2652280D01*
X447651Y2653543D01*
D02*
G37*
G36*
X405512D02*
X379120D01*
X379287Y2652280D01*
X382813Y2643766D01*
X388423Y2636455D01*
X395735Y2630845D01*
X404249Y2627318D01*
X405512Y2627152D01*
Y2653543D01*
D02*
G37*
G36*
X1471273Y2641732D02*
X1444882D01*
Y2615341D01*
X1446145Y2615507D01*
X1454659Y2619034D01*
X1461970Y2624644D01*
X1467580Y2631955D01*
X1471107Y2640470D01*
X1471273Y2641732D01*
D02*
G37*
G36*
X1429134D02*
X1402743D01*
X1402909Y2640470D01*
X1406436Y2631955D01*
X1412046Y2624644D01*
X1419357Y2619034D01*
X1427871Y2615507D01*
X1429134Y2615341D01*
Y2641732D01*
D02*
G37*
G36*
X1383032Y2634016D02*
X1360236D01*
Y2606299D01*
X1383032D01*
Y2634016D01*
D02*
G37*
G36*
X692913Y2632691D02*
Y2606299D01*
X719305D01*
X719139Y2607562D01*
X715612Y2616076D01*
X710002Y2623387D01*
X702690Y2628998D01*
X694176Y2632524D01*
X692913Y2632691D01*
D02*
G37*
G36*
X677165D02*
X675903Y2632524D01*
X667388Y2628998D01*
X660077Y2623387D01*
X654467Y2616076D01*
X650940Y2607562D01*
X650774Y2606299D01*
X677165D01*
Y2632691D01*
D02*
G37*
G36*
X1344488Y2634016D02*
X1321693D01*
Y2606299D01*
X1344488D01*
Y2634016D01*
D02*
G37*
G36*
X719305Y2590551D02*
X692913D01*
Y2564160D01*
X694176Y2564326D01*
X702690Y2567853D01*
X710002Y2573463D01*
X715612Y2580774D01*
X719139Y2589288D01*
X719305Y2590551D01*
D02*
G37*
G36*
X677165D02*
X650774D01*
X650940Y2589288D01*
X654467Y2580774D01*
X660077Y2573463D01*
X667388Y2567853D01*
X675903Y2564326D01*
X677165Y2564160D01*
Y2590551D01*
D02*
G37*
G36*
X1383032D02*
X1360236D01*
Y2562835D01*
X1383032D01*
Y2590551D01*
D02*
G37*
G36*
X1344488D02*
X1321693D01*
Y2562835D01*
X1344488D01*
Y2590551D01*
D02*
G37*
G36*
X1128937Y2637786D02*
X1118495Y2636411D01*
X1108764Y2632381D01*
X1100409Y2625969D01*
X1093997Y2617613D01*
X1089966Y2607883D01*
X1088592Y2597441D01*
X1089966Y2586999D01*
X1093997Y2577268D01*
X1100409Y2568912D01*
X1108764Y2562501D01*
X1118495Y2558470D01*
X1128937Y2557096D01*
X1139379Y2558470D01*
X1149110Y2562501D01*
X1157465Y2568912D01*
X1163877Y2577268D01*
X1164684Y2579217D01*
X1248858D01*
Y2562835D01*
X1310197D01*
Y2634016D01*
X1248858D01*
Y2615665D01*
X1164684D01*
X1163877Y2617613D01*
X1157465Y2625969D01*
X1149110Y2632381D01*
X1139379Y2636411D01*
X1128937Y2637786D01*
D02*
G37*
G36*
X528937D02*
X518495Y2636411D01*
X508764Y2632381D01*
X500409Y2625969D01*
X493997Y2617613D01*
X489966Y2607883D01*
X488592Y2597441D01*
X489966Y2586999D01*
X493997Y2577268D01*
X500409Y2568912D01*
X508764Y2562501D01*
X518495Y2558470D01*
X528937Y2557096D01*
X539379Y2558470D01*
X549110Y2562501D01*
X557465Y2568912D01*
X563877Y2577268D01*
X567908Y2586999D01*
X569282Y2597441D01*
X567908Y2607883D01*
X563877Y2617613D01*
X557465Y2625969D01*
X549110Y2632381D01*
X539379Y2636411D01*
X528937Y2637786D01*
D02*
G37*
G36*
X1342520Y2546076D02*
Y2519685D01*
X1368911D01*
X1368745Y2520948D01*
X1365218Y2529462D01*
X1359608Y2536773D01*
X1352297Y2542383D01*
X1343783Y2545910D01*
X1342520Y2546076D01*
D02*
G37*
G36*
X1326772D02*
X1325509Y2545910D01*
X1316995Y2542383D01*
X1309683Y2536773D01*
X1304073Y2529462D01*
X1300547Y2520948D01*
X1300380Y2519685D01*
X1326772D01*
Y2546076D01*
D02*
G37*
G36*
X1368911Y2503937D02*
X1342520D01*
Y2477546D01*
X1343783Y2477712D01*
X1352297Y2481239D01*
X1359608Y2486849D01*
X1365218Y2494160D01*
X1368745Y2502674D01*
X1368911Y2503937D01*
D02*
G37*
G36*
X1326772D02*
X1300380D01*
X1300547Y2502674D01*
X1304073Y2494160D01*
X1309683Y2486849D01*
X1316995Y2481239D01*
X1325509Y2477712D01*
X1326772Y2477546D01*
Y2503937D01*
D02*
G37*
G36*
X1128937Y2537786D02*
X1118495Y2536411D01*
X1108764Y2532381D01*
X1100409Y2525969D01*
X1093997Y2517613D01*
X1089966Y2507883D01*
X1088592Y2497441D01*
X1089966Y2486999D01*
X1093997Y2477268D01*
X1100409Y2468912D01*
X1108764Y2462501D01*
X1118495Y2458470D01*
X1128937Y2457096D01*
X1139379Y2458470D01*
X1149110Y2462501D01*
X1157465Y2468912D01*
X1163877Y2477268D01*
X1167908Y2486999D01*
X1169282Y2497441D01*
X1167908Y2507883D01*
X1163877Y2517613D01*
X1157465Y2525969D01*
X1149110Y2532381D01*
X1139379Y2536411D01*
X1128937Y2537786D01*
D02*
G37*
G36*
X528937D02*
X518495Y2536411D01*
X508764Y2532381D01*
X500409Y2525969D01*
X493997Y2517613D01*
X489966Y2507883D01*
X488592Y2497441D01*
X489966Y2486999D01*
X493997Y2477268D01*
X500409Y2468912D01*
X508764Y2462501D01*
X518495Y2458470D01*
X528937Y2457096D01*
X539379Y2458470D01*
X549110Y2462501D01*
X557465Y2468912D01*
X563877Y2477268D01*
X567908Y2486999D01*
X569282Y2497441D01*
X567908Y2507883D01*
X563877Y2517613D01*
X557465Y2525969D01*
X549110Y2532381D01*
X539379Y2536411D01*
X528937Y2537786D01*
D02*
G37*
G36*
X688976Y2384659D02*
Y2358268D01*
X715368D01*
X715202Y2359530D01*
X711675Y2368045D01*
X706065Y2375356D01*
X698753Y2380966D01*
X690239Y2384493D01*
X688976Y2384659D01*
D02*
G37*
G36*
X673228D02*
X671966Y2384493D01*
X663451Y2380966D01*
X656140Y2375356D01*
X650530Y2368045D01*
X647003Y2359530D01*
X646837Y2358268D01*
X673228D01*
Y2384659D01*
D02*
G37*
G36*
X185039Y2515148D02*
X174597Y2513774D01*
X164867Y2509743D01*
X156511Y2503331D01*
X150099Y2494976D01*
X146069Y2485245D01*
X144694Y2474803D01*
X146069Y2464361D01*
X150099Y2454631D01*
X156511Y2446275D01*
X164867Y2439863D01*
X174597Y2435833D01*
X185039Y2434458D01*
X195482Y2435833D01*
X205212Y2439863D01*
X213568Y2446275D01*
X219979Y2454631D01*
X220786Y2456579D01*
X334577D01*
X406601Y2384555D01*
X406602Y2384554D01*
X412514Y2380604D01*
X419488Y2379217D01*
X419489Y2379217D01*
X493190D01*
X493997Y2377268D01*
X500409Y2368912D01*
X508764Y2362501D01*
X518495Y2358470D01*
X528937Y2357096D01*
X539379Y2358470D01*
X549110Y2362501D01*
X557465Y2368912D01*
X563877Y2377268D01*
X567908Y2386999D01*
X569282Y2397441D01*
X567908Y2407883D01*
X563877Y2417613D01*
X557465Y2425969D01*
X549110Y2432381D01*
X539379Y2436411D01*
X528937Y2437786D01*
X518495Y2436411D01*
X508764Y2432381D01*
X500409Y2425969D01*
X493997Y2417613D01*
X493190Y2415665D01*
X427037D01*
X355012Y2487690D01*
X349100Y2491640D01*
X342126Y2493027D01*
X342125Y2493027D01*
X220786D01*
X219979Y2494976D01*
X213568Y2503331D01*
X205212Y2509743D01*
X195482Y2513774D01*
X185039Y2515148D01*
D02*
G37*
G36*
X1128937Y2437786D02*
X1118495Y2436411D01*
X1108764Y2432381D01*
X1100409Y2425969D01*
X1093997Y2417613D01*
X1089966Y2407883D01*
X1088592Y2397441D01*
X1089966Y2386999D01*
X1093997Y2377268D01*
X1100409Y2368912D01*
X1108764Y2362501D01*
X1118495Y2358470D01*
X1128937Y2357096D01*
X1139379Y2358470D01*
X1149110Y2362501D01*
X1157465Y2368912D01*
X1163877Y2377268D01*
X1164684Y2379217D01*
X1418661D01*
Y2354095D01*
X1498661D01*
Y2434095D01*
X1418661D01*
Y2415665D01*
X1164684D01*
X1163877Y2417613D01*
X1157465Y2425969D01*
X1149110Y2432381D01*
X1139379Y2436411D01*
X1128937Y2437786D01*
D02*
G37*
G36*
X86614Y2364974D02*
Y2338583D01*
X113006D01*
X112839Y2339845D01*
X109313Y2348360D01*
X103703Y2355671D01*
X96391Y2361281D01*
X87877Y2364808D01*
X86614Y2364974D01*
D02*
G37*
G36*
X70866D02*
X69603Y2364808D01*
X61089Y2361281D01*
X53778Y2355671D01*
X48168Y2348360D01*
X44641Y2339845D01*
X44475Y2338583D01*
X70866D01*
Y2364974D01*
D02*
G37*
G36*
X715368Y2342520D02*
X688976D01*
Y2316128D01*
X690239Y2316295D01*
X698753Y2319821D01*
X706065Y2325431D01*
X711675Y2332743D01*
X715202Y2341257D01*
X715368Y2342520D01*
D02*
G37*
G36*
X673228D02*
X646837D01*
X647003Y2341257D01*
X650530Y2332743D01*
X656140Y2325431D01*
X663451Y2319821D01*
X671966Y2316295D01*
X673228Y2316128D01*
Y2342520D01*
D02*
G37*
G36*
X113006Y2322835D02*
X86614D01*
Y2296443D01*
X87877Y2296610D01*
X96391Y2300136D01*
X103703Y2305746D01*
X109313Y2313058D01*
X112839Y2321572D01*
X113006Y2322835D01*
D02*
G37*
G36*
X70866D02*
X44475D01*
X44641Y2321572D01*
X48168Y2313058D01*
X53778Y2305746D01*
X61089Y2300136D01*
X69603Y2296610D01*
X70866Y2296443D01*
Y2322835D01*
D02*
G37*
G36*
X185039Y2415148D02*
X174597Y2413774D01*
X164867Y2409743D01*
X156511Y2403331D01*
X150099Y2394976D01*
X146069Y2385245D01*
X144694Y2374803D01*
X146069Y2364361D01*
X150099Y2354631D01*
X156511Y2346275D01*
X164867Y2339863D01*
X174597Y2335833D01*
X185039Y2334458D01*
X195482Y2335833D01*
X205212Y2339863D01*
X213568Y2346275D01*
X219979Y2354631D01*
X220786Y2356579D01*
X315483D01*
X392625Y2279437D01*
X392625Y2279436D01*
X398538Y2275486D01*
X405512Y2274099D01*
X405512Y2274099D01*
X496429D01*
X500409Y2268912D01*
X508764Y2262501D01*
X518495Y2258470D01*
X528937Y2257096D01*
X539379Y2258470D01*
X549110Y2262501D01*
X557465Y2268912D01*
X563877Y2277268D01*
X567908Y2286999D01*
X569282Y2297441D01*
X567908Y2307883D01*
X563877Y2317613D01*
X557465Y2325969D01*
X549110Y2332381D01*
X539379Y2336411D01*
X528937Y2337786D01*
X518495Y2336411D01*
X508764Y2332381D01*
X500409Y2325969D01*
X493997Y2317613D01*
X491070Y2310547D01*
X413060D01*
X335918Y2387690D01*
X330006Y2391640D01*
X323031Y2393027D01*
X323031Y2393027D01*
X220786D01*
X219979Y2394976D01*
X213568Y2403331D01*
X205212Y2409743D01*
X195482Y2413774D01*
X185039Y2415148D01*
D02*
G37*
G36*
X1128937Y2337786D02*
X1118495Y2336411D01*
X1108764Y2332381D01*
X1100409Y2325969D01*
X1093997Y2317613D01*
X1089966Y2307883D01*
X1088592Y2297441D01*
X1089966Y2286999D01*
X1093997Y2277268D01*
X1100409Y2268912D01*
X1108764Y2262501D01*
X1118495Y2258470D01*
X1128937Y2257096D01*
X1139379Y2258470D01*
X1149110Y2262501D01*
X1157465Y2268912D01*
X1163877Y2277268D01*
X1163991Y2277544D01*
X1422221D01*
X1423721Y2273922D01*
X1430133Y2265566D01*
X1438489Y2259155D01*
X1448219Y2255124D01*
X1458661Y2253749D01*
X1469103Y2255124D01*
X1478834Y2259155D01*
X1487190Y2265566D01*
X1493601Y2273922D01*
X1497632Y2283652D01*
X1499007Y2294095D01*
X1497632Y2304537D01*
X1493601Y2314267D01*
X1487190Y2322623D01*
X1478834Y2329035D01*
X1469103Y2333065D01*
X1458661Y2334440D01*
X1448219Y2333065D01*
X1438489Y2329035D01*
X1430133Y2322623D01*
X1423721Y2314267D01*
X1423607Y2313992D01*
X1165377D01*
X1163877Y2317613D01*
X1157465Y2325969D01*
X1149110Y2332381D01*
X1139379Y2336411D01*
X1128937Y2337786D01*
D02*
G37*
G36*
X885827Y2231116D02*
Y2204724D01*
X912218D01*
X912052Y2205987D01*
X908525Y2214501D01*
X902915Y2221813D01*
X895604Y2227423D01*
X887090Y2230950D01*
X885827Y2231116D01*
D02*
G37*
G36*
X870079D02*
X868816Y2230950D01*
X860302Y2227423D01*
X852990Y2221813D01*
X847380Y2214501D01*
X843854Y2205987D01*
X843687Y2204724D01*
X870079D01*
Y2231116D01*
D02*
G37*
G36*
X912218Y2188976D02*
X885827D01*
Y2162585D01*
X887090Y2162751D01*
X895604Y2166278D01*
X902915Y2171888D01*
X908525Y2179199D01*
X912052Y2187714D01*
X912218Y2188976D01*
D02*
G37*
G36*
X870079D02*
X843687D01*
X843854Y2187714D01*
X847380Y2179199D01*
X852990Y2171888D01*
X860302Y2166278D01*
X868816Y2162751D01*
X870079Y2162585D01*
Y2188976D01*
D02*
G37*
G36*
X185039Y2315148D02*
X174597Y2313774D01*
X164867Y2309743D01*
X156511Y2303331D01*
X150099Y2294976D01*
X146069Y2285245D01*
X144694Y2274803D01*
X146069Y2264361D01*
X150099Y2254631D01*
X156511Y2246275D01*
X164867Y2239863D01*
X174597Y2235833D01*
X185039Y2234458D01*
X195482Y2235833D01*
X205212Y2239863D01*
X213568Y2246275D01*
X219979Y2254631D01*
X220786Y2256579D01*
X312136D01*
X384161Y2184555D01*
X384161Y2184554D01*
X390073Y2180604D01*
X397047Y2179217D01*
X397048Y2179217D01*
X493190D01*
X493997Y2177268D01*
X500409Y2168912D01*
X508764Y2162501D01*
X518495Y2158470D01*
X528937Y2157096D01*
X539379Y2158470D01*
X549110Y2162501D01*
X557465Y2168912D01*
X563877Y2177268D01*
X567908Y2186999D01*
X569282Y2197441D01*
X567908Y2207883D01*
X563877Y2217613D01*
X557465Y2225969D01*
X549110Y2232381D01*
X539379Y2236411D01*
X528937Y2237786D01*
X518495Y2236411D01*
X508764Y2232381D01*
X500409Y2225969D01*
X493997Y2217613D01*
X493190Y2215665D01*
X404596D01*
X332572Y2287690D01*
X326659Y2291640D01*
X319685Y2293027D01*
X319685Y2293027D01*
X220786D01*
X219979Y2294976D01*
X213568Y2303331D01*
X205212Y2309743D01*
X195482Y2313774D01*
X185039Y2315148D01*
D02*
G37*
G36*
X1128937Y2237786D02*
X1118495Y2236411D01*
X1108764Y2232381D01*
X1100409Y2225969D01*
X1093997Y2217613D01*
X1089966Y2207883D01*
X1088592Y2197441D01*
X1089966Y2186999D01*
X1093997Y2177268D01*
X1100409Y2168912D01*
X1108764Y2162501D01*
X1118495Y2158470D01*
X1128937Y2157096D01*
X1139379Y2158470D01*
X1149110Y2162501D01*
X1157465Y2168912D01*
X1163877Y2177268D01*
X1163991Y2177544D01*
X1422221D01*
X1423721Y2173922D01*
X1430133Y2165566D01*
X1438489Y2159155D01*
X1448219Y2155124D01*
X1458661Y2153749D01*
X1469103Y2155124D01*
X1478834Y2159155D01*
X1487190Y2165566D01*
X1493601Y2173922D01*
X1497632Y2183652D01*
X1499007Y2194095D01*
X1497632Y2204537D01*
X1493601Y2214267D01*
X1487190Y2222623D01*
X1478834Y2229035D01*
X1469103Y2233065D01*
X1458661Y2234440D01*
X1448219Y2233065D01*
X1438489Y2229035D01*
X1430133Y2222623D01*
X1423721Y2214267D01*
X1423607Y2213992D01*
X1165377D01*
X1163877Y2217613D01*
X1157465Y2225969D01*
X1149110Y2232381D01*
X1139379Y2236411D01*
X1128937Y2237786D01*
D02*
G37*
G36*
X185039Y2215148D02*
X174597Y2213774D01*
X164867Y2209743D01*
X156511Y2203331D01*
X150099Y2194976D01*
X146069Y2185245D01*
X144694Y2174803D01*
X146069Y2164361D01*
X150099Y2154631D01*
X156511Y2146275D01*
X164867Y2139863D01*
X174597Y2135833D01*
X185039Y2134458D01*
X195482Y2135833D01*
X205212Y2139863D01*
X213568Y2146275D01*
X219979Y2154631D01*
X220786Y2156579D01*
X314695D01*
X386720Y2084555D01*
X386720Y2084554D01*
X392632Y2080604D01*
X399606Y2079217D01*
X399607Y2079217D01*
X493190D01*
X493997Y2077268D01*
X500409Y2068912D01*
X508764Y2062501D01*
X518495Y2058470D01*
X528937Y2057096D01*
X539379Y2058470D01*
X549110Y2062501D01*
X557465Y2068912D01*
X563877Y2077268D01*
X567908Y2086999D01*
X569282Y2097441D01*
X567908Y2107883D01*
X563877Y2117613D01*
X557465Y2125969D01*
X549110Y2132381D01*
X539379Y2136411D01*
X528937Y2137786D01*
X518495Y2136411D01*
X508764Y2132381D01*
X500409Y2125969D01*
X493997Y2117613D01*
X493190Y2115665D01*
X407155D01*
X335131Y2187690D01*
X329218Y2191640D01*
X322244Y2193027D01*
X322244Y2193027D01*
X220786D01*
X219979Y2194976D01*
X213568Y2203331D01*
X205212Y2209743D01*
X195482Y2213774D01*
X185039Y2215148D01*
D02*
G37*
G36*
X1128937Y2137786D02*
X1118495Y2136411D01*
X1108764Y2132381D01*
X1100409Y2125969D01*
X1093997Y2117613D01*
X1089966Y2107883D01*
X1088592Y2097441D01*
X1089966Y2086999D01*
X1093997Y2077268D01*
X1100409Y2068912D01*
X1108764Y2062501D01*
X1118495Y2058470D01*
X1128937Y2057096D01*
X1139379Y2058470D01*
X1149110Y2062501D01*
X1157465Y2068912D01*
X1163877Y2077268D01*
X1163991Y2077544D01*
X1422221D01*
X1423721Y2073922D01*
X1430133Y2065566D01*
X1438489Y2059155D01*
X1448219Y2055124D01*
X1458661Y2053749D01*
X1469103Y2055124D01*
X1478834Y2059155D01*
X1487190Y2065566D01*
X1493601Y2073922D01*
X1497632Y2083652D01*
X1499007Y2094095D01*
X1497632Y2104537D01*
X1493601Y2114267D01*
X1487190Y2122623D01*
X1478834Y2129035D01*
X1469103Y2133065D01*
X1458661Y2134440D01*
X1448219Y2133065D01*
X1438489Y2129035D01*
X1430133Y2122623D01*
X1423721Y2114267D01*
X1423607Y2113992D01*
X1165377D01*
X1163877Y2117613D01*
X1157465Y2125969D01*
X1149110Y2132381D01*
X1139379Y2136411D01*
X1128937Y2137786D01*
D02*
G37*
G36*
X1354331Y2053950D02*
Y2027559D01*
X1380722D01*
X1380556Y2028822D01*
X1377029Y2037336D01*
X1371419Y2044647D01*
X1364108Y2050257D01*
X1355593Y2053784D01*
X1354331Y2053950D01*
D02*
G37*
G36*
X1338583D02*
X1337320Y2053784D01*
X1328806Y2050257D01*
X1321494Y2044647D01*
X1315884Y2037336D01*
X1312358Y2028822D01*
X1312191Y2027559D01*
X1338583D01*
Y2053950D01*
D02*
G37*
G36*
X685039Y2018517D02*
Y1992126D01*
X711431D01*
X711264Y1993389D01*
X707738Y2001903D01*
X702128Y2009214D01*
X694816Y2014824D01*
X686302Y2018351D01*
X685039Y2018517D01*
D02*
G37*
G36*
X669291D02*
X668029Y2018351D01*
X659514Y2014824D01*
X652203Y2009214D01*
X646593Y2001903D01*
X643066Y1993389D01*
X642900Y1992126D01*
X669291D01*
Y2018517D01*
D02*
G37*
G36*
X1380722Y2011811D02*
X1354331D01*
Y1985420D01*
X1355593Y1985586D01*
X1364108Y1989113D01*
X1371419Y1994723D01*
X1377029Y2002034D01*
X1380556Y2010548D01*
X1380722Y2011811D01*
D02*
G37*
G36*
X1338583D02*
X1312191D01*
X1312358Y2010548D01*
X1315884Y2002034D01*
X1321494Y1994723D01*
X1328806Y1989113D01*
X1337320Y1985586D01*
X1338583Y1985420D01*
Y2011811D01*
D02*
G37*
G36*
X185039Y2115148D02*
X174597Y2113774D01*
X164867Y2109743D01*
X156511Y2103331D01*
X150099Y2094976D01*
X146069Y2085245D01*
X144694Y2074803D01*
X146069Y2064361D01*
X150099Y2054631D01*
X156511Y2046275D01*
X164867Y2039863D01*
X174597Y2035833D01*
X185039Y2034458D01*
X195482Y2035833D01*
X205212Y2039863D01*
X213568Y2046275D01*
X219979Y2054631D01*
X220786Y2056579D01*
X307412D01*
X379436Y1984555D01*
X379436Y1984554D01*
X385349Y1980604D01*
X392323Y1979217D01*
X392323Y1979217D01*
X493190D01*
X493997Y1977268D01*
X500409Y1968912D01*
X508764Y1962501D01*
X518495Y1958470D01*
X528937Y1957096D01*
X539379Y1958470D01*
X549110Y1962501D01*
X557465Y1968912D01*
X563877Y1977268D01*
X567908Y1986999D01*
X569282Y1997441D01*
X567908Y2007883D01*
X563877Y2017613D01*
X557465Y2025969D01*
X549110Y2032381D01*
X539379Y2036411D01*
X528937Y2037786D01*
X518495Y2036411D01*
X508764Y2032381D01*
X500409Y2025969D01*
X493997Y2017613D01*
X493190Y2015665D01*
X399872D01*
X327847Y2087690D01*
X321935Y2091640D01*
X314961Y2093027D01*
X314960Y2093027D01*
X220786D01*
X219979Y2094976D01*
X213568Y2103331D01*
X205212Y2109743D01*
X195482Y2113774D01*
X185039Y2115148D01*
D02*
G37*
G36*
X1458661Y2034440D02*
X1448219Y2033065D01*
X1438489Y2029034D01*
X1430133Y2022623D01*
X1423721Y2014267D01*
X1419691Y2004537D01*
X1418316Y1994094D01*
X1419691Y1983652D01*
X1423721Y1973922D01*
X1430133Y1965566D01*
X1438489Y1959155D01*
X1448219Y1955124D01*
X1458661Y1953749D01*
X1469103Y1955124D01*
X1478834Y1959155D01*
X1487190Y1965566D01*
X1493601Y1973922D01*
X1497632Y1983652D01*
X1499007Y1994094D01*
X1497632Y2004537D01*
X1493601Y2014267D01*
X1487190Y2022623D01*
X1478834Y2029034D01*
X1469103Y2033065D01*
X1458661Y2034440D01*
D02*
G37*
G36*
X711431Y1976378D02*
X685039D01*
Y1949987D01*
X686302Y1950153D01*
X694816Y1953680D01*
X702128Y1959290D01*
X707738Y1966601D01*
X711264Y1975115D01*
X711431Y1976378D01*
D02*
G37*
G36*
X669291D02*
X642900D01*
X643066Y1975115D01*
X646593Y1966601D01*
X652203Y1959290D01*
X659514Y1953680D01*
X668029Y1950153D01*
X669291Y1949987D01*
Y1976378D01*
D02*
G37*
G36*
X901575Y1908281D02*
Y1881890D01*
X927966D01*
X927800Y1883152D01*
X924273Y1891667D01*
X918663Y1898978D01*
X911352Y1904588D01*
X902838Y1908115D01*
X901575Y1908281D01*
D02*
G37*
G36*
X885827D02*
X884564Y1908115D01*
X876050Y1904588D01*
X868739Y1898978D01*
X863128Y1891667D01*
X859602Y1883152D01*
X859435Y1881890D01*
X885827D01*
Y1908281D01*
D02*
G37*
G36*
X185039Y2015148D02*
X174597Y2013774D01*
X164867Y2009743D01*
X156511Y2003332D01*
X150099Y1994976D01*
X146069Y1985245D01*
X144694Y1974803D01*
X146069Y1964361D01*
X150099Y1954630D01*
X156511Y1946275D01*
X164867Y1939863D01*
X174597Y1935833D01*
X185039Y1934458D01*
X195482Y1935833D01*
X205212Y1939863D01*
X213568Y1946275D01*
X219979Y1954630D01*
X220786Y1956579D01*
X299144D01*
X371168Y1884555D01*
X371169Y1884554D01*
X377081Y1880604D01*
X384055Y1879217D01*
X384056Y1879217D01*
X493190D01*
X493997Y1877268D01*
X497432Y1872791D01*
X494967Y1867791D01*
X323336D01*
X303438Y1887690D01*
X297525Y1891640D01*
X290551Y1893027D01*
X290551Y1893027D01*
X220786D01*
X219979Y1894976D01*
X213568Y1903332D01*
X205212Y1909743D01*
X195482Y1913774D01*
X185039Y1915148D01*
X174597Y1913774D01*
X164867Y1909743D01*
X156511Y1903332D01*
X150099Y1894976D01*
X146069Y1885245D01*
X144694Y1874803D01*
X146069Y1864361D01*
X150099Y1854630D01*
X156511Y1846275D01*
X164867Y1839863D01*
X174597Y1835833D01*
X185039Y1834458D01*
X195482Y1835833D01*
X205212Y1839863D01*
X213568Y1846275D01*
X219979Y1854630D01*
X220786Y1856579D01*
X283002D01*
X302901Y1836681D01*
X302901Y1836680D01*
X308813Y1832730D01*
X315787Y1831343D01*
X315788Y1831343D01*
X499634D01*
X501241Y1826608D01*
X500409Y1825969D01*
X493997Y1817613D01*
X489966Y1807883D01*
X488592Y1797441D01*
X489966Y1786999D01*
X493997Y1777268D01*
X500409Y1768912D01*
X508764Y1762501D01*
X518495Y1758470D01*
X528937Y1757096D01*
X539379Y1758470D01*
X541327Y1759277D01*
X908941Y1391664D01*
Y1083724D01*
X906562Y1082738D01*
X904047Y1080809D01*
X899563Y1083020D01*
Y1345039D01*
X898176Y1352013D01*
X894225Y1357926D01*
X894225Y1357926D01*
X567101Y1685050D01*
X567908Y1686999D01*
X569282Y1697441D01*
X567908Y1707883D01*
X563877Y1717613D01*
X557465Y1725969D01*
X549110Y1732381D01*
X539379Y1736411D01*
X528937Y1737786D01*
X518495Y1736411D01*
X508764Y1732381D01*
X500409Y1725969D01*
X493997Y1717613D01*
X489966Y1707883D01*
X488592Y1697441D01*
X489966Y1686999D01*
X493997Y1677268D01*
X500409Y1668912D01*
X508764Y1662501D01*
X518495Y1658470D01*
X528937Y1657096D01*
X539379Y1658470D01*
X541327Y1659277D01*
X863114Y1337491D01*
Y949371D01*
X863114Y949370D01*
X864502Y942396D01*
X868452Y936484D01*
X891004Y913932D01*
X889895Y905512D01*
X891098Y896375D01*
X894625Y887861D01*
X900235Y880549D01*
X907546Y874939D01*
X916060Y871413D01*
X925197Y870210D01*
X934334Y871413D01*
X942848Y874939D01*
X950159Y880549D01*
X955769Y887861D01*
X959296Y896375D01*
X960499Y905512D01*
X959296Y914649D01*
X955769Y923163D01*
X950159Y930474D01*
X942848Y936084D01*
X934334Y939611D01*
X925197Y940814D01*
X916777Y939705D01*
X899563Y956919D01*
Y1021311D01*
X904047Y1023522D01*
X906562Y1021593D01*
X915076Y1018066D01*
X924213Y1016863D01*
X933349Y1018066D01*
X941864Y1021593D01*
X949175Y1027203D01*
X954785Y1034514D01*
X958312Y1043029D01*
X959515Y1052165D01*
X958312Y1061302D01*
X954785Y1069816D01*
X949175Y1077128D01*
X945390Y1080032D01*
Y1399212D01*
X945390Y1399213D01*
X944002Y1406187D01*
X940052Y1412099D01*
X645507Y1706643D01*
X648340Y1710882D01*
X655233Y1708027D01*
X664370Y1706824D01*
X673507Y1708027D01*
X682021Y1711554D01*
X689332Y1717164D01*
X694503Y1723902D01*
X787727D01*
X889035Y1622594D01*
X887926Y1614173D01*
X889129Y1605036D01*
X892656Y1596522D01*
X898266Y1589211D01*
X905577Y1583601D01*
X914091Y1580074D01*
X923228Y1578871D01*
X932365Y1580074D01*
X940879Y1583601D01*
X948191Y1589211D01*
X953801Y1596522D01*
X957327Y1605036D01*
X958530Y1614173D01*
X957327Y1623310D01*
X953801Y1631824D01*
X948191Y1639136D01*
X940879Y1644746D01*
X932365Y1648272D01*
X923228Y1649475D01*
X914808Y1648367D01*
X808162Y1755013D01*
X802250Y1758963D01*
X795275Y1760350D01*
X795275Y1760350D01*
X694503D01*
X689332Y1767088D01*
X682021Y1772698D01*
X673507Y1776225D01*
X664370Y1777428D01*
X655233Y1776225D01*
X646719Y1772698D01*
X639408Y1767088D01*
X633798Y1759777D01*
X630271Y1751263D01*
X629068Y1742126D01*
X630271Y1732989D01*
X633126Y1726096D01*
X628888Y1723263D01*
X567101Y1785050D01*
X567908Y1786999D01*
X569282Y1797441D01*
X567908Y1807883D01*
X563877Y1817613D01*
X557465Y1825969D01*
X556633Y1826608D01*
X558240Y1831343D01*
X759026D01*
X870972Y1719397D01*
X870972Y1719397D01*
X876884Y1715447D01*
X883858Y1714059D01*
X883859Y1714059D01*
X895064D01*
X900235Y1707321D01*
X907546Y1701711D01*
X916060Y1698184D01*
X925197Y1696982D01*
X934334Y1698184D01*
X942848Y1701711D01*
X950159Y1707321D01*
X955769Y1714632D01*
X959296Y1723147D01*
X960499Y1732284D01*
X959296Y1741420D01*
X955769Y1749935D01*
X950159Y1757246D01*
X942848Y1762856D01*
X934334Y1766383D01*
X925197Y1767585D01*
X916060Y1766383D01*
X907546Y1762856D01*
X900235Y1757246D01*
X895936Y1751644D01*
X890520Y1751395D01*
X779461Y1862453D01*
X773549Y1866404D01*
X766575Y1867791D01*
X766574Y1867791D01*
X562907D01*
X560442Y1872791D01*
X563877Y1877268D01*
X567908Y1886999D01*
X569282Y1897441D01*
X567908Y1907883D01*
X563877Y1917613D01*
X557465Y1925969D01*
X549110Y1932381D01*
X539379Y1936411D01*
X528937Y1937786D01*
X518495Y1936411D01*
X508764Y1932381D01*
X500409Y1925969D01*
X493997Y1917613D01*
X493190Y1915665D01*
X391604D01*
X319579Y1987690D01*
X313667Y1991640D01*
X306693Y1993027D01*
X306692Y1993027D01*
X220786D01*
X219979Y1994976D01*
X213568Y2003332D01*
X205212Y2009743D01*
X195482Y2013774D01*
X185039Y2015148D01*
D02*
G37*
G36*
X1458661Y1934440D02*
X1448219Y1933065D01*
X1438489Y1929034D01*
X1430133Y1922623D01*
X1423721Y1914267D01*
X1419691Y1904537D01*
X1418316Y1894094D01*
X1419691Y1883652D01*
X1423721Y1873922D01*
X1430133Y1865566D01*
X1438489Y1859155D01*
X1448219Y1855124D01*
X1458661Y1853749D01*
X1469103Y1855124D01*
X1478834Y1859155D01*
X1487190Y1865566D01*
X1493601Y1873922D01*
X1497632Y1883652D01*
X1499007Y1894094D01*
X1497632Y1904537D01*
X1493601Y1914267D01*
X1487190Y1922623D01*
X1478834Y1929034D01*
X1469103Y1933065D01*
X1458661Y1934440D01*
D02*
G37*
G36*
X927966Y1866142D02*
X901575D01*
Y1839750D01*
X902838Y1839917D01*
X911352Y1843443D01*
X918663Y1849053D01*
X924273Y1856365D01*
X927800Y1864879D01*
X927966Y1866142D01*
D02*
G37*
G36*
X885827D02*
X859435D01*
X859602Y1864879D01*
X863128Y1856365D01*
X868739Y1849053D01*
X876050Y1843443D01*
X884564Y1839917D01*
X885827Y1839750D01*
Y1866142D01*
D02*
G37*
G36*
X1260827Y1840420D02*
X1251690Y1839217D01*
X1243176Y1835690D01*
X1235864Y1830080D01*
X1230254Y1822769D01*
X1228902Y1819504D01*
X1162427D01*
X1157465Y1825969D01*
X1149110Y1832381D01*
X1139379Y1836411D01*
X1128937Y1837786D01*
X1118495Y1836411D01*
X1108764Y1832381D01*
X1100409Y1825969D01*
X1093997Y1817613D01*
X1089966Y1807883D01*
X1088592Y1797441D01*
X1089966Y1786999D01*
X1093997Y1777268D01*
X1100409Y1768912D01*
X1108764Y1762501D01*
X1118495Y1758470D01*
X1128937Y1757096D01*
X1139379Y1758470D01*
X1149110Y1762501D01*
X1157465Y1768912D01*
X1163877Y1777268D01*
X1166274Y1783055D01*
X1233640D01*
X1235864Y1780156D01*
X1243176Y1774546D01*
X1251690Y1771019D01*
X1260827Y1769816D01*
X1269964Y1771019D01*
X1278478Y1774546D01*
X1285789Y1780156D01*
X1291399Y1787467D01*
X1294926Y1795981D01*
X1296129Y1805118D01*
X1294926Y1814255D01*
X1291399Y1822769D01*
X1285789Y1830080D01*
X1278478Y1835690D01*
X1269964Y1839217D01*
X1260827Y1840420D01*
D02*
G37*
G36*
X1128937Y2037786D02*
X1118495Y2036411D01*
X1108764Y2032381D01*
X1100409Y2025969D01*
X1093997Y2017613D01*
X1089966Y2007883D01*
X1088592Y1997441D01*
X1089966Y1986999D01*
X1093997Y1977268D01*
X1100409Y1968912D01*
X1108764Y1962501D01*
X1118495Y1958470D01*
X1128937Y1957096D01*
X1139379Y1958470D01*
X1149110Y1962501D01*
X1157465Y1968912D01*
X1163877Y1977268D01*
X1164684Y1979217D01*
X1247766D01*
X1420498Y1806485D01*
X1419691Y1804537D01*
X1418316Y1794094D01*
X1419691Y1783652D01*
X1423721Y1773922D01*
X1430133Y1765566D01*
X1438489Y1759155D01*
X1448219Y1755124D01*
X1458661Y1753749D01*
X1469103Y1755124D01*
X1478834Y1759155D01*
X1487190Y1765566D01*
X1493601Y1773922D01*
X1497632Y1783652D01*
X1499007Y1794094D01*
X1497632Y1804537D01*
X1493601Y1814267D01*
X1487190Y1822623D01*
X1478834Y1829034D01*
X1469103Y1833065D01*
X1458661Y1834440D01*
X1448219Y1833065D01*
X1446271Y1832258D01*
X1268201Y2010327D01*
X1262289Y2014278D01*
X1255315Y2015665D01*
X1255314Y2015665D01*
X1164684D01*
X1163877Y2017613D01*
X1157465Y2025969D01*
X1149110Y2032381D01*
X1139379Y2036411D01*
X1128937Y2037786D01*
D02*
G37*
G36*
X225039Y1814803D02*
X145039D01*
Y1734803D01*
X225039D01*
Y1814803D01*
D02*
G37*
G36*
X1318898Y1780381D02*
X1309761Y1779178D01*
X1301247Y1775651D01*
X1293935Y1770041D01*
X1288325Y1762730D01*
X1284799Y1754216D01*
X1283596Y1745079D01*
X1284704Y1736658D01*
X1263711Y1715665D01*
X1164684D01*
X1163877Y1717613D01*
X1157465Y1725969D01*
X1149110Y1732381D01*
X1139379Y1736411D01*
X1128937Y1737786D01*
X1118495Y1736411D01*
X1108764Y1732381D01*
X1100409Y1725969D01*
X1093997Y1717613D01*
X1089966Y1707883D01*
X1088592Y1697441D01*
X1089966Y1686999D01*
X1093997Y1677268D01*
X1100409Y1668912D01*
X1108764Y1662501D01*
X1118495Y1658470D01*
X1128937Y1657096D01*
X1139379Y1658470D01*
X1149110Y1662501D01*
X1157465Y1668912D01*
X1163877Y1677268D01*
X1164684Y1679217D01*
X1271259D01*
X1271260Y1679217D01*
X1278234Y1680604D01*
X1284146Y1684554D01*
X1310477Y1710885D01*
X1318898Y1709777D01*
X1328034Y1710980D01*
X1336549Y1714506D01*
X1343860Y1720116D01*
X1349470Y1727428D01*
X1352997Y1735942D01*
X1354200Y1745079D01*
X1352997Y1754216D01*
X1349470Y1762730D01*
X1343860Y1770041D01*
X1336549Y1775651D01*
X1328034Y1779178D01*
X1318898Y1780381D01*
D02*
G37*
G36*
X224409Y1707494D02*
Y1681102D01*
X250801D01*
X250635Y1682365D01*
X247108Y1690879D01*
X241498Y1698191D01*
X234186Y1703801D01*
X225672Y1707327D01*
X224409Y1707494D01*
D02*
G37*
G36*
X208661D02*
X207399Y1707327D01*
X198884Y1703801D01*
X191573Y1698191D01*
X185963Y1690879D01*
X182436Y1682365D01*
X182270Y1681102D01*
X208661D01*
Y1707494D01*
D02*
G37*
G36*
X1128937Y1937786D02*
X1118495Y1936411D01*
X1108764Y1932381D01*
X1100409Y1925969D01*
X1093997Y1917613D01*
X1089966Y1907883D01*
X1088592Y1897441D01*
X1089966Y1886999D01*
X1093997Y1877268D01*
X1100409Y1868912D01*
X1108764Y1862501D01*
X1118495Y1858470D01*
X1128937Y1857096D01*
X1139379Y1858470D01*
X1149110Y1862501D01*
X1157465Y1868912D01*
X1163877Y1877268D01*
X1164684Y1879217D01*
X1247766D01*
X1420498Y1706485D01*
X1419691Y1704537D01*
X1418316Y1694094D01*
X1419691Y1683652D01*
X1423721Y1673922D01*
X1430133Y1665566D01*
X1438489Y1659155D01*
X1448219Y1655124D01*
X1458661Y1653749D01*
X1469103Y1655124D01*
X1478834Y1659155D01*
X1487190Y1665566D01*
X1493601Y1673922D01*
X1497632Y1683652D01*
X1499007Y1694094D01*
X1497632Y1704537D01*
X1493601Y1714267D01*
X1487190Y1722623D01*
X1478834Y1729034D01*
X1469103Y1733065D01*
X1458661Y1734440D01*
X1448219Y1733065D01*
X1446271Y1732258D01*
X1268201Y1910327D01*
X1262289Y1914278D01*
X1255315Y1915665D01*
X1255314Y1915665D01*
X1164684D01*
X1163877Y1917613D01*
X1157465Y1925969D01*
X1149110Y1932381D01*
X1139379Y1936411D01*
X1128937Y1937786D01*
D02*
G37*
G36*
X250801Y1665354D02*
X224409D01*
Y1638963D01*
X225672Y1639129D01*
X234186Y1642656D01*
X241498Y1648266D01*
X247108Y1655577D01*
X250635Y1664091D01*
X250801Y1665354D01*
D02*
G37*
G36*
X208661D02*
X182270D01*
X182436Y1664091D01*
X185963Y1655577D01*
X191573Y1648266D01*
X198884Y1642656D01*
X207399Y1639129D01*
X208661Y1638963D01*
Y1665354D01*
D02*
G37*
G36*
X826772Y1652376D02*
Y1625984D01*
X853163D01*
X852997Y1627247D01*
X849470Y1635761D01*
X843860Y1643072D01*
X836549Y1648683D01*
X828034Y1652209D01*
X826772Y1652376D01*
D02*
G37*
G36*
X811024D02*
X809761Y1652209D01*
X801247Y1648683D01*
X793935Y1643072D01*
X788325Y1635761D01*
X784798Y1627247D01*
X784632Y1625984D01*
X811024D01*
Y1652376D01*
D02*
G37*
G36*
X853163Y1610236D02*
X826772D01*
Y1583845D01*
X828034Y1584011D01*
X836549Y1587538D01*
X843860Y1593148D01*
X849470Y1600459D01*
X852997Y1608973D01*
X853163Y1610236D01*
D02*
G37*
G36*
X811024D02*
X784632D01*
X784798Y1608973D01*
X788325Y1600459D01*
X793935Y1593148D01*
X801247Y1587538D01*
X809761Y1584011D01*
X811024Y1583845D01*
Y1610236D01*
D02*
G37*
G36*
X1314961Y1593321D02*
Y1566929D01*
X1341352D01*
X1341186Y1568192D01*
X1337659Y1576706D01*
X1332049Y1584017D01*
X1324738Y1589628D01*
X1316223Y1593154D01*
X1314961Y1593321D01*
D02*
G37*
G36*
X1299213D02*
X1297950Y1593154D01*
X1289436Y1589628D01*
X1282124Y1584017D01*
X1276514Y1576706D01*
X1272987Y1568192D01*
X1272821Y1566929D01*
X1299213D01*
Y1593321D01*
D02*
G37*
G36*
X1128937Y1637786D02*
X1118495Y1636411D01*
X1108764Y1632381D01*
X1100409Y1625969D01*
X1093997Y1617613D01*
X1089966Y1607883D01*
X1088592Y1597441D01*
X1089966Y1586999D01*
X1093997Y1577268D01*
X1100409Y1568912D01*
X1108764Y1562501D01*
X1118495Y1558470D01*
X1128937Y1557096D01*
X1139379Y1558470D01*
X1149110Y1562501D01*
X1157465Y1568912D01*
X1163877Y1577268D01*
X1167908Y1586999D01*
X1169282Y1597441D01*
X1167908Y1607883D01*
X1163877Y1617613D01*
X1157465Y1625969D01*
X1149110Y1632381D01*
X1139379Y1636411D01*
X1128937Y1637786D01*
D02*
G37*
G36*
X1341352Y1551181D02*
X1314961D01*
Y1524790D01*
X1316223Y1524956D01*
X1324738Y1528483D01*
X1332049Y1534093D01*
X1337659Y1541404D01*
X1341186Y1549918D01*
X1341352Y1551181D01*
D02*
G37*
G36*
X1299213D02*
X1272821D01*
X1272987Y1549918D01*
X1276514Y1541404D01*
X1282124Y1534093D01*
X1289436Y1528483D01*
X1297950Y1524956D01*
X1299213Y1524790D01*
Y1551181D01*
D02*
G37*
G36*
X1128937Y1537786D02*
X1118495Y1536411D01*
X1108764Y1532381D01*
X1100409Y1525969D01*
X1093997Y1517613D01*
X1089966Y1507883D01*
X1088592Y1497441D01*
X1089966Y1486999D01*
X1093997Y1477268D01*
X1100409Y1468912D01*
X1108764Y1462501D01*
X1118495Y1458470D01*
X1128937Y1457096D01*
X1139379Y1458470D01*
X1149110Y1462501D01*
X1157465Y1468912D01*
X1163877Y1477268D01*
X1167908Y1486999D01*
X1169282Y1497441D01*
X1167908Y1507883D01*
X1163877Y1517613D01*
X1157465Y1525969D01*
X1149110Y1532381D01*
X1139379Y1536411D01*
X1128937Y1537786D01*
D02*
G37*
G36*
X528937D02*
X518495Y1536411D01*
X508764Y1532381D01*
X500409Y1525969D01*
X493997Y1517613D01*
X489966Y1507883D01*
X488592Y1497441D01*
X489966Y1486999D01*
X493997Y1477268D01*
X500409Y1468912D01*
X508764Y1462501D01*
X518495Y1458470D01*
X528937Y1457096D01*
X539379Y1458470D01*
X549110Y1462501D01*
X557465Y1468912D01*
X563877Y1477268D01*
X567908Y1486999D01*
X569282Y1497441D01*
X567908Y1507883D01*
X563877Y1517613D01*
X557465Y1525969D01*
X549110Y1532381D01*
X539379Y1536411D01*
X528937Y1537786D01*
D02*
G37*
G36*
X409449Y1483084D02*
Y1456693D01*
X435840D01*
X435674Y1457956D01*
X432147Y1466470D01*
X426537Y1473781D01*
X419226Y1479391D01*
X410712Y1482918D01*
X409449Y1483084D01*
D02*
G37*
G36*
X393701D02*
X392438Y1482918D01*
X383924Y1479391D01*
X376613Y1473781D01*
X371002Y1466470D01*
X367476Y1457956D01*
X367309Y1456693D01*
X393701D01*
Y1483084D01*
D02*
G37*
G36*
X435840Y1440945D02*
X409449D01*
Y1414553D01*
X410712Y1414720D01*
X419226Y1418246D01*
X426537Y1423857D01*
X432147Y1431168D01*
X435674Y1439682D01*
X435840Y1440945D01*
D02*
G37*
G36*
X393701D02*
X367309D01*
X367476Y1439682D01*
X371002Y1431168D01*
X376613Y1423857D01*
X383924Y1418246D01*
X392438Y1414720D01*
X393701Y1414553D01*
Y1440945D01*
D02*
G37*
G36*
X197835Y1439505D02*
Y1408071D01*
X229269D01*
X228931Y1410639D01*
X224901Y1420370D01*
X218489Y1428725D01*
X210133Y1435137D01*
X200403Y1439167D01*
X197835Y1439505D01*
D02*
G37*
G36*
X182087D02*
X179518Y1439167D01*
X169788Y1435137D01*
X161432Y1428725D01*
X155021Y1420370D01*
X150990Y1410639D01*
X150652Y1408071D01*
X182087D01*
Y1439505D01*
D02*
G37*
G36*
X114173Y1424029D02*
Y1397638D01*
X140565D01*
X140398Y1398901D01*
X136872Y1407415D01*
X131262Y1414726D01*
X123950Y1420336D01*
X115436Y1423863D01*
X114173Y1424029D01*
D02*
G37*
G36*
X98425D02*
X97162Y1423863D01*
X88648Y1420336D01*
X81337Y1414726D01*
X75727Y1407415D01*
X72200Y1398901D01*
X72034Y1397638D01*
X98425D01*
Y1424029D01*
D02*
G37*
G36*
X1574803Y1416155D02*
Y1389764D01*
X1601195D01*
X1601028Y1391027D01*
X1597502Y1399541D01*
X1591891Y1406852D01*
X1584580Y1412462D01*
X1576066Y1415989D01*
X1574803Y1416155D01*
D02*
G37*
G36*
X1559055D02*
X1557792Y1415989D01*
X1549278Y1412462D01*
X1541967Y1406852D01*
X1536357Y1399541D01*
X1532830Y1391027D01*
X1532664Y1389764D01*
X1559055D01*
Y1416155D01*
D02*
G37*
G36*
X1447834Y1419427D02*
Y1387992D01*
X1479269D01*
X1478931Y1390560D01*
X1474901Y1400291D01*
X1468489Y1408647D01*
X1460133Y1415058D01*
X1450403Y1419089D01*
X1447834Y1419427D01*
D02*
G37*
G36*
X1432086D02*
X1429518Y1419089D01*
X1419788Y1415058D01*
X1411432Y1408647D01*
X1405021Y1400291D01*
X1400990Y1390560D01*
X1400652Y1387992D01*
X1432086D01*
Y1419427D01*
D02*
G37*
G36*
X229269Y1392323D02*
X197835D01*
Y1360888D01*
X200403Y1361226D01*
X210133Y1365257D01*
X218489Y1371668D01*
X224901Y1380024D01*
X228931Y1389755D01*
X229269Y1392323D01*
D02*
G37*
G36*
X182087D02*
X150652D01*
X150990Y1389755D01*
X155021Y1380024D01*
X161432Y1371668D01*
X169788Y1365257D01*
X179518Y1361226D01*
X182087Y1360888D01*
Y1392323D01*
D02*
G37*
G36*
X1128937Y1437786D02*
X1118495Y1436411D01*
X1108764Y1432381D01*
X1100409Y1425969D01*
X1093997Y1417613D01*
X1089966Y1407883D01*
X1088592Y1397441D01*
X1089966Y1386999D01*
X1093997Y1377268D01*
X1100409Y1368912D01*
X1108764Y1362501D01*
X1118495Y1358470D01*
X1128937Y1357096D01*
X1139379Y1358470D01*
X1149110Y1362501D01*
X1157465Y1368912D01*
X1163877Y1377268D01*
X1167908Y1386999D01*
X1169282Y1397441D01*
X1167908Y1407883D01*
X1163877Y1417613D01*
X1157465Y1425969D01*
X1149110Y1432381D01*
X1139379Y1436411D01*
X1128937Y1437786D01*
D02*
G37*
G36*
X528937D02*
X518495Y1436411D01*
X508764Y1432381D01*
X500409Y1425969D01*
X493997Y1417613D01*
X489966Y1407883D01*
X488592Y1397441D01*
X489966Y1386999D01*
X493997Y1377268D01*
X500409Y1368912D01*
X508764Y1362501D01*
X518495Y1358470D01*
X528937Y1357096D01*
X539379Y1358470D01*
X549110Y1362501D01*
X557465Y1368912D01*
X563877Y1377268D01*
X567908Y1386999D01*
X569282Y1397441D01*
X567908Y1407883D01*
X563877Y1417613D01*
X557465Y1425969D01*
X549110Y1432381D01*
X539379Y1436411D01*
X528937Y1437786D01*
D02*
G37*
G36*
X140565Y1381890D02*
X114173D01*
Y1355498D01*
X115436Y1355665D01*
X123950Y1359191D01*
X131262Y1364802D01*
X136872Y1372113D01*
X140398Y1380627D01*
X140565Y1381890D01*
D02*
G37*
G36*
X98425D02*
X72034D01*
X72200Y1380627D01*
X75727Y1372113D01*
X81337Y1364802D01*
X88648Y1359191D01*
X97162Y1355665D01*
X98425Y1355498D01*
Y1381890D01*
D02*
G37*
G36*
X1601195Y1374016D02*
X1574803D01*
Y1347624D01*
X1576066Y1347791D01*
X1584580Y1351317D01*
X1591891Y1356928D01*
X1597502Y1364239D01*
X1601028Y1372753D01*
X1601195Y1374016D01*
D02*
G37*
G36*
X1559055D02*
X1532664D01*
X1532830Y1372753D01*
X1536357Y1364239D01*
X1541967Y1356928D01*
X1549278Y1351317D01*
X1557792Y1347791D01*
X1559055Y1347624D01*
Y1374016D01*
D02*
G37*
G36*
X1432086Y1372244D02*
X1400652D01*
X1400990Y1369676D01*
X1405021Y1359946D01*
X1411432Y1351590D01*
X1419788Y1345178D01*
X1429518Y1341148D01*
X1432086Y1340810D01*
Y1372244D01*
D02*
G37*
G36*
X1479269D02*
X1447834D01*
Y1340810D01*
X1450403Y1341148D01*
X1460133Y1345178D01*
X1468489Y1351590D01*
X1474901Y1359946D01*
X1478931Y1369676D01*
X1479269Y1372244D01*
D02*
G37*
G36*
X677165Y1364974D02*
Y1338583D01*
X703557D01*
X703390Y1339845D01*
X699864Y1348360D01*
X694254Y1355671D01*
X686942Y1361281D01*
X678428Y1364808D01*
X677165Y1364974D01*
D02*
G37*
G36*
X661417D02*
X660154Y1364808D01*
X651640Y1361281D01*
X644329Y1355671D01*
X638719Y1348360D01*
X635192Y1339845D01*
X635026Y1338583D01*
X661417D01*
Y1364974D01*
D02*
G37*
G36*
X1136811Y1336749D02*
Y1305315D01*
X1168246D01*
X1167908Y1307883D01*
X1163877Y1317613D01*
X1157465Y1325969D01*
X1149110Y1332381D01*
X1139379Y1336411D01*
X1136811Y1336749D01*
D02*
G37*
G36*
X1121063D02*
X1118495Y1336411D01*
X1108764Y1332381D01*
X1100409Y1325969D01*
X1093997Y1317613D01*
X1089966Y1307883D01*
X1089628Y1305315D01*
X1121063D01*
Y1336749D01*
D02*
G37*
G36*
X703557Y1322835D02*
X677165D01*
Y1296443D01*
X678428Y1296610D01*
X686942Y1300136D01*
X694254Y1305746D01*
X699864Y1313058D01*
X703390Y1321572D01*
X703557Y1322835D01*
D02*
G37*
G36*
X661417D02*
X635026D01*
X635192Y1321572D01*
X638719Y1313058D01*
X644329Y1305746D01*
X651640Y1300136D01*
X660154Y1296610D01*
X661417Y1296443D01*
Y1322835D01*
D02*
G37*
G36*
X314961Y1313793D02*
Y1287402D01*
X341352D01*
X341186Y1288664D01*
X337659Y1297179D01*
X332049Y1304490D01*
X324738Y1310100D01*
X316223Y1313627D01*
X314961Y1313793D01*
D02*
G37*
G36*
X299213D02*
X297950Y1313627D01*
X289436Y1310100D01*
X282124Y1304490D01*
X276514Y1297179D01*
X272988Y1288664D01*
X272821Y1287402D01*
X299213D01*
Y1313793D01*
D02*
G37*
G36*
X1168246Y1289567D02*
X1136811D01*
Y1258132D01*
X1139379Y1258470D01*
X1149110Y1262501D01*
X1157465Y1268912D01*
X1163877Y1277268D01*
X1167908Y1286999D01*
X1168246Y1289567D01*
D02*
G37*
G36*
X1121063D02*
X1089628D01*
X1089966Y1286999D01*
X1093997Y1277268D01*
X1100409Y1268912D01*
X1108764Y1262501D01*
X1118495Y1258470D01*
X1121063Y1258132D01*
Y1289567D01*
D02*
G37*
G36*
X341352Y1271654D02*
X314961D01*
Y1245262D01*
X316223Y1245428D01*
X324738Y1248955D01*
X332049Y1254565D01*
X337659Y1261877D01*
X341186Y1270391D01*
X341352Y1271654D01*
D02*
G37*
G36*
X299213D02*
X272821D01*
X272988Y1270391D01*
X276514Y1261877D01*
X282124Y1254565D01*
X289436Y1248955D01*
X297950Y1245428D01*
X299213Y1245262D01*
Y1271654D01*
D02*
G37*
G36*
X1439961Y1320463D02*
X1429518Y1319089D01*
X1419788Y1315058D01*
X1411432Y1308647D01*
X1405021Y1300291D01*
X1400990Y1290560D01*
X1399615Y1280118D01*
X1400990Y1269676D01*
X1405021Y1259946D01*
X1411432Y1251590D01*
X1419788Y1245178D01*
X1429518Y1241148D01*
X1439961Y1239773D01*
X1450403Y1241148D01*
X1460133Y1245178D01*
X1468489Y1251590D01*
X1474901Y1259946D01*
X1478931Y1269676D01*
X1480306Y1280118D01*
X1478931Y1290560D01*
X1474901Y1300291D01*
X1468489Y1308647D01*
X1460133Y1315058D01*
X1450403Y1319089D01*
X1439961Y1320463D01*
D02*
G37*
G36*
X1295276Y1238990D02*
Y1212598D01*
X1321667D01*
X1321501Y1213861D01*
X1317974Y1222375D01*
X1312364Y1229687D01*
X1305053Y1235297D01*
X1296538Y1238823D01*
X1295276Y1238990D01*
D02*
G37*
G36*
X1279528D02*
X1278265Y1238823D01*
X1269751Y1235297D01*
X1262439Y1229687D01*
X1256829Y1222375D01*
X1253303Y1213861D01*
X1253136Y1212598D01*
X1279528D01*
Y1238990D01*
D02*
G37*
G36*
X182087Y1240197D02*
X149961D01*
Y1208071D01*
X182087D01*
Y1240197D01*
D02*
G37*
G36*
X1321667Y1196850D02*
X1295276D01*
Y1170459D01*
X1296538Y1170625D01*
X1305053Y1174152D01*
X1312364Y1179762D01*
X1317974Y1187073D01*
X1321501Y1195588D01*
X1321667Y1196850D01*
D02*
G37*
G36*
X1279528D02*
X1253136D01*
X1253303Y1195588D01*
X1256829Y1187073D01*
X1262439Y1179762D01*
X1269751Y1174152D01*
X1278265Y1170625D01*
X1279528Y1170459D01*
Y1196850D01*
D02*
G37*
G36*
X229961Y1192323D02*
X197835D01*
Y1160197D01*
X229961D01*
Y1192323D01*
D02*
G37*
G36*
X182087D02*
X149961D01*
Y1160197D01*
X182087D01*
Y1192323D01*
D02*
G37*
G36*
X1128937Y1237786D02*
X1118495Y1236411D01*
X1108764Y1232381D01*
X1100409Y1225969D01*
X1093997Y1217613D01*
X1089966Y1207883D01*
X1088592Y1197441D01*
X1089966Y1186999D01*
X1093997Y1177268D01*
X1100409Y1168912D01*
X1108764Y1162501D01*
X1118495Y1158470D01*
X1128937Y1157096D01*
X1139379Y1158470D01*
X1149110Y1162501D01*
X1157465Y1168912D01*
X1163877Y1177268D01*
X1167908Y1186999D01*
X1169282Y1197441D01*
X1167908Y1207883D01*
X1163877Y1217613D01*
X1157465Y1225969D01*
X1149110Y1232381D01*
X1139379Y1236411D01*
X1128937Y1237786D01*
D02*
G37*
G36*
X528937D02*
X518495Y1236411D01*
X508764Y1232381D01*
X500409Y1225969D01*
X493997Y1217613D01*
X489966Y1207883D01*
X488592Y1197441D01*
X489966Y1186999D01*
X493997Y1177268D01*
X500409Y1168912D01*
X508764Y1162501D01*
X518495Y1158470D01*
X528937Y1157096D01*
X539379Y1158470D01*
X549110Y1162501D01*
X557465Y1168912D01*
X563877Y1177268D01*
X567908Y1186999D01*
X569282Y1197441D01*
X567908Y1207883D01*
X563877Y1217613D01*
X557465Y1225969D01*
X549110Y1232381D01*
X539379Y1236411D01*
X528937Y1237786D01*
D02*
G37*
G36*
X189961Y1340542D02*
X179518Y1339167D01*
X169788Y1335137D01*
X161432Y1328725D01*
X155021Y1320370D01*
X150990Y1310639D01*
X149615Y1300197D01*
X150990Y1289755D01*
X155021Y1280024D01*
X161432Y1271668D01*
X169788Y1265257D01*
X179518Y1261226D01*
X189961Y1259852D01*
X200403Y1261226D01*
X202351Y1262033D01*
X219568Y1244816D01*
X217655Y1240197D01*
X197835D01*
Y1208071D01*
X229961D01*
Y1227891D01*
X234580Y1229804D01*
X311270Y1153115D01*
X307966Y1149348D01*
X303702Y1152620D01*
X295187Y1156146D01*
X286051Y1157349D01*
X276914Y1156146D01*
X268400Y1152620D01*
X261088Y1147009D01*
X255918Y1140271D01*
X216535D01*
X209561Y1138884D01*
X203649Y1134934D01*
X203649Y1134933D01*
X85539Y1016823D01*
X81588Y1010911D01*
X80201Y1003937D01*
X80201Y1003937D01*
Y593505D01*
X80201Y593504D01*
X81588Y586530D01*
X85539Y580617D01*
X146876Y519280D01*
X146069Y517332D01*
X144694Y506890D01*
X146069Y496448D01*
X150099Y486717D01*
X156511Y478361D01*
X164867Y471950D01*
X174597Y467919D01*
X185039Y466545D01*
X195482Y467919D01*
X205212Y471950D01*
X213568Y478361D01*
X219979Y486717D01*
X224010Y496448D01*
X225385Y506890D01*
X224010Y517332D01*
X219979Y527062D01*
X213568Y535418D01*
X205212Y541830D01*
X195482Y545860D01*
X185039Y547235D01*
X174597Y545860D01*
X172649Y545053D01*
X116649Y601053D01*
Y996388D01*
X224084Y1103823D01*
X255918D01*
X261088Y1097085D01*
X268400Y1091475D01*
X276914Y1087948D01*
X277051Y1087930D01*
Y1067588D01*
X197430Y987967D01*
X195482Y988774D01*
X185039Y990148D01*
X174597Y988774D01*
X164867Y984743D01*
X156511Y978332D01*
X150099Y969976D01*
X146069Y960245D01*
X144694Y949803D01*
X146069Y939361D01*
X150099Y929630D01*
X156511Y921275D01*
X164867Y914863D01*
X174597Y910833D01*
X185039Y909458D01*
X195482Y910833D01*
X205212Y914863D01*
X213568Y921275D01*
X219979Y929630D01*
X224010Y939361D01*
X225385Y949803D01*
X224010Y960245D01*
X223203Y962194D01*
X308162Y1047153D01*
X308162Y1047153D01*
X312113Y1053065D01*
X313500Y1060039D01*
Y1100326D01*
X316623Y1104396D01*
X320150Y1112910D01*
X321353Y1122047D01*
X320150Y1131184D01*
X316623Y1139698D01*
X313351Y1143963D01*
X317118Y1147266D01*
X328233Y1136152D01*
Y779922D01*
X328232Y779921D01*
X329620Y772947D01*
X333570Y767035D01*
X490774Y609831D01*
X489966Y607883D01*
X488592Y597441D01*
X489966Y586999D01*
X493997Y577268D01*
X500409Y568913D01*
X508764Y562501D01*
X518495Y558470D01*
X528937Y557096D01*
X539379Y558470D01*
X549110Y562501D01*
X557465Y568913D01*
X563877Y577268D01*
X567908Y586999D01*
X569282Y597441D01*
X567908Y607883D01*
X563877Y617614D01*
X557465Y625969D01*
X549110Y632381D01*
X539379Y636411D01*
X528937Y637786D01*
X518495Y636411D01*
X516547Y635604D01*
X364681Y787470D01*
Y1143700D01*
X364681Y1143701D01*
X363294Y1150675D01*
X359343Y1156587D01*
X228124Y1287806D01*
X228931Y1289755D01*
X230306Y1300197D01*
X228931Y1310639D01*
X224901Y1320370D01*
X218489Y1328725D01*
X210133Y1335137D01*
X200403Y1339167D01*
X189961Y1340542D01*
D02*
G37*
G36*
X118110Y1168124D02*
Y1141732D01*
X144502D01*
X144335Y1142995D01*
X140809Y1151509D01*
X135198Y1158821D01*
X127887Y1164431D01*
X119373Y1167957D01*
X118110Y1168124D01*
D02*
G37*
G36*
X102362D02*
X101099Y1167957D01*
X92585Y1164431D01*
X85274Y1158821D01*
X79664Y1151509D01*
X76137Y1142995D01*
X75971Y1141732D01*
X102362D01*
Y1168124D01*
D02*
G37*
G36*
X1439961Y1220463D02*
X1429518Y1219089D01*
X1419788Y1215058D01*
X1411432Y1208647D01*
X1405021Y1200291D01*
X1400990Y1190560D01*
X1399615Y1180118D01*
X1400990Y1169676D01*
X1405021Y1159946D01*
X1411432Y1151590D01*
X1419788Y1145178D01*
X1429518Y1141148D01*
X1439961Y1139773D01*
X1450403Y1141148D01*
X1460133Y1145178D01*
X1468489Y1151590D01*
X1474901Y1159946D01*
X1478931Y1169676D01*
X1480306Y1180118D01*
X1478931Y1190560D01*
X1474901Y1200291D01*
X1468489Y1208647D01*
X1460133Y1215058D01*
X1450403Y1219089D01*
X1439961Y1220463D01*
D02*
G37*
G36*
X144502Y1125984D02*
X118110D01*
Y1099593D01*
X119373Y1099759D01*
X127887Y1103286D01*
X135198Y1108896D01*
X140809Y1116207D01*
X144335Y1124722D01*
X144502Y1125984D01*
D02*
G37*
G36*
X102362D02*
X75971D01*
X76137Y1124722D01*
X79664Y1116207D01*
X85274Y1108896D01*
X92585Y1103286D01*
X101099Y1099759D01*
X102362Y1099593D01*
Y1125984D01*
D02*
G37*
G36*
X528937Y1137786D02*
X518495Y1136411D01*
X508764Y1132381D01*
X500409Y1125969D01*
X493997Y1117613D01*
X489966Y1107883D01*
X488592Y1097441D01*
X489966Y1086999D01*
X493997Y1077268D01*
X500409Y1068912D01*
X508764Y1062501D01*
X518495Y1058470D01*
X528937Y1057096D01*
X539379Y1058470D01*
X549110Y1062501D01*
X557465Y1068912D01*
X563877Y1077268D01*
X567908Y1086999D01*
X569282Y1097441D01*
X567908Y1107883D01*
X563877Y1117613D01*
X557465Y1125969D01*
X549110Y1132381D01*
X539379Y1136411D01*
X528937Y1137786D01*
D02*
G37*
G36*
X1128937D02*
X1118495Y1136411D01*
X1108764Y1132381D01*
X1100409Y1125969D01*
X1093997Y1117613D01*
X1089966Y1107883D01*
X1088592Y1097441D01*
X1089966Y1086999D01*
X1093997Y1077268D01*
X1100409Y1068912D01*
X1108764Y1062501D01*
X1118495Y1058470D01*
X1128937Y1057096D01*
X1139379Y1058470D01*
X1149110Y1062501D01*
X1157465Y1068912D01*
X1163877Y1077268D01*
X1164684Y1079217D01*
X1309893D01*
X1310722Y1077562D01*
X1311230Y1074217D01*
X1304762Y1069254D01*
X1299152Y1061942D01*
X1295625Y1053428D01*
X1294422Y1044291D01*
X1295531Y1035871D01*
X1275325Y1015665D01*
X1164684D01*
X1163877Y1017614D01*
X1157465Y1025969D01*
X1149110Y1032381D01*
X1139379Y1036411D01*
X1128937Y1037786D01*
X1118495Y1036411D01*
X1108764Y1032381D01*
X1100409Y1025969D01*
X1093997Y1017614D01*
X1089966Y1007883D01*
X1088592Y997441D01*
X1089966Y986999D01*
X1093997Y977268D01*
X1100409Y968913D01*
X1108764Y962501D01*
X1118495Y958470D01*
X1128937Y957096D01*
X1139379Y958470D01*
X1149110Y962501D01*
X1157465Y968913D01*
X1163877Y977268D01*
X1164684Y979217D01*
X1282873D01*
X1282874Y979217D01*
X1289848Y980604D01*
X1295761Y984554D01*
X1321304Y1010098D01*
X1329724Y1008989D01*
X1338861Y1010192D01*
X1347375Y1013719D01*
X1354687Y1019329D01*
X1360297Y1026640D01*
X1363823Y1035155D01*
X1365026Y1044291D01*
X1363823Y1053428D01*
X1360297Y1061942D01*
X1354687Y1069254D01*
X1348219Y1074217D01*
X1348727Y1077562D01*
X1349555Y1079217D01*
X1399734D01*
X1400990Y1069676D01*
X1405021Y1059946D01*
X1411432Y1051590D01*
X1419788Y1045178D01*
X1429518Y1041148D01*
X1439961Y1039773D01*
X1450403Y1041148D01*
X1460133Y1045178D01*
X1468489Y1051590D01*
X1474901Y1059946D01*
X1478931Y1069676D01*
X1480306Y1080118D01*
X1478931Y1090560D01*
X1474901Y1100291D01*
X1468489Y1108647D01*
X1460133Y1115058D01*
X1450403Y1119089D01*
X1439961Y1120463D01*
X1429518Y1119089D01*
X1419788Y1115058D01*
X1419415Y1114772D01*
X1414925Y1115665D01*
X1414924Y1115665D01*
X1164684D01*
X1163877Y1117613D01*
X1157465Y1125969D01*
X1149110Y1132381D01*
X1139379Y1136411D01*
X1128937Y1137786D01*
D02*
G37*
G36*
X1447834Y1019427D02*
Y987992D01*
X1479269D01*
X1478931Y990560D01*
X1474901Y1000291D01*
X1468489Y1008646D01*
X1460133Y1015058D01*
X1450403Y1019089D01*
X1447834Y1019427D01*
D02*
G37*
G36*
X1432086D02*
X1429518Y1019089D01*
X1419788Y1015058D01*
X1411432Y1008646D01*
X1405021Y1000291D01*
X1400990Y990560D01*
X1400652Y987992D01*
X1432086D01*
Y1019427D01*
D02*
G37*
G36*
X1555118Y1010643D02*
Y984252D01*
X1581509D01*
X1581343Y985515D01*
X1577816Y994029D01*
X1572206Y1001340D01*
X1564895Y1006950D01*
X1556381Y1010477D01*
X1555118Y1010643D01*
D02*
G37*
G36*
X1539370D02*
X1538107Y1010477D01*
X1529593Y1006950D01*
X1522282Y1001340D01*
X1516672Y994029D01*
X1513145Y985515D01*
X1512979Y984252D01*
X1539370D01*
Y1010643D01*
D02*
G37*
G36*
X1354331Y990958D02*
Y964567D01*
X1380722D01*
X1380556Y965830D01*
X1377029Y974344D01*
X1371419Y981655D01*
X1364108Y987265D01*
X1355593Y990792D01*
X1354331Y990958D01*
D02*
G37*
G36*
X1338583D02*
X1337320Y990792D01*
X1328806Y987265D01*
X1321494Y981655D01*
X1315884Y974344D01*
X1312358Y965830D01*
X1312191Y964567D01*
X1338583D01*
Y990958D01*
D02*
G37*
G36*
X528937Y1037786D02*
X518495Y1036411D01*
X508764Y1032381D01*
X500409Y1025969D01*
X493997Y1017614D01*
X489966Y1007883D01*
X488592Y997441D01*
X489966Y986999D01*
X493997Y977268D01*
X500409Y968913D01*
X508764Y962501D01*
X518495Y958470D01*
X528937Y957096D01*
X539379Y958470D01*
X549110Y962501D01*
X557465Y968913D01*
X563877Y977268D01*
X567908Y986999D01*
X569282Y997441D01*
X567908Y1007883D01*
X563877Y1017614D01*
X557465Y1025969D01*
X549110Y1032381D01*
X539379Y1036411D01*
X528937Y1037786D01*
D02*
G37*
G36*
X1581509Y968504D02*
X1555118D01*
Y942113D01*
X1556381Y942279D01*
X1564895Y945806D01*
X1572206Y951416D01*
X1577816Y958727D01*
X1581343Y967241D01*
X1581509Y968504D01*
D02*
G37*
G36*
X1539370D02*
X1512979D01*
X1513145Y967241D01*
X1516672Y958727D01*
X1522282Y951416D01*
X1529593Y945806D01*
X1538107Y942279D01*
X1539370Y942113D01*
Y968504D01*
D02*
G37*
G36*
X1432086Y972244D02*
X1400652D01*
X1400990Y969676D01*
X1405021Y959946D01*
X1411432Y951590D01*
X1419788Y945178D01*
X1429518Y941148D01*
X1432086Y940809D01*
Y972244D01*
D02*
G37*
G36*
X1479269D02*
X1447834D01*
Y940809D01*
X1450403Y941148D01*
X1460133Y945178D01*
X1468489Y951590D01*
X1474901Y959946D01*
X1478931Y969676D01*
X1479269Y972244D01*
D02*
G37*
G36*
X677165Y955525D02*
Y929134D01*
X703557D01*
X703390Y930397D01*
X699864Y938911D01*
X694254Y946222D01*
X686942Y951832D01*
X678428Y955359D01*
X677165Y955525D01*
D02*
G37*
G36*
X661417D02*
X660154Y955359D01*
X651640Y951832D01*
X644329Y946222D01*
X638719Y938911D01*
X635192Y930397D01*
X635026Y929134D01*
X661417D01*
Y955525D01*
D02*
G37*
G36*
X1380722Y948819D02*
X1354331D01*
Y922428D01*
X1355593Y922594D01*
X1364108Y926120D01*
X1371419Y931731D01*
X1377029Y939042D01*
X1380556Y947556D01*
X1380722Y948819D01*
D02*
G37*
G36*
X1338583D02*
X1312191D01*
X1312358Y947556D01*
X1315884Y939042D01*
X1321494Y931731D01*
X1328806Y926120D01*
X1337320Y922594D01*
X1338583Y922428D01*
Y948819D01*
D02*
G37*
G36*
X1269685Y971326D02*
X1260548Y970123D01*
X1252034Y966596D01*
X1244723Y960986D01*
X1239113Y953675D01*
X1235586Y945160D01*
X1234383Y936024D01*
X1234909Y932028D01*
X1218546Y915665D01*
X1164684D01*
X1163877Y917614D01*
X1157465Y925969D01*
X1149110Y932381D01*
X1139379Y936411D01*
X1128937Y937786D01*
X1118495Y936411D01*
X1108764Y932381D01*
X1100409Y925969D01*
X1093997Y917614D01*
X1089966Y907883D01*
X1088592Y897441D01*
X1089966Y886999D01*
X1093997Y877268D01*
X1100409Y868913D01*
X1108764Y862501D01*
X1118495Y858470D01*
X1128937Y857096D01*
X1139379Y858470D01*
X1149110Y862501D01*
X1157465Y868913D01*
X1163877Y877268D01*
X1164684Y879217D01*
X1226095D01*
X1226095Y879217D01*
X1233069Y880604D01*
X1238982Y884554D01*
X1257581Y903154D01*
X1260548Y901924D01*
X1269685Y900722D01*
X1278822Y901924D01*
X1287336Y905451D01*
X1294647Y911061D01*
X1300257Y918373D01*
X1303784Y926887D01*
X1304987Y936024D01*
X1303784Y945160D01*
X1300257Y953675D01*
X1294647Y960986D01*
X1287336Y966596D01*
X1278822Y970123D01*
X1269685Y971326D01*
D02*
G37*
G36*
X295276Y939777D02*
Y913386D01*
X321667D01*
X321501Y914649D01*
X317974Y923163D01*
X312364Y930474D01*
X305053Y936084D01*
X296538Y939611D01*
X295276Y939777D01*
D02*
G37*
G36*
X279528D02*
X278265Y939611D01*
X269751Y936084D01*
X262439Y930474D01*
X256829Y923163D01*
X253303Y914649D01*
X253136Y913386D01*
X279528D01*
Y939777D01*
D02*
G37*
G36*
X703557Y913386D02*
X677165D01*
Y886994D01*
X678428Y887161D01*
X686942Y890687D01*
X694254Y896298D01*
X699864Y903609D01*
X703390Y912123D01*
X703557Y913386D01*
D02*
G37*
G36*
X661417D02*
X635026D01*
X635192Y912123D01*
X638719Y903609D01*
X644329Y896298D01*
X651640Y890687D01*
X660154Y887161D01*
X661417Y886994D01*
Y913386D01*
D02*
G37*
G36*
X321667Y897638D02*
X295276D01*
Y871246D01*
X296538Y871413D01*
X305053Y874939D01*
X312364Y880549D01*
X317974Y887861D01*
X321501Y896375D01*
X321667Y897638D01*
D02*
G37*
G36*
X279528D02*
X253136D01*
X253303Y896375D01*
X256829Y887861D01*
X262439Y880549D01*
X269751Y874939D01*
X278265Y871413D01*
X279528Y871246D01*
Y897638D01*
D02*
G37*
G36*
X528937Y937786D02*
X518495Y936411D01*
X508764Y932381D01*
X500409Y925969D01*
X493997Y917614D01*
X489966Y907883D01*
X488592Y897441D01*
X489966Y886999D01*
X493997Y877268D01*
X500409Y868913D01*
X508764Y862501D01*
X518495Y858470D01*
X528937Y857096D01*
X539379Y858470D01*
X549110Y862501D01*
X557465Y868913D01*
X563877Y877268D01*
X567908Y886999D01*
X569282Y897441D01*
X567908Y907883D01*
X563877Y917614D01*
X557465Y925969D01*
X549110Y932381D01*
X539379Y936411D01*
X528937Y937786D01*
D02*
G37*
G36*
X1439961Y920463D02*
X1429518Y919089D01*
X1419788Y915058D01*
X1411432Y908646D01*
X1405021Y900291D01*
X1400990Y890560D01*
X1399615Y880118D01*
X1400990Y869676D01*
X1405021Y859946D01*
X1411432Y851590D01*
X1419788Y845178D01*
X1429518Y841148D01*
X1439961Y839773D01*
X1450403Y841148D01*
X1460133Y845178D01*
X1468489Y851590D01*
X1474901Y859946D01*
X1478931Y869676D01*
X1480306Y880118D01*
X1478931Y890560D01*
X1474901Y900291D01*
X1468489Y908646D01*
X1460133Y915058D01*
X1450403Y919089D01*
X1439961Y920463D01*
D02*
G37*
G36*
X177165Y789803D02*
X145039D01*
Y757677D01*
X177165D01*
Y789803D01*
D02*
G37*
G36*
X528937Y837786D02*
X518495Y836411D01*
X508764Y832381D01*
X500409Y825969D01*
X493997Y817614D01*
X489966Y807883D01*
X488592Y797441D01*
X489966Y786999D01*
X493997Y777268D01*
X500409Y768913D01*
X508764Y762501D01*
X518495Y758470D01*
X528937Y757096D01*
X539379Y758470D01*
X549110Y762501D01*
X557465Y768913D01*
X563877Y777268D01*
X567908Y786999D01*
X569282Y797441D01*
X567908Y807883D01*
X563877Y817614D01*
X557465Y825969D01*
X549110Y832381D01*
X539379Y836411D01*
X528937Y837786D01*
D02*
G37*
G36*
X1263780Y770486D02*
Y744095D01*
X1290171D01*
X1290005Y745357D01*
X1286478Y753871D01*
X1280868Y761183D01*
X1273556Y766793D01*
X1265042Y770320D01*
X1263780Y770486D01*
D02*
G37*
G36*
X1248032D02*
X1246769Y770320D01*
X1238255Y766793D01*
X1230943Y761183D01*
X1225333Y753871D01*
X1221806Y745357D01*
X1221640Y744095D01*
X1248032D01*
Y770486D01*
D02*
G37*
G36*
X1439961Y820463D02*
X1429518Y819089D01*
X1419788Y815058D01*
X1411432Y808646D01*
X1405021Y800291D01*
X1400990Y790560D01*
X1399615Y780118D01*
X1400990Y769676D01*
X1405021Y759946D01*
X1411432Y751590D01*
X1419788Y745178D01*
X1429518Y741148D01*
X1439961Y739773D01*
X1450403Y741148D01*
X1460133Y745178D01*
X1468489Y751590D01*
X1474901Y759946D01*
X1478931Y769676D01*
X1480306Y780118D01*
X1478931Y790560D01*
X1474901Y800291D01*
X1468489Y808646D01*
X1460133Y815058D01*
X1450403Y819089D01*
X1439961Y820463D01*
D02*
G37*
G36*
X225039Y741929D02*
X192913D01*
Y709803D01*
X225039D01*
Y741929D01*
D02*
G37*
G36*
X177165D02*
X145039D01*
Y709803D01*
X177165D01*
Y741929D01*
D02*
G37*
G36*
X1290171Y728346D02*
X1263780D01*
Y701955D01*
X1265042Y702121D01*
X1273556Y705648D01*
X1280868Y711258D01*
X1286478Y718569D01*
X1290005Y727084D01*
X1290171Y728346D01*
D02*
G37*
G36*
X1248032D02*
X1221640D01*
X1221806Y727084D01*
X1225333Y718569D01*
X1230943Y711258D01*
X1238255Y705648D01*
X1246769Y702121D01*
X1248032Y701955D01*
Y728346D01*
D02*
G37*
G36*
X192913Y703557D02*
Y677165D01*
X219305D01*
X219138Y678428D01*
X215612Y686942D01*
X210002Y694254D01*
X202690Y699864D01*
X194176Y703390D01*
X192913Y703557D01*
D02*
G37*
G36*
X177165D02*
X175903Y703390D01*
X167388Y699864D01*
X160077Y694254D01*
X154467Y686942D01*
X150940Y678428D01*
X150774Y677165D01*
X177165D01*
Y703557D01*
D02*
G37*
G36*
X189961Y1540542D02*
X179518Y1539167D01*
X169788Y1535137D01*
X161432Y1528725D01*
X155021Y1520370D01*
X150990Y1510639D01*
X149615Y1500197D01*
X150990Y1489755D01*
X155021Y1480024D01*
X161432Y1471668D01*
X169788Y1465257D01*
X179518Y1461226D01*
X189961Y1459852D01*
X200403Y1461226D01*
X202351Y1462033D01*
X380398Y1283987D01*
Y827756D01*
X380398Y827756D01*
X381785Y820782D01*
X385736Y814869D01*
X490774Y709831D01*
X489966Y707883D01*
X488592Y697441D01*
X489966Y686999D01*
X493997Y677268D01*
X500409Y668913D01*
X508764Y662501D01*
X518495Y658470D01*
X528937Y657096D01*
X539379Y658470D01*
X549110Y662501D01*
X557465Y668913D01*
X563877Y677268D01*
X567908Y686999D01*
X569282Y697441D01*
X567908Y707883D01*
X563877Y717614D01*
X557465Y725969D01*
X549110Y732381D01*
X539379Y736411D01*
X528937Y737786D01*
X518495Y736411D01*
X516547Y735604D01*
X416846Y835305D01*
Y1291535D01*
X416846Y1291535D01*
X415459Y1298510D01*
X411509Y1304422D01*
X411508Y1304422D01*
X228124Y1487806D01*
X228931Y1489755D01*
X230306Y1500197D01*
X228931Y1510639D01*
X224901Y1520370D01*
X218489Y1528725D01*
X210133Y1535137D01*
X200403Y1539167D01*
X189961Y1540542D01*
D02*
G37*
G36*
X219305Y661417D02*
X192913D01*
Y635026D01*
X194176Y635192D01*
X202690Y638719D01*
X210002Y644329D01*
X215612Y651640D01*
X219138Y660154D01*
X219305Y661417D01*
D02*
G37*
G36*
X177165D02*
X150774D01*
X150940Y660154D01*
X154467Y651640D01*
X160077Y644329D01*
X167388Y638719D01*
X175903Y635192D01*
X177165Y635026D01*
Y661417D01*
D02*
G37*
G36*
X326772Y581510D02*
Y555118D01*
X353163D01*
X352997Y556381D01*
X349470Y564895D01*
X343860Y572206D01*
X336549Y577817D01*
X328034Y581343D01*
X326772Y581510D01*
D02*
G37*
G36*
X311024D02*
X309761Y581343D01*
X301247Y577817D01*
X293935Y572206D01*
X288325Y564895D01*
X284798Y556381D01*
X284632Y555118D01*
X311024D01*
Y581510D01*
D02*
G37*
G36*
X681102Y546076D02*
Y519685D01*
X707494D01*
X707327Y520948D01*
X703801Y529462D01*
X698191Y536773D01*
X690879Y542383D01*
X682365Y545910D01*
X681102Y546076D01*
D02*
G37*
G36*
X665354D02*
X664091Y545910D01*
X655577Y542383D01*
X648266Y536773D01*
X642656Y529462D01*
X639129Y520948D01*
X638963Y519685D01*
X665354D01*
Y546076D01*
D02*
G37*
G36*
X353163Y539370D02*
X326772D01*
Y512979D01*
X328034Y513145D01*
X336549Y516672D01*
X343860Y522282D01*
X349470Y529593D01*
X352997Y538107D01*
X353163Y539370D01*
D02*
G37*
G36*
X311024D02*
X284632D01*
X284798Y538107D01*
X288325Y529593D01*
X293935Y522282D01*
X301247Y516672D01*
X309761Y513145D01*
X311024Y512979D01*
Y539370D01*
D02*
G37*
G36*
X707494Y503937D02*
X681102D01*
Y477546D01*
X682365Y477712D01*
X690879Y481239D01*
X698191Y486849D01*
X703801Y494160D01*
X707327Y502674D01*
X707494Y503937D01*
D02*
G37*
G36*
X665354D02*
X638963D01*
X639129Y502674D01*
X642656Y494160D01*
X648266Y486849D01*
X655577Y481239D01*
X664091Y477712D01*
X665354Y477546D01*
Y503937D01*
D02*
G37*
G36*
X1417323Y494895D02*
Y468504D01*
X1443714D01*
X1443548Y469767D01*
X1440021Y478281D01*
X1434411Y485592D01*
X1427100Y491202D01*
X1418586Y494729D01*
X1417323Y494895D01*
D02*
G37*
G36*
X1401575D02*
X1400312Y494729D01*
X1391798Y491202D01*
X1384486Y485592D01*
X1378876Y478281D01*
X1375350Y469767D01*
X1375183Y468504D01*
X1401575D01*
Y494895D01*
D02*
G37*
G36*
X1128937Y537786D02*
X1118495Y536411D01*
X1108764Y532381D01*
X1100409Y525969D01*
X1093997Y517614D01*
X1089966Y507883D01*
X1088592Y497441D01*
X1089966Y486999D01*
X1090774Y485050D01*
X868610Y262886D01*
X864659Y256974D01*
X863272Y250000D01*
X863272Y249999D01*
Y157794D01*
X861323Y156987D01*
X852968Y150576D01*
X846556Y142220D01*
X842525Y132489D01*
X841151Y122047D01*
X842525Y111605D01*
X846556Y101875D01*
X852968Y93519D01*
X861323Y87107D01*
X871054Y83077D01*
X881496Y81702D01*
X891938Y83077D01*
X901669Y87107D01*
X910024Y93519D01*
X916436Y101875D01*
X920466Y111605D01*
X921841Y122047D01*
X920466Y132489D01*
X916436Y142220D01*
X910024Y150576D01*
X901669Y156987D01*
X899720Y157794D01*
Y242451D01*
X1116546Y459277D01*
X1118495Y458470D01*
X1128937Y457096D01*
X1139379Y458470D01*
X1149110Y462501D01*
X1157465Y468913D01*
X1163877Y477268D01*
X1167908Y486999D01*
X1169282Y497441D01*
X1167908Y507883D01*
X1163877Y517614D01*
X1157465Y525969D01*
X1149110Y532381D01*
X1139379Y536411D01*
X1128937Y537786D01*
D02*
G37*
G36*
X185039Y890148D02*
X174597Y888774D01*
X164867Y884743D01*
X156511Y878332D01*
X150099Y869976D01*
X146069Y860245D01*
X144694Y849803D01*
X146069Y839361D01*
X150099Y829630D01*
X156511Y821275D01*
X164867Y814863D01*
X174597Y810833D01*
X185039Y809458D01*
X194747Y810736D01*
X211060Y794423D01*
X209147Y789803D01*
X192913D01*
Y757677D01*
X225039D01*
Y773910D01*
X229659Y775824D01*
X492202Y513281D01*
X489966Y507883D01*
X488592Y497441D01*
X489966Y486999D01*
X493997Y477268D01*
X500409Y468913D01*
X508764Y462501D01*
X518495Y458470D01*
X528937Y457096D01*
X539379Y458470D01*
X549110Y462501D01*
X557465Y468913D01*
X563877Y477268D01*
X567908Y486999D01*
X569282Y497441D01*
X567908Y507883D01*
X563877Y517614D01*
X557465Y525969D01*
X549110Y532381D01*
X539379Y536411D01*
X528937Y537786D01*
X520370Y536658D01*
X222152Y834876D01*
X224010Y839361D01*
X225385Y849803D01*
X224010Y860245D01*
X219979Y869976D01*
X213568Y878332D01*
X205212Y884743D01*
X195482Y888774D01*
X185039Y890148D01*
D02*
G37*
G36*
X1443714Y452756D02*
X1417323D01*
Y426365D01*
X1418586Y426531D01*
X1427100Y430058D01*
X1434411Y435668D01*
X1440021Y442979D01*
X1443548Y451493D01*
X1443714Y452756D01*
D02*
G37*
G36*
X1401575D02*
X1375183D01*
X1375350Y451493D01*
X1378876Y442979D01*
X1384486Y435668D01*
X1391798Y430058D01*
X1400312Y426531D01*
X1401575Y426365D01*
Y452756D01*
D02*
G37*
G36*
X185039Y447235D02*
X174597Y445860D01*
X164867Y441830D01*
X156511Y435418D01*
X150099Y427062D01*
X146069Y417332D01*
X144694Y406890D01*
X146069Y396448D01*
X150099Y386717D01*
X156511Y378361D01*
X164867Y371950D01*
X174597Y367919D01*
X185039Y366545D01*
X195482Y367919D01*
X205212Y371950D01*
X213568Y378361D01*
X217849Y383941D01*
X491233D01*
X493997Y377268D01*
X500409Y368913D01*
X508764Y362501D01*
X518495Y358470D01*
X528937Y357096D01*
X539379Y358470D01*
X549110Y362501D01*
X557465Y368913D01*
X563877Y377268D01*
X567908Y386999D01*
X569282Y397441D01*
X567908Y407883D01*
X563877Y417613D01*
X557465Y425969D01*
X549110Y432381D01*
X539379Y436411D01*
X528937Y437786D01*
X518495Y436411D01*
X508764Y432381D01*
X500409Y425969D01*
X496127Y420390D01*
X222743D01*
X219979Y427062D01*
X213568Y435418D01*
X205212Y441830D01*
X195482Y445860D01*
X185039Y447235D01*
D02*
G37*
G36*
X275591Y349226D02*
Y322835D01*
X301982D01*
X301816Y324097D01*
X298289Y332612D01*
X292679Y339923D01*
X285368Y345533D01*
X276853Y349060D01*
X275591Y349226D01*
D02*
G37*
G36*
X259842D02*
X258580Y349060D01*
X250065Y345533D01*
X242754Y339923D01*
X237144Y332612D01*
X233617Y324097D01*
X233451Y322835D01*
X259842D01*
Y349226D01*
D02*
G37*
G36*
X225039Y346890D02*
X192913D01*
Y314764D01*
X225039D01*
Y346890D01*
D02*
G37*
G36*
X177165D02*
X145039D01*
Y314764D01*
X177165D01*
Y346890D01*
D02*
G37*
G36*
X1073463Y334818D02*
Y308427D01*
X1099854D01*
X1099688Y309690D01*
X1096161Y318204D01*
X1090551Y325515D01*
X1083240Y331125D01*
X1074726Y334652D01*
X1073463Y334818D01*
D02*
G37*
G36*
X1057715D02*
X1056452Y334652D01*
X1047938Y331125D01*
X1040627Y325515D01*
X1035016Y318204D01*
X1031490Y309690D01*
X1031323Y308427D01*
X1057715D01*
Y334818D01*
D02*
G37*
G36*
X492126Y317730D02*
Y291339D01*
X518517D01*
X518351Y292601D01*
X514824Y301116D01*
X509214Y308427D01*
X501903Y314037D01*
X493389Y317564D01*
X492126Y317730D01*
D02*
G37*
G36*
X476378D02*
X475115Y317564D01*
X466601Y314037D01*
X459290Y308427D01*
X453680Y301116D01*
X450153Y292601D01*
X449987Y291339D01*
X476378D01*
Y317730D01*
D02*
G37*
G36*
X301982Y307087D02*
X275591D01*
Y280695D01*
X276853Y280861D01*
X285368Y284388D01*
X292679Y289998D01*
X298289Y297310D01*
X301816Y305824D01*
X301982Y307087D01*
D02*
G37*
G36*
X259842D02*
X233451D01*
X233617Y305824D01*
X237144Y297310D01*
X242754Y289998D01*
X250065Y284388D01*
X258580Y280861D01*
X259842Y280695D01*
Y307087D01*
D02*
G37*
G36*
X225039Y299016D02*
X192913D01*
Y266890D01*
X225039D01*
Y299016D01*
D02*
G37*
G36*
X177165D02*
X145039D01*
Y266890D01*
X177165D01*
Y299016D01*
D02*
G37*
G36*
X1099854Y292679D02*
X1073463D01*
Y266288D01*
X1074726Y266454D01*
X1083240Y269981D01*
X1090551Y275591D01*
X1096161Y282902D01*
X1099688Y291416D01*
X1099854Y292679D01*
D02*
G37*
G36*
X1057715D02*
X1031323D01*
X1031490Y291416D01*
X1035016Y282902D01*
X1040627Y275591D01*
X1047938Y269981D01*
X1056452Y266454D01*
X1057715Y266288D01*
Y292679D01*
D02*
G37*
G36*
X518517Y275591D02*
X492126D01*
Y249199D01*
X493389Y249365D01*
X501903Y252892D01*
X509214Y258502D01*
X514824Y265814D01*
X518351Y274328D01*
X518517Y275591D01*
D02*
G37*
G36*
X476378D02*
X449987D01*
X450153Y274328D01*
X453680Y265814D01*
X459290Y258502D01*
X466601Y252892D01*
X475115Y249365D01*
X476378Y249199D01*
Y275591D01*
D02*
G37*
G36*
X704724Y199620D02*
Y173228D01*
X731116D01*
X730949Y174491D01*
X727423Y183005D01*
X721813Y190317D01*
X714501Y195927D01*
X705987Y199453D01*
X704724Y199620D01*
D02*
G37*
G36*
X688976D02*
X687714Y199453D01*
X679199Y195927D01*
X671888Y190317D01*
X666278Y183005D01*
X662751Y174491D01*
X662585Y173228D01*
X688976D01*
Y199620D01*
D02*
G37*
G36*
X731116Y157480D02*
X704724D01*
Y131089D01*
X705987Y131255D01*
X714501Y134782D01*
X721813Y140392D01*
X727423Y147703D01*
X730949Y156218D01*
X731116Y157480D01*
D02*
G37*
G36*
X688976D02*
X662585D01*
X662751Y156218D01*
X666278Y147703D01*
X671888Y140392D01*
X679199Y134782D01*
X687714Y131255D01*
X688976Y131089D01*
Y157480D01*
D02*
G37*
G36*
X1142756Y164016D02*
X1062756D01*
Y84016D01*
X1142756D01*
Y164016D01*
D02*
G37*
G36*
X499646D02*
X419646D01*
Y84016D01*
X499646D01*
Y164016D01*
D02*
G37*
G36*
X1128937Y437786D02*
X1118495Y436411D01*
X1108764Y432381D01*
X1100409Y425969D01*
X1093997Y417613D01*
X1089966Y407883D01*
X1088592Y397441D01*
X1089966Y386999D01*
X1093997Y377268D01*
X1100409Y368913D01*
X1108764Y362501D01*
X1118495Y358470D01*
X1128937Y357096D01*
X1139379Y358470D01*
X1141328Y359277D01*
X1184532Y316073D01*
Y159763D01*
X1182583Y158956D01*
X1174227Y152544D01*
X1167816Y144188D01*
X1163785Y134458D01*
X1162411Y124016D01*
X1163785Y113574D01*
X1167816Y103843D01*
X1174227Y95487D01*
X1182583Y89076D01*
X1192314Y85045D01*
X1202756Y83671D01*
X1213198Y85045D01*
X1222928Y89076D01*
X1231284Y95487D01*
X1237696Y103843D01*
X1241726Y113574D01*
X1243101Y124016D01*
X1241726Y134458D01*
X1237696Y144188D01*
X1231284Y152544D01*
X1222928Y158956D01*
X1220980Y159763D01*
Y323622D01*
X1220980Y323622D01*
X1219593Y330596D01*
X1215642Y336509D01*
X1215642Y336509D01*
X1167101Y385050D01*
X1167908Y386999D01*
X1169282Y397441D01*
X1167908Y407883D01*
X1163877Y417613D01*
X1157465Y425969D01*
X1149110Y432381D01*
X1139379Y436411D01*
X1128937Y437786D01*
D02*
G37*
G36*
X821496Y162047D02*
X741496D01*
Y82047D01*
X821496D01*
Y162047D01*
D02*
G37*
%LPD*%
G36*
X1080657Y636681D02*
X1080657Y636680D01*
X1086569Y632730D01*
X1093543Y631343D01*
X1093544Y631343D01*
X1099634D01*
X1101241Y626608D01*
X1100409Y625969D01*
X1093997Y617614D01*
X1093190Y615665D01*
X1033071D01*
X1033071Y615665D01*
X1026097Y614278D01*
X1020184Y610327D01*
X846908Y437051D01*
X841629Y438843D01*
X841186Y442208D01*
X837659Y450722D01*
X832049Y458033D01*
X825311Y463204D01*
Y885494D01*
X829930Y887407D01*
X1080657Y636681D01*
D02*
G37*
%LPC*%
G36*
X933071Y668124D02*
Y641732D01*
X959462D01*
X959296Y642995D01*
X955769Y651509D01*
X950159Y658821D01*
X942848Y664431D01*
X934334Y667957D01*
X933071Y668124D01*
D02*
G37*
G36*
X917323D02*
X916060Y667957D01*
X907546Y664431D01*
X900235Y658821D01*
X894625Y651509D01*
X891098Y642995D01*
X890932Y641732D01*
X917323D01*
Y668124D01*
D02*
G37*
G36*
X959462Y625984D02*
X933071D01*
Y599593D01*
X934334Y599759D01*
X942848Y603286D01*
X950159Y608896D01*
X955769Y616207D01*
X959296Y624721D01*
X959462Y625984D01*
D02*
G37*
G36*
X917323D02*
X890932D01*
X891098Y624721D01*
X894625Y616207D01*
X900235Y608896D01*
X907546Y603286D01*
X916060Y599759D01*
X917323Y599593D01*
Y625984D01*
D02*
G37*
%LPD*%
D10*
X1078740Y3480315D02*
D03*
X1005906D02*
D03*
X1352362Y2696850D02*
D03*
X1279528D02*
D03*
X1099409Y3307087D02*
D03*
X1026575D02*
D03*
D11*
X1279528Y2598425D02*
D03*
X1352362D02*
D03*
D12*
X1187168Y3175357D02*
D03*
X1135666Y3123855D02*
D03*
D13*
X931102Y2950197D02*
D03*
Y3000197D02*
D03*
Y3050197D02*
D03*
Y3100197D02*
D03*
Y3150197D02*
D03*
Y3200197D02*
D03*
Y3250197D02*
D03*
Y3300197D02*
D03*
X718504Y2950197D02*
D03*
Y3000197D02*
D03*
Y3050197D02*
D03*
Y3100197D02*
D03*
Y3150197D02*
D03*
Y3200197D02*
D03*
Y3250197D02*
D03*
Y3300197D02*
D03*
D14*
X537562Y3104170D02*
D03*
X486060Y3155672D02*
D03*
D15*
X881496Y250000D02*
X1128937Y497441D01*
X881496Y122047D02*
Y250000D01*
X528937Y1597441D02*
X832835Y1293543D01*
Y910276D02*
Y1293543D01*
X807087Y433071D02*
Y1019291D01*
X528937Y1297441D02*
X807087Y1019291D01*
X832835Y910276D02*
X1093543Y649567D01*
X670118Y2755079D02*
X925197Y2500000D01*
X670118Y2755079D02*
Y3120512D01*
X699803Y3150197D01*
X718504D01*
X189961Y1300197D02*
X346457Y1143701D01*
Y779921D02*
Y1143701D01*
Y779921D02*
X528937Y597441D01*
X185039Y949803D02*
X295276Y1060039D01*
Y1112822D01*
X286051Y1122047D02*
X295276Y1112822D01*
X216535Y1122047D02*
X286051D01*
X98425Y1003937D02*
X216535Y1122047D01*
X98425Y593504D02*
Y1003937D01*
Y593504D02*
X185039Y506890D01*
X881339Y949370D02*
X925197Y905512D01*
X881339Y949370D02*
Y1345039D01*
X528937Y1697441D02*
X881339Y1345039D01*
X1093543Y649567D02*
X1251476D01*
X883858Y1732284D02*
X925197D01*
X766575Y1849567D02*
X883858Y1732284D01*
X474173Y3024567D02*
X699803Y3250197D01*
X223465Y3024567D02*
X474173D01*
X175591Y3072441D02*
X223465Y3024567D01*
X699803Y3250197D02*
X718504D01*
X623032Y3300197D02*
X718504D01*
X395276Y3072441D02*
X623032Y3300197D01*
X275591Y3072441D02*
X395276D01*
X1119882Y3250197D02*
X1240158Y3129921D01*
X1251339Y3118740D01*
X1428504D01*
X1476378Y3070866D01*
X931102Y3250197D02*
X1119882D01*
X1051772Y3200197D02*
X1181102Y3070866D01*
X931102Y3200197D02*
X1051772D01*
X1181102Y3070866D02*
X1376378D01*
X972835Y3146260D02*
X1052165Y3066929D01*
X935039Y3146260D02*
X972835D01*
X1278543Y2597441D02*
X1279528Y2598425D01*
X1128937Y2597441D02*
X1278543D01*
X664370Y1742126D02*
X795275D01*
X923228Y1614173D01*
X315787Y1849567D02*
X766575D01*
X528937Y1797441D02*
X927165Y1399213D01*
Y1055118D02*
Y1399213D01*
X290551Y1874803D02*
X315787Y1849567D01*
X185039Y1874803D02*
X290551D01*
X924213Y1052165D02*
X927165Y1055118D01*
X815945Y2769685D02*
X987205Y2598425D01*
X987205Y839173D01*
X1128937Y697441D01*
X1052165Y874212D02*
X1128937Y797441D01*
X1052165Y3066929D02*
X1052165Y874212D01*
X1251476Y649567D02*
X1259901Y657992D01*
X1417835D01*
X1439961Y680118D01*
X815945Y2769685D02*
Y3121457D01*
X737205Y3200197D02*
X815945Y3121457D01*
X718504Y3200197D02*
X737205D01*
X931102Y3150197D02*
X935039Y3146260D01*
X306693Y1974803D02*
X384055Y1897441D01*
X528937D01*
X185039Y1974803D02*
X306693D01*
X314961Y2074803D02*
X392323Y1997441D01*
X528937D01*
X185039Y2074803D02*
X314961D01*
X322244Y2174803D02*
X399606Y2097441D01*
X528937D01*
X185039Y2174803D02*
X322244D01*
X319685Y2274803D02*
X397047Y2197441D01*
X528937D01*
X185039Y2274803D02*
X319685D01*
X405512Y2292323D02*
X523819D01*
X528937Y2297441D01*
X323031Y2374803D02*
X405512Y2292323D01*
X185039Y2374803D02*
X323031D01*
X342126Y2474803D02*
X419488Y2397441D01*
X528937D01*
X185039Y2474803D02*
X342126D01*
X1256988Y1801280D02*
X1260827Y1805118D01*
X1132776Y1801280D02*
X1256988D01*
X1128937Y1797441D02*
X1132776Y1801280D01*
X1255315Y1997441D02*
X1458661Y1794094D01*
X1128937Y1997441D02*
X1255315D01*
X1271260Y1697441D02*
X1318898Y1745079D01*
X1128937Y1697441D02*
X1271260D01*
X1255315Y1897441D02*
X1458661Y1694094D01*
X1128937Y1897441D02*
X1255315D01*
X1456988Y2095768D02*
X1458661Y2094095D01*
X1130610Y2095768D02*
X1456988D01*
X1128937Y2097441D02*
X1130610Y2095768D01*
X1456988Y2195768D02*
X1458661Y2194095D01*
X1130610Y2195768D02*
X1456988D01*
X1128937Y2197441D02*
X1130610Y2195768D01*
X1456988Y2295768D02*
X1458661Y2294095D01*
X1130610Y2295768D02*
X1456988D01*
X1128937Y2297441D02*
X1130610Y2295768D01*
X1455315Y2397441D02*
X1458661Y2394095D01*
X1128937Y2397441D02*
X1455315D01*
X1264678Y936024D02*
X1269685D01*
X1226095Y897441D02*
X1264678Y936024D01*
X1128937Y897441D02*
X1226095D01*
X1282874Y997441D02*
X1329724Y1044291D01*
X1128937Y997441D02*
X1282874D01*
X1432247Y1080118D02*
X1439961D01*
X1414925Y1097441D02*
X1432247Y1080118D01*
X1128937Y1097441D02*
X1414925D01*
X189961Y1500197D02*
X398622Y1291535D01*
Y827756D02*
Y1291535D01*
Y827756D02*
X528937Y697441D01*
Y497441D02*
Y502319D01*
X185039Y846216D02*
X528937Y502319D01*
X185039Y846216D02*
Y849803D01*
X524212Y402165D02*
X528937Y397441D01*
X189764Y402165D02*
X524212D01*
X185039Y406890D02*
X189764Y402165D01*
X1033071Y597441D02*
X1128937D01*
X559646Y124016D02*
X1033071Y597441D01*
X1128937Y397441D02*
X1202756Y323622D01*
Y124016D02*
Y323622D01*
X521437Y1904941D02*
X528937Y1897441D01*
X521437Y2004941D02*
X528937Y1997441D01*
X521437Y2104941D02*
X528937Y2097441D01*
X521437Y2204941D02*
X528937Y2197441D01*
X521437Y2304941D02*
X528937Y2297441D01*
X521437Y2404941D02*
X528937Y2397441D01*
D16*
X967520Y3385827D02*
X1006890Y3425197D01*
X1046260Y3385827D01*
X1006890Y3405512D02*
Y3425197D01*
Y3357284D02*
Y3405512D01*
X1241732Y2697146D02*
X1279232D01*
X1204232Y2734646D02*
X1241732Y2697146D01*
X1129232D02*
X1166732D01*
X1204232Y2734646D01*
X175591Y3272441D02*
X288976Y3385827D01*
X967520D01*
X1006890Y3425197D02*
Y3484252D01*
X1046260Y3385827D02*
X1261417D01*
X1376378Y3270866D01*
X1006890Y3333661D02*
Y3357284D01*
X949803Y3300197D02*
X1006890Y3357284D01*
X931102Y3300197D02*
X949803D01*
X1026575Y3307087D02*
Y3313976D01*
X1006890Y3333661D02*
X1026575Y3313976D01*
X1006890Y3484252D02*
Y3601272D01*
X886929Y3721232D02*
X1006890Y3601272D01*
X886929Y3721232D02*
Y3725000D01*
D17*
X1279232Y2697146D02*
X1279528Y2696850D01*
X1128937Y2697441D02*
X1129232Y2697146D01*
D18*
X1439961Y680118D02*
D03*
X185039Y306890D02*
D03*
Y749803D02*
D03*
X189961Y1200197D02*
D03*
X1458661Y2394095D02*
D03*
X1376378Y3270866D02*
D03*
X185039Y1774803D02*
D03*
X175591Y3272441D02*
D03*
D19*
X1439961Y780118D02*
D03*
Y880118D02*
D03*
Y980118D02*
D03*
Y1080118D02*
D03*
Y1180118D02*
D03*
Y1280118D02*
D03*
Y1380118D02*
D03*
X1202756Y124016D02*
D03*
X881496Y122047D02*
D03*
X559646Y124016D02*
D03*
X185039Y406890D02*
D03*
Y506890D02*
D03*
Y849803D02*
D03*
Y949803D02*
D03*
X189961Y1500197D02*
D03*
Y1400197D02*
D03*
Y1300197D02*
D03*
X1128937Y1097441D02*
D03*
Y1197441D02*
D03*
Y1297441D02*
D03*
Y2697441D02*
D03*
Y2597441D02*
D03*
Y2497441D02*
D03*
X528937Y1297441D02*
D03*
X1128937Y997441D02*
D03*
Y897441D02*
D03*
Y797441D02*
D03*
Y697441D02*
D03*
Y597441D02*
D03*
Y497441D02*
D03*
Y397441D02*
D03*
X528937D02*
D03*
Y497441D02*
D03*
Y597441D02*
D03*
Y697441D02*
D03*
Y797441D02*
D03*
Y897441D02*
D03*
Y997441D02*
D03*
Y1097441D02*
D03*
Y1197441D02*
D03*
X1128937Y2397441D02*
D03*
Y2297441D02*
D03*
Y2197441D02*
D03*
Y2097441D02*
D03*
Y1997441D02*
D03*
Y1897441D02*
D03*
Y1797441D02*
D03*
Y1697441D02*
D03*
Y1597441D02*
D03*
Y1497441D02*
D03*
Y1397441D02*
D03*
X528937D02*
D03*
Y1497441D02*
D03*
Y1597441D02*
D03*
Y1697441D02*
D03*
Y1797441D02*
D03*
Y1897441D02*
D03*
Y1997441D02*
D03*
Y2097441D02*
D03*
Y2197441D02*
D03*
Y2297441D02*
D03*
Y2397441D02*
D03*
Y2497441D02*
D03*
Y2597441D02*
D03*
Y2697441D02*
D03*
X1458661Y1694094D02*
D03*
Y1794094D02*
D03*
Y1894094D02*
D03*
Y1994094D02*
D03*
Y2094095D02*
D03*
Y2194095D02*
D03*
Y2294095D02*
D03*
X1476378Y3270866D02*
D03*
Y3170866D02*
D03*
X1376378D02*
D03*
Y3070866D02*
D03*
Y2970866D02*
D03*
Y2870866D02*
D03*
X1476378Y3070866D02*
D03*
Y2970866D02*
D03*
Y2870866D02*
D03*
X185039Y2474803D02*
D03*
Y2374803D02*
D03*
Y2274803D02*
D03*
Y2174803D02*
D03*
Y2074803D02*
D03*
Y1974803D02*
D03*
Y1874803D02*
D03*
X275591Y3272441D02*
D03*
Y3172441D02*
D03*
X175591D02*
D03*
Y3072441D02*
D03*
Y2972441D02*
D03*
Y2872441D02*
D03*
X275591Y3072441D02*
D03*
Y2972441D02*
D03*
Y2872441D02*
D03*
D20*
X1102756Y124016D02*
D03*
X781496Y122047D02*
D03*
X459646Y124016D02*
D03*
D21*
X603465Y3725000D02*
D03*
X886929D02*
D03*
D22*
X1496063Y3838583D02*
D03*
X157480D02*
D03*
Y157480D02*
D03*
X1496063D02*
D03*
D23*
X685039Y2598425D02*
D03*
X681102Y2350394D02*
D03*
X877953Y2196850D02*
D03*
X677165Y1984252D02*
D03*
X893701Y1874016D02*
D03*
X86614Y3027559D02*
D03*
X570866Y2984252D02*
D03*
X413386Y2661417D02*
D03*
X476378Y2799213D02*
D03*
X244095Y2724409D02*
D03*
X78740Y2330709D02*
D03*
X216535Y1673228D02*
D03*
X401575Y1448819D02*
D03*
X307087Y1279528D02*
D03*
X287402Y905512D02*
D03*
X106299Y1389764D02*
D03*
X110236Y1133858D02*
D03*
X267716Y314961D02*
D03*
X185039Y669291D02*
D03*
X318898Y547244D02*
D03*
X818898Y1618110D02*
D03*
X669291Y1330709D02*
D03*
Y921260D02*
D03*
X673228Y511811D02*
D03*
X925197Y633858D02*
D03*
X484252Y283465D02*
D03*
X696850Y165354D02*
D03*
X1065589Y300553D02*
D03*
X1409449Y460630D02*
D03*
X1255906Y736221D02*
D03*
X1346457Y956693D02*
D03*
X1547244Y976378D02*
D03*
X1566929Y1381890D02*
D03*
X1287402Y1204724D02*
D03*
X1307087Y1559055D02*
D03*
X1346457Y2019685D02*
D03*
X1334646Y2511811D02*
D03*
X1437008Y2649606D02*
D03*
X1346457Y2779528D02*
D03*
X1287402Y2944882D02*
D03*
X1425197Y3590551D02*
D03*
X1086614Y3570866D02*
D03*
X779528Y3885827D02*
D03*
X1248032Y3818898D02*
D03*
X421260Y3929134D02*
D03*
X149606Y3586614D02*
D03*
X393701Y3259843D02*
D03*
X960630Y2775591D02*
D03*
X1185039Y3295276D02*
D03*
X826772Y3212598D02*
D03*
X736221Y2877953D02*
D03*
X602362Y3488189D02*
D03*
X807087Y433071D02*
D03*
X925197Y2500000D02*
D03*
X286051Y1122047D02*
D03*
X925197Y905512D02*
D03*
Y1732284D02*
D03*
X1204232Y2734646D02*
D03*
X1006890Y3405512D02*
D03*
X664370Y1742126D02*
D03*
X923228Y1614173D02*
D03*
X924213Y1052165D02*
D03*
X1260827Y1805118D02*
D03*
X1318898Y1745079D02*
D03*
X1269685Y936024D02*
D03*
X1329724Y1044291D02*
D03*
D24*
X1003937Y3027559D02*
D03*
%TF.MD5,227c8388c589580d4866565fb40b9306*%
M02*
