M48
;Layer_Color=9474304
;FILE_FORMAT=2:5
INCH,LZ
;TYPE=PLATED
T1F00S00C0.01575
T2F00S00C0.02799
T3F00S00C0.02800
T4F00S00C0.04000
T5F00S00C0.04016
T6F00S00C0.13780
T7F00S00C0.17717
%
T01
X0100394Y0302756
T02
X0026772Y0031496
X0048425Y0028346
X0069685Y0016535
X0067323Y0051181
X003189Y0054724
X0106559Y0030055
X0140945Y0046063
X0125591Y0073622
X0134646Y0095669
X0154724Y0097638
X0156693Y0138189
X0130709Y0155905
X012874Y0120472
X0134646Y0201969
X009252Y0063386
X0066929Y0092126
X002874Y0090551
X0018504Y0066929
X0011024Y0113386
X001063Y0138976
X0030709Y0127953
X0040157Y0144882
X0066929Y0133071
X008189Y0161811
X008937Y0187402
X0067716Y0198425
X0021654Y0167323
X0007874Y0233071
X0024409Y0272441
X0041339Y0266142
X0047638Y0279921
X0057087Y0298425
X0073622Y0287795
X0068504Y0259842
X006811Y0235039
X0087795Y0219685
X0082677Y032126
X003937Y0325984
X0060236Y0348819
X0014961Y0358661
X0008661Y0302756
X0096063Y0277559
X0134646Y0277953
X0143701Y0264961
X0133465Y0251181
X012874Y0294488
X0118504Y0329528
X0108661Y0357087
X014252Y0359055
X0124803Y038189
X0077953Y0388583
X0042126Y0392913
T03
X0080709Y0043307
X009252Y0090551
X0092421Y0105217
X0132972Y0104429
X0126969Y0093602
X013189Y0174508
X0126083Y0180512
X009252Y0173228
X0092323Y0161417
X0066437Y0174213
X0028605Y0112205
X009252Y025
X0120423Y0273465
X0100689Y0340551
T04
X0052894Y0039744
Y0049744
X0112894
Y0039744
Y0059744
Y0069744
Y0079744
Y0089744
Y0099744
Y0109744
Y0119744
Y0129744
Y0139744
Y0149744
Y0159744
Y0169744
Y0179744
Y0189744
Y0199744
Y0209744
X0052894
Y0199744
Y0189744
Y0179744
Y0169744
Y0159744
Y0149744
Y0139744
Y0129744
Y0119744
Y0109744
Y0099744
Y0089744
Y0079744
Y0069744
Y0059744
Y0219744
Y0229744
Y0239744
Y0249744
Y0259744
Y0269744
X0112894
Y0259744
Y0249744
Y0239744
Y0229744
Y0219744
T05
X0018504Y0030689
Y0040689
Y0050689
X0045965Y0012402
X0055965
X007815Y0012205
X008815
X0110276Y0012402
X0120276
X0143996Y0068012
Y0078012
Y0088012
Y0098012
Y0108012
Y0118012
Y0128012
Y0138012
X0145866Y0169409
Y0179409
Y0189409
Y0199409
Y0209409
X0018504Y020748
Y019748
Y018748
Y017748
X0018996Y015002
Y014002
Y013002
Y012002
X0018504Y009498
Y008498
Y007498
Y021748
Y022748
Y023748
Y024748
X0017559Y0287244
Y0297244
Y0307244
Y0317244
X0027559
Y0327244
X0017559
X0027559Y0307244
Y0297244
Y0287244
X0137638Y0287087
Y0297087
Y0307087
Y0317087
X0147638
Y0327087
X0137638
X0147638Y0307087
Y0297087
Y0287087
X0145866Y0239409
Y022941
Y0219409
T06
X0015748Y0015748
X0149606
Y0383858
X0015748
T07
X0060347Y03725
X0088693
M30
