%TF.GenerationSoftware,Altium Limited,Altium Designer,19.1.8 (144)*%
G04 Layer_Color=8421504*
%FSLAX26Y26*%
%MOIN*%
%TF.FileFunction,Paste,Top*%
%TF.Part,Single*%
G01*
G75*
%TA.AperFunction,SMDPad,CuDef*%
%ADD10R,0.041339X0.055118*%
%ADD11R,0.041339X0.051181*%
G04:AMPARAMS|DCode=12|XSize=51.181mil|YSize=41.339mil|CornerRadius=0mil|HoleSize=0mil|Usage=FLASHONLY|Rotation=315.000|XOffset=0mil|YOffset=0mil|HoleType=Round|Shape=Rectangle|*
%AMROTATEDRECTD12*
4,1,4,-0.032711,0.003480,-0.003480,0.032711,0.032711,-0.003480,0.003480,-0.032711,-0.032711,0.003480,0.0*
%
%ADD12ROTATEDRECTD12*%

%ADD13R,0.061024X0.023622*%
G04:AMPARAMS|DCode=14|XSize=51.181mil|YSize=41.339mil|CornerRadius=0mil|HoleSize=0mil|Usage=FLASHONLY|Rotation=225.000|XOffset=0mil|YOffset=0mil|HoleType=Round|Shape=Rectangle|*
%AMROTATEDRECTD14*
4,1,4,0.003480,0.032711,0.032711,0.003480,-0.003480,-0.032711,-0.032711,-0.003480,0.003480,0.032711,0.0*
%
%ADD14ROTATEDRECTD14*%

D10*
X1078740Y3480315D02*
D03*
X1005906D02*
D03*
X1352362Y2696850D02*
D03*
X1279528D02*
D03*
X1099409Y3307087D02*
D03*
X1026575D02*
D03*
D11*
X1279528Y2598425D02*
D03*
X1352362D02*
D03*
D12*
X1187168Y3175357D02*
D03*
X1135666Y3123855D02*
D03*
D13*
X931102Y2950197D02*
D03*
Y3000197D02*
D03*
Y3050197D02*
D03*
Y3100197D02*
D03*
Y3150197D02*
D03*
Y3200197D02*
D03*
Y3250197D02*
D03*
Y3300197D02*
D03*
X718504Y2950197D02*
D03*
Y3000197D02*
D03*
Y3050197D02*
D03*
Y3100197D02*
D03*
Y3150197D02*
D03*
Y3200197D02*
D03*
Y3250197D02*
D03*
Y3300197D02*
D03*
D14*
X537562Y3104170D02*
D03*
X486060Y3155672D02*
D03*
%TF.MD5,32e3a5277e19cb594c537f8480ea85b1*%
M02*
