G04*
G04 #@! TF.GenerationSoftware,Altium Limited,Altium Designer,19.1.8 (144)*
G04*
G04 Layer_Physical_Order=2*
G04 Layer_Color=16711680*
%FSLAX25Y25*%
%MOIN*%
G70*
G01*
G75*
%ADD30C,0.01575*%
%ADD31C,0.02362*%
%ADD33R,0.06000X0.06000*%
%ADD34C,0.06000*%
%ADD35R,0.06000X0.06000*%
%ADD36C,0.23622*%
%ADD37C,0.15748*%
%ADD38C,0.05000*%
%ADD39C,0.03543*%
G36*
X137795Y372047D02*
X162598D01*
Y29921D01*
X136614D01*
Y2362D01*
X28740D01*
Y24803D01*
X1969D01*
Y372047D01*
X27559D01*
Y398425D01*
X137795D01*
Y372047D01*
D02*
G37*
%LPC*%
G36*
X42913Y396340D02*
Y393701D01*
X45553D01*
X45536Y393827D01*
X45183Y394678D01*
X44622Y395410D01*
X43891Y395971D01*
X43040Y396323D01*
X42913Y396340D01*
D02*
G37*
G36*
X41339D02*
X41212Y396323D01*
X40361Y395971D01*
X39630Y395410D01*
X39069Y394678D01*
X38716Y393827D01*
X38699Y393701D01*
X41339D01*
Y396340D01*
D02*
G37*
G36*
X45553Y392126D02*
X42913D01*
Y389487D01*
X43040Y389504D01*
X43891Y389856D01*
X44622Y390417D01*
X45183Y391148D01*
X45536Y392000D01*
X45553Y392126D01*
D02*
G37*
G36*
X41339D02*
X38699D01*
X38716Y392000D01*
X39069Y391148D01*
X39630Y390417D01*
X40361Y389856D01*
X41212Y389504D01*
X41339Y389487D01*
Y392126D01*
D02*
G37*
G36*
X78740Y392009D02*
Y389370D01*
X81379D01*
X81363Y389496D01*
X81010Y390348D01*
X80449Y391079D01*
X79718Y391640D01*
X78866Y391993D01*
X78740Y392009D01*
D02*
G37*
G36*
X77165D02*
X77039Y391993D01*
X76188Y391640D01*
X75457Y391079D01*
X74896Y390348D01*
X74543Y389496D01*
X74526Y389370D01*
X77165D01*
Y392009D01*
D02*
G37*
G36*
X81379Y387795D02*
X78740D01*
Y385156D01*
X78866Y385173D01*
X79718Y385525D01*
X80449Y386087D01*
X81010Y386818D01*
X81363Y387669D01*
X81379Y387795D01*
D02*
G37*
G36*
X77165D02*
X74526D01*
X74543Y387669D01*
X74896Y386818D01*
X75457Y386087D01*
X76188Y385525D01*
X77039Y385173D01*
X77165Y385156D01*
Y387795D01*
D02*
G37*
G36*
X125591Y385316D02*
Y382677D01*
X128230D01*
X128213Y382803D01*
X127860Y383655D01*
X127299Y384386D01*
X126568Y384947D01*
X125717Y385300D01*
X125591Y385316D01*
D02*
G37*
G36*
X124016D02*
X123890Y385300D01*
X123038Y384947D01*
X122307Y384386D01*
X121746Y383655D01*
X121393Y382803D01*
X121377Y382677D01*
X124016D01*
Y385316D01*
D02*
G37*
G36*
X128230Y381102D02*
X125591D01*
Y378463D01*
X125717Y378480D01*
X126568Y378833D01*
X127299Y379394D01*
X127860Y380125D01*
X128213Y380976D01*
X128230Y381102D01*
D02*
G37*
G36*
X124016D02*
X121377D01*
X121393Y380976D01*
X121746Y380125D01*
X122307Y379394D01*
X123038Y378833D01*
X123890Y378480D01*
X124016Y378463D01*
Y381102D01*
D02*
G37*
G36*
X61134Y385289D02*
Y373287D01*
X73135D01*
X73039Y374510D01*
X72568Y376471D01*
X71797Y378334D01*
X70743Y380053D01*
X69433Y381587D01*
X67900Y382896D01*
X66180Y383950D01*
X64318Y384722D01*
X62357Y385192D01*
X61134Y385289D01*
D02*
G37*
G36*
X59559D02*
X58336Y385192D01*
X56375Y384722D01*
X54512Y383950D01*
X52793Y382896D01*
X51260Y381587D01*
X49950Y380053D01*
X48897Y378334D01*
X48125Y376471D01*
X47654Y374510D01*
X47558Y373287D01*
X59559D01*
Y385289D01*
D02*
G37*
G36*
X143307Y362482D02*
Y359842D01*
X145946D01*
X145930Y359969D01*
X145577Y360820D01*
X145016Y361551D01*
X144285Y362112D01*
X143433Y362465D01*
X143307Y362482D01*
D02*
G37*
G36*
X141732D02*
X141606Y362465D01*
X140755Y362112D01*
X140024Y361551D01*
X139462Y360820D01*
X139110Y359969D01*
X139093Y359842D01*
X141732D01*
Y362482D01*
D02*
G37*
G36*
X73135Y371713D02*
X61134D01*
Y359711D01*
X62357Y359808D01*
X64318Y360278D01*
X66180Y361050D01*
X67900Y362104D01*
X69433Y363413D01*
X70743Y364947D01*
X71797Y366666D01*
X72568Y368529D01*
X73039Y370490D01*
X73135Y371713D01*
D02*
G37*
G36*
X59559D02*
X47558D01*
X47654Y370490D01*
X48125Y368529D01*
X48897Y366666D01*
X49950Y364947D01*
X51260Y363413D01*
X52793Y362104D01*
X54512Y361050D01*
X56375Y360278D01*
X58336Y359808D01*
X59559Y359711D01*
Y371713D01*
D02*
G37*
G36*
X88693Y385351D02*
X86683Y385192D01*
X84722Y384722D01*
X82859Y383950D01*
X81139Y382896D01*
X79606Y381587D01*
X78297Y380053D01*
X77243Y378334D01*
X76471Y376471D01*
X76000Y374510D01*
X75842Y372500D01*
X76000Y370490D01*
X76471Y368529D01*
X77243Y366666D01*
X78297Y364947D01*
X79606Y363413D01*
X81139Y362104D01*
X82859Y361050D01*
X84722Y360278D01*
X86683Y359808D01*
X88693Y359649D01*
X90703Y359808D01*
X92664Y360278D01*
X94527Y361050D01*
X96246Y362104D01*
X97780Y363413D01*
X99089Y364947D01*
X100143Y366666D01*
X100915Y368529D01*
X101385Y370490D01*
X101544Y372500D01*
X101385Y374510D01*
X100915Y376471D01*
X100143Y378334D01*
X99089Y380053D01*
X97780Y381587D01*
X96246Y382896D01*
X94527Y383950D01*
X92664Y384722D01*
X90703Y385192D01*
X88693Y385351D01*
D02*
G37*
G36*
X15748Y362088D02*
Y359449D01*
X18387D01*
X18371Y359575D01*
X18018Y360426D01*
X17457Y361158D01*
X16726Y361719D01*
X15874Y362071D01*
X15748Y362088D01*
D02*
G37*
G36*
X14173D02*
X14047Y362071D01*
X13195Y361719D01*
X12464Y361158D01*
X11903Y360426D01*
X11551Y359575D01*
X11534Y359449D01*
X14173D01*
Y362088D01*
D02*
G37*
G36*
X109449Y360513D02*
Y357874D01*
X112088D01*
X112071Y358000D01*
X111719Y358852D01*
X111158Y359583D01*
X110426Y360144D01*
X109575Y360496D01*
X109449Y360513D01*
D02*
G37*
G36*
X107874D02*
X107748Y360496D01*
X106896Y360144D01*
X106165Y359583D01*
X105604Y358852D01*
X105252Y358000D01*
X105235Y357874D01*
X107874D01*
Y360513D01*
D02*
G37*
G36*
X145946Y358268D02*
X143307D01*
Y355629D01*
X143433Y355645D01*
X144285Y355998D01*
X145016Y356559D01*
X145577Y357290D01*
X145930Y358141D01*
X145946Y358268D01*
D02*
G37*
G36*
X141732D02*
X139093D01*
X139110Y358141D01*
X139462Y357290D01*
X140024Y356559D01*
X140755Y355998D01*
X141606Y355645D01*
X141732Y355629D01*
Y358268D01*
D02*
G37*
G36*
X18387Y357874D02*
X15748D01*
Y355235D01*
X15874Y355252D01*
X16726Y355604D01*
X17457Y356165D01*
X18018Y356896D01*
X18371Y357748D01*
X18387Y357874D01*
D02*
G37*
G36*
X14173D02*
X11534D01*
X11551Y357748D01*
X11903Y356896D01*
X12464Y356165D01*
X13195Y355604D01*
X14047Y355252D01*
X14173Y355235D01*
Y357874D01*
D02*
G37*
G36*
X112088Y356299D02*
X109449D01*
Y353660D01*
X109575Y353677D01*
X110426Y354029D01*
X111158Y354590D01*
X111719Y355322D01*
X112071Y356173D01*
X112088Y356299D01*
D02*
G37*
G36*
X107874D02*
X105235D01*
X105252Y356173D01*
X105604Y355322D01*
X106165Y354590D01*
X106896Y354029D01*
X107748Y353677D01*
X107874Y353660D01*
Y356299D01*
D02*
G37*
G36*
X61024Y352245D02*
Y349606D01*
X63663D01*
X63646Y349733D01*
X63293Y350584D01*
X62732Y351315D01*
X62001Y351876D01*
X61150Y352229D01*
X61024Y352245D01*
D02*
G37*
G36*
X59449D02*
X59323Y352229D01*
X58471Y351876D01*
X57740Y351315D01*
X57179Y350584D01*
X56826Y349733D01*
X56810Y349606D01*
X59449D01*
Y352245D01*
D02*
G37*
G36*
X63663Y348031D02*
X61024D01*
Y345392D01*
X61150Y345409D01*
X62001Y345762D01*
X62732Y346323D01*
X63293Y347054D01*
X63646Y347905D01*
X63663Y348031D01*
D02*
G37*
G36*
X59449D02*
X56810D01*
X56826Y347905D01*
X57179Y347054D01*
X57740Y346323D01*
X58471Y345762D01*
X59323Y345409D01*
X59449Y345392D01*
Y348031D01*
D02*
G37*
G36*
X119291Y332954D02*
Y330315D01*
X121931D01*
X121914Y330441D01*
X121561Y331293D01*
X121000Y332024D01*
X120269Y332585D01*
X119418Y332938D01*
X119291Y332954D01*
D02*
G37*
G36*
X40157Y329411D02*
Y326772D01*
X42797D01*
X42780Y326898D01*
X42427Y327749D01*
X41866Y328481D01*
X41135Y329042D01*
X40284Y329394D01*
X40157Y329411D01*
D02*
G37*
G36*
X38583D02*
X38456Y329394D01*
X37605Y329042D01*
X36874Y328481D01*
X36313Y327749D01*
X35960Y326898D01*
X35943Y326772D01*
X38583D01*
Y329411D01*
D02*
G37*
G36*
X21559Y331244D02*
X13559D01*
Y323244D01*
X21559D01*
Y331244D01*
D02*
G37*
G36*
X27559Y331279D02*
X26515Y331141D01*
X25542Y330738D01*
X24706Y330097D01*
X24065Y329261D01*
X23662Y328288D01*
X23525Y327244D01*
X23662Y326200D01*
X24065Y325227D01*
X24706Y324391D01*
X25542Y323750D01*
X26515Y323347D01*
X27559Y323210D01*
X28603Y323347D01*
X29576Y323750D01*
X30412Y324391D01*
X31053Y325227D01*
X31456Y326200D01*
X31594Y327244D01*
X31456Y328288D01*
X31053Y329261D01*
X30412Y330097D01*
X29576Y330738D01*
X28603Y331141D01*
X27559Y331279D01*
D02*
G37*
G36*
X141638Y331087D02*
X133638D01*
Y323087D01*
X141638D01*
Y331087D01*
D02*
G37*
G36*
X147638Y331121D02*
X146594Y330984D01*
X145621Y330581D01*
X144785Y329939D01*
X144144Y329104D01*
X143741Y328131D01*
X143603Y327087D01*
X143741Y326042D01*
X144144Y325069D01*
X144785Y324234D01*
X145621Y323593D01*
X146594Y323190D01*
X147638Y323052D01*
X148682Y323190D01*
X149655Y323593D01*
X150491Y324234D01*
X151132Y325069D01*
X151535Y326042D01*
X151672Y327087D01*
X151535Y328131D01*
X151132Y329104D01*
X150491Y329939D01*
X149655Y330581D01*
X148682Y330984D01*
X147638Y331121D01*
D02*
G37*
G36*
X42797Y325197D02*
X40157D01*
Y322558D01*
X40284Y322574D01*
X41135Y322927D01*
X41866Y323488D01*
X42427Y324219D01*
X42780Y325071D01*
X42797Y325197D01*
D02*
G37*
G36*
X38583D02*
X35943D01*
X35960Y325071D01*
X36313Y324219D01*
X36874Y323488D01*
X37605Y322927D01*
X38456Y322574D01*
X38583Y322558D01*
Y325197D01*
D02*
G37*
G36*
X83465Y324686D02*
Y322047D01*
X86104D01*
X86087Y322174D01*
X85734Y323025D01*
X85173Y323756D01*
X84442Y324317D01*
X83591Y324670D01*
X83465Y324686D01*
D02*
G37*
G36*
X81890D02*
X81763Y324670D01*
X80912Y324317D01*
X80181Y323756D01*
X79620Y323025D01*
X79267Y322174D01*
X79251Y322047D01*
X81890D01*
Y324686D01*
D02*
G37*
G36*
X28346Y321175D02*
Y318032D01*
X31490D01*
X31456Y318288D01*
X31053Y319261D01*
X30412Y320097D01*
X29576Y320738D01*
X28603Y321141D01*
X28346Y321175D01*
D02*
G37*
G36*
X26772D02*
X26515Y321141D01*
X25542Y320738D01*
X24706Y320097D01*
X24065Y319261D01*
X23662Y318288D01*
X23628Y318032D01*
X26772D01*
Y321175D01*
D02*
G37*
G36*
X148425Y321018D02*
Y317874D01*
X151569D01*
X151535Y318131D01*
X151132Y319104D01*
X150491Y319939D01*
X149655Y320581D01*
X148682Y320984D01*
X148425Y321018D01*
D02*
G37*
G36*
X146850D02*
X146594Y320984D01*
X145621Y320581D01*
X144785Y319939D01*
X144144Y319104D01*
X143741Y318131D01*
X143707Y317874D01*
X146850D01*
Y321018D01*
D02*
G37*
G36*
X86104Y320472D02*
X83465D01*
Y317833D01*
X83591Y317850D01*
X84442Y318203D01*
X85173Y318764D01*
X85734Y319495D01*
X86087Y320346D01*
X86104Y320472D01*
D02*
G37*
G36*
X81890D02*
X79251D01*
X79267Y320346D01*
X79620Y319495D01*
X80181Y318764D01*
X80912Y318203D01*
X81763Y317850D01*
X81890Y317833D01*
Y320472D01*
D02*
G37*
G36*
X26772Y316457D02*
X23628D01*
X23662Y316200D01*
X24065Y315227D01*
X24706Y314391D01*
X25542Y313750D01*
X26515Y313347D01*
X26772Y313313D01*
Y316457D01*
D02*
G37*
G36*
X31490D02*
X28346D01*
Y313313D01*
X28603Y313347D01*
X29576Y313750D01*
X30412Y314391D01*
X31053Y315227D01*
X31456Y316200D01*
X31490Y316457D01*
D02*
G37*
G36*
X17559Y321279D02*
X16515Y321141D01*
X15542Y320738D01*
X14706Y320097D01*
X14065Y319261D01*
X13662Y318288D01*
X13524Y317244D01*
X13662Y316200D01*
X14065Y315227D01*
X14706Y314391D01*
X15542Y313750D01*
X16515Y313347D01*
X17559Y313210D01*
X18603Y313347D01*
X19576Y313750D01*
X20412Y314391D01*
X21053Y315227D01*
X21456Y316200D01*
X21594Y317244D01*
X21456Y318288D01*
X21053Y319261D01*
X20412Y320097D01*
X19576Y320738D01*
X18603Y321141D01*
X17559Y321279D01*
D02*
G37*
G36*
X151569Y316299D02*
X148425D01*
Y313156D01*
X148682Y313190D01*
X149655Y313593D01*
X150491Y314234D01*
X151132Y315069D01*
X151535Y316042D01*
X151569Y316299D01*
D02*
G37*
G36*
X146850D02*
X143707D01*
X143741Y316042D01*
X144144Y315069D01*
X144785Y314234D01*
X145621Y313593D01*
X146594Y313190D01*
X146850Y313156D01*
Y316299D01*
D02*
G37*
G36*
X137638Y321121D02*
X136594Y320984D01*
X135620Y320581D01*
X134785Y319939D01*
X134144Y319104D01*
X133741Y318131D01*
X133603Y317087D01*
X133741Y316042D01*
X134144Y315069D01*
X134785Y314234D01*
X135620Y313593D01*
X136594Y313190D01*
X137638Y313052D01*
X138682Y313190D01*
X139655Y313593D01*
X140491Y314234D01*
X141132Y315069D01*
X141535Y316042D01*
X141672Y317087D01*
X141535Y318131D01*
X141132Y319104D01*
X140491Y319939D01*
X139655Y320581D01*
X138682Y320984D01*
X137638Y321121D01*
D02*
G37*
G36*
X101181Y305430D02*
Y303543D01*
X103068D01*
X102815Y304154D01*
X102371Y304733D01*
X101792Y305177D01*
X101181Y305430D01*
D02*
G37*
G36*
X99606D02*
X98996Y305177D01*
X98417Y304733D01*
X97973Y304154D01*
X97720Y303543D01*
X99606D01*
Y305430D01*
D02*
G37*
G36*
X9449Y306183D02*
Y303543D01*
X12088D01*
X12071Y303670D01*
X11719Y304521D01*
X11158Y305252D01*
X10426Y305813D01*
X9575Y306166D01*
X9449Y306183D01*
D02*
G37*
G36*
X7874D02*
X7748Y306166D01*
X6896Y305813D01*
X6165Y305252D01*
X5604Y304521D01*
X5252Y303670D01*
X5235Y303543D01*
X7874D01*
Y306183D01*
D02*
G37*
G36*
X27559Y311279D02*
X26515Y311141D01*
X25542Y310738D01*
X24706Y310097D01*
X24065Y309261D01*
X23662Y308288D01*
X23525Y307244D01*
X23662Y306200D01*
X24065Y305227D01*
X24706Y304391D01*
X25542Y303750D01*
X26515Y303347D01*
X27559Y303210D01*
X28603Y303347D01*
X29576Y303750D01*
X30412Y304391D01*
X31053Y305227D01*
X31456Y306200D01*
X31594Y307244D01*
X31456Y308288D01*
X31053Y309261D01*
X30412Y310097D01*
X29576Y310738D01*
X28603Y311141D01*
X27559Y311279D01*
D02*
G37*
G36*
X17559D02*
X16515Y311141D01*
X15542Y310738D01*
X14706Y310097D01*
X14065Y309261D01*
X13662Y308288D01*
X13524Y307244D01*
X13662Y306200D01*
X14065Y305227D01*
X14706Y304391D01*
X15542Y303750D01*
X16515Y303347D01*
X17559Y303210D01*
X18603Y303347D01*
X19576Y303750D01*
X20412Y304391D01*
X21053Y305227D01*
X21456Y306200D01*
X21594Y307244D01*
X21456Y308288D01*
X21053Y309261D01*
X20412Y310097D01*
X19576Y310738D01*
X18603Y311141D01*
X17559Y311279D01*
D02*
G37*
G36*
X147638Y311121D02*
X146594Y310984D01*
X145621Y310581D01*
X144785Y309939D01*
X144144Y309104D01*
X143741Y308131D01*
X143603Y307087D01*
X143741Y306042D01*
X144144Y305069D01*
X144785Y304234D01*
X145621Y303593D01*
X146594Y303190D01*
X147638Y303052D01*
X148682Y303190D01*
X149655Y303593D01*
X150491Y304234D01*
X151132Y305069D01*
X151535Y306042D01*
X151672Y307087D01*
X151535Y308131D01*
X151132Y309104D01*
X150491Y309939D01*
X149655Y310581D01*
X148682Y310984D01*
X147638Y311121D01*
D02*
G37*
G36*
X137638D02*
X136594Y310984D01*
X135620Y310581D01*
X134785Y309939D01*
X134144Y309104D01*
X133741Y308131D01*
X133603Y307087D01*
X133741Y306042D01*
X134144Y305069D01*
X134785Y304234D01*
X135620Y303593D01*
X136594Y303190D01*
X137638Y303052D01*
X138682Y303190D01*
X139655Y303593D01*
X140491Y304234D01*
X141132Y305069D01*
X141535Y306042D01*
X141672Y307087D01*
X141535Y308131D01*
X141132Y309104D01*
X140491Y309939D01*
X139655Y310581D01*
X138682Y310984D01*
X137638Y311121D01*
D02*
G37*
G36*
X103068Y301969D02*
X101181D01*
Y300082D01*
X101792Y300335D01*
X102371Y300779D01*
X102815Y301358D01*
X103068Y301969D01*
D02*
G37*
G36*
X99606D02*
X97720D01*
X97973Y301358D01*
X98417Y300779D01*
X98996Y300335D01*
X99606Y300082D01*
Y301969D01*
D02*
G37*
G36*
X12088D02*
X9449D01*
Y299329D01*
X9575Y299346D01*
X10426Y299699D01*
X11158Y300260D01*
X11719Y300991D01*
X12071Y301842D01*
X12088Y301969D01*
D02*
G37*
G36*
X7874D02*
X5235D01*
X5252Y301842D01*
X5604Y300991D01*
X6165Y300260D01*
X6896Y299699D01*
X7748Y299346D01*
X7874Y299329D01*
Y301969D01*
D02*
G37*
G36*
X57874Y301852D02*
Y299213D01*
X60513D01*
X60496Y299339D01*
X60144Y300190D01*
X59583Y300921D01*
X58852Y301482D01*
X58000Y301835D01*
X57874Y301852D01*
D02*
G37*
G36*
X56299D02*
X56173Y301835D01*
X55322Y301482D01*
X54590Y300921D01*
X54029Y300190D01*
X53677Y299339D01*
X53660Y299213D01*
X56299D01*
Y301852D01*
D02*
G37*
G36*
X129528Y297915D02*
Y295276D01*
X132167D01*
X132150Y295402D01*
X131797Y296253D01*
X131236Y296984D01*
X130505Y297545D01*
X129654Y297898D01*
X129528Y297915D01*
D02*
G37*
G36*
X127953D02*
X127826Y297898D01*
X126975Y297545D01*
X126244Y296984D01*
X125683Y296253D01*
X125330Y295402D01*
X125314Y295276D01*
X127953D01*
Y297915D01*
D02*
G37*
G36*
X60513Y297638D02*
X57874D01*
Y294999D01*
X58000Y295015D01*
X58852Y295368D01*
X59583Y295929D01*
X60144Y296660D01*
X60496Y297512D01*
X60513Y297638D01*
D02*
G37*
G36*
X56299D02*
X53660D01*
X53677Y297512D01*
X54029Y296660D01*
X54590Y295929D01*
X55322Y295368D01*
X56173Y295015D01*
X56299Y294999D01*
Y297638D01*
D02*
G37*
G36*
X27559Y301279D02*
X26515Y301141D01*
X25542Y300738D01*
X24706Y300097D01*
X24065Y299261D01*
X23662Y298288D01*
X23525Y297244D01*
X23662Y296200D01*
X24065Y295227D01*
X24706Y294391D01*
X25542Y293750D01*
X26515Y293347D01*
X27559Y293210D01*
X28603Y293347D01*
X29576Y293750D01*
X30412Y294391D01*
X31053Y295227D01*
X31456Y296200D01*
X31594Y297244D01*
X31456Y298288D01*
X31053Y299261D01*
X30412Y300097D01*
X29576Y300738D01*
X28603Y301141D01*
X27559Y301279D01*
D02*
G37*
G36*
X17559D02*
X16515Y301141D01*
X15542Y300738D01*
X14706Y300097D01*
X14065Y299261D01*
X13662Y298288D01*
X13524Y297244D01*
X13662Y296200D01*
X14065Y295227D01*
X14706Y294391D01*
X15542Y293750D01*
X16515Y293347D01*
X17559Y293210D01*
X18603Y293347D01*
X19576Y293750D01*
X20412Y294391D01*
X21053Y295227D01*
X21456Y296200D01*
X21594Y297244D01*
X21456Y298288D01*
X21053Y299261D01*
X20412Y300097D01*
X19576Y300738D01*
X18603Y301141D01*
X17559Y301279D01*
D02*
G37*
G36*
X147638Y301121D02*
X146594Y300984D01*
X145621Y300581D01*
X144785Y299939D01*
X144144Y299104D01*
X143741Y298131D01*
X143603Y297087D01*
X143741Y296042D01*
X144144Y295069D01*
X144785Y294234D01*
X145621Y293593D01*
X146594Y293190D01*
X147638Y293052D01*
X148682Y293190D01*
X149655Y293593D01*
X150491Y294234D01*
X151132Y295069D01*
X151535Y296042D01*
X151672Y297087D01*
X151535Y298131D01*
X151132Y299104D01*
X150491Y299939D01*
X149655Y300581D01*
X148682Y300984D01*
X147638Y301121D01*
D02*
G37*
G36*
X137638D02*
X136594Y300984D01*
X135620Y300581D01*
X134785Y299939D01*
X134144Y299104D01*
X133741Y298131D01*
X133603Y297087D01*
X133741Y296042D01*
X134144Y295069D01*
X134785Y294234D01*
X135620Y293593D01*
X136594Y293190D01*
X137638Y293052D01*
X138682Y293190D01*
X139655Y293593D01*
X140491Y294234D01*
X141132Y295069D01*
X141535Y296042D01*
X141672Y297087D01*
X141535Y298131D01*
X141132Y299104D01*
X140491Y299939D01*
X139655Y300581D01*
X138682Y300984D01*
X137638Y301121D01*
D02*
G37*
G36*
X132167Y293701D02*
X129528D01*
Y291062D01*
X129654Y291078D01*
X130505Y291431D01*
X131236Y291992D01*
X131797Y292723D01*
X132150Y293575D01*
X132167Y293701D01*
D02*
G37*
G36*
X127953D02*
X125314D01*
X125330Y293575D01*
X125683Y292723D01*
X126244Y291992D01*
X126975Y291431D01*
X127826Y291078D01*
X127953Y291062D01*
Y293701D01*
D02*
G37*
G36*
X74410Y291222D02*
Y288583D01*
X77049D01*
X77032Y288709D01*
X76679Y289560D01*
X76118Y290292D01*
X75387Y290852D01*
X74536Y291205D01*
X74410Y291222D01*
D02*
G37*
G36*
X72835D02*
X72708Y291205D01*
X71857Y290852D01*
X71126Y290292D01*
X70565Y289560D01*
X70212Y288709D01*
X70196Y288583D01*
X72835D01*
Y291222D01*
D02*
G37*
G36*
X77049Y287008D02*
X74410D01*
Y284369D01*
X74536Y284385D01*
X75387Y284738D01*
X76118Y285299D01*
X76679Y286030D01*
X77032Y286882D01*
X77049Y287008D01*
D02*
G37*
G36*
X72835D02*
X70196D01*
X70212Y286882D01*
X70565Y286030D01*
X71126Y285299D01*
X71857Y284738D01*
X72708Y284385D01*
X72835Y284369D01*
Y287008D01*
D02*
G37*
G36*
X27559Y291279D02*
X26515Y291141D01*
X25542Y290738D01*
X24706Y290097D01*
X24065Y289261D01*
X23662Y288288D01*
X23525Y287244D01*
X23662Y286200D01*
X24065Y285227D01*
X24706Y284391D01*
X25542Y283750D01*
X26515Y283347D01*
X27559Y283210D01*
X28603Y283347D01*
X29576Y283750D01*
X30412Y284391D01*
X31053Y285227D01*
X31456Y286200D01*
X31594Y287244D01*
X31456Y288288D01*
X31053Y289261D01*
X30412Y290097D01*
X29576Y290738D01*
X28603Y291141D01*
X27559Y291279D01*
D02*
G37*
G36*
X17559D02*
X16515Y291141D01*
X15542Y290738D01*
X14706Y290097D01*
X14065Y289261D01*
X13662Y288288D01*
X13524Y287244D01*
X13662Y286200D01*
X14065Y285227D01*
X14706Y284391D01*
X15542Y283750D01*
X16515Y283347D01*
X17559Y283210D01*
X18603Y283347D01*
X19576Y283750D01*
X20412Y284391D01*
X21053Y285227D01*
X21456Y286200D01*
X21594Y287244D01*
X21456Y288288D01*
X21053Y289261D01*
X20412Y290097D01*
X19576Y290738D01*
X18603Y291141D01*
X17559Y291279D01*
D02*
G37*
G36*
X147638Y291121D02*
X146594Y290984D01*
X145621Y290581D01*
X144785Y289939D01*
X144144Y289104D01*
X143741Y288131D01*
X143603Y287087D01*
X143741Y286042D01*
X144144Y285069D01*
X144785Y284234D01*
X145621Y283593D01*
X146594Y283190D01*
X147638Y283052D01*
X148682Y283190D01*
X149655Y283593D01*
X150491Y284234D01*
X151132Y285069D01*
X151535Y286042D01*
X151672Y287087D01*
X151535Y288131D01*
X151132Y289104D01*
X150491Y289939D01*
X149655Y290581D01*
X148682Y290984D01*
X147638Y291121D01*
D02*
G37*
G36*
X137638D02*
X136594Y290984D01*
X135620Y290581D01*
X134785Y289939D01*
X134144Y289104D01*
X133741Y288131D01*
X133603Y287087D01*
X133741Y286042D01*
X134144Y285069D01*
X134785Y284234D01*
X135620Y283593D01*
X136594Y283190D01*
X137638Y283052D01*
X138682Y283190D01*
X139655Y283593D01*
X140491Y284234D01*
X141132Y285069D01*
X141535Y286042D01*
X141672Y287087D01*
X141535Y288131D01*
X141132Y289104D01*
X140491Y289939D01*
X139655Y290581D01*
X138682Y290984D01*
X137638Y291121D01*
D02*
G37*
G36*
X48425Y283348D02*
Y280709D01*
X51064D01*
X51048Y280835D01*
X50695Y281686D01*
X50134Y282417D01*
X49403Y282979D01*
X48551Y283331D01*
X48425Y283348D01*
D02*
G37*
G36*
X46850D02*
X46724Y283331D01*
X45873Y282979D01*
X45142Y282417D01*
X44581Y281686D01*
X44228Y280835D01*
X44211Y280709D01*
X46850D01*
Y283348D01*
D02*
G37*
G36*
X135433Y281379D02*
Y278740D01*
X138072D01*
X138056Y278866D01*
X137703Y279718D01*
X137142Y280449D01*
X136411Y281010D01*
X135559Y281363D01*
X135433Y281379D01*
D02*
G37*
G36*
X133858D02*
X133732Y281363D01*
X132881Y281010D01*
X132149Y280449D01*
X131588Y279718D01*
X131236Y278866D01*
X131219Y278740D01*
X133858D01*
Y281379D01*
D02*
G37*
G36*
X96850Y280986D02*
Y278346D01*
X99489D01*
X99473Y278473D01*
X99120Y279324D01*
X98559Y280055D01*
X97828Y280616D01*
X96977Y280969D01*
X96850Y280986D01*
D02*
G37*
G36*
X95276D02*
X95149Y280969D01*
X94298Y280616D01*
X93567Y280055D01*
X93006Y279324D01*
X92653Y278473D01*
X92637Y278346D01*
X95276D01*
Y280986D01*
D02*
G37*
G36*
X51064Y279134D02*
X48425D01*
Y276495D01*
X48551Y276511D01*
X49403Y276864D01*
X50134Y277425D01*
X50695Y278156D01*
X51048Y279008D01*
X51064Y279134D01*
D02*
G37*
G36*
X46850D02*
X44211D01*
X44228Y279008D01*
X44581Y278156D01*
X45142Y277425D01*
X45873Y276864D01*
X46724Y276511D01*
X46850Y276495D01*
Y279134D01*
D02*
G37*
G36*
X138072Y277165D02*
X135433D01*
Y274526D01*
X135559Y274543D01*
X136411Y274896D01*
X137142Y275457D01*
X137703Y276188D01*
X138056Y277039D01*
X138072Y277165D01*
D02*
G37*
G36*
X133858D02*
X131219D01*
X131236Y277039D01*
X131588Y276188D01*
X132149Y275457D01*
X132881Y274896D01*
X133732Y274543D01*
X133858Y274526D01*
Y277165D01*
D02*
G37*
G36*
X99489Y276772D02*
X96850D01*
Y274132D01*
X96977Y274149D01*
X97828Y274502D01*
X98559Y275063D01*
X99120Y275794D01*
X99473Y276645D01*
X99489Y276772D01*
D02*
G37*
G36*
X95276D02*
X92637D01*
X92653Y276645D01*
X93006Y275794D01*
X93567Y275063D01*
X94298Y274502D01*
X95149Y274149D01*
X95276Y274132D01*
Y276772D01*
D02*
G37*
G36*
X25197Y275868D02*
Y273228D01*
X27836D01*
X27819Y273355D01*
X27467Y274206D01*
X26906Y274937D01*
X26175Y275498D01*
X25323Y275851D01*
X25197Y275868D01*
D02*
G37*
G36*
X23622D02*
X23496Y275851D01*
X22644Y275498D01*
X21913Y274937D01*
X21352Y274206D01*
X21000Y273355D01*
X20983Y273228D01*
X23622D01*
Y275868D01*
D02*
G37*
G36*
X53681Y273675D02*
Y270532D01*
X56825D01*
X56791Y270788D01*
X56388Y271761D01*
X55747Y272597D01*
X54911Y273238D01*
X53938Y273641D01*
X53681Y273675D01*
D02*
G37*
G36*
X52106D02*
X51850Y273641D01*
X50876Y273238D01*
X50041Y272597D01*
X49400Y271761D01*
X48997Y270788D01*
X48963Y270532D01*
X52106D01*
Y273675D01*
D02*
G37*
G36*
X100689Y344081D02*
X99775Y343961D01*
X98924Y343608D01*
X98193Y343047D01*
X97632Y342316D01*
X97279Y341465D01*
X97159Y340551D01*
X97279Y339637D01*
X97632Y338786D01*
X98193Y338055D01*
X98924Y337494D01*
X99775Y337141D01*
X100689Y337021D01*
X101029Y337066D01*
X118199Y319896D01*
Y276170D01*
X117927Y275961D01*
X117366Y275230D01*
X117013Y274378D01*
X116893Y273465D01*
X117013Y272551D01*
X117366Y271700D01*
X117927Y270968D01*
X118658Y270407D01*
X119510Y270055D01*
X120423Y269934D01*
X121337Y270055D01*
X122188Y270407D01*
X122919Y270968D01*
X123480Y271700D01*
X123833Y272551D01*
X123953Y273465D01*
X123833Y274378D01*
X123480Y275230D01*
X122919Y275961D01*
X122647Y276170D01*
Y320817D01*
X122647Y320817D01*
X122478Y321668D01*
X121996Y322389D01*
X121996Y322389D01*
X118847Y325538D01*
X119026Y326066D01*
X119418Y326118D01*
X120269Y326470D01*
X121000Y327031D01*
X121561Y327763D01*
X121914Y328614D01*
X121931Y328740D01*
X118504D01*
Y329528D01*
X117717D01*
Y332954D01*
X117590Y332938D01*
X116739Y332585D01*
X116008Y332024D01*
X115447Y331293D01*
X115094Y330441D01*
X115042Y330050D01*
X114515Y329871D01*
X104174Y340211D01*
X104219Y340551D01*
X104099Y341465D01*
X103746Y342316D01*
X103185Y343047D01*
X102454Y343608D01*
X101603Y343961D01*
X100689Y344081D01*
D02*
G37*
G36*
X27836Y271654D02*
X25197D01*
Y269014D01*
X25323Y269031D01*
X26175Y269384D01*
X26906Y269945D01*
X27467Y270676D01*
X27819Y271527D01*
X27836Y271654D01*
D02*
G37*
G36*
X23622D02*
X20983D01*
X21000Y271527D01*
X21352Y270676D01*
X21913Y269945D01*
X22644Y269384D01*
X23496Y269031D01*
X23622Y269014D01*
Y271654D01*
D02*
G37*
G36*
X42126Y269568D02*
Y266929D01*
X44765D01*
X44748Y267055D01*
X44396Y267907D01*
X43835Y268638D01*
X43104Y269199D01*
X42252Y269552D01*
X42126Y269568D01*
D02*
G37*
G36*
X40551D02*
X40425Y269552D01*
X39573Y269199D01*
X38842Y268638D01*
X38281Y267907D01*
X37929Y267055D01*
X37912Y266929D01*
X40551D01*
Y269568D01*
D02*
G37*
G36*
X56825Y268957D02*
X53681D01*
Y265813D01*
X53938Y265847D01*
X54911Y266250D01*
X55747Y266891D01*
X56388Y267727D01*
X56791Y268700D01*
X56825Y268957D01*
D02*
G37*
G36*
X52106D02*
X48963D01*
X48997Y268700D01*
X49400Y267727D01*
X50041Y266891D01*
X50876Y266250D01*
X51850Y265847D01*
X52106Y265813D01*
Y268957D01*
D02*
G37*
G36*
X144488Y268387D02*
Y265748D01*
X147127D01*
X147111Y265874D01*
X146758Y266726D01*
X146197Y267457D01*
X145466Y268018D01*
X144615Y268371D01*
X144488Y268387D01*
D02*
G37*
G36*
X142913D02*
X142787Y268371D01*
X141936Y268018D01*
X141205Y267457D01*
X140644Y266726D01*
X140291Y265874D01*
X140274Y265748D01*
X142913D01*
Y268387D01*
D02*
G37*
G36*
X112894Y273779D02*
X111849Y273641D01*
X110876Y273238D01*
X110041Y272597D01*
X109400Y271761D01*
X108997Y270788D01*
X108859Y269744D01*
X108997Y268700D01*
X109400Y267727D01*
X110041Y266891D01*
X110876Y266250D01*
X111849Y265847D01*
X112894Y265710D01*
X113938Y265847D01*
X114911Y266250D01*
X115746Y266891D01*
X116388Y267727D01*
X116791Y268700D01*
X116928Y269744D01*
X116791Y270788D01*
X116388Y271761D01*
X115746Y272597D01*
X114911Y273238D01*
X113938Y273641D01*
X112894Y273779D01*
D02*
G37*
G36*
X44765Y265354D02*
X42126D01*
Y262715D01*
X42252Y262732D01*
X43104Y263085D01*
X43835Y263646D01*
X44396Y264377D01*
X44748Y265228D01*
X44765Y265354D01*
D02*
G37*
G36*
X40551D02*
X37912D01*
X37929Y265228D01*
X38281Y264377D01*
X38842Y263646D01*
X39573Y263085D01*
X40425Y262732D01*
X40551Y262715D01*
Y265354D01*
D02*
G37*
G36*
X147127Y264173D02*
X144488D01*
Y261534D01*
X144615Y261551D01*
X145466Y261903D01*
X146197Y262464D01*
X146758Y263195D01*
X147111Y264047D01*
X147127Y264173D01*
D02*
G37*
G36*
X142913D02*
X140274D01*
X140291Y264047D01*
X140644Y263195D01*
X141205Y262464D01*
X141936Y261903D01*
X142787Y261551D01*
X142913Y261534D01*
Y264173D01*
D02*
G37*
G36*
X69291Y263269D02*
Y260630D01*
X71930D01*
X71914Y260756D01*
X71561Y261608D01*
X71000Y262339D01*
X70269Y262900D01*
X69418Y263252D01*
X69291Y263269D01*
D02*
G37*
G36*
X67716D02*
X67590Y263252D01*
X66739Y262900D01*
X66008Y262339D01*
X65447Y261608D01*
X65094Y260756D01*
X65077Y260630D01*
X67716D01*
Y263269D01*
D02*
G37*
G36*
X71930Y259055D02*
X69291D01*
Y256416D01*
X69418Y256433D01*
X70269Y256785D01*
X71000Y257346D01*
X71561Y258077D01*
X71914Y258929D01*
X71930Y259055D01*
D02*
G37*
G36*
X67716D02*
X65077D01*
X65094Y258929D01*
X65447Y258077D01*
X66008Y257346D01*
X66739Y256785D01*
X67590Y256433D01*
X67716Y256416D01*
Y259055D01*
D02*
G37*
G36*
X112894Y263779D02*
X111849Y263641D01*
X110876Y263238D01*
X110041Y262597D01*
X109400Y261761D01*
X108997Y260788D01*
X108859Y259744D01*
X108997Y258700D01*
X109400Y257727D01*
X110041Y256891D01*
X110876Y256250D01*
X111849Y255847D01*
X112894Y255710D01*
X113938Y255847D01*
X114911Y256250D01*
X115746Y256891D01*
X116388Y257727D01*
X116791Y258700D01*
X116928Y259744D01*
X116791Y260788D01*
X116388Y261761D01*
X115746Y262597D01*
X114911Y263238D01*
X113938Y263641D01*
X112894Y263779D01*
D02*
G37*
G36*
X52894D02*
X51850Y263641D01*
X50876Y263238D01*
X50041Y262597D01*
X49400Y261761D01*
X48997Y260788D01*
X48859Y259744D01*
X48997Y258700D01*
X49400Y257727D01*
X50041Y256891D01*
X50876Y256250D01*
X51850Y255847D01*
X52894Y255710D01*
X53938Y255847D01*
X54911Y256250D01*
X55747Y256891D01*
X56388Y257727D01*
X56791Y258700D01*
X56928Y259744D01*
X56791Y260788D01*
X56388Y261761D01*
X55747Y262597D01*
X54911Y263238D01*
X53938Y263641D01*
X52894Y263779D01*
D02*
G37*
G36*
X134252Y254608D02*
Y251969D01*
X136891D01*
X136874Y252095D01*
X136522Y252946D01*
X135961Y253677D01*
X135230Y254238D01*
X134378Y254591D01*
X134252Y254608D01*
D02*
G37*
G36*
X132677D02*
X132551Y254591D01*
X131700Y254238D01*
X130968Y253677D01*
X130407Y252946D01*
X130055Y252095D01*
X130038Y251969D01*
X132677D01*
Y254608D01*
D02*
G37*
G36*
X112894Y253779D02*
X111849Y253641D01*
X110876Y253238D01*
X110041Y252597D01*
X109400Y251761D01*
X109319Y251567D01*
X95659D01*
X95577Y251765D01*
X95016Y252496D01*
X94285Y253057D01*
X93433Y253410D01*
X92520Y253530D01*
X91606Y253410D01*
X90755Y253057D01*
X90023Y252496D01*
X89463Y251765D01*
X89110Y250914D01*
X88990Y250000D01*
X89110Y249086D01*
X89463Y248235D01*
X90023Y247504D01*
X90755Y246943D01*
X91606Y246590D01*
X92520Y246470D01*
X93433Y246590D01*
X94285Y246943D01*
X95016Y247504D01*
X95337Y247922D01*
X109319D01*
X109400Y247727D01*
X110041Y246891D01*
X110876Y246250D01*
X111849Y245847D01*
X112894Y245710D01*
X113938Y245847D01*
X114911Y246250D01*
X115746Y246891D01*
X116388Y247727D01*
X116791Y248700D01*
X116928Y249744D01*
X116791Y250788D01*
X116388Y251761D01*
X115746Y252597D01*
X114911Y253238D01*
X113938Y253641D01*
X112894Y253779D01*
D02*
G37*
G36*
X136891Y250394D02*
X134252D01*
Y247755D01*
X134378Y247771D01*
X135230Y248124D01*
X135961Y248685D01*
X136522Y249416D01*
X136874Y250267D01*
X136891Y250394D01*
D02*
G37*
G36*
X132677D02*
X130038D01*
X130055Y250267D01*
X130407Y249416D01*
X130968Y248685D01*
X131700Y248124D01*
X132551Y247771D01*
X132677Y247755D01*
Y250394D01*
D02*
G37*
G36*
X52894Y253779D02*
X51850Y253641D01*
X50876Y253238D01*
X50041Y252597D01*
X49400Y251761D01*
X48997Y250788D01*
X48859Y249744D01*
X48997Y248700D01*
X49400Y247727D01*
X50041Y246891D01*
X50876Y246250D01*
X51850Y245847D01*
X52894Y245710D01*
X53938Y245847D01*
X54911Y246250D01*
X55747Y246891D01*
X56388Y247727D01*
X56791Y248700D01*
X56928Y249744D01*
X56791Y250788D01*
X56388Y251761D01*
X55747Y252597D01*
X54911Y253238D01*
X53938Y253641D01*
X52894Y253779D01*
D02*
G37*
G36*
X18504Y251515D02*
X17460Y251377D01*
X16487Y250974D01*
X15651Y250333D01*
X15010Y249498D01*
X14607Y248524D01*
X14469Y247480D01*
X14607Y246436D01*
X15010Y245463D01*
X15651Y244627D01*
X16487Y243986D01*
X17460Y243583D01*
X18504Y243446D01*
X19548Y243583D01*
X20521Y243986D01*
X21357Y244627D01*
X21998Y245463D01*
X22401Y246436D01*
X22538Y247480D01*
X22401Y248524D01*
X21998Y249498D01*
X21357Y250333D01*
X20521Y250974D01*
X19548Y251377D01*
X18504Y251515D01*
D02*
G37*
G36*
X68898Y238466D02*
Y235827D01*
X71537D01*
X71520Y235953D01*
X71167Y236805D01*
X70606Y237536D01*
X69875Y238097D01*
X69024Y238449D01*
X68898Y238466D01*
D02*
G37*
G36*
X67323D02*
X67197Y238449D01*
X66345Y238097D01*
X65614Y237536D01*
X65053Y236805D01*
X64700Y235953D01*
X64684Y235827D01*
X67323D01*
Y238466D01*
D02*
G37*
G36*
X112894Y243779D02*
X111849Y243641D01*
X110876Y243238D01*
X110041Y242597D01*
X109400Y241761D01*
X108997Y240788D01*
X108859Y239744D01*
X108997Y238700D01*
X109400Y237727D01*
X110041Y236891D01*
X110876Y236250D01*
X111849Y235847D01*
X112894Y235710D01*
X113938Y235847D01*
X114911Y236250D01*
X115746Y236891D01*
X116388Y237727D01*
X116791Y238700D01*
X116928Y239744D01*
X116791Y240788D01*
X116388Y241761D01*
X115746Y242597D01*
X114911Y243238D01*
X113938Y243641D01*
X112894Y243779D01*
D02*
G37*
G36*
X52894D02*
X51850Y243641D01*
X50876Y243238D01*
X50041Y242597D01*
X49400Y241761D01*
X48997Y240788D01*
X48859Y239744D01*
X48997Y238700D01*
X49400Y237727D01*
X50041Y236891D01*
X50876Y236250D01*
X51850Y235847D01*
X52894Y235710D01*
X53938Y235847D01*
X54911Y236250D01*
X55747Y236891D01*
X56388Y237727D01*
X56791Y238700D01*
X56928Y239744D01*
X56791Y240788D01*
X56388Y241761D01*
X55747Y242597D01*
X54911Y243238D01*
X53938Y243641D01*
X52894Y243779D01*
D02*
G37*
G36*
X149866Y243409D02*
X141866D01*
Y235409D01*
X149866D01*
Y243409D01*
D02*
G37*
G36*
X8661Y236497D02*
Y233858D01*
X11301D01*
X11284Y233984D01*
X10931Y234836D01*
X10370Y235567D01*
X9639Y236128D01*
X8788Y236481D01*
X8661Y236497D01*
D02*
G37*
G36*
X7087D02*
X6960Y236481D01*
X6109Y236128D01*
X5378Y235567D01*
X4817Y234836D01*
X4464Y233984D01*
X4448Y233858D01*
X7087D01*
Y236497D01*
D02*
G37*
G36*
X18504Y241515D02*
X17460Y241377D01*
X16487Y240974D01*
X15651Y240333D01*
X15010Y239498D01*
X14607Y238525D01*
X14469Y237480D01*
X14607Y236436D01*
X15010Y235463D01*
X15651Y234628D01*
X16487Y233986D01*
X17460Y233583D01*
X18504Y233446D01*
X19548Y233583D01*
X20521Y233986D01*
X21357Y234628D01*
X21998Y235463D01*
X22401Y236436D01*
X22538Y237480D01*
X22401Y238525D01*
X21998Y239498D01*
X21357Y240333D01*
X20521Y240974D01*
X19548Y241377D01*
X18504Y241515D01*
D02*
G37*
G36*
X71537Y234252D02*
X68898D01*
Y231613D01*
X69024Y231629D01*
X69875Y231982D01*
X70606Y232543D01*
X71167Y233274D01*
X71520Y234126D01*
X71537Y234252D01*
D02*
G37*
G36*
X67323D02*
X64684D01*
X64700Y234126D01*
X65053Y233274D01*
X65614Y232543D01*
X66345Y231982D01*
X67197Y231629D01*
X67323Y231613D01*
Y234252D01*
D02*
G37*
G36*
X11301Y232283D02*
X8661D01*
Y229644D01*
X8788Y229661D01*
X9639Y230014D01*
X10370Y230575D01*
X10931Y231306D01*
X11284Y232157D01*
X11301Y232283D01*
D02*
G37*
G36*
X7087D02*
X4448D01*
X4464Y232157D01*
X4817Y231306D01*
X5378Y230575D01*
X6109Y230014D01*
X6960Y229661D01*
X7087Y229644D01*
Y232283D01*
D02*
G37*
G36*
X112894Y233779D02*
X111849Y233641D01*
X110876Y233238D01*
X110041Y232597D01*
X109400Y231761D01*
X108997Y230788D01*
X108859Y229744D01*
X108997Y228700D01*
X109400Y227727D01*
X110041Y226891D01*
X110876Y226250D01*
X111849Y225847D01*
X112894Y225710D01*
X113938Y225847D01*
X114911Y226250D01*
X115746Y226891D01*
X116388Y227727D01*
X116791Y228700D01*
X116928Y229744D01*
X116791Y230788D01*
X116388Y231761D01*
X115746Y232597D01*
X114911Y233238D01*
X113938Y233641D01*
X112894Y233779D01*
D02*
G37*
G36*
X52894D02*
X51850Y233641D01*
X50876Y233238D01*
X50041Y232597D01*
X49400Y231761D01*
X48997Y230788D01*
X48859Y229744D01*
X48997Y228700D01*
X49400Y227727D01*
X50041Y226891D01*
X50876Y226250D01*
X51850Y225847D01*
X52894Y225710D01*
X53938Y225847D01*
X54911Y226250D01*
X55747Y226891D01*
X56388Y227727D01*
X56791Y228700D01*
X56928Y229744D01*
X56791Y230788D01*
X56388Y231761D01*
X55747Y232597D01*
X54911Y233238D01*
X53938Y233641D01*
X52894Y233779D01*
D02*
G37*
G36*
X145866Y233444D02*
X144822Y233307D01*
X143849Y232904D01*
X143013Y232262D01*
X142372Y231427D01*
X141969Y230454D01*
X141832Y229410D01*
X141969Y228365D01*
X142372Y227392D01*
X143013Y226557D01*
X143849Y225916D01*
X144822Y225512D01*
X145866Y225375D01*
X146910Y225512D01*
X147883Y225916D01*
X148719Y226557D01*
X149360Y227392D01*
X149763Y228365D01*
X149901Y229410D01*
X149763Y230454D01*
X149360Y231427D01*
X148719Y232262D01*
X147883Y232904D01*
X146910Y233307D01*
X145866Y233444D01*
D02*
G37*
G36*
X18504Y231515D02*
X17460Y231377D01*
X16487Y230974D01*
X15651Y230333D01*
X15010Y229498D01*
X14607Y228524D01*
X14469Y227480D01*
X14607Y226436D01*
X15010Y225463D01*
X15651Y224627D01*
X16487Y223986D01*
X17460Y223583D01*
X18504Y223446D01*
X19548Y223583D01*
X20521Y223986D01*
X21357Y224627D01*
X21998Y225463D01*
X22401Y226436D01*
X22538Y227480D01*
X22401Y228524D01*
X21998Y229498D01*
X21357Y230333D01*
X20521Y230974D01*
X19548Y231377D01*
X18504Y231515D01*
D02*
G37*
G36*
X88583Y223112D02*
Y220472D01*
X91222D01*
X91205Y220599D01*
X90852Y221450D01*
X90292Y222181D01*
X89560Y222742D01*
X88709Y223095D01*
X88583Y223112D01*
D02*
G37*
G36*
X87008D02*
X86882Y223095D01*
X86030Y222742D01*
X85299Y222181D01*
X84738Y221450D01*
X84385Y220599D01*
X84369Y220472D01*
X87008D01*
Y223112D01*
D02*
G37*
G36*
X91222Y218898D02*
X88583D01*
Y216259D01*
X88709Y216275D01*
X89560Y216628D01*
X90292Y217189D01*
X90852Y217920D01*
X91205Y218771D01*
X91222Y218898D01*
D02*
G37*
G36*
X87008D02*
X84369D01*
X84385Y218771D01*
X84738Y217920D01*
X85299Y217189D01*
X86030Y216628D01*
X86882Y216275D01*
X87008Y216259D01*
Y218898D01*
D02*
G37*
G36*
X112894Y223779D02*
X111849Y223641D01*
X110876Y223238D01*
X110041Y222597D01*
X109400Y221761D01*
X108997Y220788D01*
X108859Y219744D01*
X108997Y218700D01*
X109400Y217727D01*
X110041Y216891D01*
X110876Y216250D01*
X111849Y215847D01*
X112894Y215710D01*
X113938Y215847D01*
X114911Y216250D01*
X115746Y216891D01*
X116388Y217727D01*
X116791Y218700D01*
X116928Y219744D01*
X116791Y220788D01*
X116388Y221761D01*
X115746Y222597D01*
X114911Y223238D01*
X113938Y223641D01*
X112894Y223779D01*
D02*
G37*
G36*
X52894D02*
X51850Y223641D01*
X50876Y223238D01*
X50041Y222597D01*
X49400Y221761D01*
X48997Y220788D01*
X48859Y219744D01*
X48997Y218700D01*
X49400Y217727D01*
X50041Y216891D01*
X50876Y216250D01*
X51850Y215847D01*
X52894Y215710D01*
X53938Y215847D01*
X54911Y216250D01*
X55747Y216891D01*
X56388Y217727D01*
X56791Y218700D01*
X56928Y219744D01*
X56791Y220788D01*
X56388Y221761D01*
X55747Y222597D01*
X54911Y223238D01*
X53938Y223641D01*
X52894Y223779D01*
D02*
G37*
G36*
X145866Y223444D02*
X144822Y223306D01*
X143849Y222903D01*
X143013Y222262D01*
X142372Y221427D01*
X141969Y220454D01*
X141832Y219409D01*
X141969Y218365D01*
X142372Y217392D01*
X143013Y216557D01*
X143849Y215915D01*
X144822Y215512D01*
X145866Y215375D01*
X146910Y215512D01*
X147883Y215915D01*
X148719Y216557D01*
X149360Y217392D01*
X149763Y218365D01*
X149901Y219409D01*
X149763Y220454D01*
X149360Y221427D01*
X148719Y222262D01*
X147883Y222903D01*
X146910Y223306D01*
X145866Y223444D01*
D02*
G37*
G36*
X18504Y221515D02*
X17460Y221377D01*
X16487Y220974D01*
X15651Y220333D01*
X15010Y219498D01*
X14607Y218525D01*
X14469Y217480D01*
X14607Y216436D01*
X15010Y215463D01*
X15651Y214628D01*
X16487Y213986D01*
X17460Y213583D01*
X18504Y213446D01*
X19548Y213583D01*
X20521Y213986D01*
X21357Y214628D01*
X21998Y215463D01*
X22401Y216436D01*
X22538Y217480D01*
X22401Y218525D01*
X21998Y219498D01*
X21357Y220333D01*
X20521Y220974D01*
X19548Y221377D01*
X18504Y221515D01*
D02*
G37*
G36*
X112894Y213779D02*
X111849Y213641D01*
X110876Y213238D01*
X110041Y212597D01*
X109400Y211761D01*
X108997Y210788D01*
X108859Y209744D01*
X108997Y208700D01*
X109400Y207727D01*
X110041Y206891D01*
X110876Y206250D01*
X111849Y205847D01*
X112894Y205710D01*
X113938Y205847D01*
X114911Y206250D01*
X115746Y206891D01*
X116388Y207727D01*
X116791Y208700D01*
X116928Y209744D01*
X116791Y210788D01*
X116388Y211761D01*
X115746Y212597D01*
X114911Y213238D01*
X113938Y213641D01*
X112894Y213779D01*
D02*
G37*
G36*
X52894D02*
X51850Y213641D01*
X50876Y213238D01*
X50041Y212597D01*
X49400Y211761D01*
X48997Y210788D01*
X48859Y209744D01*
X48997Y208700D01*
X49400Y207727D01*
X50041Y206891D01*
X50876Y206250D01*
X51850Y205847D01*
X52894Y205710D01*
X53938Y205847D01*
X54911Y206250D01*
X55747Y206891D01*
X56388Y207727D01*
X56791Y208700D01*
X56928Y209744D01*
X56791Y210788D01*
X56388Y211761D01*
X55747Y212597D01*
X54911Y213238D01*
X53938Y213641D01*
X52894Y213779D01*
D02*
G37*
G36*
X145866Y213444D02*
X144822Y213306D01*
X143849Y212903D01*
X143013Y212262D01*
X142372Y211427D01*
X141969Y210454D01*
X141832Y209409D01*
X141969Y208365D01*
X142372Y207392D01*
X143013Y206557D01*
X143849Y205915D01*
X144822Y205512D01*
X145866Y205375D01*
X146910Y205512D01*
X147883Y205915D01*
X148719Y206557D01*
X149360Y207392D01*
X149763Y208365D01*
X149901Y209409D01*
X149763Y210454D01*
X149360Y211427D01*
X148719Y212262D01*
X147883Y212903D01*
X146910Y213306D01*
X145866Y213444D01*
D02*
G37*
G36*
X18504Y211515D02*
X17460Y211377D01*
X16487Y210974D01*
X15651Y210333D01*
X15010Y209498D01*
X14607Y208524D01*
X14469Y207480D01*
X14607Y206436D01*
X15010Y205463D01*
X15651Y204627D01*
X16487Y203986D01*
X17460Y203583D01*
X18504Y203446D01*
X19548Y203583D01*
X20521Y203986D01*
X21357Y204627D01*
X21998Y205463D01*
X22401Y206436D01*
X22538Y207480D01*
X22401Y208524D01*
X21998Y209498D01*
X21357Y210333D01*
X20521Y210974D01*
X19548Y211377D01*
X18504Y211515D01*
D02*
G37*
G36*
X135433Y205395D02*
Y202756D01*
X138072D01*
X138056Y202882D01*
X137703Y203734D01*
X137142Y204465D01*
X136411Y205026D01*
X135559Y205378D01*
X135433Y205395D01*
D02*
G37*
G36*
X133858D02*
X133732Y205378D01*
X132881Y205026D01*
X132149Y204465D01*
X131588Y203734D01*
X131236Y202882D01*
X131219Y202756D01*
X133858D01*
Y205395D01*
D02*
G37*
G36*
X68504Y201852D02*
Y199213D01*
X71143D01*
X71126Y199339D01*
X70774Y200190D01*
X70213Y200921D01*
X69482Y201482D01*
X68630Y201835D01*
X68504Y201852D01*
D02*
G37*
G36*
X66929D02*
X66803Y201835D01*
X65951Y201482D01*
X65220Y200921D01*
X64659Y200190D01*
X64307Y199339D01*
X64290Y199213D01*
X66929D01*
Y201852D01*
D02*
G37*
G36*
X138072Y201181D02*
X135433D01*
Y198542D01*
X135559Y198559D01*
X136411Y198911D01*
X137142Y199472D01*
X137703Y200203D01*
X138056Y201055D01*
X138072Y201181D01*
D02*
G37*
G36*
X133858D02*
X131219D01*
X131236Y201055D01*
X131588Y200203D01*
X132149Y199472D01*
X132881Y198911D01*
X133732Y198559D01*
X133858Y198542D01*
Y201181D01*
D02*
G37*
G36*
X112894Y203779D02*
X111849Y203641D01*
X110876Y203238D01*
X110041Y202597D01*
X109400Y201761D01*
X108997Y200788D01*
X108859Y199744D01*
X108997Y198700D01*
X109400Y197727D01*
X110041Y196891D01*
X110876Y196250D01*
X111849Y195847D01*
X112894Y195710D01*
X113938Y195847D01*
X114911Y196250D01*
X115746Y196891D01*
X116388Y197727D01*
X116791Y198700D01*
X116928Y199744D01*
X116791Y200788D01*
X116388Y201761D01*
X115746Y202597D01*
X114911Y203238D01*
X113938Y203641D01*
X112894Y203779D01*
D02*
G37*
G36*
X52894D02*
X51850Y203641D01*
X50876Y203238D01*
X50041Y202597D01*
X49400Y201761D01*
X48997Y200788D01*
X48859Y199744D01*
X48997Y198700D01*
X49400Y197727D01*
X50041Y196891D01*
X50876Y196250D01*
X51850Y195847D01*
X52894Y195710D01*
X53938Y195847D01*
X54911Y196250D01*
X55747Y196891D01*
X56388Y197727D01*
X56791Y198700D01*
X56928Y199744D01*
X56791Y200788D01*
X56388Y201761D01*
X55747Y202597D01*
X54911Y203238D01*
X53938Y203641D01*
X52894Y203779D01*
D02*
G37*
G36*
X145866Y203444D02*
X144822Y203307D01*
X143849Y202903D01*
X143013Y202262D01*
X142372Y201427D01*
X141969Y200454D01*
X141832Y199409D01*
X141950Y198513D01*
X127252Y183816D01*
X126996Y183922D01*
X126083Y184042D01*
X125169Y183922D01*
X124318Y183569D01*
X123586Y183008D01*
X123025Y182277D01*
X122673Y181425D01*
X122553Y180512D01*
X122673Y179598D01*
X123025Y178747D01*
X123586Y178016D01*
X124318Y177455D01*
X125169Y177102D01*
X126083Y176982D01*
X126996Y177102D01*
X127848Y177455D01*
X128579Y178016D01*
X129140Y178747D01*
X129493Y179598D01*
X129613Y180512D01*
X129553Y180963D01*
X144314Y195723D01*
X144822Y195512D01*
X145866Y195375D01*
X146910Y195512D01*
X147883Y195915D01*
X148719Y196557D01*
X149360Y197392D01*
X149763Y198365D01*
X149901Y199409D01*
X149763Y200454D01*
X149360Y201427D01*
X148719Y202262D01*
X147883Y202903D01*
X146910Y203307D01*
X145866Y203444D01*
D02*
G37*
G36*
X71143Y197638D02*
X68504D01*
Y194999D01*
X68630Y195015D01*
X69482Y195368D01*
X70213Y195929D01*
X70774Y196660D01*
X71126Y197511D01*
X71143Y197638D01*
D02*
G37*
G36*
X66929D02*
X64290D01*
X64307Y197511D01*
X64659Y196660D01*
X65220Y195929D01*
X65951Y195368D01*
X66803Y195015D01*
X66929Y194999D01*
Y197638D01*
D02*
G37*
G36*
X18504Y201515D02*
X17460Y201377D01*
X16487Y200974D01*
X15651Y200333D01*
X15010Y199498D01*
X14607Y198524D01*
X14469Y197480D01*
X14607Y196436D01*
X15010Y195463D01*
X15651Y194627D01*
X16487Y193986D01*
X17460Y193583D01*
X18504Y193446D01*
X19548Y193583D01*
X20521Y193986D01*
X21357Y194627D01*
X21998Y195463D01*
X22401Y196436D01*
X22538Y197480D01*
X22401Y198524D01*
X21998Y199498D01*
X21357Y200333D01*
X20521Y200974D01*
X19548Y201377D01*
X18504Y201515D01*
D02*
G37*
G36*
X90158Y190828D02*
Y188189D01*
X92797D01*
X92780Y188315D01*
X92427Y189167D01*
X91866Y189898D01*
X91135Y190459D01*
X90284Y190812D01*
X90158Y190828D01*
D02*
G37*
G36*
X88583D02*
X88456Y190812D01*
X87605Y190459D01*
X86874Y189898D01*
X86313Y189167D01*
X85960Y188315D01*
X85944Y188189D01*
X88583D01*
Y190828D01*
D02*
G37*
G36*
X112894Y193779D02*
X111849Y193641D01*
X110876Y193238D01*
X110041Y192597D01*
X109400Y191761D01*
X108997Y190788D01*
X108859Y189744D01*
X108997Y188700D01*
X109400Y187727D01*
X110041Y186891D01*
X110876Y186250D01*
X111849Y185847D01*
X112894Y185710D01*
X113938Y185847D01*
X114911Y186250D01*
X115746Y186891D01*
X116388Y187727D01*
X116791Y188700D01*
X116928Y189744D01*
X116791Y190788D01*
X116388Y191761D01*
X115746Y192597D01*
X114911Y193238D01*
X113938Y193641D01*
X112894Y193779D01*
D02*
G37*
G36*
X52894D02*
X51850Y193641D01*
X50876Y193238D01*
X50041Y192597D01*
X49400Y191761D01*
X48997Y190788D01*
X48859Y189744D01*
X48997Y188700D01*
X49400Y187727D01*
X50041Y186891D01*
X50876Y186250D01*
X51850Y185847D01*
X52894Y185710D01*
X53938Y185847D01*
X54911Y186250D01*
X55747Y186891D01*
X56388Y187727D01*
X56791Y188700D01*
X56928Y189744D01*
X56791Y190788D01*
X56388Y191761D01*
X55747Y192597D01*
X54911Y193238D01*
X53938Y193641D01*
X52894Y193779D01*
D02*
G37*
G36*
X145866Y193444D02*
X144822Y193307D01*
X143849Y192903D01*
X143013Y192262D01*
X142372Y191427D01*
X141969Y190454D01*
X141832Y189409D01*
X141969Y188365D01*
X142050Y188170D01*
X131914Y178035D01*
X131890Y178038D01*
X130976Y177918D01*
X130125Y177565D01*
X129393Y177004D01*
X128832Y176273D01*
X128480Y175422D01*
X128360Y174508D01*
X128480Y173594D01*
X128832Y172743D01*
X129393Y172012D01*
X130125Y171451D01*
X130976Y171098D01*
X131890Y170978D01*
X132803Y171098D01*
X133655Y171451D01*
X134386Y172012D01*
X134947Y172743D01*
X135300Y173594D01*
X135420Y174508D01*
X135300Y175422D01*
X135052Y176018D01*
X144627Y185593D01*
X144822Y185512D01*
X145866Y185375D01*
X146910Y185512D01*
X147883Y185916D01*
X148719Y186557D01*
X149360Y187392D01*
X149763Y188365D01*
X149901Y189409D01*
X149763Y190454D01*
X149360Y191427D01*
X148719Y192262D01*
X147883Y192903D01*
X146910Y193307D01*
X145866Y193444D01*
D02*
G37*
G36*
X92797Y186614D02*
X90158D01*
Y183975D01*
X90284Y183992D01*
X91135Y184344D01*
X91866Y184905D01*
X92427Y185636D01*
X92780Y186488D01*
X92797Y186614D01*
D02*
G37*
G36*
X88583D02*
X85944D01*
X85960Y186488D01*
X86313Y185636D01*
X86874Y184905D01*
X87605Y184344D01*
X88456Y183992D01*
X88583Y183975D01*
Y186614D01*
D02*
G37*
G36*
X18504Y191515D02*
X17460Y191377D01*
X16487Y190974D01*
X15651Y190333D01*
X15010Y189498D01*
X14607Y188524D01*
X14469Y187480D01*
X14607Y186436D01*
X15010Y185463D01*
X15651Y184627D01*
X16487Y183986D01*
X17460Y183583D01*
X18504Y183446D01*
X19548Y183583D01*
X20521Y183986D01*
X21357Y184627D01*
X21998Y185463D01*
X22401Y186436D01*
X22538Y187480D01*
X22401Y188524D01*
X21998Y189498D01*
X21357Y190333D01*
X20521Y190974D01*
X19548Y191377D01*
X18504Y191515D01*
D02*
G37*
G36*
X52894Y183779D02*
X51850Y183641D01*
X50876Y183238D01*
X50041Y182597D01*
X49400Y181761D01*
X48997Y180788D01*
X48859Y179744D01*
X48997Y178700D01*
X49400Y177727D01*
X50041Y176891D01*
X50124Y176827D01*
X49963Y176354D01*
X44077D01*
X43874Y176556D01*
X43283Y176951D01*
X42586Y177090D01*
X42586Y177090D01*
X22504D01*
Y181480D01*
X14504D01*
Y173480D01*
X20540D01*
X20717Y173445D01*
X20717Y173445D01*
X41831D01*
X42033Y173243D01*
X42033Y173243D01*
X42625Y172848D01*
X43322Y172709D01*
X49497D01*
X49743Y172209D01*
X49400Y171761D01*
X48997Y170788D01*
X48859Y169744D01*
X48997Y168700D01*
X49400Y167727D01*
X50041Y166891D01*
X50876Y166250D01*
X51850Y165847D01*
X52894Y165710D01*
X53938Y165847D01*
X54911Y166250D01*
X55747Y166891D01*
X56388Y167727D01*
X56791Y168700D01*
X56928Y169744D01*
X56791Y170788D01*
X56388Y171761D01*
X56044Y172209D01*
X56291Y172709D01*
X63271D01*
X63380Y172448D01*
X63941Y171716D01*
X64672Y171155D01*
X65523Y170803D01*
X66437Y170682D01*
X67351Y170803D01*
X68202Y171155D01*
X68933Y171716D01*
X69494Y172448D01*
X69847Y173299D01*
X69967Y174213D01*
X69847Y175126D01*
X69494Y175978D01*
X68933Y176709D01*
X68202Y177270D01*
X67351Y177622D01*
X66437Y177743D01*
X65523Y177622D01*
X64672Y177270D01*
X63941Y176709D01*
X63668Y176354D01*
X55824D01*
X55663Y176827D01*
X55747Y176891D01*
X56388Y177727D01*
X56791Y178700D01*
X56928Y179744D01*
X56791Y180788D01*
X56388Y181761D01*
X55747Y182597D01*
X54911Y183238D01*
X53938Y183641D01*
X52894Y183779D01*
D02*
G37*
G36*
X112894D02*
X111849Y183641D01*
X110876Y183238D01*
X110041Y182597D01*
X109400Y181761D01*
X108997Y180788D01*
X108859Y179744D01*
X108997Y178700D01*
X109400Y177727D01*
X110041Y176891D01*
X110876Y176250D01*
X111849Y175847D01*
X112894Y175710D01*
X113938Y175847D01*
X114911Y176250D01*
X115746Y176891D01*
X116388Y177727D01*
X116791Y178700D01*
X116928Y179744D01*
X116791Y180788D01*
X116388Y181761D01*
X115746Y182597D01*
X114911Y183238D01*
X113938Y183641D01*
X112894Y183779D01*
D02*
G37*
G36*
X145866Y183444D02*
X144822Y183307D01*
X143849Y182903D01*
X143013Y182262D01*
X142372Y181427D01*
X141969Y180454D01*
X141832Y179409D01*
X141969Y178365D01*
X142372Y177392D01*
X143013Y176557D01*
X143849Y175916D01*
X144822Y175512D01*
X145866Y175375D01*
X146910Y175512D01*
X147883Y175916D01*
X148719Y176557D01*
X149360Y177392D01*
X149763Y178365D01*
X149901Y179409D01*
X149763Y180454D01*
X149360Y181427D01*
X148719Y182262D01*
X147883Y182903D01*
X146910Y183307D01*
X145866Y183444D01*
D02*
G37*
G36*
X22441Y170749D02*
Y168110D01*
X25080D01*
X25063Y168236D01*
X24711Y169088D01*
X24150Y169819D01*
X23419Y170380D01*
X22567Y170733D01*
X22441Y170749D01*
D02*
G37*
G36*
X20866D02*
X20740Y170733D01*
X19888Y170380D01*
X19157Y169819D01*
X18596Y169088D01*
X18244Y168236D01*
X18227Y168110D01*
X20866D01*
Y170749D01*
D02*
G37*
G36*
X145866Y173444D02*
X144822Y173307D01*
X143849Y172903D01*
X143013Y172262D01*
X142372Y171427D01*
X141969Y170454D01*
X141832Y169409D01*
X141969Y168365D01*
X142372Y167392D01*
X143013Y166557D01*
X143849Y165916D01*
X144822Y165512D01*
X145866Y165375D01*
X146910Y165512D01*
X147883Y165916D01*
X148719Y166557D01*
X149360Y167392D01*
X149763Y168365D01*
X149901Y169409D01*
X149763Y170454D01*
X149360Y171427D01*
X148719Y172262D01*
X147883Y172903D01*
X146910Y173307D01*
X145866Y173444D01*
D02*
G37*
G36*
X25080Y166535D02*
X22441D01*
Y163896D01*
X22567Y163913D01*
X23419Y164266D01*
X24150Y164827D01*
X24711Y165558D01*
X25063Y166409D01*
X25080Y166535D01*
D02*
G37*
G36*
X20866D02*
X18227D01*
X18244Y166409D01*
X18596Y165558D01*
X19157Y164827D01*
X19888Y164266D01*
X20740Y163913D01*
X20866Y163896D01*
Y166535D01*
D02*
G37*
G36*
X82677Y165238D02*
Y162598D01*
X85316D01*
X85300Y162725D01*
X84947Y163576D01*
X84386Y164307D01*
X83655Y164868D01*
X82803Y165221D01*
X82677Y165238D01*
D02*
G37*
G36*
X81102D02*
X80976Y165221D01*
X80125Y164868D01*
X79394Y164307D01*
X78833Y163576D01*
X78480Y162725D01*
X78463Y162598D01*
X81102D01*
Y165238D01*
D02*
G37*
G36*
X92520Y176759D02*
X91606Y176638D01*
X90755Y176286D01*
X90023Y175725D01*
X89463Y174994D01*
X89110Y174142D01*
X88990Y173228D01*
X89110Y172315D01*
X89463Y171463D01*
X90023Y170732D01*
X90755Y170171D01*
X91606Y169818D01*
X92520Y169698D01*
X93433Y169818D01*
X94285Y170171D01*
X95016Y170732D01*
X95533Y171406D01*
X96311D01*
X104049Y163668D01*
X104049Y163668D01*
X104640Y163273D01*
X105337Y163134D01*
X109963D01*
X110124Y162661D01*
X110041Y162597D01*
X109400Y161761D01*
X109319Y161566D01*
X95833D01*
X95733Y162331D01*
X95380Y163182D01*
X94819Y163914D01*
X94088Y164475D01*
X93237Y164827D01*
X92323Y164947D01*
X91409Y164827D01*
X90558Y164475D01*
X89827Y163914D01*
X89266Y163182D01*
X88913Y162331D01*
X88793Y161417D01*
X88913Y160504D01*
X89266Y159652D01*
X89827Y158921D01*
X90558Y158360D01*
X91409Y158007D01*
X92323Y157887D01*
X93237Y158007D01*
X93896Y158281D01*
X94226Y158060D01*
X94923Y157922D01*
X109319D01*
X109400Y157727D01*
X110041Y156891D01*
X110876Y156250D01*
X111849Y155847D01*
X112894Y155710D01*
X113938Y155847D01*
X114911Y156250D01*
X115359Y156594D01*
X115859Y156347D01*
Y155286D01*
X114133Y153560D01*
X113938Y153641D01*
X112894Y153779D01*
X111849Y153641D01*
X110876Y153238D01*
X110041Y152597D01*
X109400Y151761D01*
X108997Y150788D01*
X108859Y149744D01*
X108997Y148700D01*
X109400Y147727D01*
X110041Y146891D01*
X110876Y146250D01*
X111849Y145847D01*
X112894Y145710D01*
X113938Y145847D01*
X114911Y146250D01*
X115746Y146891D01*
X116388Y147727D01*
X116791Y148700D01*
X116928Y149744D01*
X116791Y150788D01*
X116710Y150983D01*
X118970Y153243D01*
X118970Y153243D01*
X119365Y153834D01*
X119503Y154532D01*
X119503Y154532D01*
Y161727D01*
X119365Y162425D01*
X118970Y163016D01*
X118970Y163016D01*
X115740Y166245D01*
X115650Y166305D01*
X115634Y166805D01*
X115746Y166891D01*
X116388Y167727D01*
X116791Y168700D01*
X116928Y169744D01*
X116791Y170788D01*
X116388Y171761D01*
X115746Y172597D01*
X114911Y173238D01*
X113938Y173641D01*
X112894Y173779D01*
X111849Y173641D01*
X110876Y173238D01*
X110041Y172597D01*
X109400Y171761D01*
X108997Y170788D01*
X108859Y169744D01*
X108997Y168700D01*
X109400Y167727D01*
X109743Y167279D01*
X109497Y166779D01*
X106092D01*
X98354Y174517D01*
X97763Y174912D01*
X97066Y175051D01*
X97066Y175051D01*
X95533D01*
X95016Y175725D01*
X94285Y176286D01*
X93433Y176638D01*
X92520Y176759D01*
D02*
G37*
G36*
X85316Y161024D02*
X82677D01*
Y158385D01*
X82803Y158401D01*
X83655Y158754D01*
X84386Y159315D01*
X84947Y160046D01*
X85300Y160897D01*
X85316Y161024D01*
D02*
G37*
G36*
X81102D02*
X78463D01*
X78480Y160897D01*
X78833Y160046D01*
X79394Y159315D01*
X80125Y158754D01*
X80976Y158401D01*
X81102Y158385D01*
Y161024D01*
D02*
G37*
G36*
X131496Y159332D02*
Y156693D01*
X134135D01*
X134119Y156819D01*
X133766Y157671D01*
X133205Y158402D01*
X132474Y158963D01*
X131622Y159315D01*
X131496Y159332D01*
D02*
G37*
G36*
X129921D02*
X129795Y159315D01*
X128944Y158963D01*
X128212Y158402D01*
X127651Y157671D01*
X127299Y156819D01*
X127282Y156693D01*
X129921D01*
Y159332D01*
D02*
G37*
G36*
X52894Y163779D02*
X51850Y163641D01*
X50876Y163238D01*
X50041Y162597D01*
X49400Y161761D01*
X48997Y160788D01*
X48859Y159744D01*
X48997Y158700D01*
X49400Y157727D01*
X50041Y156891D01*
X50876Y156250D01*
X51850Y155847D01*
X52894Y155710D01*
X53938Y155847D01*
X54911Y156250D01*
X55747Y156891D01*
X56388Y157727D01*
X56791Y158700D01*
X56928Y159744D01*
X56791Y160788D01*
X56388Y161761D01*
X55747Y162597D01*
X54911Y163238D01*
X53938Y163641D01*
X52894Y163779D01*
D02*
G37*
G36*
X134135Y155118D02*
X131496D01*
Y152479D01*
X131622Y152496D01*
X132474Y152848D01*
X133205Y153409D01*
X133766Y154140D01*
X134119Y154992D01*
X134135Y155118D01*
D02*
G37*
G36*
X129921D02*
X127282D01*
X127299Y154992D01*
X127651Y154140D01*
X128212Y153409D01*
X128944Y152848D01*
X129795Y152496D01*
X129921Y152479D01*
Y155118D01*
D02*
G37*
G36*
X18996Y154054D02*
X17952Y153917D01*
X16979Y153514D01*
X16143Y152873D01*
X15502Y152037D01*
X15099Y151064D01*
X14962Y150020D01*
X15099Y148976D01*
X15502Y148002D01*
X16143Y147167D01*
X16979Y146526D01*
X17952Y146123D01*
X18996Y145985D01*
X20040Y146123D01*
X21013Y146526D01*
X21849Y147167D01*
X22490Y148002D01*
X22893Y148976D01*
X23031Y150020D01*
X22893Y151064D01*
X22490Y152037D01*
X21849Y152873D01*
X21013Y153514D01*
X20040Y153917D01*
X18996Y154054D01*
D02*
G37*
G36*
X52894Y153779D02*
X51850Y153641D01*
X50876Y153238D01*
X50041Y152597D01*
X49400Y151761D01*
X48997Y150788D01*
X48859Y149744D01*
X48997Y148700D01*
X49400Y147727D01*
X50041Y146891D01*
X50876Y146250D01*
X51850Y145847D01*
X52894Y145710D01*
X53938Y145847D01*
X54911Y146250D01*
X55747Y146891D01*
X56388Y147727D01*
X56791Y148700D01*
X56928Y149744D01*
X56791Y150788D01*
X56388Y151761D01*
X55747Y152597D01*
X54911Y153238D01*
X53938Y153641D01*
X52894Y153779D01*
D02*
G37*
G36*
X40945Y148308D02*
Y145669D01*
X43584D01*
X43567Y145796D01*
X43215Y146647D01*
X42654Y147378D01*
X41923Y147939D01*
X41071Y148292D01*
X40945Y148308D01*
D02*
G37*
G36*
X39370D02*
X39244Y148292D01*
X38392Y147939D01*
X37661Y147378D01*
X37100Y146647D01*
X36748Y145796D01*
X36731Y145669D01*
X39370D01*
Y148308D01*
D02*
G37*
G36*
X43584Y144095D02*
X40945D01*
Y141455D01*
X41071Y141472D01*
X41923Y141825D01*
X42654Y142386D01*
X43215Y143117D01*
X43567Y143968D01*
X43584Y144095D01*
D02*
G37*
G36*
X39370D02*
X36731D01*
X36748Y143968D01*
X37100Y143117D01*
X37661Y142386D01*
X38392Y141825D01*
X39244Y141472D01*
X39370Y141455D01*
Y144095D01*
D02*
G37*
G36*
X19783Y143950D02*
Y140807D01*
X22927D01*
X22893Y141064D01*
X22490Y142037D01*
X21849Y142873D01*
X21013Y143514D01*
X20040Y143917D01*
X19783Y143950D01*
D02*
G37*
G36*
X18209D02*
X17952Y143917D01*
X16979Y143514D01*
X16143Y142873D01*
X15502Y142037D01*
X15099Y141064D01*
X15065Y140807D01*
X18209D01*
Y143950D01*
D02*
G37*
G36*
X11417Y142403D02*
Y139764D01*
X14056D01*
X14040Y139890D01*
X13687Y140742D01*
X13126Y141473D01*
X12395Y142034D01*
X11544Y142386D01*
X11417Y142403D01*
D02*
G37*
G36*
X9843D02*
X9716Y142386D01*
X8865Y142034D01*
X8134Y141473D01*
X7573Y140742D01*
X7220Y139890D01*
X7203Y139764D01*
X9843D01*
Y142403D01*
D02*
G37*
G36*
X157480Y141615D02*
Y138976D01*
X160119D01*
X160103Y139103D01*
X159750Y139954D01*
X159189Y140685D01*
X158458Y141246D01*
X157607Y141599D01*
X157480Y141615D01*
D02*
G37*
G36*
X155905D02*
X155779Y141599D01*
X154928Y141246D01*
X154197Y140685D01*
X153636Y139954D01*
X153283Y139103D01*
X153266Y138976D01*
X155905D01*
Y141615D01*
D02*
G37*
G36*
X144783Y141943D02*
Y138799D01*
X147927D01*
X147893Y139056D01*
X147490Y140029D01*
X146849Y140865D01*
X146013Y141506D01*
X145040Y141909D01*
X144783Y141943D01*
D02*
G37*
G36*
X143209D02*
X142952Y141909D01*
X141979Y141506D01*
X141143Y140865D01*
X140502Y140029D01*
X140099Y139056D01*
X140065Y138799D01*
X143209D01*
Y141943D01*
D02*
G37*
G36*
X22927Y139232D02*
X19783D01*
Y136089D01*
X20040Y136123D01*
X21013Y136526D01*
X21849Y137167D01*
X22490Y138002D01*
X22893Y138976D01*
X22927Y139232D01*
D02*
G37*
G36*
X18209D02*
X15065D01*
X15099Y138976D01*
X15502Y138002D01*
X16143Y137167D01*
X16979Y136526D01*
X17952Y136123D01*
X18209Y136089D01*
Y139232D01*
D02*
G37*
G36*
X112894Y143779D02*
X111849Y143641D01*
X110876Y143238D01*
X110041Y142597D01*
X109400Y141761D01*
X108997Y140788D01*
X108859Y139744D01*
X108997Y138700D01*
X109400Y137727D01*
X110041Y136891D01*
X110876Y136250D01*
X111849Y135847D01*
X112894Y135710D01*
X113938Y135847D01*
X114911Y136250D01*
X115746Y136891D01*
X116388Y137727D01*
X116791Y138700D01*
X116928Y139744D01*
X116791Y140788D01*
X116388Y141761D01*
X115746Y142597D01*
X114911Y143238D01*
X113938Y143641D01*
X112894Y143779D01*
D02*
G37*
G36*
X52894D02*
X51850Y143641D01*
X50876Y143238D01*
X50041Y142597D01*
X49400Y141761D01*
X48997Y140788D01*
X48859Y139744D01*
X48997Y138700D01*
X49400Y137727D01*
X50041Y136891D01*
X50876Y136250D01*
X51850Y135847D01*
X52894Y135710D01*
X53938Y135847D01*
X54911Y136250D01*
X55747Y136891D01*
X56388Y137727D01*
X56791Y138700D01*
X56928Y139744D01*
X56791Y140788D01*
X56388Y141761D01*
X55747Y142597D01*
X54911Y143238D01*
X53938Y143641D01*
X52894Y143779D01*
D02*
G37*
G36*
X14056Y138189D02*
X11417D01*
Y135550D01*
X11544Y135566D01*
X12395Y135919D01*
X13126Y136480D01*
X13687Y137211D01*
X14040Y138063D01*
X14056Y138189D01*
D02*
G37*
G36*
X9843D02*
X7203D01*
X7220Y138063D01*
X7573Y137211D01*
X8134Y136480D01*
X8865Y135919D01*
X9716Y135566D01*
X9843Y135550D01*
Y138189D01*
D02*
G37*
G36*
X160119Y137402D02*
X157480D01*
Y134762D01*
X157607Y134779D01*
X158458Y135132D01*
X159189Y135693D01*
X159750Y136424D01*
X160103Y137275D01*
X160119Y137402D01*
D02*
G37*
G36*
X155905D02*
X153266D01*
X153283Y137275D01*
X153636Y136424D01*
X154197Y135693D01*
X154928Y135132D01*
X155779Y134779D01*
X155905Y134762D01*
Y137402D01*
D02*
G37*
G36*
X143209Y137224D02*
X140065D01*
X140099Y136968D01*
X140502Y135995D01*
X141143Y135159D01*
X141979Y134518D01*
X142952Y134115D01*
X143209Y134081D01*
Y137224D01*
D02*
G37*
G36*
X147927D02*
X144783D01*
Y134081D01*
X145040Y134115D01*
X146013Y134518D01*
X146849Y135159D01*
X147490Y135995D01*
X147893Y136968D01*
X147927Y137224D01*
D02*
G37*
G36*
X67716Y136497D02*
Y133858D01*
X70356D01*
X70339Y133984D01*
X69986Y134836D01*
X69425Y135567D01*
X68694Y136128D01*
X67843Y136481D01*
X67716Y136497D01*
D02*
G37*
G36*
X66142D02*
X66015Y136481D01*
X65164Y136128D01*
X64433Y135567D01*
X63872Y134836D01*
X63519Y133984D01*
X63503Y133858D01*
X66142D01*
Y136497D01*
D02*
G37*
G36*
X113681Y133675D02*
Y130532D01*
X116825D01*
X116791Y130788D01*
X116388Y131761D01*
X115746Y132597D01*
X114911Y133238D01*
X113938Y133641D01*
X113681Y133675D01*
D02*
G37*
G36*
X112106D02*
X111849Y133641D01*
X110876Y133238D01*
X110041Y132597D01*
X109400Y131761D01*
X108997Y130788D01*
X108963Y130532D01*
X112106D01*
Y133675D01*
D02*
G37*
G36*
X70356Y132283D02*
X67716D01*
Y129644D01*
X67843Y129661D01*
X68694Y130014D01*
X69425Y130575D01*
X69986Y131306D01*
X70339Y132157D01*
X70356Y132283D01*
D02*
G37*
G36*
X66142D02*
X63503D01*
X63519Y132157D01*
X63872Y131306D01*
X64433Y130575D01*
X65164Y130014D01*
X66015Y129661D01*
X66142Y129644D01*
Y132283D01*
D02*
G37*
G36*
X31496Y131379D02*
Y128740D01*
X34135D01*
X34119Y128866D01*
X33766Y129718D01*
X33205Y130449D01*
X32474Y131010D01*
X31622Y131363D01*
X31496Y131379D01*
D02*
G37*
G36*
X29921D02*
X29795Y131363D01*
X28944Y131010D01*
X28212Y130449D01*
X27651Y129718D01*
X27299Y128866D01*
X27282Y128740D01*
X29921D01*
Y131379D01*
D02*
G37*
G36*
X18996Y134054D02*
X17952Y133917D01*
X16979Y133514D01*
X16143Y132872D01*
X15502Y132037D01*
X15099Y131064D01*
X14962Y130020D01*
X15099Y128975D01*
X15502Y128002D01*
X16143Y127167D01*
X16979Y126526D01*
X17952Y126123D01*
X18996Y125985D01*
X20040Y126123D01*
X21013Y126526D01*
X21849Y127167D01*
X22490Y128002D01*
X22893Y128975D01*
X23031Y130020D01*
X22893Y131064D01*
X22490Y132037D01*
X21849Y132872D01*
X21013Y133514D01*
X20040Y133917D01*
X18996Y134054D01*
D02*
G37*
G36*
X116825Y128957D02*
X113681D01*
Y125813D01*
X113938Y125847D01*
X114911Y126250D01*
X115746Y126891D01*
X116388Y127727D01*
X116791Y128700D01*
X116825Y128957D01*
D02*
G37*
G36*
X112106D02*
X108963D01*
X108997Y128700D01*
X109400Y127727D01*
X110041Y126891D01*
X110876Y126250D01*
X111849Y125847D01*
X112106Y125813D01*
Y128957D01*
D02*
G37*
G36*
X52894Y133779D02*
X51850Y133641D01*
X50876Y133238D01*
X50041Y132597D01*
X49400Y131761D01*
X49319Y131567D01*
X46144D01*
X45447Y131428D01*
X44856Y131033D01*
X44856Y131033D01*
X29447Y115624D01*
X28605Y115735D01*
X27691Y115615D01*
X26840Y115262D01*
X26109Y114701D01*
X25548Y113970D01*
X25195Y113118D01*
X25075Y112205D01*
X25195Y111291D01*
X25548Y110440D01*
X26109Y109708D01*
X26840Y109148D01*
X27691Y108795D01*
X28605Y108675D01*
X29519Y108795D01*
X30370Y109148D01*
X31101Y109708D01*
X31662Y110440D01*
X32015Y111291D01*
X32135Y112205D01*
X32024Y113047D01*
X46899Y127922D01*
X49319D01*
X49400Y127727D01*
X50041Y126891D01*
X50876Y126250D01*
X51850Y125847D01*
X52894Y125710D01*
X53938Y125847D01*
X54911Y126250D01*
X55747Y126891D01*
X56388Y127727D01*
X56791Y128700D01*
X56928Y129744D01*
X56791Y130788D01*
X56388Y131761D01*
X55747Y132597D01*
X54911Y133238D01*
X53938Y133641D01*
X52894Y133779D01*
D02*
G37*
G36*
X34135Y127165D02*
X31496D01*
Y124526D01*
X31622Y124543D01*
X32474Y124896D01*
X33205Y125457D01*
X33766Y126188D01*
X34119Y127039D01*
X34135Y127165D01*
D02*
G37*
G36*
X29921D02*
X27282D01*
X27299Y127039D01*
X27651Y126188D01*
X28212Y125457D01*
X28944Y124896D01*
X29795Y124543D01*
X29921Y124526D01*
Y127165D01*
D02*
G37*
G36*
X143996Y132046D02*
X142952Y131909D01*
X141979Y131506D01*
X141143Y130865D01*
X140502Y130029D01*
X140099Y129056D01*
X139962Y128012D01*
X140085Y127074D01*
X132667Y119656D01*
X132609Y119685D01*
X129528D01*
Y116604D01*
X129556Y116545D01*
X125680Y112669D01*
X125285Y112078D01*
X125146Y111380D01*
X125146Y111380D01*
Y96616D01*
X124472Y96099D01*
X123911Y95367D01*
X123559Y94516D01*
X123438Y93602D01*
X123559Y92689D01*
X123911Y91837D01*
X124472Y91106D01*
X125203Y90545D01*
X126055Y90192D01*
X126969Y90072D01*
X127279Y90113D01*
X127323Y90055D01*
X127214Y89381D01*
X127094Y89301D01*
X127094Y89300D01*
X124572Y86779D01*
X116291D01*
X116044Y87279D01*
X116388Y87727D01*
X116791Y88700D01*
X116928Y89744D01*
X116791Y90788D01*
X116388Y91761D01*
X115746Y92597D01*
X114911Y93238D01*
X113938Y93641D01*
X112894Y93779D01*
X111849Y93641D01*
X110876Y93238D01*
X110041Y92597D01*
X109400Y91761D01*
X108997Y90788D01*
X108923Y90229D01*
X108395Y90050D01*
X95268Y103177D01*
X95478Y103451D01*
X95831Y104303D01*
X95951Y105217D01*
X95831Y106130D01*
X95478Y106982D01*
X94918Y107713D01*
X94186Y108274D01*
X93335Y108626D01*
X92421Y108747D01*
X91508Y108626D01*
X90656Y108274D01*
X89925Y107713D01*
X89364Y106982D01*
X89011Y106130D01*
X88891Y105217D01*
X89011Y104303D01*
X89364Y103451D01*
X89925Y102720D01*
X90656Y102159D01*
X91508Y101807D01*
X91592Y101795D01*
X91788Y101502D01*
X109622Y83668D01*
X110153Y83313D01*
X110289Y82787D01*
X110041Y82597D01*
X109400Y81761D01*
X108997Y80788D01*
X108859Y79744D01*
X108997Y78700D01*
X109400Y77727D01*
X109743Y77279D01*
X109497Y76779D01*
X108869D01*
X95939Y89709D01*
X96050Y90551D01*
X95930Y91465D01*
X95577Y92316D01*
X95016Y93047D01*
X94285Y93608D01*
X93433Y93961D01*
X92520Y94081D01*
X91606Y93961D01*
X90755Y93608D01*
X90023Y93047D01*
X89463Y92316D01*
X89110Y91465D01*
X88990Y90551D01*
X89110Y89638D01*
X89463Y88786D01*
X90023Y88055D01*
X90755Y87494D01*
X91606Y87141D01*
X92520Y87021D01*
X93362Y87132D01*
X106825Y73668D01*
X107417Y73273D01*
X108114Y73134D01*
X108114Y73134D01*
X109963D01*
X110124Y72661D01*
X110041Y72597D01*
X109400Y71761D01*
X108997Y70788D01*
X108859Y69744D01*
X108997Y68700D01*
X109400Y67727D01*
X110041Y66891D01*
X110876Y66250D01*
X111849Y65847D01*
X112894Y65710D01*
X113938Y65847D01*
X114911Y66250D01*
X115746Y66891D01*
X116388Y67727D01*
X116791Y68700D01*
X116928Y69744D01*
X116791Y70788D01*
X116388Y71761D01*
X115746Y72597D01*
X115499Y72787D01*
X115634Y73313D01*
X116165Y73668D01*
X118687Y76189D01*
X122519D01*
X122765Y75689D01*
X122533Y75387D01*
X122181Y74536D01*
X122164Y74410D01*
X129017D01*
X129000Y74536D01*
X128648Y75387D01*
X128416Y75689D01*
X128663Y76189D01*
X140421D01*
X140502Y75995D01*
X141143Y75159D01*
X141979Y74518D01*
X142952Y74115D01*
X143996Y73977D01*
X145040Y74115D01*
X146013Y74518D01*
X146849Y75159D01*
X147490Y75995D01*
X147893Y76968D01*
X148031Y78012D01*
X147893Y79056D01*
X147490Y80029D01*
X146849Y80865D01*
X146013Y81506D01*
X145040Y81909D01*
X143996Y82046D01*
X142952Y81909D01*
X141979Y81506D01*
X141143Y80865D01*
X140502Y80029D01*
X140421Y79834D01*
X117932D01*
X117410Y79730D01*
X117399Y79731D01*
X116966Y79979D01*
X116886Y80064D01*
X116791Y80788D01*
X116388Y81761D01*
X115746Y82597D01*
X115663Y82661D01*
X115824Y83134D01*
X125327D01*
X125327Y83134D01*
X126024Y83273D01*
X126616Y83668D01*
X129137Y86189D01*
X140421D01*
X140502Y85995D01*
X141143Y85159D01*
X141979Y84518D01*
X142952Y84115D01*
X143996Y83977D01*
X145040Y84115D01*
X146013Y84518D01*
X146849Y85159D01*
X147490Y85995D01*
X147893Y86968D01*
X148031Y88012D01*
X147893Y89056D01*
X147490Y90029D01*
X146849Y90865D01*
X146013Y91506D01*
X145040Y91909D01*
X143996Y92046D01*
X142952Y91909D01*
X141979Y91506D01*
X141143Y90865D01*
X140502Y90029D01*
X140421Y89834D01*
X128382D01*
X128270Y89812D01*
X128124Y90293D01*
X128734Y90545D01*
X129465Y91106D01*
X130026Y91837D01*
X130378Y92689D01*
X130499Y93602D01*
X130378Y94516D01*
X130026Y95367D01*
X129465Y96099D01*
X128791Y96616D01*
Y110625D01*
X142477Y124311D01*
X142952Y124115D01*
X143996Y123977D01*
X145040Y124115D01*
X146013Y124518D01*
X146849Y125159D01*
X147490Y125995D01*
X147893Y126968D01*
X148031Y128012D01*
X147893Y129056D01*
X147490Y130029D01*
X146849Y130865D01*
X146013Y131506D01*
X145040Y131909D01*
X143996Y132046D01*
D02*
G37*
G36*
X129528Y123899D02*
Y121260D01*
X132167D01*
X132150Y121386D01*
X131797Y122238D01*
X131236Y122969D01*
X130505Y123530D01*
X129654Y123882D01*
X129528Y123899D01*
D02*
G37*
G36*
X127953D02*
X127826Y123882D01*
X126975Y123530D01*
X126244Y122969D01*
X125683Y122238D01*
X125330Y121386D01*
X125314Y121260D01*
X127953D01*
Y123899D01*
D02*
G37*
G36*
X22996Y124020D02*
X19783D01*
Y120807D01*
X22996D01*
Y124020D01*
D02*
G37*
G36*
X18209D02*
X14996D01*
Y120807D01*
X18209D01*
Y124020D01*
D02*
G37*
G36*
X127953Y119685D02*
X125314D01*
X125330Y119559D01*
X125683Y118707D01*
X126244Y117976D01*
X126975Y117415D01*
X127826Y117062D01*
X127953Y117046D01*
Y119685D01*
D02*
G37*
G36*
X22996Y119232D02*
X19783D01*
Y116020D01*
X22996D01*
Y119232D01*
D02*
G37*
G36*
X18209D02*
X14996D01*
Y116020D01*
X18209D01*
Y119232D01*
D02*
G37*
G36*
X112894Y123779D02*
X111849Y123641D01*
X110876Y123238D01*
X110041Y122597D01*
X109400Y121761D01*
X108997Y120788D01*
X108859Y119744D01*
X108997Y118700D01*
X109400Y117727D01*
X110041Y116891D01*
X110876Y116250D01*
X111849Y115847D01*
X112894Y115710D01*
X113938Y115847D01*
X114911Y116250D01*
X115746Y116891D01*
X116388Y117727D01*
X116791Y118700D01*
X116928Y119744D01*
X116791Y120788D01*
X116388Y121761D01*
X115746Y122597D01*
X114911Y123238D01*
X113938Y123641D01*
X112894Y123779D01*
D02*
G37*
G36*
X52894D02*
X51850Y123641D01*
X50876Y123238D01*
X50041Y122597D01*
X49400Y121761D01*
X48997Y120788D01*
X48859Y119744D01*
X48997Y118700D01*
X49400Y117727D01*
X50041Y116891D01*
X50876Y116250D01*
X51850Y115847D01*
X52894Y115710D01*
X53938Y115847D01*
X54911Y116250D01*
X55747Y116891D01*
X56388Y117727D01*
X56791Y118700D01*
X56928Y119744D01*
X56791Y120788D01*
X56388Y121761D01*
X55747Y122597D01*
X54911Y123238D01*
X53938Y123641D01*
X52894Y123779D01*
D02*
G37*
G36*
X11811Y116812D02*
Y114173D01*
X14450D01*
X14434Y114299D01*
X14081Y115151D01*
X13520Y115882D01*
X12789Y116443D01*
X11937Y116796D01*
X11811Y116812D01*
D02*
G37*
G36*
X10236D02*
X10110Y116796D01*
X9258Y116443D01*
X8527Y115882D01*
X7966Y115151D01*
X7614Y114299D01*
X7597Y114173D01*
X10236D01*
Y116812D01*
D02*
G37*
G36*
X143996Y122046D02*
X142952Y121909D01*
X141979Y121506D01*
X141143Y120865D01*
X140502Y120029D01*
X140099Y119056D01*
X139962Y118012D01*
X140041Y117406D01*
X131822Y109186D01*
X131427Y108595D01*
X131288Y107897D01*
X131288Y107897D01*
Y107520D01*
X131207Y107486D01*
X130476Y106925D01*
X129915Y106194D01*
X129562Y105343D01*
X129442Y104429D01*
X129562Y103516D01*
X129915Y102664D01*
X130476Y101933D01*
X131207Y101372D01*
X132059Y101019D01*
X132972Y100899D01*
X133886Y101019D01*
X134738Y101372D01*
X135469Y101933D01*
X136030Y102664D01*
X136382Y103516D01*
X136503Y104429D01*
X136382Y105343D01*
X136030Y106194D01*
X135469Y106925D01*
X135343Y107021D01*
X135311Y107520D01*
X142212Y114421D01*
X142952Y114115D01*
X143996Y113977D01*
X145040Y114115D01*
X146013Y114518D01*
X146849Y115159D01*
X147490Y115995D01*
X147893Y116968D01*
X148031Y118012D01*
X147893Y119056D01*
X147490Y120029D01*
X146849Y120865D01*
X146013Y121506D01*
X145040Y121909D01*
X143996Y122046D01*
D02*
G37*
G36*
X14450Y112598D02*
X11811D01*
Y109959D01*
X11937Y109976D01*
X12789Y110329D01*
X13520Y110890D01*
X14081Y111621D01*
X14434Y112472D01*
X14450Y112598D01*
D02*
G37*
G36*
X10236D02*
X7597D01*
X7614Y112472D01*
X7966Y111621D01*
X8527Y110890D01*
X9258Y110329D01*
X10110Y109976D01*
X10236Y109959D01*
Y112598D01*
D02*
G37*
G36*
X112894Y113779D02*
X111849Y113641D01*
X110876Y113238D01*
X110041Y112597D01*
X109400Y111761D01*
X108997Y110788D01*
X108859Y109744D01*
X108997Y108700D01*
X109400Y107727D01*
X110041Y106891D01*
X110876Y106250D01*
X111849Y105847D01*
X112894Y105710D01*
X113938Y105847D01*
X114911Y106250D01*
X115746Y106891D01*
X116388Y107727D01*
X116791Y108700D01*
X116928Y109744D01*
X116791Y110788D01*
X116388Y111761D01*
X115746Y112597D01*
X114911Y113238D01*
X113938Y113641D01*
X112894Y113779D01*
D02*
G37*
G36*
X52894D02*
X51850Y113641D01*
X50876Y113238D01*
X50041Y112597D01*
X49400Y111761D01*
X48997Y110788D01*
X48859Y109744D01*
X48997Y108700D01*
X49400Y107727D01*
X50041Y106891D01*
X50876Y106250D01*
X51850Y105847D01*
X52894Y105710D01*
X53938Y105847D01*
X54911Y106250D01*
X55747Y106891D01*
X56388Y107727D01*
X56791Y108700D01*
X56928Y109744D01*
X56791Y110788D01*
X56388Y111761D01*
X55747Y112597D01*
X54911Y113238D01*
X53938Y113641D01*
X52894Y113779D01*
D02*
G37*
G36*
X143996Y112046D02*
X142952Y111909D01*
X141979Y111506D01*
X141143Y110865D01*
X140502Y110029D01*
X140099Y109056D01*
X139962Y108012D01*
X140099Y106968D01*
X140502Y105995D01*
X141143Y105159D01*
X141979Y104518D01*
X142952Y104115D01*
X143996Y103977D01*
X145040Y104115D01*
X146013Y104518D01*
X146849Y105159D01*
X147490Y105995D01*
X147893Y106968D01*
X148031Y108012D01*
X147893Y109056D01*
X147490Y110029D01*
X146849Y110865D01*
X146013Y111506D01*
X145040Y111909D01*
X143996Y112046D01*
D02*
G37*
G36*
X144783Y101943D02*
Y98799D01*
X147927D01*
X147893Y99056D01*
X147490Y100029D01*
X146849Y100865D01*
X146013Y101506D01*
X145040Y101909D01*
X144783Y101943D01*
D02*
G37*
G36*
X143209D02*
X142952Y101909D01*
X141979Y101506D01*
X141143Y100865D01*
X140502Y100029D01*
X140099Y99056D01*
X140065Y98799D01*
X143209D01*
Y101943D01*
D02*
G37*
G36*
X155512Y101064D02*
Y98425D01*
X158151D01*
X158134Y98551D01*
X157782Y99403D01*
X157221Y100134D01*
X156490Y100695D01*
X155638Y101048D01*
X155512Y101064D01*
D02*
G37*
G36*
X153937D02*
X153811Y101048D01*
X152959Y100695D01*
X152228Y100134D01*
X151667Y99403D01*
X151314Y98551D01*
X151298Y98425D01*
X153937D01*
Y101064D01*
D02*
G37*
G36*
X135433Y99096D02*
Y96457D01*
X138072D01*
X138056Y96583D01*
X137703Y97434D01*
X137142Y98166D01*
X136411Y98726D01*
X135559Y99079D01*
X135433Y99096D01*
D02*
G37*
G36*
X133858D02*
X133732Y99079D01*
X132881Y98726D01*
X132149Y98166D01*
X131588Y97434D01*
X131236Y96583D01*
X131219Y96457D01*
X133858D01*
Y99096D01*
D02*
G37*
G36*
X112894Y103779D02*
X111849Y103641D01*
X110876Y103238D01*
X110041Y102597D01*
X109400Y101761D01*
X108997Y100788D01*
X108859Y99744D01*
X108997Y98700D01*
X109400Y97727D01*
X110041Y96891D01*
X110876Y96250D01*
X111849Y95847D01*
X112894Y95710D01*
X113938Y95847D01*
X114911Y96250D01*
X115746Y96891D01*
X116388Y97727D01*
X116791Y98700D01*
X116928Y99744D01*
X116791Y100788D01*
X116388Y101761D01*
X115746Y102597D01*
X114911Y103238D01*
X113938Y103641D01*
X112894Y103779D01*
D02*
G37*
G36*
X52894D02*
X51850Y103641D01*
X50876Y103238D01*
X50041Y102597D01*
X49400Y101761D01*
X48997Y100788D01*
X48859Y99744D01*
X48997Y98700D01*
X49400Y97727D01*
X50041Y96891D01*
X50876Y96250D01*
X51850Y95847D01*
X52894Y95710D01*
X53938Y95847D01*
X54911Y96250D01*
X55747Y96891D01*
X56388Y97727D01*
X56791Y98700D01*
X56928Y99744D01*
X56791Y100788D01*
X56388Y101761D01*
X55747Y102597D01*
X54911Y103238D01*
X53938Y103641D01*
X52894Y103779D01*
D02*
G37*
G36*
X158151Y96850D02*
X155512D01*
Y94211D01*
X155638Y94228D01*
X156490Y94581D01*
X157221Y95142D01*
X157782Y95873D01*
X158134Y96724D01*
X158151Y96850D01*
D02*
G37*
G36*
X153937D02*
X151298D01*
X151314Y96724D01*
X151667Y95873D01*
X152228Y95142D01*
X152959Y94581D01*
X153811Y94228D01*
X153937Y94211D01*
Y96850D01*
D02*
G37*
G36*
X143209Y97224D02*
X140065D01*
X140099Y96968D01*
X140502Y95995D01*
X141143Y95159D01*
X141979Y94518D01*
X142952Y94115D01*
X143209Y94081D01*
Y97224D01*
D02*
G37*
G36*
X147927D02*
X144783D01*
Y94081D01*
X145040Y94115D01*
X146013Y94518D01*
X146849Y95159D01*
X147490Y95995D01*
X147893Y96968D01*
X147927Y97224D01*
D02*
G37*
G36*
X67716Y95552D02*
Y92913D01*
X70356D01*
X70339Y93040D01*
X69986Y93891D01*
X69425Y94622D01*
X68694Y95183D01*
X67843Y95536D01*
X67716Y95552D01*
D02*
G37*
G36*
X66142D02*
X66015Y95536D01*
X65164Y95183D01*
X64433Y94622D01*
X63872Y93891D01*
X63519Y93040D01*
X63503Y92913D01*
X66142D01*
Y95552D01*
D02*
G37*
G36*
X138072Y94882D02*
X135433D01*
Y92243D01*
X135559Y92259D01*
X136411Y92612D01*
X137142Y93173D01*
X137703Y93904D01*
X138056Y94756D01*
X138072Y94882D01*
D02*
G37*
G36*
X133858D02*
X131219D01*
X131236Y94756D01*
X131588Y93904D01*
X132149Y93173D01*
X132881Y92612D01*
X133732Y92259D01*
X133858Y92243D01*
Y94882D01*
D02*
G37*
G36*
X29528Y93978D02*
Y91339D01*
X32167D01*
X32150Y91465D01*
X31797Y92316D01*
X31236Y93047D01*
X30505Y93608D01*
X29654Y93961D01*
X29528Y93978D01*
D02*
G37*
G36*
X27953D02*
X27826Y93961D01*
X26975Y93608D01*
X26244Y93047D01*
X25683Y92316D01*
X25330Y91465D01*
X25314Y91339D01*
X27953D01*
Y93978D01*
D02*
G37*
G36*
X18504Y99015D02*
X17460Y98877D01*
X16487Y98474D01*
X15651Y97833D01*
X15010Y96998D01*
X14607Y96025D01*
X14469Y94980D01*
X14607Y93936D01*
X15010Y92963D01*
X15651Y92128D01*
X16487Y91486D01*
X17460Y91083D01*
X18504Y90946D01*
X19548Y91083D01*
X20521Y91486D01*
X21357Y92128D01*
X21998Y92963D01*
X22401Y93936D01*
X22538Y94980D01*
X22401Y96025D01*
X21998Y96998D01*
X21357Y97833D01*
X20521Y98474D01*
X19548Y98877D01*
X18504Y99015D01*
D02*
G37*
G36*
X70356Y91339D02*
X67716D01*
Y88699D01*
X67843Y88716D01*
X68694Y89069D01*
X69425Y89630D01*
X69986Y90361D01*
X70339Y91212D01*
X70356Y91339D01*
D02*
G37*
G36*
X66142D02*
X63503D01*
X63519Y91212D01*
X63872Y90361D01*
X64433Y89630D01*
X65164Y89069D01*
X66015Y88716D01*
X66142Y88699D01*
Y91339D01*
D02*
G37*
G36*
X32167Y89764D02*
X29528D01*
Y87125D01*
X29654Y87141D01*
X30505Y87494D01*
X31236Y88055D01*
X31797Y88786D01*
X32150Y89638D01*
X32167Y89764D01*
D02*
G37*
G36*
X27953D02*
X25314D01*
X25330Y89638D01*
X25683Y88786D01*
X26244Y88055D01*
X26975Y87494D01*
X27826Y87141D01*
X27953Y87125D01*
Y89764D01*
D02*
G37*
G36*
X52894Y93779D02*
X51850Y93641D01*
X50876Y93238D01*
X50041Y92597D01*
X49400Y91761D01*
X48997Y90788D01*
X48859Y89744D01*
X48997Y88700D01*
X49400Y87727D01*
X50041Y86891D01*
X50876Y86250D01*
X51850Y85847D01*
X52894Y85710D01*
X53938Y85847D01*
X54911Y86250D01*
X55747Y86891D01*
X56388Y87727D01*
X56791Y88700D01*
X56928Y89744D01*
X56791Y90788D01*
X56388Y91761D01*
X55747Y92597D01*
X54911Y93238D01*
X53938Y93641D01*
X52894Y93779D01*
D02*
G37*
G36*
X18504Y89015D02*
X17460Y88877D01*
X16487Y88474D01*
X15651Y87833D01*
X15010Y86998D01*
X14607Y86024D01*
X14469Y84980D01*
X14607Y83936D01*
X15010Y82963D01*
X15651Y82127D01*
X16487Y81486D01*
X17460Y81083D01*
X18504Y80946D01*
X19548Y81083D01*
X20521Y81486D01*
X21357Y82127D01*
X21998Y82963D01*
X22401Y83936D01*
X22538Y84980D01*
X22401Y86024D01*
X21998Y86998D01*
X21357Y87833D01*
X20521Y88474D01*
X19548Y88877D01*
X18504Y89015D01*
D02*
G37*
G36*
X22504Y78980D02*
X19291D01*
Y75768D01*
X22504D01*
Y78980D01*
D02*
G37*
G36*
X17717D02*
X14504D01*
Y75768D01*
X17717D01*
Y78980D01*
D02*
G37*
G36*
X52894Y83779D02*
X51850Y83641D01*
X50876Y83238D01*
X50041Y82597D01*
X49400Y81761D01*
X48997Y80788D01*
X48859Y79744D01*
X48997Y78700D01*
X49400Y77727D01*
X50041Y76891D01*
X50876Y76250D01*
X51850Y75847D01*
X52894Y75710D01*
X53938Y75847D01*
X54911Y76250D01*
X55747Y76891D01*
X56388Y77727D01*
X56791Y78700D01*
X56928Y79744D01*
X56791Y80788D01*
X56388Y81761D01*
X55747Y82597D01*
X54911Y83238D01*
X53938Y83641D01*
X52894Y83779D01*
D02*
G37*
G36*
X22504Y74193D02*
X19291D01*
Y70980D01*
X22504D01*
Y74193D01*
D02*
G37*
G36*
X17717D02*
X14504D01*
Y70980D01*
X17717D01*
Y74193D01*
D02*
G37*
G36*
X129017Y72835D02*
X126378D01*
Y70196D01*
X126504Y70212D01*
X127356Y70565D01*
X128087Y71126D01*
X128648Y71857D01*
X129000Y72708D01*
X129017Y72835D01*
D02*
G37*
G36*
X124803D02*
X122164D01*
X122181Y72708D01*
X122533Y71857D01*
X123094Y71126D01*
X123826Y70565D01*
X124677Y70212D01*
X124803Y70196D01*
Y72835D01*
D02*
G37*
G36*
X19291Y70356D02*
Y67716D01*
X21930D01*
X21914Y67843D01*
X21561Y68694D01*
X21000Y69425D01*
X20269Y69986D01*
X19418Y70339D01*
X19291Y70356D01*
D02*
G37*
G36*
X17717D02*
X17590Y70339D01*
X16739Y69986D01*
X16008Y69425D01*
X15447Y68694D01*
X15094Y67843D01*
X15077Y67716D01*
X17717D01*
Y70356D01*
D02*
G37*
G36*
X52894Y73779D02*
X51850Y73641D01*
X50876Y73238D01*
X50041Y72597D01*
X49400Y71761D01*
X48997Y70788D01*
X48859Y69744D01*
X48997Y68700D01*
X49400Y67727D01*
X50041Y66891D01*
X50876Y66250D01*
X51850Y65847D01*
X52894Y65710D01*
X53938Y65847D01*
X54911Y66250D01*
X55747Y66891D01*
X56388Y67727D01*
X56791Y68700D01*
X56928Y69744D01*
X56791Y70788D01*
X56388Y71761D01*
X55747Y72597D01*
X54911Y73238D01*
X53938Y73641D01*
X52894Y73779D01*
D02*
G37*
G36*
X93307Y66812D02*
Y64173D01*
X95946D01*
X95930Y64299D01*
X95577Y65151D01*
X95016Y65882D01*
X94285Y66443D01*
X93433Y66796D01*
X93307Y66812D01*
D02*
G37*
G36*
X91732D02*
X91606Y66796D01*
X90755Y66443D01*
X90023Y65882D01*
X89463Y65151D01*
X89110Y64299D01*
X89093Y64173D01*
X91732D01*
Y66812D01*
D02*
G37*
G36*
X147996Y72012D02*
X139996D01*
Y64012D01*
X147996D01*
Y72012D01*
D02*
G37*
G36*
X21930Y66142D02*
X19291D01*
Y63503D01*
X19418Y63519D01*
X20269Y63872D01*
X21000Y64433D01*
X21561Y65164D01*
X21914Y66015D01*
X21930Y66142D01*
D02*
G37*
G36*
X17717D02*
X15077D01*
X15094Y66015D01*
X15447Y65164D01*
X16008Y64433D01*
X16739Y63872D01*
X17590Y63519D01*
X17717Y63503D01*
Y66142D01*
D02*
G37*
G36*
X95946Y62598D02*
X93307D01*
Y59959D01*
X93433Y59976D01*
X94285Y60329D01*
X95016Y60890D01*
X95577Y61621D01*
X95930Y62472D01*
X95946Y62598D01*
D02*
G37*
G36*
X91732D02*
X89093D01*
X89110Y62472D01*
X89463Y61621D01*
X90023Y60890D01*
X90755Y60329D01*
X91606Y59976D01*
X91732Y59959D01*
Y62598D01*
D02*
G37*
G36*
X112894Y63779D02*
X111849Y63641D01*
X110876Y63238D01*
X110041Y62597D01*
X109400Y61761D01*
X108997Y60788D01*
X108859Y59744D01*
X108997Y58700D01*
X109400Y57727D01*
X110041Y56891D01*
X110876Y56250D01*
X111849Y55847D01*
X112894Y55710D01*
X113938Y55847D01*
X114911Y56250D01*
X115746Y56891D01*
X116388Y57727D01*
X116791Y58700D01*
X116928Y59744D01*
X116791Y60788D01*
X116388Y61761D01*
X115746Y62597D01*
X114911Y63238D01*
X113938Y63641D01*
X112894Y63779D01*
D02*
G37*
G36*
X52894D02*
X51850Y63641D01*
X50876Y63238D01*
X50041Y62597D01*
X49400Y61761D01*
X48997Y60788D01*
X48859Y59744D01*
X48997Y58700D01*
X49400Y57727D01*
X50041Y56891D01*
X50876Y56250D01*
X51850Y55847D01*
X52894Y55710D01*
X53938Y55847D01*
X54911Y56250D01*
X55747Y56891D01*
X56388Y57727D01*
X56791Y58700D01*
X56928Y59744D01*
X56791Y60788D01*
X56388Y61761D01*
X55747Y62597D01*
X54911Y63238D01*
X53938Y63641D01*
X52894Y63779D01*
D02*
G37*
G36*
X32677Y58151D02*
Y55512D01*
X35316D01*
X35300Y55638D01*
X34947Y56489D01*
X34386Y57221D01*
X33655Y57782D01*
X32803Y58134D01*
X32677Y58151D01*
D02*
G37*
G36*
X31102D02*
X30976Y58134D01*
X30125Y57782D01*
X29394Y57221D01*
X28833Y56489D01*
X28480Y55638D01*
X28463Y55512D01*
X31102D01*
Y58151D01*
D02*
G37*
G36*
X68110Y54608D02*
Y51968D01*
X70749D01*
X70733Y52095D01*
X70380Y52946D01*
X69819Y53677D01*
X69088Y54238D01*
X68237Y54591D01*
X68110Y54608D01*
D02*
G37*
G36*
X66535D02*
X66409Y54591D01*
X65558Y54238D01*
X64827Y53677D01*
X64266Y52946D01*
X63913Y52095D01*
X63896Y51968D01*
X66535D01*
Y54608D01*
D02*
G37*
G36*
X35316Y53937D02*
X32677D01*
Y51298D01*
X32803Y51315D01*
X33655Y51667D01*
X34386Y52228D01*
X34947Y52959D01*
X35300Y53811D01*
X35316Y53937D01*
D02*
G37*
G36*
X31102D02*
X28463D01*
X28480Y53811D01*
X28833Y52959D01*
X29394Y52228D01*
X30125Y51667D01*
X30976Y51315D01*
X31102Y51298D01*
Y53937D01*
D02*
G37*
G36*
X70749Y50394D02*
X68110D01*
Y47755D01*
X68237Y47771D01*
X69088Y48124D01*
X69819Y48685D01*
X70380Y49416D01*
X70733Y50267D01*
X70749Y50394D01*
D02*
G37*
G36*
X66535D02*
X63896D01*
X63913Y50267D01*
X64266Y49416D01*
X64827Y48685D01*
X65558Y48124D01*
X66409Y47771D01*
X66535Y47755D01*
Y50394D01*
D02*
G37*
G36*
X141732Y49490D02*
Y46850D01*
X144371D01*
X144355Y46977D01*
X144002Y47828D01*
X143441Y48559D01*
X142710Y49120D01*
X141859Y49473D01*
X141732Y49490D01*
D02*
G37*
G36*
X140157D02*
X140031Y49473D01*
X139180Y49120D01*
X138449Y48559D01*
X137888Y47828D01*
X137535Y46977D01*
X137518Y46850D01*
X140157D01*
Y49490D01*
D02*
G37*
G36*
X18504Y54724D02*
X17460Y54586D01*
X16487Y54183D01*
X15651Y53542D01*
X15010Y52706D01*
X14607Y51733D01*
X14469Y50689D01*
X14607Y49645D01*
X15010Y48672D01*
X15651Y47836D01*
X16487Y47195D01*
X17460Y46792D01*
X18504Y46654D01*
X19548Y46792D01*
X20521Y47195D01*
X21357Y47836D01*
X21998Y48672D01*
X22401Y49645D01*
X22538Y50689D01*
X22401Y51733D01*
X21998Y52706D01*
X21357Y53542D01*
X20521Y54183D01*
X19548Y54586D01*
X18504Y54724D01*
D02*
G37*
G36*
X112894Y53779D02*
X111849Y53641D01*
X110876Y53238D01*
X110041Y52597D01*
X109400Y51761D01*
X108997Y50788D01*
X108859Y49744D01*
X108997Y48700D01*
X109400Y47727D01*
X110041Y46891D01*
X110876Y46250D01*
X111849Y45847D01*
X112894Y45710D01*
X113938Y45847D01*
X114911Y46250D01*
X115746Y46891D01*
X116388Y47727D01*
X116791Y48700D01*
X116928Y49744D01*
X116791Y50788D01*
X116388Y51761D01*
X115746Y52597D01*
X114911Y53238D01*
X113938Y53641D01*
X112894Y53779D01*
D02*
G37*
G36*
X52894D02*
X51850Y53641D01*
X50876Y53238D01*
X50041Y52597D01*
X49400Y51761D01*
X48997Y50788D01*
X48859Y49744D01*
X48997Y48700D01*
X49400Y47727D01*
X50041Y46891D01*
X50876Y46250D01*
X51850Y45847D01*
X52894Y45710D01*
X53938Y45847D01*
X54911Y46250D01*
X55747Y46891D01*
X56388Y47727D01*
X56791Y48700D01*
X56928Y49744D01*
X56791Y50788D01*
X56388Y51761D01*
X55747Y52597D01*
X54911Y53238D01*
X53938Y53641D01*
X52894Y53779D01*
D02*
G37*
G36*
X144371Y45276D02*
X141732D01*
Y42636D01*
X141859Y42653D01*
X142710Y43006D01*
X143441Y43567D01*
X144002Y44298D01*
X144355Y45149D01*
X144371Y45276D01*
D02*
G37*
G36*
X140157D02*
X137518D01*
X137535Y45149D01*
X137888Y44298D01*
X138449Y43567D01*
X139180Y43006D01*
X140031Y42653D01*
X140157Y42636D01*
Y45276D01*
D02*
G37*
G36*
X18504Y44723D02*
X17460Y44586D01*
X16487Y44183D01*
X15651Y43542D01*
X15010Y42706D01*
X14607Y41733D01*
X14469Y40689D01*
X14607Y39645D01*
X15010Y38672D01*
X15651Y37836D01*
X16487Y37195D01*
X17460Y36792D01*
X18504Y36654D01*
X19548Y36792D01*
X20521Y37195D01*
X21357Y37836D01*
X21998Y38672D01*
X22401Y39645D01*
X22538Y40689D01*
X22401Y41733D01*
X21998Y42706D01*
X21357Y43542D01*
X20521Y44183D01*
X19548Y44586D01*
X18504Y44723D01*
D02*
G37*
G36*
X112894Y43779D02*
X111849Y43641D01*
X110876Y43238D01*
X110041Y42597D01*
X109400Y41761D01*
X108997Y40788D01*
X108859Y39744D01*
X108997Y38700D01*
X109400Y37727D01*
X110041Y36891D01*
X110876Y36250D01*
X111849Y35847D01*
X112894Y35710D01*
X113938Y35847D01*
X114911Y36250D01*
X115746Y36891D01*
X116388Y37727D01*
X116791Y38700D01*
X116928Y39744D01*
X116791Y40788D01*
X116388Y41761D01*
X115746Y42597D01*
X114911Y43238D01*
X113938Y43641D01*
X112894Y43779D01*
D02*
G37*
G36*
X52894D02*
X51850Y43641D01*
X50876Y43238D01*
X50041Y42597D01*
X49400Y41761D01*
X48997Y40788D01*
X48859Y39744D01*
X48997Y38700D01*
X49400Y37727D01*
X50041Y36891D01*
X50876Y36250D01*
X51850Y35847D01*
X52894Y35710D01*
X53938Y35847D01*
X54911Y36250D01*
X55747Y36891D01*
X56388Y37727D01*
X56791Y38700D01*
X56928Y39744D01*
X56791Y40788D01*
X56388Y41761D01*
X55747Y42597D01*
X54911Y43238D01*
X53938Y43641D01*
X52894Y43779D01*
D02*
G37*
G36*
X27559Y34923D02*
Y32283D01*
X30198D01*
X30182Y32410D01*
X29829Y33261D01*
X29268Y33992D01*
X28537Y34553D01*
X27685Y34906D01*
X27559Y34923D01*
D02*
G37*
G36*
X25984D02*
X25858Y34906D01*
X25006Y34553D01*
X24275Y33992D01*
X23714Y33261D01*
X23362Y32410D01*
X23345Y32283D01*
X25984D01*
Y34923D01*
D02*
G37*
G36*
X22504Y34689D02*
X19291D01*
Y31476D01*
X22504D01*
Y34689D01*
D02*
G37*
G36*
X17717D02*
X14504D01*
Y31476D01*
X17717D01*
Y34689D01*
D02*
G37*
G36*
X107346Y33482D02*
Y30843D01*
X109985D01*
X109969Y30969D01*
X109616Y31820D01*
X109055Y32552D01*
X108324Y33112D01*
X107473Y33465D01*
X107346Y33482D01*
D02*
G37*
G36*
X105772D02*
X105645Y33465D01*
X104794Y33112D01*
X104063Y32552D01*
X103502Y31820D01*
X103149Y30969D01*
X103132Y30843D01*
X105772D01*
Y33482D01*
D02*
G37*
G36*
X49213Y31773D02*
Y29134D01*
X51852D01*
X51835Y29260D01*
X51482Y30112D01*
X50921Y30843D01*
X50190Y31404D01*
X49339Y31756D01*
X49213Y31773D01*
D02*
G37*
G36*
X47638D02*
X47512Y31756D01*
X46660Y31404D01*
X45929Y30843D01*
X45368Y30112D01*
X45015Y29260D01*
X44999Y29134D01*
X47638D01*
Y31773D01*
D02*
G37*
G36*
X30198Y30709D02*
X27559D01*
Y28069D01*
X27685Y28086D01*
X28537Y28439D01*
X29268Y29000D01*
X29829Y29731D01*
X30182Y30582D01*
X30198Y30709D01*
D02*
G37*
G36*
X25984D02*
X23345D01*
X23362Y30582D01*
X23714Y29731D01*
X24275Y29000D01*
X25006Y28439D01*
X25858Y28086D01*
X25984Y28069D01*
Y30709D01*
D02*
G37*
G36*
X22504Y29902D02*
X19291D01*
Y26689D01*
X22504D01*
Y29902D01*
D02*
G37*
G36*
X17717D02*
X14504D01*
Y26689D01*
X17717D01*
Y29902D01*
D02*
G37*
G36*
X109985Y29268D02*
X107346D01*
Y26629D01*
X107473Y26645D01*
X108324Y26998D01*
X109055Y27559D01*
X109616Y28290D01*
X109969Y29142D01*
X109985Y29268D01*
D02*
G37*
G36*
X105772D02*
X103132D01*
X103149Y29142D01*
X103502Y28290D01*
X104063Y27559D01*
X104794Y26998D01*
X105645Y26645D01*
X105772Y26629D01*
Y29268D01*
D02*
G37*
G36*
X51852Y27559D02*
X49213D01*
Y24920D01*
X49339Y24937D01*
X50190Y25289D01*
X50921Y25850D01*
X51482Y26581D01*
X51835Y27433D01*
X51852Y27559D01*
D02*
G37*
G36*
X47638D02*
X44999D01*
X45015Y27433D01*
X45368Y26581D01*
X45929Y25850D01*
X46660Y25289D01*
X47512Y24937D01*
X47638Y24920D01*
Y27559D01*
D02*
G37*
G36*
X70472Y19962D02*
Y17323D01*
X73112D01*
X73095Y17449D01*
X72742Y18301D01*
X72181Y19032D01*
X71450Y19593D01*
X70599Y19945D01*
X70472Y19962D01*
D02*
G37*
G36*
X68898D02*
X68771Y19945D01*
X67920Y19593D01*
X67189Y19032D01*
X66628Y18301D01*
X66275Y17449D01*
X66259Y17323D01*
X68898D01*
Y19962D01*
D02*
G37*
G36*
X73112Y15748D02*
X70472D01*
Y13109D01*
X70599Y13126D01*
X71450Y13478D01*
X72181Y14039D01*
X72742Y14770D01*
X73095Y15622D01*
X73112Y15748D01*
D02*
G37*
G36*
X68898D02*
X66259D01*
X66275Y15622D01*
X66628Y14770D01*
X67189Y14039D01*
X67920Y13478D01*
X68771Y13126D01*
X68898Y13109D01*
Y15748D01*
D02*
G37*
G36*
X80709Y46837D02*
X79795Y46717D01*
X78944Y46364D01*
X78212Y45803D01*
X77651Y45072D01*
X77404Y44474D01*
X76215D01*
X75517Y44335D01*
X74926Y43940D01*
X74926Y43940D01*
X47387Y16402D01*
X41965D01*
Y8402D01*
X49965D01*
Y13824D01*
X76970Y40829D01*
X78198D01*
X78212Y40811D01*
X78540Y40560D01*
Y16205D01*
X74150D01*
Y8205D01*
X82150D01*
Y14241D01*
X82185Y14417D01*
X82185Y14417D01*
Y37262D01*
X82647Y37453D01*
X106276Y13824D01*
Y8402D01*
X114276D01*
Y16402D01*
X108853D01*
X83743Y41512D01*
X83766Y41542D01*
X84119Y42393D01*
X84239Y43307D01*
X84119Y44221D01*
X83766Y45072D01*
X83205Y45803D01*
X82474Y46364D01*
X81622Y46717D01*
X80709Y46837D01*
D02*
G37*
G36*
X120276Y16436D02*
X119231Y16299D01*
X118258Y15896D01*
X117423Y15254D01*
X116782Y14419D01*
X116378Y13446D01*
X116241Y12402D01*
X116378Y11357D01*
X116782Y10384D01*
X117423Y9549D01*
X118258Y8908D01*
X119231Y8505D01*
X120276Y8367D01*
X121320Y8505D01*
X122293Y8908D01*
X123128Y9549D01*
X123770Y10384D01*
X124173Y11357D01*
X124310Y12402D01*
X124173Y13446D01*
X123770Y14419D01*
X123128Y15254D01*
X122293Y15896D01*
X121320Y16299D01*
X120276Y16436D01*
D02*
G37*
G36*
X55965D02*
X54920Y16299D01*
X53947Y15896D01*
X53112Y15254D01*
X52471Y14419D01*
X52068Y13446D01*
X51930Y12402D01*
X52068Y11357D01*
X52471Y10384D01*
X53112Y9549D01*
X53947Y8908D01*
X54920Y8505D01*
X55965Y8367D01*
X57009Y8505D01*
X57982Y8908D01*
X58817Y9549D01*
X59459Y10384D01*
X59862Y11357D01*
X59999Y12402D01*
X59862Y13446D01*
X59459Y14419D01*
X58817Y15254D01*
X57982Y15896D01*
X57009Y16299D01*
X55965Y16436D01*
D02*
G37*
G36*
X88150Y16239D02*
X87105Y16102D01*
X86132Y15699D01*
X85297Y15058D01*
X84656Y14222D01*
X84253Y13249D01*
X84115Y12205D01*
X84253Y11161D01*
X84656Y10187D01*
X85297Y9352D01*
X86132Y8711D01*
X87105Y8308D01*
X88150Y8170D01*
X89194Y8308D01*
X90167Y8711D01*
X91002Y9352D01*
X91644Y10187D01*
X92047Y11161D01*
X92184Y12205D01*
X92047Y13249D01*
X91644Y14222D01*
X91002Y15058D01*
X90167Y15699D01*
X89194Y16102D01*
X88150Y16239D01*
D02*
G37*
%LPD*%
D30*
X80709Y43307D02*
X81364Y42652D01*
Y41313D02*
Y42652D01*
Y41313D02*
X110276Y12402D01*
X80053Y42652D02*
X80362Y42961D01*
X80709Y43307D01*
X80362Y14417D02*
Y42961D01*
X78150Y12205D02*
X80362Y14417D01*
X76215Y42652D02*
X80053D01*
X45965Y12402D02*
X76215Y42652D01*
X92520Y250000D02*
X92776Y249744D01*
X112894D01*
X46144Y129744D02*
X52894D01*
X28605Y112205D02*
X46144Y129744D01*
X108114Y74957D02*
X114877D01*
X92520Y90551D02*
X108114Y74957D01*
X92520Y173228D02*
X97066D01*
X105337Y164957D01*
X66118Y174531D02*
X66437Y174213D01*
X43322Y174531D02*
X66118D01*
X42586Y175268D02*
X43322Y174531D01*
X20717Y175268D02*
X42586D01*
X18504Y177480D02*
X20717Y175268D01*
X92323Y161417D02*
X93250D01*
X94923Y159744D01*
X112894D01*
X114452Y164957D02*
X117681Y161727D01*
Y154532D02*
Y161727D01*
X112894Y149744D02*
X117681Y154532D01*
X105337Y164957D02*
X114452D01*
X92421Y105217D02*
X93077Y104561D01*
Y102791D02*
Y104561D01*
Y102791D02*
X110911Y84957D01*
X125327D01*
X128382Y88012D01*
X143996D01*
X117932Y78012D02*
X143996D01*
X114877Y74957D02*
X117932Y78012D01*
X133110Y107897D02*
X143225Y118012D01*
X143996D01*
X133110Y104567D02*
Y107897D01*
X126969Y93602D02*
Y111380D01*
X143600Y128012D01*
X126083Y180512D02*
X126526D01*
X145423Y199409D01*
X145866D01*
X131890Y174508D02*
Y175433D01*
X145866Y189409D01*
X143600Y128012D02*
X143996D01*
X132972Y104429D02*
X133110Y104567D01*
D31*
X120423Y273465D02*
Y320817D01*
X100689Y340551D02*
X120423Y320817D01*
D33*
X143996Y68012D02*
D03*
X18504Y30689D02*
D03*
Y74980D02*
D03*
X18996Y120020D02*
D03*
X145866Y239409D02*
D03*
X137638Y327087D02*
D03*
X18504Y177480D02*
D03*
X17559Y327244D02*
D03*
D34*
X143996Y78012D02*
D03*
Y88012D02*
D03*
Y98012D02*
D03*
Y108012D02*
D03*
Y118012D02*
D03*
Y128012D02*
D03*
Y138012D02*
D03*
X120276Y12402D02*
D03*
X88150Y12205D02*
D03*
X55965Y12402D02*
D03*
X18504Y40689D02*
D03*
Y50689D02*
D03*
Y84980D02*
D03*
Y94980D02*
D03*
X18996Y150020D02*
D03*
Y140020D02*
D03*
Y130020D02*
D03*
X112894Y109744D02*
D03*
Y119744D02*
D03*
Y129744D02*
D03*
Y269744D02*
D03*
Y259744D02*
D03*
Y249744D02*
D03*
X52894Y129744D02*
D03*
X112894Y99744D02*
D03*
Y89744D02*
D03*
Y79744D02*
D03*
Y69744D02*
D03*
Y59744D02*
D03*
Y49744D02*
D03*
Y39744D02*
D03*
X52894D02*
D03*
Y49744D02*
D03*
Y59744D02*
D03*
Y69744D02*
D03*
Y79744D02*
D03*
Y89744D02*
D03*
Y99744D02*
D03*
Y109744D02*
D03*
Y119744D02*
D03*
X112894Y239744D02*
D03*
Y229744D02*
D03*
Y219744D02*
D03*
Y209744D02*
D03*
Y199744D02*
D03*
Y189744D02*
D03*
Y179744D02*
D03*
Y169744D02*
D03*
Y159744D02*
D03*
Y149744D02*
D03*
Y139744D02*
D03*
X52894D02*
D03*
Y149744D02*
D03*
Y159744D02*
D03*
Y169744D02*
D03*
Y179744D02*
D03*
Y189744D02*
D03*
Y199744D02*
D03*
Y209744D02*
D03*
Y219744D02*
D03*
Y229744D02*
D03*
Y239744D02*
D03*
Y249744D02*
D03*
Y259744D02*
D03*
Y269744D02*
D03*
X145866Y169409D02*
D03*
Y179409D02*
D03*
Y189409D02*
D03*
Y199409D02*
D03*
Y209409D02*
D03*
Y219409D02*
D03*
Y229410D02*
D03*
X147638Y327087D02*
D03*
Y317087D02*
D03*
X137638D02*
D03*
Y307087D02*
D03*
Y297087D02*
D03*
Y287087D02*
D03*
X147638Y307087D02*
D03*
Y297087D02*
D03*
Y287087D02*
D03*
X18504Y247480D02*
D03*
Y237480D02*
D03*
Y227480D02*
D03*
Y217480D02*
D03*
Y207480D02*
D03*
Y197480D02*
D03*
Y187480D02*
D03*
X27559Y327244D02*
D03*
Y317244D02*
D03*
X17559D02*
D03*
Y307244D02*
D03*
Y297244D02*
D03*
Y287244D02*
D03*
X27559Y307244D02*
D03*
Y297244D02*
D03*
Y287244D02*
D03*
D35*
X110276Y12402D02*
D03*
X78150Y12205D02*
D03*
X45965Y12402D02*
D03*
D36*
X60347Y372500D02*
D03*
X88693D02*
D03*
D37*
X149606Y383858D02*
D03*
X15748D02*
D03*
Y15748D02*
D03*
X149606D02*
D03*
D38*
X68504Y259842D02*
D03*
X68110Y235039D02*
D03*
X87795Y219685D02*
D03*
X67716Y198425D02*
D03*
X89370Y187402D02*
D03*
X8661Y302756D02*
D03*
X57087Y298425D02*
D03*
X41339Y266142D02*
D03*
X47638Y279921D02*
D03*
X24409Y272441D02*
D03*
X7874Y233071D02*
D03*
X21654Y167323D02*
D03*
X40157Y144882D02*
D03*
X30709Y127953D02*
D03*
X28740Y90551D02*
D03*
X10630Y138976D02*
D03*
X11024Y113386D02*
D03*
X26772Y31496D02*
D03*
X18504Y66929D02*
D03*
X31890Y54724D02*
D03*
X81890Y161811D02*
D03*
X66929Y133071D02*
D03*
Y92126D02*
D03*
X67323Y51181D02*
D03*
X92520Y63386D02*
D03*
X48425Y28346D02*
D03*
X69685Y16535D02*
D03*
X106559Y30055D02*
D03*
X140945Y46063D02*
D03*
X125591Y73622D02*
D03*
X134646Y95669D02*
D03*
X154724Y97638D02*
D03*
X156693Y138189D02*
D03*
X128740Y120472D02*
D03*
X130709Y155905D02*
D03*
X134646Y201969D02*
D03*
X133465Y251181D02*
D03*
X143701Y264961D02*
D03*
X134646Y277953D02*
D03*
X128740Y294488D02*
D03*
X142520Y359055D02*
D03*
X108661Y357087D02*
D03*
X77953Y388583D02*
D03*
X124803Y381890D02*
D03*
X42126Y392913D02*
D03*
X14961Y358661D02*
D03*
X39370Y325984D02*
D03*
X96063Y277559D02*
D03*
X118504Y329528D02*
D03*
X82677Y321260D02*
D03*
X73622Y287795D02*
D03*
X60236Y348819D02*
D03*
X80709Y43307D02*
D03*
X92520Y250000D02*
D03*
X28605Y112205D02*
D03*
X92520Y90551D02*
D03*
Y173228D02*
D03*
X120423Y273465D02*
D03*
X100689Y340551D02*
D03*
X66437Y174213D02*
D03*
X92323Y161417D02*
D03*
X92421Y105217D02*
D03*
X126083Y180512D02*
D03*
X131890Y174508D02*
D03*
X126969Y93602D02*
D03*
X132972Y104429D02*
D03*
D39*
X100394Y302756D02*
D03*
M02*
