G04*
G04 #@! TF.GenerationSoftware,Altium Limited,Altium Designer,19.1.8 (144)*
G04*
G04 Layer_Color=16711935*
%FSLAX25Y25*%
%MOIN*%
G70*
G01*
G75*
%ADD10C,0.00787*%
%ADD11C,0.01000*%
%ADD40C,0.00394*%
D10*
X81230Y332520D02*
G03*
X83730Y332520I1250J0D01*
G01*
X78189D02*
X81230D01*
X83730D02*
X86772D01*
Y292520D02*
Y332520D01*
X78189Y292520D02*
X86772D01*
X78189D02*
Y332520D01*
D11*
X138484Y62500D02*
X149508D01*
Y143209D01*
X138484D02*
X149508D01*
X138484Y62500D02*
Y143209D01*
X151378Y164213D02*
Y244921D01*
X140354Y164213D02*
X151378D01*
X140354D02*
Y244921D01*
X151378D01*
X12992Y171968D02*
Y252677D01*
X24016D01*
Y171968D02*
Y252677D01*
X12992Y171968D02*
X24016D01*
D40*
X108465Y345551D02*
Y350512D01*
X100000Y345551D02*
Y350512D01*
Y345551D02*
X108465D01*
X100000Y350512D02*
X108465D01*
X127362Y267205D02*
X135827D01*
X127362Y272165D02*
X135827D01*
Y267205D02*
Y272165D01*
X127362Y267205D02*
Y272165D01*
Y257362D02*
Y262323D01*
X135827Y257362D02*
Y262323D01*
X127362D02*
X135827D01*
X127362Y257362D02*
X135827D01*
X102067Y328228D02*
X110531D01*
X102067Y333189D02*
X110531D01*
Y328228D02*
Y333189D01*
X102067Y328228D02*
Y333189D01*
X117381Y319707D02*
X120888Y316199D01*
X111395Y313722D02*
X114903Y310214D01*
X120888Y316199D01*
X111395Y313722D02*
X117381Y319707D01*
X52420Y308246D02*
X55928Y311753D01*
X46435Y314231D02*
X49942Y317739D01*
X46435Y314231D02*
X52420Y308246D01*
X49942Y317739D02*
X55928Y311753D01*
M02*
